<svg version="1.2" xmlns="http://www.w3.org/2000/svg" viewBox="0 0 1920 1080" width="1920" height="1080">
	<title>layer1</title>
	<style>
		.s0 { fill: #5791cc } 
		.s1 { fill: #436db0 } 
	</style>
	<filter id="f0">
		<feFlood flood-color="#000000" flood-opacity=".33" />
		<feBlend mode="normal" in2="SourceGraphic"/>
		<feComposite in2="SourceAlpha" operator="in" />
	</filter>
	<g id="fishes" filter="url(#f0)">
		<path id="&lt;Compound Path&gt;" class="s0" d="m264.5 522.6c16.3-0.9 40.2-3.3 46.3-21.6q0.5 0 1.1 0c5.1 0.1 10 0.4 15-1 1-0.3 1.4-1.5 0.6-2.3-3.2-3.2-6-6.7-8.3-10.6-0.7-1-2.1-0.8-2.5 0.3-2 5.6-6.2 9.5-11.8 11.4q-0.4 0.1-0.6 0.4c-2.9 0.5-5.8 1.4-8.6 3.1-4.9 3.1-9.4 6.8-14.5 9.8-5.4 3.2-11.1 5.8-17 8-1.2 0.5-1.2 2.5 0.3 2.5z"/>
		<path id="&lt;Compound Path&gt;" class="s0" d="m372.8 507.8q-3.2-5.9-6.4-11.7c-0.5-0.9-2.2-0.8-2.4 0.3-0.4 2.4-0.9 4.9-1.6 7.3q-0.2-0.1-0.4-0.1c-12.9-1.4-25.7 6.4-32.5 16.9-0.5 0.7 0.1 1.8 1 1.7 8.2-1 18.2-0.9 25.6-5.1 3.6-2.1 5.8-5.1 7.4-8.6 2.5 1.7 5.4 2.2 8.6 1.2 0.7-0.3 1.1-1.1 0.7-1.9z"/>
		<path id="&lt;Compound Path&gt;" class="s0" d="m333.8 452.7c-2.7 4.1-6 7.3-9.8 9.8-15.2-4.2-35-3.8-46.1 8.7-0.5 0.5-0.2 1.4 0.5 1.4 15.2 0.2 32.6 0 45.6-8 3.4 1.1 6.9 2 10.4 3.1 0.5 0.1 1.1-0.3 1.1-0.9q0-6.8 0.1-13.6c0-1-1.3-1.2-1.8-0.5z"/>
		<path id="&lt;Compound Path&gt;" class="s0" d="m252.8 466.5c-0.7-0.6-1.6-0.2-1.9 0.5-1.1 2.6-0.4 4.9 0.3 7.4q0.3 1.5 0.4 2.6c-13.8-1.9-27.8 8.5-33 20.7-0.2 0.6 0.2 1.5 1 1.2 9.3-2.9 18.1-7 26.3-12.4 2.5-1.7 6.4-3.7 7.6-6.8q1.9 0.1 3.8 0.4c0.7 0.1 1.6-0.3 1.5-1.2-0.5-4.8-2.5-8.9-6-12.4z"/>
		<path id="&lt;Compound Path&gt;" class="s0" d="m247.9 512.5c-1-4.4-1.3-8.6-1.1-13 0-0.6-0.5-1.2-1.1-1.1-5 0.2-4.4 4.9-3.9 8.6q-0.6 0-1.2 0.1c0-0.4-0.2-0.8-0.7-0.8-10.6-1.1-18.1 8.6-23.5 16.2-0.4 0.7 0.3 1.7 1.1 1.4q6.3-2.2 12.7-4.4c3.5-1.2 7.3-2.1 10.6-3.8 1.9-1 3.2-2.4 3.5-4.6q0-0.3 0-0.7c0.7 0.6 1.2 1.5 1.5 2.7 0.3 1.3 2.4 0.8 2.1-0.6z"/>
		<path id="&lt;Compound Path&gt;" class="s0" d="m167.7 458.3c16.3-0.9 40.2-3.3 46.3-21.5q0.6 0 1.2 0c5 0 10 0.3 14.9-1.1 1-0.2 1.4-1.5 0.7-2.2-3.3-3.2-6-6.7-8.4-10.6-0.6-1-2.1-0.8-2.5 0.3-2 5.5-6.2 9.4-11.7 11.3q-0.4 0.2-0.7 0.5c-2.9 0.4-5.7 1.4-8.5 3.1-5 3.1-9.5 6.8-14.5 9.7-5.5 3.2-11.1 5.9-17 8.1-1.2 0.4-1.3 2.5 0.2 2.4z"/>
		<path id="&lt;Compound Path&gt;" class="s0" d="m276 443.6q-3.2-5.9-6.4-11.8c-0.5-0.9-2.2-0.8-2.4 0.3-0.4 2.5-0.8 5-1.5 7.4q-0.2-0.1-0.5-0.2c-12.8-1.3-25.7 6.5-32.5 16.9-0.4 0.7 0.1 1.9 1 1.8 8.3-1.1 18.2-1 25.6-5.2 3.6-2 5.9-5.1 7.4-8.6 2.6 1.8 5.5 2.2 8.6 1.2 0.8-0.2 1.1-1.1 0.7-1.8z"/>
		<path id="&lt;Compound Path&gt;" class="s0" d="m237.1 388.5c-2.8 4.1-6.1 7.2-9.8 9.7-15.2-4.2-35.1-3.8-46.2 8.7-0.5 0.5-0.2 1.4 0.6 1.4 15.1 0.3 32.5 0 45.6-7.9 3.4 1.1 6.9 2 10.3 3 0.6 0.2 1.2-0.3 1.2-0.9q0-6.8 0-13.6c0-0.9-1.2-1.2-1.7-0.4z"/>
		<path id="&lt;Compound Path&gt;" class="s0" d="m156 402.3c-0.7-0.7-1.6-0.3-1.9 0.5-1.1 2.5-0.3 4.8 0.3 7.4q0.4 1.4 0.4 2.6c-13.8-1.9-27.7 8.5-32.9 20.7-0.3 0.6 0.1 1.4 0.9 1.2 9.3-2.9 18.2-7.1 26.3-12.5 2.6-1.6 6.5-3.6 7.7-6.7q1.8 0.1 3.8 0.3c0.6 0.1 1.6-0.3 1.5-1.1-0.6-4.9-2.6-9-6.1-12.4z"/>
		<path id="&lt;Compound Path&gt;" class="s0" d="m151.2 448.2c-1-4.3-1.4-8.6-1.2-13 0.1-0.6-0.5-1.1-1.1-1.1-5 0.3-4.3 5-3.9 8.7q-0.6-0.1-1.2 0c0.1-0.3-0.2-0.7-0.7-0.8-10.5-1-18 8.6-23.5 16.3-0.4 0.6 0.4 1.6 1.1 1.3q6.4-2.2 12.7-4.4c3.5-1.2 7.3-2.1 10.6-3.7 1.9-1 3.2-2.5 3.5-4.6q0-0.3 0-0.7c0.7 0.6 1.2 1.4 1.5 2.6 0.3 1.4 2.5 0.8 2.2-0.6z"/>
		<path id="&lt;Compound Path&gt;" class="s0" d="m103.2 538.6c16.3-0.8 40.2-3.3 46.3-21.5q0.6 0 1.2 0c5 0 10 0.3 14.9-1 1-0.3 1.4-1.6 0.6-2.3-3.2-3.2-5.9-6.7-8.3-10.6-0.6-1-2.1-0.8-2.5 0.3-2 5.5-6.2 9.5-11.7 11.3q-0.4 0.2-0.7 0.5c-2.9 0.5-5.7 1.4-8.5 3.1-5 3.1-9.5 6.8-14.5 9.7-5.5 3.2-11.2 5.9-17 8.1-1.2 0.4-1.3 2.5 0.2 2.4z"/>
		<path id="&lt;Compound Path&gt;" class="s0" d="m211.5 523.9q-3.2-5.9-6.4-11.8c-0.5-0.9-2.2-0.8-2.4 0.3-0.4 2.5-0.9 5-1.6 7.4q-0.1-0.1-0.4-0.2c-12.8-1.3-25.7 6.5-32.5 16.9-0.4 0.7 0.1 1.9 1 1.8 8.3-1 18.2-0.9 25.6-5.2 3.6-2 5.8-5.1 7.4-8.6 2.6 1.8 5.5 2.2 8.6 1.2 0.8-0.2 1.1-1.1 0.7-1.8z"/>
		<path id="&lt;Compound Path&gt;" class="s0" d="m172.6 468.8c-2.8 4.1-6.1 7.2-9.9 9.7-15.1-4.2-35-3.7-46.1 8.7-0.5 0.6-0.2 1.4 0.6 1.4 15.1 0.3 32.5 0 45.5-7.9 3.5 1.1 7 2 10.4 3 0.6 0.2 1.1-0.3 1.1-0.9q0.1-6.8 0.1-13.6c0-0.9-1.2-1.2-1.7-0.4z"/>
		<path id="&lt;Compound Path&gt;" class="s0" d="m91.5 482.6c-0.7-0.7-1.6-0.3-1.9 0.5-1.1 2.5-0.3 4.8 0.3 7.4q0.4 1.4 0.4 2.6c-13.8-1.9-27.8 8.5-32.9 20.7-0.3 0.6 0.1 1.4 0.9 1.2 9.3-2.9 18.2-7.1 26.3-12.5 2.6-1.6 6.5-3.6 7.7-6.7q1.8 0.1 3.7 0.3c0.7 0.1 1.7-0.3 1.6-1.1-0.6-4.9-2.6-9-6.1-12.4z"/>
		<path id="&lt;Compound Path&gt;" class="s0" d="m86.7 528.5c-1.1-4.3-1.4-8.6-1.2-13 0.1-0.5-0.5-1.1-1.1-1.1-5 0.3-4.3 5-3.9 8.7q-0.6-0.1-1.2 0.1c0-0.4-0.2-0.8-0.7-0.9-10.5-1-18 8.6-23.5 16.3-0.4 0.6 0.3 1.6 1.1 1.4q6.3-2.3 12.7-4.5c3.5-1.2 7.3-2.1 10.6-3.7 1.9-1 3.2-2.5 3.5-4.6q0-0.3 0-0.7c0.7 0.6 1.2 1.4 1.5 2.6 0.3 1.4 2.5 0.8 2.2-0.6z"/>
		<path id="&lt;Compound Path&gt;" class="s1" d="m190.6 498.1c-2.3-4.4-2.1-9.8 1.3-13.9 0.7-0.9-0.2-1.9-1.2-1.5-1.9 0.8-3.2 2.1-4.7 3.5-0.8 0.8-1.6 1.7-2.5 2.2-2.6 1.5-5.1 0-7.2-1.4-3.9-2.7-7.5-5.1-12.4-5.3-6.3-0.2-19.4 2.2-21.3 9.6q-0.2 0.2-0.3 0.4 0 0 0 0-0.1 0.1-0.2 0.1c-1.1 0.4-0.7 1.9 0.4 1.7 4.4-0.7 7.9 2.5 11.9 3.6 3.5 1 7 0 10.5-0.8 7.8-1.8 18.7-4.1 24 3.4q0.5 0.8 1 1.6c0.8 1.2 2.5 0.2 1.9-1.1q-0.5-1.1-1.2-2.1z"/>
	</g>
</svg>