<svg version="1.2" xmlns="http://www.w3.org/2000/svg" viewBox="0 0 1920 1080" width="1920" height="1080">
	<title>New Project</title>
	<style>
		.s0 { fill: #042648 } 
	</style>
	<path id="&lt;Path&gt;" class="s0" d="m212.5 162.9c42 130.3 47.6 188.5 38.5 221.2-1.8 6.6 2.8 12.3-7.1 17-6.7 9.1-9.7 8-9.6 13-8.8 0.4-11.4 8-19.1 9.2 7.6 5.6-17.4 18.2-32.6 8-0.8 2.7-32.4 12.2-36.6 9.5-13.4 9.3-28.7 7.8-31.1 13.3-11.2 0.9-24 15.5-16.4 19.9-1.5 6.1 2.6 11.7 9.9 17.5 4 4.7 22.4 17.9 29.8 18.9 11.8 7.1 24.6 15.1 36.4 24.9 11.8 9.7 22.5 21.3 30 35.3 4.3 8.3 12.5 10.5 4.8 28 3.5 3.4-28.3 24.7-6.4 33-15.2-15.2 0.5 13.3-5.1 22.5-8.7 12 11.7 15-4.7 14.3-4.5 10.7-29.6 15.7-14.9 22.4 0.1-7.7-1.3 9.7 9.7 17 16.8 12.5 3.9 27.4 5.9 30.3-14.2-2.5 9.3 0.7 1.4 10.4 5.3-3.3-3.8-0.2-3.7 0.6 0.1-6.8 8.3 6.6 14.6 19.7-4.7 10.5 14.4 25.3 17 20.3 25.2 17.9 8.4 17.1 22.8 15.2-9.7-7.5 5.7 0.9 20.8 13.2 6.7 5.1 13.1 11.5 19.4 20.9 26.7 8.8 59.4 32.3 39.5 7 5.2-21 26.1-5.1 24.6-16.3-11.1-21.7 24.9-6.3 18.3-20.8 17.5-19 17.2-19.1 20.8-6.5 8.3 2.3 18.4 10.2 31.9 26.7 14.6 18.1 34.5 28.7 57.7 34.1 11.7 2.7 20.6 1.6 37.3 4.4-3.4 10.4 35.3-11.1 41.2-2.1 35.2 1.7 37-8.2 43.9-6.9 32.7-18.9 30.5-13.1 45.1-10.2 7.4-16.3 34.5-8.3 45.3-12.1 15-4.1 29.8-8.3 44.1-12.3 10.8-2.9 21.3-5.8 31.5-8.4 9.2 2.9 41.9-12.9 29.6-7.1 12.8-0.7 27.9-11.6 27.1-5.1-1.9-17.2-0.7 1.2 24.1-2.5 39.2-8.7 24.9 1.9 61.9 0 23.5 8.3 39.6-2.4 54.6 4.6 17.1 2.2 33.1 5.1 48.2 8.5 16.3 3.7 31.5 7.9 45.7 12.7 14.3 4.7 31.3-4.1 40.4 15.4 25.4 6.4 26.7 14.5 35.9 17.4 8.1 8.4 14 21.1 32.8 18.3 2.5 0.5 24.4 2.4 30.5 18.5 5.4 3.2 15.2 27.9 29.4 17.6 8.3 9.1 19.5 11 29.4 15.9 59.4 29.6 124.8 43.6 234.6 9.8 61.9-19.1 117.4-36.2 166.7-52.9q24.6-8.3 47.2-16.6c14.8-17.1 32.3 2.5 43-16.6-5.6-11.7 19.7-5.5 38.8-17 5.7 4.5-1.4-22.4 34.7-17.7 15-7.5 15.5-13.3 30.5-18.7-9.1-10.6 11.9-4.4 26.4-20.2q12.2-10.4 22.3-21.8c27-30.5 43.1-66.5 48.4-111.6v435.1h-1950.6v-891.3z"/>
</svg>