<svg version="1.2" xmlns="http://www.w3.org/2000/svg" viewBox="0 0 1920 1080" width="1920" height="1080">
	<title>layer1</title>
	<defs>
		<linearGradient id="g1" x2="1" gradientUnits="userSpaceOnUse" gradientTransform="matrix(-931.928,926.809,-1285.247,-1292.346,2315.746,331.974)">
			<stop offset="0" stop-color="#1a0d23"/>
			<stop offset="1" stop-color="#0095c2"/>
		</linearGradient>
	</defs>
	<style>
		.s0 { fill: url(#g1) } 
	</style>
	<path id="&lt;Compound Path&gt;" fill-rule="evenodd" class="s0" d="m1925.5 1006.5c-0.3 0.4-0.9 0.9-1.6 0.7-10.4-2.9-17.7-8.5-23.8-15.1 3.7 4.8 7.5 9.4 11.5 13.9l-0.6 46.4v2.7q-2-1-4-2c-1.4-0.7-2.7-1.2-4.1-1.8-0.9-0.2-1.9-0.4-2.8-0.5-8.6-0.8-17.3-1.2-25.9-1.9-10.1-0.8-19.6-3.1-29.9-3.2-2.8-0.1-5.5 0-8.3 0.1-8.1 0.6-16.2 0.7-24-1-0.6-0.1-1.1-0.1-1.7-0.3-11.7-2.7-22-6.2-34.3-7.3-22.1-2.1-44.2 2.7-66.3 3.8q0-0.1 0-0.2 0.4-0.8 0.9-1.7 0 0 0 0c0.2-0.4 0.3-0.8 0.5-1.2 1.3-6.1 3.4-12.1 5.9-18 2.6-6.2 5.1-12.2 6.6-18.5 1.4-9.5 1.5-18.2 0.8-26.3q-0.1-0.2-0.2-0.5c-0.5 0.1-1-0.1-1.1-0.5-2.1-6.8-4.8-14-6.5-21.3-2.4-6.8-4.1-14.1-2.1-20.9 1.7-5.5 5.2-10.1 8.4-14.8 0.2-0.3 0.4-0.6 0.6-0.9 0.2-0.3 0.3-0.6 0.5-0.9-0.1-0.1 0-0.4 0.1-0.6q0.4-0.3 0.7-0.7c0.6-0.9 1.1-1.8 1.6-2.7 0.1-0.2 0.5 0 0.4 0.2q-0.1 0.3-0.3 0.5c2.5-2.8 5.2-5.6 7.8-8.4-0.4-0.2-0.6-0.7-0.2-1.1 4.3-4.5 8.2-9.3 12.3-13.9q0.9-1.2 1.8-2.3c1.8-3 3.3-6.2 4.3-9.5 0.3-0.8 0.3-1.6 0.5-2.5q0.8-5.4 0.6-11c-0.9-11.1-5.4-22.1-5.9-33.2-0.9-24 2.6-47.8-2.9-71.5-0.8-3.3-1.7-6.6-2.7-9.8-4.8-7.5-8.3-15.6-7.2-24.4 0.6-5.7 2.8-11.1 5.4-16.3 1-3.1 2.2-6.1 3.4-9.2 2.5-14.5 7.6-28.9 7.2-43.4-2.4-10-6.7-19.6-10.8-29.2-4.7-10.7-9.9-21.1-16.6-31-4.6-6.6-9.6-13-14.7-19.3-10.2-9.4-20.9-18.3-25.6-31.2-2.5-6.7-4.5-13.2-6.6-19.6q-2.8-7.4-5.8-14.8c-3.8-8.1-8.9-15.7-17.1-22.8q-0.7-0.7-1.4-1.3c-10.8-9-23-17.1-35.2-25.1-3.4-1.5-6.7-3.1-9.8-5-10.4-6-19.4-13.1-27.3-21.3-8.6-4.9-17-9.1-25.9-12.4q-3-0.9-5.9-1.8-6-1.3-11.8-3.2c-2.5-0.6-5-1.1-7.5-1.7-1.2-0.2-2.4-0.4-3.6-0.6-14.7-2.1-28-4.3-39.6-8.9q0 0-0.1 0c-13.8-3-22.9-12-30-22.1-9.2-10.3-16.4-22.1-24.3-33.1-5.9-8.2-11.9-16.5-19.2-23.9-3-3-6.2-6.1-9.6-8.9-3.8-1.7-7.7-3.1-11.7-4.4-13.7-3.3-28.1-5.5-40-12-3.8-0.9-7.6-2.4-11.1-5-3.2-2.5-5.8-5.4-8-8.6 0.3 1.3 0.7 2.6 1 3.9 0.1 0.4-0.7 0.5-0.8 0.1-1.1-3.3-2.6-6.7-4-10-3.7-6.5-6.7-13.6-10.8-19.8q0-0.1-0.1-0.2-1.6-2.4-3.4-4.7c-7.9-9.3-15.5-17.2-22.2-27.2-3.6-3.8-7.5-7.4-11.8-10.3-8.2-5.7-18.2-7.1-28.4-8.8-0.8-0.2-1-0.7-0.8-1.3q-0.1 0-0.1 0c-9.3 0.5-16.6 0.6-27.7-1.7-0.4-0.1-0.7-0.2-1-0.3-10.3-1.6-20-4.4-29.3-8.1-32.1-10.9-61.1-26.8-91.1-42.3q-4.3-2-8.4-4.2c-4.4-2.2-8.8-4.5-13.3-6.6-18.9-9.1-38-21.8-58.2-28.8-15.1-5.2-25.2-1.7-40.4 0.4-35.4 4.8-47.8-22-77.5-28.7-27.4-6.2-57.9-16.7-90.1-28.9-3.5 0.7-7.1 1.4-10.6 2.1-4.8 1.1-9.7 2.1-14.7 3.1-4.1 1-8.3 1.9-12.5 2.4-4.7 0.6-9.8 1.1-14.9 1-3.1 0.1-6.2 0.1-9.3-0.1-11.1-0.8-22.3-3.4-32.7-7.3-4.8 2.7-9.7 5.2-15.5 5.8-1.9 0.3-3.3-0.6-4-1.8q-0.9 0.6-1.9 1.1c-7.4 6.1-13.9 12.7-17.7 21.3-2.2 5.2-3.6 10.5-4.8 15.8q-0.1 0.7-0.1 1.3 0 0 0 0c-0.5 6-1.2 11.8-4.1 18.1-1.7 6.1-3.7 12.1-5.3 18.2q0 0 0 0c-0.5 2-1 4.1-1.3 6.2q-0.7 4.4-1 8.7c0.4 3.3 0.7 6.8 0.3 9.8 0.1 1.2 0.1 2.4-0.1 3.6-0.6 2.9-2.3 4.2-5.8 3.4-1.5-0.4-2.9-1.7-4.2-3.3-3.3-2.4-5.5-6.8-6.8-9.8-2.8-6.5-6.6-13-7.8-19.9-0.2-0.9-0.3-1.8-0.5-2.7-2.3-1.8-4.3-3.8-5.6-5.9-6.3-10.3-2.8-22.4-11.2-32.4-0.6-0.7 0.7-1.5 1.4-0.8 0.4 0.4 0.7 0.9 1.1 1.3-0.1-0.1-0.1-0.2-0.2-0.3-1.3-2.2-2.9-3.4-4.3-4.5q-0.1 0-0.3 0-0.2 0-0.5-0.1c-0.8 0-1.6 0-2.3 0.1-0.2-1.3-0.5-2.7-0.8-4.1q0-0.1-0.1-0.3c-3.4-4.3-5.1-9.9-7.8-14.9-0.4 0.3-1.2 0.3-1.6-0.1-7.1-6.9-15.3-11.9-23.6-17-25.2-7.1-51.9-13.7-78.6-12.6-9.6 0.8-19.2 2.2-28.9 3.5-9.8 1.4-19 4.1-28.7 6-9.5 2-19.6 3.2-28.8 6-9.2 2.8-18.5 6.3-27.1 10.2-3.4 1.5-6.2 2.7-9.7 1.7-0.8 0.3-1.7 0.6-2.5 0.9-7 3.3-14.2 6.1-21.9 7.8-7.9 2.4-15.8 3.5-26.3 2.2-5.2-0.1-10.4-0.5-15.7-0.9 0.1 0.5-0.1 1-0.8 1.2-3.6 1-7.3 1.7-11.2 2.2-0.2 0.3-0.4 0.6-0.8 0.8-8.5 4.8-18.3 4.6-28.1 4.5q-0.1 0-0.2 0c-8.9 6.6-20.3 9.7-30.8 14.2-7.3 3.1-14.8 6.2-21.2 10.5-5.5 3.7-10.4 8.1-16 11.7-3.8 2.5-7.8 4.7-11.8 6.9-6.5 7.6-16.5 13.3-23.3 20.7-1.3 1.9-2.5 3.8-3.5 5.8-7.8 14.6-3.5 30.6-8 45.5 0.1 0.1 0.2 0.2 0.2 0.3-0.2 0.9-0.5 1.6-0.7 2.4-0.4 2.6-0.9 5.3-1.8 7.9-0.1 0.3-0.2 0.6-0.3 0.9-0.5 2.7-1.2 5.4-2.4 8-2.1 4.9-5 9.6-6.4 14.7-1.5 5.2-1.9 10.2-2.4 15.4q-0.1 0.5-0.1 1c-0.1 3.1 0 6.3 0.3 9.5 0.8 9.6 0.1 18.2-2.3 27.3-0.4 5-0.9 10.1-1.6 15.2-0.3 2.2-0.8 5.8-2.2 8.8-0.7 2.8-4 8.5-8 8.3-0.1 0.3-0.4 0.4-0.6 0.2q-0.2-0.2-0.4-0.3c0-0.1-0.1-0.1-0.2-0.2-0.1 0.1-0.3 0.1-0.4 0.1-2.3 0-3.8-1.2-3.6-3.2 0-0.2 0.2-0.4 0.2-0.6-7.1-7.2-12-15.5-12-25.3-0.1-7.3 1.1-14.7 0.3-22-0.9-8.4-5.4-15-8.4-23q0-0.1 0-0.2c-2.2-2.8-4.2-5.4-5.8-8.1q-6.6-11.7-10.2-24.4c-2.3-8.4-2.5-17.3-10.8-23.3-0.7-0.4-0.8-1-0.5-1.5-11.3-5.3-20.2-13.6-33.9-14.5-0.4 0-0.7-0.2-0.9-0.5-4 0.7-8.3 0.8-12.9 0.2-7.6-1.1-15.1-2.9-22.9-2.7-2.2 0.1-4.4 0.3-6.6 0.5l0.1-4q0.1 0 0.2 0v-0.2q-0.1 0-0.2 0.1l0.1-11.8v-1l0.2-15v-0.9l0.2-13.2 0.1-12.9 0.1-2.9v-2.2-1-1.6l0.1-3.7 0.1-10 0.1-10q0.2-0.1 0.3-0.2v-2.8q-0.1 0.1-0.2 0.2v-3.5l0.1-7v-3.4q0.2-0.2 0.3-0.3v-4.3q-0.1 0.2-0.2 0.3l0.8-65.2q0.1-0.3 0.3-0.5v-1.7h0.9q0-0.2 0.1-0.3h6.7c0.1 0 0 0.2 0 0.3l15.7-0.1q0.3-0.1 0.5-0.3l46.8-0.1h10.5l17-0.1q-0.4 0.2-0.7 0.3h12.5q0.4-0.2 0.9-0.3l65.4-0.2q-0.3 0.2-0.6 0.3h9.8c0.4-0.1 0.8-0.2 1.2-0.3l62.3-0.2c-0.3 0.1-0.7 0.2-1.1 0.3h4.1q0.5-0.2 1-0.3l38.8-0.1h2.7l22.8-0.1q-0.3 0.2-0.5 0.3h8.9l149.4-0.4q0.5-0.2 1-0.3l69.9-0.2q-0.9 0.2-1.9 0.3h16.6c4.6-0.2 9.1-0.2 13.5-0.3 9.9-0.1 21.8 0.5 33.2-0.2h27.7c-0.2 0.1-0.4 0.1-0.5 0.3l228.7-0.7h18.6q1.6 0.4 3.5 0.4h14.3l144.9-0.4 64.9-0.2h3.9l22.7-0.1 93.3-0.2 219.6-0.6 47.2-0.1c1.3-0.1 2.4-0.2 3.4-0.5l31.8-0.1c30.8-1.2 61.6-1.9 92.4-0.2l40.8-0.1q3.8-0.7 7.6-1.4 1.3-0.3 2.6-0.5c20.5-0.6 41.1-0.6 61.6-0.4-0.1 0-0.1 0.1-0.2 0.1-2.5 0.7-5.1 1.3-7.6 2l25.7-0.1q10-0.7 20.1-1.6c18.9 0.3 37.8 0.5 56.7 0.4 5.5-0.1 11-0.1 16.5-0.1 0.2 0.3 0.2 0.7 0.4 1.1l58.4-0.2q2.2 0.1 4.4 0.2v1.4h10 2.7l-4.8 381c-0.9-0.2-1.8-0.5-2.7-0.8l-0.2 17.6c-3.7 3.6-7.8 6.7-12.5 9.2-11.4 5.8-26.5 7.4-39.8 11.2-2.2 0.7-4.3 1.4-6.4 2.3-10.8 4.5-15.5 12.2-18.1 21.8-2.2 8.5-3.6 17.1-7.9 25.2-0.1 0.2-0.2 0.3-0.3 0.5-3.1 6.4-8 13.6-11.9 19.7-4.7 7.3-12.5 12.2-17.8 18.7q-2.5 3.7-4.2 7.6c-1.6 6.4 0.7 12.7 0.7 19.6 0.1 5.4-0.3 10.7-0.9 16 0.1 0.7 0.2 1.3 0.2 1.9 0.7 11.5-0.9 23-1.4 34.5-0.6 11.5-0.3 23 1.2 34.4 0.2 0.7-0.9 0.8-1.2 0.2 0.7 6 0.9 12 0.3 18-0.4 6.8-1.7 13.6-4.6 20.1-2.7 6.2-6 12.1-9.2 18.1q-3.2 7.5-6.3 15.1-2.3 7.3-3.6 14.8-0.8 5.5-1.4 11-0.2 2.4-0.4 4.9c0.7 9.1 2.6 18.3 3.2 27.2 0.7 8.9 0.8 18.1 1 27.3 3.4 18.3 8.2 36.3 12.6 54.5 2.8 11.1 3.8 22.3 4 33.8 0.1 6.1 0.4 12.1 0.7 18.1 0.2 0 0.3 0.1 0.4 0.2 0.7 1.5 1.5 2.7 2.3 3.9 3.7 1.5 6.6 3.9 9 6.8 2.3 1.3 4.5 2.6 6.3 4.3 5.4 4.8 6.1 11.7 7.8 17.8 1.9 7 4.1 14 9.6 19.6 5.6 5.8 13 9.1 20.6 12.5 7.4 3.3 14.8 6.9 21 11.6 6.4 4.8 11.1 10.3 15.7 16.3 9.9 12.7 18 26.1 35.5 31.8 0.3-0.6 0.5-1.1 0.6-1.7 0.2-1.1 2.1-0.9 2.1 0.1 0.2 1.3 0.1 2.4-0.7 3.6zm-133.3-124.3q-0.3-5.3-0.4-10.6c-0.5 3.5-0.9 6.9-0.7 10.5 0.4 0 0.7 0.1 1.1 0.1zm-74.6 55.9q0.1-2.7 0.7-5.4c0-0.5 0-0.9 0-1.4q-0.7 3.4-0.7 6.8zm120.2-493.2c0.7-2.5 1.3-5.1 2-7.6-0.2 0.1-0.5 0-0.7 0-0.7 2.5-1 5-1.3 7.6zm-1354.5-396.7q1.9-0.2 3.8-0.4c-0.2 0-0.4-0.1-0.6-0.1q-1.6 0.2-3.2 0.5zm141.2 48.5c0.8 0.9 1.3 1.9 1.8 2.9 0-0.9 0-1.7 0-2.6q-0.9-0.1-1.8-0.3zm1122.4 659q0.1 0.5 0.2 1 0-0.4-0.1-0.7-0.1-0.2-0.1-0.3zm62.9 139.1c4.5 7.6 6.5 17.1 9.3 24.1 2.6 6.2 5.3 14.4 11.1 19.1 3.9 3.2 8.1 4.5 12.6 5.7-6-3-11.7-6.6-15.7-11.5-4.6-5.7-6.8-12.1-8.5-18.7-1.8-7.2-2.8-13.8-8.8-18.7zm-14.3-12.6q0 0.3 0 0.7 0.2 0.1 0.5 0.2c-0.2-0.3-0.4-0.6-0.5-0.9zm-16.9-91c0.5 9.9 1.6 19.7 3.9 29.1 1.4 5.9 4.2 11.3 6.8 16.8-0.9-5.1-1.9-10.2-3.2-15.3-2.6-10.2-5.2-20.4-7.5-30.6zm19.7-229.7c-1.4 10.2-2.6 20.5-2.1 30.9q0.2 3.4 0.6 6.9c-0.4-12.6 1.1-25.2 1.5-37.8zm-1408.5-491.9q-0.6 0.2-1.2 0.5 0.6-0.3 1.2-0.5zm0.8-0.4q-0.4 0.2-0.8 0.4 0.4-0.2 0.8-0.4zm890 148.3c1.6 1 3 2.2 4.5 3.4-3-4.1-6.1-7.2-10.2-9.2q-2-0.3-4-0.5c-1.8-0.3-3.7-0.5-5.6-0.7q-2.2-0.1-4.5-0.2c7.1 1.2 14.2 3.3 19.8 7.2zm494.1 815.7c-0.4-0.1-0.9-0.2-1.4-0.3q-0.4 0-0.9 0-0.2 0-0.5 0 1.5 0.4 2.8 0.3zm110-60.3c-4.6-5.8-9.4-11.4-16-15.9 5.9 4.8 11.2 10.2 16 15.9zm-92-317.4q0.1 0 0.1 0 0 0 0 0 0 0-0.1 0z"/>
</svg>