<svg version="1.2" xmlns="http://www.w3.org/2000/svg" viewBox="0 0 1920 1080" width="1920" height="1080">
	<title>layer1</title>
	<style>
		.s0 { fill: #0c264d } 
	</style>
	<path id="turtle" class="s0" d="m1585.7 465.8c-1.4-3.7-3.1-7.2-5.2-10.6-1.8-2.7-3.5-4.6-6.9-4.7-8.9-0.2-17.7 1.1-26.5 1-3.3 0-7.2-0.3-9.9-2.3-3.6-2.7-2.7-6.8-3.4-10.7-0.5-2.9-2.2-4.8-4.9-6-3.7-1.7-7.8-2.8-11.8-3.8-15.5-3.7-31.7-3.3-47.3-0.7-16.4 2.7-32.6 7.6-47.9 14.2-17.6 7.6-34.1 17.5-49.1 29.3-0.4 0.3-0.3 1 0.2 1.2 4 1 8 2 12 3q-0.4 0.7-0.6 1.5c-0.2-0.2-0.5-0.1-0.5 0.1 0 6.2-5.5 10.5-9.8 14.2-4.7 4-9.5 7.9-13.8 12.3-6.9 7.1-12.1 16.1-11.2 26.3 0 0.2 0.3 0.4 0.5 0.4 5.3-1.2 10.5-2.5 15.1-5.3 4.5-2.9 8.3-6.7 12.3-10.2 2.7-2.4 5.3-4.9 8-7.4q1.4 2.6 3.1 5.1c1.5 2.2 3.1 4.4 4.9 6.3 1.1 1.2 2.4 2.5 4.1 2.6 4.2 0.2 6.6-6.2 8.3-9q4.8-8 9.6-15.9c1.7-2.9 3.4-5.7 5.1-8.6 17.1 2.2 34.6-1.1 51.8-1.3 12.4-0.2 25.5 0.3 37.9-2.1-3.4 4.4-7.1 8.5-10.2 13.1-4.3 6.2-7.7 13.1-11.4 19.6q-5.9 10.7-11.9 21.3c-0.3 0.5 0 1.3 0.7 1.1 18.2-4.9 33.4-16.6 46.3-30 6.6-7 12.7-14.5 18.8-22 2.5-3.2 5.5-6.4 6.4-10.5q0.1-0.4 0.1-0.9c12.9 1.2 26.1-2.3 36.8-9.5 0.4-0.3 0.4-0.7 0.3-1.1z"/>
</svg>