<?xml version="1.0" encoding="UTF-8"?>
<!DOCTYPE svg PUBLIC "-//W3C//DTD SVG 1.1//EN" "http://www.w3.org/Graphics/SVG/1.1/DTD/svg11.dtd">
<svg xmlns="http://www.w3.org/2000/svg" version="1.1" width="1920px" height="1080px" style="shape-rendering:geometricPrecision; text-rendering:geometricPrecision; image-rendering:optimizeQuality; fill-rule:evenodd; clip-rule:evenodd" xmlns:xlink="http://www.w3.org/1999/xlink">
<g><path style="opacity:0.968" fill="#042547" d="M 565.5,60.5 C 580.799,60.0944 593.466,65.5944 603.5,77C 618.423,78.3842 632.756,82.0509 646.5,88C 651.252,90.7477 655.419,94.2477 659,98.5C 660.914,101.298 661.914,104.298 662,107.5C 649.847,101.505 637.014,97.8385 623.5,96.5C 624.091,99.6136 625.758,102.114 628.5,104C 636.041,108.27 643.707,112.27 651.5,116C 659.267,120.71 663.6,127.543 664.5,136.5C 664.312,145.861 659.645,150.028 650.5,149C 648.683,147.2 647.516,145.034 647,142.5C 649.332,127.39 643.499,117.224 629.5,112C 623.91,110.182 618.244,108.682 612.5,107.5C 608.224,119.728 610.058,131.061 618,141.5C 629.086,152.367 641.086,162.033 654,170.5C 659.016,179.006 656.516,182.672 646.5,181.5C 625.054,179.561 611.22,168.228 605,147.5C 602.592,135.238 600.592,122.905 599,110.5C 598.783,107.061 597.283,104.395 594.5,102.5C 589.824,111.367 587.491,120.867 587.5,131C 588.778,142.253 590.278,153.42 592,164.5C 588.88,171.974 583.38,174.474 575.5,172C 573.376,170.878 571.543,169.378 570,167.5C 568.437,162.282 568.104,156.949 569,151.5C 572.231,132.782 575.231,114.116 578,95.5C 575.626,97.539 573.626,99.8723 572,102.5C 568.973,112.608 565.64,122.608 562,132.5C 556.338,145.703 547.171,155.536 534.5,162C 521.507,166.632 516.674,162.465 520,149.5C 534.131,139.039 545.797,126.372 555,111.5C 556.92,108.162 558.42,104.662 559.5,101C 559.212,95.6501 556.546,92.9835 551.5,93C 553.114,105.423 547.614,112.923 535,115.5C 528.339,115.03 525.839,111.697 527.5,105.5C 531.581,103.882 534.748,101.215 537,97.5C 535.492,89.6119 534.825,81.6119 535,73.5C 537.596,69.6099 541.096,66.7766 545.5,65C 552.201,63.0297 558.868,61.5297 565.5,60.5 Z"/></g>
<g><path style="opacity:0.981" fill="#042547" d="M 1100.5,126.5 C 1107.18,126.789 1113.84,127.289 1120.5,128C 1121.36,128.689 1122.02,129.522 1122.5,130.5C 1121.46,134.211 1120.63,137.878 1120,141.5C 1130.13,153.962 1140.63,166.128 1151.5,178C 1156.99,182.246 1162.66,186.246 1168.5,190C 1180.32,195.745 1191.99,201.745 1203.5,208C 1210.91,213.155 1215.24,220.155 1216.5,229C 1216.33,230.5 1216.17,232 1216,233.5C 1214.74,231.203 1212.9,230.37 1210.5,231C 1218.1,240.773 1227.1,248.939 1237.5,255.5C 1238.28,257.765 1237.28,259.099 1234.5,259.5C 1232.3,259.152 1230.47,258.152 1229,256.5C 1228.81,258.9 1228.31,261.234 1227.5,263.5C 1222.55,257.378 1217.38,251.378 1212,245.5C 1211.52,247.913 1211.85,250.246 1213,252.5C 1217.09,257.428 1220.59,262.761 1223.5,268.5C 1221.82,270.921 1219.82,271.088 1217.5,269C 1214,264.167 1209.83,260 1205,256.5C 1202.46,257.876 1200.46,257.21 1199,254.5C 1200.69,258.591 1201.86,262.924 1202.5,267.5C 1203.3,271.566 1201.8,274.233 1198,275.5C 1195.74,274.91 1194.08,273.577 1193,271.5C 1191.84,267.225 1191.01,262.891 1190.5,258.5C 1187.88,258.768 1185.38,258.435 1183,257.5C 1181.76,251.815 1180.43,246.149 1179,240.5C 1177.08,238.194 1174.58,236.861 1171.5,236.5C 1163.96,222.566 1162.13,223.233 1166,238.5C 1170.33,244.167 1174.67,249.833 1179,255.5C 1180.43,259.406 1180.77,263.406 1180,267.5C 1178.95,268.517 1177.78,268.684 1176.5,268C 1173.61,264.367 1170.61,260.867 1167.5,257.5C 1166.39,258.723 1166.22,260.056 1167,261.5C 1169.44,264.605 1170.94,268.105 1171.5,272C 1171.55,276.151 1169.55,277.484 1165.5,276C 1163.62,272.326 1162.12,268.493 1161,264.5C 1160.67,264.167 1160.33,263.833 1160,263.5C 1159.67,265.833 1159.33,268.167 1159,270.5C 1157.95,271.517 1156.78,271.684 1155.5,271C 1153.33,267.149 1151.16,263.315 1149,259.5C 1148.33,261.5 1148.33,263.5 1149,265.5C 1150.77,269.152 1151.94,272.985 1152.5,277C 1152.74,282.099 1150.4,284.432 1145.5,284C 1143.66,281.148 1141.83,278.314 1140,275.5C 1138.96,277.701 1138.12,280.034 1137.5,282.5C 1132.65,278.826 1132.15,279.826 1136,285.5C 1138.7,288.538 1141.7,291.205 1145,293.5C 1146.13,295.345 1146.63,297.345 1146.5,299.5C 1142.94,299.592 1139.61,298.759 1136.5,297C 1133.63,294.463 1131.13,291.63 1129,288.5C 1128.06,289.263 1127.56,290.263 1127.5,291.5C 1129.69,295.205 1130.69,299.205 1130.5,303.5C 1128.53,303.739 1126.7,303.406 1125,302.5C 1123.18,296.21 1121.51,289.877 1120,283.5C 1118.75,280.184 1117.08,279.85 1115,282.5C 1115.01,288.818 1115.18,295.151 1115.5,301.5C 1113.02,301.677 1111.19,300.677 1110,298.5C 1108.23,291.925 1106.9,285.258 1106,278.5C 1103.85,272.002 1100.01,270.835 1094.5,275C 1093.71,276.085 1093.04,277.252 1092.5,278.5C 1095.53,282.361 1098.36,286.361 1101,290.5C 1102.07,297.559 1099.24,299.726 1092.5,297C 1087.67,292.173 1084.84,286.34 1084,279.5C 1083.9,284.946 1083.23,290.279 1082,295.5C 1077.07,298.678 1072.9,298.012 1069.5,293.5C 1074.52,284.742 1076.19,275.409 1074.5,265.5C 1071.53,272.77 1068.03,279.77 1064,286.5C 1059.08,293.145 1055.25,292.478 1052.5,284.5C 1054.44,278.608 1056.94,272.942 1060,267.5C 1061.81,262.602 1062.81,257.602 1063,252.5C 1059.84,258.998 1054.84,263.331 1048,265.5C 1047.23,265.355 1046.56,265.022 1046,264.5C 1045.33,262.5 1045.33,260.5 1046,258.5C 1050.32,253.86 1054.15,248.86 1057.5,243.5C 1056.5,241.833 1055.17,240.5 1053.5,239.5C 1051.1,243.787 1048.1,247.62 1044.5,251C 1041.97,251.896 1039.81,251.396 1038,249.5C 1029.78,252.278 1027.28,257.611 1030.5,265.5C 1028.7,269.343 1026.54,269.343 1024,265.5C 1020.79,256.549 1022.12,248.216 1028,240.5C 1036.8,229.068 1044.96,217.235 1052.5,205C 1051.36,203.027 1050.03,201.193 1048.5,199.5C 1062.01,177.144 1076.51,155.478 1092,134.5C 1094.07,130.923 1096.91,128.256 1100.5,126.5 Z"/></g>
<g><path style="opacity:0.985" fill="#042547" d="M 1621.5,180.5 C 1632.59,180.547 1643.59,181.38 1654.5,183C 1654.96,183.414 1655.29,183.914 1655.5,184.5C 1653.79,188.446 1652.63,192.446 1652,196.5C 1665.83,208.333 1679.67,220.167 1693.5,232C 1702.68,238.095 1712.35,243.428 1722.5,248C 1739.6,254.924 1756.94,261.257 1774.5,267C 1784.63,270.639 1792.79,276.805 1799,285.5C 1801.16,289.262 1801.82,293.262 1801,297.5C 1797.86,295.004 1794.36,293.837 1790.5,294C 1795.88,299.044 1801.54,303.711 1807.5,308C 1816.54,313.182 1825.54,318.349 1834.5,323.5C 1829.52,326.277 1824.69,325.944 1820,322.5C 1819.38,323.449 1819.55,324.282 1820.5,325C 1820.01,327.176 1819.01,329.009 1817.5,330.5C 1810.35,324.519 1803.35,318.353 1796.5,312C 1795.17,311.333 1793.83,311.333 1792.5,312C 1793.93,314.783 1795.26,317.617 1796.5,320.5C 1803.36,324.679 1808.36,330.346 1811.5,337.5C 1808.06,337.699 1804.73,337.199 1801.5,336C 1796.83,332 1792.17,328 1787.5,324C 1784.57,322.341 1781.57,322.008 1778.5,323C 1776.67,321.833 1774.83,320.667 1773,319.5C 1774.15,323.466 1776.15,327.132 1779,330.5C 1781.36,342.149 1777.2,345.649 1766.5,341C 1763.68,336.25 1761.85,331.083 1761,325.5C 1758.27,325.155 1755.44,324.989 1752.5,325C 1751,324.417 1749.67,323.584 1748.5,322.5C 1746.88,318.356 1746.05,314.022 1746,309.5C 1745.06,307.228 1743.73,305.228 1742,303.5C 1738.51,302.761 1735.01,301.927 1731.5,301C 1719.52,285.268 1716.69,286.102 1723,303.5C 1727.88,308.046 1733.04,312.213 1738.5,316C 1744.05,320.976 1746.21,327.142 1745,334.5C 1742.94,335.591 1740.77,335.758 1738.5,335C 1735.22,331.721 1731.89,328.387 1728.5,325C 1724.38,322.461 1722.88,323.628 1724,328.5C 1728.18,331.328 1730.68,335.162 1731.5,340C 1731.33,341.167 1731.17,342.333 1731,343.5C 1727.41,346.282 1724.08,345.949 1721,342.5C 1719.36,338.563 1717.52,334.73 1715.5,331C 1714.67,330.312 1714,330.479 1713.5,331.5C 1713.43,339.366 1710.43,341.033 1704.5,336.5C 1702.49,332.487 1699.99,328.82 1697,325.5C 1695.51,327.272 1695.18,329.272 1696,331.5C 1698.85,335.852 1701.02,340.518 1702.5,345.5C 1700.77,352.118 1696.77,354.284 1690.5,352C 1688.33,348.785 1685.83,345.952 1683,343.5C 1682.23,343.645 1681.56,343.978 1681,344.5C 1680.5,346.473 1680.34,348.473 1680.5,350.5C 1677.62,349.726 1674.95,348.393 1672.5,346.5C 1672.17,346.667 1671.83,346.833 1671.5,347C 1675.28,354.116 1680.95,359.116 1688.5,362C 1691.4,363.715 1692.73,366.215 1692.5,369.5C 1688.42,369.656 1684.42,369.156 1680.5,368C 1675.09,365.084 1670.09,361.584 1665.5,357.5C 1664.12,358 1663.45,359 1663.5,360.5C 1665.42,364.017 1667.09,367.684 1668.5,371.5C 1668.39,372.442 1668.06,373.275 1667.5,374C 1662.4,375.58 1659.24,373.746 1658,368.5C 1656.06,362.013 1653.73,355.679 1651,349.5C 1648.5,348.202 1646.17,348.536 1644,350.5C 1643.68,357.231 1644.02,363.898 1645,370.5C 1643.87,372.211 1642.37,372.711 1640.5,372C 1637.89,370.062 1636.06,367.562 1635,364.5C 1633.74,357.266 1631.74,350.266 1629,343.5C 1621.7,338.976 1615.2,339.976 1609.5,346.5C 1610.13,348.258 1611.13,349.758 1612.5,351C 1618.17,353.498 1621.84,357.665 1623.5,363.5C 1623.43,364.772 1623.1,365.938 1622.5,367C 1614.29,369.401 1607.45,367.235 1602,360.5C 1599.71,356.336 1597.88,352.003 1596.5,347.5C 1595.45,348.438 1594.78,349.605 1594.5,351C 1598.94,361.291 1595.61,366.791 1584.5,367.5C 1580.22,367.74 1576.55,366.407 1573.5,363.5C 1582.14,353.941 1584.97,342.941 1582,330.5C 1576.36,341.803 1568.86,351.637 1559.5,360C 1553.39,361.446 1549.72,359.113 1548.5,353C 1553.68,344.787 1558.52,336.287 1563,327.5C 1567.26,315.363 1566.09,314.197 1559.5,324C 1553.41,329.219 1546.41,331.886 1538.5,332C 1536.68,330.534 1536.18,328.701 1537,326.5C 1543.19,321.065 1549.19,315.398 1555,309.5C 1554.57,306.711 1552.9,304.711 1550,303.5C 1546.55,306.946 1543.05,310.446 1539.5,314C 1534.97,317.952 1530.14,318.452 1525,315.5C 1518.28,316.263 1513.45,319.596 1510.5,325.5C 1511.36,328.051 1512.36,330.551 1513.5,333C 1513.36,333.772 1513.02,334.439 1512.5,335C 1504.93,335.274 1500.93,331.441 1500.5,323.5C 1501.16,319.186 1502.66,315.186 1505,311.5C 1517.95,298.554 1530.95,285.554 1544,272.5C 1545.56,270.557 1546.72,268.39 1547.5,266C 1547.26,265.127 1546.93,264.293 1546.5,263.5C 1566.1,236.385 1587.77,210.885 1611.5,187C 1614.49,184.152 1617.82,181.985 1621.5,180.5 Z"/></g>
<g><path style="opacity:0.991" fill="#042547" d="M 1919.5,772.5 C 1919.5,874.5 1919.5,976.5 1919.5,1078.5C 1884.33,1078.17 1849.33,1078.5 1814.5,1079.5C 1209.5,1079.5 604.5,1079.5 -0.5,1079.5C -0.5,981.833 -0.5,884.167 -0.5,786.5C 11.8321,791.164 23.8321,796.664 35.5,803C 45.3858,808.552 52.8858,816.386 58,826.5C 62.1978,838.76 66.1978,851.094 70,863.5C 78.4503,886.274 91.9503,905.441 110.5,921C 112.087,921.862 113.754,922.529 115.5,923C 150.223,927.073 183.889,935.073 216.5,947C 210.29,942.458 205.124,936.958 201,930.5C 197.356,923.348 197.856,916.515 202.5,910C 206.478,907.507 210.811,906.341 215.5,906.5C 227.574,908.115 239.574,910.115 251.5,912.5C 255.749,904.418 262.083,898.584 270.5,895C 272.833,894.333 275.167,894.333 277.5,895C 282.725,897.446 288.058,899.613 293.5,901.5C 301.609,899.447 309.275,896.28 316.5,892C 322.5,890 328.5,890 334.5,892C 338.328,894.339 341.995,896.839 345.5,899.5C 356.626,895.503 367.96,894.67 379.5,897C 387.602,899.098 392.102,904.264 393,912.5C 401.636,905.51 411.469,902.343 422.5,903C 430.816,904.48 435.483,909.313 436.5,917.5C 446.134,913.352 455.801,909.185 465.5,905C 472.93,902.965 480.264,903.299 487.5,906C 495.397,911.543 496.563,918.376 491,926.5C 489.542,928.96 487.709,931.127 485.5,933C 495.202,933.939 504.535,936.273 513.5,940C 523.095,948.733 522.428,956.733 511.5,964C 501.339,968.584 490.672,971.251 479.5,972C 495.485,979.826 511.818,986.826 528.5,993C 543.257,996.741 558.257,998.407 573.5,998C 577.892,1000.41 582.558,1001.91 587.5,1002.5C 585.535,991.033 578.868,983.866 567.5,981C 563.205,980.088 558.872,979.421 554.5,979C 550.388,968.02 553.721,960.02 564.5,955C 566.5,954.333 568.5,954.333 570.5,955C 572.13,958.559 574.13,961.892 576.5,965C 579.828,966.166 583.161,967.332 586.5,968.5C 586.31,961.085 584.144,954.085 580,947.5C 577.578,943.656 574.911,939.99 572,936.5C 559.426,927.669 559.593,918.835 572.5,910C 581.473,905.655 588.973,907.489 595,915.5C 600.735,925.373 604.068,936.04 605,947.5C 605.333,958.167 605.667,968.833 606,979.5C 611.751,973.327 614.751,965.994 615,957.5C 615.465,956.069 616.299,954.903 617.5,954C 623.479,952.072 627.646,953.905 630,959.5C 632.826,972.361 630.16,984.027 622,994.5C 618.869,998.633 615.369,1002.47 611.5,1006C 638.694,1006.36 665.027,1001.7 690.5,992C 702.5,987.333 714.5,982.667 726.5,978C 723.131,974.443 721.631,970.276 722,965.5C 722.333,966.167 722.667,966.833 723,967.5C 722.797,962.029 724.131,961.363 727,965.5C 728.664,959.594 726.83,957.594 721.5,959.5C 716.4,959.585 712.4,957.585 709.5,953.5C 711.423,952.692 713.423,952.192 715.5,952C 711.534,949.036 707.867,945.703 704.5,942C 705.833,942 707.167,942 708.5,942C 707.177,941.184 706.511,940.017 706.5,938.5C 710.133,940.443 713.799,942.443 717.5,944.5C 717.833,944.167 718.167,943.833 718.5,943.5C 714.5,937.167 710.5,930.833 706.5,924.5C 703.47,924.899 700.47,924.399 697.5,923C 696.953,920.36 695.287,918.026 692.5,916C 692.833,915.667 693.167,915.333 693.5,915C 690.941,913.677 690.275,911.843 691.5,909.5C 693.167,910.833 694.833,912.167 696.5,913.5C 697.465,912.086 698.465,911.253 699.5,911C 697.931,906.793 696.265,902.627 694.5,898.5C 689.029,897.602 684.696,894.935 681.5,890.5C 681.535,885.559 683.369,885.225 687,889.5C 687.333,888.833 687.667,888.167 688,887.5C 689,888.5 690,889.5 691,890.5C 689.699,882.926 687.365,875.593 684,868.5C 680.633,868.707 677.133,868.207 673.5,867C 671.283,865.732 669.283,864.232 667.5,862.5C 667.667,862.167 667.833,861.833 668,861.5C 669.337,862.765 670.837,863.265 672.5,863C 670.434,861.304 668.934,859.471 668,857.5C 669.71,858.945 671.544,859.778 673.5,860C 672.5,859 671.5,858 670.5,857C 673.025,856.959 675.358,857.793 677.5,859.5C 677.833,859.167 678.167,858.833 678.5,858.5C 676.025,854.858 673.358,851.358 670.5,848C 671.167,847.333 671.833,847.333 672.5,848C 675.704,850.869 678.537,854.035 681,857.5C 680.134,854.563 679.467,851.563 679,848.5C 680.185,850.377 681.185,852.377 682,854.5C 682.333,852.167 682.667,849.833 683,847.5C 683.189,853.408 684.189,853.742 686,848.5C 686.333,851.5 686.667,854.5 687,857.5C 687.333,856.167 687.667,854.833 688,853.5C 688.996,858.229 688.496,862.729 686.5,867C 690.342,873.518 693.509,880.351 696,887.5C 697,885.833 698,884.167 699,882.5C 700.117,883.949 700.784,885.616 701,887.5C 701.333,885.833 701.667,884.167 702,882.5C 704.478,888.019 703.645,893.019 699.5,897.5C 701.333,901.833 703.167,906.167 705,910.5C 705.333,908.167 705.667,905.833 706,903.5C 707.016,904.634 707.683,904.301 708,902.5C 709.093,904.349 710.426,906.016 712,907.5C 712.333,905.833 712.667,904.167 713,902.5C 717.013,909.736 716.18,916.236 710.5,922C 714.377,927.585 717.877,933.418 721,939.5C 720.667,936.833 720.333,934.167 720,931.5C 721.713,932.878 723.047,934.545 724,936.5C 724.651,934.765 724.485,933.098 723.5,931.5C 724.5,931.5 725.5,931.5 726.5,931.5C 724.839,926.888 724.505,922.222 725.5,917.5C 726.298,919.078 726.798,920.744 727,922.5C 727.346,919.424 728.012,916.424 729,913.5C 729.413,916.232 730.08,918.899 731,921.5C 731.27,918.638 732.104,915.972 733.5,913.5C 734.122,917.126 734.289,920.793 734,924.5C 736.373,917.308 737.706,909.975 738,902.5C 731.087,898.439 728.42,892.439 730,884.5C 730.973,886.392 731.64,888.392 732,890.5C 732.681,888.105 733.515,885.772 734.5,883.5C 735.598,887.361 736.431,887.361 737,883.5C 738.197,886.089 739.197,888.756 740,891.5C 740.829,886.136 740.663,880.802 739.5,875.5C 734.201,872.786 732.034,868.452 733,862.5C 734.811,867.742 735.811,867.408 736,861.5C 736.862,863.087 737.529,864.754 738,866.5C 738.359,863.456 739.026,863.122 740,865.5C 740.477,858.241 741.31,851.075 742.5,844C 738.082,840.998 735.916,836.831 736,831.5C 736.556,833.595 737.056,833.762 737.5,832C 736.591,830.211 736.424,828.377 737,826.5C 737.667,827.833 738.333,829.167 739,830.5C 739,828.5 739,826.5 739,824.5C 740.308,827.73 741.308,831.064 742,834.5C 742.667,822.5 743.333,822.5 744,834.5C 745.196,829.777 747.196,825.443 750,821.5C 749.277,825.684 748.111,829.851 746.5,834C 746.85,835.257 747.517,835.591 748.5,835C 750.019,833.649 751.352,832.149 752.5,830.5C 753.096,831.716 753.263,833.049 753,834.5C 754,833.5 755,832.5 756,831.5C 756.167,831.833 756.333,832.167 756.5,832.5C 755.36,834.078 754.86,835.744 755,837.5C 755.837,835.993 757.004,835.493 758.5,836C 755.173,841.072 750.673,844.572 745,846.5C 744.161,853.567 744.494,860.567 746,867.5C 746.833,866.5 747.667,865.5 748.5,864.5C 749.086,864.709 749.586,865.043 750,865.5C 750.615,863.884 751.615,862.551 753,861.5C 753.304,863.441 754.137,865.107 755.5,866.5C 753.575,871.107 750.242,873.773 745.5,874.5C 745.334,879.844 745.501,885.177 746,890.5C 747.395,889.185 748.395,889.519 749,891.5C 750.743,889.679 752.243,887.679 753.5,885.5C 754.383,887.738 754.05,889.905 752.5,892C 753.367,894.316 752.701,896.316 750.5,898C 751.727,899.587 751.394,900.921 749.5,902C 747.527,902.495 745.527,902.662 743.5,902.5C 742.309,910.266 740.642,917.933 738.5,925.5C 739.002,926.521 739.668,926.688 740.5,926C 743.685,923.116 746.518,919.949 749,916.5C 746.339,923.198 747.339,923.864 752,918.5C 752.471,920.246 753.138,921.913 754,923.5C 754.333,921.167 754.667,918.833 755,916.5C 756.206,920.155 757.539,923.822 759,927.5C 759.667,928.833 760.333,928.833 761,927.5C 762.6,920.601 764.433,913.768 766.5,907C 764.854,905.17 763.187,903.337 761.5,901.5C 761.916,896.234 763.25,891.234 765.5,886.5C 766.333,889.5 767.167,892.5 768,895.5C 772.078,891.638 775.245,886.472 777.5,880C 773.953,876.529 772.787,872.362 774,867.5C 774.333,868.167 774.667,868.833 775,869.5C 775.862,867.913 776.529,866.246 777,864.5C 778.028,867.994 779.694,870.661 782,872.5C 785.891,865.886 789.391,859.052 792.5,852C 787.398,848.908 784.898,844.408 785,838.5C 786.252,840.001 787.252,841.668 788,843.5C 788.333,840.833 788.667,838.167 789,835.5C 790.608,844.698 791.608,844.698 792,835.5C 792.896,838.082 794.229,840.416 796,842.5C 797.128,837.861 798.128,833.195 799,828.5C 799.492,833.551 799.492,838.551 799,843.5C 800.139,839.888 801.806,836.554 804,833.5C 801.627,841.041 802.627,841.375 807,834.5C 807,835.833 807,837.167 807,838.5C 807.811,837.04 808.645,836.707 809.5,837.5C 807.227,843.97 802.727,848.97 796,852.5C 793.744,858.938 790.91,865.104 787.5,871C 788.825,870.852 789.992,871.018 791,871.5C 792.779,868.724 793.779,869.057 794,872.5C 794.718,871.549 795.551,871.383 796.5,872C 793.501,877.665 788.834,880.999 782.5,882C 779.97,885.539 778.47,889.373 778,893.5C 779.333,892.167 780.667,890.833 782,889.5C 782.691,891.891 783.691,891.891 785,889.5C 785.265,891.163 784.765,892.663 783.5,894C 785.221,895.437 786.721,894.937 788,892.5C 787.252,897.29 784.752,901.124 780.5,904C 777.065,905.133 773.899,906.633 771,908.5C 769.017,914.093 767.684,919.759 767,925.5C 770.543,916.528 771.876,916.528 771,925.5C 772.167,923.833 773.333,922.167 774.5,920.5C 775.051,922.413 775.218,924.413 775,926.5C 775.423,925.044 776.256,924.544 777.5,925C 774.109,933.976 768.109,940.476 759.5,944.5C 755.374,952.072 751.874,959.738 749,967.5C 750.74,965.046 752.907,963.546 755.5,963C 754.87,964.892 753.87,966.559 752.5,968C 788.13,958.355 824.464,957.022 861.5,964C 877.517,967.129 893.35,970.963 909,975.5C 956.13,964.812 1003.8,957.812 1052,954.5C 1059.9,954.719 1067.73,955.219 1075.5,956C 1057.65,948.94 1039.65,942.273 1021.5,936C 1012.41,932.552 1004.91,927.052 999,919.5C 996.391,915.417 995.558,911.083 996.5,906.5C 999.891,908.798 1003.56,909.965 1007.5,910C 993.987,898.004 978.987,888.171 962.5,880.5C 962.709,879.914 963.043,879.414 963.5,879C 966.833,878.333 970.167,878.333 973.5,879C 974.931,879.465 976.097,880.299 977,881.5C 977.333,879.5 977.667,877.5 978,875.5C 978.388,874.572 979.055,873.905 980,873.5C 986.488,879.32 992.988,885.154 999.5,891C 1001.15,892.401 1002.81,892.568 1004.5,891.5C 1003.06,888.95 1001.89,886.284 1001,883.5C 994.98,878.98 989.813,873.647 985.5,867.5C 988.106,866.348 990.773,866.182 993.5,867C 999.102,870.271 1004.1,874.271 1008.5,879C 1012.05,880.174 1015.71,880.84 1019.5,881C 1021.37,882.602 1023.37,883.602 1025.5,884C 1023,880.167 1020.5,876.333 1018,872.5C 1015.9,862.257 1019.74,858.757 1029.5,862C 1030.67,863.167 1031.83,864.333 1033,865.5C 1034.1,869.855 1035.27,874.188 1036.5,878.5C 1039.33,878.582 1042.33,878.748 1045.5,879C 1046.93,879.465 1048.1,880.299 1049,881.5C 1050.07,886.467 1051.07,891.467 1052,896.5C 1055.05,900.587 1059.22,902.42 1064.5,902C 1067.83,905.667 1071.17,909.333 1074.5,913C 1075.83,913.667 1077.17,913.667 1078.5,913C 1077.23,908.445 1075.73,903.945 1074,899.5C 1067.82,894.738 1061.82,889.738 1056,884.5C 1052.23,880.05 1051.07,875.05 1052.5,869.5C 1053.63,868.738 1054.79,868.071 1056,867.5C 1057.07,868.191 1058.23,868.691 1059.5,869C 1062.62,872.613 1065.96,875.946 1069.5,879C 1071.26,879.798 1072.93,879.631 1074.5,878.5C 1072.96,874.46 1070.46,871.126 1067,868.5C 1064.15,863.323 1065.49,859.99 1071,858.5C 1073.5,858.99 1075.5,860.323 1077,862.5C 1078.16,866.83 1080.33,870.497 1083.5,873.5C 1083.3,863.685 1086.8,862.018 1094,868.5C 1095.37,871.412 1096.87,874.246 1098.5,877C 1099.45,877.483 1100.45,877.649 1101.5,877.5C 1101.37,871.903 1099.54,866.903 1096,862.5C 1094.51,852.991 1098.34,849.491 1107.5,852C 1108.95,855.611 1111.28,858.445 1114.5,860.5C 1115.98,858.043 1117.15,855.377 1118,852.5C 1127.36,858.78 1127.86,857.28 1119.5,848C 1115.08,845.042 1110.58,842.208 1106,839.5C 1105.51,837.866 1105.34,836.199 1105.5,834.5C 1109.6,834.234 1113.6,834.734 1117.5,836C 1122.87,838.538 1127.54,842.038 1131.5,846.5C 1133.45,844.956 1133.95,842.956 1133,840.5C 1131.25,837.995 1129.75,835.329 1128.5,832.5C 1130.43,829.732 1133.09,828.898 1136.5,830C 1139.72,836.991 1142.55,844.158 1145,851.5C 1146.76,855.866 1149.43,856.533 1153,853.5C 1153.78,852.271 1154.28,850.938 1154.5,849.5C 1153.2,844.511 1152.37,839.511 1152,834.5C 1152.95,831.8 1154.78,830.967 1157.5,832C 1159.62,833.731 1161.12,835.898 1162,838.5C 1163.47,845.674 1165.47,852.674 1168,859.5C 1173.52,864.467 1179.36,864.633 1185.5,860C 1186.57,859.261 1187.24,858.261 1187.5,857C 1183.73,852.513 1179.56,848.346 1175,844.5C 1171.78,838.405 1173.62,835.405 1180.5,835.5C 1187.29,835.808 1192.46,838.808 1196,844.5C 1197.87,848.464 1199.54,852.464 1201,856.5C 1202.47,853.125 1202.63,849.625 1201.5,846C 1201.01,841.3 1203.01,838.3 1207.5,837C 1211.17,836.333 1214.83,836.333 1218.5,837C 1220.55,837.687 1222.22,838.854 1223.5,840.5C 1214.9,850.022 1212.06,861.022 1215,873.5C 1220.64,862.197 1228.14,852.363 1237.5,844C 1245.79,842.045 1249.29,845.212 1248,853.5C 1245.25,858.008 1242.25,862.341 1239,866.5C 1235.04,873.043 1232.71,880.043 1232,887.5C 1238.3,877.192 1247.47,872.025 1259.5,872C 1260.58,873.726 1260.74,875.559 1260,877.5C 1253.35,882.983 1247.18,888.983 1241.5,895.5C 1243.49,898.345 1246.16,899.512 1249.5,899C 1252.88,893.953 1257.21,889.953 1262.5,887C 1271.54,889.77 1279.38,887.604 1286,880.5C 1286.54,877.188 1286.04,874.021 1284.5,871C 1284.71,869.129 1285.71,867.962 1287.5,867.5C 1296.74,872.532 1298.9,879.865 1294,889.5C 1280.75,903.751 1267.08,917.751 1253,931.5C 1251.46,933.468 1250.29,935.635 1249.5,938C 1251.24,939.62 1253.07,941.12 1255,942.5C 1255.67,943.167 1255.67,943.833 1255,944.5C 1244.2,956.967 1233.04,969.133 1221.5,981C 1242.1,979.145 1262.1,974.478 1281.5,967C 1289.12,962.941 1294.29,956.774 1297,948.5C 1300.97,945.098 1305.47,942.598 1310.5,941C 1336,935.233 1361.83,932.4 1388,932.5C 1429.93,934.264 1471.77,937.098 1513.5,941C 1502.76,934.264 1494.93,925.097 1490,913.5C 1488.89,907.574 1489.56,901.908 1492,896.5C 1496.21,893.279 1500.71,892.779 1505.5,895C 1507.7,899.292 1509.53,903.792 1511,908.5C 1513.43,911.688 1516.1,914.688 1519,917.5C 1517.65,903.695 1518.65,890.029 1522,876.5C 1524.95,866.552 1531.12,859.385 1540.5,855C 1553.42,852.791 1562.75,857.457 1568.5,869C 1565.85,873.314 1562.18,876.647 1557.5,879C 1548.42,886.497 1542.09,895.831 1538.5,907C 1543.05,906.014 1547.72,905.014 1552.5,904C 1554.74,901.97 1556.24,899.47 1557,896.5C 1564.83,893.993 1571.5,895.993 1577,902.5C 1580.43,907.318 1580.26,911.818 1576.5,916C 1564.75,916.139 1554.09,919.472 1544.5,926C 1540.74,930.831 1538.41,936.331 1537.5,942.5C 1545.71,944.162 1554.05,944.996 1562.5,945C 1581.85,945.746 1601.18,945.412 1620.5,944C 1633.07,941.716 1644.4,936.716 1654.5,929C 1664.06,920.359 1672.06,910.525 1678.5,899.5C 1674.81,894.307 1673.65,888.64 1675,882.5C 1664.04,879.648 1652.87,877.814 1641.5,877C 1624.83,875.937 1608.16,875.27 1591.5,875C 1587.36,874.066 1583.36,872.732 1579.5,871C 1575.5,868 1575.5,865 1579.5,862C 1584.38,859.393 1589.38,857.06 1594.5,855C 1594.55,850.562 1596.22,846.895 1599.5,844C 1604.46,843.002 1609.46,842.169 1614.5,841.5C 1616.13,837.367 1619.13,834.867 1623.5,834C 1629.5,833.667 1635.5,833.333 1641.5,833C 1637.08,828.779 1635.41,823.613 1636.5,817.5C 1642.02,819.296 1647.69,820.296 1653.5,820.5C 1653.18,811.321 1657.52,807.821 1666.5,810C 1667.94,812.725 1669.94,814.892 1672.5,816.5C 1676.07,813.546 1679.07,810.046 1681.5,806C 1682.73,805.219 1684.06,804.719 1685.5,804.5C 1690.33,805.847 1694.83,807.847 1699,810.5C 1701.38,807.466 1703.55,804.299 1705.5,801C 1709.69,800.67 1713.69,801.503 1717.5,803.5C 1725.01,798.168 1732.68,793.001 1740.5,788C 1750.49,783.453 1760.82,782.453 1771.5,785C 1774.5,786.166 1777.17,787.833 1779.5,790C 1765.8,805.351 1749.13,816.351 1729.5,823C 1723.18,826.649 1719.18,831.982 1717.5,839C 1718.5,843.505 1721.17,846.672 1725.5,848.5C 1732.15,845.253 1739.15,843.087 1746.5,842C 1773.29,842.14 1797.95,835.14 1820.5,821C 1832,813.085 1843.66,805.418 1855.5,798C 1845.6,793.144 1835.27,789.477 1824.5,787C 1807.49,785.303 1790.49,783.637 1773.5,782C 1768.38,780.447 1764.38,777.447 1761.5,773C 1763.17,772.667 1764.83,772.333 1766.5,772C 1757.49,768.414 1748.16,766.081 1738.5,765C 1740.3,762.897 1742.64,762.064 1745.5,762.5C 1745.5,761.167 1745.5,759.833 1745.5,758.5C 1751.24,760.387 1756.91,762.22 1762.5,764C 1757.78,760.373 1752.78,757.207 1747.5,754.5C 1748.17,753.054 1749.34,752.388 1751,752.5C 1755.1,753.554 1759.1,754.887 1763,756.5C 1764.89,756.204 1766.72,755.704 1768.5,755C 1763.96,753.287 1762.46,750.12 1764,745.5C 1769.32,743.909 1773.16,745.742 1775.5,751C 1781.4,749.36 1785.4,751.527 1787.5,757.5C 1788.91,758.624 1790.41,759.624 1792,760.5C 1793.73,759.424 1795.56,759.257 1797.5,760C 1806.04,765.053 1806.71,764.053 1799.5,757C 1794.26,755.312 1789.26,753.145 1784.5,750.5C 1782.15,748.754 1781.15,746.421 1781.5,743.5C 1785.76,743.545 1789.59,744.878 1793,747.5C 1793.5,747 1794,746.5 1794.5,746C 1792.17,744.5 1789.83,743 1787.5,741.5C 1785.78,737.388 1787.11,735.888 1791.5,737C 1793.62,738.122 1795.46,739.622 1797,741.5C 1797.49,739.866 1797.66,738.199 1797.5,736.5C 1801.28,736.974 1804.45,738.641 1807,741.5C 1807.67,740.833 1807.67,740.167 1807,739.5C 1803.85,737.19 1801.35,734.357 1799.5,731C 1800.12,728.709 1801.62,727.543 1804,727.5C 1806.25,728.229 1808.41,729.229 1810.5,730.5C 1810.91,729.443 1810.91,728.109 1810.5,726.5C 1811.55,726.649 1812.55,726.483 1813.5,726C 1810.09,724.083 1806.42,722.75 1802.5,722C 1801.09,721.632 1800.09,720.799 1799.5,719.5C 1804.92,716.95 1810.25,717.283 1815.5,720.5C 1816.52,719.998 1816.69,719.332 1816,718.5C 1813.88,717.378 1812.04,715.878 1810.5,714C 1811.09,712.701 1812.09,711.868 1813.5,711.5C 1818.1,714.76 1822.43,718.427 1826.5,722.5C 1827.5,722.167 1828.17,721.5 1828.5,720.5C 1825.98,717.141 1824.32,713.475 1823.5,709.5C 1825.31,709.491 1826.98,709.991 1828.5,711C 1831.73,713.727 1834.4,716.894 1836.5,720.5C 1840.56,723.554 1843.9,722.888 1846.5,718.5C 1843.51,716.21 1840.17,714.376 1836.5,713C 1835.45,711.612 1835.28,710.112 1836,708.5C 1842.58,706.087 1847.92,707.754 1852,713.5C 1848.77,705.384 1851.6,701.884 1860.5,703C 1859.75,709.071 1860.91,714.904 1864,720.5C 1865.06,714.774 1866.39,709.107 1868,703.5C 1870.67,700.833 1873.33,700.833 1876,703.5C 1875.61,710.183 1875.78,716.849 1876.5,723.5C 1878.28,717.87 1881.95,714.703 1887.5,714C 1888.55,715.388 1888.72,716.888 1888,718.5C 1886.5,721.5 1885,724.5 1883.5,727.5C 1884.85,728.95 1886.52,729.617 1888.5,729.5C 1888.5,724.819 1890.5,721.485 1894.5,719.5C 1895.44,719.608 1896.28,719.941 1897,720.5C 1899.21,718.627 1901.04,716.46 1902.5,714C 1901.67,712.5 1900.5,711.333 1899,710.5C 1898.52,709.552 1898.35,708.552 1898.5,707.5C 1904.96,706.959 1908.29,709.959 1908.5,716.5C 1906.23,725.797 1903.07,734.797 1899,743.5C 1898.5,745.473 1898.34,747.473 1898.5,749.5C 1899.83,749.5 1901.17,749.5 1902.5,749.5C 1899.2,760.217 1896.04,770.884 1893,781.5C 1901.73,778.2 1910.57,775.2 1919.5,772.5 Z M 1549.5,858.5 C 1554.4,859.196 1558.24,861.529 1561,865.5C 1561.99,867.925 1561.32,869.591 1559,870.5C 1555.01,869.392 1551.18,867.892 1547.5,866C 1544.74,862.661 1545.41,860.161 1549.5,858.5 Z M 1498.5,897.5 C 1500.29,897.215 1501.95,897.548 1503.5,898.5C 1500.66,900.42 1497.66,902.087 1494.5,903.5C 1494.17,903 1493.83,902.5 1493.5,902C 1495.04,900.287 1496.71,898.787 1498.5,897.5 Z M 1563.5,900.5 C 1567.17,900.811 1570.17,902.478 1572.5,905.5C 1573.57,912.216 1571.4,913.216 1566,908.5C 1564.29,906.091 1563.46,903.425 1563.5,900.5 Z M 577.5,912.5 C 582.235,913.709 583.402,916.375 581,920.5C 577.877,923.435 574.211,925.435 570,926.5C 568.699,925.902 567.865,924.902 567.5,923.5C 568.815,917.858 572.148,914.191 577.5,912.5 Z M 750.5,922.5 C 751.803,925.355 751.803,928.355 750.5,931.5C 749.205,930.902 747.872,930.402 746.5,930C 747.986,927.525 749.319,925.025 750.5,922.5 Z M 747.5,932.5 C 749.973,932.947 750.14,933.947 748,935.5C 746.272,934.648 746.105,933.648 747.5,932.5 Z M 746.5,938.5 C 749.138,940.824 752.138,942.657 755.5,944C 752.642,950.215 749.142,956.048 745,961.5C 744.73,958.638 743.896,955.972 742.5,953.5C 740.747,956.005 739.247,958.671 738,961.5C 736.598,955.551 735.932,949.551 736,943.5C 739.661,942.094 743.161,940.427 746.5,938.5 Z M 731.5,954.5 C 732.622,956.288 732.789,958.288 732,960.5C 730.388,958.544 730.222,956.544 731.5,954.5 Z M 618.5,957.5 C 623.74,957.258 626.573,959.592 627,964.5C 624.913,963.206 622.746,962.039 620.5,961C 619.177,960.184 618.511,959.017 618.5,957.5 Z M 563.5,960.5 C 566.244,961.072 567.077,962.738 566,965.5C 565.44,969.302 563.44,971.968 560,973.5C 559.228,973.355 558.561,973.022 558,972.5C 557.333,970.833 557.333,969.167 558,967.5C 560.43,965.578 562.263,963.245 563.5,960.5 Z"/></g>
<g><path style="opacity:0.004" fill="#000000" d="M 706.5,938.5 C 705.833,937.167 705.833,937.167 706.5,938.5 Z"/></g>
</svg>
