<?xml version="1.0" encoding="UTF-8"?>
<!DOCTYPE svg PUBLIC "-//W3C//DTD SVG 1.1//EN" "http://www.w3.org/Graphics/SVG/1.1/DTD/svg11.dtd">
<svg xmlns="http://www.w3.org/2000/svg" version="1.1" width="1920px" height="1080px" style="shape-rendering:geometricPrecision; text-rendering:geometricPrecision; image-rendering:optimizeQuality; fill-rule:evenodd; clip-rule:evenodd" xmlns:xlink="http://www.w3.org/1999/xlink">
<g><path style="opacity:0.997" fill="#1a4979" d="M 1515.5,-0.5 C 1650.17,-0.5 1784.83,-0.5 1919.5,-0.5C 1919.5,359.167 1919.5,718.833 1919.5,1078.5C 1880.66,1078.17 1842,1078.5 1803.5,1079.5C 1723.5,1079.5 1643.5,1079.5 1563.5,1079.5C 1419.8,1043.11 1274.14,1017.27 1126.5,1002C 1132.3,1006.8 1137.8,1011.97 1143,1017.5C 1143.69,1018.33 1143.52,1019 1142.5,1019.5C 1098.77,1042.19 1052.44,1057.02 1003.5,1064C 966.414,1069.59 929.414,1074.76 892.5,1079.5C 594.833,1079.5 297.167,1079.5 -0.5,1079.5C -0.5,873.833 -0.5,668.167 -0.5,462.5C 29.134,474.726 54.634,492.726 76,516.5C 92.6971,536.424 100.53,559.424 99.5,585.5C 143.954,588.47 175.454,610.137 194,650.5C 197.27,658.915 199.604,667.581 201,676.5C 218.951,707.051 222.951,739.385 213,773.5C 211.973,783.824 216.14,791.324 225.5,796C 250.159,809.475 276.159,813.142 303.5,807C 325.226,797.203 347.56,789.203 370.5,783C 357.841,772.329 343.841,763.662 328.5,757C 312.986,750.94 297.319,745.273 281.5,740C 271.783,736.73 263.283,731.563 256,724.5C 254.065,721.629 252.399,718.629 251,715.5C 250.186,713.098 250.353,710.765 251.5,708.5C 263.161,714.687 264.161,713.521 254.5,705C 243.327,696.575 231.327,689.408 218.5,683.5C 217.289,682.726 217.289,681.893 218.5,681C 222.868,679.293 227.035,679.793 231,682.5C 231.438,679.624 232.438,676.957 234,674.5C 241.427,681.934 249.427,688.6 258,694.5C 258.5,694.333 259,694.167 259.5,694C 258.204,691.239 257.037,688.405 256,685.5C 249.98,680.98 244.813,675.647 240.5,669.5C 241.438,668.447 242.605,667.78 244,667.5C 245.811,668.078 247.645,668.578 249.5,669C 254.167,673 258.833,677 263.5,681C 266.289,682.664 269.123,682.83 272,681.5C 274.333,683.167 276.667,684.833 279,686.5C 276.242,681.318 273.742,675.818 271.5,670C 272.587,663.576 276.254,661.243 282.5,663C 284.286,663.785 285.786,664.951 287,666.5C 288.417,671.592 290.084,676.592 292,681.5C 296.483,679.698 300.483,680.365 304,683.5C 305.126,687.749 305.792,692.082 306,696.5C 307.333,698.5 308.667,700.5 310,702.5C 313.529,703.131 317.029,703.964 320.5,705C 322.714,707.925 325.047,710.759 327.5,713.5C 328.85,714.95 330.516,715.617 332.5,715.5C 331.775,710.267 330.275,705.267 328,700.5C 321.708,695.877 315.708,690.877 310,685.5C 306.889,681.278 305.889,676.611 307,671.5C 309.243,669.213 311.743,669.047 314.5,671C 317.167,674 319.833,677 322.5,680C 324.345,681.128 326.345,681.628 328.5,681.5C 327.813,676.477 325.313,672.477 321,669.5C 319.25,661.578 322.083,659.078 329.5,662C 331.964,666.711 334.797,671.211 338,675.5C 338.837,672.635 339.67,669.802 340.5,667C 342.635,666.365 344.635,666.699 346.5,668C 348.81,672.133 351.476,675.966 354.5,679.5C 356.384,678.307 356.884,676.641 356,674.5C 353.415,669.832 351.248,664.998 349.5,660C 351.037,653.397 355.037,651.23 361.5,653.5C 363.499,655.493 364.999,657.827 366,660.5C 367.851,662.781 369.518,662.781 371,660.5C 371.192,658.423 371.692,656.423 372.5,654.5C 380.382,660.116 381.382,658.949 375.5,651C 370.923,647.46 366.09,644.294 361,641.5C 358.585,638.459 359.251,636.459 363,635.5C 372.443,636.721 380.11,641.054 386,648.5C 387.236,647.601 388.07,646.434 388.5,645C 386.951,641.403 385.284,637.903 383.5,634.5C 384.362,630.712 386.529,629.712 390,631.5C 391.221,632.272 392.221,633.272 393,634.5C 395.333,641.167 397.667,647.833 400,654.5C 402.667,657.167 405.333,657.167 408,654.5C 408.056,647.795 407.723,641.129 407,634.5C 411.119,633.056 414.119,634.389 416,638.5C 418.001,645.853 420.001,653.186 422,660.5C 427.658,666.636 433.825,666.97 440.5,661.5C 441.287,660.758 441.953,659.925 442.5,659C 438.054,654.554 433.554,650.054 429,645.5C 427.083,642.669 427.583,640.169 430.5,638C 441.754,636.256 449.254,640.756 453,651.5C 453.822,653.788 454.489,656.122 455,658.5C 455.847,653.22 456.514,647.886 457,642.5C 464.171,635.918 471.337,635.918 478.5,642.5C 469.707,651.675 466.874,662.341 470,674.5C 474.884,665.619 480.551,657.286 487,649.5C 491.862,643.842 496.862,643.508 502,648.5C 502.667,651.167 502.667,653.833 502,656.5C 497.605,662.566 493.605,668.9 490,675.5C 488.146,679.708 487.146,684.041 487,688.5C 493.534,678.317 502.7,673.651 514.5,674.5C 515.762,676.575 515.595,678.575 514,680.5C 507.833,686 501.667,691.5 495.5,697C 497.759,699.463 500.426,700.797 503.5,701C 508.031,695.068 513.698,690.568 520.5,687.5C 525.403,690.862 530.403,690.696 535.5,687C 542.047,683.484 543.047,678.817 538.5,673C 539,671.167 540.167,670 542,669.5C 547.793,671.631 550.96,675.798 551.5,682C 550.678,687.477 548.511,692.31 545,696.5C 532,709.5 519,722.5 506,735.5C 505.219,736.729 504.719,738.062 504.5,739.5C 505.998,741.829 507.998,743.663 510.5,745C 500.352,756.649 490.018,768.149 479.5,779.5C 488.807,784.649 494.474,792.482 496.5,803C 496.111,806.231 495.111,809.231 493.5,812C 507.708,810.151 521.042,805.485 533.5,798C 549.312,787.537 565.645,777.87 582.5,769C 587.993,766.779 593.66,765.279 599.5,764.5C 595.773,755.495 591.94,746.495 588,737.5C 583.572,726.548 580.572,715.214 579,703.5C 578.688,687.16 578.688,670.826 579,654.5C 576.512,652.257 573.846,650.257 571,648.5C 570.517,647.552 570.351,646.552 570.5,645.5C 581.02,643.33 587.52,647.33 590,657.5C 590.882,660.789 591.548,664.123 592,667.5C 592.122,684.864 592.788,702.197 594,719.5C 594.333,714.833 594.667,710.167 595,705.5C 598.128,693.114 601.462,680.781 605,668.5C 608.746,652.485 605.412,638.152 595,625.5C 594.883,620.809 597.049,619.476 601.5,621.5C 612.746,631.491 618.746,643.991 619.5,659C 617.893,668.1 617.393,677.267 618,686.5C 619.206,692.861 620.539,699.194 622,705.5C 627.114,694.696 628.781,683.362 627,671.5C 625.298,664.418 623.631,657.418 622,650.5C 625,649.167 628,649.167 631,650.5C 633.482,656.574 634.815,662.907 635,669.5C 638.046,667.483 641.046,665.483 644,663.5C 644.23,657.426 644.397,651.426 644.5,645.5C 646.695,644.231 648.861,644.231 651,645.5C 652.918,655.837 652.918,666.171 651,676.5C 649.289,685.337 647.289,694.004 645,702.5C 656.633,688.397 663.466,672.23 665.5,654C 664.713,651.901 664.38,649.734 664.5,647.5C 668.257,647.071 671.757,647.737 675,649.5C 675.669,654.806 675.169,659.973 673.5,665C 674.793,665.49 676.127,665.657 677.5,665.5C 678.909,670.975 678.409,676.309 676,681.5C 665.821,695.178 657.155,709.844 650,725.5C 645.966,733.601 643.133,742.101 641.5,751C 642.528,756.581 643.861,762.081 645.5,767.5C 659.103,773.039 664.603,783.039 662,797.5C 657.853,808.696 658.853,819.362 665,829.5C 677.429,844.645 693.263,854.645 712.5,859.5C 713.614,858.277 713.781,856.944 713,855.5C 705.413,848.704 696.746,843.704 687,840.5C 685.043,836.262 686.543,834.262 691.5,834.5C 691.016,831.433 692.182,829.433 695,828.5C 697.678,829.836 700.511,830.67 703.5,831C 705.182,833.69 706.682,836.523 708,839.5C 709.512,840.257 710.846,841.257 712,842.5C 709.767,823.269 701.101,807.602 686,795.5C 684.456,793.532 683.289,791.365 682.5,789C 686.156,787.304 689.656,787.804 693,790.5C 692.888,785.39 694.888,781.39 699,778.5C 699.667,780.5 700.333,782.5 701,784.5C 702.193,782.395 703.86,780.728 706,779.5C 707.117,780.949 707.784,782.616 708,784.5C 710.448,781.455 713.281,780.955 716.5,783C 717.517,784.049 717.684,785.216 717,786.5C 713.232,789.241 710.732,792.741 709.5,797C 710.289,801.083 711.789,804.916 714,808.5C 715.5,805.5 717,802.5 718.5,799.5C 715.205,794.841 716.205,792.341 721.5,792C 722.701,792.903 723.535,794.069 724,795.5C 723.946,790.866 726.113,788.533 730.5,788.5C 730.338,790.527 730.505,792.527 731,794.5C 732.726,793.424 734.559,793.257 736.5,794C 737.517,795.049 737.684,796.216 737,797.5C 731.699,803.802 726.032,809.802 720,815.5C 719.362,816.609 718.862,817.775 718.5,819C 722.044,833.275 723.377,847.775 722.5,862.5C 730.833,863.804 733.166,860.471 729.5,852.5C 729.608,851.558 729.941,850.725 730.5,850C 732.966,850.07 735.3,849.904 737.5,849.5C 738.442,849.608 739.275,849.941 740,850.5C 740.333,851.833 740.667,853.167 741,854.5C 742.356,853.62 743.856,853.286 745.5,853.5C 745.854,856.421 744.854,858.754 742.5,860.5C 743.859,862.306 743.525,863.806 741.5,865C 763.176,866.542 784.842,868.209 806.5,870C 818.407,871.581 830.074,873.915 841.5,877C 840.833,875.667 840.167,874.333 839.5,873C 831.779,868.473 823.779,864.473 815.5,861C 820.089,856.724 824.922,856.557 830,860.5C 831.124,857.558 831.458,854.558 831,851.5C 826.594,844.424 821.428,837.924 815.5,832C 808.487,827.492 801.153,823.492 793.5,820C 791.771,818.211 791.104,816.044 791.5,813.5C 794.755,813.014 797.422,814.014 799.5,816.5C 801.957,814.775 804.623,814.275 807.5,815C 808.785,817.423 810.618,819.256 813,820.5C 815.453,819.507 817.953,819.34 820.5,820C 822.877,823.79 824.877,827.79 826.5,832C 829.354,831.336 832.188,831.502 835,832.5C 836.095,836.77 836.928,841.104 837.5,845.5C 839.284,846.606 841.118,846.606 843,845.5C 844.763,845.975 846.43,846.642 848,847.5C 847.881,832.676 847.381,817.842 846.5,803C 847.048,797.783 847.881,792.616 849,787.5C 851.322,781.69 853.822,781.357 856.5,786.5C 855.641,789.051 854.641,791.551 853.5,794C 854.656,796.633 855.656,799.3 856.5,802C 855.42,806.058 854.753,810.224 854.5,814.5C 855.572,819.201 856.572,823.868 857.5,828.5C 857.158,833.377 856.491,838.21 855.5,843C 857.097,847.37 858.264,851.87 859,856.5C 862.889,845.502 867.556,834.836 873,824.5C 881.303,810.43 893.47,804.597 909.5,807C 913.037,812.186 911.704,814.686 905.5,814.5C 905.413,819.088 903.413,822.588 899.5,825C 895.5,825.333 891.5,825.667 887.5,826C 885.292,827.836 883.958,830.169 883.5,833C 876.995,831.829 873.828,834.663 874,841.5C 879.819,839.241 884.152,840.908 887,846.5C 887.874,850.535 888.874,854.535 890,858.5C 892.969,858.519 896.135,858.686 899.5,859C 900.931,859.465 902.097,860.299 903,861.5C 904.126,865.749 904.792,870.082 905,874.5C 906.333,876.5 907.667,878.5 909,880.5C 916.984,880.076 922.484,883.576 925.5,891C 927.217,892.559 929.217,893.392 931.5,893.5C 930.711,888.298 929.211,883.298 927,878.5C 920.708,873.877 914.708,868.877 909,863.5C 905.891,859.315 904.891,854.648 906,849.5C 908.243,847.213 910.743,847.047 913.5,849C 916.167,852 918.833,855 921.5,858C 923.345,859.128 925.345,859.628 927.5,859.5C 926.813,854.477 924.313,850.477 920,847.5C 918.059,839.778 920.893,837.278 928.5,840C 930.964,844.711 933.797,849.211 937,853.5C 937.606,850.57 938.44,847.737 939.5,845C 941.635,844.365 943.635,844.699 945.5,846C 947.81,850.133 950.476,853.966 953.5,857.5C 954.72,857.113 955.387,856.28 955.5,855C 953.115,849.306 950.781,843.639 948.5,838C 949.704,831.894 953.371,829.561 959.5,831C 962.235,834.343 965.069,837.509 968,840.5C 969.895,838.223 971.062,835.556 971.5,832.5C 980.215,837.758 980.881,836.425 973.5,828.5C 968.754,825.043 963.92,821.71 959,818.5C 958.197,815.775 959.197,814.109 962,813.5C 971.443,814.721 979.11,819.054 985,826.5C 986.236,825.601 987.07,824.434 987.5,823C 985.951,819.403 984.284,815.903 982.5,812.5C 982.775,810.391 983.942,809.058 986,808.5C 988.499,809.083 990.499,810.416 992,812.5C 994.136,819.242 996.469,825.909 999,832.5C 1001.67,835.167 1004.33,835.167 1007,832.5C 1006.8,825.821 1006.46,819.154 1006,812.5C 1007.8,811.233 1009.63,811.233 1011.5,812.5C 1012.48,813.981 1013.65,815.315 1015,816.5C 1016.79,823.921 1018.79,831.254 1021,838.5C 1026.66,844.636 1032.83,844.97 1039.5,839.5C 1040.29,838.758 1040.95,837.925 1041.5,837C 1037.05,832.554 1032.55,828.054 1028,823.5C 1025.61,820.436 1026.11,817.936 1029.5,816C 1040.74,814.24 1048.24,818.74 1052,829.5C 1052.51,831.878 1053.18,834.212 1054,836.5C 1055.06,835.056 1055.56,833.389 1055.5,831.5C 1052.8,821.86 1056.46,816.527 1066.5,815.5C 1070.84,815.841 1074.51,817.507 1077.5,820.5C 1068.61,829.661 1065.77,840.327 1069,852.5C 1074.15,842.367 1080.65,833.201 1088.5,825C 1098.07,820.9 1102.24,824.067 1101,834.5C 1093.47,843.228 1088.3,853.228 1085.5,864.5C 1085.67,865.167 1085.83,865.833 1086,866.5C 1092.22,855.807 1101.39,851.141 1113.5,852.5C 1114.43,853.768 1114.59,855.101 1114,856.5C 1107.8,863.032 1101.3,869.199 1094.5,875C 1096.42,876.876 1098.59,878.376 1101,879.5C 1105.3,874.764 1110.13,870.598 1115.5,867C 1118.96,865.126 1122.13,865.626 1125,868.5C 1129.53,867.436 1133.7,865.603 1137.5,863C 1139.15,861.53 1140.15,859.697 1140.5,857.5C 1138.77,855.063 1137.94,852.396 1138,849.5C 1139.94,847.022 1142.1,846.855 1144.5,849C 1146.38,850.543 1147.88,852.376 1149,854.5C 1150.84,862.65 1148.84,869.65 1143,875.5C 1130.33,888.167 1117.67,900.833 1105,913.5C 1104.22,914.729 1103.72,916.062 1103.5,917.5C 1105,919.829 1107,921.663 1109.5,923C 1095.2,939.572 1080.2,955.572 1064.5,971C 1077.68,974.893 1090.34,980.06 1102.5,986.5C 1106.34,961.819 1119.34,943.652 1141.5,932C 1166.48,920.269 1192.82,914.269 1220.5,914C 1307.41,913.766 1394.08,909.1 1480.5,900C 1478.05,895.216 1474.55,891.383 1470,888.5C 1470.66,884.818 1470.5,881.152 1469.5,877.5C 1471.59,877.318 1473.59,877.652 1475.5,878.5C 1477.6,873.842 1480.1,873.508 1483,877.5C 1484.01,876.663 1485.18,876.33 1486.5,876.5C 1486.66,878.199 1486.49,879.866 1486,881.5C 1480.38,885.804 1480.21,890.471 1485.5,895.5C 1486.25,894.624 1486.75,893.624 1487,892.5C 1487.8,886.835 1488.13,881.168 1488,875.5C 1480.54,868.848 1472.04,863.848 1462.5,860.5C 1459.72,857.721 1460.22,855.721 1464,854.5C 1465.11,854.585 1466.11,854.919 1467,855.5C 1466.69,853.557 1466.69,851.557 1467,849.5C 1467.89,848.919 1468.89,848.585 1470,848.5C 1472.63,849.831 1475.46,850.664 1478.5,851C 1480.22,855.599 1483.06,859.433 1487,862.5C 1484.47,842.106 1475.13,825.44 1459,812.5C 1456.37,809.469 1457.04,807.802 1461,807.5C 1463.57,807.951 1465.9,808.951 1468,810.5C 1467.91,805.354 1469.91,801.354 1474,798.5C 1474.67,800.5 1475.33,802.5 1476,804.5C 1479.25,798.592 1481.58,798.592 1483,804.5C 1485.37,801.698 1488.21,801.031 1491.5,802.5C 1492.56,806.339 1491.06,809.006 1487,810.5C 1485.22,812.289 1484.38,814.456 1484.5,817C 1485.29,821.083 1486.79,824.916 1489,828.5C 1490.5,825.5 1492,822.5 1493.5,819.5C 1492.25,817.265 1491.75,814.931 1492,812.5C 1494.88,810.972 1497.21,811.638 1499,814.5C 1499.26,810.26 1501.42,808.26 1505.5,808.5C 1505.34,810.527 1505.5,812.527 1506,814.5C 1507.73,813.424 1509.56,813.257 1511.5,814C 1512.02,814.561 1512.36,815.228 1512.5,816C 1510.7,818.633 1508.7,821.133 1506.5,823.5C 1508.64,824.08 1510.47,825.08 1512,826.5C 1512.58,822.749 1514.75,821.082 1518.5,821.5C 1518.76,823.792 1518.42,825.959 1517.5,828C 1519.18,827.888 1520.84,827.388 1522.5,826.5C 1524.27,826.434 1525.27,827.268 1525.5,829C 1523.59,831.248 1522.09,833.748 1521,836.5C 1520.29,838.971 1520.63,841.305 1522,843.5C 1525.67,841.167 1528.67,838.167 1531,834.5C 1531.93,829.994 1531.09,825.827 1528.5,822C 1528.64,821.228 1528.98,820.561 1529.5,820C 1534.09,818.385 1536.92,819.885 1538,824.5C 1540.49,818.182 1542.82,818.515 1545,825.5C 1548.61,818.51 1550.45,819.01 1550.5,827C 1550.7,829.352 1550.03,831.352 1548.5,833C 1550.71,833.626 1552.88,833.459 1555,832.5C 1560.48,833.83 1560.65,835.997 1555.5,839C 1538.19,844.815 1523.86,854.815 1512.5,869C 1513.93,869.465 1515.1,870.299 1516,871.5C 1518.29,867.968 1520.95,867.302 1524,869.5C 1526.06,868.409 1528.23,868.242 1530.5,869C 1531.93,871.267 1531.6,873.267 1529.5,875C 1533.86,874.845 1535.2,876.678 1533.5,880.5C 1521.12,882.023 1509.78,886.356 1499.5,893.5C 1498.57,894.689 1498.24,896.022 1498.5,897.5C 1539.15,893.336 1579.48,887.169 1619.5,879C 1630.21,874.257 1634.04,866.09 1631,854.5C 1627.25,826.142 1623.41,797.809 1619.5,769.5C 1594.86,771.452 1574.02,763.452 1557,745.5C 1554.1,742.37 1552.27,738.703 1551.5,734.5C 1552.08,730.08 1554.41,726.913 1558.5,725C 1549.89,721.939 1547.05,716.105 1550,707.5C 1554.87,698.247 1560.37,689.413 1566.5,681C 1560.57,679.218 1554.57,679.052 1548.5,680.5C 1544.73,680.14 1541.06,679.307 1537.5,678C 1532.8,674.819 1532.47,671.319 1536.5,667.5C 1547.14,659.666 1559.14,655.5 1572.5,655C 1612.19,654.349 1651.86,655.015 1691.5,657C 1697.29,657.612 1702.63,659.445 1707.5,662.5C 1711.2,667.546 1710.2,671.713 1704.5,675C 1685.62,677.037 1666.95,680.37 1648.5,685C 1644.27,686.115 1640.27,687.781 1636.5,690C 1631.14,694.634 1631.47,698.968 1637.5,703C 1644.42,705.706 1650.59,709.54 1656,714.5C 1657.43,717.525 1657.93,720.525 1657.5,723.5C 1668.47,729.319 1679.47,735.152 1690.5,741C 1721.21,750.543 1747.04,743.043 1768,718.5C 1777.94,703.732 1782.44,687.399 1781.5,669.5C 1778.61,623.073 1771.11,577.407 1759,532.5C 1747.59,498.811 1732.26,467.144 1713,437.5C 1691.2,408.025 1664.7,383.858 1633.5,365C 1624.31,358.421 1620.81,349.588 1623,338.5C 1625.73,328.631 1629.07,318.964 1633,309.5C 1636.2,295.255 1635.2,281.255 1630,267.5C 1610.22,223.437 1585.22,182.77 1555,145.5C 1530.06,114.726 1502.56,86.3923 1472.5,60.5C 1487.58,40.6635 1501.91,20.3301 1515.5,-0.5 Z M 610.5,694.5 C 611.814,696.915 612.481,699.748 612.5,703C 611.146,715.146 609.979,727.313 609,739.5C 606.169,733.367 604.669,726.867 604.5,720C 605.326,711.198 607.326,702.698 610.5,694.5 Z M 1503.5,826.5 C 1504.12,826.611 1504.62,826.944 1505,827.5C 1507.5,835.013 1510,842.513 1512.5,850C 1507.57,857.352 1502.73,864.852 1498,872.5C 1498.17,861.093 1496.67,849.926 1493.5,839C 1496.27,834.393 1499.61,830.226 1503.5,826.5 Z M 870.5,844.5 C 870.138,847.038 870.638,849.705 872,852.5C 874.6,856.367 876.6,860.367 878,864.5C 875.667,862.833 873.333,861.167 871,859.5C 870.667,859.833 870.333,860.167 870,860.5C 870.202,855.13 870.369,849.796 870.5,844.5 Z M 844.5,854.5 C 846.498,856.6 848.665,858.6 851,860.5C 851.667,863.167 851.667,865.833 851,868.5C 848.294,866.129 845.961,863.463 844,860.5C 843.82,858.512 843.986,856.512 844.5,854.5 Z M 1506.5,870.5 C 1508.97,871.36 1509.14,872.694 1507,874.5C 1505.23,873.318 1505.07,871.985 1506.5,870.5 Z M 1503.5,885.5 C 1505.8,883.074 1507.47,880.24 1508.5,877C 1509.87,876.598 1511.21,876.098 1512.5,875.5C 1512.91,876.262 1513.08,877.262 1513,878.5C 1519.11,872.644 1520.28,873.144 1516.5,880C 1516.64,880.772 1516.98,881.439 1517.5,882C 1512.81,883.171 1508.15,884.338 1503.5,885.5 Z M 1496.5,876.5 C 1497.8,877.849 1497.63,879.182 1496,880.5C 1495.81,879.181 1495.97,877.847 1496.5,876.5 Z M 1491.5,886.5 C 1492.23,887.878 1492.9,889.378 1493.5,891C 1492.51,893.23 1493.18,895.064 1495.5,896.5C 1495.29,897.086 1494.96,897.586 1494.5,898C 1492.24,898.236 1490.07,898.736 1488,899.5C 1487.33,897.833 1487.33,896.167 1488,894.5C 1489.45,891.929 1490.62,889.262 1491.5,886.5 Z M 967.5,960.5 C 937.903,959.044 913.903,946.878 895.5,924C 918.441,929.986 939.774,939.653 959.5,953C 962.432,955.285 965.098,957.785 967.5,960.5 Z"/></g>
</svg>
