<?xml version="1.0" encoding="UTF-8"?>
<!DOCTYPE svg PUBLIC "-//W3C//DTD SVG 1.1//EN" "http://www.w3.org/Graphics/SVG/1.1/DTD/svg11.dtd">
<svg xmlns="http://www.w3.org/2000/svg" version="1.1" width="1920px" height="1080px" style="shape-rendering:geometricPrecision; text-rendering:geometricPrecision; image-rendering:optimizeQuality; fill-rule:evenodd; clip-rule:evenodd" xmlns:xlink="http://www.w3.org/1999/xlink">
<g><path style="opacity:0.966" fill="#042547" d="M 459.5,164.5 C 477.996,166.678 496.663,168.178 515.5,169C 520.048,169.94 524.048,171.94 527.5,175C 536.845,175.501 546.179,176.167 555.5,177C 558.186,179.546 559.186,182.713 558.5,186.5C 555.813,186.336 553.146,186.503 550.5,187C 554.848,187.573 559.181,188.24 563.5,189C 565.396,190.808 565.896,192.975 565,195.5C 563.5,197 562,198.5 560.5,200C 557.833,200 555.167,200 552.5,200C 553.574,200.739 554.241,201.739 554.5,203C 552.938,206.023 551.271,208.856 549.5,211.5C 547.801,211.34 546.134,211.506 544.5,212C 552.545,215.823 552.378,218.99 544,221.5C 540.512,220.55 537.012,220.05 533.5,220C 536.145,221.287 537.145,223.453 536.5,226.5C 530.769,226.182 525.102,225.682 519.5,225C 521.95,228.387 525.283,230.387 529.5,231C 530.573,232.313 531.24,233.813 531.5,235.5C 528.788,237.905 526.788,240.905 525.5,244.5C 522.901,245.031 520.235,245.198 517.5,245C 522.505,247.379 522.839,250.379 518.5,254C 514.406,254.767 510.406,254.434 506.5,253C 500.208,248.377 494.208,243.377 488.5,238C 483.953,235.56 479.287,233.393 474.5,231.5C 471.711,233.298 468.711,233.798 465.5,233C 462.627,229.423 460.127,225.589 458,221.5C 456.127,214.468 454.127,207.468 452,200.5C 449.801,197.605 448.301,194.439 447.5,191C 447.396,188.855 448.063,187.021 449.5,185.5C 447.661,183.473 447.161,181.14 448,178.5C 451.35,173.328 455.183,168.662 459.5,164.5 Z M 523.5,174.5 C 524.993,175.312 525.66,176.645 525.5,178.5C 525.743,180.922 524.743,182.588 522.5,183.5C 521.054,182.829 520.388,181.662 520.5,180C 520.863,177.808 521.863,175.974 523.5,174.5 Z M 530.5,182.5 C 533.19,184.259 533.856,186.593 532.5,189.5C 529.402,187.87 528.735,185.537 530.5,182.5 Z M 559.5,192.5 C 560.5,192.5 561.5,192.5 562.5,192.5C 563.176,196.49 561.51,198.157 557.5,197.5C 555.611,197.564 553.944,197.064 552.5,196C 554.713,194.384 557.047,193.217 559.5,192.5 Z M 517.5,212.5 C 519.332,213.14 519.665,214.14 518.5,215.5C 517.614,214.675 517.281,213.675 517.5,212.5 Z M 546.5,216.5 C 548.656,216.872 548.656,217.872 546.5,219.5C 545.438,218.575 545.438,217.575 546.5,216.5 Z M 471.5,226.5 C 473.355,226.272 474.188,226.939 474,228.5C 472.475,231.087 470.308,231.92 467.5,231C 468.357,228.981 469.691,227.481 471.5,226.5 Z M 517.5,229.5 C 518.675,229.281 519.675,229.614 520.5,230.5C 518.858,233.184 516.858,233.684 514.5,232C 515.942,231.623 516.942,230.79 517.5,229.5 Z M 527.5,233.5 C 529.764,235.212 529.264,236.545 526,237.5C 525.5,237.167 525,236.833 524.5,236.5C 525.34,235.265 526.34,234.265 527.5,233.5 Z M 516.5,249.5 C 517.239,249.369 517.906,249.536 518.5,250C 517.333,251.167 516.167,252.333 515,253.5C 514.7,251.934 515.2,250.601 516.5,249.5 Z"/></g>
<g><path style="opacity:0.97" fill="#042547" d="M 1919.5,252.5 C 1919.5,255.167 1919.5,257.833 1919.5,260.5C 1918.12,261.801 1916.45,262.634 1914.5,263C 1916.24,264.517 1917.91,266.017 1919.5,267.5C 1919.5,268.833 1919.5,270.167 1919.5,271.5C 1913.48,276.439 1907.98,276.106 1903,270.5C 1903.15,276.391 1900.48,278.725 1895,277.5C 1893.52,280.993 1891.52,281.326 1889,278.5C 1892.08,285.769 1889.58,288.602 1881.5,287C 1879,284.5 1876.5,282 1874,279.5C 1874.31,281.443 1874.31,283.443 1874,285.5C 1872.87,287.211 1871.37,287.711 1869.5,287C 1865.83,284.167 1862.17,281.333 1858.5,278.5C 1857.73,281.961 1858.9,284.961 1862,287.5C 1863.74,293.42 1861.74,295.754 1856,294.5C 1852.05,299.818 1848.05,299.818 1844,294.5C 1844.37,296.769 1844.37,299.102 1844,301.5C 1839.41,304.367 1835.08,304.034 1831,300.5C 1827.39,292.071 1824.39,283.404 1822,274.5C 1820.17,272 1818.33,269.5 1816.5,267C 1813.43,266.853 1810.6,266.02 1808,264.5C 1806.71,253.987 1809.04,244.32 1815,235.5C 1816.66,230.225 1817.99,224.892 1819,219.5C 1820.67,218.5 1822.33,217.5 1824,216.5C 1824.25,214.567 1824.75,212.734 1825.5,211C 1833.21,206.203 1841.55,203.87 1850.5,204C 1851.17,205.333 1851.83,206.667 1852.5,208C 1864.17,214.333 1875.83,220.667 1887.5,227C 1893.04,230.205 1896.71,234.872 1898.5,241C 1905.53,244.846 1912.53,248.679 1919.5,252.5 Z M 1892.5,238.5 C 1893.68,238.281 1894.68,238.614 1895.5,239.5C 1894.25,243.418 1891.58,245.418 1887.5,245.5C 1888,242.331 1889.67,239.998 1892.5,238.5 Z M 1894.5,248.5 C 1895.38,248.369 1896.04,248.702 1896.5,249.5C 1895.59,251.664 1894.42,253.664 1893,255.5C 1890.82,252.547 1891.32,250.214 1894.5,248.5 Z M 1815.5,260.5 C 1818.01,261.075 1818.51,262.075 1817,263.5C 1809.24,264.704 1808.74,263.704 1815.5,260.5 Z M 1906.5,267.5 C 1909.99,267.922 1913.32,268.755 1916.5,270C 1912.76,274.497 1909.09,274.33 1905.5,269.5C 1905.86,268.817 1906.2,268.15 1906.5,267.5 Z M 1863.5,268.5 C 1865.97,268.947 1866.14,269.947 1864,271.5C 1863.52,270.552 1863.35,269.552 1863.5,268.5 Z M 1869.5,275.5 C 1867.55,274.746 1866.72,273.412 1867,271.5C 1868.48,272.471 1869.31,273.804 1869.5,275.5 Z M 1852.5,282.5 C 1854.94,282.354 1855.61,283.187 1854.5,285C 1852.74,285.798 1851.07,285.631 1849.5,284.5C 1850.6,283.824 1851.6,283.158 1852.5,282.5 Z M 1885.5,285.5 C 1886,283.915 1887,283.415 1888.5,284C 1887.76,285.039 1886.76,285.539 1885.5,285.5 Z M 1855.5,290.5 C 1861.22,290.011 1861.72,291.011 1857,293.5C 1854.72,293.106 1854.22,292.106 1855.5,290.5 Z M 1838.5,299.5 C 1842.22,299.793 1842.05,300.459 1838,301.5C 1837.5,301.333 1837,301.167 1836.5,301C 1837.42,300.722 1838.08,300.222 1838.5,299.5 Z"/></g>
<g><path style="opacity:0.97" fill="#1a4979" d="M 32.5,408.5 C 41.5707,406.768 45.7374,410.434 45,419.5C 45.8653,416.797 47.6987,415.464 50.5,415.5C 53.8711,416.577 57.2044,417.577 60.5,418.5C 60.281,419.675 60.6143,420.675 61.5,421.5C 64.2195,416.256 68.0529,415.256 73,418.5C 73.1417,422.907 72.8084,427.241 72,431.5C 73.6335,426.853 76.6335,425.52 81,427.5C 81,432.167 81,436.833 81,441.5C 81.9733,439.36 83.4733,437.693 85.5,436.5C 85.9811,431.832 88.4811,429.165 93,428.5C 94.9711,428.468 96.4711,429.302 97.5,431C 99.8333,431.333 102.167,431.667 104.5,432C 105.264,434.069 105.764,436.236 106,438.5C 109.143,434.039 112.977,433.372 117.5,436.5C 119.256,438.191 119.756,440.191 119,442.5C 118.439,444.725 117.439,446.725 116,448.5C 107.185,455.304 100.685,463.804 96.5,474C 99.7992,476.809 100.133,479.809 97.5,483C 87.3032,489.29 76.3032,493.623 64.5,496C 60.5,498 56.5,500 52.5,502C 49.7983,502.607 47.1316,502.44 44.5,501.5C 42.4228,502.892 40.0895,503.558 37.5,503.5C 31.0346,502.179 24.7013,500.346 18.5,498C 14.8421,495.197 14.5088,492.03 17.5,488.5C 15.0115,475.264 13.8448,461.931 14,448.5C 15.0938,445.308 16.9272,442.642 19.5,440.5C 18.3914,434.026 17.3914,427.526 16.5,421C 16.9903,419.018 17.9903,417.351 19.5,416C 22.4816,415.502 25.4816,415.335 28.5,415.5C 28.3512,418.607 28.8512,421.607 30,424.5C 30.3333,419.833 30.6667,415.167 31,410.5C 31.7172,409.956 32.2172,409.289 32.5,408.5 Z M 34.5,411.5 C 39.7596,409.118 42.2596,410.784 42,416.5C 40.9505,417.517 39.7839,417.684 38.5,417C 37.5119,414.833 36.1786,413 34.5,411.5 Z M 66.5,419.5 C 68.1849,418.156 69.8516,418.323 71.5,420C 69.8925,419.981 68.2259,419.815 66.5,419.5 Z M 91.5,430.5 C 93.4233,430.795 95.0899,431.628 96.5,433C 96,433.5 95.5,434 95,434.5C 92.9286,433.897 91.7619,432.564 91.5,430.5 Z M 31.5,434.5 C 37.5576,434.759 37.3909,436.093 31,438.5C 29.9326,437.809 28.7659,437.309 27.5,437C 29.0664,436.392 30.3998,435.558 31.5,434.5 Z M 70.5,434.5 C 70.7692,436.429 70.2692,438.095 69,439.5C 68.7973,437.609 69.2973,435.943 70.5,434.5 Z M 112.5,437.5 C 114.308,437.491 115.975,437.991 117.5,439C 115.465,439.599 113.799,439.099 112.5,437.5 Z M 86.5,439.5 C 89.0449,437.977 91.0449,438.643 92.5,441.5C 92.1667,441.833 91.8333,442.167 91.5,442.5C 89.6396,441.74 87.973,440.74 86.5,439.5 Z M 25.5,441.5 C 32.1128,443.429 31.9462,445.095 25,446.5C 17.8649,444.439 18.0316,442.773 25.5,441.5 Z M 67.5,441.5 C 70.7973,441.329 71.1306,441.995 68.5,443.5C 67.7025,443.043 67.3691,442.376 67.5,441.5 Z M 90.5,475.5 C 93.3158,475.544 95.6492,476.544 97.5,478.5C 94.07,479.95 91.7366,478.95 90.5,475.5 Z"/></g>
<g><path style="opacity:0.842" fill="#52a6d8" d="M 1375.5,538.5 C 1393.33,538.163 1401.83,546.829 1401,564.5C 1397.16,567.188 1393.16,569.521 1389,571.5C 1388.21,573.165 1387.88,574.831 1388,576.5C 1389.81,574.604 1391.97,574.104 1394.5,575C 1395.99,579.531 1395.16,583.697 1392,587.5C 1388.57,590.544 1386.57,594.211 1386,598.5C 1390.33,595.5 1394,591.833 1397,587.5C 1393.53,594.643 1388.2,600.309 1381,604.5C 1380.65,608.116 1379.49,608.783 1377.5,606.5C 1375.46,607.236 1373.46,608.069 1371.5,609C 1376.68,609.59 1381.01,611.757 1384.5,615.5C 1384.17,615.833 1383.83,616.167 1383.5,616.5C 1379.63,612.599 1374.96,610.766 1369.5,611C 1367.74,611.965 1367.41,613.132 1368.5,614.5C 1369.85,616.02 1371.18,616.687 1372.5,616.5C 1372.29,617.086 1371.96,617.586 1371.5,618C 1374.16,622.143 1375,626.643 1374,631.5C 1374.38,625.936 1372.38,621.602 1368,618.5C 1364.89,618.956 1361.72,619.122 1358.5,619C 1355.97,620.316 1355.97,621.483 1358.5,622.5C 1359.45,621.674 1360.45,621.508 1361.5,622C 1360.4,623.131 1360.73,623.965 1362.5,624.5C 1365.1,623.438 1367.77,623.272 1370.5,624C 1372.04,625.599 1372.54,627.433 1372,629.5C 1371.15,627.875 1370.15,627.542 1369,628.5C 1363.83,626.912 1358.49,625.912 1353,625.5C 1350.48,626.507 1347.98,627.674 1345.5,629C 1333.61,630.782 1329.11,625.948 1332,614.5C 1332.45,620.989 1333.45,620.989 1335,614.5C 1336,614.167 1337,613.833 1338,613.5C 1343.37,596.759 1351.37,581.426 1362,567.5C 1362.73,565.129 1363.57,562.795 1364.5,560.5C 1362.96,557.254 1361.29,554.088 1359.5,551C 1360.25,549.266 1360.75,547.433 1361,545.5C 1365.71,542.729 1370.54,540.396 1375.5,538.5 Z M 1387.5,568.5 C 1390,568.511 1390.17,569.178 1388,570.5C 1387.54,569.906 1387.37,569.239 1387.5,568.5 Z M 1389.5,576.5 C 1390.83,576.5 1392.17,576.5 1393.5,576.5C 1392.74,580.944 1390.9,584.944 1388,588.5C 1387.61,585.812 1387.11,583.145 1386.5,580.5C 1387.83,580.098 1388.83,578.765 1389.5,576.5 Z M 1384.5,578.5 C 1385.81,582.683 1385.81,587.016 1384.5,591.5C 1383.08,593.139 1381.42,593.973 1379.5,594C 1380.26,591.931 1380.76,589.764 1381,587.5C 1382.74,584.691 1383.91,581.691 1384.5,578.5 Z M 1361.5,581.5 C 1361.93,584.166 1360.93,585.333 1358.5,585C 1359.64,583.855 1360.64,582.688 1361.5,581.5 Z M 1369.5,598.5 C 1372.08,593.673 1374.41,588.673 1376.5,583.5C 1377.24,582.713 1378.08,582.047 1379,581.5C 1377.79,588.22 1374.63,593.887 1369.5,598.5 Z M 1358.5,589.5 C 1359.53,589.897 1359.69,590.563 1359,591.5C 1356.67,594.833 1354.33,598.167 1352,601.5C 1351.31,595.871 1353.48,591.871 1358.5,589.5 Z M 1382.5,598.5 C 1382.49,600.686 1381.49,601.519 1379.5,601C 1380.37,599.955 1381.37,599.122 1382.5,598.5 Z M 1348.5,603.5 C 1349.69,603.866 1350.36,604.699 1350.5,606C 1350.04,608.355 1349.21,610.521 1348,612.5C 1347.7,609.493 1347.87,606.493 1348.5,603.5 Z M 1373.5,604.5 C 1372.47,605.848 1371.14,606.348 1369.5,606C 1370.56,604.812 1371.9,604.312 1373.5,604.5 Z M 1358.5,609.5 C 1362.42,612.088 1362.09,614.422 1357.5,616.5C 1356.33,616.081 1355.33,615.415 1354.5,614.5C 1355.86,612.814 1357.19,611.148 1358.5,609.5 Z M 1343.5,610.5 C 1344.67,612.65 1345.67,614.984 1346.5,617.5C 1346.19,618.308 1345.69,618.975 1345,619.5C 1343.71,616.649 1343.21,613.649 1343.5,610.5 Z M 1363.5,613.5 C 1365.02,616.495 1364.02,617.661 1360.5,617C 1361.71,615.961 1362.71,614.794 1363.5,613.5 Z M 1338.5,614.5 C 1339.54,616.739 1340.88,618.905 1342.5,621C 1339.3,623.333 1337.3,622.5 1336.5,618.5C 1336.75,616.927 1337.42,615.594 1338.5,614.5 Z M 1365.5,615.5 C 1366.29,615.783 1366.96,616.283 1367.5,617C 1366.18,617.528 1365.52,617.028 1365.5,615.5 Z M 1352.5,616.5 C 1356.82,616.842 1357.32,618.175 1354,620.5C 1352.81,619.437 1352.31,618.103 1352.5,616.5 Z M 1348.5,620.5 C 1349.76,620.461 1350.76,620.961 1351.5,622C 1350.17,622.667 1348.83,622.667 1347.5,622C 1348.06,621.617 1348.39,621.117 1348.5,620.5 Z M 1334.5,622.5 C 1335.29,622.783 1335.96,623.283 1336.5,624C 1335.18,624.528 1334.52,624.028 1334.5,622.5 Z M 1344.5,623.5 C 1345.47,623.987 1346.47,624.487 1347.5,625C 1344.68,626.721 1341.68,627.388 1338.5,627C 1340.88,626.284 1342.88,625.117 1344.5,623.5 Z"/></g>
<g><path style="opacity:0.942" fill="#2c82b5" d="M 335.5,575.5 C 339.433,577.494 342.1,580.661 343.5,585C 351.741,585.856 359.074,588.856 365.5,594C 363.999,595.252 362.332,596.252 360.5,597C 352.95,599.471 345.283,601.471 337.5,603C 335.289,606.275 332.289,607.608 328.5,607C 329.167,606 329.833,605 330.5,604C 324.433,603.627 318.433,602.793 312.5,601.5C 309.01,604.241 305.01,605.907 300.5,606.5C 299.833,606.167 299.167,605.833 298.5,605.5C 300.918,604.585 302.918,603.085 304.5,601C 299.826,596.661 294.493,594.994 288.5,596C 285.5,600.005 281.667,602.839 277,604.5C 276.5,604.167 276,603.833 275.5,603.5C 283.941,598.138 284.608,591.971 277.5,585C 279.635,584.365 281.635,584.699 283.5,586C 285.308,588.838 287.642,591.005 290.5,592.5C 297.476,590.599 304.143,588.099 310.5,585C 308.289,582.215 305.623,579.882 302.5,578C 305.519,578.169 308.519,578.836 311.5,580C 314.011,581.848 316.511,583.681 319,585.5C 323.584,584.23 328.084,582.73 332.5,581C 333.758,579.259 334.758,577.426 335.5,575.5 Z"/></g>
<g><path style="opacity:0.973" fill="#042547" d="M 1639.5,639.5 C 1647.03,639.758 1652.36,643.258 1655.5,650C 1651.72,653.206 1648.39,656.872 1645.5,661C 1640.76,663.435 1635.76,665.101 1630.5,666C 1632.6,668.042 1633.77,670.542 1634,673.5C 1636.77,685.547 1635.77,697.214 1631,708.5C 1629.56,710.155 1627.72,710.822 1625.5,710.5C 1626.88,698.797 1624.05,688.13 1617,678.5C 1616.67,689.5 1616.33,700.5 1616,711.5C 1613.96,722.408 1609.13,731.908 1601.5,740C 1595.94,744.277 1591.94,743.277 1589.5,737C 1589.64,736.228 1589.98,735.561 1590.5,735C 1588.7,731.907 1587.04,728.74 1585.5,725.5C 1587.6,721.9 1589.26,718.067 1590.5,714C 1586.34,710.041 1585.34,705.208 1587.5,699.5C 1587.49,696.408 1586.99,693.408 1586,690.5C 1576.9,694.317 1567.4,696.317 1557.5,696.5C 1557.82,702.997 1554.82,705.164 1548.5,703C 1546.78,701.473 1544.78,700.473 1542.5,700C 1542.03,697.877 1540.87,696.377 1539,695.5C 1530.77,697.214 1522.94,700.047 1515.5,704C 1511.53,705.499 1507.53,705.666 1503.5,704.5C 1506.02,701.812 1508.36,698.979 1510.5,696C 1515.33,693.709 1520.33,691.875 1525.5,690.5C 1529.3,682.725 1534.63,676.225 1541.5,671C 1551.56,664.3 1562.23,658.633 1573.5,654C 1586.82,649.674 1600.16,649.508 1613.5,653.5C 1621.38,647.23 1630.05,642.563 1639.5,639.5 Z"/></g>
<g><path style="opacity:0.911" fill="#1a4979" d="M 1191.5,728.5 C 1194.52,728.335 1197.52,728.502 1200.5,729C 1202.48,729.605 1202.81,730.605 1201.5,732C 1197.13,732.364 1192.97,732.53 1189,732.5C 1188.33,733.5 1188.33,734.5 1189,735.5C 1191.57,737.329 1193.91,739.329 1196,741.5C 1199.95,740.444 1203.12,738.277 1205.5,735C 1208.47,734.105 1211.13,734.605 1213.5,736.5C 1212.31,738.527 1210.64,740.027 1208.5,741C 1203.99,741.263 1199.66,742.263 1195.5,744C 1198.45,747.79 1202.12,750.623 1206.5,752.5C 1214.68,751.719 1222.84,751.385 1231,751.5C 1232.96,745.536 1236.96,741.536 1243,739.5C 1243.77,739.645 1244.44,739.978 1245,740.5C 1245.08,742.657 1245.24,744.657 1245.5,746.5C 1254.4,744.206 1256.07,746.373 1250.5,753C 1249.39,753.638 1248.22,754.138 1247,754.5C 1245.53,753.67 1244.03,753.504 1242.5,754C 1244.48,754.605 1244.81,755.605 1243.5,757C 1240.21,756.462 1236.87,756.129 1233.5,756C 1234.42,756.374 1235.25,756.874 1236,757.5C 1237.53,760.417 1238.86,763.417 1240,766.5C 1241,767.167 1242,767.833 1243,768.5C 1244.2,774.419 1244.86,780.419 1245,786.5C 1245.67,787.833 1246.33,789.167 1247,790.5C 1251.69,792.028 1256.53,793.195 1261.5,794C 1262.69,795.019 1263.69,796.186 1264.5,797.5C 1263.54,798.888 1262.54,800.221 1261.5,801.5C 1257.89,800.363 1254.56,798.696 1251.5,796.5C 1251.17,796.833 1250.83,797.167 1250.5,797.5C 1252.32,801.792 1253.99,806.125 1255.5,810.5C 1261.53,811.86 1265.19,815.527 1266.5,821.5C 1264.81,822.568 1263.15,822.401 1261.5,821C 1259.3,818.766 1257.47,816.266 1256,813.5C 1256.08,817.805 1256.24,822.138 1256.5,826.5C 1261.11,826.12 1263.78,828.12 1264.5,832.5C 1261.04,832.854 1258.54,831.521 1257,828.5C 1256.42,833.511 1255.75,838.511 1255,843.5C 1254.59,843.957 1254.09,844.291 1253.5,844.5C 1253.51,836.929 1253.35,829.262 1253,821.5C 1252.46,818.471 1251.79,815.471 1251,812.5C 1247.19,804.212 1242.86,796.212 1238,788.5C 1236.84,784.877 1235.84,781.211 1235,777.5C 1230.4,776.284 1226.24,774.117 1222.5,771C 1215.23,767.741 1213.4,769.241 1217,775.5C 1222.86,777.948 1225.02,782.282 1223.5,788.5C 1222.17,788.5 1220.83,788.5 1219.5,788.5C 1219.66,790.527 1219.5,792.527 1219,794.5C 1218.28,795.059 1217.44,795.392 1216.5,795.5C 1211.25,792.637 1208.92,788.137 1209.5,782C 1209.39,778.813 1210.06,775.813 1211.5,773C 1211.14,771.775 1210.64,770.609 1210,769.5C 1204.69,764.528 1199.36,759.528 1194,754.5C 1193.14,752.913 1192.47,751.246 1192,749.5C 1188.41,748.081 1185.58,745.748 1183.5,742.5C 1170.48,738.699 1157.14,736.532 1143.5,736C 1142.66,734.989 1142.33,733.822 1142.5,732.5C 1155.2,733.838 1167.87,734.504 1180.5,734.5C 1183.86,731.764 1187.53,729.764 1191.5,728.5 Z"/></g>
<g><path style="opacity:0.962" fill="#042547" d="M 917.5,732.5 C 939.007,730.841 958.507,736.174 976,748.5C 977.122,757.056 973.622,762.89 965.5,766C 964.833,767 964.167,768 963.5,769C 966.825,773.833 971.159,777.5 976.5,780C 968.927,780.271 963.927,776.771 961.5,769.5C 961.719,768.062 962.219,766.729 963,765.5C 966.387,762.113 969.721,758.779 973,755.5C 973.52,753.711 973.187,752.044 972,750.5C 961.024,743.087 949.191,741.254 936.5,745C 935.643,745.689 934.977,746.522 934.5,747.5C 937.178,752.188 940.344,756.521 944,760.5C 952.128,757.004 960.628,755.504 969.5,756C 964.083,758.79 958.916,761.957 954,765.5C 953.333,766.833 953.333,768.167 954,769.5C 955.667,772.5 957.333,775.5 959,778.5C 959.667,779.833 959.667,781.167 959,782.5C 953.667,778.5 948.333,774.5 943,770.5C 941.324,774.695 940.157,779.029 939.5,783.5C 939.383,786.597 940.383,789.264 942.5,791.5C 941.624,792.251 940.624,792.751 939.5,793C 941.001,794.252 942.668,795.252 944.5,796C 943.359,796.741 943.359,797.575 944.5,798.5C 942.579,799.641 940.579,799.808 938.5,799C 932.833,795.833 927.167,792.667 921.5,789.5C 919.259,789.881 916.926,790.048 914.5,790C 921.366,793.748 921.033,794.748 913.5,793C 905.699,788.175 897.366,784.509 888.5,782C 886.352,778.071 884.352,774.071 882.5,770C 878.514,769.501 874.514,769.334 870.5,769.5C 871.256,767.387 871.423,765.387 871,763.5C 874.818,762.335 878.652,761.168 882.5,760C 883.274,757.595 883.774,755.095 884,752.5C 893.856,743.443 905.023,736.777 917.5,732.5 Z"/></g>
<g><path style="opacity:0.949" fill="#042547" d="M 830.5,899.5 C 844.02,900.139 846.853,905.806 839,916.5C 838.5,921.511 838.667,926.511 839.5,931.5C 838.935,937.079 837.769,942.413 836,947.5C 843.371,936.231 853.537,932.397 866.5,936C 872.544,938.932 874.044,943.432 871,949.5C 869.745,950.211 868.579,951.044 867.5,952C 863.167,952.333 858.833,952.667 854.5,953C 845.994,958.658 837.494,964.158 829,969.5C 825.82,969.079 822.82,968.079 820,966.5C 819.228,966.645 818.561,966.978 818,967.5C 814.531,958.362 808.531,951.362 800,946.5C 788.328,949.494 783.994,945.161 787,933.5C 792.011,926.823 798.177,925.323 805.5,929C 811.723,932.223 816.223,937.057 819,943.5C 819.726,938.761 819.393,934.095 818,929.5C 815.158,926.765 811.825,924.765 808,923.5C 806.578,920.97 806.245,918.303 807,915.5C 812.44,906.538 820.274,901.205 830.5,899.5 Z M 826.5,906.5 C 828.308,906.491 829.975,906.991 831.5,908C 832.451,908.718 832.617,909.551 832,910.5C 828.669,915.25 824.169,917.416 818.5,917C 817.228,914.956 817.561,913.122 819.5,911.5C 821.724,909.566 824.058,907.899 826.5,906.5 Z M 793.5,931.5 C 799.437,930.918 801.271,933.252 799,938.5C 796.123,942.164 793.29,942.331 790.5,939C 791.214,936.352 792.214,933.852 793.5,931.5 Z M 857.5,938.5 C 862.947,938.621 866.281,941.288 867.5,946.5C 862.516,946.843 858.85,944.843 856.5,940.5C 856.863,939.817 857.196,939.15 857.5,938.5 Z"/></g>
</svg>
