<?xml version="1.0" encoding="UTF-8"?>
<!DOCTYPE svg PUBLIC "-//W3C//DTD SVG 1.1//EN" "http://www.w3.org/Graphics/SVG/1.1/DTD/svg11.dtd">
<svg xmlns="http://www.w3.org/2000/svg" version="1.1" width="1920px" height="1080px" style="shape-rendering:geometricPrecision; text-rendering:geometricPrecision; image-rendering:optimizeQuality; fill-rule:evenodd; clip-rule:evenodd" xmlns:xlink="http://www.w3.org/1999/xlink">
<g><path style="opacity:0.994" fill="#042547" d="M -0.5,-0.5 C 639.5,-0.5 1279.5,-0.5 1919.5,-0.5C 1919.5,69.5 1919.5,139.5 1919.5,209.5C 1868.53,227.098 1816.53,240.931 1763.5,251C 1717.21,258.911 1670.87,259.244 1624.5,252C 1613.98,250.429 1603.64,248.096 1593.5,245C 1566.02,219.434 1538.36,194.1 1510.5,169C 1464.1,131.972 1411.1,116.138 1351.5,121.5C 1351.12,127.702 1349.78,133.702 1347.5,139.5C 1354.77,164.706 1366.27,187.706 1382,208.5C 1384.25,213.637 1384.91,218.97 1384,224.5C 1382.99,225.337 1381.82,225.67 1380.5,225.5C 1381.43,230.822 1381.93,236.156 1382,241.5C 1378.84,243.629 1375.51,244.296 1372,243.5C 1372.26,233.814 1370.6,224.481 1367,215.5C 1362.47,205.652 1357.13,196.318 1351,187.5C 1353.29,195.319 1355.29,203.319 1357,211.5C 1359.14,223.228 1358.97,234.895 1356.5,246.5C 1353.04,247.921 1350.71,246.755 1349.5,243C 1351.76,237.306 1352.1,231.472 1350.5,225.5C 1347.32,225.497 1344.49,224.497 1342,222.5C 1341.33,229.51 1339.5,236.177 1336.5,242.5C 1333.36,241.986 1330.36,241.153 1327.5,240C 1335.99,222.35 1336.49,204.517 1329,186.5C 1323.2,201.587 1322.37,216.92 1326.5,232.5C 1325.61,247.789 1319.27,260.289 1307.5,270C 1304.42,271.09 1302.09,270.257 1300.5,267.5C 1308.27,258.108 1312.61,247.274 1313.5,235C 1308.8,215.219 1304.3,195.386 1300,175.5C 1298.34,187.484 1298.18,199.484 1299.5,211.5C 1299.5,221.541 1297.66,231.208 1294,240.5C 1289.6,245.309 1284.27,246.975 1278,245.5C 1277.22,244.056 1277.39,242.723 1278.5,241.5C 1284.02,240.153 1286.68,236.653 1286.5,231C 1282.52,207.021 1284.35,183.521 1292,160.5C 1296.95,147.931 1302.45,135.597 1308.5,123.5C 1299.86,122.502 1291.19,122.169 1282.5,122.5C 1281.5,122.586 1280.67,122.252 1280,121.5C 1278.96,119.285 1278.29,116.952 1278,114.5C 1276.19,112.604 1274.03,112.104 1271.5,113C 1268,115.669 1264.67,118.502 1261.5,121.5C 1249.4,121.09 1237.4,119.757 1225.5,117.5C 1195.78,125.943 1173.94,143.943 1160,171.5C 1157.75,178.095 1155.75,184.762 1154,191.5C 1150.94,196.423 1146.44,198.923 1140.5,199C 1117.61,201.955 1096.28,197.622 1076.5,186C 1063.94,176.722 1059.44,164.555 1063,149.5C 1066.37,142.814 1069.7,136.147 1073,129.5C 1074.61,121.223 1071.45,115.723 1063.5,113C 1038.8,104.378 1013.8,96.8782 988.5,90.5C 991.653,100.472 996.153,109.806 1002,118.5C 1011.53,132.372 1022.2,145.372 1034,157.5C 1036.27,161.93 1036.94,166.597 1036,171.5C 1034.95,173.107 1033.45,173.773 1031.5,173.5C 1032.47,178.816 1032.97,184.149 1033,189.5C 1028.36,191.438 1023.53,191.938 1018.5,191C 1020.33,182.477 1019.16,174.311 1015,166.5C 1008.2,154.365 999.869,143.365 990,133.5C 994.085,142.043 997.418,151.043 1000,160.5C 1001.97,171.506 1001.97,182.506 1000,193.5C 996.685,196.352 993.685,196.019 991,192.5C 990.841,188.951 991.341,185.451 992.5,182C 991.839,179.536 991.339,177.036 991,174.5C 986.681,173.676 982.681,172.009 979,169.5C 978.488,176.231 976.655,182.565 973.5,188.5C 969.017,189.928 964.684,189.762 960.5,188C 965.721,178.671 968.721,168.671 969.5,158C 969.303,149.24 966.636,141.407 961.5,134.5C 958.073,143.21 955.739,152.21 954.5,161.5C 961.061,177.515 958.894,192.182 948,205.5C 943.167,209.667 938.333,213.833 933.5,218C 930.697,218.755 928.03,218.422 925.5,217C 924.549,216.282 924.383,215.449 925,214.5C 939.544,201.549 943.877,185.883 938,167.5C 934.333,158.5 930.667,149.5 927,140.5C 925.057,133.306 924.057,125.973 924,118.5C 923.226,122.147 922.559,125.814 922,129.5C 921.667,143.5 921.333,157.5 921,171.5C 920.235,179.866 916.735,186.7 910.5,192C 904.551,193.829 898.551,194.329 892.5,193.5C 892.297,191.61 892.963,190.11 894.5,189C 897.244,188.197 899.911,187.197 902.5,186C 903.126,185.25 903.626,184.416 904,183.5C 904.115,172.321 903.615,161.155 902.5,150C 902.901,131.898 907.734,115.064 917,99.5C 921.457,91.4156 926.291,83.5822 931.5,76C 921.61,73.3564 911.61,71.6897 901.5,71C 880.762,85.3745 858.762,97.7079 835.5,108C 810.75,117.959 785.083,121.959 758.5,120C 757.234,119.691 756.067,119.191 755,118.5C 755.347,115.275 756.181,112.108 757.5,109C 754.796,100.632 749.129,95.2986 740.5,93C 707.55,85.9384 674.217,82.7717 640.5,83.5C 617.092,83.1827 593.759,84.3494 570.5,87C 547.404,98.8802 523.404,108.547 498.5,116C 492.233,117.934 488.399,122.1 487,128.5C 486.058,134.803 485.391,141.137 485,147.5C 483.608,153.214 480.941,158.214 477,162.5C 466.946,172.554 456.946,182.554 447,192.5C 445.595,196.072 445.262,199.739 446,203.5C 452.998,226.164 463.664,246.831 478,265.5C 481.51,271.555 482.51,277.888 481,284.5C 479.795,285.071 478.628,285.738 477.5,286.5C 479.071,291.398 479.571,296.398 479,301.5C 475.757,303.263 472.257,303.929 468.5,303.5C 469.193,294.24 468.027,285.24 465,276.5C 460.692,266.547 455.359,257.214 449,248.5C 451.292,257.007 453.292,265.674 455,274.5C 456.53,284.599 456.53,294.599 455,304.5C 453.164,306.604 450.998,306.938 448.5,305.5C 448.321,299.565 448.154,293.565 448,287.5C 445.046,285.517 442.046,283.517 439,281.5C 438.561,288.026 437.228,294.36 435,300.5C 431.905,301.395 428.738,301.395 425.5,300.5C 428.851,290.598 430.851,280.431 431.5,270C 431.641,261.397 429.808,253.231 426,245.5C 421.076,260.784 420.243,276.284 423.5,292C 422.764,307.471 416.431,320.138 404.5,330C 400.494,330.987 398.661,329.487 399,325.5C 409.097,312.778 412.43,298.445 409,282.5C 405.354,270.584 402.021,258.584 399,246.5C 398.667,241.5 398.333,236.5 398,231.5C 396.773,248.466 396.107,265.466 396,282.5C 395.768,290.365 393.268,297.365 388.5,303.5C 384.036,305.302 379.37,305.968 374.5,305.5C 374.56,301.604 376.56,299.438 380.5,299C 381.701,298.097 382.535,296.931 383,295.5C 382.601,279.177 382.601,262.843 383,246.5C 384.405,236.545 386.905,226.878 390.5,217.5C 373.511,218.582 356.511,220.749 339.5,224C 301.962,245.848 261.629,260.182 218.5,267C 200.583,270.226 182.583,272.893 164.5,275C 163.483,276.049 163.316,277.216 164,278.5C 180.677,309.895 186.344,343.228 181,378.5C 183.052,381.206 185.719,383.206 189,384.5C 189.49,385.793 189.657,387.127 189.5,388.5C 181.91,390.145 176.077,387.812 172,381.5C 169.879,376.018 168.546,370.351 168,364.5C 167.833,349.822 167.333,335.155 166.5,320.5C 163.766,335.771 159.932,350.771 155,365.5C 151.487,382.284 155.32,397.117 166.5,410C 164.93,412.927 162.596,413.927 159.5,413C 151.861,406.367 146.194,398.367 142.5,389C 137.965,387.1 133.465,385.266 129,383.5C 126.772,377.36 125.439,371.026 125,364.5C 122.603,366.782 119.769,368.116 116.5,368.5C 116.83,371.157 117.163,373.824 117.5,376.5C 117.351,378.32 116.684,379.82 115.5,381C 115.176,392.046 118.843,401.713 126.5,410C 124.93,412.927 122.596,413.927 119.5,413C 101.846,396.782 96.0128,376.949 102,353.5C 99.2383,359.451 97.0717,365.618 95.5,372C 97.0182,375.717 98.0182,379.551 98.5,383.5C 97.5,383.5 96.5,383.5 95.5,383.5C 95.5,384.5 95.5,385.5 95.5,386.5C 92.059,386.699 88.7256,386.199 85.5,385C 85.2636,379.547 84.9302,374.047 84.5,368.5C 81.8663,367.484 79.1996,367.484 76.5,368.5C 75.598,375.148 75.4313,381.814 76,388.5C 74,389.833 72,389.833 70,388.5C 68.8512,385.607 68.3512,382.607 68.5,379.5C 66.8333,379.5 65.1667,379.5 63.5,379.5C 65.4269,372.214 67.2602,364.88 69,357.5C 69.6667,351.833 69.6667,346.167 69,340.5C 65.7062,346.253 62.5396,352.087 59.5,358C 64.3001,377.767 58.9668,394.267 43.5,407.5C 41.3052,408.769 39.1385,408.769 37,407.5C 36.8201,403.958 38.1535,400.958 41,398.5C 43.1072,394.619 44.9405,390.619 46.5,386.5C 45.0627,384.979 44.396,383.145 44.5,381C 44.9361,377.111 45.6027,373.277 46.5,369.5C 45.3717,368.738 44.2051,368.071 43,367.5C 42.0417,362.161 42.5417,356.994 44.5,352C 39.2032,338.315 36.3698,324.148 36,309.5C 34.7709,326.799 34.1043,344.133 34,361.5C 33.4593,369.129 30.9593,375.962 26.5,382C 22.1284,384.293 17.6284,384.793 13,383.5C 12.3333,382.5 12.3333,381.5 13,380.5C 16.3102,378.854 18.9768,376.52 21,373.5C 20.6006,357.177 20.6006,340.843 21,324.5C 22.6508,313.049 25.8174,302.049 30.5,291.5C 20.1286,290.984 9.7953,291.651 -0.5,293.5C -0.5,195.5 -0.5,97.5 -0.5,-0.5 Z M 942.5,99.5 C 945.226,111.646 947.559,124.146 949.5,137C 949.1,139.9 948.434,142.733 947.5,145.5C 936.868,131.066 935.202,115.733 942.5,99.5 Z M 1291.5,130.5 C 1292.38,130.369 1293.04,130.702 1293.5,131.5C 1289.41,136.982 1288.75,136.649 1291.5,130.5 Z M 1286.5,150.5 C 1287.38,150.369 1288.04,150.702 1288.5,151.5C 1287.73,155.181 1285.73,156.181 1282.5,154.5C 1283.55,152.784 1284.88,151.451 1286.5,150.5 Z M 1314.5,151.5 C 1316.33,163.999 1318,176.665 1319.5,189.5C 1319.39,192.567 1318.89,195.567 1318,198.5C 1310.84,183.253 1309.67,167.586 1314.5,151.5 Z M 411.5,212.5 C 413.465,221.469 414.965,230.802 416,240.5C 416.829,245.864 416.663,251.198 415.5,256.5C 407.903,242.402 406.569,227.735 411.5,212.5 Z M 49.5,290.5 C 51.3819,299.815 52.8819,309.481 54,319.5C 54.9434,325.012 54.61,330.345 53,335.5C 48.0345,325.008 46.0345,314.008 47,302.5C 47.8374,298.486 48.6708,294.486 49.5,290.5 Z M 111.5,294.5 C 114.047,298.435 113.881,302.435 111,306.5C 110.393,302.463 110.56,298.463 111.5,294.5 Z M 151.5,294.5 C 157.321,309.704 156.488,324.704 149,339.5C 147.886,337.03 147.386,334.364 147.5,331.5C 148.843,319.113 150.176,306.78 151.5,294.5 Z M 67.5,316.5 C 69.9706,319.373 69.4706,322.04 66,324.5C 65.3076,323.975 64.8076,323.308 64.5,322.5C 65.5133,320.473 66.5133,318.473 67.5,316.5 Z M 99.5,324.5 C 101.337,324.639 101.67,325.306 100.5,326.5C 99.7025,326.043 99.3691,325.376 99.5,324.5 Z M 92.5,326.5 C 95.699,328.978 96.199,331.978 94,335.5C 92.7114,332.649 92.2114,329.649 92.5,326.5 Z M 60.5,329.5 C 61.0431,329.56 61.3764,329.893 61.5,330.5C 59.3333,334.833 57.1667,339.167 55,343.5C 54.6905,342.234 54.1905,341.067 53.5,340C 56.4476,336.89 58.781,333.39 60.5,329.5 Z M 69.5,329.5 C 70.6291,331.628 70.7958,333.961 70,336.5C 68.3364,334.214 68.1697,331.881 69.5,329.5 Z M 99.5,331.5 C 100.077,330.227 100.743,330.227 101.5,331.5C 101.03,332.463 100.363,332.463 99.5,331.5 Z M 96.5,335.5 C 97.3764,335.369 98.0431,335.702 98.5,336.5C 98.024,339.201 97.024,339.701 95.5,338C 96.2524,337.329 96.5858,336.496 96.5,335.5 Z M 107.5,335.5 C 109.332,336.14 109.665,337.14 108.5,338.5C 107.614,337.675 107.281,336.675 107.5,335.5 Z M 104.5,337.5 C 106.238,339.119 106.738,341.119 106,343.5C 103.388,341.963 102.888,339.963 104.5,337.5 Z M 77.5,340.5 C 81.2819,345.569 81.4486,350.902 78,356.5C 77.5006,351.177 77.334,345.844 77.5,340.5 Z M 84.5,344.5 C 84.6633,346.857 84.4966,349.19 84,351.5C 82.2571,349.003 82.4237,346.67 84.5,344.5 Z M 100.5,344.5 C 102.099,345.799 102.599,347.465 102,349.5C 100.991,347.975 100.491,346.308 100.5,344.5 Z M 109.5,345.5 C 109.56,344.957 109.893,344.624 110.5,344.5C 111.583,345.365 111.749,346.365 111,347.5C 110.722,346.584 110.222,345.918 109.5,345.5 Z M 50.5,345.5 C 49.4762,350.455 48.6428,355.455 48,360.5C 47.3937,357.57 46.5604,354.737 45.5,352C 47.0303,349.648 48.6969,347.481 50.5,345.5 Z M 54.5,346.5 C 55.6289,348.666 55.1289,350.666 53,352.5C 53.1503,350.494 53.6503,348.494 54.5,346.5 Z M 105.5,346.5 C 106.647,349.289 106.147,351.956 104,354.5C 103.282,351.593 103.782,348.926 105.5,346.5 Z M 71.5,348.5 C 73.1986,351.738 74.5319,355.238 75.5,359C 74.1667,360.333 72.8333,361.667 71.5,363C 75.3095,368.435 75.1428,373.935 71,379.5C 69.8698,376.184 69.3698,372.684 69.5,369C 69.6766,362.11 70.3433,355.277 71.5,348.5 Z M 81.5,351.5 C 82.2485,352.531 82.9152,353.698 83.5,355C 82.7256,357.405 82.2256,359.905 82,362.5C 81.0975,361.299 79.9308,360.465 78.5,360C 79.7979,357.273 80.7979,354.44 81.5,351.5 Z M 49.5,367.5 C 51.371,367.859 52.871,368.859 54,370.5C 54.4993,375.489 54.6659,380.489 54.5,385.5C 52.5,385.5 50.5,385.5 48.5,385.5C 49.2412,379.529 49.5745,373.529 49.5,367.5 Z M 86.5,378.5 C 88.1747,380.179 89.008,382.179 89,384.5C 86.9614,383.022 86.1281,381.022 86.5,378.5 Z"/></g>
<g><path style="opacity:0.912" fill="#025b91" d="M 1282.5,122.5 C 1282.95,123.458 1283.62,124.292 1284.5,125C 1288.12,126.156 1291.79,127.156 1295.5,128C 1297.11,135.56 1294.11,138.727 1286.5,137.5C 1285.49,134.365 1283.32,132.699 1280,132.5C 1280.02,134.92 1280.69,137.253 1282,139.5C 1285.39,143.382 1288.56,147.382 1291.5,151.5C 1288.52,158.514 1283.52,160.348 1276.5,157C 1270.92,148.264 1268.75,138.764 1270,128.5C 1267.5,131.639 1265.67,135.139 1264.5,139C 1262.19,139.756 1260.19,139.256 1258.5,137.5C 1256.73,131.623 1257.73,126.289 1261.5,121.5C 1264.67,118.502 1268,115.669 1271.5,113C 1274.03,112.104 1276.19,112.604 1278,114.5C 1278.29,116.952 1278.96,119.285 1280,121.5C 1280.67,122.252 1281.5,122.586 1282.5,122.5 Z M 1291.5,130.5 C 1288.75,136.649 1289.41,136.982 1293.5,131.5C 1293.04,130.702 1292.38,130.369 1291.5,130.5 Z M 1286.5,150.5 C 1284.88,151.451 1283.55,152.784 1282.5,154.5C 1285.73,156.181 1287.73,155.181 1288.5,151.5C 1288.04,150.702 1287.38,150.369 1286.5,150.5 Z"/></g>
<g><path style="opacity:0.961" fill="#042548" d="M 51.5,682.5 C 55.1816,681.725 57.6816,683.059 59,686.5C 66.0397,698.03 68.0397,710.363 65,723.5C 61.6982,731.095 58.6982,738.762 56,746.5C 54.8099,754.173 54.1432,761.84 54,769.5C 66.5977,753.717 71.431,735.717 68.5,715.5C 71.6656,716.134 74.8322,716.468 78,716.5C 78.5244,722.85 78.3577,729.184 77.5,735.5C 80.5623,735.156 83.5623,734.489 86.5,733.5C 89.1747,727.437 91.1747,721.27 92.5,715C 96.2017,713.607 98.2017,714.774 98.5,718.5C 97.0893,727.81 94.5893,736.81 91,745.5C 86.8795,753.865 82.5462,761.865 78,769.5C 90.8387,759.796 100.839,747.796 108,733.5C 109.638,729.278 110.805,724.945 111.5,720.5C 115.692,720.596 119.025,722.263 121.5,725.5C 119.985,730.547 117.985,735.38 115.5,740C 116.448,740.483 117.448,740.649 118.5,740.5C 118.67,746.5 116.836,751.833 113,756.5C 93.802,772.587 77.1353,790.92 63,811.5C 62,813.5 61,815.5 60,817.5C 60.4367,827.555 58.7701,837.221 55,846.5C 52.1508,847.894 49.1508,848.894 46,849.5C 42.918,849.252 41.418,847.585 41.5,844.5C 36.7824,844.791 32.2824,845.791 28,847.5C 24.0143,848.184 21.681,846.518 21,842.5C 13.2345,816.375 10.2345,789.709 12,762.5C 15.5171,745.781 20.3505,729.448 26.5,713.5C 25.9724,710.139 24.1391,707.806 21,706.5C 20.0141,704.075 20.6807,702.409 23,701.5C 32.4612,702.297 36.9612,707.464 36.5,717C 34.6511,731.884 31.1511,746.384 26,760.5C 24.6743,764.784 24.0076,769.117 24,773.5C 29.449,759.932 36.449,747.265 45,735.5C 52.5358,724.234 55.5358,711.901 54,698.5C 53.2656,693.893 51.7656,689.559 49.5,685.5C 50.1925,684.482 50.8592,683.482 51.5,682.5 Z M 46.5,755.5 C 46.9439,760.143 46.1106,764.81 44,769.5C 39.3908,779.718 35.0574,790.052 31,800.5C 30.4425,793.398 31.1092,786.398 33,779.5C 36.7501,770.992 41.2501,762.992 46.5,755.5 Z"/></g>
<g><path style="opacity:0.969" fill="#042547" d="M 1409.5,798.5 C 1412.96,797.889 1415.63,799.056 1417.5,802C 1404.17,815.657 1400.67,831.49 1407,849.5C 1414,863.838 1419,878.838 1422,894.5C 1422.65,880.825 1422.48,867.159 1421.5,853.5C 1421.02,843.538 1423.35,834.371 1428.5,826C 1434.45,822.234 1440.45,821.734 1446.5,824.5C 1445.69,825.814 1444.69,826.981 1443.5,828C 1438.8,828.703 1436.13,831.37 1435.5,836C 1442.67,865.162 1439.83,893.329 1427,920.5C 1420.6,934.975 1412.93,948.642 1404,961.5C 1399.12,966.281 1393.95,966.448 1388.5,962C 1385.83,961.166 1383.16,960.332 1380.5,959.5C 1377.78,964.744 1373.95,965.744 1369,962.5C 1366.75,973.922 1362.92,984.755 1357.5,995C 1355.83,995.122 1354.16,994.788 1352.5,994C 1351.12,991.692 1349.12,990.192 1346.5,989.5C 1345.78,991.482 1344.62,993.149 1343,994.5C 1336.64,991.124 1334.14,985.791 1335.5,978.5C 1335.68,972.612 1336.34,966.778 1337.5,961C 1332.14,936.452 1323.3,913.285 1311,891.5C 1308.02,885.094 1308.19,878.927 1311.5,873C 1310.38,868.202 1309.88,863.368 1310,858.5C 1312.23,856.887 1314.73,856.22 1317.5,856.5C 1317.34,875.203 1322.18,892.536 1332,908.5C 1328.71,894.765 1326.71,880.765 1326,866.5C 1320.98,861.109 1318.98,854.775 1320,847.5C 1321.51,846.91 1323.01,846.244 1324.5,845.5C 1322.8,840.606 1321.96,835.606 1322,830.5C 1325.75,828.077 1329.92,827.077 1334.5,827.5C 1333.61,838.116 1335.95,847.949 1341.5,857C 1343.35,858.128 1345.35,858.628 1347.5,858.5C 1346.14,861.604 1346.3,864.604 1348,867.5C 1349.88,853.574 1350.88,839.574 1351,825.5C 1352.81,823.604 1354.97,823.104 1357.5,824C 1359.04,825.11 1359.7,826.61 1359.5,828.5C 1362.26,827.915 1363.93,828.915 1364.5,831.5C 1363.12,835.797 1361.46,839.964 1359.5,844C 1363.28,844.826 1366.78,846.326 1370,848.5C 1370.78,841.919 1372.45,835.586 1375,829.5C 1378.94,828.046 1382.77,828.212 1386.5,830C 1383.56,837.154 1381.23,844.487 1379.5,852C 1380.58,852.674 1381.25,853.674 1381.5,855C 1378.95,861.911 1379.45,868.744 1383,875.5C 1384.33,878.167 1385.67,880.833 1387,883.5C 1390.1,875.338 1391.93,866.838 1392.5,858C 1390.69,850.762 1389.36,843.429 1388.5,836C 1388.75,826.927 1391.58,818.76 1397,811.5C 1401.37,807.298 1405.54,802.964 1409.5,798.5 Z M 1398.5,872.5 C 1409.77,886.396 1411.94,901.73 1405,918.5C 1403.39,907.431 1401.39,896.431 1399,885.5C 1398.5,881.179 1398.33,876.846 1398.5,872.5 Z M 1360.5,880.5 C 1361.67,881.514 1362.34,882.847 1362.5,884.5C 1360.9,883.713 1360.23,882.38 1360.5,880.5 Z M 1343.5,888.5 C 1350.72,894.721 1352.55,902.387 1349,911.5C 1345.96,904.161 1344.13,896.494 1343.5,888.5 Z M 1355.5,906.5 C 1358.77,911.937 1360.6,917.937 1361,924.5C 1361.59,931.535 1361.25,938.535 1360,945.5C 1357.61,932.611 1356.11,919.611 1355.5,906.5 Z"/></g>
</svg>
