<?xml version="1.0" encoding="UTF-8"?>
<!DOCTYPE svg PUBLIC "-//W3C//DTD SVG 1.1//EN" "http://www.w3.org/Graphics/SVG/1.1/DTD/svg11.dtd">
<svg xmlns="http://www.w3.org/2000/svg" version="1.1" width="1920px" height="1080px" style="shape-rendering:geometricPrecision; text-rendering:geometricPrecision; image-rendering:optimizeQuality; fill-rule:evenodd; clip-rule:evenodd" xmlns:xlink="http://www.w3.org/1999/xlink">
<g><path style="opacity:0.938" fill="#042547" d="M 770.5,58.5 C 774.379,60.2055 776.879,63.2055 778,67.5C 779.3,76.1071 782.3,84.1071 787,91.5C 787.92,94.1013 788.587,96.7679 789,99.5C 789.776,95.1113 791.776,94.4446 795,97.5C 797.434,100.795 799.101,104.462 800,108.5C 802.333,111.5 804.667,114.5 807,117.5C 807.806,122.013 809.139,126.346 811,130.5C 817.496,135.082 824.163,139.416 831,143.5C 832.232,148.721 832.899,154.054 833,159.5C 836.906,166.741 842.239,172.741 849,177.5C 851.298,181.218 851.965,185.218 851,189.5C 850.293,187.919 849.46,186.419 848.5,185C 840.557,181.721 833.723,176.888 828,170.5C 826.092,167.785 824.759,164.785 824,161.5C 823.98,156.277 822.98,151.277 821,146.5C 821.152,152.527 819.319,157.86 815.5,162.5C 817.108,165.063 819.275,167.063 822,168.5C 823.75,171.246 824.75,174.246 825,177.5C 829.795,182.873 832.462,189.206 833,196.5C 836.086,199.517 839.086,202.517 842,205.5C 843.483,208.702 843.817,212.036 843,215.5C 841.878,213.376 840.378,211.543 838.5,210C 827.041,206.206 819.208,198.706 815,187.5C 814.027,189.64 812.527,191.307 810.5,192.5C 810.251,191.418 810.085,190.085 810,188.5C 809.586,188.043 809.086,187.709 808.5,187.5C 805.282,191.036 802.949,195.036 801.5,199.5C 802.446,202.726 803.946,205.726 806,208.5C 806.893,211.916 806.393,215.083 804.5,218C 802.104,218.866 801.437,218.366 802.5,216.5C 802,215.5 801.5,214.5 801,213.5C 796.821,210.743 792.821,207.743 789,204.5C 787.826,200.954 787.16,197.287 787,193.5C 784.46,192.124 782.46,192.79 781,195.5C 780,197.167 779,198.833 778,200.5C 778.629,204.782 778.962,209.115 779,213.5C 777.093,217.41 774.427,220.744 771,223.5C 771.476,220.84 772.31,218.174 773.5,215.5C 769.047,209.458 768.547,203.125 772,196.5C 774.5,193.333 777,190.167 779.5,187C 778.54,185.581 777.707,184.081 777,182.5C 776.241,177.293 776.408,172.126 777.5,167C 776.711,165.374 775.711,163.874 774.5,162.5C 766.763,171.543 764.763,181.709 768.5,193C 767.434,200.296 764.6,206.796 760,212.5C 759.833,212 759.667,211.5 759.5,211C 761.317,206.645 761.817,202.145 761,197.5C 757.419,201.752 753.252,205.252 748.5,208C 745.894,209.938 744.061,212.438 743,215.5C 741.155,211.857 741.155,208.191 743,204.5C 745.282,200.282 748.282,196.616 752,193.5C 754.208,190.446 755.208,187.113 755,183.5C 753.252,185.135 752.085,187.135 751.5,189.5C 749.143,184.1 749.976,179.1 754,174.5C 753.428,167.804 756.261,163.304 762.5,161C 763.191,159.933 763.691,158.766 764,157.5C 763.027,152.246 762.694,146.913 763,141.5C 765.023,138.48 767.69,136.146 771,134.5C 771.167,133.833 771.333,133.167 771.5,132.5C 768.899,128.056 766.066,123.722 763,119.5C 756.246,124.171 752.746,130.671 752.5,139C 756.605,159.348 751.105,176.514 736,190.5C 734.107,193.618 732.774,196.951 732,200.5C 730.114,194.875 730.114,189.208 732,183.5C 735.064,177.04 738.397,170.707 742,164.5C 742.92,161.899 743.587,159.232 744,156.5C 744.323,147.783 743.99,139.116 743,130.5C 746.11,123.378 750.776,117.378 757,112.5C 761.316,106.251 762.816,99.4178 761.5,92C 762.538,87.2135 763.371,82.3802 764,77.5C 767.657,71.6961 769.824,65.3627 770.5,58.5 Z M 776.5,74.5 C 777.848,75.5268 778.348,76.8602 778,78.5C 776.812,77.4366 776.312,76.1033 776.5,74.5 Z M 777.5,104.5 C 779.951,106.123 781.951,108.289 783.5,111C 781.98,113.596 781.147,116.429 781,119.5C 776.587,115.272 775.421,110.272 777.5,104.5 Z M 778.5,121.5 C 781.838,122.193 782.338,123.86 780,126.5C 778.991,124.975 778.491,123.308 778.5,121.5 Z M 812.5,137.5 C 813.627,138.122 814.627,138.955 815.5,140C 813.511,140.519 812.511,139.686 812.5,137.5 Z M 801.5,139.5 C 802.117,139.611 802.617,139.944 803,140.5C 803.667,145.833 803.667,151.167 803,156.5C 802.044,155.421 801.211,154.255 800.5,153C 801.467,148.599 801.8,144.099 801.5,139.5 Z M 804.5,140.5 C 806.662,139.583 808.995,139.583 811.5,140.5C 811.225,147.428 811.892,154.261 813.5,161C 813.167,161.833 812.833,162.667 812.5,163.5C 810.082,162.543 807.916,161.209 806,159.5C 805.773,155.676 805.94,151.842 806.5,148C 806.7,145.134 806.033,142.634 804.5,140.5 Z M 791.5,146.5 C 792.844,148.185 792.677,149.852 791,151.5C 790.36,149.735 790.527,148.068 791.5,146.5 Z M 797.5,158.5 C 801.097,160.508 800.93,162.508 797,164.5C 795.941,164.37 795.108,163.87 794.5,163C 795.386,161.385 796.386,159.885 797.5,158.5 Z M 804.5,161.5 C 803.711,161.217 803.044,160.717 802.5,160C 803.816,159.472 804.483,159.972 804.5,161.5 Z M 793.5,165.5 C 796.758,167.031 797.425,169.364 795.5,172.5C 795.486,174.593 796.152,176.426 797.5,178C 795.873,180.754 794.373,183.588 793,186.5C 792.219,185.271 791.719,183.938 791.5,182.5C 793.477,176.873 794.144,171.206 793.5,165.5 Z M 809.5,170.5 C 811.273,171.314 811.773,172.648 811,174.5C 810.209,173.255 809.709,171.922 809.5,170.5 Z"/></g>
<g><path style="opacity:0.807" fill="#042547" d="M 1461.5,172.5 C 1463.19,158.596 1462.02,144.929 1458,131.5C 1458.69,142.158 1458.36,152.825 1457,163.5C 1456.64,165.608 1455.97,167.608 1455,169.5C 1457.39,154.979 1456.39,140.646 1452,126.5C 1453.24,135.431 1453.91,144.431 1454,153.5C 1453.4,159.69 1452.07,165.69 1450,171.5C 1449.67,170.167 1449.33,168.833 1449,167.5C 1448.12,173.033 1446.62,178.367 1444.5,183.5C 1444.17,182.833 1443.83,182.167 1443.5,181.5C 1446.12,172.672 1447.28,163.672 1447,154.5C 1446.61,158.069 1445.61,161.403 1444,164.5C 1444.2,158.845 1444.2,153.179 1444,147.5C 1442.68,157.419 1440.35,167.085 1437,176.5C 1436.83,175.5 1436.67,174.5 1436.5,173.5C 1441.8,157.371 1442.63,141.038 1439,124.5C 1440.08,135.915 1439.41,147.248 1437,158.5C 1437.11,151.172 1437.11,143.838 1437,136.5C 1435.97,152.043 1434.47,167.543 1432.5,183C 1433.2,185.829 1433.37,188.662 1433,191.5C 1429.84,182.231 1429.67,172.898 1432.5,163.5C 1432.33,162.833 1432.17,162.167 1432,161.5C 1429.3,166.076 1427.96,171.076 1428,176.5C 1427.83,169.987 1427.33,163.653 1426.5,157.5C 1425.77,160.079 1425.27,162.746 1425,165.5C 1424.67,159.167 1424.33,152.833 1424,146.5C 1422.21,153.971 1421.21,162.305 1421,171.5C 1420.67,169.5 1420.33,167.5 1420,165.5C 1416.89,176.359 1415.89,187.359 1417,198.5C 1415.86,194.342 1415.36,190.009 1415.5,185.5C 1415.53,181.116 1415.86,176.782 1416.5,172.5C 1414.83,168.379 1413.66,164.046 1413,159.5C 1412.72,162.097 1412.55,164.43 1412.5,166.5C 1412.04,162.379 1410.54,158.712 1408,155.5C 1406.53,162.496 1406.2,169.496 1407,176.5C 1405.41,171.292 1404.58,165.958 1404.5,160.5C 1404.73,152.239 1405.23,143.906 1406,135.5C 1403.04,145.592 1401.71,155.925 1402,166.5C 1400.83,162.404 1399.67,158.237 1398.5,154C 1399.49,151.547 1399.66,149.047 1399,146.5C 1398.79,148.058 1398.29,149.391 1397.5,150.5C 1397.17,150.5 1396.83,150.5 1396.5,150.5C 1397.8,147.624 1398.3,144.624 1398,141.5C 1394.58,150.176 1392.91,159.176 1393,168.5C 1391.99,166.466 1391.49,164.3 1391.5,162C 1391.09,154.525 1391.59,147.025 1393,139.5C 1389.88,145.537 1387.54,151.87 1386,158.5C 1386.03,153.049 1386.7,147.715 1388,142.5C 1385.52,147.931 1383.86,153.597 1383,159.5C 1383.36,141.11 1390.03,125.444 1403,112.5C 1402.75,101.75 1407.92,95.5836 1418.5,94C 1428.83,93.3333 1439.17,93.3333 1449.5,94C 1450.19,95.0674 1450.69,96.2341 1451,97.5C 1464.31,107.113 1470.31,120.113 1469,136.5C 1467.88,135.051 1467.22,133.384 1467,131.5C 1466.57,145.483 1464.74,159.15 1461.5,172.5 Z M 1455.5,107.5 C 1454.04,106.542 1452.71,105.376 1451.5,104C 1453.84,103.832 1455.17,104.999 1455.5,107.5 Z M 1455.5,107.5 C 1461.29,112.836 1464.62,119.503 1465.5,127.5C 1462.71,120.593 1459.38,113.927 1455.5,107.5 Z M 1439.5,116.5 C 1441.64,119.087 1442.47,122.087 1442,125.5C 1440.86,122.568 1440.02,119.568 1439.5,116.5 Z M 1423.5,127.5 C 1424.12,127.917 1424.46,128.584 1424.5,129.5C 1423.94,131.819 1423.44,134.153 1423,136.5C 1422.5,133.469 1422.67,130.469 1423.5,127.5 Z M 1399.5,128.5 C 1399.57,130.027 1398.91,131.027 1397.5,131.5C 1397.43,129.973 1398.09,128.973 1399.5,128.5 Z M 1432.5,134.5 C 1433.74,140.046 1433.57,145.713 1432,151.5C 1432.13,145.86 1432.3,140.193 1432.5,134.5 Z M 1391.5,135.5 C 1391.6,137.553 1390.93,139.22 1389.5,140.5C 1389.4,138.447 1390.07,136.78 1391.5,135.5 Z M 1426.5,157.5 C 1425.88,157.083 1425.54,156.416 1425.5,155.5C 1426.33,151.168 1427.17,146.835 1428,142.5C 1428.35,147.572 1427.85,152.572 1426.5,157.5 Z M 1416.5,145.5 C 1417.26,150.679 1417.93,156.012 1418.5,161.5C 1418,163.5 1417.5,165.5 1417,167.5C 1415.94,166.056 1415.44,164.389 1415.5,162.5C 1416.29,156.86 1416.63,151.193 1416.5,145.5 Z"/></g>
<g><path style="opacity:0.789" fill="#042547" d="M 1522.5,128.5 C 1528.18,128.334 1533.84,128.501 1539.5,129C 1542,132.833 1545.17,136 1549,138.5C 1557.44,148.141 1560.77,159.141 1559,171.5C 1558.18,169.212 1557.51,166.878 1557,164.5C 1557.41,170.472 1557.41,176.472 1557,182.5C 1555.3,192.862 1553.3,203.195 1551,213.5C 1551.7,206.534 1552.53,199.534 1553.5,192.5C 1552.79,188.196 1552.29,183.863 1552,179.5C 1551.67,180.833 1551.33,182.167 1551,183.5C 1551.06,177.283 1550.06,171.283 1548,165.5C 1548.59,175.447 1548.59,185.447 1548,195.5C 1547.66,198.036 1547.16,200.536 1546.5,203C 1546.15,204.257 1545.48,204.591 1544.5,204C 1547.69,189.309 1546.86,174.809 1542,160.5C 1543.08,167.246 1543.91,174.08 1544.5,181C 1544.35,189.66 1543.18,198.16 1541,206.5C 1540.67,204.167 1540.33,201.833 1540,199.5C 1539.22,206.402 1537.55,213.069 1535,219.5C 1534.5,219 1534,218.5 1533.5,218C 1536.56,209.776 1537.73,201.276 1537,192.5C 1536.71,194.952 1536.04,197.285 1535,199.5C 1534.67,195.833 1534.33,192.167 1534,188.5C 1532.24,195.075 1530.58,201.742 1529,208.5C 1528.11,211.375 1527.27,211.708 1526.5,209.5C 1531.6,193.791 1532.77,177.791 1530,161.5C 1529.67,170.167 1529.33,178.833 1529,187.5C 1528.81,189.577 1528.31,191.577 1527.5,193.5C 1526.81,192.975 1526.31,192.308 1526,191.5C 1525.47,197.515 1524.8,203.515 1524,209.5C 1523.19,215.084 1523.36,220.584 1524.5,226C 1524.17,226.167 1523.83,226.333 1523.5,226.5C 1522.7,224.922 1522.2,223.256 1522,221.5C 1521.57,213.809 1521.57,206.143 1522,198.5C 1519.96,202.525 1518.96,206.858 1519,211.5C 1518.01,208.592 1517.51,205.592 1517.5,202.5C 1517.89,199.136 1518.06,195.803 1518,192.5C 1517.33,193.167 1516.67,193.833 1516,194.5C 1515.76,196.761 1515.59,198.761 1515.5,200.5C 1514.67,193.508 1514.5,186.508 1515,179.5C 1514.29,186.013 1513.12,191.68 1511.5,196.5C 1512.29,200.156 1512.45,203.823 1512,207.5C 1511.49,205.122 1510.82,202.788 1510,200.5C 1508,211.398 1507,222.398 1507,233.5C 1505.26,225.868 1505.09,218.201 1506.5,210.5C 1504.63,201.591 1503.47,192.591 1503,183.5C 1502.53,189.538 1502.53,195.538 1503,201.5C 1501.87,197.535 1500.87,193.535 1500,189.5C 1497.33,196.661 1496.83,203.995 1498.5,211.5C 1498.15,212.696 1497.65,212.696 1497,211.5C 1496.67,209.833 1496.33,208.167 1496,206.5C 1495.48,195.14 1495.48,183.807 1496,172.5C 1493.3,181.964 1491.97,191.631 1492,201.5C 1490.27,195.968 1489.27,190.301 1489,184.5C 1488.06,188.114 1487.39,191.781 1487,195.5C 1486.83,194.167 1486.67,192.833 1486.5,191.5C 1487.41,186.108 1488.25,180.775 1489,175.5C 1485.5,184.497 1483.5,193.83 1483,203.5C 1482.17,193.374 1482.51,183.374 1484,173.5C 1480.49,180.189 1477.82,187.189 1476,194.5C 1476.38,188.371 1477.38,182.371 1479,176.5C 1476.11,182.514 1474.44,188.848 1474,195.5C 1473.79,177.153 1480.13,161.153 1493,147.5C 1492.96,139.076 1496.79,133.243 1504.5,130C 1510.68,129.828 1516.68,129.328 1522.5,128.5 Z M 1555.5,160.5 C 1552.53,152.579 1548.03,145.579 1542,139.5C 1541.33,138.833 1541.33,138.167 1542,137.5C 1549.1,143.704 1553.6,151.371 1555.5,160.5 Z M 1531.5,155.5 C 1530.15,154.473 1529.65,153.14 1530,151.5C 1531.19,152.563 1531.69,153.897 1531.5,155.5 Z M 1531.5,155.5 C 1533.09,157.527 1533.59,159.861 1533,162.5C 1532.02,160.26 1531.52,157.927 1531.5,155.5 Z M 1523.5,174.5 C 1524.6,177.717 1524.43,181.05 1523,184.5C 1522.34,181.112 1522.51,177.779 1523.5,174.5 Z M 1518.5,175.5 C 1519.43,180.769 1518.93,186.103 1517,191.5C 1517.16,186.167 1517.66,180.834 1518.5,175.5 Z M 1506.5,186.5 C 1507.87,189.466 1508.87,192.633 1509.5,196C 1508.42,199.405 1507.58,202.905 1507,206.5C 1506.5,199.842 1506.33,193.175 1506.5,186.5 Z"/></g>
<g><path style="opacity:0.08" fill="#032444" d="M 1396.5,150.5 C 1396.83,150.5 1397.17,150.5 1397.5,150.5C 1397.54,153.91 1397.04,157.243 1396,160.5C 1395.61,157.151 1395.78,153.817 1396.5,150.5 Z"/></g>
<g><path style="opacity:0.008" fill="#101270" d="M 1461.5,172.5 C 1461.77,174.099 1461.43,175.432 1460.5,176.5C 1460.23,174.901 1460.57,173.568 1461.5,172.5 Z"/></g>
<g><path style="opacity:0.004" fill="#000000" d="M 1460.5,176.5 C 1460.63,177.239 1460.46,177.906 1460,178.5C 1459.31,177.563 1459.47,176.897 1460.5,176.5 Z"/></g>
<g><path style="opacity:0.883" fill="#042547" d="M 1251.5,726.5 C 1250.75,727.573 1249.75,727.74 1248.5,727C 1247.33,725.833 1246.17,724.667 1245,723.5C 1240.02,727.055 1234.52,728.221 1228.5,727C 1225.06,717.819 1227.39,710.319 1235.5,704.5C 1235.77,707.516 1234.6,710.182 1232,712.5C 1229.4,717.975 1231.07,721.308 1237,722.5C 1239.26,722.146 1241.1,721.146 1242.5,719.5C 1239.69,713.298 1240.03,707.298 1243.5,701.5C 1240.84,697.995 1238.34,694.328 1236,690.5C 1233.69,683.235 1234.36,676.235 1238,669.5C 1244.93,660.23 1250.6,650.23 1255,639.5C 1255.33,630.663 1254.17,621.996 1251.5,613.5C 1251.61,612.558 1251.94,611.725 1252.5,611C 1245.75,609.004 1242.92,604.504 1244,597.5C 1249.54,588.135 1257.7,582.301 1268.5,580C 1288.99,577.328 1304.15,585.162 1314,603.5C 1319.13,615.741 1314.97,622.574 1301.5,624C 1299.31,626.559 1298.31,629.559 1298.5,633C 1301.05,643.531 1303.88,654.031 1307,664.5C 1319.53,668.165 1320.7,674.332 1310.5,683C 1306.48,685.26 1302.32,687.093 1298,688.5C 1295.83,687.745 1293.66,686.912 1291.5,686C 1287.97,677.578 1284.31,677.578 1280.5,686C 1282.83,689 1285.17,692 1287.5,695C 1294.59,695.92 1301.59,696.92 1308.5,698C 1302.17,698.333 1295.83,698.667 1289.5,699C 1290.98,702.312 1291.81,705.812 1292,709.5C 1298.87,706.978 1299.04,704.478 1292.5,702C 1298.35,699.178 1300.85,701.011 1300,707.5C 1294.86,712.442 1288.69,715.275 1281.5,716C 1277.14,716.29 1272.8,716.79 1268.5,717.5C 1264.16,716.582 1259.83,716.082 1255.5,716C 1252.05,720.951 1252.71,725.617 1257.5,730C 1254.67,730.349 1252.67,729.183 1251.5,726.5 Z M 1265.5,614.5 C 1264.03,615.292 1262.7,615.292 1261.5,614.5C 1262.96,613.218 1264.29,613.218 1265.5,614.5 Z M 1255.5,615.5 C 1259.61,618.695 1260.44,622.695 1258,627.5C 1257.23,623.468 1256.39,619.468 1255.5,615.5 Z M 1298.5,615.5 C 1299.36,618.312 1298.69,620.979 1296.5,623.5C 1296.17,623.167 1295.83,622.833 1295.5,622.5C 1296.79,620.261 1297.79,617.928 1298.5,615.5 Z M 1270.5,616.5 C 1273.14,618.154 1272.8,618.654 1269.5,618C 1270.06,617.617 1270.39,617.117 1270.5,616.5 Z M 1276.5,621.5 C 1277.64,621.908 1278.64,622.575 1279.5,623.5C 1276.4,627.704 1274.4,632.371 1273.5,637.5C 1272.5,637.5 1271.5,637.5 1270.5,637.5C 1270.36,633.404 1271.86,630.071 1275,627.5C 1276.13,625.655 1276.63,623.655 1276.5,621.5 Z M 1285.5,623.5 C 1287.04,627.24 1286.04,630.407 1282.5,633C 1281.5,633.667 1280.5,633.667 1279.5,633C 1282.15,630.198 1284.15,627.032 1285.5,623.5 Z M 1288.5,625.5 C 1290.34,625.639 1290.67,626.306 1289.5,627.5C 1288.7,627.043 1288.37,626.376 1288.5,625.5 Z M 1270.5,626.5 C 1272.98,627.26 1272.98,628.26 1270.5,629.5C 1270.5,628.5 1270.5,627.5 1270.5,626.5 Z M 1270.5,629.5 C 1268.77,634.95 1267.6,640.617 1267,646.5C 1265,649.666 1262.5,652.332 1259.5,654.5C 1264.21,647.22 1267.04,639.22 1268,630.5C 1268.67,629.748 1269.5,629.414 1270.5,629.5 Z M 1288.5,631.5 C 1290.58,636.164 1291.92,641.164 1292.5,646.5C 1291.42,653.833 1289.25,660.833 1286,667.5C 1286.41,655.318 1287.25,643.318 1288.5,631.5 Z M 1276.5,634.5 C 1278.76,635.238 1278.93,636.238 1277,637.5C 1276.52,636.552 1276.35,635.552 1276.5,634.5 Z M 1284.5,635.5 C 1285.57,636.251 1285.74,637.251 1285,638.5C 1283.27,637.648 1283.1,636.648 1284.5,635.5 Z M 1296.5,636.5 C 1297.78,638.608 1298.28,640.942 1298,643.5C 1296.8,641.323 1296.3,638.989 1296.5,636.5 Z M 1269.5,648.5 C 1268.47,648.103 1268.31,647.437 1269,646.5C 1270.33,645.167 1271.67,643.833 1273,642.5C 1273.67,643.167 1273.67,643.833 1273,644.5C 1271.62,645.705 1270.46,647.038 1269.5,648.5 Z M 1273.5,646.5 C 1273.02,649.064 1272.35,651.564 1271.5,654C 1270.12,655.241 1268.79,655.408 1267.5,654.5C 1268.37,652.55 1269.04,650.55 1269.5,648.5C 1271.06,648.267 1272.4,647.6 1273.5,646.5 Z M 1255.5,647.5 C 1254.27,653.626 1251.27,658.626 1246.5,662.5C 1249.75,657.658 1252.75,652.658 1255.5,647.5 Z M 1299.5,647.5 C 1300.91,649.225 1301.41,651.225 1301,653.5C 1299.87,651.655 1299.37,649.655 1299.5,647.5 Z M 1296.5,657.5 C 1296.68,654.784 1297.18,652.117 1298,649.5C 1298.88,652.538 1298.38,655.205 1296.5,657.5 Z M 1282.5,654.5 C 1283.82,660.013 1283.82,665.68 1282.5,671.5C 1280.52,672.982 1278.68,674.649 1277,676.5C 1275.19,675.149 1275.52,674.149 1278,673.5C 1278.2,670.266 1279.03,667.266 1280.5,664.5C 1278.56,661.804 1279.23,660.471 1282.5,660.5C 1282.07,658.297 1282.07,656.297 1282.5,654.5 Z M 1258.5,655.5 C 1258.26,657.404 1257.26,658.738 1255.5,659.5C 1255.74,657.596 1256.74,656.262 1258.5,655.5 Z M 1300.5,657.5 C 1302.76,660.792 1303.93,664.459 1304,668.5C 1300.48,671.704 1298.48,675.704 1298,680.5C 1295.99,679.331 1293.83,678.665 1291.5,678.5C 1290.67,675.531 1290.5,672.531 1291,669.5C 1295.85,666.79 1299.01,662.79 1300.5,657.5 Z M 1255.5,659.5 C 1255.54,660.756 1255.04,661.756 1254,662.5C 1253.42,661.002 1253.92,660.002 1255.5,659.5 Z M 1263.5,662.5 C 1263.32,665.478 1263.65,668.645 1264.5,672C 1263.3,673.368 1262.3,674.868 1261.5,676.5C 1263.92,680.344 1266.59,684.01 1269.5,687.5C 1268.92,689.002 1268.08,690.335 1267,691.5C 1262.5,688.5 1258,685.5 1253.5,682.5C 1250.75,677.004 1251.08,671.671 1254.5,666.5C 1257.76,665.533 1260.76,664.199 1263.5,662.5 Z M 1241.5,668.5 C 1242.12,668.917 1242.46,669.584 1242.5,670.5C 1241.83,673.167 1241.17,675.833 1240.5,678.5C 1243.58,684.049 1245.08,690.049 1245,696.5C 1236.32,688.214 1235.15,678.88 1241.5,668.5 Z M 1307.5,680.5 C 1308.24,676.881 1308.58,673.215 1308.5,669.5C 1310.2,669.34 1311.87,669.506 1313.5,670C 1314.02,670.561 1314.36,671.228 1314.5,672C 1313.2,675.828 1310.86,678.661 1307.5,680.5 Z M 1248.5,670.5 C 1249.62,672.089 1249.45,673.756 1248,675.5C 1247.62,673.803 1247.78,672.137 1248.5,670.5 Z M 1304.5,671.5 C 1305.25,674.678 1304.09,677.345 1301,679.5C 1300.9,676.325 1302.06,673.659 1304.5,671.5 Z M 1284.5,677.5 C 1285.31,672.628 1286.31,672.461 1287.5,677C 1286.55,677.483 1285.55,677.649 1284.5,677.5 Z M 1295.5,682.5 C 1297.56,682.687 1299.56,683.187 1301.5,684C 1299.12,684.738 1297.12,684.238 1295.5,682.5 Z M 1253.5,685.5 C 1255.95,686.777 1258.28,688.277 1260.5,690C 1258.4,689.968 1256.4,689.301 1254.5,688C 1253.75,687.329 1253.41,686.496 1253.5,685.5 Z M 1254.5,690.5 C 1257.76,692.963 1261.43,694.63 1265.5,695.5C 1260.97,698.064 1256.14,699.731 1251,700.5C 1252.37,697.381 1253.54,694.047 1254.5,690.5 Z M 1267.5,692.5 C 1268.29,692.783 1268.96,693.283 1269.5,694C 1268.18,694.528 1267.52,694.028 1267.5,692.5 Z M 1275.5,693.5 C 1276.29,693.783 1276.96,694.283 1277.5,695C 1276.18,695.528 1275.52,695.028 1275.5,693.5 Z M 1280.5,697.5 C 1286.72,697.248 1289.22,700.248 1288,706.5C 1285.08,710.873 1280.92,712.873 1275.5,712.5C 1272.12,712.324 1268.78,711.824 1265.5,711C 1270.61,710.891 1275.61,710.224 1280.5,709C 1281.98,707.701 1282.65,706.034 1282.5,704C 1282.52,701.558 1281.85,699.392 1280.5,697.5 Z M 1274.5,698.5 C 1280.35,699.463 1281.68,702.297 1278.5,707C 1276.61,707.973 1274.61,708.64 1272.5,709C 1267.58,709.195 1262.75,709.695 1258,710.5C 1253.3,709.154 1250.97,706.154 1251,701.5C 1254.34,701.959 1257.67,702.292 1261,702.5C 1265.4,700.481 1269.9,699.148 1274.5,698.5 Z M 1245.5,706.5 C 1250.98,710.618 1250.82,714.618 1245,718.5C 1244.31,714.446 1244.47,710.446 1245.5,706.5 Z M 1251.5,726.5 C 1247.29,724.785 1246.79,722.452 1250,719.5C 1250.44,721.866 1250.94,724.199 1251.5,726.5 Z"/></g>
<g><path style="opacity:0.838" fill="#042547" d="M 1343.5,668.5 C 1357.41,667.538 1367.58,673.204 1374,685.5C 1376.61,690.133 1375.77,693.967 1371.5,697C 1369.11,697.681 1366.77,698.515 1364.5,699.5C 1364.14,708.356 1365.64,717.023 1369,725.5C 1377.11,728.714 1377.61,733.214 1370.5,739C 1364.44,742.993 1359.27,742.159 1355,736.5C 1353.15,737.169 1351.99,738.503 1351.5,740.5C 1353.03,742.193 1354.36,744.027 1355.5,746C 1360.42,747.161 1365.42,747.827 1370.5,748C 1366.13,748.172 1361.8,748.672 1357.5,749.5C 1358.04,751.535 1358.71,753.535 1359.5,755.5C 1363.38,754.072 1363.38,752.572 1359.5,751C 1362.01,749.078 1363.67,749.744 1364.5,753C 1364.56,754.711 1363.89,756.044 1362.5,757C 1353.87,760.994 1344.87,762.161 1335.5,760.5C 1333.69,760.952 1332.69,762.118 1332.5,764C 1333.11,766.058 1334.11,767.891 1335.5,769.5C 1335.17,769.833 1334.83,770.167 1334.5,770.5C 1332.04,769.071 1329.54,767.738 1327,766.5C 1323.64,768.144 1320.14,768.644 1316.5,768C 1313.63,761.834 1315.13,756.667 1321,752.5C 1319.59,755.629 1318.59,758.962 1318,762.5C 1320.28,764.984 1322.78,765.151 1325.5,763C 1324.03,758.719 1324.36,754.552 1326.5,750.5C 1320.86,745.75 1319.02,739.75 1321,732.5C 1323.25,727.003 1326.25,722.003 1330,717.5C 1332.35,713.805 1333.85,709.805 1334.5,705.5C 1333.56,701.001 1332.56,696.501 1331.5,692C 1324.86,686.112 1324.86,680.112 1331.5,674C 1335.45,671.855 1339.45,670.021 1343.5,668.5 Z M 1352.5,703.5 C 1352.46,702.244 1352.96,701.244 1354,700.5C 1354.58,701.998 1354.08,702.998 1352.5,703.5 Z M 1347.5,701.5 C 1347.14,703.589 1346.48,705.589 1345.5,707.5C 1344.41,704.992 1345.08,702.992 1347.5,701.5 Z M 1342.5,702.5 C 1344.65,702.696 1344.81,703.696 1343,705.5C 1342.52,704.552 1342.35,703.552 1342.5,702.5 Z M 1356.5,704.5 C 1360.05,711.831 1359.55,719.164 1355,726.5C 1355.58,719.08 1356.08,711.747 1356.5,704.5 Z M 1339.5,715.5 C 1340.32,713.188 1341.15,710.854 1342,708.5C 1343.09,711.614 1342.25,713.947 1339.5,715.5 Z M 1344.5,714.5 C 1345.94,716.42 1345.61,718.087 1343.5,719.5C 1342.8,717.808 1343.13,716.142 1344.5,714.5 Z M 1364.5,722.5 C 1367.96,725.9 1367.79,728.9 1364,731.5C 1363.67,733.167 1363.33,734.833 1363,736.5C 1359.85,736.014 1358.01,734.18 1357.5,731C 1360.35,728.645 1362.68,725.812 1364.5,722.5 Z M 1349.5,732.5 C 1350.55,729.317 1351.21,726.317 1351.5,723.5C 1353.22,727.184 1352.55,730.184 1349.5,732.5 Z M 1339.5,725.5 C 1339.26,727.467 1339.59,729.301 1340.5,731C 1339.2,731.804 1338.53,732.971 1338.5,734.5C 1345.65,743.851 1344.32,745.351 1334.5,739C 1330.84,735.51 1330.51,731.677 1333.5,727.5C 1335.41,726.523 1337.41,725.857 1339.5,725.5 Z M 1369.5,729.5 C 1370.83,729.5 1372.17,729.5 1373.5,729.5C 1370.75,738.315 1369.42,738.315 1369.5,729.5 Z M 1324.5,730.5 C 1325.36,736.197 1326.19,741.864 1327,747.5C 1322.15,742.321 1321.31,736.655 1324.5,730.5 Z M 1354.5,732.5 C 1355.77,733.077 1355.77,733.743 1354.5,734.5C 1353.54,734.03 1353.54,733.363 1354.5,732.5 Z M 1333.5,743.5 C 1335.64,744.942 1337.97,746.109 1340.5,747C 1337.62,748.471 1334.62,749.138 1331.5,749C 1332.86,747.416 1333.53,745.582 1333.5,743.5 Z M 1351.5,749.5 C 1355.34,748.514 1356.84,750.181 1356,754.5C 1353.68,757.097 1350.85,757.93 1347.5,757C 1352.35,756.356 1353.69,753.856 1351.5,749.5 Z M 1342.5,749.5 C 1344.86,749.337 1347.19,749.503 1349.5,750C 1350.86,751.938 1350.53,753.604 1348.5,755C 1344.63,755.27 1340.79,755.77 1337,756.5C 1333.88,756.056 1332.05,754.389 1331.5,751.5C 1335.49,751.884 1339.16,751.217 1342.5,749.5 Z M 1327.5,754.5 C 1331.1,756.595 1331.26,758.928 1328,761.5C 1327.13,760.892 1326.63,760.059 1326.5,759C 1327.15,757.56 1327.48,756.06 1327.5,754.5 Z M 1330.5,766.5 C 1328.24,765.762 1328.07,764.762 1330,763.5C 1330.48,764.448 1330.65,765.448 1330.5,766.5 Z"/></g>
<g><path style="opacity:0.949" fill="#042547" d="M 178.5,815.5 C 179.043,815.56 179.376,815.893 179.5,816.5C 175.319,824.095 175.819,831.428 181,838.5C 181.891,844.167 180.891,849.501 178,854.5C 172.841,860.817 168.174,867.484 164,874.5C 161.175,881.391 160.842,888.391 163,895.5C 165.234,897.7 167.734,899.533 170.5,901C 172.422,902.42 173.755,904.253 174.5,906.5C 183.723,903.21 188.723,896.71 189.5,887C 185.354,869.442 190.02,854.775 203.5,843C 210.514,839.325 215.347,833.825 218,826.5C 220.886,832.844 220.552,839.177 217,845.5C 211.224,851.943 206.224,858.943 202,866.5C 200.112,874.856 200.279,883.189 202.5,891.5C 202.458,894.259 201.958,896.925 201,899.5C 195.949,904.274 190.449,908.44 184.5,912C 177.175,917.482 174.509,924.649 176.5,933.5C 175.332,938.502 174.165,943.502 173,948.5C 171.667,949.833 170.333,951.167 169,952.5C 167.09,957.317 164.924,961.984 162.5,966.5C 155.657,961.187 151.49,954.187 150,945.5C 147.578,941.656 144.911,937.99 142,934.5C 139.75,927.422 137.416,920.422 135,913.5C 128.76,907.624 121.594,903.124 113.5,900C 109.942,898.108 107.442,895.275 106,891.5C 105.667,885.167 105.333,878.833 105,872.5C 103.721,867.275 101.388,862.609 98,858.5C 92.3651,853.867 87.0318,848.867 82,843.5C 78.7337,838.262 77.7337,832.595 79,826.5C 80.3999,829.902 82.5665,832.736 85.5,835C 95.7561,839.263 104.256,845.763 111,854.5C 116.154,863.115 118.487,872.448 118,882.5C 118.438,885.376 119.438,888.043 121,890.5C 121.303,886.106 121.97,881.773 123,877.5C 126.913,869.333 131.58,861.667 137,854.5C 137.667,852.167 137.667,849.833 137,847.5C 135,844.167 133,840.833 131,837.5C 128.37,831.439 129.536,826.273 134.5,822C 135.332,821.312 135.998,821.479 136.5,822.5C 135.406,825.364 135.906,828.031 138,830.5C 142.237,834.036 146.737,837.202 151.5,840C 156.555,845.372 157.722,851.539 155,858.5C 151.333,865.167 147.667,871.833 144,878.5C 139.362,890.293 142.528,899.293 153.5,905.5C 152.743,901.922 151.243,898.256 149,894.5C 147.544,886.955 148.877,879.955 153,873.5C 158.723,866.109 164.056,858.443 169,850.5C 169.808,848.577 170.308,846.577 170.5,844.5C 168.711,840.314 167.878,835.981 168,831.5C 169.059,828.382 170.392,825.382 172,822.5C 174.372,820.297 176.539,817.963 178.5,815.5 Z M 126.5,897.5 C 133.414,899.852 140.414,902.019 147.5,904C 151.062,907.058 154.062,910.558 156.5,914.5C 155.692,916.925 154.692,919.258 153.5,921.5C 147.683,916.427 141.683,911.593 135.5,907C 132.296,903.964 129.296,900.797 126.5,897.5 Z M 152.5,945.5 C 154.914,946.406 155.747,948.072 155,950.5C 153.628,949.09 152.795,947.423 152.5,945.5 Z"/></g>
<g><path style="opacity:0.805" fill="#042547" d="M 961.5,947.5 C 965.84,939.489 968.34,930.822 969,921.5C 969.285,926.319 969.451,930.985 969.5,935.5C 968.833,941.063 967.666,946.397 966,951.5C 970.08,945.338 973.08,938.671 975,931.5C 975.167,932.333 975.333,933.167 975.5,934C 974.123,939.297 972.456,944.464 970.5,949.5C 974.448,943.839 976.948,937.506 978,930.5C 976.649,948.868 969.149,964.201 955.5,976.5C 954.745,985.531 950.078,991.365 941.5,994C 929.724,994.193 918.057,994.027 906.5,993.5C 906.657,992.127 906.49,990.793 906,989.5C 892.884,979.145 887.884,965.812 891,949.5C 891.333,950.5 891.667,951.5 892,952.5C 894.522,938.744 897.522,925.078 901,911.5C 899.907,918.578 899.073,925.745 898.5,933C 898.667,935.5 898.833,938 899,940.5C 899.906,937.879 900.406,938.046 900.5,941C 899.149,945.547 899.315,950.047 901,954.5C 901.213,944.75 902.213,935.083 904,925.5C 904.417,922.578 905.417,919.911 907,917.5C 905.616,925.205 904.783,933.039 904.5,941C 904.409,947.62 905.242,954.12 907,960.5C 905.595,946.669 906.595,933.002 910,919.5C 911.526,914.373 912.526,914.373 913,919.5C 913.941,913.843 915.774,908.509 918.5,903.5C 918.833,904 919.167,904.5 919.5,905C 916.326,912.552 914.826,920.386 915,928.5C 915.402,927.128 915.902,925.795 916.5,924.5C 917.002,923.479 917.668,923.312 918.5,924C 917.185,927.724 916.685,931.558 917,935.5C 918.954,929.923 920.621,924.256 922,918.5C 922.778,915.816 924.111,913.483 926,911.5C 922.902,921.567 920.569,931.9 919,942.5C 918.066,951.622 918.733,960.622 921,969.5C 920.495,960.864 920.495,952.198 921,943.5C 921.368,938.696 922.368,934.03 924,929.5C 924.333,931.5 924.667,933.5 925,935.5C 927.388,922.558 929.388,909.558 931,896.5C 931.972,905.6 931.472,914.6 929.5,923.5C 929.667,924.167 929.833,924.833 930,925.5C 932.588,921.245 933.922,916.579 934,911.5C 934.742,917.199 934.575,922.866 933.5,928.5C 933.482,930.373 933.982,930.706 935,929.5C 936.044,927.285 936.71,924.952 937,922.5C 937.101,925.7 937.768,928.7 939,931.5C 940.279,926.679 940.946,921.679 941,916.5C 941.333,918.833 941.667,921.167 942,923.5C 945.508,912.786 947.174,901.786 947,890.5C 948.855,899.106 948.355,907.606 945.5,916C 947.157,921.665 948.323,927.498 949,933.5C 949.405,929.787 949.405,926.121 949,922.5C 950.067,926.901 951.401,931.235 953,935.5C 954.577,928.166 955.077,920.832 954.5,913.5C 954.846,912.304 955.346,912.304 956,913.5C 956.986,925.961 956.153,938.294 953.5,950.5C 953.667,951.167 953.833,951.833 954,952.5C 957.381,943.129 959.381,933.462 960,923.5C 961.186,929.085 961.852,934.751 962,940.5C 963,936.833 964,933.167 965,929.5C 965.167,930.333 965.333,931.167 965.5,932C 964.262,937.21 962.928,942.377 961.5,947.5 Z M 944.5,919.5 C 945.632,925.698 945.465,932.031 944,938.5C 943.793,934.911 943.293,931.411 942.5,928C 943.713,925.313 944.38,922.48 944.5,919.5 Z M 936.5,931.5 C 937.774,935.074 937.607,938.741 936,942.5C 936.11,938.871 936.276,935.204 936.5,931.5 Z M 934.5,933.5 C 933.987,937.553 933.154,941.553 932,945.5C 931.587,941.165 932.42,937.165 934.5,933.5 Z M 928.5,938.5 C 928.219,942.188 927.719,945.855 927,949.5C 926.255,945.552 926.755,941.885 928.5,938.5 Z M 961.5,947.5 C 961.598,949.553 960.931,951.22 959.5,952.5C 959.402,950.447 960.069,948.78 961.5,947.5 Z M 970.5,949.5 C 970.573,951.027 969.906,952.027 968.5,952.5C 968.427,950.973 969.094,949.973 970.5,949.5 Z M 964.5,953.5 C 964.573,955.027 963.906,956.027 962.5,956.5C 962.427,954.973 963.094,953.973 964.5,953.5 Z M 915.5,955.5 C 916.417,960.664 917.75,965.83 919.5,971C 919.167,971.167 918.833,971.333 918.5,971.5C 916.228,966.412 915.228,961.079 915.5,955.5 Z M 962.5,956.5 C 962.573,958.027 961.906,959.027 960.5,959.5C 960.427,957.973 961.094,956.973 962.5,956.5 Z M 893.5,959.5 C 896.339,967.513 900.006,975.18 904.5,982.5C 897.912,976.321 894.245,968.654 893.5,959.5 Z M 960.5,959.5 C 960.573,961.027 959.906,962.027 958.5,962.5C 958.427,960.973 959.094,959.973 960.5,959.5 Z"/></g>
</svg>
