<svg version="1.2" xmlns="http://www.w3.org/2000/svg" viewBox="0 0 1500 1000" width="1620" height="1080">
	<title>5060708_2634580-ai</title>
	<defs>
		<linearGradient id="g1" x2="1" gradientUnits="userSpaceOnUse" gradientTransform="matrix(34.039,-513.993,864.924,57.28,583.816,763.845)">
			<stop offset="0" stop-color="#31d1d6"/>
			<stop offset="1" stop-color="#45a3fa"/>
		</linearGradient>
		<linearGradient id="g2" x2="1" gradientUnits="userSpaceOnUse" gradientTransform="matrix(34.039,-513.993,864.924,57.28,614.13,763.845)">
			<stop offset="0" stop-color="#31d1d6"/>
			<stop offset="1" stop-color="#45a3fa"/>
		</linearGradient>
		<linearGradient id="g3" x2="1" gradientUnits="userSpaceOnUse" gradientTransform="matrix(226.268,0,0,291.715,436.517,455.174)">
			<stop offset="0" stop-color="#31d1d6"/>
			<stop offset="1" stop-color="#45a3fa"/>
		</linearGradient>
		<linearGradient id="g4" x2="1" gradientUnits="userSpaceOnUse" gradientTransform="matrix(-2.179,-111.152,86.232,-1.691,340.82,770.631)">
			<stop offset="0" stop-color="#f9e6d9"/>
			<stop offset="1" stop-color="#ffffff"/>
		</linearGradient>
		<linearGradient id="g5" x2="1" gradientUnits="userSpaceOnUse" gradientTransform="matrix(222.159,-42.966,54.036,279.397,903.758,504.365)">
			<stop offset="0" stop-color="#31d1d6"/>
			<stop offset="1" stop-color="#45a3fa"/>
		</linearGradient>
		<linearGradient id="g6" x2="1" gradientUnits="userSpaceOnUse" gradientTransform="matrix(-2.185,-111.427,93.883,-1.841,858.825,711.974)">
			<stop offset="0" stop-color="#f9e6d9"/>
			<stop offset="1" stop-color="#ffffff"/>
		</linearGradient>
		<linearGradient id="g7" x2="1" gradientUnits="userSpaceOnUse" gradientTransform="matrix(100.456,-25.961,53.654,207.619,486.173,282.309)">
			<stop offset="0" stop-color="#31d1d6"/>
			<stop offset="1" stop-color="#45a3fa"/>
		</linearGradient>
		<linearGradient id="g8" x2="1" gradientUnits="userSpaceOnUse" gradientTransform="matrix(142.474,0,0,159.82,453.481,321.397)">
			<stop offset="0" stop-color="#31d1d6"/>
			<stop offset="1" stop-color="#45a3fa"/>
		</linearGradient>
		<linearGradient id="g9" x2="1" gradientUnits="userSpaceOnUse" gradientTransform="matrix(104.751,0,0,42.593,354.277,96.653)">
			<stop offset="0" stop-color="#51adc6"/>
			<stop offset="1" stop-color="#caeb8a"/>
		</linearGradient>
		<linearGradient id="g10" x2="1" gradientUnits="userSpaceOnUse" gradientTransform="matrix(-16.951,0,0,-18.736,360.102,115.208)">
			<stop offset="0" stop-color="#8aebd6"/>
			<stop offset="1" stop-color="#5193fa"/>
		</linearGradient>
		<linearGradient id="g11" x2="1" gradientUnits="userSpaceOnUse" gradientTransform="matrix(-20.142,0,0,-27.265,363.203,129.616)">
			<stop offset="0" stop-color="#31d1d6"/>
			<stop offset="1" stop-color="#45a3fa"/>
		</linearGradient>
		<linearGradient id="g12" x2="1" gradientUnits="userSpaceOnUse" gradientTransform="matrix(-18.519,0,0,-23.136,363.239,139.246)">
			<stop offset="0" stop-color="#8aebd6"/>
			<stop offset="1" stop-color="#5193fa"/>
		</linearGradient>
		<linearGradient id="g13" x2="1" gradientUnits="userSpaceOnUse" gradientTransform="matrix(61.599,0,0,12.749,459.028,110.556)">
			<stop offset="0" stop-color="#31d1d6"/>
			<stop offset="1" stop-color="#45a3fa"/>
		</linearGradient>
		<linearGradient id="g14" x2="1" gradientUnits="userSpaceOnUse" gradientTransform="matrix(29.375,0,0,38.406,432.087,116.996)">
			<stop offset="0" stop-color="#f7be86"/>
			<stop offset="1" stop-color="#f79244"/>
		</linearGradient>
		<linearGradient id="g15" x2="1" gradientUnits="userSpaceOnUse" gradientTransform="matrix(-1.031,37.455,-41.875,-1.153,611.353,158.536)">
			<stop offset="0" stop-color="#7b6ed6"/>
			<stop offset="1" stop-color="#333ea8"/>
		</linearGradient>
		<linearGradient id="g16" x2="1" gradientUnits="userSpaceOnUse" gradientTransform="matrix(-2.74,86.643,-125.535,-3.969,661.787,157.488)">
			<stop offset="0" stop-color="#7b6ed6"/>
			<stop offset="1" stop-color="#333ea8"/>
		</linearGradient>
		<linearGradient id="g17" x2="1" gradientUnits="userSpaceOnUse" gradientTransform="matrix(-1.009,36.66,-60.238,-1.658,660.953,159.274)">
			<stop offset="0" stop-color="#7b6ed6"/>
			<stop offset="1" stop-color="#333ea8"/>
		</linearGradient>
		<linearGradient id="g18" x2="1" gradientUnits="userSpaceOnUse" gradientTransform="matrix(236.009,0,0,178.607,442.005,145.088)">
			<stop offset="0" stop-color="#7b6ed6"/>
			<stop offset="1" stop-color="#333ea8"/>
		</linearGradient>
		<linearGradient id="g19" x2="1" gradientUnits="userSpaceOnUse" gradientTransform="matrix(42.708,0,0,50.274,544.188,109.619)">
			<stop offset="0" stop-color="#f7be86"/>
			<stop offset="1" stop-color="#f79244"/>
		</linearGradient>
		<linearGradient id="g20" x2="1" gradientUnits="userSpaceOnUse" gradientTransform="matrix(111.026,0,0,106.824,566.988,164.203)">
			<stop offset="0" stop-color="#3c0887"/>
			<stop offset="1" stop-color="#822a8a"/>
		</linearGradient>
		<linearGradient id="g21" x2="1" gradientUnits="userSpaceOnUse" gradientTransform="matrix(56.118,0,0,74.402,593.28,106.661)">
			<stop offset="0" stop-color="#f7be86"/>
			<stop offset="1" stop-color="#f79244"/>
		</linearGradient>
		<linearGradient id="g22" x2="1" gradientUnits="userSpaceOnUse" gradientTransform="matrix(2.221,-153.278,789.258,11.439,798.768,908.41)">
			<stop offset="0" stop-color="#8aebd6"/>
			<stop offset="1" stop-color="#5193fa"/>
		</linearGradient>
		<linearGradient id="g23" x2="1" gradientUnits="userSpaceOnUse" gradientTransform="matrix(0,-131.056,460.744,0,1157.922,894.225)">
			<stop offset="0" stop-color="#8aebd6"/>
			<stop offset="1" stop-color="#5193fa"/>
		</linearGradient>
		<linearGradient id="g24" x2="1" gradientUnits="userSpaceOnUse" gradientTransform="matrix(0,-131.056,529.611,0,513.561,894.225)">
			<stop offset="0" stop-color="#8aebd6"/>
			<stop offset="1" stop-color="#5193fa"/>
		</linearGradient>
		<linearGradient id="g25" x2="1" gradientUnits="userSpaceOnUse" gradientTransform="matrix(206.438,42.192,-46.195,226.022,727.693,518.678)">
			<stop offset="0" stop-color="#31d1d6"/>
			<stop offset="1" stop-color="#45a3fa"/>
		</linearGradient>
		<linearGradient id="g26" x2="1" gradientUnits="userSpaceOnUse" gradientTransform="matrix(-2.183,-111.331,114.129,-2.238,675.986,763.75)">
			<stop offset="0" stop-color="#f9e6d9"/>
			<stop offset="1" stop-color="#ffffff"/>
		</linearGradient>
		<linearGradient id="g27" x2="1" gradientUnits="userSpaceOnUse" gradientTransform="matrix(85.402,0,0,184.9,883.62,398.12)">
			<stop offset="0" stop-color="#7b6ed6"/>
			<stop offset="1" stop-color="#333ea8"/>
		</linearGradient>
	</defs>
	<style>
		.s0 { fill: #155769 } 
		.s1 { opacity: .4;fill: url(#g1) } 
		.s2 { opacity: .4;fill: url(#g2) } 
		.s3 { fill: url(#g3) } 
		.s4 { fill: url(#g4) } 
		.s5 { fill: url(#g5) } 
		.s6 { fill: url(#g6) } 
		.s7 { fill: url(#g7) } 
		.s8 { fill: #111023 } 
		.s9 { fill: url(#g8) } 
		.s10 { fill: url(#g9) } 
		.s11 { fill: url(#g10) } 
		.s12 { fill: url(#g11) } 
		.s13 { fill: url(#g12) } 
		.s14 { fill: url(#g13) } 
		.s15 { fill: url(#g14) } 
		.s16 { fill: #5b2b89 } 
		.s17 { fill: url(#g15) } 
		.s18 { fill: url(#g16) } 
		.s19 { fill: url(#g17) } 
		.s20 { fill: url(#g18) } 
		.s21 { fill: url(#g19) } 
		.s22 { opacity: .4;mix-blend-mode: overlay;fill: url(#g20) } 
		.s23 { fill: url(#g21) } 
		.s24 { fill: #f79244 } 
		.s25 { fill: #ffffff } 
		.s26 { opacity: .5;mix-blend-mode: multiply;fill: url(#g22) } 
		.s27 { fill: url(#g23) } 
		.s28 { fill: url(#g24) } 
		.s29 { fill: #e9fdff } 
		.s30 { fill: url(#g25) } 
		.s31 { fill: url(#g26) } 
		.s32 { fill: #2a2a2a } 
		.s33 { fill: url(#g27) } 
	</style>
	<g id="BACKGROUND">
		<path id="&lt;Path&gt;" class="s0" d="m1500 1000h-1500v-1000h1500z"/>
	</g>
	<g id="OBJECTS">
		<g id="&lt;Group&gt;">
			<path id="&lt;Path&gt;" class="s1" d="m408.3 746.9h-102.9c-27.6-28.6-35-74.2-18.5-110.4 15.7-34.5 49.4-57.2 69.8-89.1 43.5-68.1 22.5-169.5 81.7-224.6 29.5-27.5 72.1-35.4 112.4-38.7 40.2-3.2 81.8-3.1 119.1-18.7 45.9-19.3 80.5-60.8 127.8-76.4 53.2-17.6 116.7 4.3 147.7 50.9 19.5 29.1 26.8 65.7 49.8 92.1 37.1 42.7 102.5 46 148.9 78.5 31.7 22.3 53.2 58.8 57.3 97.4 4.9 46.6-12.8 99.5 15.2 137.1 13.6 18.4 35.7 28.7 50.4 46.2 14.6 17.5 18.7 33.4 14.1 55.7z"/>
			<path id="&lt;Path&gt;" class="s2" d="m438.6 746.9h-102.9c-27.6-28.6-35-74.2-18.5-110.4 15.7-34.5 49.4-57.2 69.8-89.1 43.5-68.1 22.5-169.5 81.7-224.6 29.6-27.5 72.1-35.4 112.4-38.7 40.2-3.2 81.9-3.1 119.1-18.7 45.9-19.3 80.5-60.8 127.9-76.4 53.1-17.6 116.6 4.3 147.7 50.9 19.4 29.1 26.7 65.7 49.7 92.1 37.1 42.7 102.6 46 148.9 78.5 31.7 22.3 53.2 58.8 57.3 97.4 4.9 46.6-12.8 99.5 15.2 137.1 13.6 18.4 35.7 28.7 50.4 46.2 14.6 17.5 18.7 33.4 14.1 55.7z"/>
		</g>
		<g id="&lt;Group&gt;">
			<path id="&lt;Compound Path&gt;" fill-rule="evenodd" class="s3" d="m662.8 690.4h-32.1v56.5h-77.9v-56.5h-116.3v-57.8l121.3-177.4h72.9v176.4h32.1zm-110-58.9v-33.9q0-9.6 0.7-25.9 0.7-16.2 1.1-17h-2.2q-6.7 15.3-15.3 28.7l-32.3 48.1z"/>
			<path id="&lt;Compound Path&gt;" fill-rule="evenodd" class="s4" d="m641.5 690.4h-32.1v56.5h-77.8v-56.5h-116.3v-57.8l121.3-177.4h72.8v176.4h32.1zm-109.9-58.9v-33.9q0-9.6 0.7-25.8 0.7-16.3 1.1-17.1h-2.2q-6.8 15.4-15.4 28.7l-32.3 48.1z"/>
		</g>
		<g id="&lt;Group&gt;">
			<path id="&lt;Compound Path&gt;" fill-rule="evenodd" class="s5" d="m1149.7 696.4l-10.7 2.1 9.4 48.4h-79.3l-6.5-33.7-114.2 22.1-11-56.8 85.5-197.2 71.5-13.8 33.5 173.2 10.6-2.1 20.9-4 11.2 57.8zm-98.3-41l-6.4-33.3q-1.8-9.4-4.2-25.5-2.4-16.1-2.2-16.9l-2.2 0.4q-3.7 16.3-9.6 31.1l-3.8 9-18.8 44.3 26.4-5z"/>
			<path id="&lt;Compound Path&gt;" fill-rule="evenodd" class="s6" d="m1127 650.5l-20.8 4 8.6 44.4h-79.3l-5.7-29.6-93.4 18-20.8 4.1-11-56.8 85.4-197.2 20.9-4.1 50.6-9.7 33.5 173.1 31.5-6.1 11.2 57.8zm-119.1-97.8q-2.4-16-2.1-16.9l-2.2 0.4q-3.7 16.4-9.6 31.1l-22.6 53.4 47.2-9.2-6.5-33.3q-0.5-2.7-1.1-5.9-1.4-8.1-3.1-19.6z"/>
		</g>
		<g id="&lt;Group&gt;">
			<g id="&lt;Group&gt;">
				<path id="&lt;Path&gt;" class="s7" d="m673.6 598.9h-47.5l-30.1-220.9c0 0-43.7-47.7-93.7-56.6l47.7-5.1 107.4 2.9z"/>
				<path id="&lt;Path&gt;" class="s8" d="m486.1 477.5c0 0-27 39.5-15 73.4l50.3-73.4-6.6-8.8z"/>
				<path id="&lt;Path&gt;" class="s8" d="m626.1 598.9l-1.6 10.2c0 0-14.3 2-15.1 22.5h37.2l20.3-19.8 1.8-12.9z"/>
				<path id="&lt;Path&gt;" class="s9" d="m568.7 377.8l-59.6-2.2 9.7 91.2-40.4 14.4-23.2-112.6c-6.8-21 7.4-42.9 29.3-45.3l17.8-1.9c50 8.9 93.7 56.6 93.7 56.6z"/>
			</g>
			<g id="&lt;Group&gt;">
				<path id="&lt;Path&gt;" class="s10" d="m459 123.3v2.7l-3.2 0.4c-0.8-1.8-1.7-3.2-2.6-4-4.3-3.7-7.3-6.7-10.4-4.9-2.3 1.4-2.1 7.8-1.9 10.8l-8.8 1.1-77.8 9.8v-0.1c5-1.2 8.9-10.2 8.9-21.2 0-10.9-3.8-19.8-8.7-21.2l104.5 11.7v2.2z"/>
				<path id="&lt;Path&gt;" class="s11" d="m360.1 102.4q-0.3 0.4-0.6 0.9c-1.1 2.2-1.6 4.7-3 6.7-1 1.4-2.5 2.6-4.2 3.2-1.7 0.7-3.6 0.8-5.5 1.1-1.2 0.1-2.5 0.4-3.6 0.9 0.5-10.4 4.6-18.5 9.7-18.7l1.6 0.2c2.2 0.6 4.1 2.6 5.6 5.7z"/>
				<path id="&lt;Path&gt;" class="s12" d="m363.2 116.1q0 0.1-0.1 0.1c-1.3 1.7-1.9 3.9-3.1 5.6-1.4 2.1-3.6 3.6-6 4.2-2.3 0.5-4.7 0.2-6.8 1.3-1 0.5-1.8 1.3-2.5 2.3-1-3.4-1.6-7.4-1.6-11.7q0-1.4 0.1-2.7c1.1-0.5 2.4-0.8 3.6-0.9 1.9-0.3 3.8-0.4 5.5-1.1 1.7-0.6 3.2-1.8 4.2-3.2 1.4-2 1.9-4.5 3-6.7q0.3-0.5 0.6-0.9c1.8 3.5 2.9 8.3 3.1 13.7z"/>
				<path id="&lt;Path&gt;" class="s13" d="m363.2 117.9c0 11-3.9 20-8.9 21.2q-0.6 0.1-1.2 0.1c-3.5 0-6.6-3.8-8.4-9.6 0.7-1 1.5-1.8 2.5-2.3 2.1-1.1 4.5-0.8 6.8-1.3 2.4-0.6 4.6-2.1 6-4.2 1.2-1.7 1.8-3.9 3.1-5.6q0.1 0 0.1-0.1 0 0.9 0 1.8z"/>
				<path id="&lt;Path&gt;" class="s8" d="m520.6 112.6h31.5c-3.3 1.3-6.1 2.8-7.4 4-1 1-0.5 2.6 0.7 4.8h-24.8z"/>
				<path id="&lt;Path&gt;" class="s8" d="m590.3 117.9v3.5h-17c-1.7-3.8-2.9-7-3.3-8.8h20.3z"/>
				<path id="&lt;Path&gt;" class="s14" d="m520.6 121.4v1.9h-61.6v-12.7h61.6v2z"/>
				<path id="&lt;Path&gt;" class="s15" d="m461.5 145.1l-13.6 10.3c0 0-16.5-17.3-15.8-26l8.8-1.1c-0.2-3-0.4-9.4 1.9-10.8 3.1-1.8 6.1 1.2 10.4 4.9 0.9 0.8 1.8 2.2 2.6 4 3.2 6.8 5.7 18.7 5.7 18.7z"/>
				<path id="&lt;Path&gt;" class="s16" d="m370.2 96.7c-0.9-2-3.8-0.3-2.9 1.7 5.6 12.2 4.8 25.6-1.8 37.2-1.1 1.9 1.8 3.6 2.9 1.7 7.3-12.6 7.9-27.3 1.8-40.6z"/>
			</g>
			<g id="&lt;Group&gt;">
				<path id="&lt;Path&gt;" class="s17" d="m611.7 158.7v10.5l-12.5-11.9z"/>
				<path id="&lt;Path&gt;" class="s18" d="m611.7 169.2l12.6 11.9 12.1 11.3c0 0 27.5-19.3 38.2-19.4q1.1-0.1 2.2 0.1c9.4 1.3 15.2 12.3 13.5 22.7-1.8 11.3-1.4 23.8-12.3 25.8-10.8 2-58.7 13.6-58.7 13.6l-52.3-71 6.2-4.3 13.7-9.6 2.8-2 6 5.7 3.5 3.3z"/>
				<path id="&lt;Path&gt;" class="s19" d="m645.5 160.9l31.3 12.2q-1.1-0.2-2.2-0.1c-10.7 0.1-38.2 19.4-38.2 19.4l-12.1-11.3z"/>
				<path id="&lt;Path&gt;" class="s20" d="m678 221.6l-18.1 49.4-2.5 48.2c0 0-2.1 0.4-5.8 0.9-17.3 2.4-69.2 8.4-101.6-3.8l12.6-59.9-5.8-47.1-70.5 7.8-44.3-57.2 5.9-4.5 13.6-10.3 41.8 40.8 65.4-28.6c2.4 1.7 4.5 2.6 4.5 2.6l-6.2 4.3 52.3 71c0 0 47.9-11.6 58.7-13.6z"/>
				<path id="&lt;Path&gt;" class="s21" d="m586.9 150.3l-13.7 9.6c0 0-2.1-0.9-4.5-2.6-3.1-2.2-6.7-5.8-7.2-11-0.6-6.9-12.3-18.2-16.1-24.9-1.2-2.2-1.7-3.8-0.7-4.8 1.3-1.2 4.1-2.7 7.4-4 7.2-2.9 16.9-4.8 17.8-0.3q0 0.1 0.1 0.3c0.4 1.8 1.6 5 3.3 8.8 5 11.6 13.6 28.9 13.6 28.9z"/>
				<path id="&lt;Path&gt;" class="s22" d="m659.9 271c-80.1-17-92.9-106.8-92.9-106.8l52.3 71.1 58.7-13.7z"/>
			</g>
			<g id="&lt;Group&gt;">
				<path id="&lt;Path&gt;" class="s23" d="m645.1 117.2c1.7-0.4 3.4-0.1 4.1 2.6 1.5 6.2-5.4 13.6-5.4 13.6l1.7 27.5-21.2 20.2 8.3-23.8-20.9 1.4-12.5-1.4-3.5-3.3c0 0-2.4-22.7-2.4-36.1 0-3.1 0.1-5.7 0.4-7.3l0.1-0.7c14.7 2.5 35-3.2 35-3.2 0 0 2.9 27.7 6.7 28.2 3.9 0.5 5.2-15.1 5.2-15.1 0 0 2.2-2 4.4-2.6z"/>
				<path id="&lt;Path&gt;" class="s8" d="m645.2 97.1l-0.1 20.1c-2.2 0.6-4.4 2.6-4.4 2.6 0 0-1.3 15.6-5.2 15.1-3.8-0.5-6.7-28.2-6.7-28.2 0 0-20.3 5.7-35 3.2-4.6-0.8-8.6-2.4-11.2-5.2-11.2-11.8-7.4-18.5 8.7-14.8 16 3.6 49.3-15.7 53.9 7.2z"/>
				<path id="&lt;Path&gt;" class="s24" d="m632.6 157.3l-8.3 23.8-12.6-11.9v-10.5z"/>
				<path id="&lt;Path&gt;" class="s8" d="m592.4 113.6c3.3-1.7 6.6-1.8 10-0.6 2.1 0.7 0.5 3.8-1.5 3-2.2-0.7-4.6-0.6-6.6 0.4-1.9 1-3.8-1.8-1.9-2.8z"/>
				<path id="&lt;Path&gt;" class="s8" d="m626 121.5c0.1 2.1-0.9 3.7-2.3 3.8-1.3 0.1-2.5-1.5-2.6-3.5-0.1-2 0.9-3.7 2.3-3.8 1.3 0 2.5 1.5 2.6 3.5z"/>
				<path id="&lt;Path&gt;" class="s8" d="m627.8 112.7c-3.3-1.2-6.7-1.1-9.9 0.5-2 1-0.1 3.8 1.8 2.9 2.1-1 4.5-1.1 6.6-0.3 2 0.8 3.6-2.3 1.5-3.1z"/>
				<path id="&lt;Path&gt;" class="s24" d="m604.1 133c1.1-5.2 3.8-10.5 5.6-15.4 0.4-1.1 1.9-0.3 1.5 0.7q-1.7 4.7-3.4 9.4c-0.4 1.1-1.4 2.9-1.5 4.1-0.3 3.9 1.4 3.5 3.5 4.5 1 0.5 0.2 2-0.8 1.5-2.5-1.1-5.6-1.3-4.9-4.8z"/>
				<path id="&lt;Path&gt;" class="s8" d="m602.2 122.1c-1.6-1.3-3.4-2.1-5.4-2.4-1.3-0.2-1.8 1.8-0.5 1.9q1.5 0.2 2.9 0.9-1.6 0.5-3.2 1.1c-1.2 0.3-0.7 2.3 0.5 1.9q2.6-0.9 5.3-1.7c0.6-0.2 1-1.2 0.4-1.7z"/>
				<path id="&lt;Path&gt;" class="s25" d="m614.9 148.2c0 3.6-2 6.4-4.4 6.4-2.5 0-4.5-2.8-4.5-6.4 0-3.5 2-6.4 4.5-6.4 2.4 0 4.4 2.9 4.4 6.4z"/>
			</g>
		</g>
		<g id="&lt;Group&gt;">
			<path id="&lt;Path&gt;" class="s26" d="m1223.5 746.9h-802.5c0 0-43.2 28.7 21 33.5 64.2 4.9 164.3 9.5 161.9 31.3-2.5 21.9-60.5 17.5-60.5 56.1 0 38.6 267.4 29.7 267.4 29.7 0 0 151.1 1.9 172.6-23.6 21.5-25.5-60.9-48.9-46-59 15-10 123.6 20.2 139.8-4.3 16.1-24.4-3.3-39.9 26.6-43.1 29.8-3.3 114.7 8.4 119.7-20.6z"/>
			<path id="&lt;Path&gt;" class="s27" d="m1223.5 797.7c0 9.5-27.2 17.2-60.7 17.2-33.5 0-60.6-7.7-60.6-17.2 0-9.5 27.1-17.3 60.6-17.3 33.5 0 60.7 7.8 60.7 17.3z"/>
			<path id="&lt;Path&gt;" class="s28" d="m569.8 812.6c0 7.3-23.7 13.1-53 13.1-29.3 0-53-5.8-53-13.1 0-7.2 23.7-13.1 53-13.1 29.3 0 53 5.9 53 13.1z"/>
			<path id="&lt;Path&gt;" class="s29" d="m881 863.8c0 6.4-26.9 11.5-60.2 11.5-33.3 0-60.2-5.1-60.2-11.5 0-6.5 26.9-11.6 60.2-11.6 33.3 0 60.2 5.1 60.2 11.6z"/>
		</g>
		<g id="&lt;Group&gt;">
			<g id="&lt;Group&gt;">
				<path id="&lt;Compound Path&gt;" class="s30" d="m900.5 592.6q-18.6-42.4-69.6-52.8-5.5-1.2-10.8-1.8-45-5.7-74.3 21.5-32.6 30.3-48.2 106.6-9.6 46.7-5.4 80.8h74.4q-1.4-19.9 7.8-65.1 10-48.9 19.8-66 5.7-10 12.9-13.2 5.2-2.3 11.2-1.1 14.3 3 16.4 23.3 2.2 20.3-7.5 67.8-7.3 35.6-14.6 54.3h81.4q5.7-17.6 10-38.6 2.9-14 4.5-26.8 7-54.6-8-88.9z"/>
				<path id="&lt;Compound Path&gt;" class="s31" d="m879.6 588.3q-16.6-38-59.5-50.3-4.9-1.4-10-2.5-52.4-10.7-85.1 19.7-32.7 30.4-48.3 106.6-3.1 15.6-4.8 29.7-3.6 31.1 0.1 55.4h74.2q-0.1-0.7-0.2-1.5-2.3-19.4 7.6-67.9 10-48.8 19.8-66 9.8-17.1 24.1-14.2 5.8 1.2 9.6 5.3c3.7 4 5.9 9.9 6.8 17.9q2.2 20.3-7.5 67.8-8.2 39.9-16.4 58.6h81.8q6.5-19.2 11.4-42.9 15-73.3-3.6-115.7z"/>
			</g>
			<g id="&lt;Group&gt;">
				<path id="&lt;Path&gt;" class="s32" d="m936.4 397.7l-0.5 0.4-52.3 40.7-32.6 25.4-27.2 75.1-7.5-2.7 28-77.3 87.2-67.9z"/>
			</g>
			<path id="&lt;Path&gt;" class="s33" d="m961.4 566.4c-5.9 7.1-14 11.9-22 16.6l-0.5-0.9c3.1-4 6.5-8.8 5.5-13.8-0.6-3.4-3.2-6.1-5.7-8.4-4.4-3.9-9.3-7.1-13.5-11.2-4.2-4.1-7.7-9.2-8.4-14.9-0.9-7.6 3.2-14.8 4.8-22.3 0.7-3 0.9-6.2-0.3-9-2.7-6.4-10.8-7.8-17.2-10.4-5.7-2.3-11.1-6.6-12.7-12.6-2.4-8.7 3.8-17.6 3-26.5-0.6-6.2-5-11.8-10.8-14.2l52.3-40.7c8.8 7.7 16.5 17.9 16.6 29.5 0 7.4-3 14.4-5.1 21.4-0.8 2.8-1.5 5.8-1 8.7 0.8 4.4 4.3 7.8 7.6 10.9 6.7 6.5 13.5 14.4 13.4 23.7-0.1 10.5-9.1 19.8-7.5 30.2 1 6.6 6.1 11.9 8.1 18.2 2.8 8.8-0.6 18.7-6.6 25.7z"/>
		</g>
	</g>
	<g id="DESIGNED BY FREEPIK">
		<g id="&lt;Group&gt;">
			<g id="&lt;Group&gt;">
				<g id="&lt;Group&gt;">
				</g>
			</g>
			<g id="&lt;Group&gt;">
			</g>
		</g>
	</g>
</svg>