<svg version="1.2" xmlns="http://www.w3.org/2000/svg" viewBox="0 0 741 518" width="1920" height="1342">
	<title>NewPage</title>
	<defs>
		<clipPath clipPathUnits="userSpaceOnUse" id="cp1">
			<path d="m0 0h741v518h-741z"/>
		</clipPath>
	</defs>
	<style>
		.s0 { fill: #1a4a7a } 
	</style>
	<g id="Page 1" clip-path="url(#cp1)">
		<path id="Layer8" class="s0" d="m238.3 377.5c-1.9-1.6-2.7-4-3.3-6.3-2.2-7.9-3.6-16-4.2-24.1-0.3-4.8-0.4-9.7 1.6-14.1 0.3-0.7 0.7-1.4 1.4-1.8 0.6-0.3 1.6-0.3 2 0.4 0.3 0.5 0.1 1.2-0.1 1.8-1.3 4.2-2.6 8.5-2.5 12.9 0.1 2.7 0.6 5.4 1.2 8 1.3 6.6 2.7 13.3 5.7 19.4 0.3 0.6 0.7 1.3 0.6 2 0 0.7-0.5 1.4-2.4 1.8zm-0.8 0.2c-2.8-3.5-4.5-7.9-6.1-12.2-3.3-8.7-6.6-17.5-7.6-26.8-0.7-7.1-0.1-14.2 0.2-21.3 0.1-1.6 0-3.5-1.3-4.5-0.5-0.4-1.1-0.6-1.6-1-0.5-0.4-0.8-1.2-0.3-1.6 0.3-0.3 0.8-0.3 1.2-0.3 1.1 0.1 2.2 0.2 3.1 0.8 1 0.7 1.6 1.9 2 3.1 2.1 6.4 1.4 13.2 1.4 19.9-0.1 12.9 2.2 26.3 9.6 36.8 0.8 1.1 1.5 2.1 1.9 3.3 0.4 1.2 0.2 2.7-2.5 3.8zm1.1-2.7c-1.9-4.8-2.5-10-2.9-15.2-0.2-2.7-0.4-5.5-0.2-8.2 0.3-6.4 2-12.7 0.9-19-0.5-2.7-1.4-5.3-1.8-8.1-0.4-2.7 0-5.7 1.8-7.8 0.6-0.7 1.8-1.2 2.4-0.5 0.3 0.4 0.2 1.1 0.1 1.6-0.5 2.6-0.8 5.1-0.8 7.7 0 5.7 1.7 11.3 2.4 17 0.6 4.4 0.7 8.9 0.2 13.3-0.6 5.4-2 11.2 0.3 16.1 0.2 0.5 0.4 0.9 0.4 1.4 0.2 1.4-1.2 2.4-2.8 1.7zm6.6 2c-1-2.3-0.9-4.9-1.1-7.5-0.2-4-1-8-1.5-12-1.2-9.9-0.1-20 1-29.9 0.3-2.6 0.8-5.5 2.9-7.1 0.5-0.4 1.1-0.6 1.8-0.5 1.1 0.1 1.7 1.3 2.1 2.4-1.6 0.4-2.5 2.1-2.9 3.7-0.9 2.9-1.1 5.9-1.2 8.9q-0.3 10.4 0.5 20.8c0.1 2.1 0.3 4.2 0.7 6.3 0.4 2 1.1 3.9 1.3 6 0.2 1.6 0.1 3.3 0.1 4.9-0.1 0.7-0.1 1.4-0.5 2-0.4 0.5-1.3 0.7-3.2 2zm-0.9-0.8c-1.2-4.7-1.1-9.6-0.2-14.3 0.8-4.8 2.3-9.4 3.9-13.9 2.2-6.9 4.6-13.9 8.7-19.8 1.3-1.8 2.8-3.9 2.3-6-0.1-0.6-0.3-1.1-0.1-1.6 0.4-0.8 1.5-0.8 2.4-0.6 0.8 2.8 0.1 5.9-1.2 8.6-1.2 2.7-2.9 5.1-4.3 7.7-0.9 1.8-1.7 3.7-2.5 5.6-2.9 7.1-5.9 14.4-6.3 22.1-0.2 3.4 0.1 6.7 0.1 10 0 0.7 0 1.4-0.3 2.1-0.2 0.6-0.9 1.1-2.5 0.1zm-6.1-5c-1.7-7-1.4-14.5 0.9-21.3 0.9-2.7 2.1-5.3 3.1-8 1.8-4.5 3.2-9.2 4.5-13.8 1.6-5.7 3.3-11.7 1.9-16.9 0.2-0.6 0.4-1.2 0.8-1.5 0.5-0.4 1.3-0.3 1.7 0.7 1.2 9.3 0.1 18.8-3 27.6-3 8.6-8.1 16.9-7.8 26 0.1 1.8 0.4 3.7 1.2 5.3 0.7 1.5 1.8 2.8 2.9 4q-2.2 1.1-4.4 2.3c-0.2 0.1-0.5 0.3-0.7 0.2-0.2-0.1-0.4-0.3-0.5-0.5-0.3-0.5 0.2-1.2-0.6-4.1zm8 2c-1.4-3.9-5.9-5.6-8.9-8.5-1.3-1.2-2.4-2.7-3.3-4.3-3.6-6-4.9-13.2-4.2-20.2 0.5-5.5 2.2-10.7 3.4-16 0.7-3.1 1.3-6.2 1.2-9.3 0-5.6-1.9-11.2-4.8-15.3 0.3-0.5 0.6-1.1 1.1-1.3 0.6-0.3 1.4-0.1 1.6 0.9 4.5 4.8 7 11.5 6.8 18.1-0.2 5.5-2.2 10.8-3.9 16-1.7 5.3-3.1 10.9-2.2 16.3 0.5 3.2 1.8 6.2 3.4 9.1 1.3 2.4 2.9 4.9 5.3 6.3 1.5 0.9 3.4 1.4 4.7 2.7 0.8 0.9 1.3 2 1.7 3.2 0.2 0.5 0.3 1.1 0.2 1.7-0.1 0.6-0.7 1.1-2.1 0.6zm-5.9 1.4c-1.6-2.5-1.5-5.7-1.2-8.7 0.8-6.7 2.7-13.3 5.5-19.5 2.6-5.7 6.1-11 8.6-16.8 2.6-5.7 4.4-12.1 3.6-18.5 1-0.3 2.1 0.1 3.1 0.5 0.4 0.1 0.8 0.4 0.8 1.1-0.5 8.8-2.9 17.4-7 25.2-1.8 3.5-4 6.9-5.4 10.6-1.4 3.5-2 7.3-2.6 11-0.3 2.1-0.6 4.2-0.5 6.3 0.2 2.3 1 4.6 2.6 6.2-2.1 0.6-4.2 1.4-7.5 2.6zm-2.5-5.7c-2.6-3.8-3.2-8.6-2.6-13.1 0.6-4.5 2.2-8.8 3.8-13 1.6-4.3 3.1-8.6 3.5-13.1 0.6-5.8-0.8-11.6-2.4-17.2 0.2-0.1 0.5-0.3 1.1-0.1q1-0.2 2-0.5c1.4 3.6 1.7 7.5 1.8 11.4 0.4 11-0.6 22.1-2.8 32.9-0.7 3.1-1.5 6.3-1 9.4 0.4 2.7 1.7 5.1 2.7 7.6 0.1 0.3 0.2 0.6 0.1 0.9-0.1 0.2-0.3 0.3-0.5 0.4q-2 1.1-4.2 1.7c-0.6-3-0.6-6.1-1.5-7.3z"/>
	</g>
</svg>