<svg version="1.2" xmlns="http://www.w3.org/2000/svg" viewBox="0 0 741 518" width="1920" height="1342">
	<title>NewPage</title>
	<defs>
		<clipPath clipPathUnits="userSpaceOnUse" id="cp1">
			<path d="m0 0h741v518h-741z"/>
		</clipPath>
	</defs>
	<style>
		.s0 { fill: #52a6d8 } 
	</style>
	<g id="Page 1" clip-path="url(#cp1)">
		<path id="Layer16" class="s0" d="m537.6 261c-0.8-0.7-1.9-1-2.9-1.3-1.8-0.5-3.7-0.9-5.3 0-0.6 0.4-1.1 0.9-1.7 1.2-0.8 0.4-1.8 0.6-2.3 1.3-0.2 0.4-0.2 0.8-0.3 1.2-0.1 0.8-0.2 1.6 0.2 2.3 0.2 0.5 0.6 0.9 0.8 1.4 0.1 0.3 0.1 0.6 0.2 0.9 0.2 0.5 0.8 1 1.4 1 0.2 0 0.5 0 0.6 0.1 0.2 0.1 0.4 0.3 0.5 0.5 0.3 0.2 0.7 0.4 1 0.3 0.2 0 0.3-0.1 0.4 0 0.4 0 0.4 0.6 0.7 0.8 0.1 0.1 0.3 0.1 0.4 0.2 0.3 0.1 0.3 0.4 0.4 0.6 0.2 0.5 0.7 0.7 1.2 0.5 0.1-0.1 0.3-0.3 0.6-0.2 0.1 0 0.2 0.3 0.4 0.3 0.1 0 0.2-0.1 0.3-0.1 0.3 0 0.3 0.5 0.6 0.7 0.3 0.3 0.7 0.1 1.1 0 0.4 0 0.8 0.3 1.2 0.4 0.6 0.1 1.2 0 1.6-0.3q0.1-0.1 0.3-0.2 0.1-0.1 0.3-0.2c1-0.5 1.5-1.7 1.5-2.9 0-0.6-0.2-1.3-0.3-2q-0.4-1.5-0.7-3c-0.1-0.3-0.2-0.7-0.3-1-0.2-0.2-0.4-0.5-0.6-0.7-0.5-0.5-1-0.9-1.3-1.8zm-6.1 7.9c0.3 0.5 0.3 1.2 0.1 1.7-0.2 0.5-0.6 0.9-0.9 1.4-0.3 0.4-0.4 1-0.2 1.5 0.1 0.2 0.3 0.4 0.4 0.6 0.1 0.5-0.3 1-0.1 1.5 0.1 0 0.1 0.1 0.2 0q0 0 0-0.1c0-0.2 0-0.4 0.1-0.6 0-0.3 0.1-0.5 0.3-0.6q0.2-0.1 0.4-0.1c0.4-0.1 0.7-0.6 0.7-1.1 0.1-0.4 0-0.9-0.2-1.4-0.1-0.4-0.1-0.9 0-1.3 0-0.3 0.2-0.5 0.1-0.7q-0.1-0.2-0.2-0.3c-0.2-0.2-0.4-0.3-0.7-0.5zm-0.1 3.1c-0.7 0.2-1.5 0.5-2 1-0.5 0.6-0.6 1.5-0.1 2 0.4 0.4 1 0.5 1.1 1 0.1 0.2 0 0.4 0.1 0.6 0.1 0.3 0.5 0.3 0.7 0.5 0.3 0.2 0.4 0.6 0.4 0.9 0 0.3-0.1 0.7-0.2 1q-0.2 0.5-0.4 1.1c0.5-0.4 1-1 1.3-1.6 0.2-0.3 0.3-0.7 0.3-1-0.1-0.6-0.8-1-1.3-1.4-0.2-0.1-0.4-0.3-0.4-0.5-0.1-0.1 0-0.3 0-0.5 0.2-0.8 0.4-1.7 0.5-3.1zm-1.3 2.6q-0.3 0.7-0.6 1.4c-0.1 0.2-0.1 0.3-0.1 0.5 0 0.2 0.2 0.4 0.3 0.6 0.2 0.5-0.2 0.9-0.5 1.3-1.1 1.3-2 2.8-2.5 4.4 0.3-0.4 0.6-0.9 1-1.3 0.4-0.4 0.9-0.7 1.5-0.7 0.3-0.1 0.7 0 1-0.1q0.2-0.1 0.4-0.3 0.5-0.5 0.9-1c0.4-0.4 0.8-0.9 0.9-1.5 0.1-0.8-0.6-1.5-1.2-2-0.3-0.3-0.6-0.6-1.1-1.3zm-0.6-6.3c0.3 2.4-1 4.8-1.9 7-0.2 0.5-0.4 1.1-0.5 1.6 0 0.4 0.1 0.8 0 1.2 0 0.5-0.2 1.1-0.5 1.6-0.5 0.8-1.1 1.5-1.9 2-0.9 0.6-2.2 0.9-2.8 1.8 0.9-0.5 1.8-1 2.8-0.9 0.4 0.1 0.8 0.2 1.1 0.1 0.3-0.1 0.5-0.3 0.8-0.5 0.9-0.8 1.8-1.6 2.5-2.6 0.7-0.9 1.2-2.2 1-3.4-0.1-0.7-0.5-1.6-0.1-2.3 0.2-0.4 0.7-0.7 1.1-1 0.8-0.7 1.4-1.8 1.2-2.9-0.2-1.1-1.1-2-2.8-1.7zm-3.5 13.3c-1.4 0.8-3.2 0.8-4.5 1.8-0.4 0.3-0.7 0.7-1 1.1-0.4 0.4-0.8 0.9-0.8 1.5 0 0.5 0.2 0.9 0.4 1.3q0.5 1 1 2.1c0.3-0.5 0.2-1.1 0-1.6-0.1-0.5-0.4-1-0.3-1.6 0-0.8 0.6-1.4 1.3-1.9 0.7-0.4 1.5-0.7 2.1-1.1 0.7-0.5 1.2-1 1.8-1.6zm-5.4 5.2c-0.3 0.6-0.2 1.3 0 2 0 0.3 0.1 0.7 0.3 1 0.3 0.4 0.7 0.7 1.1 1q0.3 0.1 0.6 0.2c0.4 0.1 0.8-0.1 1.1-0.4 0.3-0.2 0.5-0.6 0.7-0.9-0.2 0.5-0.8 0.7-1.4 0.6-0.5-0.1-0.9-0.5-1.3-0.8-0.1-0.1-0.2-0.2-0.3-0.4-0.1-0.2-0.1-0.4-0.1-0.6q-0.1-0.8-0.5-1.6c-0.1-0.2-0.2-0.4-0.2-0.1zm8.5-6.9c-0.3 0.5 0 1.1-0.2 1.7-0.1 0.1-0.2 0.3-0.3 0.4-0.2 0.5-0.1 1-0.2 1.4 0 0.7-0.5 1.4-0.9 1.9q-0.2 0.2-0.3 0.3c-0.1 0.5 0.7 0.9 0.6 1.4 0 0.5-0.7 0.6-0.8 1.1 0.3-0.2 0.7-0.5 0.9-0.8 0.3-0.4 0.5-0.8 0.4-1.3 0-0.2-0.1-0.4 0-0.6 0-0.5 0.5-0.8 1-1.1 0.2-0.2 0.4-0.4 0.3-0.7 0-0.1-0.2-0.2-0.1-0.3 0-0.1 0.2-0.2 0.3-0.2 0.3-0.2 0.1-0.6-0.1-0.9 0.4 0.1 0.8-0.4 0.8-0.8 0-0.3-0.2-0.7-0.4-1.1-0.1-0.1-0.2-0.3-1-0.4zm0.4-0.5c-0.6 0.3-1 1-1.2 1.6-0.3 0.7-0.4 1.4-0.7 2-0.4 0.8-1 1.4-1.4 2.2-0.3 0.8-0.4 1.8 0.3 2.4-0.2 0.4-1 0.4-1.1 0.9 0 0.2 0.3 0.4 0.5 0.5 0.4 0.2 0.7 0.5 1 0.8 0.2 0.3 0.3 0.8 0.2 1.1-0.3 0.6-1.1 0.7-1.3 1.3 0.3-0.7-0.1-1.4 0-2.1 0.2-1.3 1.8-1.9 2.1-3.2 0-0.2 0-0.5 0-0.8 0.2-1.5 1.3-2.7 1.6-4.1 0.2-0.8 0.1-1.7 0-2.6zm-2.9 8.1c-0.1 0.3 0 0.7-0.3 0.8q-0.1 0.1-0.3 0.1c-0.5 0.2-1 0.5-1.4 0.9-0.3 0.2-0.6 0.5-0.7 0.8 0 0.3 0 0.7 0.1 1q0.1 0.5 0.2 1 0.1 0.2 0.2 0.3 0.1 0.2 0.3 0.2 0.7 0.3 1.5 0.6c0.2 0 0.3 0.1 0.5 0.1 0.2 0 0.4-0.1 0.5-0.2 0.3 0 0.5 0 0.8 0 0.2 0 0.5 0 0.7-0.3-1.3 0.5-2.9-0.1-3.6-1.3-0.1-0.2-0.2-0.5-0.2-0.8 0.1-0.4 0.4-0.7 0.7-1 0.4-0.2 0.7-0.4 0.9-0.8q0.4-0.6 0.1-1.4zm0.1 2.7c-0.1 0.9-0.9 1.5-1 2.4-0.3-0.3-0.7-0.7-0.8-1.1-0.1-0.4 0-0.8 0-1.2 0.1-0.4 0.2-0.8 0.6-1 0.1-0.1 0.2-0.1 0.3-0.2 0.1-0.1 0.2-0.2 0.2-0.4 0.1 0.5 0.3 1 0.7 1.5zm0.4-23.3c0.8 2 1 4.2 0.6 6.4-0.4 1.8-1.2 3.5-1.7 5.3-0.3 1.4-0.5 2.7-0.7 4.1-0.6 4.5-2 8.9-4 13-0.6 1.1-1.2 2.2-2 3-0.9 0.9-2 1.6-3.2 1.7-0.6 0.1-1.3 0-1.7-0.5-0.4-0.7-0.1-1.5 0.3-2.2q1-1.9 2.4-3.6c-1.2 1.5-2.5 3.1-2.8 5-0.1 0.2-0.1 0.5 0 0.7 0.1 0.4 0.5 0.7 0.9 0.9 1.5 0.5 3.1-0.5 4.2-1.7 1.1-1.1 2.1-2.3 2.8-3.7 1.5-2.9 2.1-6.2 3-9.4 0.5-1.7 1.2-3.5 1.4-5.3 0.1-1.1 0.1-2.3 0.3-3.4 0.2-1 0.6-1.9 0.9-2.8 0.7-2.3 0.9-4.9-0.7-7.5zm10.6 5.2c-0.6 0.4-1.1 1-1.4 1.6-0.7 1.3-1.2 2.7-1.3 4.2-0.1 1.4 0.2 2.9 0.2 4.4 0 1.7-0.2 3.5-0.8 5.2-0.2 0.6-0.4 1.2-0.9 1.7-0.5 0.6-1.2 0.8-1.9 1.2-2.7 1.4-4.8 4.2-5.3 7.2 0.3-3.2 2.3-6.2 5.2-7.6 0.7-0.3 1.5-0.6 2.1-1.2 1-2.3 1.4-4.9 1.3-7.4 0-1.4-0.3-2.8 0-4.2 0.1-1.1 0.6-2.2 1.1-3.1 0.5-0.9 1.1-1.9 1.7-2zm-2.3-0.1c-1.5 3-2.9 6.1-3.1 9.4-0.1 1.1 0 2.2-0.2 3.3-0.1 1-0.5 2.1-1.3 2.9-0.6 0.6-1.5 1-1.8 1.8q0 0.1 0 0.2c0.1 0.1 0.2 0.1 0.3 0.1 0.4-0.2 0.7-0.4 1.1-0.5 0.4-0.2 0.8-0.2 1.1 0 0.4 0.2 0.6 0.6 0.7 1q0.2 0.9 0.1 1.8c0.2-0.6 0.3-1.2 0.2-1.9-0.1-0.5-0.3-1-0.7-1.2-0.8-0.3-1.5 0.4-2.3 0.4q0.2-0.5 0.7-1c0.3-0.2 0.7-0.4 1-0.7 0.9-0.8 1.1-2.1 1.3-3.3q0.1-0.7 0.1-1.4c0-0.4-0.1-0.9-0.1-1.3 0-0.6 0.1-1.2 0.3-1.8q0.4-1.4 0.8-2.8c0.6-1.8 1.3-3.5 1.8-5zm-0.1-1.1c-1.5 2.9-1.7 6.2-2.7 9.4-0.8 2.5-2.1 4.8-3.5 7.1-0.8 1.3-1.7 2.8-1.5 4.3 0.1 0.4 0.3 0.8 0.5 1.1 0.5 0.4 1.2 0.4 1.9 0.5 1.7 0.3 3.3 1.4 4.1 2.9 0.1-0.4 0-0.8-0.3-1.2-0.2-0.3-0.6-0.5-1-0.7-0.7-0.5-1.5-1-2.4-1.2-0.9-0.2-1.9-0.2-2.3-1-0.2-0.3-0.2-0.8-0.2-1.2 0.4-2.3 2-4.2 3.1-6.2 1.6-2.9 2.2-6.3 3.1-9.5 0.4-1.5 0.8-3 1.2-4.3zm-7.6-4.2c0.6 2.7-0.3 5.5-1.3 8.1-1.3 3.1-2.8 6.2-4.2 9.3-1.6 3.4-3.1 7.1-2.4 10.8 0.2 1.1 0.6 2.1 1.2 2.9 0.7 0.9 1.6 1.5 2.6 1.7 0.7 0.1 1.6-0.2 1.6-0.8 0.1 0.2-0.3 0.4-0.6 0.4-1.4 0.1-2.6-0.7-3.4-1.7-0.8-1.1-1.2-2.5-1.2-3.8-0.2-3 0.9-5.9 2.1-8.7 0.9-2.2 1.8-4.3 2.9-6.4 0.9-1.9 1.9-3.8 2.5-5.7 0.7-2 1-4.1 0.2-6.1zm-0.9-1.3c0.5 1 0.4 2.1 0.2 3.1-1.4 6.8-5.2 12.9-7.6 19.4-0.8 2-1.4 4.1-1.6 6.2-0.1 1.1-0.1 2.3 0.3 3.4 0.4 1 1.1 2 2.2 2.4 0.9 0.3 1.9 0.1 2.8 0.1 1 0 2 0.2 2.6 0.9-0.2-0.9-1.4-1.3-2.5-1.3-1 0-2.1 0.2-3-0.2-1.4-0.6-1.9-2.5-1.9-4.1 0-4.7 2-9.1 4-13.4q1.2-2.5 2.3-4.9c0.7-1.4 1.3-2.8 1.8-4.3 0.7-2.5 0.8-5.1 0.4-7.3zm2.6 0.4c-4 8.2-9.2 16.1-11.8 24.9-0.5 1.6-1 3.3-0.6 5 0.7 2.6 3.4 4.4 6.1 4.8 1.8 0.3 3.8 0.1 5.4 1-0.9-0.8-2.1-0.9-3.3-1.1q-1.6-0.2-3.2-0.6c-1-0.2-2.1-0.5-2.8-1.3-0.4-0.3-0.7-0.8-0.9-1.3-0.4-0.7-0.8-1.5-1-2.3-0.5-2.1 0.3-4.2 1.2-6.2 3.4-7.7 7.1-15.2 10.9-22.9zm-0.7-0.5c-1.1 5.8-2.8 11.5-5.5 16.7-1.1 2-2.2 3.8-3.1 5.8-0.8 2-1.3 4.2-0.9 6.4 0.1 0.7 0.3 1.3 0.5 2 0.2 1.2 0.1 2.5-0.2 3.6 0.1-0.8 0.6-1.5 0.7-2.3 0.1-1-0.3-1.9-0.6-2.8-0.4-1.9-0.1-3.9 0.6-5.7 0.6-1.8 1.6-3.5 2.5-5.2 3.2-5.8 5.7-12 6-18.5zm7 4.7c-0.1 6.1-2.6 11.9-5.4 17.3-2.3 4.6-5 9.1-8.6 12.7-1.3 1.3-2.9 2.5-4.7 2.3-1.4-0.1-2.6-1.2-3.1-2.6-0.5-1.3-0.3-2.8 0.2-4.1-0.1 1.3 0.1 2.6 0.6 3.8 0.2 0.6 0.5 1.3 1.1 1.8 0.7 0.5 1.7 0.5 2.6 0.3 0.8-0.3 1.6-0.8 2.3-1.4 5.1-4.2 8.4-10.3 10.9-16.4 1.8-4.4 3.3-9.1 4.1-13.7zm-0.3-1.8c-1.3 3.2-3.2 6.1-4.9 9.1-1.7 3-3.3 6.2-3.9 9.6-0.2 1-0.3 2 0 2.9 0.2 1 0.9 1.9 1.9 2.1 1 0.3 2.1-0.2 3-0.8 3.3-2.1 6-5.1 7.7-8.6-1.4 2.2-2.9 4.5-5 6.2-0.6 0.4-1.3 0.9-1.9 1.3-0.7 0.6-1.4 1.2-2.2 1.5-0.8 0.4-1.9 0.4-2.5-0.3-0.5-0.5-0.6-1.2-0.6-1.9-0.1-1.3-0.2-2.6 0.1-3.8 0.5-2.5 2.1-4.6 3.1-6.8 0.6-1.2 1-2.4 1.6-3.5 0.5-0.8 0.9-1.6 1.4-2.4 0.9-1.4 1.7-2.9 2.2-4.6zm-1.3-0.1c-1.5 2.2-3 4.4-4.1 6.8-1.5 3-2.5 6.3-2.9 9.7-0.2 1.6-0.2 3.3 0.8 4.5 0.4 0.5 0.9 0.9 1.5 0.9 0.7 0.1 1.4-0.4 2-0.9 1.7-1.4 3-3.3 4.3-5.1 1.2-1.8 2.4-3.7 2.6-5.8 0-0.4 0-0.9-0.1-1.3-0.2-0.5-0.6-0.8-1.1-0.8-0.4 0-0.8 0.3-1.1 0.7-0.2 0.4-0.3 0.9-0.3 1.3 0.1-0.4 0.2-0.9 0.5-1.2 0.3-0.3 0.8-0.5 1.2-0.3 0.4 0.2 0.5 0.7 0.5 1.2 0 2.3-1.4 4.3-2.7 6.1-1.3 1.8-2.7 3.6-4.2 5.1-0.5 0.5-1 1-1.7 0.9-0.6-0.1-1-0.7-1.3-1.2-0.4-1-0.5-2.1-0.5-3.2q0-1.9 0.3-3.7c0.9-4.9 3.6-9.3 6.3-13.7zm3.3 0.9c-3.6 4.1-6.2 8.9-9.1 13.4-1.5 2.2-3.1 4.4-3.8 6.9-0.1 0.3-0.2 0.6-0.1 0.8 0.1 0.5 0.6 0.7 1.1 0.7 0.4 0 0.9-0.2 1.3-0.4 2.7-1.4 5.3-3.2 7.5-5.4 1.6-1.5 3.2-3.5 3.1-5.7-0.2 2.1-1.6 3.8-3.1 5.3-0.6 0.6-1.3 1.2-2 1.7-1 0.8-2.2 1.3-3.1 2.1-0.7 0.5-1.2 1.1-1.8 1.5-0.7 0.5-1.5 0.8-2.3 0.7-0.1 0-0.3-0.1-0.3-0.2-0.2-0.1-0.2-0.3-0.1-0.5 0.1-0.7 0.4-1.4 0.7-2 3.1-5.7 6.7-11.2 10.6-16.4 0.6-0.8 1.3-1.7 1.4-2.5zm-3.1 0c-0.7 4-2.1 8-3.5 11.8-1.1 3-2.2 6.1-4 8.7-0.8 1.1-1.6 2.2-2.5 3.2-1.7 2-3.3 4-5.1 5.9-0.6 0.7-1.3 1.3-2.2 1.3-1 0-1.8-0.9-2-1.9-0.1-1 0.2-2 0.6-3-0.2 1.1-0.1 2.3 0.2 3.4 0.1 0.2 0.2 0.5 0.5 0.6 0.3 0.3 0.7 0.2 1.1 0 0.9-0.4 1.7-1.1 2.4-1.8 2.3-2.1 4.2-4.5 5.9-7.1q1.2-1.7 2.2-3.4c1.8-3.4 3.2-7.1 4.3-10.8 0.7-2.2 1.3-4.5 2.1-6.9zm1.8 0.2c-0.8 1.6-1.8 3.2-2.8 4.7q-2.5 3.9-5 7.8c-1.6 2.4-3.2 4.9-3.9 7.6-0.1 0.6-0.3 1.3-0.2 1.9 0.2 1 0.9 1.8 1.6 2.4 0.7 0.7 1.5 1.2 2.2 1.9 1.9 2.1 2.3 5.1 2.2 7.9-0.2-0.8 0.1-1.6 0.1-2.4 0-1.5-0.8-2.9-1.7-4.1-1-1.1-2.1-2.1-3.1-3.3-0.6-0.8-1.1-1.6-1.3-2.6-0.1-0.6 0-1.3 0.2-2 0.8-3.4 2.7-6.5 4.6-9.4q2.7-4 5.4-8.1 0.7-1.1 1.5-2.2c0.2-0.3 0.5-0.6 0.2-0.1zm-3.1 0.8l-6.7 11.3c-2.4 4-4.8 8.1-5.5 12.7-0.2 0.8-0.2 1.7 0 2.4 0.3 0.9 0.9 1.5 1.6 2.1q1.1 0.9 2.4 1.6c0.5 0.3 1.1 0.5 1.7 0.6 0.5 0 1.2-0.2 1.5-0.6 0.6 0.6 1.1 1.2 1.4 1.9 0-0.8-0.3-1.9-1.1-2.2-0.6-0.2-1.1 0.1-1.7 0.2-1.9 0.4-3.9-0.8-4.8-2.4-0.9-1.7-1-3.8-0.5-5.6 0.5-1.9 1.4-3.6 2.3-5.3 2.1-3.8 4.3-7.6 6.8-11.1 1.6-2.3 3.4-4.5 2.6-5.6zm-3.8-3.7c0.4 0.8 0.3 1.7 0.2 2.6-0.9 7.3-3.6 14.2-7 20.8-0.7 1.4-1.4 2.8-1.5 4.3 0 0.4 0 0.8 0.2 1.1 0.2 0.2 0.4 0.4 0.7 0.5 1.2 0.8 2.6 1.3 4.1 1.5 1.3 0.2 3 0.1 3.8-1-1.1 0.8-2.6 0.8-4 0.7-0.8-0.1-1.6-0.2-2.3-0.5-0.8-0.3-1.4-0.9-1.7-1.6-0.4-1.1 0.1-2.3 0.5-3.3l5-11.1c0.9-2.1 1.8-4.2 2.3-6.4 0.6-2.7 0.5-5.5-0.3-7.6z"/>
	</g>
</svg>