<svg version="1.2" xmlns="http://www.w3.org/2000/svg" viewBox="0 0 741 518" width="1920" height="1342">
	<title>NewPage</title>
	<defs>
		<clipPath clipPathUnits="userSpaceOnUse" id="cp1">
			<path d="m0 0h741v518h-741z"/>
		</clipPath>
	</defs>
	<style>
		.s0 { fill: #1a4a7a } 
	</style>
	<g id="Page 1" clip-path="url(#cp1)">
		<path id="Layer1" class="s0" d="m598.1 340.9q2.9-7.2 6.8-13.9c-2.2-1.3-5-0.5-7.5-0.4-2.6 0.1-5.8-1.7-5.2-4.2 0.2-0.7 0.7-1.3 1.2-1.9 6-5.9 15.5-6.1 23.9-5.9q14.4 0.4 28.7 0.8c3.8 0.1 7.8 0.2 11.1 2 1.1 0.5 2.1 1.3 2.4 2.4 0.6 1.7-0.6 3.5-2.1 4.3-1.5 0.9-3.3 1-5.1 1.1-5.8 0.6-11.5 1.9-17 3.9-2.5 0.9-5.4 2.6-5.4 5.2-0.1 2.7 2.7 4.5 5.1 5.8 2.3 1.3 5 3.4 4.3 6.1-0.7 2.7-4.3 3.3-7.2 3.3q-10.5 0-21 0c-3.1 0-6.3-0.1-9.1-1.3-2.8-1.1-5.3-3.8-3.9-7.3zm142.9-340.9v518h-137.3c-57.6-17.8-116.8-30.7-176.6-38.5-4.3-13.6 5.8-28.4 18.7-34.6 12.8-6.1 27.7-6 42-6.2 44.3-0.5 88.6-5.4 132-14.6 3.1-0.7 6.5-1.5 8.4-4 2-2.7 1.8-6.4 1.4-9.8q-2.2-20.3-4.4-40.7c-12.4 0.5-19.4-5-24.3-12-1.3-1.8-2.4-4-1.8-6 0.5-1.8 2.2-3 3.9-3.8 11.9-6.5 27.2-6 38.6 1.2 4.6 2.9 8.6 6.8 13.8 8.6 11.5 3.9 24.3-5 29-16.2 4.7-11.3 3.5-24.1 2.2-36.2-2.9-26.2-5.9-53-17.2-76.8-4.7-15.1-17.3-35.4-34.9-49.8-2.6-2.1-5.4-4.2-6.9-7.2-3.6-7 1.1-15.1 2.8-22.8 2.4-10.8-1.4-21.9-5.6-32-13.5-32.1-32.6-61.8-56.3-87.2 6.3-9.7 11.3-19.9 16.7-29.4zm-354.8 474.2q-5.6-6-11.1-12-1.3-1.5-2.7-2.9-3.7-3.7-8-6.6c-6.3-4.4-13.4-7.4-20.4-10.4-3.8-1.6-7.7-3.2-10.8-5.9-3.1-2.7-5.5-6.6-5.2-10.7 1.3 1.4 3.2 2.2 5.1 2.2-4.9-6.1-11-11.1-17.9-14.6 0.7-1.1 2.2-1.3 3.4-0.9 1.2 0.5 2.1 1.4 3 2.3-0.9-1.4-0.9-3.4 0-4.9q3.7 4.2 7.4 8.4c0.7 0.8 2.3 1.5 2.6 0.5q-0.7-1.8-1.3-3.6 1.8 1 3.6 2.1c-4.1-2.5-7.5-6.1-9.8-10.4 2.2-1.3 4.7 1.1 6.1 3.2 1.4 2.1 3.9 4.5 6.1 3.1q1.6 1.5 3.2 2.9c0.1-2.3-1.7-4.2-2.6-6.4-1-2.1-0.6-5.4 1.7-5.7 2-0.4 3.4 1.8 3.8 3.7 0.4 2 0.3 4.2 1.6 5.7 0.6-1.4 2.8-1.2 3.8-0.1 1 1.2 1.1 2.9 1.1 4.4-0.1 1.5-0.1 3.1 1.5 4.7q0.4 0.8 0.8 1.6c0.9-1 2.6-0.6 3.5 0.3 0.9 0.9 1.4 2.2 2.1 3.3 0.7 1.2 1.9 2.2 3.2 1.9l-1-4.5c-0.2-1-0.4-2-0.9-2.9-0.8-1.5-2.3-2.5-3.6-3.6-2.7-2.3-4.9-5.5-4.9-9 0-0.8 0.2-1.8 1-2 0.4-0.1 0.7 0 1 0.2 1.4 0.6 2.1 2.1 2.9 3.4 0.8 1.2 2.2 2.5 3.6 2.1 0.6-1.2 0-2.6-0.8-3.6-0.8-1.1-1.8-2-2.2-3.2-0.5-1.2-0.1-2.9 1.2-3.3 1.6-0.5 2.9 1.5 3.3 3.2 0.3 1.6 0.8 3.7 2.5 4.1q0.1-1.7 0.3-3.3c0-0.4 0-0.8 0.4-1 0.2-0.3 0.6-0.2 1-0.1 2 0.8 2.1 3.6 3.3 5.5 0.3 0.4 0.8 0.9 1.3 0.7 0.4-0.2 0.5-0.6 0.6-1 0.1-1.7-0.7-3.3-1.4-4.8-0.7-1.5-1.5-3.1-1.1-4.8 0.3-1.6 2.2-3 3.6-2.2 1.3 0.7 1.5 2.4 2.3 3.6 0.3 0.5 0.9 1 1.5 0.8 1.3-0.4 0.4-2.5 1.1-3.6 1 0.9 2 1.7 3.5 3-0.5-3-2.4-5.8-5-7.5-0.8-0.6-1.7-1-2.4-1.7-0.7-0.7-1.1-1.7-0.8-2.7 2-0.3 4 0.5 5.7 1.7 1.6 1.2 2.9 2.8 4.1 4.4 1-0.4 1.4-1.7 1.2-2.7-0.2-1.1-0.9-2-1.4-2.9-0.5-0.9-0.8-2-0.1-2.7 0.6-0.5 1.6-0.3 2.1 0.3 0.6 0.5 0.8 1.3 1.1 2.1q1.1 4 2.2 8c0.2 0.6 0.4 1.2 0.8 1.6 1 0.7 2.4 0 2.9-1 0.5-1.1 0.3-2.3 0.1-3.5q-0.3-2.1-0.7-4.3c-0.1-0.9 0-2.3 1-2.3 0.4 0 0.7 0.3 1 0.6 2.3 2.5 2.2 6.3 2.7 9.7 0.4 2.3 1.7 4.9 4 5.1 1 0 2-0.4 2.9-0.9 0.9-0.4 1.9-1 2.1-1.9 0.4-1.4-0.9-2.7-2.1-3.7q-1.4-1.2-2.5-2.8c-0.6-0.9-1.1-1.9-0.7-2.9 0.4-1 1.7-1.4 2.8-1.3 2.3 0.2 4.2 1.9 5.2 3.9 1.1 2 1.5 4.3 2 6.6 1-0.7 1.2-2.1 1-3.3-0.2-1.3-0.6-2.5-0.4-3.7 0.3-1.6 1.9-2.9 3.5-3.2 1.7-0.2 3.4 0.3 4.8 1.9-3.6 4.6-4.8 11-3.2 16.7 1.8-4.6 4.1-8.9 6.9-12.9 0.8-1.1 1.8-2.3 3.1-2.3 1.7-0.1 2.9 1.9 2.7 3.6-0.1 1.7-1.2 3.1-2.1 4.6-3.2 5.2-4.8 11.3-4.7 17.4 0.1-5.5 4.3-10.7 9.7-12 0.2-0.1 0.5-0.2 0.8-0.1 0.8 0.1 1.2 1.1 1 1.8-0.1 0.8-0.7 1.4-1.2 2q-2.9 3.2-5.7 6.4c-0.3 0.3-0.7 0.8-0.6 1.2 0.1 0.3 0.3 0.5 0.6 0.7q0.6 0.6 1.2 1.2c0.2 0.2 0.4 0.4 0.7 0.4 0.7 0.2 1.3-0.6 1.6-1.2 1-1.6 2.1-3 3.4-4.3 0.9-0.8 2.3-1.5 3.2-0.7 0.2 0.2 0.4 0.6 0.7 0.7 0.5 0.3 1 0.1 1.5-0.1 1.3-0.6 2.7-1.2 3.8-2.2 1-1 1.7-2.6 1.2-4-0.2-0.6-0.6-1.1-0.8-1.7-0.2-0.6-0.1-1.4 0.4-1.7 0.6-0.3 1.3 0 1.8 0.4 2.1 1.9 2.5 5.1 1.7 7.8-0.9 2.7-2.7 4.9-4.4 7.1q-5.5 6.7-11 13.5c-1.3 1.6-2.7 3.6-2 5.4q1 0.8 2.1 1.5-12.8 18.2-27.2 35.1c-0.9 1.1-2 2.3-3.3 2.8-1.2 0.4-2.4 0.3-3.6 0.2q-4-0.3-8-0.6c-0.5 0-1.1-0.1-1.3-0.6-0.1-0.3-0.1-0.6 0-0.9 0.4-1.8 0.9-3.6 1.6-5z"/>
	</g>
</svg>