<svg version="1.2" xmlns="http://www.w3.org/2000/svg" viewBox="0 0 741 518" width="1920" height="1342">
	<title>NewPage</title>
	<defs>
		<clipPath clipPathUnits="userSpaceOnUse" id="cp1">
			<path d="m0 0h741v518h-741z"/>
		</clipPath>
	</defs>
	<style>
		.s0 { fill: #1a4a7a } 
	</style>
	<g id="Page 1" clip-path="url(#cp1)">
		<path id="Layer11" class="s0" d="m573 436.2c1.3-7.5 2-15.3 1.1-22.9-1-7.6-3.8-15.2-9-20.8-1.2-1.3-2.6-2.9-2.2-4.6 1.8 0.2 3.4 1.2 4.5 2.6-1.1-2.2-0.5-5.2 1.5-6.7q0.3 2.4 0.6 4.8c-0.1-1.7 0.7-3.4 2.2-4.3q0.3 1.9 0.1 3.8c0.4-1 0.8-2.1 1.8-2.6 1-0.5 2.5 0.3 2.2 1.3-0.1 0.4-0.5 0.7-0.8 1-1.1 1-2.2 2.3-2.4 3.9-0.3 2 0.8 3.9 1.6 5.8 3.4 7.2 3.6 15.6 3.7 23.6q0 4.8 0.1 9.6c0 1.8 0 3.6-0.9 5.1-1 1.5-3.2 2.2-4.1 0.4zm-0.1-33.7q1.5-3.4 3-6.9c0.3-0.7 0.6-1.5 0.5-2.4-0.1-0.6-0.5-1.3-0.5-2-0.1-0.6 0.5-1.5 1.1-1.3 0.3 0.1 0.5 0.4 0.7 0.7q0.8 1.2 1.3 2.5-0.2-1.7 0.1-3.3c0.1-0.7 0.5-1.6 1.2-1.4 0.5 0.2 0.6 0.8 0.6 1.2 0.1 1.2-0.1 2.5-0.5 3.6 0.2-0.8 0.5-1.7 1.3-2.1 0.7-0.4 1.9 0.1 1.8 1-0.1 0.3-0.3 0.5-0.4 0.8q-2.7 3.4-5.3 6.7c-0.4 0.7-0.9 1.3-1.2 2-0.6 1.2-0.6 2.5-0.5 3.8-1.3-0.1-2.6-0.5-3.2-2.9zm3.7 20.1c-3-3.3-6.2-6.7-10.3-8.5-0.7-0.4-1.6-0.7-2.1-1.4-0.5-0.7-0.3-1.9 0.5-2.1 1.1-0.2 2.2 1.4 3.1 0.9-0.6-0.4-1.2-0.9-1.5-1.5-0.3-0.7-0.2-1.6 0.4-2 0.6-0.4 1.5-0.1 2 0.6 0.4 0.6 0.5 1.4 0.6 2.2 0.1-0.4-0.1-0.8-0.1-1.2-0.1-0.4 0.1-0.9 0.5-1q0.3 0 0.5 0.1c0.9 0.4 0.9 1.7 1.2 2.7 0.4 1.3 1.5 2.3 2.5 3.1 1.1 0.8 2.3 1.6 3 2.8 0.7 1.2 0.7 2.8-0.3 5.3zm-0.5 6c0.8-1.4 2.2-2.3 3.5-3.3 1.2-1.1 2.3-2.6 1.9-4.2-0.2-0.7-0.6-1.3-0.7-2.1-0.1-0.7 0.5-1.6 1.2-1.4q0.4 1 0.7 2.1c0-0.5 0-1.1 0.3-1.5 0.3-0.5 1-0.6 1.4-0.2 0.1 0.2 0.1 0.4 0.1 0.6 0.1 1.1-0.2 2.2-0.7 3.1 0.3-0.9 1-1.6 1.9-1.9 0.2-0.1 0.5-0.1 0.7 0 0.6 0.3 0.3 1.1-0.1 1.6-0.4 0.4-1 0.9-0.9 1.5 0.1 0.2 0.2 0.4 0.3 0.7 0.2 0.8-0.9 1.3-1.7 1.6-1.5 0.5-2.9 1.4-4.1 2.4-1 1-2 2.1-3.3 2.2 0-0.2 0-0.4-0.5-1.2zm-1.8 13.1c1.7-7.5 3.8-15 7.5-21.7 3.8-6.7 9.2-12.7 16.1-16 1.6-0.8 3.5-1.7 3.7-3.5-1.7-0.4-3.6-0.1-5.1 0.8 1.8-1.7 2.3-4.6 1.1-6.8q-1.2 2.1-2.3 4.2c0.7-1.5 0.5-3.4-0.5-4.7q-1 1.6-1.6 3.4c0.1-1.1 0.1-2.3-0.6-3.1-0.7-0.8-2.5-0.6-2.6 0.5 0 0.4 0.2 0.7 0.4 1.1 0.7 1.4 1.2 3 0.8 4.5-0.4 2-2.2 3.4-3.6 4.8-5.9 5.5-9.1 13.2-12.2 20.6q-1.8 4.5-3.6 8.9c-0.7 1.6-1.4 3.4-1.1 5.1 0.4 1.7 2.2 3.2 3.6 1.9zm12.7-31.3q-0.2-3.7-0.3-7.5c0-0.8 0-1.7 0.4-2.4 0.3-0.6 0.9-1.1 1.2-1.7 0.3-0.6 0.1-1.6-0.6-1.6-0.3 0-0.6 0.2-0.8 0.3q-1.2 0.9-2.1 1.9 0.7-1.5 1.1-3.1c0.2-0.7 0-1.7-0.7-1.7-0.4 0-0.8 0.4-0.9 0.9-0.5 1.1-0.8 2.3-0.9 3.5 0.2-0.8 0.2-1.8-0.4-2.5-0.5-0.6-1.9-0.5-2.1 0.3 0 0.3 0.1 0.6 0.1 0.9q1.2 4.1 2.4 8.2c0.2 0.8 0.4 1.5 0.5 2.3 0 1.3-0.4 2.5-1 3.7 1.3 0.4 2.6 0.5 4.1-1.5zm-10.9 17.3c4-2 8.2-4 12.7-4.1 0.8-0.1 1.7 0 2.4-0.5 0.7-0.5 1-1.6 0.3-2.1-0.9-0.7-2.5 0.5-3.2-0.4 0.7-0.2 1.4-0.4 2-0.9 0.5-0.4 0.8-1.3 0.4-1.9-0.5-0.6-1.5-0.6-2.1-0.2-0.6 0.4-1 1.1-1.4 1.8 0.1-0.4 0.4-0.7 0.6-1.1 0.1-0.3 0.2-0.9-0.2-1.1q-0.2-0.1-0.4-0.1c-1 0.1-1.5 1.3-2.2 2.1-0.8 1.1-2.2 1.6-3.5 2-1.3 0.3-2.6 0.7-3.7 1.5-1.1 0.8-1.8 2.3-1.7 5zm-1.8 5.8c-0.2-1.6-1.3-3-2-4.4-0.7-1.4-1.2-3.3-0.3-4.6 0.5-0.6 1.1-1 1.5-1.7 0.3-0.7 0.1-1.7-0.6-1.8l-1.5 1.7c0.2-0.4 0.5-1 0.3-1.5-0.1-0.5-0.7-0.9-1.1-0.7-0.2 0.2-0.4 0.4-0.5 0.6-0.4 1-0.5 2-0.4 3.1 0.1-0.9-0.4-1.8-1.1-2.4-0.2-0.2-0.4-0.4-0.7-0.3-0.6 0-0.6 0.9-0.4 1.5 0.2 0.6 0.6 1.2 0.2 1.7-0.1 0.2-0.3 0.4-0.4 0.5-0.5 0.7 0.3 1.6 0.9 2.2 1.2 1 2.2 2.3 2.9 3.7 0.6 1.3 1.1 2.7 2.3 3.3 0.1-0.2 0.2-0.4 0.9-0.9z"/>
	</g>
</svg>