<svg version="1.2" xmlns="http://www.w3.org/2000/svg" viewBox="0 0 741 518" width="1920" height="1342">
	<title>NewPage</title>
	<defs>
		<clipPath clipPathUnits="userSpaceOnUse" id="cp1">
			<path d="m0 0h741v518h-741z"/>
		</clipPath>
	</defs>
	<style>
		.s0 { fill: #042648 } 
	</style>
	<g id="Page 1" clip-path="url(#cp1)">
		<path id="Layer5" class="s0" d="m442.7 483.9q-5.6-6-11.1-12-1.4-1.5-2.7-2.9-3.7-3.7-8-6.6c-6.3-4.4-13.4-7.4-20.5-10.4-3.8-1.6-7.6-3.2-10.7-5.9-3.1-2.7-5.5-6.6-5.2-10.7 1.3 1.4 3.2 2.2 5.1 2.2-4.9-6.1-11-11.1-17.9-14.7 0.6-1 2.2-1.2 3.4-0.8 1.2 0.5 2.1 1.4 2.9 2.3-0.9-1.5-0.8-3.4 0.1-4.9q3.7 4.2 7.4 8.4c0.7 0.8 2.3 1.5 2.6 0.5q-0.7-1.8-1.3-3.6 1.8 1 3.6 2.1c-4.1-2.5-7.6-6.1-9.8-10.4 2.2-1.3 4.7 1.1 6.1 3.2 1.4 2.1 3.9 4.5 6.1 3.1q1.6 1.5 3.2 2.9c0-2.3-1.7-4.3-2.7-6.4-0.9-2.1-0.5-5.4 1.8-5.8 1.9-0.3 3.4 1.9 3.8 3.8 0.4 2 0.3 4.2 1.6 5.7 0.6-1.4 2.8-1.2 3.8-0.1 1 1.2 1.1 2.9 1.1 4.4-0.1 1.5-0.1 3.1 1.5 4.6q0.4 0.9 0.8 1.7c0.8-1 2.5-0.6 3.5 0.3 0.9 0.9 1.4 2.2 2.1 3.3 0.7 1.1 1.9 2.1 3.2 1.9l-1-4.5c-0.2-1-0.4-2-0.9-2.9-0.8-1.5-2.3-2.5-3.6-3.6-2.7-2.3-4.9-5.5-5-9 0-0.8 0.3-1.8 1.1-2 0.3-0.1 0.7 0 1 0.1 1.4 0.7 2.1 2.2 2.9 3.4 0.8 1.3 2.2 2.5 3.6 2.2 0.5-1.2 0-2.6-0.8-3.6-0.8-1.1-1.8-2-2.2-3.2-0.5-1.3-0.1-2.9 1.2-3.3 1.6-0.5 2.8 1.5 3.2 3.1 0.4 1.7 0.9 3.8 2.6 4.1q0.1-1.6 0.2-3.2c0.1-0.4 0.1-0.8 0.4-1.1 0.3-0.2 0.7-0.1 1.1 0 2 0.8 2.1 3.6 3.3 5.5 0.3 0.4 0.8 0.8 1.2 0.7 0.4-0.2 0.6-0.6 0.6-1.1 0.2-1.6-0.6-3.2-1.3-4.7-0.8-1.5-1.5-3.2-1.2-4.8 0.4-1.6 2.3-3 3.7-2.2 1.3 0.7 1.5 2.4 2.2 3.6 0.4 0.5 1 0.9 1.6 0.8 1.2-0.4 0.4-2.5 1-3.6 1 0.8 2.1 1.7 3.6 3-0.5-3.1-2.4-5.9-5-7.6-0.8-0.5-1.7-0.9-2.4-1.6-0.7-0.7-1.1-1.8-0.8-2.7 2-0.3 4 0.4 5.6 1.7 1.7 1.2 2.9 2.8 4.2 4.4 1-0.4 1.3-1.7 1.1-2.7-0.2-1.1-0.8-2-1.3-2.9-0.5-0.9-0.8-2-0.1-2.7 0.6-0.5 1.6-0.3 2.1 0.3 0.6 0.5 0.8 1.3 1 2.1q1.2 4 2.3 8c0.1 0.5 0.3 1.2 0.8 1.6 0.9 0.7 2.4 0 2.9-1.1 0.5-1 0.3-2.2 0.1-3.4q-0.4-2.1-0.7-4.3c-0.2-0.9 0-2.3 1-2.3 0.4 0 0.7 0.3 1 0.6 2.3 2.5 2.1 6.3 2.7 9.7 0.4 2.3 1.7 4.9 4 5.1 1 0 2-0.5 2.9-0.9 0.9-0.4 1.8-1 2.1-1.9 0.4-1.4-1-2.7-2.1-3.7q-1.4-1.3-2.5-2.9c-0.6-0.8-1.1-1.8-0.7-2.8 0.4-1 1.7-1.4 2.8-1.3 2.2 0.2 4.1 1.9 5.2 3.9 1.1 2 1.5 4.3 1.9 6.5 1.1-0.6 1.3-2 1.1-3.3-0.2-1.2-0.6-2.4-0.4-3.6 0.3-1.7 1.8-2.9 3.5-3.2 1.7-0.3 3.4 0.3 4.8 1.9-3.6 4.6-4.8 11-3.2 16.6 1.8-4.5 4.1-8.8 6.9-12.8 0.8-1.1 1.8-2.3 3.1-2.3 1.7-0.1 2.9 1.9 2.7 3.6-0.2 1.6-1.2 3.1-2.1 4.5-3.2 5.2-4.9 11.4-4.8 17.5 0.2-5.6 4.4-10.7 9.7-12.1 0.3 0 0.6-0.1 0.9 0 0.8 0.1 1.2 1.1 1 1.8-0.1 0.8-0.7 1.4-1.2 2q-2.9 3.2-5.8 6.4c-0.3 0.3-0.6 0.7-0.5 1.2 0.1 0.3 0.3 0.5 0.5 0.7q0.6 0.6 1.2 1.1c0.3 0.2 0.5 0.5 0.8 0.5 0.7 0.2 1.3-0.6 1.6-1.2 0.9-1.6 2.1-3 3.4-4.3 0.9-0.8 2.3-1.5 3.1-0.8 0.3 0.3 0.5 0.6 0.8 0.8 0.4 0.3 1 0.1 1.5-0.1 1.3-0.6 2.7-1.2 3.7-2.2 1.1-1.1 1.7-2.6 1.3-4-0.3-0.6-0.6-1.1-0.8-1.7-0.2-0.6-0.1-1.4 0.4-1.7 0.6-0.3 1.3 0 1.8 0.4 2.1 1.9 2.5 5.1 1.6 7.8-0.8 2.7-2.6 4.9-4.3 7.1q-5.5 6.7-11 13.5c-1.3 1.6-2.7 3.6-2.1 5.4q1.1 0.7 2.2 1.5-12.8 18.1-27.2 35.1c-1 1.1-2 2.3-3.4 2.8-1.1 0.4-2.3 0.3-3.5 0.2q-4-0.3-8-0.6c-0.5 0-1.1-0.1-1.3-0.6-0.2-0.3-0.1-0.6 0-0.9 0.4-1.8 0.8-3.6 1.6-5zm194.1-389.4q5.6 6 11.1 11.9 1.4 1.5 2.8 2.9 3.6 3.7 7.9 6.7c6.3 4.3 13.4 7.3 20.5 10.3 3.8 1.6 7.6 3.3 10.7 5.9 3.1 2.7 5.5 6.6 5.2 10.7-1.3-1.3-3.2-2.1-5.1-2.1 4.9 6 11 11 17.9 14.6-0.6 1-2.2 1.3-3.4 0.8-1.1-0.4-2.1-1.4-2.9-2.3 0.9 1.5 0.8 3.5-0.1 4.9q-3.7-4.2-7.4-8.4c-0.7-0.8-2.3-1.5-2.6-0.4q0.7 1.7 1.4 3.5-1.9-1-3.7-2c4.1 2.4 7.6 6 9.8 10.3-2.2 1.3-4.7-1-6.1-3.2-1.4-2.1-3.9-4.4-6.1-3.1q-1.6-1.4-3.2-2.9c0 2.4 1.7 4.3 2.7 6.4 0.9 2.1 0.5 5.4-1.8 5.8-1.9 0.3-3.4-1.8-3.8-3.8-0.4-1.9-0.3-4.1-1.6-5.7-0.6 1.4-2.8 1.3-3.8 0.1-1-1.2-1.1-2.8-1-4.4 0-1.5 0-3.1-1.6-4.6q-0.4-0.8-0.8-1.7c-0.8 1-2.5 0.7-3.5-0.3-0.9-0.9-1.4-2.2-2.1-3.3-0.7-1.1-1.9-2.1-3.2-1.9l1 4.6c0.2 0.9 0.4 1.9 0.9 2.8 0.8 1.5 2.3 2.5 3.6 3.6 2.7 2.3 4.9 5.5 5 9.1 0 0.8-0.3 1.8-1.1 1.9-0.3 0.1-0.7 0-1-0.1-1.4-0.7-2.1-2.1-2.9-3.4-0.8-1.3-2.2-2.5-3.6-2.2-0.5 1.2 0.1 2.6 0.8 3.7 0.8 1 1.8 1.9 2.2 3.2 0.5 1.2 0.1 2.9-1.2 3.2-1.6 0.5-2.8-1.4-3.2-3.1-0.4-1.7-0.9-3.7-2.6-4.1q-0.1 1.6-0.2 3.2c-0.1 0.4-0.1 0.9-0.4 1.1-0.3 0.2-0.7 0.2-1.1 0-2-0.8-2.1-3.6-3.3-5.4-0.3-0.5-0.8-0.9-1.2-0.7-0.4 0.1-0.6 0.6-0.6 1-0.2 1.6 0.6 3.2 1.3 4.7 0.8 1.5 1.5 3.2 1.2 4.8-0.4 1.7-2.2 3.1-3.7 2.3-1.3-0.7-1.4-2.4-2.2-3.6-0.4-0.5-1-1-1.5-0.9-1.3 0.4-0.5 2.5-1.1 3.7-1-0.9-2.1-1.8-3.6-3.1 0.5 3.1 2.4 5.9 5 7.6 0.8 0.5 1.7 1 2.4 1.7 0.7 0.6 1.2 1.7 0.8 2.6-2 0.3-4-0.4-5.6-1.6-1.7-1.2-2.9-2.8-4.2-4.4-1 0.4-1.3 1.6-1.1 2.7 0.2 1 0.8 1.9 1.3 2.9 0.5 0.8 0.8 2 0.1 2.6-0.6 0.5-1.6 0.3-2.1-0.2-0.6-0.6-0.8-1.4-1-2.1q-1.2-4-2.3-8c-0.1-0.6-0.3-1.2-0.8-1.6-0.9-0.7-2.4-0.1-2.9 1-0.5 1-0.3 2.3-0.1 3.4q0.4 2.2 0.7 4.3c0.2 1 0 2.3-0.9 2.3-0.5 0-0.8-0.3-1.1-0.6-2.3-2.5-2.1-6.3-2.7-9.6-0.4-2.3-1.7-5-4-5.1-1-0.1-2 0.4-2.9 0.8-0.9 0.5-1.8 1-2.1 1.9-0.4 1.5 1 2.7 2.1 3.7q1.4 1.3 2.5 2.9c0.6 0.8 1.1 1.9 0.7 2.8-0.4 1.1-1.7 1.4-2.8 1.3-2.2-0.2-4.1-1.9-5.2-3.9-1.1-2-1.5-4.3-1.9-6.5-1.1 0.6-1.3 2.1-1.1 3.3 0.2 1.2 0.6 2.4 0.4 3.6-0.3 1.7-1.8 2.9-3.5 3.2-1.7 0.3-3.4-0.3-4.8-1.8 3.6-4.7 4.8-11.1 3.2-16.7-1.8 4.5-4.1 8.9-6.9 12.9-0.8 1.1-1.8 2.2-3.1 2.3-1.7 0-2.9-1.9-2.7-3.6 0.2-1.7 1.2-3.2 2.1-4.6 3.2-5.2 4.9-11.3 4.8-17.4-0.2 5.5-4.4 10.7-9.7 12-0.3 0-0.6 0.1-0.9 0.1-0.8-0.2-1.2-1.1-1-1.9 0.1-0.8 0.7-1.4 1.2-2q2.9-3.2 5.8-6.4c0.3-0.3 0.6-0.7 0.5-1.1-0.1-0.3-0.3-0.6-0.5-0.8q-0.6-0.5-1.2-1.1c-0.3-0.2-0.5-0.4-0.8-0.5-0.7-0.1-1.2 0.6-1.6 1.2-0.9 1.6-2.1 3-3.4 4.3-0.9 0.8-2.2 1.6-3.1 0.8-0.3-0.3-0.5-0.6-0.8-0.8-0.4-0.2-1 0-1.5 0.2-1.3 0.5-2.7 1.1-3.7 2.2-1.1 1-1.7 2.6-1.3 3.9 0.3 0.6 0.7 1.2 0.8 1.8 0.2 0.6 0.1 1.3-0.4 1.7-0.6 0.3-1.3-0.1-1.8-0.5-2.1-1.9-2.5-5.1-1.6-7.8 0.8-2.6 2.6-4.9 4.4-7.1q5.4-6.7 10.9-13.4c1.3-1.7 2.7-3.6 2.1-5.5-0.7-0.5 15.4-25.3 25-36.6 1-1.1 2-2.2 3.4-2.7 1.1-0.4 2.3-0.4 3.5-0.3q4 0.3 8 0.6c0.5 0 1.1 0.1 1.3 0.6 0.2 0.3 0.1 0.6 0 1-0.4 1.8-0.8 3.5-1.6 5zm-205-26.7q3.6 5.5 7.2 11 0.9 1.3 1.8 2.6 2.3 3.4 5.1 6.1c4.1 4 8.7 6.7 13.3 9.5 2.4 1.4 4.9 2.9 6.9 5.4 2 2.4 3.6 6 3.4 9.7-0.9-1.2-2.1-2-3.3-2 3.2 5.6 7.1 10.1 11.6 13.4-0.4 1-1.4 1.2-2.2 0.8-0.8-0.4-1.4-1.3-1.9-2.1 0.5 1.3 0.5 3.1-0.1 4.4q-2.4-3.8-4.8-7.7c-0.4-0.7-1.4-1.3-1.6-0.4q0.4 1.7 0.8 3.3-1.2-0.9-2.3-1.9c2.6 2.3 4.9 5.6 6.3 9.5-1.4 1.2-3-1-3.9-2.9-0.9-2-2.6-4.1-4-2.9q-1-1.3-2.1-2.6c0 2.1 1.1 3.9 1.8 5.8 0.6 1.9 0.3 4.9-1.2 5.3-1.2 0.3-2.2-1.7-2.4-3.5-0.3-1.8-0.3-3.7-1.1-5.2-0.4 1.3-1.8 1.2-2.4 0.1-0.7-1.1-0.7-2.6-0.7-4 0-1.4 0-2.8-1-4.2q-0.3-0.8-0.5-1.5c-0.6 0.9-1.7 0.5-2.3-0.3-0.6-0.9-0.9-2-1.4-3.1-0.4-1-1.2-1.9-2-1.7q0.3 2.1 0.6 4.2c0.1 0.9 0.3 1.8 0.6 2.6 0.5 1.4 1.5 2.3 2.3 3.3 1.8 2.1 3.2 5 3.2 8.2 0 0.8-0.1 1.7-0.6 1.8-0.3 0.1-0.5 0-0.7-0.1-0.9-0.6-1.3-1.9-1.9-3.1-0.5-1.2-1.4-2.3-2.3-2-0.4 1.1 0 2.4 0.5 3.3 0.5 1 1.2 1.9 1.5 3 0.2 1.1 0 2.6-0.8 3-1.1 0.4-1.9-1.4-2.1-2.9-0.3-1.5-0.6-3.4-1.7-3.8q-0.1 1.5-0.2 3c0 0.4 0 0.8-0.2 1-0.2 0.2-0.5 0.1-0.7 0-1.3-0.7-1.4-3.3-2.1-5-0.2-0.4-0.5-0.8-0.8-0.6-0.3 0.1-0.4 0.5-0.4 0.9-0.1 1.5 0.4 3 0.9 4.3 0.4 1.4 0.9 2.9 0.7 4.4-0.2 1.5-1.4 2.8-2.4 2.1-0.8-0.7-0.9-2.2-1.4-3.3-0.2-0.5-0.6-0.9-1-0.8-0.8 0.4-0.3 2.3-0.7 3.3-0.7-0.8-1.3-1.6-2.3-2.7 0.3 2.8 1.5 5.3 3.2 6.9 0.5 0.5 1.1 0.9 1.6 1.5 0.4 0.6 0.7 1.6 0.5 2.4-1.3 0.3-2.6-0.4-3.7-1.5-1-1.1-1.8-2.6-2.6-4-0.7 0.3-0.9 1.5-0.8 2.5 0.1 0.9 0.6 1.8 0.9 2.6 0.3 0.8 0.5 1.8 0.1 2.4-0.4 0.5-1.1 0.3-1.4-0.2-0.4-0.5-0.6-1.2-0.7-1.9q-0.7-3.7-1.4-7.3c-0.1-0.6-0.3-1.1-0.6-1.5-0.6-0.6-1.5 0-1.8 0.9-0.4 1-0.2 2.1-0.1 3.2q0.2 2 0.4 3.9c0.1 0.9 0 2.1-0.6 2.1-0.3 0-0.5-0.2-0.7-0.5-1.4-2.3-1.3-5.8-1.7-8.9-0.3-2.1-1.1-4.5-2.6-4.6-0.7-0.1-1.3 0.4-1.9 0.8-0.5 0.4-1.2 0.9-1.3 1.7-0.3 1.3 0.6 2.5 1.3 3.4q0.9 1.1 1.7 2.6c0.3 0.8 0.7 1.7 0.4 2.6-0.2 0.9-1.1 1.3-1.8 1.2-1.5-0.2-2.7-1.8-3.4-3.6-0.7-1.8-0.9-3.9-1.2-6-0.7 0.6-0.8 2-0.7 3.1 0.1 1.1 0.4 2.2 0.2 3.3-0.1 1.5-1.2 2.6-2.2 2.9-1.1 0.2-2.2-0.3-3.1-1.7 2.3-4.2 3.1-10.1 2-15.2-1.1 4.1-2.6 8.1-4.5 11.7-0.5 1-1.1 2.1-2 2.1-1.1 0.1-1.8-1.7-1.7-3.2 0.1-1.6 0.8-2.9 1.3-4.2 2.1-4.8 3.2-10.4 3.1-16 0 5.1-2.8 9.8-6.2 11-0.2 0.1-0.4 0.1-0.6 0.1-0.5-0.1-0.7-1-0.6-1.7 0.1-0.7 0.4-1.3 0.7-1.8q1.9-2.9 3.8-5.8c0.2-0.3 0.4-0.7 0.3-1.1 0-0.3-0.2-0.5-0.3-0.7q-0.4-0.5-0.8-1c-0.2-0.2-0.3-0.4-0.5-0.5-0.5-0.1-0.8 0.6-1.1 1.2q-0.9 2.1-2.1 3.9c-0.6 0.7-1.5 1.4-2.1 0.7-0.1-0.2-0.3-0.6-0.5-0.7-0.3-0.3-0.6-0.1-0.9 0.1-0.9 0.5-1.8 1.1-2.5 2-0.6 0.9-1.1 2.4-0.7 3.6 0.1 0.6 0.3 1.1 0.5 1.6 0.1 0.6 0 1.3-0.3 1.6-0.4 0.3-0.9-0.1-1.2-0.5-1.3-1.6-1.6-4.6-1-7 0.5-2.5 1.7-4.5 2.8-6.5q3.5-6.2 7.1-12.3c0.8-1.5 1.7-3.3 1.3-5q-0.7-0.7-1.4-1.3 8.3-16.6 17.7-32.1c0.6-1.1 1.2-2.1 2.1-2.6 0.7-0.3 1.5-0.3 2.3-0.2q2.6 0.3 5.2 0.6c0.3 0 0.7 0.1 0.8 0.5 0.1 0.3 0.1 0.6 0 0.9-0.2 1.6-0.5 3.2-1 4.5zm287.1 316.5q-4-1.9-7.9-3.9-1-0.4-2-0.9-2.5-1.1-5.3-1.8c-4-1-8.2-1.1-12.3-1.2-2.3-0.1-4.5-0.2-6.6-0.9-2.1-0.8-4.1-2.3-4.7-4.4 0.9 0.4 2 0.5 3 0.1-3.7-2.1-7.8-3.4-11.9-3.9 0.1-0.7 0.8-1.1 1.5-1.1 0.7 0 1.4 0.3 2 0.6-0.8-0.6-1.1-1.6-1-2.5q2.7 1.4 5.4 2.8c0.5 0.3 1.5 0.3 1.4-0.3q-0.7-0.7-1.4-1.5 1.2 0.2 2.3 0.3c-2.6-0.4-5-1.6-7-3.3 0.9-1.1 2.6-0.4 3.7 0.4 1.1 0.8 2.9 1.5 3.7 0.4l2.2 0.8c-0.4-1.1-1.7-1.8-2.6-2.6-0.9-0.9-1.3-2.7-0.3-3.3 1-0.5 2.1 0.3 2.7 1.2 0.6 0.9 1 2 1.9 2.5 0.1-0.8 1.2-1.2 1.9-0.8 0.8 0.4 1.1 1.3 1.4 2 0.3 0.8 0.6 1.6 1.7 2.1q0.4 0.3 0.7 0.7c0.3-0.7 1.2-0.9 1.9-0.6 0.6 0.3 1.1 0.9 1.7 1.3 0.5 0.4 1.3 0.7 1.9 0.3q-0.6-1-1.3-2.1c-0.3-0.4-0.6-0.9-1.1-1.2-0.7-0.6-1.6-0.9-2.5-1.2-1.8-0.6-3.5-1.8-4.2-3.6-0.2-0.4-0.3-0.9 0.1-1.2 0.2-0.1 0.4-0.1 0.5-0.1 0.9 0.1 1.5 0.7 2.2 1.2 0.6 0.5 1.5 0.8 2.2 0.4 0-0.7-0.5-1.3-1.1-1.7-0.6-0.4-1.3-0.7-1.8-1.2-0.4-0.5-0.6-1.5 0-1.9 0.7-0.5 1.8 0.2 2.3 1 0.5 0.7 1.1 1.7 2.1 1.5l-0.5-1.6c-0.1-0.2-0.2-0.5-0.1-0.7 0.1-0.1 0.4-0.2 0.6-0.2 1.1 0 1.8 1.4 2.7 2.1 0.2 0.2 0.6 0.3 0.8 0.1 0.1-0.1 0.1-0.4 0.1-0.6-0.3-0.9-1-1.5-1.6-2.1-0.7-0.6-1.4-1.3-1.5-2.2-0.2-0.9 0.5-2 1.4-1.9 0.7 0.1 1.2 1 1.8 1.4 0.3 0.2 0.7 0.3 0.9 0.1 0.6-0.4-0.3-1.3-0.1-2 0.6 0.2 1.3 0.5 2.4 0.8-0.9-1.4-2.4-2.5-4-2.8-0.6-0.1-1.1-0.2-1.6-0.4-0.5-0.2-0.9-0.6-0.9-1.2 0.9-0.5 2.1-0.5 3.2-0.2 1 0.3 2 0.8 2.9 1.4 0.4-0.4 0.4-1.1 0.1-1.6-0.3-0.5-0.8-0.8-1.3-1.2-0.4-0.3-0.8-0.9-0.6-1.3 0.2-0.4 0.8-0.5 1.2-0.3 0.4 0.2 0.6 0.5 0.9 0.9q1.3 1.8 2.7 3.5c0.2 0.3 0.4 0.6 0.7 0.7 0.6 0.2 1.2-0.5 1.3-1.1 0-0.6-0.3-1.2-0.6-1.7l-1.2-2.1c-0.3-0.4-0.5-1.1 0-1.3 0.2-0.1 0.4 0 0.6 0.1 1.7 0.8 2.4 2.7 3.3 4.3 0.6 1.1 1.8 2.2 3 1.8 0.5-0.1 0.9-0.6 1.3-1 0.4-0.4 0.7-0.8 0.7-1.3-0.1-0.9-1-1.2-1.8-1.5q-1-0.4-1.8-1c-0.5-0.3-0.9-0.7-0.9-1.2 0-0.6 0.5-1.1 1.1-1.3 1.2-0.3 2.5 0.2 3.4 1 1 0.8 1.6 1.9 2.3 2.9 0.4-0.5 0.2-1.3-0.1-1.8-0.4-0.6-0.8-1.2-0.9-1.8-0.2-0.9 0.3-1.8 1.1-2.3 0.8-0.5 1.8-0.5 2.8 0-0.9 3-0.3 6.5 1.6 9 0.1-2.6 0.4-5.2 1-7.8 0.2-0.7 0.5-1.5 1.1-1.8 0.9-0.3 1.8 0.4 2.1 1.3 0.2 0.9 0 1.8-0.2 2.7-0.6 3.3-0.2 6.7 1 9.8-1-2.9 0.1-6.3 2.6-8q0.2-0.1 0.4-0.2c0.4-0.1 0.8 0.3 0.9 0.7 0 0.5-0.1 0.9-0.3 1.3l-1.6 4.3c-0.1 0.2-0.2 0.5-0.1 0.7 0.1 0.2 0.3 0.2 0.4 0.3q0.5 0.2 0.9 0.3c0.1 0.1 0.3 0.1 0.5 0.1 0.3 0 0.5-0.5 0.5-0.9q0.3-1.5 0.9-2.8c0.3-0.6 0.8-1.3 1.4-1 0.2 0 0.4 0.2 0.6 0.2 0.2 0 0.5-0.2 0.7-0.4 0.6-0.5 1.1-1.1 1.5-1.8 0.3-0.7 0.3-1.6-0.2-2.2-0.2-0.3-0.5-0.5-0.7-0.8-0.3-0.2-0.4-0.6-0.1-0.9 0.2-0.3 0.6-0.2 0.9-0.1 1.5 0.5 2.3 2.1 2.4 3.6 0.1 1.5-0.4 3-0.8 4.4q-1.5 4.5-2.9 8.9c-0.4 1.1-0.7 2.4 0 3.2q0.7 0.2 1.4 0.3-3 11.7-6.9 23.1c-0.3 0.7-0.6 1.5-1.1 2-0.5 0.4-1.2 0.6-1.8 0.8q-2.1 0.6-4.1 1.3c-0.3 0.1-0.6 0.1-0.8-0.1-0.2-0.1-0.2-0.3-0.2-0.4-0.1-1-0.3-2-0.2-2.9z"/>
	</g>
</svg>