<svg version="1.2" xmlns="http://www.w3.org/2000/svg" viewBox="0 0 741 518" width="1920" height="1342">
	<title>NewPage</title>
	<defs>
		<clipPath clipPathUnits="userSpaceOnUse" id="cp1">
			<path d="m0 0h741v518h-741z"/>
		</clipPath>
	</defs>
	<style>
		.s0 { fill: #015c91 } 
	</style>
	<g id="Page 1" clip-path="url(#cp1)">
		<path id="Layer22" fill-rule="evenodd" class="s0" d="m498.4 66.3c-0.5 0.3-1.3 0.5-1.7 0-0.3-0.4-0.2-1-0.5-1.5-0.3-0.5-0.9-0.7-1.5-0.8-0.6-0.1-1.2-0.4-1.3-1 0.3 3.3 1.8 6.4 4 8.4 0.4 0.4 0.9 0.8 0.9 1.4 0 0.3-0.1 0.6-0.2 0.8-0.7 1.7-2.3 3-3.8 2.6-1.3-0.3-2.2-1.7-2.8-3.1-1.5-4-1.3-8.5-1-12.8-0.3 1.5-1.6 2.5-1.9 4-0.2 0.7-0.1 1.6-0.5 2.2-0.5 0.6-1.4 0.5-2-0.1-0.5-0.6-0.7-1.5-0.7-2.3 0-1.9 0.7-3.7 1.6-5.2 0.9-1.5 2.1-2.7 3.3-4 1.3-1.2 2.3-0.9 2.8 0 0.4 0.7 0.3 1.6 0.5 2.5 0.5 2.5 2.9 4.1 5.2 4.1 0.4 0.1 0.8 0 1.1 0.4 0.1 0.1 0.2 0.3 0.3 0.6 0.3 1.5-0.7 3-1.8 3.8zm-10.6-0.7c-0.1-0.1-0.2-0.2-0.4-0.3q-0.5-0.3-1-0.7-0.1 0-0.2 0c-0.1 0-0.2 0.1-0.3 0.2 0 0.1 0 0.2 0.1 0.4 0.3 0.6 0.9 1 1.5 1q0.1 0.1 0.3 0c0.1-0.1 0.1-0.4 0-0.6zm6.8 9.4c0.2 0.2 0.5 0.2 0.7 0.4 0.5 0 1-0.3 1.4-0.6 0.4-0.4 0.7-1 0.7-1.6q0.1-0.3 0-0.5c-0.1-0.2-0.2-0.3-0.4-0.3q-0.1 0-0.3 0c-0.7 0.3-1.5 0.6-2 1.3q-0.2 0.3-0.2 0.6c-0.1 0.3 0 0.5 0.1 0.7zm4.8-12c-0.1-0.2-0.3-0.4-0.5-0.4q-0.2 0-0.4 0.1c-0.5 0.4-0.8 1.1-0.9 1.8q-0.1 0.3-0.1 0.6c0 0.2 0.1 0.4 0.4 0.5 0.3 0 0.5-0.4 0.7-0.7q0.2-0.2 0.3-0.3 0.4-0.4 0.5-0.9 0.1-0.4 0-0.7z"/>
	</g>
</svg>