<svg version="1.2" xmlns="http://www.w3.org/2000/svg" viewBox="0 0 741 518" width="1920" height="1342">
	<title>NewPage</title>
	<defs>
		<clipPath clipPathUnits="userSpaceOnUse" id="cp1">
			<path d="m0 0h741v518h-741z"/>
		</clipPath>
	</defs>
	<style>
		.s0 { fill: #042648 } 
	</style>
	<g id="Page 1" clip-path="url(#cp1)">
		<path id="Layer19" class="s0" d="m484 293.4c-2.1-0.1-3.8-2.3-3.9-4.5-0.1-2.2 1.1-4.2 2.6-5.8 2.4-2.5 5.6-4.1 9-4.7 0.9-0.1 1.9-0.2 2.8 0 0.8 0.1 1.6 0.4 2.3 0.8 5.3 2.5 9.4 7.5 10.8 13.2 0.2 1.1 0.4 2.3 0 3.4-0.5 1.5-2 2.5-3.5 3.1-0.9 0.3-1.9 0.6-2.7 0.1-0.8 1.2-2.9 1.1-3.6-0.2-0.1-0.1-0.1-0.3-0.3-0.3-0.1-0.1-0.3 0-0.4 0.1-0.9 0.6-2 1-2.9 0.6-0.4-0.2-0.7-0.5-1.1-0.8q-1.4-1.4-2.7-3c0 0.5-0.5 1-1 1.1-0.6 0-1.1-0.4-1.2-1-0.8 0.5-1.9 0.5-2.8 0.1-0.9-0.5-1.5-1.4-1.4-2.2zm0.6-2.7c-1.1 3.1 0.1 6.5 0.6 9.8 0.6 3.9 0.1 8-1.5 11.6-1.3 3.2-3.4 6-4.8 9.1-1.5 3.1-2.3 6.7-1.1 9.9 1.4 3.4 5 5.9 5.4 9.5 0.3 2.3-1 4.7-3 5.9 2.2-2.3 3.3-5.9 1.7-8.6-0.8-1.4-2.2-2.4-3.3-3.7-2.1-2.5-2.4-6.1-1.6-9.3 0.8-3.2 2.5-6.1 4.1-9 1.6-2.9 3.1-5.9 3.5-9.2 0.3-2.4 0-5-0.6-7.4-0.6-2.9-1.4-6.1 0.6-8.6zm19.3 6.4c-1.7 1.3-2.6 3.4-2.9 5.4-0.3 2.1-0.1 4.2 0.4 6.2 1 4.8 2.9 9.4 3.3 14.2 0.1 1 0.1 2.1-0.2 3-0.4 1-1.1 1.8-2.1 2-2.1 0.4-3.9-2-5.9-1.7-1.5 0.3-2.4 1.9-2.6 3.4-0.2-1 0.1-2.1 0.8-2.9 0.7-0.7 1.7-1.1 2.8-1 1.2 0.2 2.3 1 3.5 1.3 0.2 0.1 0.5 0.2 0.7 0.1 0.3-0.1 0.5-0.3 0.7-0.5 1.1-1.1 1.5-2.7 1.5-4.3 0-1.6-0.5-3.1-1-4.6-1.4-4.5-3.1-9-2.9-13.8 0-1.1 0.2-2.2 0.6-3.2 0.6-1.7 1.9-3 3.3-3.6zm-17.9-2.6c-0.7 0.4-0.8 1.5-0.4 2.2 0.4 0.7 1.1 1.2 1.7 1.7 0.1 0.2 0.3 0.4 0.4 0.6 0.1 0.3 0.1 0.6 0 1q-0.1 0.6-0.1 1.3c0 0.3 0 0.6 0.2 0.9 0.2 0.3 0.6 0.4 1 0.4 0.4 0 0.7-0.2 1-0.3 0.2-0.1 0.3-0.1 0.3-0.2 0.1-0.2 0-0.4-0.1-0.6q-0.2-0.4-0.2-0.8c0-0.1 0-0.2 0-0.3 0.3-0.3 0.7 0.1 1 0.2 0.3 0.1 0.5-0.1 0.7-0.4 0.1-0.2 0.1-0.5 0.2-0.7 0-0.5 0-1.1-0.4-1.2-0.1-0.1-0.2-0.1-0.2-0.2-0.2-0.2 0.3-0.5 0.2-0.7q-1.1-0.1-2.1-0.4-0.2 0-0.3-0.1c-0.2-0.3 0.1-0.6 0.2-0.9 0.3-0.6-0.1-1.2-0.7-1.5-0.5-0.2-1.1-0.1-2.4 0zm10.6 3.1c-0.4 1.8-1.2 3.5-2.2 5.1-0.3 0.5-0.7 1-0.6 1.6 0 0.8 0.6 1.3 1.1 1.9q1.1 1 1.8 2.3c0.2 0.3 0.3 0.6 0.3 1 0.1 0.9-0.9 1.6-1.2 2.5 0.3-1.2 0-2.6-0.7-3.6-0.8-1-2-1.6-3.2-1.7-0.4-0.1-0.8 0-1.2-0.2-0.8-0.3-1.1-1.4-0.8-2.3 0.3-0.8 0.9-1.5 1.5-2.2 0.5-0.7 1-1.5 1-2.4-0.1-0.4-0.2-0.7-0.2-1.1-0.1-1.1 0.9-2.2 4.4-0.9zm-3.8 6.7c-0.6 0.7-0.7 1.7-0.4 2.5 0.2 0.6 0.6 1.1 0.7 1.8 0.1 1.5-2 2.5-2 4 0 0.6 0.3 1.2 0 1.7-0.3 0.5-1 0.5-1.5 0.8-0.4 0.3-0.6 0.7-0.7 1.1-0.5 1.1-0.7 2.4-0.6 3.6 0.4-1.1 0.8-2.2 1.5-3.1 0.7-0.9 1.6-1.6 2.8-1.8 0.6-0.1 1.3 0 1.9-0.3 0.6-0.3 0.8-0.9 1.1-1.5 0.5-1.1 0.9-2.3 0.7-3.5-0.1-0.6-0.5-1.1-0.8-1.7-0.8-1.2-1.6-2.3-2.7-3.6zm1.1-9c-1.3 3.7-3.5 7.2-4.2 11.1-0.3 1.9-0.2 3.9-0.7 5.7-0.5 1.8-1.5 3.4-2.8 4.7-1.6 1.4-3.5 2.2-5.1 3.7-1.5 1.4-2.4 3.8-1.3 5.6-0.2-1.2 0.4-2.4 1.1-3.5 0.8-1.2 1.7-2.5 3-3 0.8-0.3 1.6-0.3 2.4-0.6 1.7-0.7 2.6-2.6 2.8-4.5 0.1-0.9 0.1-1.9 0.6-2.7 0.4-0.6 1.1-1 1.5-1.6 0.7-1 0.5-2.4 0.5-3.6 0-1.2 0.2-2.3 0.6-3.4 0.5-1.4 1.4-2.6 2-4 0.5-1.3 0.8-3-0.4-3.9zm-13.8 27.8c-0.4 0.6-0.8 1.2-1 1.8-0.2 0.6-0.2 1.4 0.2 1.9 0.5 0.8 1.5 1.1 2 1.9 0.3 0.5 0.3 1.2 0.2 1.7 0 0.2 0 0.4 0.1 0.5q0.1 0.2 0.2 0.3c0.4 0.2 0.8 0.4 1.2 0.6 0.4 0.1 0.9 0 1.2-0.3 0.2-0.2 0.3-0.4 0.5-0.4 0.1 0 0.3 0.1 0.4 0.2q0.3 0.4 0.8 0.7c0.1 0.1 0.2 0.1 0.3 0.1q0.1-0.1 0.2-0.2c0.4-0.8-0.1-1.9-0.8-2.4-0.8-0.6-1.7-0.8-2.5-1.2-0.8-0.4-1.6-1.2-1.6-2.1-0.1-0.4 0.1-0.8 0-1.2-0.1-0.8-0.8-1.3-1.4-1.9zm11.9-9.2c-0.3 1-0.4 2.2-0.1 3.2 0.2 0.7 0.5 1.4 0.2 2-0.1 0.2-0.3 0.4-0.5 0.5-0.7 0.9-0.8 2.1-0.8 3.2q0 1.8 0.4 3.6c0-0.9 0.4-1.8 1.1-2.4 0.3-0.3 0.6-0.5 0.8-0.9 0.3-0.6-0.1-1.3 0-2 0.2-0.8 1.2-1.4 1-2.3-0.1-0.4-0.7-0.8-0.5-1.3 0.2-0.4 0.8-0.4 1.1-0.8 0.3-0.3 0.1-0.8-0.1-1.2-0.2-0.4-0.5-0.8-0.5-1.2 0.1-0.4 0.4-0.8 0.1-1-0.2-0.1-0.3-0.1-0.4 0-0.6 0.1-1.1 0.4-1.8 0.6zm-1.5 1.5c-2.2 1.6-3.2 4.6-2.3 7.2 0 0.2 0.1 0.3 0.1 0.5-0.1 0.4-0.5 0.6-0.7 0.8-0.6 0.7-0.5 1.8 0.1 2.5 0.6 0.7 1.5 1.1 2.4 1.3 0.9 0.3 1.9 0.6 2.5 1.3 0.7 0.7 0.9 2 0.1 2.5 1.2-0.9 1.7-2.6 1.3-4.1-0.3-1.4-1.4-2.7-2.7-3.4-0.4-0.2-0.8-0.4-1-0.7-0.7-0.8-0.1-2 0.4-3 1-1.8 1.7-4.2-0.2-4.9zm-1.1 9.8c-0.3 0.6-0.7 1.2-0.8 1.9-0.1 0.6 0.1 1.4 0.6 1.7 0.2 0.1 0.4 0.2 0.5 0.3 0.4 0.3 0.5 0.8 0.4 1.3-0.1 0.4-0.3 0.8-0.5 1.2-0.3 0.7-0.7 1.3-0.7 2.1 0 0.7 0.3 1.5 1 1.8 0.4 0.2 0.9 0.2 1.4 0.1 1.7-0.2 3.4-0.8 4.9-1.6q-2.6 0.4-5.1 0.5c-0.1-1.2 0.2-2.4 1-3.4 0.2-0.3 0.5-0.6 0.7-1 0.2-0.4 0.2-0.8 0-1.2-0.1-0.1-0.3-0.3-0.5-0.4-1-0.7-1.8-1.8-2.9-3.3zm11-28.7c-1.8 1.7-2.5 4.3-2.5 6.8 0.1 2.4 0.9 4.8 1.4 7.2 0.3 1.1 0.5 2.3 0.3 3.4-0.1 1.1-0.6 2.1-1.1 3-1.7 3.2-3.3 6.4-5.2 9.4-0.9 1.6-2 3.4-1.5 5.2 0.3 1.3 1.4 2.3 2.7 2.9 1.2 0.5 2.6 0.6 4 0.7q3.2 0.2 6.4 0c-2.1-0.5-4.3 0-6.5-0.4-1.1-0.2-2.3-0.6-3.3-1.2-1.2-0.8-2.4-2.2-2.3-3.7 0.1-0.6 0.4-1.2 0.7-1.8 1.5-3 3.6-5.7 5.1-8.8 1.5-3 2.4-6.6 1.3-9.8-0.3-1.1-0.9-2.1-1.2-3.2-0.2-1.1 0-2.2 0.1-3.2 0.4-2.5 1.1-4.9 1.6-6.5zm-15.2-3.4c1.3 3.6 2.3 7.4 2.2 11.2 0 3.8-1 7.7-3.3 10.8-1 1.2-2.1 2.3-3 3.6-0.9 1.3-1.6 2.8-1.5 4.4 0.1 3 3.3 5.4 3.2 8.5 0 2.4-1.9 4.3-3 6.4-1.9 3.9-0.5 9 3 11.5-1.8-1.5-2.8-3.8-2.9-6.2-0.1-2.3 0.7-4.6 1.9-6.6 0.6-0.9 1.3-1.8 1.7-2.8 0.6-1.4 0.5-3.2-0.1-4.6-1-2.1-3.1-3.6-3.2-5.8 0-1.6 1-3 1.9-4.3 1.9-2.4 3.7-5 5-7.7 1.2-2.8 2-5.9 1.7-9-0.3-3.9-2.4-7.4-3.6-9.4zm0.8-3.3c0.4 4.5 0.2 9 0 13.4-0.1 2.3-0.2 4.6-0.7 6.9-1.4 5.9-5.6 11.3-5.3 17.4 0.1 2.5 0.9 4.9 1.1 7.4 0.1 1.7-0.1 3.4 0.4 5 0.7 1.9 2.6 3.3 4.5 3.9 2 0.5 4.1 0.5 6.2 0.2 2.8-0.3 5.7-1 7.9-2.7 0.6-0.5 1.2-1.1 1.5-1.9 0.3-0.7 0.2-1.6-0.4-2.2-0.5-0.6-1.6-0.7-2.1-0.1 0.6 0.2 1.2 0.3 1.6 0.7 0.4 0.4 0.6 1.1 0.3 1.6-0.1 0.3-0.4 0.4-0.7 0.6-3.2 1.8-6.6 3.7-10.2 3.2-2.1-0.3-4-1.3-5.8-2.4-0.4-0.2-0.8-0.4-1.1-0.7-0.3-0.4-0.5-0.9-0.6-1.5-0.4-1.9 0.1-3.8-0.4-5.7-0.2-0.9-0.6-1.8-0.9-2.7-1-3.1-0.3-6.5 0.9-9.5 1.2-3 2.8-5.8 3.8-8.8 2.8-8.5 0.5-17.8 0-22.1zm11.1 5q-0.2 11.8-1 23.6c-0.3 3.5-0.6 7-1.7 10.4-1.2 3.3-3.4 6.4-6.6 7.9-0.5 0.2-1 0.4-1.5 0.3-0.3-0.1-0.6-0.3-0.9-0.2-0.6 0-1.1 0.6-1.7 0.5-0.5-0.2-0.7-0.6-1.1-0.8-0.8-0.3-2.1 0.6-2.5-0.2 1.3 0.3 2.6 0.3 3.8 0 1-0.1 1.9-0.4 2.8-0.8 1.8-0.7 3.5-1.6 4.8-2.9 2.1-2.1 3.1-5 3.6-7.9 0.4-2.9 0.3-5.8 0.4-8.7 0.1-2.7 0.3-5.3 0.6-8 0.3-4.4 0.7-8.9 1-13.2zm4.7-0.8c-1.8 3.9-3.6 8.3-2.3 12.3 0.5 1.5 1.3 2.8 1.7 4.3 0.9 3.3-0.6 7.1-3.1 9.5-1.6 1.6-3.7 2.8-4.7 4.8-0.7 1.4-0.9 3.2-0.4 4.7 0.6 1.8 2 3.2 3 4.7 1.1 1.5 2 3.5 1.3 5.3-0.5 1.3-1.8 2.3-3.2 2.7-1.4 0.3-2.9 0.2-4.3-0.1-2.1-0.4-4.5-0.9-6 0.6-0.6 0.7-0.9 1.6-1 2.5-0.2 2.1 0.4 4.5 2.3 5.5-0.8-1.1-1.5-2.2-1.7-3.5-0.2-1.3 0-2.8 1-3.7 1.3-1.4 3.5-1.2 5.4-1q1.9 0.2 3.7 0.4c1.3 0.2 2.7 0.3 3.6-0.6 0.8-0.6 1-1.6 1.1-2.6 0.1-1.7-0.3-3.4-1-4.9-0.8-1.6-2-2.9-2.8-4.4-0.9-1.6-1.3-3.5-0.5-5.1 0.4-0.9 1.3-1.5 2-2.1 1.7-1.4 3.4-2.9 4.7-4.8 2-3.2 2.4-7.5 1-11-0.6-1.4-1.5-2.7-1.6-4.2 0-1.2 0.3-2.3 0.7-3.4 0.7-2 1.3-4 1.1-5.9zm-4.5-2.2q1.1 2.5 1.5 5.2c0.2 1.1 0.2 2.2 0 3.3-0.3 1-0.8 1.9-1.4 2.7-4 5.6-9.9 9.8-13 15.9-1.6 2.9-2.3 6.6-0.7 9.4 1.7 2.9 5.4 3.9 8.2 5.6 1 0.7 2 1.5 2.6 2.6 0.5 1.1 0.6 2.5-0.2 3.4-1.1 1.5-3.4 1.3-5.2 1.3-2.1 0-4.4 0.6-5.7 2.3-0.4 0.5-0.7 1.2-1.1 1.8-1.1 1.9-3 3-5.1 3.7-1 0.4-2.2 0.6-3-0.2-0.5-0.5-0.6-1.2-0.7-1.9-0.1-3.2 1.3-6.4 3.7-8.5-0.5 1.5-1.5 2.6-2 4-0.6 1.4-0.7 3.2 0.4 4.2 1.3 1.1 3.3 0.4 4.6-0.7 1.3-1.1 2.2-2.7 3.6-3.7 1.3-0.9 3.1-1.2 4.8-1.2 1.3-0.1 2.8 0 4-0.6 1.3-0.6 2.3-2 1.7-3.3-0.2-0.6-0.8-1.1-1.4-1.4-1.4-1-3.1-1.7-4.8-2.2-0.6-0.1-1.2-0.2-1.8-0.5-0.5-0.3-0.9-0.7-1.3-1.1-0.8-0.9-1.6-1.8-2.2-2.9-0.9-1.9-1-4.1-0.5-6.2 0.5-2.1 1.6-4 2.7-5.8 2.3-3.8 5-7.3 8-10.5 1.3-1.4 2.8-2.8 3.7-4.6 1.6-3.2 1.1-7.1 0.6-10.1zm-2.8 2.5q1.4 3.7 2.9 7.5c0.8 2.1 1.6 4.3 1.7 6.5 0.3 3.5-1 6.9-1.8 10.3-0.8 3.4-1 7.3 1 10.1 0.5 0.7 1.1 1.3 1.8 1.5 1 0.3 2.1-0.2 3-0.7 1.3-0.7 2.6-1.7 3.6-2.9 0.8-0.9 1.4-2 1.5-3.2 0.1-1.2-0.5-2.5-1.7-2.8-0.8-0.3-1.8 0-2.5 0.5-2.2 1.4-3.1 4.4-2.2 6.8-0.2-1.5 0-3.1 0.7-4.4 0.7-1.3 2-2.3 3.5-2.3 0.3 0 0.6 0 0.9 0.2 0.7 0.4 0.7 1.5 0.4 2.3-0.7 2.2-2.4 4-4.4 4.9-0.8 0.4-1.6 0.6-2.3 0.3-0.4-0.2-0.8-0.5-1-0.9-1.9-2.2-2.1-5.5-1.7-8.4 0.5-2.9 1.6-5.7 1.9-8.6 0.7-6.2-2-12.3-5.3-16.7zm20.1 37.1c-1.5-0.1-2.6-1.6-2.6-3-0.1-1.5 0.7-2.9 1.7-4 1.6-1.6 3.7-2.7 6-3.1 0.7-0.1 1.3-0.1 1.9 0 0.6 0.1 1.1 0.3 1.6 0.5 3.5 1.7 6.3 5.1 7.2 8.9 0.2 0.7 0.3 1.5 0 2.3-0.3 1-1.3 1.7-2.4 2.1-0.5 0.2-1.2 0.4-1.8 0-0.5 0.8-1.9 0.8-2.4-0.1 0-0.1-0.1-0.2-0.2-0.2-0.1 0-0.2 0-0.2 0.1-0.6 0.4-1.4 0.6-2 0.4-0.3-0.1-0.5-0.4-0.7-0.6q-1-0.9-1.9-2c0 0.4-0.3 0.7-0.6 0.7-0.4 0.1-0.8-0.2-0.8-0.6-0.6 0.3-1.3 0.4-1.9 0-0.6-0.3-1-0.9-0.9-1.4zm0.4-1.8c-0.8 2.1 0 4.3 0.4 6.5 0.4 2.7 0 5.4-1 7.9-0.9 2.1-2.3 3.9-3.3 6-0.9 2.1-1.5 4.5-0.7 6.7 0.9 2.3 3.3 3.9 3.6 6.4 0.2 1.5-0.6 3.1-2 3.9 1.5-1.5 2.2-4 1.2-5.8-0.6-0.9-1.6-1.6-2.3-2.4-1.4-1.7-1.6-4.2-1-6.3 0.5-2.2 1.6-4.1 2.7-6 1.1-2 2.1-4 2.4-6.2 0.2-1.6-0.1-3.3-0.4-5-0.4-1.9-1-4.1 0.4-5.7zm12.9 4.3c-1.1 0.9-1.7 2.2-1.9 3.6-0.3 1.4-0.1 2.8 0.2 4.2 0.7 3.2 2 6.2 2.3 9.5 0 0.7 0 1.4-0.2 2-0.2 0.6-0.7 1.2-1.4 1.3-1.4 0.3-2.6-1.3-4-1.1-1 0.2-1.6 1.3-1.7 2.3-0.1-0.7 0.1-1.4 0.5-2 0.5-0.5 1.2-0.7 1.9-0.6 0.8 0.1 1.5 0.6 2.4 0.9q0.2 0 0.5 0c0.1-0.1 0.3-0.2 0.4-0.3 0.8-0.8 1-1.9 1-2.9 0-1.1-0.3-2.1-0.6-3.1-1-3-2.1-6.1-2-9.2 0-0.8 0.1-1.6 0.4-2.3 0.4-1.1 1.3-2 2.2-2.3zm-12-1.8c-0.5 0.3-0.5 1-0.3 1.5 0.3 0.5 0.7 0.8 1.2 1.2 0.1 0.1 0.2 0.2 0.3 0.3 0 0.2 0 0.5 0 0.7q-0.1 0.4-0.1 0.9c0 0.2 0 0.4 0.1 0.6 0.1 0.2 0.4 0.3 0.7 0.2 0.2 0 0.5-0.1 0.7-0.2q0.1 0 0.2-0.1c0-0.1-0.1-0.3-0.1-0.4q-0.2-0.2-0.2-0.5 0-0.1 0.1-0.2c0.1-0.2 0.4 0.1 0.6 0.1 0.2 0 0.4-0.1 0.5-0.2 0.1-0.2 0.1-0.4 0.1-0.5 0.1-0.4 0.1-0.7-0.2-0.9q-0.1 0-0.2-0.1c-0.1-0.1 0.2-0.3 0.1-0.5q-0.7 0-1.4-0.2-0.1 0-0.1-0.1c-0.2-0.2 0-0.4 0.1-0.6 0.2-0.4-0.1-0.8-0.5-1-0.3-0.1-0.7-0.1-1.6 0zm7.1 2.1c-0.3 1.2-0.8 2.3-1.4 3.4-0.3 0.3-0.5 0.7-0.5 1.1 0 0.5 0.4 0.9 0.8 1.2q0.7 0.7 1.2 1.6c0.1 0.2 0.2 0.4 0.2 0.6 0 0.7-0.6 1.1-0.8 1.7 0.2-0.8 0-1.7-0.5-2.3-0.5-0.7-1.3-1.2-2.2-1.2-0.2 0-0.5 0-0.7-0.1-0.6-0.2-0.8-1-0.6-1.6 0.2-0.5 0.6-1 1-1.5 0.4-0.4 0.7-1 0.7-1.6 0-0.2-0.1-0.5-0.2-0.7 0-0.8 0.7-1.5 3-0.6zm-2.6 4.5c-0.3 0.5-0.4 1.1-0.2 1.6 0.1 0.5 0.4 0.8 0.5 1.3 0 1-1.3 1.6-1.4 2.7 0 0.4 0.2 0.8 0 1.1-0.2 0.3-0.7 0.3-1 0.6-0.2 0.1-0.4 0.4-0.5 0.7-0.3 0.7-0.4 1.6-0.4 2.4 0.3-0.7 0.6-1.5 1-2.1 0.5-0.6 1.1-1.1 1.9-1.2 0.4 0 0.9 0 1.3-0.2 0.4-0.2 0.6-0.6 0.7-1 0.4-0.8 0.7-1.5 0.5-2.3-0.1-0.4-0.3-0.8-0.5-1.2-0.5-0.8-1.1-1.6-1.9-2.4zm0.8-6.1c-0.9 2.5-2.4 4.9-2.8 7.5-0.2 1.3-0.2 2.6-0.5 3.9-0.3 1.1-1 2.2-1.9 3.1-1 0.9-2.3 1.5-3.4 2.5-1 0.9-1.6 2.5-0.9 3.7-0.1-0.8 0.3-1.6 0.8-2.3 0.5-0.8 1.1-1.7 2-2.1 0.5-0.2 1.1-0.2 1.6-0.4 1.1-0.4 1.7-1.7 1.9-3 0-0.6 0-1.2 0.4-1.8 0.3-0.4 0.7-0.6 1-1 0.5-0.7 0.3-1.6 0.3-2.5q0-1.1 0.4-2.2c0.4-1 1-1.8 1.3-2.7 0.4-0.9 0.6-2-0.2-2.7zm-9.3 18.7c-0.2 0.4-0.5 0.8-0.6 1.2-0.2 0.4-0.2 0.9 0.1 1.3 0.3 0.6 1 0.7 1.4 1.3 0.1 0.3 0.1 0.7 0.1 1.1 0 0.1 0 0.3 0 0.3q0.1 0.1 0.2 0.2c0.2 0.2 0.5 0.3 0.8 0.4 0.3 0.1 0.6 0 0.8-0.2 0.1-0.1 0.2-0.2 0.3-0.2 0.1 0 0.2 0.1 0.3 0.1q0.2 0.3 0.5 0.5 0.1 0 0.3 0 0 0 0.1-0.1c0.2-0.5-0.1-1.2-0.6-1.6-0.5-0.4-1.1-0.5-1.7-0.8-0.5-0.3-1-0.8-1-1.4-0.1-0.3 0-0.5 0-0.8-0.1-0.5-0.6-0.9-1-1.3zm8-6.1c-0.2 0.6-0.2 1.4 0 2.1 0.1 0.4 0.3 0.9 0.1 1.3-0.1 0.1-0.2 0.3-0.3 0.4-0.5 0.6-0.6 1.4-0.6 2.1q0 1.2 0.3 2.4c0-0.6 0.3-1.2 0.7-1.6 0.2-0.2 0.5-0.4 0.6-0.6 0.1-0.4-0.1-0.9 0-1.3 0.1-0.6 0.8-1 0.6-1.6-0.1-0.3-0.4-0.5-0.3-0.8 0.1-0.3 0.5-0.3 0.7-0.6 0.2-0.2 0.1-0.5 0-0.8-0.2-0.2-0.4-0.5-0.3-0.8 0-0.2 0.2-0.6 0-0.7q-0.2 0-0.3 0c-0.4 0.1-0.7 0.3-1.2 0.5zm-1 1c-1.4 1-2.1 3.1-1.6 4.8 0.1 0.1 0.1 0.2 0.1 0.3 0 0.3-0.3 0.4-0.4 0.6-0.4 0.4-0.3 1.2 0.1 1.6 0.4 0.5 1 0.7 1.5 0.9 0.6 0.2 1.3 0.4 1.8 0.9 0.4 0.4 0.5 1.3 0 1.7 0.8-0.7 1.1-1.8 0.9-2.8-0.2-1-1-1.8-1.8-2.3-0.3-0.1-0.6-0.2-0.7-0.5-0.5-0.5-0.1-1.3 0.2-1.9 0.7-1.3 1.2-2.9-0.1-3.3zm-0.7 6.5c-0.2 0.4-0.5 0.8-0.6 1.3 0 0.4 0.1 0.9 0.5 1.2 0.1 0 0.2 0.1 0.3 0.2 0.2 0.2 0.3 0.5 0.3 0.8-0.1 0.3-0.2 0.5-0.4 0.8-0.2 0.5-0.4 0.9-0.4 1.4-0.1 0.5 0.2 1.1 0.6 1.3 0.3 0.1 0.6 0 0.9 0 1.2-0.1 2.3-0.5 3.3-1.1q-1.7 0.3-3.4 0.4c-0.1-0.8 0.2-1.7 0.7-2.3 0.1-0.3 0.3-0.5 0.5-0.7 0.1-0.2 0.1-0.6 0-0.8q-0.2-0.1-0.4-0.3c-0.7-0.5-1.2-1.2-1.9-2.2zm7.4-19.2c-1.3 1.1-1.7 2.8-1.7 4.5 0.1 1.6 0.6 3.2 0.9 4.9 0.2 0.7 0.4 1.5 0.3 2.2-0.2 0.8-0.5 1.4-0.8 2.1-1.1 2.1-2.2 4.2-3.5 6.3-0.6 1-1.3 2.2-1 3.4 0.2 0.9 0.9 1.6 1.8 2 0.8 0.3 1.8 0.4 2.7 0.5q2.1 0.1 4.3 0c-1.4-0.4-2.9-0.1-4.4-0.3q-1.1-0.2-2.2-0.8c-0.8-0.6-1.6-1.5-1.5-2.5 0-0.4 0.2-0.8 0.4-1.2 1-2 2.5-3.8 3.5-5.9 1-2 1.6-4.4 0.9-6.6-0.3-0.7-0.7-1.4-0.8-2.2-0.2-0.7-0.1-1.4 0-2.1 0.3-1.7 0.7-3.3 1.1-4.3zm-10.2-2.3c0.9 2.4 1.5 4.9 1.5 7.5-0.1 2.5-0.7 5.1-2.3 7.2-0.6 0.9-1.4 1.6-2 2.5-0.6 0.8-1.1 1.8-1 2.9 0.1 2 2.2 3.6 2.2 5.7 0 1.6-1.3 2.9-2 4.3-1.3 2.6-0.4 6.1 2 7.7-1.2-1-1.9-2.5-2-4.1 0-1.6 0.5-3.1 1.3-4.5 0.4-0.6 0.8-1.2 1.1-1.8 0.4-1 0.4-2.2-0.1-3.2-0.6-1.3-2-2.4-2.1-3.9 0-1 0.7-1.9 1.3-2.8 1.2-1.6 2.4-3.3 3.3-5.2 0.9-1.9 1.4-4 1.2-6-0.2-2.6-1.6-5-2.4-6.3zm0.5-2.3c0.3 3 0.1 6.1 0 9.1-0.1 1.5-0.2 3.1-0.5 4.6-0.9 4-3.7 7.6-3.5 11.7 0 1.7 0.6 3.3 0.7 5 0.1 1.1-0.1 2.2 0.3 3.3 0.5 1.3 1.7 2.2 3 2.6 1.4 0.4 2.8 0.3 4.2 0.1 1.8-0.2 3.8-0.6 5.2-1.8 0.5-0.3 0.9-0.7 1.1-1.2 0.1-0.5 0.1-1.2-0.3-1.5-0.3-0.4-1.1-0.5-1.4-0.1 0.4 0.1 0.8 0.2 1.1 0.5 0.2 0.2 0.4 0.7 0.2 1-0.1 0.2-0.3 0.3-0.5 0.4-2.1 1.3-4.4 2.5-6.9 2.2-1.4-0.2-2.6-0.9-3.9-1.6-0.2-0.1-0.5-0.3-0.6-0.5-0.3-0.3-0.4-0.6-0.5-1-0.3-1.2 0.1-2.6-0.2-3.8-0.2-0.6-0.4-1.2-0.6-1.8-0.7-2.1-0.2-4.4 0.5-6.4 0.8-2 1.9-3.9 2.6-5.9 1.9-5.7 0.3-12 0-14.9zm7.5 3.4q-0.2 7.9-0.7 15.8c-0.2 2.4-0.4 4.8-1.2 7-0.8 2.2-2.3 4.3-4.4 5.3-0.3 0.2-0.7 0.3-1 0.2-0.2 0-0.4-0.1-0.6-0.1-0.4 0-0.8 0.4-1.2 0.3-0.3-0.1-0.4-0.4-0.7-0.5-0.5-0.2-1.4 0.4-1.7-0.1q1.3 0.2 2.6 0 1-0.2 1.9-0.6c1.2-0.4 2.3-1 3.2-1.9 1.4-1.4 2.1-3.4 2.4-5.3 0.3-1.9 0.2-3.9 0.3-5.9 0.1-1.8 0.2-3.5 0.4-5.3 0.2-3 0.5-6 0.7-8.9zm3.1-0.5c-1.2 2.6-2.4 5.5-1.5 8.3 0.3 0.9 0.8 1.8 1.1 2.8 0.6 2.3-0.4 4.8-2.1 6.4-1.1 1.1-2.4 1.9-3.1 3.2-0.5 1-0.6 2.1-0.3 3.1 0.4 1.3 1.3 2.2 2 3.2 0.8 1.1 1.3 2.4 0.9 3.6-0.3 0.9-1.2 1.5-2.1 1.8-1 0.2-2 0.1-3-0.1-1.3-0.2-3-0.6-4 0.4-0.4 0.5-0.6 1.1-0.6 1.7-0.2 1.4 0.2 3 1.5 3.7-0.5-0.7-1-1.5-1.1-2.4-0.2-0.9 0-1.8 0.6-2.4 0.9-0.9 2.4-0.9 3.7-0.7l2.5 0.3c0.8 0.1 1.7 0.1 2.4-0.4 0.5-0.4 0.6-1.1 0.7-1.8 0-1.1-0.2-2.3-0.7-3.3-0.5-1-1.3-1.9-1.9-3-0.6-1-0.9-2.3-0.3-3.3 0.3-0.6 0.8-1 1.4-1.5 1.1-0.9 2.3-1.9 3.1-3.2 1.4-2.1 1.6-5 0.6-7.4-0.3-0.9-0.9-1.8-1-2.8 0-0.8 0.2-1.5 0.5-2.3 0.4-1.3 0.9-2.7 0.7-3.9zm-3-1.5q0.7 1.7 1 3.5c0.1 0.7 0.2 1.5 0 2.2-0.2 0.7-0.6 1.3-1 1.8-2.6 3.8-6.6 6.6-8.7 10.7-1 1.9-1.5 4.4-0.4 6.3 1.1 1.9 3.6 2.6 5.5 3.8 0.7 0.4 1.3 1 1.7 1.7 0.4 0.7 0.4 1.7-0.1 2.3-0.8 1-2.3 0.9-3.5 0.9-1.5 0-3 0.3-3.8 1.5-0.3 0.4-0.5 0.8-0.8 1.2-0.7 1.3-2 2-3.4 2.5-0.7 0.2-1.5 0.4-2-0.1-0.3-0.4-0.4-0.8-0.5-1.3-0.1-2.1 0.9-4.3 2.5-5.7-0.3 1-1 1.8-1.4 2.7-0.4 0.9-0.4 2.1 0.3 2.8 0.9 0.7 2.3 0.3 3.1-0.5 0.9-0.8 1.5-1.8 2.4-2.4 0.9-0.7 2.1-0.9 3.2-0.9 0.9 0 1.9 0 2.7-0.4 0.9-0.4 1.5-1.3 1.2-2.2-0.2-0.4-0.6-0.7-0.9-1-1-0.6-2.1-1.1-3.3-1.4-0.4-0.1-0.8-0.2-1.2-0.4-0.3-0.1-0.6-0.4-0.9-0.7-0.5-0.6-1.1-1.2-1.4-1.9-0.7-1.3-0.7-2.8-0.4-4.2 0.4-1.4 1.1-2.7 1.8-3.9 1.6-2.5 3.4-4.9 5.4-7 0.9-1 1.9-1.9 2.5-3.1 1-2.2 0.7-4.8 0.4-6.8zm-1.9 1.7q1 2.5 1.9 5c0.6 1.4 1.1 2.9 1.2 4.4 0.2 2.3-0.7 4.6-1.2 6.9-0.5 2.3-0.7 4.9 0.7 6.8 0.3 0.4 0.7 0.8 1.2 1 0.7 0.1 1.4-0.1 2-0.5 0.9-0.5 1.7-1.2 2.4-2 0.5-0.6 0.9-1.3 1-2.1 0.1-0.8-0.4-1.7-1.1-1.9-0.6-0.2-1.2 0-1.7 0.4-1.5 0.9-2.1 2.9-1.5 4.5-0.1-1 0-2 0.5-2.9 0.4-0.9 1.3-1.6 2.3-1.6q0.3 0 0.6 0.1c0.5 0.3 0.5 1.1 0.3 1.6-0.5 1.5-1.6 2.7-3 3.3-0.5 0.2-1 0.4-1.5 0.2-0.3-0.1-0.5-0.4-0.7-0.6-1.3-1.5-1.4-3.7-1.1-5.6 0.3-2 1-3.8 1.3-5.8 0.4-4.2-1.4-8.2-3.6-11.2zm-171.4 137.8c5.1-4.7 11.2-5.7 16.5-2.6 0.5 0.3 1 0.7 1.3 1.5 0.4 1.1 0.2 2.6-0.2 3.7-0.8 2.3-2.2 3.8-3.6 4.4-1.5 0.6-3 0.5-4.4 0.4q-4.6-0.2-9.3-0.5c-0.1 0-0.2 0-0.2-0.1-0.2-0.1-0.3-0.5-0.3-0.8q-0.2-2.9 0.2-6zm3.9 7.5c-4.6-1-8.9-6.4-10.2-14.2-0.4-2.2-0.6-4.7-0.1-6.9 0.5 1.8 0.6 3.9 0.9 5.8 1 7.2 4.8 12 9.4 15.3zm-0.1-3c-0.2 0.8-0.9 0.5-1.3 0.1-2-2-4.1-4.1-5.2-7.6-0.4-1-0.6-2-0.8-3-0.8-3.5-1.4-7.4-0.8-11.2 0.3 8.7 2.8 16.9 8.1 21.7zm0-0.9c-2.5-1.4-4.7-4.5-5.9-8.7-1.3-4.1-1.5-9.2-0.7-13.9-0.2 2-0.3 4-0.3 6 0.2 3.5 1 6.8 2.2 9.5 1.2 2.7 2.7 4.9 4.7 7.1zm4.3-2.7c-0.3-4.1-0.5-8.2-0.2-12.4 0.3-4.1 1.2-8.3 2.7-11.6-1.1 2.9-1.6 6.4-2 9.8-0.6 4.6-1 9.6-0.5 14.2zm4.1 0.2c1.6-3.4 3.1-7 4.2-10.9 1.1-3.9 1.9-8.1 1.9-12.4 0.4 2.5 0 5.3-0.5 7.8-1.2 5.9-3.1 11.4-5.6 15.5zm-8.1-1.3c-1.4-2.4-2.3-5.6-2.8-9-0.4-3.3-0.5-6.9-0.4-10.4 0.3 7.1 1.2 14.4 3.2 19.4zm2.7 1.9c-1.6-3.4-2.8-7.5-3.2-12-0.4-4.4-0.1-9.2 1.1-13.4-1.6 9.1-0.4 19.3 2.1 25.4zm-4.5 0.6c-3.5-5.6-5-14.6-3.9-23.1 0 7.6 1.1 15 3.1 21.5 0.3 1.1 0.8 2.3 0.8 1.6zm1.8 0c-3.3-6.1-4.8-14.9-4.2-23.6 0.4 8.4 1.2 17.1 4.2 23.6zm3.4-1.4q1.1-3 2.3-6.1c1-2.8 2.1-5.7 2.8-8.8 0.8-3.2 1.2-6.5 1-9.8 0.4 4.4-0.3 9-1.4 13.2-1.2 4.1-2.8 7.8-4.7 11.5zm5.4-0.2c0.7-0.2 1.2-0.9 1.7-1.6 2.7-3.8 5.2-8 7.2-12.8 1-2.4 1.9-5.2 1.8-8.1 0.2 2.5-0.2 5.1-0.9 7.3-0.4 1.1-0.9 2.1-1.4 3-2.3 4.7-5 9.1-8.4 12.2zm2.6 0.6c3.8-4 7-9.7 9.7-16 0.9-2.1 1.7-4.4 2.1-7 0.1-0.4 0.1-0.9-0.1-1.2 0 2.2-0.4 4.3-0.9 6.4-2.2 8.1-6.2 15-10.8 17.8zm-0.3-1.4c3.8-5 7.4-10.9 9.9-18.1 0.5-1.4 1-2.9 1.2-4.5-0.4 4-1.9 7.6-3.3 10.9-2.1 4.7-4.5 9.5-7.8 11.7zm-1.2-0.6q3.2-6.1 5.8-12.9c1.2-3 2.3-6.3 2.4-9.8 0.2 0.9 0 1.8-0.2 2.7-1.7 7.6-4.3 14.6-8 20zm-0.9-0.3c1.7-3.1 3.4-6.2 4.8-9.8 1.4-3.5 2.5-7.5 2.9-11.6 0.3 1.8-0.2 3.9-0.7 5.7-1.8 6.1-3.9 12.2-7 15.7zm-1.6 0.7c2-5.5 4.1-11.3 4.8-17.6 0.2-1.7 0.3-3.6 0-5.2 0.5 0.8 0.6 2.3 0.5 3.6-0.2 2-0.5 3.9-0.9 5.8-0.9 4.8-2.1 9.7-4.4 13.4zm-1.2-0.1c1.8-4.9 3.6-10 4.4-15.6 0.3-2.6 0.5-5.2 0.9-7.8 0.1 1.4 0 2.8-0.2 4.2-0.4 3.6-1.3 7-2.2 10.3q-1.3 4.5-2.9 8.9zm2.6-0.6c1.2-3.2 2.4-6.5 3.3-10.1 0.9-3.6 1.4-7.5 1.1-11.2 0.6 4.3-0.3 8.9-1.3 13.1-0.8 3.2-1.7 6.3-3.1 8.2zm-3.2-1.2c1.5-2.9 2.7-6.4 3.6-10 0.8-4 1.2-8.1 1.6-12.2-0.5 8.4-2.4 16.7-5.2 22.2zm-2.2 0.7c1.2-4.3 2.5-8.6 3.5-13 0.6-2.8 1.1-5.7 1-8.5 0.3 1.5 0.2 3.2 0 4.8-0.7 6-2.3 11.8-4.5 16.7zm0.3 1.4c-1.4-1.8-2.2-4.8-2.5-8-0.3-3.1-0.1-6.3 0.3-9.5 0.2-2 0.5-4 1-5.9-0.5 3.7-1 7.6-0.9 11.4 0 3.8 0.5 7.6 2.1 12zm-3.5 0.8c-2.6-6.9-3-16.2-1.2-24.3 0.2-1 0.5-2 0.9-2.8-0.7 4.3-1 8.6-1.1 13 0 4.7 0.4 9.5 1.4 14.1zm3-1.4c-0.7-0.2-0.9-1.4-1.1-2.5-0.7-5.1-0.2-10.5 0.9-15.5 0.5-2.7 1.2-5.4 2.3-7.7-0.1 1.3-0.4 2.4-0.7 3.6-0.9 3.5-1.8 7.1-2.2 10.8-0.4 3.8-0.3 7.7 0.8 11.3zm1.3 0.3c-0.3-1-0.4-2.1-0.3-3.3 0-4.7 0.9-9.4 1.8-13.9 0.7-3 1.3-6 1.2-9.1 0.3 4.3-0.6 8.6-1.4 12.7-0.9 4.1-1.8 8.5-1.3 13.6zm3.1-0.8c0.2-1.5 0.7-2.8 1.2-4.1 1.1-3.2 1.8-6.6 2.5-10 0.7-3.8 1.4-7.9 0.7-11.5 0.4 2.7 0.3 5.6 0 8.4-0.4 2.8-1 5.6-1.8 8.2-0.9 3.5-2.1 7-2.6 9zm2.3 1.1c1.2-3.6 2.5-7 3.7-10.5 0.6-1.9 1.2-3.8 1.6-5.8 0.7-3.3 0.9-6.6 1-10 0.5 2.6 0.2 5.5-0.3 8.2-1.4 7-3.7 13.4-6 18.1zm0.7 0.4c3-6 6.1-12.1 8-19.4 0.7-2.5 1.2-5.3 1.1-8 0.3 2.4-0.1 5-0.7 7.4-1.7 7.2-4.4 13.9-8.4 20zm-11.4 4.4c-0.7 0.1-1.3-0.3-1.8-0.8-1.9-1.7-3.5-4.4-4.6-7.7-1.1-3.3-1.6-7.1-1.8-11 0-2.4 0.1-5 0.8-7.3-1.4 4.2-1.6 9.4-0.7 13.7q0.4 1.4 0.8 2.8c0.7 2.3 1.6 4.4 2.7 6.2 1 1.8 2.4 3.2 4.6 4.1zm0.1-2.3c-0.7-0.6-1.2-1.6-1.6-2.7-1.6-3.6-2.5-8-3-12.6-0.3-2.7-0.4-5.4-0.3-8.2 0.1-2.8 0.6-5.6 1.4-8-1.2 5.1-1.5 10.7-1 15.9 0.5 5.2 1.9 10.1 4.5 15.6zm2.1-0.7c-1.1-0.7-1.9-2.4-2.6-4.1-2-5.5-2.9-12.2-2.6-19 0.1-2.9 0.5-6 1.6-8.5-1.1 5.4-1.6 11.1-1.2 16.6 0.3 5.5 1.5 10.7 4.8 15zm1.7 0.2c-0.6-0.6-1-1.6-1.3-2.6-1.1-3.3-1.7-7.1-1.8-11 0-3.9 0.3-7.8 0.8-11.6 0.4-3.1 1-6.2 2.3-8.5-0.1 1.2-0.5 2.3-0.9 3.4-1.1 3.5-1.7 7.5-2 11.4-0.2 3.2-0.2 6.3 0.1 9.4 0.4 3 1.1 5.8 2.8 9.5zm0.8-1.5c-1.1-4.9-0.8-10.8 0-16.2 0.8-5.4 2-10.7 2.5-16.2-0.1 4.8-0.6 9.6-1.2 14.3-0.5 3.4-1.1 6.7-1.5 10.1-0.4 3.4-0.5 6.8 0.2 8zm1.9-0.1c0-1 0.1-2 0.2-3 0.7-4.5 1.6-8.9 2.2-13.4 0.7-4.4 1-9.1 0.5-13.5 0.4 9.7-0.7 19.8-2.9 29.9zm1 0.8c0.3-1.6 0.7-3.1 1.1-4.6 2.1-8.2 3.1-17.1 3-25.9 0.6 5.1 0.3 10.6-0.7 15.7-0.9 5.1-2.3 9.9-3.4 14.8zm1.9 0.1c0.1-1 0.4-1.9 0.7-2.9 2.4-7.9 4.4-16.4 5.1-25.2 0.1-1.6 0.2-3.2-0.1-4.7 0.8 4.4 0.4 9.5-0.5 14.1-0.9 4.6-2.4 8.9-3.6 13.3-0.6 2-1.2 4.2-1.6 5.4zm-8.4 2.1c-0.9 0.3-1.7-0.8-2.3-1.9-1.6-2.7-3.1-5.7-4.3-9.2-1.1-3.4-1.8-7.4-1.8-11.5 0-3.5 0.5-7.1 1.2-10.5q0.5-2.2 1.1-4.2c-2 6.4-2.4 13.9-1.3 20.5 0.9 6 3.1 11 7.4 16.8zm2.5-1.3c-0.9-0.4-1.7-1.6-2.3-2.9-2.1-4.6-3.2-10.6-3.2-16.7-0.1-6.1 1-12.3 2.8-17.7 0.1-0.2 0.1-0.3 0.2-0.4 0.1 0 0.2 0.1 0.2 0.3-1.3 4-2.1 8.5-2.3 13-0.2 4.5 0.1 9 0.6 13.4 0.5 4.4 1.4 9.1 4 11zm1.9 2.1c-0.9-4.6-1.8-9.3-2-14.2-0.4-5.9 0.2-11.9 1.2-17.7 0.6-3.7 1.3-7.5 0.9-11.2 0.5 3 0.5 6.3 0.1 9.4-0.4 2.4-1.1 4.7-1.4 7.1-0.7 4.1-0.5 8.4-0.3 12.5 0.2 3.9 0.3 7.9 1.5 14.1zm2.6-3.5c-0.4 0.2-0.8-0.1-1.1-0.5-0.3-0.5-0.5-1.2-0.6-1.9-0.5-3.4-0.1-7.2 0.6-10.8 1-4.9 2.4-9.6 3.5-14.5 1.1-4.8 2-10 1.6-15.1 0.6 4.9-0.2 10.1-1.2 14.9-1.1 4.8-2.5 9.5-3.3 14.4-0.9 4.9-1.1 10.3 0.5 13.5zm233-401c-4.8 5-10.9 6.3-16.3 3.5-0.5-0.2-1.1-0.6-1.4-1.4-0.5-1-0.4-2.6 0-3.8 0.6-2.3 2-3.8 3.4-4.5 1.4-0.7 2.9-0.7 4.3-0.7q4.6 0 9.3 0c0.1 0 0.2 0 0.3 0 0.1 0.2 0.2 0.6 0.3 0.9q0.4 2.8 0.1 6zm-4.3-7.3c4.7 0.8 9.2 5.9 11 13.6 0.5 2.2 0.8 4.6 0.5 6.9-0.6-1.8-0.8-3.8-1.2-5.7-1.5-7.1-5.5-11.8-10.3-14.8zm0.2 3c0.2-0.8 0.9-0.6 1.3-0.2 2.2 1.9 4.4 3.9 5.7 7.3 0.4 0.9 0.7 2 1 3 0.9 3.5 1.8 7.3 1.4 11.1-0.8-8.7-3.7-16.7-9.4-21.2zm0.1 0.9c2.6 1.2 5 4.2 6.5 8.3 1.4 4.1 2 9.1 1.4 13.9 0.1-2 0.1-4.1-0.1-6-0.4-3.5-1.4-6.7-2.7-9.4-1.3-2.6-3-4.7-5.1-6.8zm-4.1 2.9c0.5 4.1 1 8.2 0.9 12.4-0.1 4.2-0.7 8.4-2 11.8 0.9-3 1.2-6.5 1.4-9.9 0.3-4.7 0.4-9.7-0.3-14.3zm-4.1 0c-1.4 3.5-2.7 7.2-3.6 11.2-0.9 3.9-1.4 8.2-1.2 12.5-0.5-2.5-0.3-5.3 0.1-7.9 0.8-5.9 2.4-11.5 4.7-15.8zm8.2 0.9c1.5 2.3 2.5 5.5 3.2 8.8 0.7 3.3 1 6.9 1.1 10.4-0.8-7.1-2.1-14.3-4.3-19.2zm-2.9-1.7c1.8 3.3 3.2 7.3 3.9 11.7 0.7 4.5 0.6 9.3-0.3 13.5 1-9.2-0.7-19.3-3.6-25.2zm4.5-0.9c3.8 5.4 5.9 14.3 5.3 22.8-0.5-7.5-2-14.9-4.4-21.2-0.4-1.1-1-2.3-0.9-1.6zm-1.8 0.1c3.6 5.9 5.7 14.6 5.6 23.3-0.9-8.4-2.2-17-5.6-23.3zm-3.3 1.6q-1 3.1-1.9 6.2c-0.9 2.9-1.8 5.9-2.4 9-0.5 3.2-0.8 6.6-0.4 9.8-0.6-4.4-0.3-9 0.7-13.2 0.9-4.2 2.3-8 4-11.8zm-5.4 0.5c-0.6 0.3-1.1 1-1.6 1.7-2.5 4-4.8 8.3-6.5 13.3-0.8 2.4-1.6 5.2-1.3 8.1-0.3-2.5-0.1-5.1 0.5-7.4 0.4-1.1 0.8-2.1 1.2-3.1 2.1-4.8 4.4-9.3 7.7-12.6zm-2.6-0.4c-3.6 4.1-6.5 10-8.8 16.5-0.7 2.2-1.5 4.5-1.7 7.1 0 0.4 0 0.9 0.2 1.2-0.2-2.2 0.1-4.3 0.5-6.4 1.7-8.2 5.3-15.3 9.8-18.4zm0.4 1.4c-3.6 5.1-6.8 11.3-8.9 18.5-0.5 1.5-0.8 3-0.9 4.6 0.2-4 1.4-7.6 2.7-11 1.8-4.9 3.9-9.7 7.1-12.1zm1.1 0.5q-2.7 6.2-5 13.2c-1 3-1.9 6.4-1.8 9.9-0.2-0.8-0.1-1.8 0.1-2.7 1.2-7.6 3.4-14.8 6.7-20.4zm0.9 0.2c-1.5 3.2-3 6.5-4.2 10.1-1.2 3.6-2 7.6-2.1 11.8-0.5-1.9-0.1-4 0.3-5.8 1.4-6.2 3.2-12.4 6-16.1zm1.7-0.7c-1.8 5.6-3.5 11.4-3.8 17.8-0.1 1.7-0.1 3.6 0.3 5.2-0.6-0.8-0.7-2.3-0.7-3.6 0-2 0.2-3.9 0.5-5.8 0.7-4.9 1.6-9.8 3.7-13.6zm1.1-0.1c-1.5 5.1-3 10.2-3.4 15.9-0.2 2.6-0.2 5.2-0.4 7.9-0.3-1.4-0.2-2.9-0.2-4.3 0.3-3.6 1-7 1.7-10.4q1-4.5 2.3-9.1zm-2.5 0.8c-1 3.3-2.1 6.7-2.7 10.3-0.7 3.6-1 7.5-0.4 11.2-0.9-4.2-0.3-8.9 0.5-13.2 0.6-3.1 1.3-6.3 2.6-8.3zm3.2 1c-1.3 3-2.3 6.5-2.9 10.3-0.6 3.9-0.8 8-1 12.1 0.1-8.4 1.5-16.7 3.9-22.4zm2.2-0.8c-1 4.3-2 8.7-2.7 13.2-0.5 2.8-0.8 5.7-0.5 8.5-0.4-1.4-0.4-3.2-0.3-4.8 0.3-6 1.6-11.8 3.5-16.9zm-0.4-1.4c1.5 1.8 2.5 4.7 3 7.8 0.5 3.1 0.5 6.4 0.3 9.6-0.1 2-0.3 4-0.7 5.9 0.3-3.7 0.5-7.6 0.2-11.4-0.2-3.8-1-7.5-2.8-11.9zm3.5-1c2.9 6.7 3.9 16 2.6 24.2-0.2 1-0.4 2-0.8 2.8 0.5-4.3 0.6-8.6 0.4-12.9-0.3-4.8-0.9-9.6-2.2-14.1zm-2.9 1.6c0.6 0.2 1 1.4 1.2 2.5 1 4.9 0.8 10.4 0.1 15.5-0.4 2.7-1 5.4-1.9 7.7 0-1.2 0.2-2.4 0.4-3.5 0.8-3.6 1.5-7.2 1.6-11 0.2-3.8-0.2-7.7-1.4-11.2zm-1.3-0.3c0.3 1 0.4 2.2 0.5 3.3 0.2 4.8-0.4 9.5-1.1 14.1-0.4 2.9-0.9 6-0.6 9-0.6-4.2 0.1-8.5 0.7-12.7 0.6-4.2 1.3-8.5 0.5-13.7zm-3 1.1c-0.3 1.4-0.7 2.8-1 4.1-0.9 3.2-1.5 6.7-2 10.2-0.5 3.8-0.9 7.9 0 11.5-0.6-2.7-0.7-5.6-0.5-8.5 0.2-2.8 0.7-5.5 1.3-8.2 0.8-3.6 1.7-7.1 2.2-9.1zm-2.5-1c-0.9 3.6-2 7.1-3 10.7-0.5 1.9-1 3.9-1.3 5.9-0.5 3.2-0.5 6.6-0.4 10-0.7-2.5-0.5-5.5-0.2-8.2 1-7 2.9-13.6 4.9-18.4zm-0.7-0.4c-2.7 6.2-5.4 12.5-6.9 19.8-0.5 2.6-0.8 5.4-0.5 8.1-0.5-2.4-0.2-5 0.2-7.4 1.2-7.4 3.6-14.1 7.2-20.5zm11.2-5.1c0.6-0.1 1.2 0.3 1.8 0.8 2 1.5 3.8 4.2 5 7.4 1.3 3.2 2.1 7 2.4 10.8 0.2 2.5 0.3 5.1-0.3 7.4 1.1-4.3 1.1-9.5-0.1-13.7q-0.5-1.4-1-2.8c-0.8-2.2-1.8-4.3-3-6-1.2-1.8-2.6-3.1-4.8-3.9zm0 2.3c0.7 0.7 1.3 1.6 1.8 2.6 1.7 3.6 2.9 7.9 3.6 12.5 0.5 2.6 0.8 5.4 0.8 8.2 0.1 2.7-0.2 5.6-0.9 8.1 0.9-5.2 0.9-10.8 0.1-16-0.9-5.2-2.5-10-5.4-15.4zm-2.1 0.9c1.2 0.6 2.1 2.3 2.8 4 2.3 5.3 3.7 12 3.7 18.7 0.1 3-0.1 6.1-1 8.6 0.8-5.4 0.9-11.2 0.2-16.6-0.7-5.5-2.1-10.6-5.7-14.7zm-1.7-0.1c0.6 0.6 1.1 1.5 1.5 2.6 1.3 3.1 2 6.9 2.3 10.8 0.4 3.9 0.3 7.8 0 11.7-0.3 3-0.7 6.1-1.8 8.5 0-1.2 0.4-2.3 0.6-3.4 1-3.6 1.4-7.6 1.4-11.5 0.1-3.2-0.1-6.3-0.7-9.3-0.5-3-1.4-5.9-3.3-9.4zm-0.7 1.5c1.4 4.9 1.4 10.7 0.9 16.2-0.5 5.5-1.4 10.8-1.5 16.4-0.2-4.8 0-9.7 0.4-14.4 0.3-3.4 0.7-6.8 0.8-10.2 0.2-3.4 0.2-6.9-0.6-8zm-1.9 0.2c0.1 1 0 2.1-0.1 3.1-0.3 4.5-1 8.9-1.3 13.4-0.4 4.5-0.5 9.2 0.2 13.5-0.9-9.6-0.4-19.8 1.2-30zm-1-0.7c-0.2 1.6-0.6 3.1-0.9 4.7-1.6 8.3-2.1 17.2-1.5 26-0.9-5.1-0.8-10.5-0.2-15.7 0.6-5.2 1.8-10.1 2.6-15zm-1.9 0c-0.1 1-0.4 2-0.6 2.9-1.9 8.1-3.4 16.7-3.6 25.5 0 1.6 0 3.3 0.4 4.7-1.1-4.4-1-9.5-0.3-14.1 0.6-4.7 1.8-9.1 2.8-13.5 0.5-2.1 1-4.3 1.3-5.5zm8.2-2.5c0.9-0.4 1.8 0.6 2.4 1.7 1.8 2.6 3.5 5.5 4.8 8.9 1.3 3.4 2.3 7.3 2.5 11.4 0.3 3.5 0 7.1-0.6 10.6q-0.3 2.1-0.8 4.2c1.6-6.5 1.6-14 0.1-20.6-1.3-5.9-3.8-10.7-8.4-16.2zm-2.4 1.4c1 0.3 1.8 1.5 2.5 2.8 2.3 4.5 3.8 10.3 4.2 16.4 0.4 6.1-0.3 12.4-1.9 17.9 0 0.1-0.1 0.3-0.1 0.3-0.1 0.1-0.3 0-0.2-0.2 1.1-4.1 1.5-8.6 1.5-13.2-0.1-4.5-0.6-8.9-1.4-13.3-0.7-4.4-1.9-9-4.6-10.7zm-2-2c1.2 4.6 2.3 9.2 2.9 14.1 0.6 5.8 0.4 11.8-0.2 17.6-0.4 3.8-1 7.7-0.3 11.3-0.7-2.9-0.9-6.2-0.6-9.4 0.2-2.4 0.7-4.7 1-7.1 0.4-4.2 0-8.4-0.5-12.6-0.4-3.9-0.8-7.8-2.3-13.9zm-2.4 3.6c0.4-0.2 0.8 0 1.1 0.5 0.4 0.5 0.5 1.1 0.7 1.8 0.8 3.4 0.5 7.2 0.1 10.8-0.7 5-1.9 9.8-2.7 14.7-0.8 4.9-1.4 10.1-0.7 15.2-0.9-4.9-0.4-10.1 0.4-15 0.7-4.8 1.8-9.5 2.4-14.5 0.6-4.9 0.5-10.4-1.3-13.5zm-23.5-17c-4.9 5.1-10.9 6.4-16.3 3.6-0.6-0.3-1.1-0.6-1.5-1.4-0.4-1.1-0.3-2.6 0-3.8 0.7-2.3 2-3.8 3.4-4.5 1.4-0.7 2.9-0.7 4.4-0.7q4.6-0.1 9.2-0.1c0.1 0 0.2 0 0.3 0.1 0.2 0.2 0.3 0.5 0.3 0.9q0.4 2.8 0.2 5.9zm-4.4-7.2c4.7 0.8 9.3 5.9 11.1 13.6 0.5 2.2 0.8 4.6 0.4 6.8-0.5-1.8-0.7-3.8-1.1-5.7-1.5-7.1-5.5-11.7-10.4-14.7zm0.3 2.9c0.2-0.8 0.8-0.5 1.3-0.1 2.1 1.8 4.3 3.8 5.7 7.3 0.4 0.9 0.7 1.9 0.9 3 1 3.4 1.9 7.2 1.5 11.1-0.8-8.7-3.8-16.7-9.4-21.3zm0 1c2.7 1.2 5.1 4.2 6.5 8.3 1.5 4.1 2 9.1 1.5 13.9 0.1-2.1 0.1-4.1-0.1-6.1-0.4-3.4-1.4-6.7-2.7-9.3-1.4-2.7-3-4.8-5.2-6.8zm-4.1 2.9c0.6 4.1 1 8.2 0.9 12.4 0 4.1-0.6 8.3-2 11.8 1-3 1.3-6.5 1.5-9.9 0.3-4.7 0.4-9.7-0.4-14.3zm-4.1 0c-1.4 3.5-2.6 7.2-3.5 11.1-0.9 4-1.4 8.3-1.3 12.6-0.4-2.6-0.2-5.3 0.2-7.9 0.8-5.9 2.3-11.6 4.6-15.8zm8.2 0.8c1.5 2.4 2.6 5.5 3.3 8.9 0.6 3.3 0.9 6.9 1 10.4-0.7-7.2-2-14.3-4.3-19.3zm-2.8-1.6c1.8 3.3 3.2 7.3 3.9 11.7 0.6 4.4 0.6 9.2-0.3 13.5 1-9.2-0.7-19.3-3.6-25.2zm4.5-0.9c3.8 5.3 5.8 14.3 5.2 22.8-0.4-7.6-1.9-14.9-4.3-21.2-0.5-1.1-1-2.3-0.9-1.6zm-1.8 0c3.6 6 5.7 14.7 5.5 23.3-0.9-8.3-2.1-16.9-5.5-23.3zm-3.3 1.7q-1 3.1-2 6.2c-0.9 2.9-1.7 5.8-2.3 9-0.6 3.1-0.8 6.5-0.4 9.8-0.7-4.4-0.3-9.1 0.6-13.2 0.9-4.2 2.4-8 4.1-11.8zm-5.5 0.5c-0.6 0.2-1.1 1-1.5 1.7-2.5 3.9-4.8 8.2-6.5 13.2-0.9 2.5-1.6 5.3-1.3 8.1-0.3-2.4-0.1-5.1 0.5-7.3 0.3-1.1 0.7-2.1 1.2-3.1 2-4.8 4.4-9.3 7.6-12.6zm-2.5-0.5c-3.6 4.2-6.5 10.1-8.8 16.5-0.8 2.2-1.5 4.6-1.7 7.2 0 0.4-0.1 0.9 0.1 1.2-0.1-2.2 0.2-4.4 0.6-6.4 1.7-8.2 5.3-15.4 9.8-18.5zm0.3 1.4c-3.5 5.2-6.7 11.4-8.9 18.6-0.4 1.5-0.8 3-0.9 4.6 0.2-4 1.5-7.7 2.7-11 1.9-4.9 3.9-9.8 7.1-12.2zm1.2 0.6q-2.8 6.2-5 13.1c-1 3.1-1.9 6.4-1.8 10-0.2-0.9-0.1-1.9 0-2.8 1.3-7.6 3.5-14.7 6.8-20.3zm0.9 0.2c-1.5 3.2-3 6.4-4.2 10-1.2 3.6-2.1 7.7-2.2 11.8-0.4-1.8 0-3.9 0.4-5.7 1.4-6.2 3.1-12.4 6-16.1zm1.7-0.8c-1.8 5.6-3.5 11.5-3.9 17.9-0.1 1.7 0 3.5 0.3 5.2-0.5-0.9-0.7-2.3-0.6-3.6 0-2 0.2-3.9 0.5-5.8 0.6-5 1.5-9.8 3.7-13.7zm1.1 0c-1.5 5-3 10.2-3.4 15.8-0.3 2.7-0.2 5.3-0.5 7.9-0.2-1.3-0.2-2.8-0.1-4.2 0.2-3.6 0.9-7 1.7-10.4q1-4.5 2.3-9.1zm-2.5 0.8c-1 3.3-2.1 6.6-2.8 10.3-0.6 3.6-0.9 7.5-0.4 11.2-0.8-4.2-0.2-8.9 0.6-13.2 0.5-3.2 1.2-6.3 2.6-8.3zm3.2 1c-1.4 3-2.4 6.5-2.9 10.2-0.7 4-0.9 8.1-1 12.2 0-8.4 1.4-16.7 3.9-22.4zm2.2-0.9c-1 4.4-2 8.8-2.8 13.3-0.4 2.7-0.7 5.7-0.4 8.5-0.4-1.5-0.4-3.2-0.3-4.8 0.3-6 1.5-11.9 3.5-17zm-0.4-1.3c1.5 1.7 2.5 4.7 3 7.8 0.4 3.1 0.4 6.4 0.2 9.6-0.1 2-0.3 4-0.7 5.9 0.4-3.8 0.6-7.6 0.3-11.4-0.2-3.8-1-7.6-2.8-11.9zm3.5-1.1c2.9 6.8 3.9 16.1 2.6 24.2-0.2 1-0.4 2.1-0.8 2.9 0.4-4.3 0.6-8.7 0.3-13-0.2-4.7-0.9-9.5-2.1-14.1zm-2.9 1.7c0.6 0.2 1 1.4 1.2 2.4 1 5 0.8 10.5 0 15.6-0.4 2.7-0.9 5.4-1.8 7.7-0.1-1.2 0.2-2.4 0.4-3.6 0.8-3.5 1.4-7.2 1.6-10.9 0.2-3.8-0.2-7.7-1.4-11.2zm-1.3-0.3c0.3 1 0.4 2.2 0.5 3.3 0.2 4.7-0.4 9.4-1.1 14-0.5 3-1 6.1-0.7 9.1-0.5-4.2 0.1-8.6 0.7-12.7 0.7-4.2 1.3-8.6 0.6-13.7zm-3.1 1.1c-0.2 1.4-0.6 2.7-1 4.1-0.9 3.2-1.4 6.7-1.9 10.2-0.5 3.8-0.9 7.9-0.1 11.5-0.5-2.7-0.6-5.6-0.4-8.5 0.2-2.8 0.7-5.6 1.3-8.2 0.7-3.6 1.7-7.2 2.1-9.1zm-2.4-1c-0.9 3.6-2 7.1-3 10.7-0.6 1.9-1.1 3.8-1.4 5.9-0.5 3.2-0.4 6.6-0.4 10-0.6-2.6-0.4-5.5-0.1-8.2 0.9-7.1 2.9-13.6 4.9-18.4zm-0.7-0.4c-2.7 6.1-5.4 12.4-6.9 19.8-0.5 2.6-0.9 5.4-0.6 8.1-0.5-2.4-0.2-5 0.2-7.4 1.3-7.4 3.7-14.1 7.3-20.5zm11.1-5.1c0.7-0.1 1.3 0.3 1.9 0.7 2 1.6 3.7 4.3 5 7.5 1.2 3.2 2 6.9 2.4 10.8 0.2 2.5 0.2 5-0.3 7.3 1.1-4.2 1-9.4-0.2-13.6q-0.4-1.5-0.9-2.8c-0.9-2.2-1.8-4.3-3-6.1-1.2-1.7-2.6-3-4.9-3.8zm0 2.3c0.7 0.6 1.3 1.6 1.8 2.6 1.8 3.5 2.9 7.9 3.7 12.4 0.4 2.7 0.8 5.4 0.8 8.2 0 2.8-0.2 5.6-1 8.1 0.9-5.1 0.9-10.8 0.1-16-0.8-5.2-2.5-9.9-5.4-15.3zm-2 0.9c1.1 0.6 2 2.2 2.8 3.9 2.3 5.4 3.6 12.1 3.7 18.8 0 2.9-0.2 6-1 8.5 0.7-5.4 0.8-11.1 0.2-16.5-0.7-5.5-2.2-10.7-5.7-14.7zm-1.7-0.1c0.6 0.5 1.1 1.5 1.5 2.5 1.2 3.2 2 7 2.3 10.9 0.3 3.8 0.2 7.8-0.1 11.6-0.2 3.1-0.6 6.2-1.7 8.6 0-1.2 0.3-2.3 0.6-3.4 0.9-3.6 1.3-7.6 1.4-11.6 0-3.1-0.2-6.3-0.7-9.3-0.5-3-1.4-5.8-3.3-9.3zm-0.7 1.5c1.4 4.9 1.3 10.7 0.9 16.2-0.5 5.4-1.4 10.8-1.5 16.3-0.2-4.8 0-9.6 0.4-14.4 0.2-3.4 0.6-6.7 0.8-10.1 0.2-3.4 0.1-6.9-0.6-8zm-1.9 0.2c0.1 1 0 2-0.1 3-0.4 4.5-1 9-1.4 13.5-0.4 4.5-0.5 9.2 0.3 13.5-1-9.7-0.5-19.8 1.2-30zm-1-0.7c-0.3 1.6-0.6 3.1-0.9 4.7-1.6 8.3-2.1 17.2-1.5 25.9-0.9-5-0.9-10.5-0.2-15.6 0.6-5.2 1.7-10.1 2.6-15zm-2-0.1c-0.1 1.1-0.3 2-0.5 3-2 8.1-3.4 16.7-3.6 25.4 0 1.7 0 3.3 0.4 4.8-1.1-4.4-1-9.5-0.4-14.2 0.7-4.6 1.9-9 2.9-13.4 0.5-2.1 0.9-4.3 1.2-5.6zm8.3-2.5c0.9-0.3 1.7 0.7 2.4 1.7 1.8 2.7 3.5 5.6 4.8 9 1.3 3.4 2.2 7.2 2.5 11.3 0.2 3.6-0.1 7.2-0.6 10.7q-0.4 2.1-0.8 4.2c1.5-6.5 1.6-14.1 0.1-20.6-1.3-5.9-3.8-10.8-8.4-16.3zm-2.5 1.4c1 0.3 1.8 1.6 2.5 2.9 2.4 4.4 3.9 10.3 4.2 16.4 0.4 6.1-0.3 12.3-1.8 17.8 0 0.2-0.1 0.3-0.2 0.4-0.1 0.1-0.2-0.1-0.2-0.2 1.2-4.1 1.6-8.7 1.5-13.2 0-4.5-0.5-9-1.3-13.3-0.8-4.4-1.9-9-4.7-10.8zm-1.9-1.9c1.1 4.5 2.3 9.1 2.8 14 0.7 5.8 0.4 11.9-0.2 17.7-0.4 3.7-0.9 7.6-0.3 11.3-0.6-3-0.8-6.3-0.5-9.4 0.2-2.4 0.7-4.7 0.9-7.1 0.5-4.2 0-8.4-0.4-12.6-0.4-3.9-0.8-7.8-2.3-13.9zm-2.4 3.6c0.4-0.2 0.8 0 1.1 0.5 0.3 0.4 0.5 1.1 0.7 1.8 0.7 3.4 0.5 7.2 0 10.8-0.6 5-1.8 9.7-2.6 14.6-0.9 5-1.4 10.2-0.8 15.2-0.8-4.8-0.4-10 0.4-14.9 0.8-4.9 1.9-9.6 2.5-14.5 0.5-5 0.5-10.4-1.3-13.5zm-486.1 403.9c-1.9-0.9-3.2-3-3.6-5.2-0.4-2.2 0-4.5 0.6-6.7 0.7-2.4 1.7-4.8 1.5-7.2-0.3-3.1-2.3-5.6-2.9-8.5-0.8-3.8 0.7-7.8 2.6-11.1 1.9-3.3 4.3-6.4 5.5-10 0.2-0.8 0.4-1.7 0.3-2.5-0.1-1.1-0.6-2.1-0.8-3.1-1-3.8 1.5-7.5 3.9-10.5-0.8 2.1-1.6 4.2-1.2 6.4 0.3 1.5 1.1 2.8 1.6 4.2 0.8 2.8-0.1 5.9-1.4 8.4-1.4 2.6-3.2 4.9-4.4 7.5-1.2 2.6-1.8 5.4-1.7 8.2 0 1.6 0.3 3.3 1.2 4.5 1 1.1 2.4 1.7 3.1 2.9 1 1.7 0.5 3.8-0.4 5.6-0.8 1.7-1.8 3.4-1.8 5.3 0 3.5 3.4 6.4 2.7 9.8-0.6 2.4-2.6 3.1-4.8 2zm-0.6 5.4c-1.3-2.1-1.4-4.9-1.1-7.4 0.3-2.5 0.8-5.1 0.3-7.6-1.4-7.6-11-10.7-13.1-18.1-1.5-5.3 1.3-10.9 4.1-15.6 0.8-1.4 1.6-2.8 1.7-4.3 0.2-3.4-2.9-6-3.1-9.4-0.2-1.8 0.7-3.7 2.2-4.7-0.9 1.9 0.3 4.2 1.9 5.6 1.6 1.4 3.5 2.4 4.7 4.1 1.4 2.2 1.3 5.2 0.5 7.8-0.8 2.5-2.2 4.8-3.3 7.2-1 2.4-1.7 4.9-1.7 7.5 0.1 2.6 1.1 5.2 3 6.9 1.5 1.4 3.7 2 4.8 3.9 0.5 0.9 0.8 2 0.9 3 0.7 3.7 1.4 7.4 1.4 11.2 0 3.7-0.8 7.5-3.2 9.9zm1.4 1.8c-3.4-2.3-4.4-7.2-4.2-11.5 0.2-3.4 0.8-6.8 2-10 0.7-2.1 1.9-4.4 3.8-5.5 1-0.6 2.2-0.9 3.3-1.4 3.1-1.4 5.4-4.8 5.6-8.5 0.1-1.9-0.4-3.8-0.5-5.7-0.5-5.8 1.7-11.8 5.8-15.8 2.4-2.4 5.7-4.7 5.6-8.2 0.7 2.4 0.7 5.1-0.2 7.5-1.1 2.9-3.3 5.2-4.8 7.9-1.8 3.3-2.5 7.2-1.9 11 0.3 2.2 1.1 4.5 0.6 6.7-0.8 3-3.6 4.6-5.8 6.6-2.5 2.1-4.5 5.1-4.5 8.4 0 1.2 0.3 2.5 0.2 3.7 0 1.4-0.6 2.8-1.1 4.1-1.3 3.3-2.7 6.5-3.9 10.7zm-1.9-4.2c3.1-2.8 3.3-7.8 2.6-12-0.7-3.4-1.8-6.6-3.4-9.6-1-2-2.5-4-4.5-4.9-1.1-0.4-2.3-0.5-3.5-0.8-3.3-0.9-6-3.9-6.7-7.5-0.4-1.9-0.2-3.8-0.3-5.7-0.4-5.9-3.4-11.5-8-14.7-2.7-2-6.3-3.7-6.7-7.2-0.4 2.5 0.1 5.2 1.3 7.3 1.5 2.8 4 4.6 5.8 7.1 2.3 3 3.5 6.8 3.5 10.6-0.1 2.2-0.5 4.6 0.3 6.7 1.2 2.8 4.2 4 6.7 5.6 2.7 1.6 5.1 4.3 5.6 7.6 0.1 1.2 0 2.5 0.3 3.7 0.3 1.4 1 2.6 1.7 3.8 1.8 3 3.5 6 5.3 10zm244.9-408.4c1.3 0.6 2.2 2.1 2.5 3.5 0.3 1.5 0 3.1-0.4 4.5-0.5 1.6-1.2 3.2-1.1 4.9 0.2 2 1.7 3.7 2.1 5.7 0.6 2.5-0.5 5.1-1.9 7.4-1.3 2.2-3 4.2-3.9 6.7-0.1 0.6-0.3 1.1-0.2 1.7 0 0.7 0.4 1.4 0.6 2 0.7 2.6-1.1 5.1-2.8 7.1 0.6-1.4 1.1-2.9 0.8-4.3-0.2-1-0.8-1.9-1.1-2.8-0.6-1.9 0-4 1-5.7 1-1.7 2.3-3.2 3.1-5 0.9-1.7 1.3-3.6 1.3-5.5 0-1.1-0.2-2.2-0.9-3-0.7-0.8-1.7-1.1-2.2-2-0.7-1.1-0.3-2.5 0.2-3.7 0.6-1.1 1.4-2.3 1.4-3.6 0-2.3-2.5-4.2-2-6.5 0.4-1.6 1.9-2.1 3.5-1.4zm0.4-3.6c1 1.4 1 3.3 0.8 5-0.2 1.7-0.6 3.4-0.3 5.1 1.1 5.1 7.9 7.1 9.4 12.1 1.2 3.6-0.9 7.3-2.9 10.5-0.6 0.9-1.2 1.8-1.2 2.9-0.2 2.2 2.1 4 2.2 6.2 0.1 1.3-0.5 2.6-1.6 3.2 0.7-1.3-0.2-2.8-1.3-3.8-1.1-0.9-2.5-1.5-3.4-2.7-1-1.5-0.9-3.5-0.4-5.2 0.6-1.7 1.6-3.2 2.4-4.9 0.7-1.5 1.3-3.3 1.2-5-0.1-1.7-0.7-3.5-2.1-4.6-1.1-0.9-2.7-1.4-3.5-2.6-0.3-0.6-0.5-1.3-0.6-2.1-0.5-2.4-1-4.9-1-7.4 0-2.5 0.6-5.1 2.3-6.7zm-1-1.2c2.4 1.5 3.1 4.8 3 7.7-0.1 2.3-0.6 4.6-1.4 6.7-0.6 1.5-1.4 2.9-2.7 3.7-0.8 0.4-1.6 0.6-2.4 0.9-2.2 1-3.9 3.3-4 5.7-0.1 1.3 0.2 2.6 0.3 3.9 0.4 3.9-1.2 7.9-4.1 10.6-1.7 1.6-4.1 3.1-4 5.4-0.6-1.6-0.5-3.4 0.1-5 0.8-1.9 2.4-3.4 3.5-5.3 1.2-2.2 1.7-4.8 1.3-7.3-0.2-1.5-0.8-3.1-0.4-4.5 0.5-2 2.6-3.1 4.2-4.4 1.7-1.5 3.1-3.5 3.1-5.7 0-0.8-0.2-1.7-0.1-2.5 0-0.9 0.4-1.8 0.8-2.7 1-2.2 1.9-4.4 2.8-7.2zm1.3 2.8c-2.2 1.9-2.3 5.2-1.8 8.1 0.5 2.2 1.3 4.4 2.4 6.4 0.8 1.4 1.8 2.7 3.3 3.3 0.7 0.3 1.6 0.3 2.4 0.5 2.4 0.6 4.3 2.7 4.8 5.1 0.3 1.2 0.2 2.5 0.3 3.8 0.2 3.9 2.4 7.7 5.7 9.9 1.9 1.3 4.5 2.4 4.8 4.8 0.3-1.7-0.1-3.5-0.9-5-1.1-1.8-2.9-3-4.2-4.7-1.6-2-2.5-4.5-2.5-7.1 0-1.5 0.4-3.1-0.2-4.5-0.9-1.9-3-2.7-4.8-3.7-1.9-1.2-3.7-2.9-4-5.1-0.1-0.9 0-1.7-0.2-2.5-0.2-1-0.7-1.8-1.3-2.6-1.2-2-2.5-4-3.8-6.7zm-3.9 14.6c1.4 0.6 2.3 2.1 2.6 3.5 0.2 1.5 0 3.1-0.5 4.5-0.4 1.6-1.2 3.2-1 4.9 0.2 2 1.6 3.7 2.1 5.7 0.5 2.5-0.5 5.1-1.9 7.4-1.4 2.2-3.1 4.2-3.9 6.7-0.2 0.6-0.3 1.1-0.3 1.7 0.1 0.7 0.4 1.4 0.6 2 0.7 2.6-1.1 5.1-2.8 7.1 0.6-1.4 1.2-2.8 0.9-4.3-0.2-1-0.8-1.8-1.1-2.8-0.6-1.9 0-4 1-5.7 0.9-1.7 2.2-3.2 3.1-5 0.8-1.7 1.2-3.6 1.2-5.5 0-1.1-0.2-2.2-0.9-3-0.6-0.8-1.7-1.1-2.2-2-0.7-1.1-0.3-2.5 0.3-3.7 0.6-1.1 1.3-2.3 1.3-3.6 0-2.3-2.5-4.2-1.9-6.5 0.4-1.6 1.8-2.1 3.4-1.4zm0.4-3.6c1 1.4 1 3.3 0.8 5-0.2 1.7-0.6 3.4-0.2 5.1 1 5.1 7.9 7.1 9.4 12.1 1.1 3.6-0.9 7.3-3 10.5-0.5 0.9-1.1 1.8-1.2 2.9-0.1 2.2 2.1 4 2.3 6.2 0.1 1.3-0.6 2.6-1.6 3.2 0.6-1.3-0.3-2.8-1.4-3.8-1.1-0.9-2.5-1.5-3.3-2.7-1.1-1.5-1-3.5-0.4-5.2 0.6-1.7 1.6-3.2 2.3-4.9 0.8-1.5 1.3-3.3 1.3-5-0.1-1.7-0.8-3.5-2.1-4.6-1.2-0.9-2.7-1.4-3.5-2.6-0.4-0.6-0.5-1.3-0.7-2-0.5-2.5-1-5-0.9-7.5 0-2.5 0.5-5.1 2.2-6.7zm-1-1.2c2.5 1.5 3.2 4.8 3 7.7-0.1 2.3-0.5 4.6-1.4 6.7-0.5 1.5-1.3 2.9-2.7 3.7-0.7 0.4-1.6 0.6-2.3 1-2.3 0.9-3.9 3.2-4.1 5.6 0 1.3 0.3 2.6 0.4 3.9 0.3 3.9-1.3 7.9-4.2 10.6-1.7 1.6-4.1 3.1-4 5.4-0.5-1.6-0.5-3.4 0.2-5 0.7-1.9 2.3-3.4 3.4-5.3 1.3-2.2 1.8-4.8 1.4-7.3-0.3-1.5-0.8-3-0.5-4.5 0.6-2 2.6-3.1 4.2-4.4 1.7-1.5 3.2-3.5 3.2-5.7 0-0.8-0.2-1.7-0.2-2.5 0.1-0.9 0.5-1.8 0.9-2.7 0.9-2.2 1.9-4.4 2.7-7.2zm1.4 2.8c-2.2 1.9-2.4 5.2-1.8 8.1 0.4 2.2 1.2 4.4 2.3 6.4 0.8 1.4 1.8 2.7 3.3 3.3 0.8 0.3 1.6 0.3 2.5 0.5 2.3 0.6 4.3 2.7 4.8 5.1 0.3 1.2 0.1 2.5 0.2 3.8 0.3 3.9 2.5 7.7 5.7 9.9 2 1.3 4.6 2.4 4.8 4.8 0.3-1.7 0-3.5-0.9-5-1-1.8-2.8-3-4.2-4.7-1.6-2-2.5-4.5-2.4-7.1 0-1.5 0.3-3.1-0.3-4.5-0.8-1.9-3-2.7-4.8-3.7-1.9-1.1-3.6-2.9-4-5.1-0.1-0.8 0-1.7-0.2-2.5-0.2-1-0.7-1.8-1.2-2.6-1.3-2-2.5-4-3.8-6.7zm-5.2-25.7c1.4 0.9 2.3 3.1 2.6 5.3 0.3 2.3 0 4.6-0.4 6.8-0.5 2.4-1.2 4.9-1.1 7.4 0.2 3.1 1.6 5.7 2.1 8.7 0.6 3.8-0.5 7.8-1.9 11.2-1.4 3.3-3.1 6.5-3.9 10.2-0.2 0.8-0.3 1.7-0.3 2.6 0.1 1.1 0.5 2 0.7 3.1 0.7 3.8-1.2 7.6-2.9 10.6 0.6-2 1.2-4.2 0.9-6.4-0.2-1.5-0.8-2.8-1.1-4.3-0.6-2.9 0-6 1-8.6 0.9-2.6 2.2-4.9 3.1-7.6 0.8-2.6 1.3-5.5 1.2-8.4 0-1.6-0.2-3.3-0.9-4.5-0.6-1.2-1.6-1.8-2.2-3-0.7-1.7-0.3-3.9 0.3-5.6 0.6-1.8 1.4-3.5 1.3-5.5 0-3.5-2.4-6.5-1.9-9.9 0.4-2.5 1.8-3.2 3.4-2.1zm0.4-5.5c1 2.2 1 5 0.8 7.6-0.2 2.5-0.5 5.1-0.2 7.7 1 7.7 7.9 10.9 9.4 18.4 1.1 5.4-0.9 11.1-2.9 15.9-0.6 1.4-1.2 2.8-1.3 4.4-0.1 3.4 2.2 6.1 2.3 9.5 0.1 1.9-0.6 3.8-1.6 4.9 0.7-2-0.2-4.4-1.4-5.8-1.1-1.4-2.5-2.4-3.3-4.2-1-2.2-1-5.3-0.4-7.9 0.6-2.6 1.6-4.9 2.4-7.4 0.7-2.3 1.2-4.9 1.2-7.6-0.1-2.6-0.8-5.3-2.1-7-1.2-1.4-2.7-2.1-3.5-3.9-0.4-1-0.5-2.1-0.7-3.1-0.5-3.8-0.9-7.5-0.9-11.4 0-3.8 0.6-7.7 2.2-10.1zm-1-1.9c2.5 2.4 3.2 7.4 3.1 11.8-0.1 3.4-0.6 6.9-1.4 10.1-0.6 2.3-1.4 4.5-2.8 5.7-0.7 0.6-1.5 0.9-2.3 1.4-2.3 1.4-3.9 4.9-4 8.6-0.1 2 0.2 3.9 0.3 5.8 0.3 6-1.2 12.1-4.1 16.1-1.8 2.5-4.2 4.8-4.1 8.3-0.5-2.4-0.5-5.1 0.2-7.5 0.8-3 2.3-5.3 3.4-8.1 1.3-3.3 1.8-7.4 1.4-11.2-0.3-2.3-0.8-4.6-0.4-6.8 0.5-3 2.5-4.7 4.1-6.7 1.8-2.2 3.2-5.2 3.2-8.6 0-1.3-0.2-2.5-0.2-3.8 0.1-1.4 0.5-2.8 0.9-4.1 0.9-3.3 1.9-6.6 2.7-11zm1.4 4.3c-2.2 2.9-2.4 8-1.8 12.3 0.4 3.4 1.2 6.7 2.4 9.7 0.7 2.1 1.8 4.2 3.2 5 0.8 0.5 1.7 0.5 2.5 0.9 2.4 0.9 4.3 4 4.8 7.6 0.3 1.9 0.2 3.9 0.3 5.8 0.2 6 2.4 11.7 5.6 15 2 2 4.6 3.7 4.8 7.3 0.3-2.6 0-5.3-0.8-7.5-1.1-2.8-2.9-4.7-4.3-7.2-1.6-3-2.4-6.9-2.4-10.7 0-2.3 0.3-4.7-0.3-6.8-0.8-2.9-3-4.2-4.7-5.7-2-1.8-3.7-4.4-4-7.8-0.2-1.3-0.1-2.5-0.3-3.8-0.2-1.4-0.7-2.7-1.2-3.9-1.3-3-2.5-6.1-3.8-10.2z"/>
	</g>
</svg>