<svg version="1.2" xmlns="http://www.w3.org/2000/svg" viewBox="0 0 741 518" width="1920" height="1342">
	<title>NewPage</title>
	<defs>
		<clipPath clipPathUnits="userSpaceOnUse" id="cp1">
			<path d="m0 0h741v518h-741z"/>
		</clipPath>
	</defs>
	<style>
		.s0 { fill: #042648 } 
	</style>
	<g id="Page 1" clip-path="url(#cp1)">
		<path id="Layer3" class="s0" d="m741 371.5v146.5h-741v-140.1c6.8 3.5 14.6 7.2 19 13.1 3.6 4.6 4.7 10.2 5.9 15.5 3 12.9 7.3 25.5 18.7 36.7 15.5 2 30.3 6.7 43.1 13.8 7.5 4.1 14.4 9.1 22.4 12.7 8.1 3.6 17.8 5.7 26.6 3.4 9.1-2.3 15.8-8.7 25.1-10.6 9.9-1.9 20.2 1.9 28.3 6.7 8.2 4.8 15.5 10.7 31.8 10.1 11.7 6.9 28.6 4.3 41.5-1 13-5.3 24.6-12.9 38.7-16 14.7-3.2 31.2-0.7 49.6 6.6 14.6-4.2 29.6-7.3 45-9.4 4.7-0.7 9.5-1.2 14.3-0.7 16.1 1.6 28.7 14.4 47.5 13.4 12 0.4 24.1-1.8 34.6-6.4 2.1-0.9 4.1-1.9 5.4-3.4 1.9-2.2 1.9-5.1 3.8-7.2 1.9-2.2 5.2-3.4 8.4-4.2 36.5-9 76 6.8 116.7 2.5 12.8-3.5 18.6-14.8 23.2-24.8 4.6-10 11.2-21.2 24.3-24 3.7-0.7 7.5-0.7 11.2-1.4 11.9-2.2 19.5-10.8 28.2-17.5 7.9-6.1 17.4-11 27.7-14.3z"/>
	</g>
</svg>