<svg version="1.2" xmlns="http://www.w3.org/2000/svg" viewBox="0 0 741 518" width="1920" height="1342">
	<title>NewPage</title>
	<defs>
		<clipPath clipPathUnits="userSpaceOnUse" id="cp1">
			<path d="m0 0h741v518h-741z"/>
		</clipPath>
	</defs>
	<style>
		.s0 { fill: #042648 } 
	</style>
	<g id="Page 1" clip-path="url(#cp1)">
		<path id="Layer24" class="s0" d="m289.1 481.5c-1.9-1.7-3.2-5.1-4.1-8.5-1.8-6.9-2.5-14.7-1.9-22.2 0.5-7.3 2.2-14.2 2.7-21.5 0.5-5.9 0.2-12 0.4-18 0.2-5.9 1.1-12.2 3.4-16.5-2 4.7-2.4 10.9-2.3 16.8 0.1 5.8 0.6 11.7 0.1 17.5-0.7 9.3-4 18.1-3.4 27.5 0.1 2.7 0.6 5.3 1.1 7.9 1.1 5.4 2.3 10.8 4 17zm-1.8-78c-0.1-0.4-0.4-0.6-0.6-0.5q0-3.4 0.1-6.7 0 3.2-0.2 6.5-0.6-3.3-1.3-6.5 0.5 3 0.7 6.2-0.7-2.9-1.7-5.6 0.5 2.9 1.3 5.6c-0.6-0.8-1.1-1.8-1.5-2.9q0.5 2.1 1.2 3.9c0.2 0.3 0.3 0.6 0.5 0.8 0.2 0.3 0.5 0.5 0.8 0.6 2.2 1 4.7-0.5 6.1-3.8-1 1.5-2.1 2.6-3.4 3.4q1.5-2.4 2.7-5.1-1.4 2.4-3.1 4 0.9-2.2 1.8-4.5-1.3 1.8-2.5 3.7c0.2-0.4 0.3-0.9 0.3-1.4-0.2 0.6-0.5 1.1-0.9 1.4-0.2-0.4-0.7-0.3-0.3 0.9zm-0.5 16.5c-0.5 0.5-1.2 0.3-1.7-0.1-1.2-1-2.1-3.2-2.2-5.5 0.4 1.7 1.1 3.3 2 4.3-0.7-1.3-1-3-0.8-4.7 0.3 1.6 0.9 3 1.6 4.1-0.4-0.9-0.6-2.1-0.6-3.2 0.3 1 0.8 2 1.3 2.8q-0.1-0.9-0.2-1.7c0.5 0.3 0.8 1 0.9 1.8 0.7-0.3 1.4-1.2 1.9-2.4-0.1 0.8-0.3 1.5-0.6 2.1q1.3-1.6 2.4-3.6c0 0.8-0.3 1.6-0.6 2.3q-0.3 0.9-0.7 1.8 1.1-1.2 2.1-2.4c-0.9 2.7-2.5 4.5-4.8 4.4zm-0.7 13.1c-1.2 0.1-2.4-0.8-3.2-2.3-0.8-1.6-1.2-3.8-1.1-5.9 0.3 2.4 0.9 4.6 1.7 6.6-0.5-1.5-0.7-3.4-0.6-5.2 0.4 2 1.2 3.9 2.1 5.4-1.1-1.9-1.7-4.8-1.6-7.5q0.8 2.8 1.6 5.5c-0.6-1.4-0.8-3.5-0.5-5.2q0.7 2.6 1.4 5.2c-0.1-0.5 0.1-1 0.3-1.3 0.3-0.2 0.6-0.2 0.9 0.2q0.8-0.7 1.6-1.2-0.4 1.1-0.8 2.2c1.2-0.8 2.3-2.3 3-4.2 0.1 1-0.2 2-0.7 2.8-0.4 0.8-0.9 1.4-1.2 2.2q0.9-0.9 1.8-1.8-0.6 1.7-1.4 3 0.3 0 0.7 0.1c-0.6 1.6-2 1.7-4 1.4zm-2.5 18.4c-1-0.3-2-1.3-2.6-2.7-0.4-1-0.6-2.3-0.8-3.5-0.2-1.5-0.2-3.1-0.2-4.6 0.4 2.6 1.1 5 2 7.2-1.1-2.6-1.3-6.1-0.5-8.9 0.2 2.8 0.3 5.6 1 8.2-0.3-2.9-0.3-6.1 0.8-8.3q-0.3 3.7-0.1 7.4c0-1.3 0.3-2.7 0.8-3.7q0.1 1.2 0.2 2.5l0.7-1.2 0.2 1.5c1.6-0.9 2.8-3 4-5-0.6 1.9-1.5 3.6-2.3 5.2q1.7-1.9 3.3-3.7-1.5 3.2-3.1 6.4 1.2-0.4 2.3-0.8c0.2-0.1 0.4-0.1 0.5 0.2 0 0.2-0.1 0.5-0.1 0.7-0.8 1.6-1.8 2.7-2.9 3.1-0.7 0.3-1.5 0.5-3.2 0zm1.9 19c-0.8 1-1.9 0.8-2.8 0.3-1-0.5-1.9-1.3-2.7-2.4-0.7-1.2-1.3-2.8-1.4-4.5 0.7 2.8 2.3 5 4 5.7-0.2 0.3-0.6 0-0.8-0.4-1.2-1.7-2.4-4.1-2.3-6.9 0.7 2.9 1.9 5.5 3.4 7.4-1.4-2.2-2.1-5.7-1.9-9 0.7 2.8 1.6 5.4 2.8 7.7-0.9-3-1.3-6.5-0.6-9.6q0.8 4.5 1.6 8.9c0-1.4-0.1-2.7 0.1-4.1q0.3 1.3 0.4 2.5c0.9-2.2 1.4-4.8 1.6-7.4 0.5 2.8-0.2 5.8-0.8 8.6q1.2-3 2.6-5.7c-0.2 2.8-1.2 5.2-2 7.6q1.1-1.5 2.4-2.4c-0.6 1.6-2 1.4-3.6 3.7zm-1 19.4c1.3-2.2 1.6-5.8 1.5-9.4-0.3-7.1-1.9-14.7-4.6-21.7-2.6-6.9-6.2-13-8.8-19.8-2.2-5.6-3.6-11.4-5.6-17.1-1.9-5.7-4.5-11.4-8-14.9 3.2 4 5.4 9.8 7 15.4 1.6 5.6 2.8 11.4 5 16.8 3.4 8.8 9 16.2 11.2 25.4 0.7 2.6 1 5.2 1.2 7.9 0.6 5.5 0.9 11 1.1 17.4zm-20.8-75.2c0-0.4 0.2-0.7 0.5-0.7q-1-3.2-2-6.4 0.8 3.2 1.9 6.2-0.3-3.3-0.6-6.6 0.4 3.1 1.2 6.2-0.2-3 0-5.9 0.3 3 0.3 5.8c0.4-1 0.6-2.1 0.7-3.3q0.1 2.2-0.1 4.1c-0.1 0.4-0.1 0.7-0.2 0.9-0.1 0.4-0.4 0.7-0.6 0.9-1.8 1.6-4.7 0.8-6.9-1.9 1.3 1.1 2.7 1.8 4.1 2.2q-2.1-1.8-4-4.1 2 1.9 4.2 3-1.6-1.9-3.1-3.9 1.8 1.5 3.5 2.9c-0.3-0.4-0.5-0.8-0.7-1.3 0.4 0.6 0.8 1 1.2 1.1 0.2-0.4 0.6-0.5 0.6 0.8zm5.2 15.7c0.7 0.3 1.3-0.1 1.7-0.7 0.9-1.3 1-3.6 0.4-5.8 0.2 1.7 0 3.4-0.6 4.7 0.3-1.4 0-3.2-0.6-4.8 0.2 1.7 0 3.2-0.4 4.4 0.2-0.9 0.1-2.1-0.3-3.3 0 1.2-0.2 2.2-0.5 3.1q-0.1-0.8-0.3-1.6c-0.3 0.4-0.4 1.2-0.2 2-0.9-0.2-1.8-0.8-2.6-1.8 0.3 0.7 0.7 1.3 1.2 1.8q-1.7-1.2-3.3-2.7c0.2 0.8 0.7 1.4 1.2 2q0.6 0.7 1.2 1.5-1.4-0.8-2.7-1.7c1.6 2.3 3.7 3.6 5.8 2.9zm4.5 12.3c1.2-0.2 2.1-1.4 2.4-3.2 0.4-1.7 0.1-3.9-0.6-5.8 0.3 2.3 0.4 4.6 0.2 6.8 0.1-1.7-0.3-3.6-0.9-5.3 0.2 2.1 0 4.2-0.4 5.8 0.5-2.1 0.2-5-0.7-7.6l0.1 5.8c0.2-1.6-0.2-3.6-1-5.2q0 2.7 0.1 5.4c-0.1-0.5-0.4-0.9-0.7-1.1-0.3-0.2-0.6 0-0.7 0.3q-1-0.3-1.9-0.6 0.7 1 1.3 1.9c-1.4-0.5-2.8-1.6-4-3.2 0.2 1 0.8 1.9 1.4 2.5 0.6 0.6 1.3 1.1 1.9 1.8q-1.2-0.7-2.3-1.3 1 1.4 2.2 2.5-0.3 0.2-0.6 0.3c1 1.4 2.3 1.1 4.2 0.2zm7.7 16.9c0.9-0.5 1.5-1.8 1.7-3.3 0.1-1.1 0-2.4-0.2-3.6-0.3-1.5-0.7-3-1.2-4.5 0.4 2.6 0.5 5.1 0.2 7.4 0.3-2.7-0.5-6.1-2.1-8.6 0.7 2.7 1.3 5.5 1.4 8.2-0.6-2.8-1.4-6-3.1-7.8q1.3 3.5 2.2 7.1c-0.4-1.3-1.1-2.5-1.9-3.3q0.3 1.2 0.6 2.4-0.5-0.4-1.1-0.9 0.2 0.8 0.3 1.5c-1.7-0.4-3.5-2-5.2-3.6 1.1 1.6 2.4 3 3.6 4.3q-2.1-1.3-4.2-2.6 2.4 2.6 4.8 5.2-1.2-0.1-2.4-0.1c-0.2 0-0.4 0-0.4 0.3 0 0.3 0.2 0.5 0.3 0.7 1.2 1.3 2.5 2 3.6 2.1 0.8 0.1 1.7 0.1 3.1-0.9zm3.7 14c1 0.8 2 0.2 2.7-0.5 0.8-0.8 1.5-1.8 1.9-3.1 0.4-1.3 0.5-3 0.1-4.8 0.1 3-0.8 5.5-2.2 6.7 0.3 0.2 0.5-0.2 0.6-0.6 0.7-2 1.1-4.6 0.3-7.3 0.1 3-0.3 5.8-1.2 8.1 0.7-2.5 0.4-6.1-0.8-9.1 0.2 2.8 0 5.6-0.4 8.1 0-3.1-0.7-6.6-2.2-9.3q0.5 4.4 1 8.9c-0.4-1.3-0.7-2.6-1.3-3.8q0.1 1.2 0.4 2.5c-1.5-1.9-2.8-4.2-3.7-6.7 0.4 2.9 1.9 5.5 3.3 8q-2-2.5-4.1-4.7c1 2.6 2.5 4.7 4.1 6.7q-1.5-1.1-3-1.6c1 1.4 2.2 0.8 4.5 2.5zm-8.8 4.9c2.5-0.9 4.9-3.5 7.1-6.4 4.3-5.7 7.8-12.6 10.1-19.8 2.3-6.9 3.4-14 5.6-20.9 1.8-5.7 4.4-11.2 6.5-16.8 2-5.6 3.6-11.7 3.1-16.6 0 5.1-2 11-4.3 16.4-2.3 5.4-4.9 10.7-6.7 16.2-2.8 8.9-3.1 18.3-7.2 26.7-1.1 2.5-2.6 4.7-4 6.9-3.1 4.7-6.3 9.1-10.2 14.3zm31.2-71.6c0.2-0.3 0.6-0.4 0.8-0.2q1.3-3.1 2.4-6.2-1.2 3-2.3 6 1.8-2.8 3.7-5.5-1.7 2.6-3 5.5 1.7-2.4 3.7-4.5-1.6 2.5-3.4 4.7c0.9-0.5 1.8-1.3 2.6-2.2q-1.3 1.8-2.7 3.2c-0.2 0.2-0.4 0.4-0.7 0.6-0.3 0.2-0.7 0.2-1 0.2-2.4 0.1-4.2-2.3-4.2-5.8 0.4 1.7 1 3.2 1.9 4.4q-0.5-2.8-0.6-5.8 0.4 2.8 1.4 5-0.1-2.4 0-4.9 0.5 2.2 0.9 4.4c0-0.5 0.1-1 0.3-1.5-0.1 0.7 0 1.3 0.2 1.7 0.4-0.3 0.8 0 0 0.9zm-5.8 15.5c0.3 0.7 1 0.8 1.7 0.6 1.5-0.5 3.1-2.2 4-4.3-1 1.5-2.2 2.6-3.4 3.3 1.1-1 2-2.5 2.5-4.1-0.9 1.3-2 2.4-3.1 3.2 0.8-0.7 1.4-1.7 1.9-2.8-0.8 0.9-1.6 1.6-2.4 2.1q0.5-0.7 0.9-1.5c-0.5 0.2-1.1 0.7-1.5 1.4-0.6-0.6-0.9-1.7-0.8-3-0.3 0.8-0.4 1.5-0.3 2.2q-0.6-2-0.9-4.2c-0.3 0.7-0.3 1.5-0.3 2.3q0 0.9 0 1.9-0.5-1.5-1.1-2.9c-0.2 2.7 0.7 5.1 2.8 5.8zm-4.3 12.4c1.1 0.6 2.5 0.2 3.9-0.9 1.3-1.2 2.5-3 3.2-5-1.2 2-2.6 3.9-4.1 5.4 1.1-1.2 2-2.9 2.5-4.6-1.1 1.7-2.5 3.2-3.9 4.2 1.8-1.3 3.4-3.7 4.2-6.3q-1.7 2.2-3.5 4.5c1.2-1.1 2.1-2.9 2.5-4.7q-1.7 2.2-3.3 4.4c0.2-0.5 0.3-1 0.1-1.4-0.1-0.3-0.4-0.4-0.8-0.1q-0.5-0.9-1-1.7l-0.2 2.3c-0.8-1.2-1.2-3-1.1-5.1-0.5 1-0.6 2-0.5 2.9 0.1 0.9 0.4 1.6 0.4 2.6l-1-2.5q-0.1 1.8 0.2 3.4-0.4-0.1-0.7-0.2c-0.1 1.7 1.1 2.3 3.1 2.8zm-4.6 18c1 0.1 2.3-0.4 3.4-1.6 0.8-0.7 1.5-1.8 2.1-2.9 0.7-1.3 1.4-2.7 1.9-4.2-1.3 2.3-2.9 4.3-4.5 5.9 1.9-1.9 3.4-5.1 3.8-8-1.2 2.5-2.5 5.1-4.1 7.2 1.3-2.5 2.6-5.5 2.5-8q-1.2 3.6-2.8 6.9c0.5-1.2 0.7-2.6 0.6-3.7q-0.5 1.1-1 2.2-0.2-0.6-0.3-1.3-0.4 0.6-0.7 1.3c-1.1-1.4-1.5-3.8-1.8-6.1-0.2 2 0 3.8 0.1 5.6q-0.8-2.3-1.6-4.7l0.4 7.1q-0.9-0.8-1.8-1.6c-0.1-0.1-0.3-0.2-0.5 0-0.2 0.2-0.2 0.5-0.2 0.7 0.1 1.7 0.7 3.2 1.5 4 0.6 0.5 1.2 1 3 1.2zm-8.9 16.9c0.3 1.2 1.4 1.4 2.4 1.3 1.1-0.1 2.3-0.5 3.4-1.2 1.1-0.8 2.3-2.1 3.1-3.7-1.8 2.4-4.1 3.8-5.9 3.8 0.1 0.4 0.5 0.2 0.8 0 1.8-1.2 3.8-3 4.8-5.5-1.8 2.4-3.9 4.3-6 5.5 2.2-1.5 4.2-4.5 5.2-7.6-1.7 2.3-3.5 4.4-5.5 6.1 1.9-2.5 3.6-5.6 4.2-8.7q-2.5 3.8-4.9 7.6c0.6-1.2 1.1-2.5 1.5-3.8q-0.7 1.1-1.3 2.2c0-2.4 0.4-5 1.3-7.5-1.5 2.4-2 5.5-2.5 8.3q0-3.2-0.2-6.3c-0.9 2.7-1 5.3-1 7.8q-0.5-1.8-1.4-3.1c0 1.7 1.3 2 2 4.8zm-50.6-432c4.6 0.7 9.4 1.4 13.6 3.4 4.3 2.1 8 5.7 9 10.3-4.6-2.8-9.8-4.6-15.2-5.2 0.1 3.3 3.5 5.3 6.4 6.9 3 1.7 5.9 3.8 7.8 6.6 1.8 2.9 2.5 6.8 1 9.8-0.8 1.7-3 3-4.4 1.9-0.5-0.4-0.7-1-0.9-1.6-1-3.3-0.1-6.9-1.2-10.2-1.8-5-7.8-7.1-13.1-8-1.4 5-0.8 10.6 1.6 15.2 3 5.9 8.6 9.9 13.5 14.3 1.6 1.4 3.1 4 1.6 5.4-0.6 0.6-1.4 0.7-2.2 0.7-7.4 0.3-13.4-6.2-15.8-13.1-2.3-6.9-2.1-14.4-3.3-21.7-0.2-1.4-0.7-3.1-2.1-3.7-2.9 7.3-3.5 15.4-1.8 23 0.5 2.2 1.3 4.5 0.9 6.8-0.3 2.2-2.1 4.5-4.4 4.5-1.9 0-3.5-1.8-4.1-3.6-0.5-1.9-0.3-3.9 0-5.8q1.9-14.3 3.7-28.5c-2.5 1.9-3.4 5.4-4.1 8.5-2.1 9-4.8 19-12.7 23.8-1.5 0.9-3.4 1.6-5 0.7-1.7-1-2-3.6-1.1-5.4 0.9-1.8 2.6-3.1 4.1-4.5 4.2-4.1 6.9-9.3 9.6-14.5 0.9-1.7 1.9-3.6 1.8-5.6 0-2-1.5-4-3.5-4 1.1 3.3 0 7.4-2.7 9.7-1.3 1-3 1.7-4.6 1.3-1.5-0.5-2.6-2.5-1.7-3.9 0.6-0.9 1.7-1.2 2.5-1.8 1.8-1.5 1.8-4.2 1.2-6.4-0.5-2.2-1.4-4.5-0.8-6.7 0.7-2.9 3.6-4.6 6.4-5.5 3.6-1.2 7.5-1.6 11.1-0.5 3.6 1.2 6.7 4.1 8.9 7.4zm414 385.9c-7.5-2.1-15.4-3.2-23.2-3.1-4.7 0.1-9.8 0.4-13.7-2.2-1-0.6-1.9-1.7-1.5-2.8 0.2-0.5 0.6-0.8 1.1-1.1q3.1-2.3 6.7-4c-1.5-1.4-0.4-4.1 1.5-4.9 1.8-0.9 3.9-0.5 5.9-0.1-1.4-1.8 1-4.4 3.3-4.7 2.3-0.3 4.8 0.5 6.9-0.4-2-1.9-2.8-4.9-2.2-7.6 2 1.2 4.3 1.9 6.6 2-0.1-1.5-0.1-3.1 0.6-4.3 0.7-1.3 2.6-2 3.8-1.1 0.9 0.9 1 2.6 2.2 3 2.4 0.9 2.2-4.6 4.7-5.4 2.5-0.7 5 3.8 6.9 2.1 1-1 0.3-3 1.4-3.9 1.5-1.1 3.3 1.2 5 1 1-0.1 1.7-0.9 2.4-1.6 2.7-3 5.8-5.8 9.6-7.2 3.8-1.3 8.5-0.9 11.3 2.1-3.2 4.9-7.7 9.1-12.8 12.1-3.1 1.9-6.6 3.3-8.9 6.1-2.3 2.8-2.8 7.5 0.1 9.7 1.4 1 3.3 1.2 4.9 2 4 1.9 5.5 7.8 2.7 11.3-2.1 2.9-6 3.8-9.3 5.1-4.7 1.8-8.9 4.8-12.1 8.6-3.2-2.4-5.8-5.7-3.9-10.7zm-420.3 74.5c-5.9-2.5-12.6-3.2-18.9-1.8 0.9-1.7-0.7-3.6-2.1-4.9-6.9-6.4-14.5-13.1-23.8-14.3-1.6-0.2-3.2-0.3-4.3-1.4-1.9-1.9-0.4-5.3 1.8-6.9 3.6-2.6 8.3-2.7 12.6-3.8 4.3-1.1 8.9-4.3 8.7-8.7-0.4-5.8-8.1-7.6-13.9-7.8 2.5-3.2 5.1-7.3 3.3-11-1.9-3.7-7.3-4.1-11.1-2.4-3.9 1.7-7 4.7-11 6.1 1.7-3.6-2.4-7.6-6.4-7.6-3.9 0.1-7.3 2.8-10.4 5.3 1.1-3.9-2.5-7.8-6.5-8.6-4-0.8-8 0.7-11.8 2.1-3-5.7-8.4-5.5-11.4-3.5-3.1 2-6.4 5-9.8 3.6-1.5-0.5-2.5-1.8-4-2.4-4.4-1.8-8.2 3.6-9.9 8-6.6 0-16.8-6-19.8-0.1-5.9 11.7 15.2 21.4 20.6 33.8-3.7 3-7.6 6.1-12.3 7.4-4.6 1.2-10.3 0.1-12.9-3.9-0.8-1.2-1.3-2.7-2.3-3.8-2.2-2.4-6.1-2.5-9.2-1.6-5.6 1.7-10.4 6.1-12.5 11.6-0.3 1-0.6 2.1-0.2 3 0.9 2.1 4 1.6 6.3 1.1 12.8-3 25.2 6 38.3 7.5 10 1.2 20.1-2 30-0.8 20 2.3 37.2 22 56.8 17.5 10.9-2.5 19.5-12.2 30.6-12.9 1.1 2.3 2.2 4.5 15.5 1.2z"/>
	</g>
</svg>