<svg version="1.2" xmlns="http://www.w3.org/2000/svg" viewBox="0 0 741 518" width="1920" height="1342">
	<title>NewPage</title>
	<defs>
		<clipPath clipPathUnits="userSpaceOnUse" id="cp1">
			<path d="m0 0h741v518h-741z"/>
		</clipPath>
	</defs>
	<style>
		.s0 { fill: #2c82b5 } 
	</style>
	<g id="Page 1" clip-path="url(#cp1)">
		<path id="Layer15" class="s0" d="m107.2 280.6q0.4 0.4 0.7 0.9 0.1 0.1 0.2 0.2 0 0.1 0 0.2c0.1 0.1 0.2 0.2 0.2 0.2q0.1 0.1 0.1 0.2 0.2 0.4 0.5 0.9 0.1 0.1 0.2 0.3 0 0.1 0.1 0.3 0.1 0.2 0.2 0.4 0.1 0.1 0.1 0.2 0 0.1 0 0.1 0.1 0.1 0.1 0.1c0 0.2-0.1 0.4-0.1 0.5 0.1 0.1 0.2 0.2 0.1 0.3q0 0.1 0 0.1c-0.1 0-0.1 0.2-0.1 0.3q-0.1 0.1-0.1 0.3-0.7 1.1-1.3 2.2-0.2 0.3-0.4 0.6c-0.3 0.4-0.6 0.7-1 0.9 0.3 0.1 0.5 0.1 0.8 0q0.3-0.1 0.6-0.4 0.3-0.2 0.7-0.5c0.4-0.3 0.8-0.7 1.2-1.1 0.3-0.5 0.6-0.9 0.9-1.3 0.3-0.5 0.7-0.9 1.1-1q0.5 0 1.1 0.1c2.3 0.3 4.3 1.4 6.4 2.6 0.4 0.2 0.8 0.3 1.1 0.4q0.8 0.2 1.6 0.4c1.3 0.3 2.7 0.5 4 0.5q0.8-0.1 1.6-0.2c1-0.1 2-0.3 3.1-0.4 1.7-0.3 3.5-0.7 5.2-1.3 1.7-0.5 3.4-1.3 4.7-2.4-0.9-0.9-2.9-2.2-3.9-2.7-0.7-0.5-1.5-0.7-2.3-0.9-3.5-1-7.3-1.5-10.8-0.4-3.1 0.3-6.1 1.2-8.8 2.7-0.4 0.3-0.8 0.5-1.2 0.7-0.2 0-0.4 0.1-0.6 0-0.5-0.1-1 0.1-1.5 0.3-0.7-0.6-1-1.5-1.5-2.2-0.5-0.7-1.1-1.3-1.9-1.8-0.2-0.1-0.5-0.3-1.1-0.3zm15.7 1.2c-1.1-2.2-3.3-3.8-5.8-4.1q0.8 0.4 1.5 0.9 0.4 0.3 0.7 0.6 0.6 0.6 0.8 1.4 0.1 0.1 0.1 0.3c-0.1 0.2-0.3 0.3-0.5 0.4q-0.6 0.3-1.1 0.8c0.3-0.1 0.6-0.2 0.8-0.2 0.3 0 0.7 0.1 0.9 0.2 0.2 0.2 0.3 0.4 0.5 0.6 0.5-0.4 1.1-0.7 2.1-0.9zm9.2 0c0.3-0.2 0.2-0.5 0.2-0.9-0.2-0.8-0.5-1.6-0.9-2.4-0.4-0.7-1-1.4-1.8-1.8 0.2 0.3 0.1 0.7-0.1 1-0.2 0.2-0.4 0.5-0.6 0.7 0.1 0.2 0.1 0.5-0.1 0.7-0.2 0.2-0.4 0.3-0.7 0.4 0 0.1-0.1 0.3-0.2 0.3q-0.2 0.1-0.3 0.2c-0.3 0-0.7 0.1-1 0.1-0.1 0.2-0.4 0.3-0.7 0.3-0.2 0.1-0.5 0-0.7 0.1-0.1 0.1-0.3 0.2-0.4 0.3-0.2 0-0.4 0-0.5 0.1 0 0.2-0.2 0.4-0.4 0.5-0.3 0.3-0.7 0.4-1 0.7q2.9 0.1 5.9 0.1 1.2 0 2.3 0c0.4 0 0.7-0.1 1-0.4zm-1.4 6.7c-0.5 0.8-1 1.7-1.8 2.3q-0.7 0.5-1.9 0.7c0.3-0.1 0.4-0.3 0.5-0.5 0.1-0.1 0.2-0.2 0.2-0.4q0.1 0 0.2-0.1 0-0.1 0.1-0.1 0-0.1 0-0.2c-0.1 0-0.1-0.1-0.2-0.2q0.2-0.1 0.2-0.3c0-0.1-0.1-0.2-0.3-0.3q0.2-0.1 0.3-0.3 0.2-0.2 0-0.4c0.9-0.1 1.9-0.2 2.7-0.2zm-11-1.2q-1.3 0.3-2.7 0.1c0.3 0.4 0.7 0.6 1.3 0.6-0.1 0.3-0.2 0.6-0.4 0.8-0.3 0.5-0.6 0.9-1 1.3-0.5 0.3-1 0.6-1.6 0.6 0.8 0.2 1.7 0.1 2.4-0.2 0.8-0.3 1.5-0.8 2-1.5q0.2-0.2 0.4-0.4c0.2 0.1 0.4 0.1 0.6 0l0.7-0.2c-0.7-0.3-1.4-0.6-1.7-1.1zm-2.5-4.3q-0.3-0.2-0.7-0.3c0.1 0.2 0.1 0.4 0.1 0.5 0.1 0 0.3-0.1 0.6-0.2zm-1.2 0.6c-0.1-0.2-0.3-0.2-0.5-0.3q-0.1 0-0.2 0 0.1 0.1 0.2 0.3 0 0.1 0 0.2c0.2 0 0.3 0 0.5-0.2zm-1 0.6c-0.2-0.1-0.5-0.3-0.8-0.3q0.1 0.1 0.1 0.1 0.1 0.1 0.1 0.2-0.1 0.1-0.1 0.1-0.1 0.1-0.1 0.3-0.1 0 0 0 0 0 0 0c0.2-0.1 0.5-0.1 0.8-0.4zm-1.3 0.5q0-0.1-0.1-0.2-0.1 0-0.2-0.1-0.2-0.1-0.4-0.2c0.1 0.1 0.2 0.2 0.2 0.3q0.1 0.2 0 0.4c0.1 0 0.3 0 0.5-0.2zm3.7 2.1q-0.2 0.3-0.4 0.5 0 0 0 0 0 0 0 0 0-0.3-0.2-0.6 0.3 0 0.6 0.1zm-1.7-0.7q-0.1 0.2-0.1 0.4c0 0.1 0 0.2-0.1 0.2q0-0.1-0.1-0.2-0.1-0.3-0.2-0.5 0.3 0 0.5 0.1zm-1.1-0.5q0 0.3-0.1 0.6 0 0 0 0.1-0.1-0.4-0.3-0.7 0.2 0 0.4 0zm-1.2-0.2q0 0.2-0.1 0.5 0 0.1 0 0.1 0 0 0-0.1-0.1-0.2-0.3-0.5c0.2 0 0.4 0 0.4 0zm-0.7-0.1q0.1 0.3 0.2 0.5-0.2 0-0.3-0.1-0.1-0.1-0.3-0.2 0-0.1 0-0.1 0 0 0.1 0 0.1-0.1 0.3-0.1z"/>
	</g>
</svg>