<svg version="1.2" xmlns="http://www.w3.org/2000/svg" viewBox="0 0 741 518" width="1920" height="1342">
	<title>NewPage</title>
	<defs>
		<clipPath clipPathUnits="userSpaceOnUse" id="cp1">
			<path d="m0 0h741v518h-741z"/>
		</clipPath>
	</defs>
	<style>
		.s0 { fill: #042648 } 
	</style>
	<g id="Page 1" clip-path="url(#cp1)">
		<path id="Layer12" class="s0" d="m113.4 75.8c3.2 4.7 7.4 8.7 10.9 13.2 3.5 4.5 6.3 9.9 6.1 15.6-0.3 6.4-4.4 11.9-7.9 17.3-3.6 5.4-6.8 11.8-5 18 1.7 6.4 8 10.3 11.3 16 2.5 4.5 3 10.1 1.3 14.9-1.7 4.9-5.6 8.9-10.3 10.8-0.5-5.1 5.8-8 7.7-12.8 1.3-3.3 0.2-7.1-1.7-10.1-1.8-3-4.4-5.4-6.6-8.2-2-2.6-3.7-5.5-4.9-8.6-0.6-1.5-1.1-3.1-1.1-4.7 0.1-1.7 0.8-3.2 1.4-4.8 1.4-3.3 2.9-6.6 4.7-9.6 3.2-5.4 7.8-10.5 8.3-16.7 0.4-5.1-2.1-10-5.1-14.1-3-4.1-6.7-7.6-9.4-11.9-1.1-1.7-1.9-4.4 0.3-4.3zm1.9 4.8c7 3.3 14.2 6.8 19.5 12.5 3.4 3.6 5.8 8 7.8 12.6 1.4 3.2 2.6 6.5 2.9 9.9 0.3 3.5-0.4 6.9-0.4 10.3 0 4.1 1.1 8.2 3.1 11.8 1.9 3.5 5 6.6 8.9 7.4 1.8 0.4 3.7 0.2 5.6 0q8.4-0.8 16.8-1.6c0.9-0.1 1.9-0.2 2.6-0.8 0.8-0.6 1.1-1.8 0.4-2.4-0.7-0.6-1.7-0.4-2.5-0.1-7.6 2.3-15.6 3-23.4 2-1.1-0.1-2.2-0.3-3-0.8-1.2-0.8-1.8-2.1-2.4-3.3-1.6-3.5-3.3-7.1-3.6-10.9-0.2-2.7 0.2-5.5 0.3-8.3 0.1-7.2-2.3-14.2-6.1-20.3-5.6-9.2-14.6-16.7-25.1-19-0.7-0.1-1.6-0.2-1.4 1zm-2.4-2.2c3.2 4.5 5.8 9.7 6.2 15.2 0.4 5.5-1.5 11.4-5.9 14.7-1.7 1.4-3.8 2.3-5.8 3.5-6.2 3.6-11.1 10.3-10.5 17.5 0.2 2.6 1.1 5 1.5 7.5 0.7 5.6-1.3 11.4-5.3 15.3-1.8 1.7-4 3.1-6.4 3.3-1.8 0.2-3.5-0.3-5.2-0.4-2.6-0.1-5.3 0.5-7.5 1.8-0.9 0.5-1.8 1.1-2.8 1.1-1 0.1-2.1-0.8-1.9-1.7 0.1-0.7 0.7-1.1 1.3-1.4 5.8-2.9 13.2 0.2 19-2.8 3.2-1.6 5.4-4.9 6.2-8.4 0.9-3.5 0.6-7.2 0-10.7-0.5-2.5-1.1-5-0.8-7.4 0.3-2.2 1.4-4.3 2.5-6.2 2.1-3.4 4.7-6.7 8-9 2.1-1.5 4.5-2.6 6.4-4.2 4.1-3.4 6.1-9 5.1-14.2-0.8-4.1-3.3-7.6-4.9-11.5-0.3-0.6-0.5-1.3-0.3-2 0.2-0.7 1.2-1.1 1.1 0zm6.2 70.1c1.4 3.4 0.6 7.4-0.3 11-0.7 2.7-1.6 5.5-3.6 7.4-0.5 0.6-1.2 1.1-1.9 1.1-0.8 0-1.6-0.6-1.5-1.4 0.1-0.2 0.2-0.4 0.3-0.6 1.3-2.4 3.5-4.4 4.5-7 0.7-1.8 0.7-3.9 0.6-5.9-0.1-1.1-0.2-2.2 0-3.3 0.3-1 1.5-2.4 1.9-1.3zm-1.4 11.9c0.9 0.5 1.3 1.6 1.7 2.6 0.8 2.2 1.5 4.7 1 7-0.2 0.9-0.6 1.8-1.2 2.4-0.2 0.2-0.4 0.3-0.5 0.3q-0.2-0.1-0.3-0.2c-0.8-1-0.6-2.5-0.4-3.7 0.3-1.7 0.4-3.5-0.2-5.1-0.3-0.8-0.8-1.6-0.1-3.3zm3.4-38c2.1 1.3 4.1 2.9 5.7 4.8 1.6 2 2.7 4.4 2.8 6.9 0 0.5-0.1 1.1-0.6 1.3-0.4 0.1-0.8-0.2-1-0.5-0.2-0.4-0.2-0.9-0.3-1.3-0.2-3-2.1-5.8-4.7-7.2-0.9-0.5-1.9-0.9-2.6-1.7-0.6-0.8-0.6-2.2 0.7-2.3zm6.4 7.8c0.4 0.4 0.5 0.9 0.5 1.4 0.1 0.5 0 1-0.1 1.5-0.2 0.8-0.4 1.5-0.8 2.1-0.1 0.2-0.2 0.3-0.4 0.3-0.1-0.1-0.2-0.2-0.3-0.3q0-0.2 0.1-0.5c0.2-0.7 0.5-1.4 0.7-2.1q0.3-1.1 0.3-2.4zm-7.2 37.9c0.5 0.3 0.9 0.7 1.2 1.3 0.4 0.6 0.3 1.4 0 2.1-0.1 0.1-0.2 0.2-0.3 0.2-0.1-0.1-0.1-0.2-0.1-0.3 0-0.7-0.1-1.5-0.5-2-0.2-0.1-0.3-0.3-0.4-0.5q-0.2-0.3 0.1-0.8zm1.1 1.9c0.3 0 0.7 0.1 0.9 0.2 0.4 0.3 0.8 0.6 0.9 1.1q0 0.1-0.1 0.2c0 0.1-0.1 0.1-0.2 0.1q-0.1-0.1-0.2-0.2c-0.3-0.3-0.5-0.7-0.9-0.9q-0.1-0.1-0.2-0.1c-0.2-0.1-0.2-0.3-0.2-0.4zm-2.5-1.3c-1 1.4-2 2.9-2.5 4.6-0.2 0.7-0.3 1.4-0.7 2q0 0.1 0 0.1c-0.1 0.1-0.3 0-0.3-0.1-0.2-0.2-0.3-0.5-0.2-0.7 0-0.3 0.1-0.5 0.2-0.8q0.8-1.9 1.8-3.8 0.2-0.4 0.4-0.7c0.3-0.3 0.6-0.6 1.3-0.6zm-2.7 3.8c-0.1-0.1-0.3 0.1-0.5 0.2-0.4 0.2-0.8 0.5-1.1 0.9-0.1 0.2-0.2 0.5-0.4 0.6q-0.1 0.1-0.2 0.1c-0.1 0-0.2-0.1-0.2-0.2q0-0.2 0.1-0.3c0.3-0.6 0.8-1.1 1.3-1.4q0.3-0.2 0.6-0.2c0.2-0.1 0.5 0 0.4 0.3zm-0.2 1.8c0.2 0.6 0.6 1.1 1.1 1.6 0 0 0.1 0.1 0 0.2q0 0 0 0.1c-0.1 0-0.3 0-0.4 0q-0.2-0.1-0.3-0.3c-0.4-0.3-0.6-0.8-0.4-1.6zm8.6-49.1q0.9 0 1.8 0c0.8 0 1.7 0 2.5 0.3 0.6 0.1 1.3 0.6 1.4 1.2q0 0.1 0 0.2-0.1 0.1-0.2 0.1c-0.3 0.2-0.7-0.2-1.1-0.4-0.7-0.4-1.5-0.5-2.3-0.4-0.4 0-0.8 0-1.2-0.1-0.4-0.1-0.8-0.4-0.9-0.9zm3.3 0.9c0.6 0.3 1.1 0.9 1.2 1.5q0 0.3-0.1 0.5c0 0.1-0.1 0.1-0.1 0.1q-0.1 0-0.2 0c-0.4-0.5-0.5-1.2-0.9-1.7-0.1-0.2-0.3-0.5 0.1-0.4zm-22.9-13.8c2.3 1.8 3.8 4.6 4.1 7.5 0.1 1.2 0 2.5-0.9 3.3q-0.1 0.2-0.4 0.2c-0.3 0.1-0.6-0.1-0.7-0.4-0.1-0.4-0.1-0.7-0.1-1 0.2-2.1 0.3-4.3-0.8-6-0.3-0.5-0.7-0.9-1-1.4-0.6-0.9-0.8-1.9-0.2-2.2zm3.4 5.6c0.5-0.1 1.1 0.1 1.5 0.4 0.5 0.4 0.8 0.9 1.1 1.3 0.3 0.5 0.6 1 0.8 1.6 0.1 0.2 0.1 0.5 0 0.8-0.1 0.3-0.3 0.5-0.6 0.5-0.4 0-0.6-0.4-0.7-0.8q-0.4-0.9-0.8-1.9c-0.3-0.6-0.6-1.3-1.3-1.9zm-15.3 33.1c0.9 2.9 0.5 6-0.9 8.7-1.4 2.6-3.9 4.7-6.8 5.6-0.3 0.1-0.8 0.2-1-0.2-0.1-0.2 0.1-0.5 0.2-0.7 0.4-0.5 1-0.7 1.5-1 3.3-1.6 5.9-4.9 6-8.6 0-0.9-0.1-1.9 0-2.9 0.1-1 0.7-2.1 1-0.9zm-1.7 9.3c0.3 0.6 0.2 1.2 0.1 1.8-0.2 1.3-0.4 2.7-1.1 3.8-0.3 0.5-0.8 1-1.4 0.8 0-0.4 0.1-0.9 0.2-1.4q0.5-1.6 1.1-3.2c0.2-0.7 0.5-1.4 1.1-1.8zm24.3-23.2c5.3 0.8 10.5 2.1 15.3 4.4 4.8 2.4 9.1 5.8 11.9 10.3 2.8 4.5 4 10.2 2.5 15.3-0.4 1.3-1.2 2.7-2.5 2.7-1.2 0-2-1.2-2.1-2.3-0.2-1.1 0.2-2.3 0.5-3.4 0.7-3.5 0-7.4-1.9-10.5-1.5-2.3-3.6-4.1-5.7-5.8-1.9-1.7-3.8-3.3-6-4.5-3-1.5-6.4-2.2-9.6-3.2-1.1-0.4-2.4-1.1-2.4-3zm2.8-10.6c-4.6 4.1-7.5 9.8-9.1 15.8-1.6 5.9-2 12.1-2.1 18.3 0 3.1-0.3 6.7-2.9 8.4-0.3 0.1-0.5 0.3-0.8 0.2-0.3-0.2-0.4-0.4-0.5-0.7-0.7-2.4-0.3-5 0-7.5 1.3-9.7 2.8-19.7 7.5-28.4 1.7-3.1 4-6.3 7.9-6.1zm-21.8-3.7c-5.2 2.3-9.2 7.2-10.3 12.7-0.8 3.8-0.3 7.8-1 11.7-0.2 0.6-0.4 1.3-0.9 1.6-1.7-2.9-1.2-6.5-0.7-9.8 0.8-4.4 1.8-8.9 4.2-12.7 2.4-3.8 6.3-6.8 8.7-3.5zm46.8-18.6c6.4 0.9 12.6 3.9 17.2 8.5 2.1 2.2 4 4.8 4.5 7.9 0.1 0.7 0.1 1.4-0.2 2-0.4 0.7-1.2 1.1-1.8 0.8-0.5-0.3-0.8-0.9-1-1.4-0.5-1.6-1.1-3.2-1.9-4.7-3-5.2-9.1-7.8-14.5-10.4-1.2-0.6-2.5-1.3-2.3-2.7zm3.4 15.8c-4.5 4.2-7.4 9.9-8.1 16-0.1 0.5-0.1 1-0.4 1.5-0.2 0.4-0.7 0.8-1.3 0.7-0.5-0.1-0.9-0.6-0.9-1.1-0.1-0.6 0.1-1.1 0.2-1.6 1.7-5.2 3.4-10.6 6.8-14.9 0.9-1.1 2.2-2.2 3.7-0.6zm-3.8 33.5c2.2 0.4 4.4 1 6.2 2.3 1.8 1.3 3.2 3.5 2.9 5.7 0 0.4-0.3 1-0.7 0.9-1-2.1-2-4.3-4-5.5-0.8-0.5-1.7-0.7-2.5-1.2-0.9-0.4-1.6-1.2-1.9-2.2zm6.1 4.1c0.6 0.4 0.8 1.2 0.8 1.9 0 1.3 0 2.7-0.7 3.9-0.1 0.3-0.4 0.6-0.7 0.4q-0.1-0.1-0.1-0.2c-0.3-0.9 0-1.8 0.1-2.7 0.3-1.1 0.3-2.4 0.6-3.3zm-13.9-10.6c-0.5 4.7-0.3 9.8 2.2 13.9 0.3 0.3 0.5 0.8 0.2 1-0.2 0.2-0.5 0.2-0.7 0.1-1.2-0.4-1.7-1.9-2-3.1-0.6-2.7-0.9-5.4-0.9-8.1 0.1-1.5 0.2-3.1 1.2-3.8zm-0.5 7.6c-0.7 1.4-0.8 3-1.4 4.4 0 0.1-0.1 0.3-0.3 0.2-0.1 0-0.1-0.1-0.2-0.1-0.3-0.6-0.1-1.3 0.1-1.9q0.2-0.7 0.5-1.4c0.2-0.5 0.6-1.1 1.3-1.2zm-1.6 3.1c-0.3 0-0.6 0-0.8 0.2-0.1 0.1-0.2 0.3-0.4 0.5-0.1 0.1-0.3 0.2-0.5 0.2q-0.1 0-0.1-0.1-0.1 0-0.1-0.1c0-0.3 0.3-0.7 0.6-0.8 0.4-0.2 0.8-0.2 1.3 0.1zm1.7-7c0.6 0.7 1.5 1 2.3 1.6q0.7 0.4 1.2 1c0.2 0.2 0.5 0.5 0.4 0.8q-1.3-0.7-2.6-1.6c-0.5-0.3-1.1-0.8-1.3-1.8zm2.1 2.1c0.4 0.5 0.7 1.1 0.7 1.7 0 0.1-0.1 0.2-0.2 0.3-0.1 0-0.2-0.1-0.2-0.3-0.2-0.6-0.3-1.2-0.3-1.7zm2.7-22.2q0.7 1.5 1.6 2.9c0.1 0.2 0.3 0.5 0.5 0.7 0.3 0.3 0.7 0.5 0.6 0.9-0.3 0.1-0.7 0-1-0.2-0.2-0.3-0.4-0.5-0.7-0.8-0.7-1-1.5-2.1-1-3.5zm-2.4 2.6q-1 1.5-2.1 2.9c-0.4 0.5-0.8 1-1.4 1.3-0.1 0.1-0.2 0.1-0.3 0.1q-0.1-0.1-0.1-0.2c-0.2-0.4 0-0.9 0.3-1.2 0.9-1.3 2.1-2.3 3.6-2.9zm3.5 0.4c0.1 0.7 0.1 1.4 0.4 2.1 0.1 0.1 0.2 0.2 0.2 0.3 0 0.1-0.1 0.2-0.2 0.3q-0.1 0-0.2-0.1c-0.5-0.2-0.6-0.8-0.6-1.3 0.1-0.6 0.3-1.1 0.4-1.3zm-6.1 2.4q-0.1 1-0.2 2.1c0 0.4 0 0.7-0.2 1-0.1 0.1-0.2 0.1-0.3 0q-0.1 0-0.1-0.1c-0.2-0.9-0.1-2 0.8-3zm19.4-26.2c-0.5 2.3-0.2 4.7 0.8 6.9 0.7 1.6 1.8 3 2.3 4.7 0.1 0.4 0.1 0.9-0.2 1.1-0.4 0.3-0.9-0.1-1.2-0.4-1.9-2.1-2.8-5-3.1-7.8-0.1-1.9 0-4 1.4-4.5zm3.5 1.5c1.9-0.2 3.5-1.4 5.4-1.8 2-0.4 4.3 0.2 5.8 1.6 0.3 0.2 0.4 0.6 0.2 0.7-0.1 0.1-0.3 0-0.4 0-3.3-1.3-7.1-1.4-11-0.5zm-3.3 6.6c-0.2 1.4-0.2 2.9 0 4.3 0.1 0.5 0.2 1 0.2 1.6 0.1 0.2 0 0.5-0.1 0.7-0.1 0.2-0.3 0.4-0.6 0.4-0.3 0-0.5-0.4-0.6-0.8-0.4-1.1-0.3-2.3-0.1-3.5 0.2-1 0.5-2 1.2-2.7zm-0.9-3.4q1 0.9 2.3 1.5c0.9 0.4 2 0.7 2.8 1.4q0.1 0.1 0.2 0.2c0 0.1 0 0.2-0.1 0.3q-0.1 0-0.1 0c-2.1-0.3-4-1.6-5.1-3.4zm-0.3-2.7q-0.5 2.1-1.1 4.2c0 0.2-0.2 0.6-0.4 0.6-0.2 0.1-0.5 0-0.6-0.2-0.2-0.2-0.2-0.4-0.2-0.6 0-0.7 0.3-1.3 0.7-1.9 0.4-0.8 0.8-1.6 1.6-2.1zm0.1 11.1q-0.6 1.5-0.8 3.1c-0.1 0.3-0.1 0.7-0.3 1q0 0-0.1 0.1c0 0-0.1 0-0.2-0.1-0.5-0.5-0.8-1.2-0.7-1.8 0.1-0.6 0.4-1.2 0.8-1.6 0.4-0.5 0.8-0.9 1.3-0.7zm-66.1 6.8c-1.5-0.5-3.2-0.1-4.7 0.3q-2.6 0.8-5.1 1.7c-3.1 1.2-6.4 2.7-7.8 5.7-0.2 0.4-0.5 0.9-0.9 1-0.5 0.1-1-0.4-1-1 0-0.5 0.3-0.9 0.6-1.4 2.2-2.8 5-5.3 8.3-6.5 1.9-0.7 3.9-0.9 5.8-1.2 2.3-0.3 4.6-0.6 4.8 1.4zm-7.7 0.7c-1.4 1-2 2.8-2.5 4.5-0.4 1.7-1 3.6-2.5 4.5q-0.1 0.1-0.2 0.1c-0.3 0-0.3-0.3-0.3-0.5 0.5-2.9 1.8-5.6 3.7-7.7 0.6-0.6 1.2-1.2 1.8-0.9zm-5.6 1c-0.5-0.5-1.3-0.6-2.1-0.7-1.9-0.2-3.8-0.2-5.7 0.2-0.3 0.1-0.6 0.1-0.9 0.4-0.3 0.3-0.3 0.7-0.4 1.2 0 0.2 0 0.4 0.1 0.5 0.2 0.3 0.5 0.2 0.8 0.1q1.2-0.3 2.3-0.9c0.6-0.3 1.3-0.6 2-0.8 1.6-0.2 3.3 0.9 3.9 0zm12 4.5c2.9 0.8 5.2 3.4 6.1 6.2 0.1 0.4 0.2 0.8 0.1 1.2q0 0.1-0.1 0.2c-0.2 0.3-0.5 0-0.7-0.3q-0.8-1.2-1.5-2.5c-0.1 0.6 0 1.2 0.3 1.7 0.1 0.3 0.2 0.5 0.3 0.8 0.1 0.3 0 0.6-0.2 0.7-0.3 0.2-0.6 0.1-0.8-0.1-0.2-0.2-0.2-0.5-0.3-0.8q-0.3-1.1-0.3-2.2c0-0.5 0-1.1-0.1-1.6-0.2-0.8-0.8-1.4-1.4-2-0.5-0.5-1-1-1.4-1.3zm-1.2 4.1c-1 1-2 1.9-2.8 3.1-0.8 1.1-1.3 2.5-1.3 3.9 0.1 0.8 0.3 1.7 0 2.5 0 0.2-0.1 0.4-0.3 0.4-0.4 0.3-0.8-0.2-1-0.7-0.5-1.7 0-3.5 0.5-5.3q-1.3 0.3-2.6 0.6c-0.2 0.1-0.4 0.1-0.6 0-0.5-0.1-0.6-0.7-0.3-1.1 0.2-0.4 0.7-0.6 1.2-0.7q1-0.2 2-0.1c0.2 0.1 0.5 0.1 0.7 0 0.4-0.1 0.6-0.5 0.8-0.9 0.8-1.4 2.1-2.5 3.7-1.7zm20.8 12.7c-0.8 0.1-1.4 0.8-1.8 1.4-1.3 1.8-2.6 3.7-3 5.8-0.2 1.2-0.2 2.4-0.5 3.5-0.1 0.3-0.2 0.6-0.5 0.8-0.3 0.2-0.7 0-1-0.2-0.2-0.3-0.3-0.7-0.4-1-0.3-2.2 1-4.4 2.2-6.2-1.2-0.5-2.5 0.6-3.7 0.3q-0.2-0.1-0.3-0.2c-0.1-0.2 0-0.6 0.2-0.8 0.5-0.5 1.3-0.8 2.1-0.9 0.7 0 1.5 0.1 2.3 0.3 1-2.2 2.8-4 4.4-2.8zm3.9-12.8c-0.2 1.1-0.1 2.2 0.3 3.1 0.4 1.1 1.2 1.9 1.9 2.8 1.2 1.3 2.3 2.7 3 4.3 0.8 1.6 1.2 3.4 0.8 5.1 0 0.1-0.1 0.3-0.2 0.4-0.1 0.1-0.4 0-0.5-0.1-0.2-0.2-0.2-0.4-0.3-0.6-0.4-1.3-0.5-2.8-1.1-4.1-0.1-0.2-0.2-0.5-0.4-0.6-0.6-0.3-1.2 0.5-1.9 0.6-0.1 0-0.3 0-0.4-0.1-0.2-0.2 0-0.7 0.2-0.8 0.3-0.2 0.7-0.3 0.9-0.6 0.3-0.4 0-1.1-0.3-1.5-0.5-0.8-1-1.6-1.6-2.3-0.3-0.4-0.7-0.7-1-1.1-0.9-1.3-0.5-3.1 0.6-4.5zm0 0c-0.2 1.1-0.1 2.2 0.3 3.1 0.4 1.1 1.2 1.9 1.9 2.8 1.2 1.3 2.3 2.7 3 4.3 0.8 1.6 1.2 3.4 0.8 5.1 0 0.1-0.1 0.3-0.2 0.4-0.1 0.1-0.4 0-0.5-0.1-0.2-0.2-0.2-0.4-0.3-0.6-0.4-1.3-0.5-2.8-1.1-4.1-0.1-0.2-0.2-0.5-0.4-0.6-0.6-0.3-1.2 0.5-1.9 0.6-0.1 0-0.3 0-0.4-0.1-0.2-0.2 0-0.7 0.2-0.8 0.3-0.2 0.7-0.3 0.9-0.6 0.3-0.4 0-1.1-0.3-1.5-0.5-0.8-1-1.6-1.6-2.3-0.3-0.4-0.7-0.7-1-1.1-0.9-1.3-0.5-3.1 0.6-4.5zm39.9 16.2c1.8-0.3 3.6-0.5 5.3-0.4 1.8 0.2 3.6 0.9 4.7 2.3 0.5 0.4 0.8 1 0.8 1.7 0.1 0.2 0 0.5-0.2 0.6-0.3 0.2-0.6-0.2-0.8-0.4-1.1-1.3-2.6-2.3-4.3-2.7-1.5-0.4-3.1-0.3-4.7-0.2-0.3 0-0.6 0-0.9-0.1-0.3-0.1-0.4-0.4 0.1-0.8zm-63.3-1.3c-1.4 0.3-2.9 0.7-4.3 1.3-1.5 0.6-2.8 1.4-3.8 2.5-1.7 1.8-2.5 4.4-2.1 6.8 0.1 0.6 0.3 1.2 0.9 1.4q0.1 0 0.2 0c0.2 0 0.2-0.3 0.1-0.5-0.5-1.8-0.4-3.7 0.5-5.2 0.2-0.5 0.5-1 0.9-1.4 0.4-0.7 1-1.3 1.6-1.8 1.5-1.2 3.5-1.6 5.2-2.3 0.5-0.2 1-0.5 0.8-0.8zm-8.1 4.5c-0.2 1.7 0.6 3.6 2 4.7q0.2 0.1 0.3 0.3c0 0.1 0 0.2-0.1 0.3-0.1 0.1-0.2 0.1-0.3 0-1.1-0.4-1.9-1.4-2.1-2.5-0.3-1.1-0.1-2.3 0.2-2.8zm-0.2-4.6c-1.6 1.4-2.7 3.3-3.1 5.4-0.2 0.8-0.3 1.7-1 2.2q-0.1 0-0.2 0.1c-0.1 0-0.2-0.2-0.2-0.3-0.2-0.6-0.1-1.3 0.1-2 0.4-1.3 1-2.5 1.8-3.6 0.5-0.8 1.2-1.5 2.6-1.8zm21.2-36c1.5 2.2 3.9 3.6 5.7 5.7 2.7 3.2 3.2 7.8 2.6 12-0.3 2.9-1.2 5.9-3.3 8-0.3 0.3-0.7 0.6-1.1 0.7-0.4 0.1-0.9-0.1-1.1-0.5-0.2-0.5 0.2-0.9 0.4-1.3 2.1-2.8 3.5-6.2 3.5-9.7 0.1-3.5-1.3-7.1-4-9.3-1.1-1-2.5-1.7-3.1-3-0.5-1-0.5-2.1 0.4-2.6zm6.4 9.5c0.3 2.8-0.4 5.7-1.9 8.1-0.5 0.8-1.2 1.7-2.1 1.9q-0.3 0.1-0.5 0-0.3-0.1-0.5-0.3c-0.4-0.5-0.4-1.2-0.1-1.8 0.2-0.4 0.7-0.7 1.1-1 2.3-1.7 3.2-4.8 4-6.9zm21.5-32.7c1.2 0.2 2.3 0.9 3.4 1.6 1.2 0.7 2.3 1.4 3.3 2.3 1.8 1.5 3 3.6 3.9 5.7 1.1 2.6 1.7 5.5 2.1 8.4 0.2 1.9 0.4 3.8 0.1 5.7-0.2 1.9-0.8 3.8-2 5.4-0.2 0.3-0.5 0.6-0.9 0.8-0.3 0.1-0.8 0.1-1.1-0.2-0.2-0.2-0.2-0.4-0.3-0.7-0.1-1 0.1-2 0.3-3 0.7-3.2 1-6.5 1-9.7 0-1.3-0.1-2.6-0.4-3.9-0.7-2.4-2.2-4.6-3.9-6.4-1.8-1.9-3.7-3.5-5.5-6zm10.8 19c-0.4 1.5-0.9 3-1.6 4.4-0.8 1.3-1.8 2.6-3.2 3.4-0.4 0.3-1.2 0.5-1.4 0-0.2-0.2-0.2-0.4-0.1-0.6 0.2-0.8 1-1.3 1.6-1.8 2.1-1.4 3.8-3.7 4.7-5.4zm27.9 29.2c1.4 1.3 3.5 1.6 5.4 2 1.9 0.4 4 0.9 5.2 2.5 0.3 0.6 0.5 1.4 0 1.8q-0.2 0.1-0.5 0.1c-0.9 0.1-1.7-0.4-2.3-1-0.7-0.5-1.3-1.1-2.1-1.5-0.8-0.3-1.6-0.2-2.5-0.4-1.9-0.4-3.6-2.1-3.2-3.5zm6 3.5c1 0.6 1.5 1.9 1.9 3 0.8 2.3 1.4 4.9 0.7 7.2-0.1 0.2-0.2 0.5-0.5 0.5q-0.5-3.1-1.2-6.1c-0.3 0.5-0.8 1-1.4 1.2-0.2 0-0.3 0.1-0.5 0-0.3 0-0.5-0.4-0.5-0.7 0-0.4 0.2-0.7 0.3-1 0.4-0.7 0.8-1.5 0.7-2.3-0.1-0.6-0.4-1-0.5-1.6-0.1-0.5-0.2-1 1-0.2zm-19.7-6.1c1.2-1.8 3.1-2.8 4.8-4 1.3-1 2.5-2.3 3.8-3.3 2.6-1.9 5.6-3 8.7-3.6 1.5-0.3 3.2-0.4 4.2 0.7 0.3 0.4 0.5 1 0.1 1.2-0.2 0.2-0.5 0.2-0.8 0.1-4.3-0.7-8.8 0.6-12.1 3.4 1 1 2.6 0.8 3.9 0.8 0.6 0 1.4 0.2 1.4 0.8 0.1 0.4-0.2 0.8-0.6 0.9-1.2 0.6-2.5-0.1-3.8-0.5-2.7-0.7-5.8 0.7-7.5 3-0.2 0.4-0.5 0.8-1 1-0.4 0.1-1-0.2-1.1-0.5zm12.9-9c1-1.2 2.4-2.1 4-2.6 1.5-0.4 3.2-0.6 4.2-1.7 0.1-0.2 0.3-0.4 0.3-0.6 0-0.4-0.3-0.6-0.6-0.8-0.3-0.1-0.6 0-1 0-2.4 0.5-4.4 2.4-6.7 3.3q0.2-0.7 0.3-1.4c0.1-0.5 0-1.1-0.5-1.2-0.3 0-0.6 0.4-0.7 0.8q-0.5 1.4-1 2.9c-0.2 0.5-0.4 1.1-0.2 1.6 0.2 0.5 1 0.7 1.9-0.3zm3.6-0.7q1.4 0.6 2.8 1.4c0.3 0.1 0.6 0.3 0.8 0.5 0.4 0.3 0.6 0.7 0.8 1.1q0.3 0.8 0.5 1.7c0 0.2 0 0.5-0.1 0.6-0.2 0.2-0.5 0.1-0.6 0-0.2-0.2-0.3-0.4-0.4-0.6-0.4-1.1-1.2-2-2.1-2.7-0.8-0.7-1.8-1.2-1.7-2zm-38.2 36.3c1.6 0.6 2.7 2.1 3.3 3.8 0.6 1.6 0.7 3.4 0.7 5.1 0 0.9-0.1 1.9-0.8 2.4-0.1 0.1-0.2 0.2-0.3 0.1-0.2 0-0.2-0.2-0.2-0.4 0-2 0.1-4.1-0.3-6-0.4-2-1.4-4-2.4-5zm3.3 5.1c0.8-0.1 1.4 0.5 1.9 1.1 0.4 0.4 0.8 0.8 1.1 1.2 0.2 0.5 0.4 1 0.4 1.5-0.6 0-1.1-0.5-1.4-1.1-0.3-0.5-0.6-1.1-1.1-1.5-0.2-0.1-0.4-0.2-0.6-0.4-0.4-0.3-0.5-0.9-0.3-0.8zm-7.2 2.1c-1.1 2.7-0.9 5.9 0.7 8.4 0.4 0.7 0.9 1.3 0.9 2.1 0 0.2 0 0.4-0.2 0.5-0.2 0.1-0.5-0.1-0.7-0.3-1.4-1.5-2.4-3.5-2.6-5.5-0.3-2.1 0.2-4.2 1.9-5.2zm-0.9 7.3c0.4 0.6 0.4 1.5 0.3 2.2 0 1.1-0.3 2.3-1.1 3-0.2 0.2-0.6 0.3-0.8 0.1q-0.1-0.1-0.1-0.2c-0.2-0.5 0.2-1 0.3-1.5 0.1-0.3 0.2-0.6 0.2-0.9 0.2-0.4 0.4-0.8 0.6-1.2 0.2-0.6 0.3-1.2 0.6-1.5z"/>
	</g>
</svg>