<svg version="1.2" xmlns="http://www.w3.org/2000/svg" viewBox="0 0 741 518" width="1920" height="1342">
	<title>NewPage</title>
	<defs>
		<clipPath clipPathUnits="userSpaceOnUse" id="cp1">
			<path d="m0 0h741v518h-741z"/>
		</clipPath>
	</defs>
	<style>
		.s0 { fill: #52a6d8 } 
	</style>
	<g id="Page 1" clip-path="url(#cp1)">
		<path id="Layer6" class="s0" d="m690.9 252q-2.6 3.6-5.1 7.3-0.6 0.8-1.2 1.7-1.6 2.4-2.7 5c-1.6 3.8-2.4 7.9-3.2 12-0.4 2.1-0.8 4.4-1.9 6.3-1 2-2.9 3.6-5.1 4 0.6-0.9 0.8-2 0.6-3-2.6 3.3-4.6 7.1-5.7 11.1-0.7-0.2-0.9-1-0.8-1.7 0.1-0.7 0.5-1.2 0.8-1.8-0.6 0.6-1.7 0.8-2.6 0.5q1.9-2.4 3.7-4.9c0.3-0.4 0.5-1.3-0.1-1.4q-0.9 0.6-1.7 1.1 0.3-1 0.6-2.1c-0.8 2.4-2.3 4.7-4.3 6.3-1-1 0-2.6 1-3.5 0.9-1 1.9-2.6 0.9-3.6q0.6-1 1.2-2c-1.2 0.2-2.1 1.3-3.1 2.1-1 0.7-2.8 0.9-3.2-0.3-0.4-1 0.5-2 1.5-2.4 1-0.5 2.2-0.7 2.9-1.5-0.8-0.2-1-1.4-0.5-2 0.5-0.7 1.4-0.9 2.2-1.1 0.8-0.1 1.7-0.3 2.3-1.3q0.4-0.3 0.8-0.6c-0.6-0.3-0.6-1.3-0.3-1.9 0.4-0.6 1.1-1 1.6-1.5 0.5-0.5 0.9-1.2 0.6-1.9q-1.2 0.5-2.3 1c-0.5 0.3-1 0.5-1.4 0.9-0.7 0.6-1.1 1.5-1.5 2.3-0.9 1.6-2.4 3.2-4.2 3.6-0.5 0.1-1 0.1-1.2-0.3-0.1-0.2-0.1-0.4 0-0.6 0.1-0.8 0.9-1.3 1.4-1.9 0.6-0.6 1.1-1.4 0.8-2.2-0.7-0.1-1.4 0.4-1.9 0.9-0.4 0.5-0.8 1.2-1.4 1.5-0.6 0.4-1.5 0.4-1.9-0.2-0.4-0.9 0.5-1.7 1.3-2.1 0.9-0.4 1.9-0.9 1.9-1.8q-0.9 0.1-1.7 0.2c-0.2 0-0.5 0-0.6-0.1-0.2-0.1-0.2-0.3-0.2-0.5 0.2-1.2 1.7-1.6 2.5-2.4 0.2-0.2 0.4-0.5 0.3-0.8-0.2-0.1-0.4-0.2-0.6-0.1-0.9 0-1.7 0.6-2.4 1.2-0.7 0.6-1.5 1.1-2.4 1.1-0.9 0.1-1.9-0.8-1.6-1.7 0.2-0.7 1.1-1 1.6-1.5 0.3-0.3 0.5-0.6 0.3-0.9-0.3-0.7-1.3 0-2-0.2 0.3-0.6 0.7-1.2 1.2-2.2-1.6 0.6-2.9 1.9-3.5 3.5-0.2 0.5-0.3 1-0.6 1.4-0.3 0.5-0.8 0.8-1.3 0.8-0.4-1-0.2-2.2 0.2-3.2 0.5-1 1.2-1.8 1.9-2.7-0.3-0.5-1-0.5-1.6-0.3-0.5 0.2-0.9 0.7-1.3 1.1-0.4 0.3-1 0.6-1.4 0.3-0.4-0.3-0.4-0.8-0.1-1.2 0.2-0.3 0.6-0.5 1-0.7q1.9-1.1 3.9-2.1c0.3-0.2 0.6-0.3 0.8-0.6 0.3-0.6-0.3-1.3-0.9-1.4-0.6-0.2-1.2 0.1-1.8 0.3q-1.1 0.4-2.2 0.8c-0.5 0.2-1.2 0.3-1.3-0.2-0.1-0.2 0-0.5 0.2-0.6 1.1-1.5 3.1-1.9 4.8-2.5 1.2-0.5 2.4-1.5 2.2-2.7 0-0.6-0.4-1-0.8-1.5-0.3-0.4-0.7-0.8-1.2-0.9-0.8 0-1.3 0.8-1.7 1.5q-0.5 1-1.2 1.7c-0.4 0.4-0.9 0.8-1.5 0.7-0.6-0.1-0.9-0.7-1-1.3-0.1-1.2 0.6-2.4 1.5-3.2 1-0.8 2.1-1.3 3.3-1.8-0.5-0.5-1.3-0.4-1.9-0.2-0.6 0.3-1.2 0.6-1.9 0.7-0.9 0-1.7-0.7-2.1-1.6-0.3-0.8-0.2-1.8 0.5-2.7 2.8 1.4 6.3 1.3 9.2-0.2-2.6-0.4-5.2-1.2-7.6-2.2-0.7-0.3-1.5-0.7-1.6-1.4-0.2-0.9 0.7-1.7 1.6-1.8 0.9-0.1 1.8 0.3 2.6 0.6 3.2 1.1 6.6 1.3 9.8 0.6-2.9 0.5-6.1-1.1-7.4-3.8q-0.2-0.2-0.2-0.5c0-0.4 0.5-0.7 0.9-0.7 0.4 0 0.8 0.2 1.2 0.4q2 1.2 4 2.3c0.2 0.2 0.5 0.3 0.7 0.2 0.2-0.1 0.3-0.2 0.3-0.4q0.3-0.4 0.5-0.7c0.1-0.2 0.2-0.3 0.2-0.5 0-0.4-0.5-0.6-0.9-0.7q-1.4-0.5-2.6-1.3c-0.5-0.4-1.1-1-0.8-1.6 0.1-0.2 0.3-0.3 0.3-0.5 0.1-0.2 0-0.5-0.2-0.7-0.4-0.7-0.9-1.4-1.6-1.8-0.6-0.4-1.6-0.6-2.2-0.2-0.3 0.2-0.6 0.5-0.9 0.6-0.3 0.2-0.7 0.2-0.9 0-0.2-0.3-0.1-0.7 0-1 0.8-1.3 2.5-1.9 4-1.8 1.5 0.2 2.9 0.9 4.2 1.6l8.4 4.2c1 0.6 2.2 1.1 3.1 0.5q0.3-0.6 0.5-1.3 11.1 4.7 21.7 10.4c0.7 0.4 1.5 0.8 1.9 1.5 0.3 0.5 0.4 1.2 0.5 1.8q0.3 2.2 0.6 4.3c0 0.3 0 0.6-0.2 0.8-0.1 0.1-0.3 0.1-0.5 0.1-1 0-2 0-2.8-0.3z"/>
	</g>
</svg>