<svg version="1.2" xmlns="http://www.w3.org/2000/svg" viewBox="0 0 741 518" width="1920" height="1342">
	<title>NewPage</title>
	<defs>
		<clipPath clipPathUnits="userSpaceOnUse" id="cp1">
			<path d="m0 0h741v518h-741z"/>
		</clipPath>
	</defs>
	<style>
		.s0 { fill: #1a4a7a } 
	</style>
	<g id="Page 1" clip-path="url(#cp1)">
		<path id="Layer2" class="s0" d="m441.1 489.1c-27.9 19.8-63.4 23.5-97.5 28.9h-343.6v-295.6c7.1 3.9 13.7 8.5 19.5 14.1 12.1 11.7 20.3 28.2 18.8 45 19.3 0.3 36.4 18.4 39.1 43 6.6 13.4 8.5 29.1 5.4 43.7-0.6 2.4-1.3 5-0.7 7.5 0.7 2.9 3 5.2 5.4 6.9 8.3 6.1 19.3 8.1 29.5 5.2 15.1-8.6 32-14 49.3-15.8 6.2-0.6 12.9-0.7 18.3 2.4 5.4 3.2 8.8 10.6 5.6 16 13.1-1.7 22.3-13.4 33.7-20.2 11.4-6.8 31.1-4.5 31.8 8.7 0.2 3.2-0.9 6.4-1.2 9.5-1.2 15.5 16.5 25.4 31.9 27.3 15.3 1.9 32.4 0.4 44.6 10 10.1 7.9 14.3 21.8 24.7 29.4 12.7 9.3 30.1 6.5 45.6 9.2 15.8 2.7 30.4 11.8 39.8 24.8z"/>
	</g>
</svg>