<svg version="1.2" xmlns="http://www.w3.org/2000/svg" viewBox="0 0 741 518" width="1920" height="1342">
	<title>NewPage</title>
	<defs>
		<clipPath clipPathUnits="userSpaceOnUse" id="cp1">
			<path d="m0 0h741v518h-741z"/>
		</clipPath>
	</defs>
	<style>
		.s0 { fill: #1a4a7a } 
	</style>
	<g id="Page 1" clip-path="url(#cp1)">
		<path id="Layer13" fill-rule="evenodd" class="s0" d="m457.6 356.1c-0.7 0.3-1.5 0.1-2.1-0.3-0.7-0.3-1.3-0.7-2-0.9-0.8-0.3-1.6-0.3-2.5-0.4-2-0.2-4-0.8-6-1.1q-1.2-0.1-2.5 0c-0.3 0-0.7 0-0.9-0.1-0.3-0.1-0.5-0.4-0.5-0.7 0-0.3 0.2-0.6 0.4-0.8 0.4 0.5 1.1 0.6 1.8 0.6q3.1 0 6.1 0.5c1 0.2 1.9 0.3 2.8 0.3q1.2-0.2 2.3-0.9c0.2 0.5 0.7 0.7 1.2 0.6 0.4-0.1 0.8-0.4 1.2-0.7 0.3-0.3 0.6-0.7 1-1 0.4-0.2 0.9-0.4 1.2-0.3 0.7-0.5 1.5-0.9 2.4-0.9 0.8 0 1.7 0.3 2.3 0.8 0.1 0.1 0.2 0.1 0.2 0.2 0 0.2-0.1 0.2-0.2 0.3-1.2 0.6-2.7 0.7-3.9 0.1q-0.1 0-0.2-0.1-0.4 0-0.8 0-0.1 0-0.3 0.1-0.1 0-0.2 0.1 0 0.2 0 0.4c0 0.5 0.1 1.1 0.3 1.6 0.3 0.7 0.9 1.3 1.5 1.8 0.1-0.2 0.4-0.4 0.7-0.3q0.3 0.6 0.2 1.3c0.5 0 0.9-0.2 1.3-0.4q0.7-0.3 1.4-0.6c0.4-0.3 0.5-0.8 0.7-1.3 0.4-0.6 1.1-1 1.7-1 0.7-0.1 1.5 0.2 1.8 0.7-0.2 0.8-0.7 1.5-1.4 1.9-0.7 0.3-1.6 0.4-2.4 0-0.8 0.9-1.9 1.3-3.1 1.2 0.2 1.1 0.8 2 1.6 2.8 0.7 0.8 1.6 1.4 2.5 2 3-0.7 6.1-0.6 9.1 0.3 0.3-0.5 0.9-0.9 1.6-0.8 0.1-1.8 0.9-3.6 2.3-4.8 0.5-0.4 1.2-0.8 1.9-0.7 0.4 0.2 0.6 0.6 0.5 1 0 0.4-0.3 0.8-0.7 1.1 0.3 0.3 0.4 0.8 0.2 1.2-0.2 0.4-0.6 0.7-1 0.8-0.4 0.2-0.8 0.2-1.3 0.3-0.4 0-0.8 0.1-1.3 0.2q-0.1 0.2-0.2 0.5c0.6-0.2 1.2-0.1 1.8 0.2 0.8-0.8 1.6-1.7 2.6-2.1 1.1-0.5 2.4-0.6 3.2 0.1-0.3 0.9-0.9 1.6-1.6 2.1q0.2 0.1 0.4 0.4c-0.4 0.4-1 0.6-1.5 0.6-0.6 0-1.1-0.2-1.7-0.3-0.5-0.1-1.1-0.2-1.6 0 0.3-0.1 0.7 0 1 0.1 0.2 0.2 0.4 0.4 0.7 0.6 0.2 0.3 0.4 0.5 0.7 0.7-0.4 0.4-1.1 0.5-1.7 0.2-0.6-0.2-1-0.6-1.3-1.1-0.3 0.3-0.7 0.5-1.1 0.5-0.3 0.1-0.7 0.1-1.1 0.3 0.3-0.1 0.7 0.1 1 0.4 0.7 0.6 1.2 1.5 1.5 2.3 0.3 0.9 0.4 1.8 0.5 2.8 0.5 0.3 1.1 0.3 1.5 0.8 0.1 0.2 0.2 0.5 0.2 0.8 0.3 2.3 0.4 4.6 0.2 7 0.3 1.2 0.8 2.4 1.6 3.3 0.2 0.1 0.4 0.3 0.5 0.7 1.1-0.3 2.3-0.4 3.4 0 1.1 0.3 2.1 1.1 2.4 2.3-0.3 0-0.6 0.1-1 0.1 0.3 0.3 0.4 0.8 0.3 1.2-1 0-1.9-0.7-2.7-1.3-0.7-0.7-1.6-1.4-2.7-1.4 1.2 2.3 1.9 4.9 2.2 7.6 0.3-0.1 0.6 0.1 0.8 0.2q0.4 0.2 0.8 0.6c0.9 0.1 1.7 0.8 2.1 1.6 0.5 0.8 0.6 1.8 0.8 2.8-0.8-0.1-1.5-0.6-2-1.3-0.5-0.7-0.8-1.4-1.1-2.3q-0.4-0.5-0.9-0.9c-0.2-0.1-0.3-0.1-0.4 0 0.4 2.2 0.5 4.4 0.5 6.6 0.3 0 0.6 0.2 0.7 0.5 0.5-0.2 1.1-0.1 1.5 0.2 0.6 0.5 0.9 1.2 1.1 1.9-0.6 0.1-1.2-0.1-1.7-0.4-0.5-0.4-0.9-0.9-1-1.5-0.2-0.1-0.5-0.2-0.7-0.4 0.2 2.8 0.1 5.5-0.4 8.2 0 0-0.2 0.1-0.4 0 0.3-5.9 0.7-12.1-1.4-17.7-1.7-4.3-4.7-8.1-5.1-12.7-0.1-0.7-0.1-1.6-0.7-2.1-0.4-0.4-1.1-0.5-1.9-0.3-0.7-0.9-1.5-1.7-2.5-2.4-0.9-0.6-2.1-1-3.3-1-0.2-0.1-0.5 0-0.7 0.2 0.4 0.3 0.7 0.8 0.8 1.4 0.1 0.5 0.2 1.1 0.4 1.6 0.3 0.5 0.9 0.9 1.3 1.3q0.8 0.7 1.3 1.7c0.1 0.1 0.2 0.3 0.2 0.5 0 0.1-0.2 0.3-0.4 0.3 0.1 0.5 0.3 1.1 0.3 1.6 0 0.2 0.1 0.4 0 0.5-0.1 0.3-0.4 0.4-0.7 0.4-0.2 0-0.5-0.1-0.8-0.2q-0.1 1.1-0.2 2.3c0 0.3 0 0.7-0.3 1-0.2 0.2-0.5 0.2-0.8 0.1-0.3-0.2-0.5-0.6-0.5-0.9-0.1-0.4-0.2-0.8-0.6-1.1-0.6-0.3-0.8-1.1-0.9-1.8-0.3-1.8-0.6-3.6 0-5.3 0.1-0.3 0.3-0.6 0.5-0.7 0.2-0.5 0.1-1.1-0.1-1.6-0.1-0.5-0.3-1-0.5-1.3-0.8-0.3-1.6-0.9-2-1.7-0.2-0.4-0.3-0.9-0.6-1.2-0.2-0.2-0.4-0.4-0.5-0.6-0.2-0.2-0.2-0.5-0.3-0.8-0.3-0.5-0.9-0.7-1.3-1.2-0.1-0.2-0.2-0.5-0.3-0.7-0.1-0.2-0.4-0.4-0.7-0.4-0.5-0.3-0.7-0.9-0.8-1.4-0.1-0.6-0.2-1.1-0.5-1.5-0.3-0.4-0.7-0.5-1-0.7-0.7-0.4-1.3-1-1.7-1.6-0.1-0.3-0.2-0.8 0.2-1.3zm-419.1-125.5c-0.2 0.6-0.8 1.1-1.3 1.5-1.4 1-2.8 2-4.3 2.8-3.4 1.7-7.4 2.2-10.4 4.5-1.1 0.8-2.3 2-3.7 1.6-0.7-0.1-1.3-0.6-1.9-0.5-0.6 0.2-0.9 0.8-1.4 1.1-0.6 0.3-1.5 0.1-2.2-0.2q-2-0.9-4-1.7c-0.9-0.4-1.8-0.8-2.5-1.4-0.6-0.7-1.1-1.7 0.3-2.9q-0.7-6.9-1.4-13.9c-0.1-1.7-0.3-3.4-0.1-5.1 0.2-1.7 0.9-3.4 2.2-4.5q-0.4-4.7-0.9-9.4c0-0.4 0-0.9 0.1-1.3 0.2-0.7 0.9-1.2 1.6-1.5 0.8-0.2 1.6-0.2 2.3-0.1 0.4 3.1 0.6 6.3 0.4 9.4-0.1 0.1-0.4 0.3-0.6 0.4q-0.1 0-0.2 0.2c-0.1 0.1 0.1 0.3 0.2 0.4 0.6 0.5 1.4 0.7 2.1 0.5 0.7-0.2 1.3-0.8 1.6-1.4 0.2-0.4-0.1-0.8-0.5-0.9-0.4-0.1-0.7 0.1-1.1 0.2q-0.8 0.3-1.5 0.6c0.6-3.3 0.8-6.6 0.7-10 0-0.7 0-1.4 0.4-1.9 0.5-0.8 1.5-1.1 2.4-0.9 0.9 0.3 1.6 0.8 2.4 1.6 0.4 1.6-0.2 3.4-0.7 5-0.5 1.6-1 3.4-0.7 5.4q0.9-3.2 1.8-6.3c0.2-0.8 0.5-1.7 1.2-2 0.9-0.4 1.9 0 2.9 0.6-0.2 1.4-0.7 2.7-1.3 3.9q0.2 0.1 0.4 0.1 0.2-1.1 0.6-2.2c0.1-0.4 0.3-0.9 0.7-1.2 0.4-0.3 1-0.3 1.4 0.3q0 0.6 0 1.1c0.1 0.4 0.7 0.3 0.9 0.1 0.2-0.3 0.2-0.7 0.3-1 0.2-0.8 0.9-1.4 1.7-1.4 0.8 0 1.6 0.5 1.9 1.3 0.1 0.5 0 1.1-0.1 1.7-0.4 2.8-1.1 5.5-2.1 8.2 0.4-0.2 0.9-0.1 1.2 0.2 0.3-1.7 0.6-3.5 1.3-5.1 0.2-0.5 0.5-1.1 1-1.4 0.5-0.3 1.2-0.4 1.6 0.1 0.4 0.4 0.3 1.1 0.2 1.6-0.3 2.5-0.5 4.9-0.5 7.7 0.2-1 0.4-1.9 0.9-2.9 0.4-0.9 1-1.7 1.9-1.9-0.1-0.8 0-1.7 0.4-2.4 0.4-0.6 1.1-1.2 1.9-1.3 0.8 0 1.6 0.5 1.7 1.4q1.3-0.1 2.5 0.2c0.2 0 0.4 0.1 0.6 0.3 0.1 0.2 0.1 0.4 0 0.7-0.2 1.6-0.5 3.3-0.8 4.9 0.5-1.7 1.4-3.3 2.7-4.5 0.8-0.2 1.7 0 2.4 0.5 0.6 0.5 1 1.3 0.9 2.4-0.3 2.1-1.6 4-3 5.6-1.4 1.7-2.9 3.2-4 5.1-0.9 1.7-1.3 3.5-1.9 5.4 0.7 0.7 1.6 1.6 1.4 2.6zm4.4-20.5c0.6 0.7 1.5 1.3 2.5 1.4 0 0 0.3-0.3 0.3-0.6 0-0.3-0.3-0.5-0.6-0.7q-0.9-0.6-1.9-0.8c-0.1 0-0.3 0-0.4 0.1-0.2 0.2-0.1 0.4 0.1 0.6zm-2.4-2c-0.1-0.1-0.2-0.2-0.3-0.2q-0.6-0.2-1.3-0.1c-0.1 0-0.2 0-0.3 0.1 0 0.2 0.1 0.3 0.2 0.4 0.5 0.3 1.1 0.4 1.6 0.1 0.2 0 0.2-0.2 0.1-0.3zm-2.9-0.2c0-0.2-0.1-0.3-0.2-0.4-0.2-0.3-0.4-0.5-0.6-0.7-0.4-0.2-0.8-0.3-1.2-0.1-0.3 0-0.5 0.2-0.5 0.4-0.1 0.2 0 0.5 0.2 0.7 0.4 0.5 0.9 0.9 1.6 1 0.1 0 0.3-0.1 0.5-0.3 0.2-0.2 0.3-0.4 0.2-0.6zm-1.6 4.4c0.1-0.4 0-0.9-0.2-1.3-0.2-0.3-0.6-0.5-1-0.7q-0.6-0.1-1.1 0c-0.2 0.1-0.3 0.1-0.4 0.2-0.1 0.2 0 0.4 0.1 0.6 0.5 0.7 1.1 1.2 1.8 1.6-0.2 0.3 0.1 0.3 0.4 0.2 0.2-0.2 0.4-0.4 0.4-0.6zm-5.1-6.8c-0.2-0.2-0.4-0.3-0.6-0.3-0.3 0-0.5 0.2-0.6 0.4q0 0.2 0.1 0.3 0.1 0.1 0.2 0.1 0.5 0.1 1 0.2c0.2-0.4 0.1-0.6-0.1-0.7zm-3.4 6.8c0-0.1-0.1-0.4-0.2-0.5-0.2-0.1-0.4-0.1-0.6-0.1-0.4 0-0.9 0.2-1 0.6q-0.1 0.2 0 0.4 0 0.2 0.2 0.3 0.3 0.2 0.7 0.2c0.2 0 0.4-0.1 0.6-0.3q0.2-0.2 0.3-0.6zm0.5-10.9c-0.1-0.3-0.4-0.4-0.7-0.5-0.5-0.2-1.1-0.3-1.6-0.1-0.2 0.1-0.4 0.2-0.3 0.4 0 0.2 0.2 0.4 0.4 0.4q0.8 0.3 1.7 0.4c0.5 0.1 0.6-0.3 0.5-0.6zm-6.7-0.3c0-0.1 0-0.3-0.1-0.4q-0.2-0.1-0.4-0.2-0.9-0.3-1.8-0.3c-0.1 0-0.2 0.1-0.2 0.1-0.1 0.1 0 0.2 0.1 0.3q0.9 0.5 1.9 0.8c0.3 0 0.5-0.2 0.5-0.3zm-9.3 12c0-0.4-0.4-0.8-0.8-1-0.5-0.2-1-0.2-1.4-0.1q-1.3 0.1-2.4 0.7c-0.1 0-0.2 0.1-0.3 0.2 0 0.1 0.1 0.3 0.2 0.4 0.9 1 2.5 1.4 3.7 0.9 0.7-0.3 1.1-0.6 1-1.1zm-1.4-12.6c0-0.1-0.1-0.2-0.2-0.2q-0.1-0.1-0.3-0.1-1-0.1-1.9 0.1c0 0.1-0.2 0.3-0.1 0.4 0 0.2 0.2 0.3 0.4 0.3 0.6 0.1 1.2 0 1.8-0.2 0.1-0.1 0.2-0.1 0.3-0.3zm6.1-0.7c0-1.4 0.1-2.2-0.6-2.7-0.6-0.4-1.5-0.5-2.3-0.3-0.2 0.1-0.5 0.2-0.6 0.4 0 0.3 0.2 0.5 0.3 0.7q0.6 0.7 0.9 1.5c0.2 0.4 0.3 0.9 0.7 1.2 0.3 0.3 0.7 0.3 1.1 0.1 0.3-0.1 0.5-0.5 0.5-0.9zm21.4 30.2c0-0.4-0.2-0.8-0.5-1.1-0.3-0.2-0.7-0.4-1-0.6q-0.4-0.2-0.8-0.3c-0.2-0.1-0.4-0.2-0.6-0.2-0.3 0.1-0.4 0.5-0.4 0.8 0.1 0.6 0.4 1.1 0.9 1.4 0.5 0.4 1 0.6 1.6 0.7 0.5 0.1 0.8-0.3 0.8-0.7z"/>
	</g>
</svg>