<svg version="1.2" xmlns="http://www.w3.org/2000/svg" viewBox="0 0 741 518" width="1920" height="1342">
	<title>NewPage</title>
	<defs>
		<clipPath clipPathUnits="userSpaceOnUse" id="cp1">
			<path d="m0 0h741v518h-741z"/>
		</clipPath>
	</defs>
	<style>
		.s0 { fill: #042648 } 
	</style>
	<g id="Page 1" clip-path="url(#cp1)">
		<path id="Layer7" class="s0" d="m741 0v100.6c-14.2 5.5-28.3 11.2-42.9 15.5-25.2 7.6-52.9 11.2-82.6 2-10.3-10.4-18.7-22.2-28.7-32.8-10-10.7-21.9-20.4-36.5-24.5-23.4-6.6-50.2 2-77.7-4.5-13.7 5.4-24 17.6-26.4 31.2-0.4 2.6-0.8 5.5-3.1 7-1.2 0.8-2.7 1-4.2 1.2-7.3 0.6-15.1-0.6-21-4.7-5.9-4.1-9.5-11.5-7.6-18.1 1.7-5.8 7-12.4 2.7-16.9-1.1-1.2-2.7-1.9-4.3-2.6-18.6-7.8-37.8-14.4-60.2-19.9-8.3 6.8-16.7 13.6-26.4 18.4-9.1 4.4-19.5 7-29.6 5.6-0.9-0.1-1.3-1.1-0.9-1.8 1.6-2.5 0.9-6.1-1.3-8.3-2.6-2.7-6.7-3.7-10.5-4.5-18.8-3.7-38.3-4.1-60.4-1.1-7.2 5.1-15.2 9.2-23.5 12.4-2.1 0.8-4.4 1.5-5.9 3.1-3.6 3.6-2 9.3-3 14-0.8 3.9-3.4 7.2-5.9 10.3-6.3 7.9-13 16.1-22.6 20-9.4 3.9-21 3.4-28 6.1-22 17.7-52.5 22.3-81.3 26.2q-24.6 3.4-49.2 6.7v-140.6zm-730.6 406.7c-1.5-1.9-1.7-4.5-1.8-6.9-0.3-8.1 0.2-16.3 1.4-24.4 0.7-4.7 1.8-9.5 4.7-13.3 0.5-0.6 1-1.2 1.8-1.5 0.7-0.2 1.6 0.1 1.8 0.8 0.2 0.6-0.1 1.2-0.4 1.8-2.3 3.8-4.5 7.7-5.4 12-0.5 2.6-0.6 5.3-0.7 8-0.1 6.8-0.3 13.7 1.2 20.3 0.2 0.6 0.4 1.3 0.2 2-0.2 0.7-0.8 1.3-2.8 1.2zm-0.8 0.1c-2-4.1-2.6-8.8-3.2-13.3-1.2-9.2-2.4-18.6-1.3-27.9 0.9-7 3.1-13.8 5-20.6 0.5-1.6 0.8-3.5-0.2-4.7-0.4-0.5-1-0.8-1.4-1.3-0.4-0.5-0.5-1.4 0.1-1.7 0.4-0.3 0.8-0.1 1.3 0 1 0.3 2 0.7 2.8 1.5 0.8 0.9 1.1 2.2 1.2 3.5 0.6 6.6-1.6 13.2-3.2 19.7-3 12.5-3.7 26 1.1 38 0.5 1.2 1 2.4 1.1 3.6 0 1.3-0.5 2.7-3.3 3.2zm1.7-2.5c-0.8-5.1-0.3-10.3 0.5-15.4 0.5-2.7 1-5.4 1.7-8.1 1.8-6.1 4.9-11.9 5.2-18.2 0.2-2.8-0.2-5.6 0.1-8.3 0.3-2.8 1.3-5.6 3.5-7.2 0.8-0.5 2-0.8 2.4 0 0.3 0.5 0.1 1.1-0.2 1.7-1 2.3-1.9 4.7-2.5 7.2-1.3 5.6-0.9 11.4-1.5 17.1-0.4 4.5-1.4 8.8-2.9 13-1.8 5.2-4.4 10.5-3.3 15.8 0 0.5 0.2 1 0.1 1.5-0.2 1.3-1.7 2-3.1 0.9zm6 3.5c-0.6-2.5 0.1-5 0.6-7.5 0.7-4 0.8-8 1.2-12.1 1.1-9.9 4.4-19.4 7.8-28.9 0.9-2.4 2-5.2 4.4-6.2 0.6-0.3 1.3-0.4 1.8-0.2 1.1 0.4 1.4 1.8 1.6 2.9-1.7 0.1-2.9 1.5-3.7 3-1.5 2.6-2.4 5.5-3.1 8.3q-2.7 10.1-4.3 20.4c-0.4 2.1-0.7 4.2-0.7 6.3-0.1 2 0.1 4.1-0.1 6.1-0.2 1.7-0.7 3.3-1.1 4.9-0.2 0.6-0.4 1.3-0.9 1.7-0.5 0.5-1.4 0.5-3.5 1.3zm-0.8-1c-0.1-4.8 1.2-9.6 3.1-14 1.9-4.4 4.4-8.5 6.9-12.6 3.8-6.2 7.6-12.5 13-17.4 1.6-1.4 3.6-3.1 3.6-5.3 0-0.5-0.1-1.1 0.3-1.6 0.5-0.7 1.6-0.4 2.4 0 0.2 2.9-1.2 5.8-3 8.1-1.8 2.3-4.1 4.3-6 6.5-1.3 1.6-2.5 3.3-3.7 5-4.5 6.2-9 12.7-11.2 20.1-0.9 3.2-1.4 6.5-2.1 9.8-0.2 0.6-0.3 1.3-0.8 1.9-0.4 0.5-1.1 0.9-2.5-0.5zm-4.7-6.2c-0.2-7.2 1.8-14.5 5.6-20.6 1.5-2.4 3.3-4.7 4.9-7 2.8-4 5.1-8.3 7.5-12.5 2.8-5.2 5.8-10.7 5.6-16.1 0.3-0.5 0.7-1 1.2-1.2 0.6-0.2 1.3 0 1.5 1.1-1 9.2-4.2 18.3-9.2 26.2-4.9 7.6-11.7 14.6-13.5 23.5-0.3 1.8-0.4 3.7-0.1 5.5 0.4 1.6 1.2 3.1 2 4.5q-2.4 0.6-4.8 1.3c-0.2 0.1-0.5 0.1-0.8 0-0.2-0.1-0.2-0.4-0.3-0.6-0.2-0.6 0.4-1.1 0.4-4.1zm7.3 3.7c-0.5-4.1-4.5-6.8-6.8-10.2-1-1.5-1.7-3.2-2.3-5-2.1-6.7-1.7-14 0.5-20.7 1.8-5.1 4.6-9.9 7-14.8 1.4-2.8 2.7-5.7 3.3-8.7 1.3-5.5 0.7-11.3-1.2-16 0.4-0.4 0.8-0.9 1.4-1.1 0.6-0.1 1.3 0.3 1.3 1.3 3.3 5.7 4.2 12.8 2.5 19.1-1.4 5.4-4.6 10.1-7.4 14.8-2.8 4.8-5.5 9.8-5.9 15.4-0.2 3.2 0.4 6.4 1.3 9.5 0.7 2.7 1.7 5.5 3.7 7.4 1.3 1.3 3 2.1 4 3.7 0.6 1 0.8 2.3 0.9 3.5 0.1 0.6 0.1 1.2-0.2 1.7-0.2 0.5-0.9 0.9-2.1 0.1zm-6.1 0c-1-2.8-0.2-5.9 0.8-8.7 2.3-6.3 5.7-12.3 9.8-17.7 3.8-5 8.4-9.4 12.2-14.4 3.8-5 7-10.9 7.6-17.2 1.1-0.2 2.1 0.5 3 1.1 0.3 0.2 0.7 0.6 0.5 1.3-2.5 8.4-6.8 16.3-12.5 22.9-2.6 3-5.5 5.8-7.7 9.1-2.1 3.2-3.6 6.7-5 10.1-0.8 2-1.6 4-1.9 6.1-0.4 2.3-0.1 4.7 1.1 6.6-2.2 0.1-4.4 0.4-7.9 0.8zm-1.1-6.1c-1.7-4.2-1.2-9 0.4-13.3 1.6-4.2 4.1-8.1 6.6-11.8 2.6-3.8 5.1-7.7 6.5-12 1.8-5.5 1.7-11.4 1.4-17.2 0.3-0.1 0.6-0.2 1.2 0.1h2.1c0.5 3.8-0.1 7.7-0.8 11.5-2.2 10.8-5.6 21.3-10.3 31.3-1.4 2.9-2.8 5.8-3.1 9-0.2 2.7 0.5 5.3 0.9 8 0.1 0.3 0.1 0.7-0.1 0.9-0.2 0.2-0.4 0.2-0.6 0.3q-2.2 0.6-4.4 0.7c0.1-3 0.7-6.1 0.2-7.5zm527.2 65.1c2.1-1.6 3-4.1 3.7-6.4 2.3-8 3.7-16.1 4.1-24.2 0.3-4.8 0.2-9.8-2.3-14-0.4-0.7-0.9-1.4-1.7-1.8-0.8-0.3-1.9-0.2-2.4 0.5-0.3 0.5-0.1 1.2 0.1 1.8 1.8 4.1 3.4 8.4 3.4 12.7 0.1 2.8-0.5 5.4-1.1 8.1-1.4 6.7-2.8 13.5-6.2 19.7-0.3 0.6-0.7 1.3-0.7 1.9 0.1 0.7 0.7 1.5 3.1 1.7zm0.8 0.3c3.3-3.7 5.1-8.1 6.9-12.5 3.6-8.8 7.3-17.8 8.2-27.1 0.6-7.1-0.3-14.2-1-21.3-0.1-1.6-0.1-3.5 1.4-4.5 0.6-0.4 1.4-0.6 1.9-1.1 0.6-0.4 0.9-1.2 0.3-1.6-0.3-0.3-0.9-0.3-1.5-0.2-1.2 0.1-2.5 0.3-3.6 0.9-1.2 0.7-1.8 2-2.2 3.2-2.3 6.4-1.3 13.2-1.1 19.9 0.6 12.9-1.8 26.3-10.2 37.2-0.9 1.1-1.8 2.1-2.1 3.3-0.4 1.3-0.2 2.7 3 3.8zm-1.3-2.7c2.1-4.9 2.7-10.1 3-15.3 0.1-2.7 0.2-5.5-0.1-8.3-0.5-6.3-2.8-12.6-1.7-18.9 0.4-2.7 1.5-5.4 1.9-8.1 0.3-2.8-0.2-5.8-2.5-7.8-0.7-0.6-2.1-1.1-2.8-0.4-0.4 0.5-0.3 1.1-0.1 1.7 0.7 2.5 1.1 5 1.2 7.5 0.2 5.8-1.6 11.4-2.3 17.1-0.5 4.5-0.5 9 0.3 13.4 0.9 5.4 2.7 11 0.2 16.1-0.3 0.4-0.5 0.9-0.6 1.4-0.1 1.4 1.6 2.3 3.5 1.6zm-7.9 2.2c1.2-2.3 1-4.9 1.1-7.5 0.1-4 1-8 1.4-12 1.1-10-0.5-20-2.2-29.9-0.4-2.6-1.1-5.5-3.7-7-0.6-0.3-1.3-0.6-2-0.5-1.4 0.2-2.1 1.5-2.5 2.6 1.9 0.3 3 2 3.6 3.6 1.1 2.8 1.4 5.8 1.6 8.8q0.8 10.4 0.2 20.8c-0.1 2.1-0.2 4.2-0.7 6.3-0.4 2-1.1 4-1.3 6.1-0.2 1.6 0 3.3 0.1 4.9 0 0.7 0.1 1.4 0.6 1.9 0.5 0.5 1.6 0.7 3.8 1.9zm1.2-0.8c1.2-4.7 0.9-9.7-0.3-14.3-1.1-4.7-3.1-9.3-5.1-13.8-2.9-6.7-5.9-13.6-11-19.4-1.6-1.8-3.4-3.7-3-5.9 0.1-0.6 0.4-1.1 0.1-1.6-0.4-0.8-1.8-0.7-2.8-0.5-0.9 2.8 0 5.9 1.6 8.5 1.5 2.6 3.7 5 5.4 7.6 1.2 1.7 2.2 3.6 3.2 5.5 3.7 7 7.4 14.2 8.2 21.8 0.3 3.4 0.1 6.7 0.2 10 0 0.7 0 1.4 0.4 2.1 0.4 0.6 1.1 1.1 3.1 0zm7-5.2c1.9-7.1 1.3-14.6-1.7-21.3-1.2-2.7-2.7-5.2-4-7.8-2.3-4.5-4.1-9.1-5.8-13.7-2.1-5.6-4.3-11.6-2.8-16.8-0.3-0.6-0.5-1.2-1.1-1.5-0.6-0.3-1.5-0.2-2 0.8-1 9.3 0.5 18.8 4.5 27.5 3.9 8.4 10.2 16.5 10.1 25.6 0 1.9-0.3 3.7-1.2 5.4-0.7 1.5-2 2.9-3.3 4.1q2.6 1.1 5.3 2.1c0.3 0.2 0.6 0.3 0.9 0.2 0.2-0.1 0.4-0.3 0.5-0.5 0.4-0.6-0.2-1.2 0.6-4.1zm-9.5 2.3c1.6-4 6.9-5.9 10.4-8.8 1.5-1.3 2.8-2.9 3.8-4.5 4.1-6.1 5.4-13.4 4.3-20.4-0.8-5.4-3-10.6-4.6-15.9-0.9-3-1.7-6.1-1.8-9.2-0.1-5.6 2-11.2 5.3-15.4-0.4-0.5-0.8-1.1-1.4-1.3-0.7-0.3-1.6 0-1.8 0.9-5.2 5.1-8 11.8-7.5 18.4 0.4 5.5 2.9 10.7 5.1 15.9 2.2 5.2 4.1 10.7 3.2 16.2-0.5 3.2-2 6.2-3.7 9.2-1.5 2.5-3.3 5-6.1 6.5-1.8 1-4.1 1.5-5.5 2.8-1 1-1.5 2.2-1.9 3.3-0.2 0.6-0.4 1.2-0.3 1.8 0.2 0.5 0.9 1 2.5 0.5zm7.1 1.1c1.9-2.5 1.7-5.7 1.1-8.7-1.2-6.7-3.6-13.2-7.1-19.2-3.3-5.7-7.6-10.9-10.9-16.5-3.2-5.6-5.5-11.9-4.8-18.4-1.2-0.3-2.5 0.2-3.6 0.6-0.5 0.2-1 0.5-1 1.2 0.9 8.7 4 17.3 9.1 24.9 2.3 3.4 5.1 6.7 6.9 10.4 1.7 3.4 2.5 7.1 3.4 10.8 0.4 2.1 0.9 4.2 0.8 6.4-0.2 2.2-1 4.6-2.9 6.2 2.6 0.6 5.1 1.3 9 2.3zm2.8-5.8c2.9-3.8 3.5-8.7 2.7-13.1-0.8-4.5-2.9-8.7-5-12.9-2-4.2-4-8.5-4.6-13-0.8-5.7 0.7-11.6 2.4-17.2-0.4-0.1-0.7-0.3-1.4-0.1l-2.4-0.4c-1.6 3.7-1.8 7.6-1.8 11.4-0.1 11.1 1.4 22.1 4.5 32.8 0.9 3.1 1.9 6.2 1.5 9.4-0.5 2.7-1.9 5.1-3 7.6-0.1 0.4-0.3 0.7-0.1 1 0.2 0.2 0.4 0.3 0.6 0.4q2.4 0.9 5.1 1.5c0.6-3 0.5-6.1 1.5-7.4zm-16.2 22.8c1.3-1.6 1.7-4 2.1-6.4 1.2-7.9 1.9-16 2-24.1 0.1-4.8 0-9.8-1.5-14.1-0.2-0.6-0.5-1.3-1-1.7-0.5-0.4-1.1-0.3-1.4 0.4-0.2 0.5 0 1.2 0.1 1.8 1.1 4.1 2.1 8.4 2.2 12.8 0 2.7-0.3 5.4-0.6 8.1-0.7 6.6-1.4 13.4-3.3 19.5-0.1 0.6-0.4 1.3-0.3 2 0 0.7 0.4 1.4 1.7 1.7zm0.6 0.2c1.8-3.6 2.8-8 3.7-12.3 2-8.8 4-17.7 4.4-27 0.2-7.1-0.4-14.2-0.9-21.3-0.1-1.6-0.1-3.5 0.8-4.5 0.3-0.4 0.7-0.6 1-1 0.4-0.4 0.5-1.2 0.2-1.7-0.2-0.3-0.6-0.2-0.9-0.2-0.7 0.1-1.5 0.3-2 0.9-0.7 0.7-1.1 1.9-1.3 3.1-1.2 6.4-0.6 13.3-0.3 20 0.5 12.8-0.7 26.2-5.4 37-0.5 1-1 2.1-1.2 3.3-0.2 1.2 0 2.7 1.9 3.7zm-0.9-2.7c1.2-4.8 1.4-10 1.5-15.2 0.1-2.7 0.1-5.5-0.1-8.2-0.4-6.4-1.8-12.7-1.3-19 0.3-2.7 0.8-5.4 1-8.1 0.2-2.7-0.2-5.7-1.5-7.8-0.4-0.6-1.2-1.1-1.6-0.4-0.3 0.4-0.2 1.1-0.1 1.6 0.4 2.5 0.7 5.1 0.8 7.6 0.2 5.8-0.7 11.4-1.1 17.1-0.2 4.4-0.1 8.9 0.4 13.3 0.6 5.4 1.7 11.1 0.3 16.1-0.1 0.5-0.3 0.9-0.3 1.4 0 1.4 1 2.3 2 1.6zm-4.5 2.2c0.7-2.3 0.6-5 0.6-7.5 0-4 0.4-8 0.6-12 0.5-10-0.6-20-1.7-29.9-0.3-2.6-0.7-5.5-2.2-7-0.4-0.4-0.8-0.6-1.2-0.5-0.8 0.1-1.2 1.4-1.4 2.4 1.1 0.5 1.8 2.1 2.1 3.7 0.7 2.8 0.9 5.8 1.1 8.8q0.6 10.4 0.4 20.8c0 2.1-0.1 4.2-0.3 6.3-0.2 2-0.6 4-0.7 6.1-0.1 1.6 0 3.3 0.1 4.9 0.1 0.7 0.1 1.4 0.4 1.9 0.3 0.5 0.9 0.7 2.2 2zm0.7-0.9c0.7-4.6 0.4-9.6-0.4-14.3-0.7-4.7-1.9-9.2-3.1-13.7-1.8-6.9-3.6-13.8-6.6-19.6-0.9-1.8-2-3.8-1.8-6 0.1-0.5 0.2-1.1 0-1.6-0.3-0.8-1-0.7-1.6-0.5-0.5 2.8 0.1 5.9 1 8.5 1 2.7 2.2 5.1 3.3 7.6 0.7 1.8 1.3 3.7 1.9 5.6 2.2 7.1 4.5 14.3 5 22 0.2 3.3 0.1 6.6 0.2 10 0.1 0.7 0.1 1.4 0.3 2 0.2 0.6 0.7 1.1 1.8 0zm4-5.1c0.9-7 0.5-14.5-1.3-21.3-0.7-2.6-1.6-5.2-2.4-7.8-1.4-4.5-2.5-9.1-3.6-13.8-1.3-5.6-2.6-11.6-1.8-16.8-0.2-0.6-0.3-1.2-0.7-1.5-0.3-0.3-0.8-0.3-1.1 0.7-0.5 9.3 0.6 18.8 3 27.6 2.4 8.5 6.1 16.7 6.2 25.8 0 1.8-0.1 3.7-0.6 5.3-0.5 1.5-1.2 2.9-1.9 4.1q1.5 1.1 3.1 2.2c0.1 0.1 0.3 0.2 0.5 0.1 0.1 0 0.2-0.2 0.3-0.4 0.2-0.6-0.2-1.2 0.3-4.2zm-5.5 2.2c0.9-3.9 3.9-5.7 5.9-8.6 0.9-1.3 1.6-2.8 2.1-4.4 2.3-6.1 2.9-13.4 2.2-20.4-0.5-5.4-1.8-10.6-2.9-15.9-0.5-3-1-6.1-1.1-9.2-0.2-5.6 1-11.2 2.8-15.4-0.2-0.5-0.4-1.1-0.8-1.3-0.4-0.3-1 0-1 0.9-3 5-4.5 11.7-4.1 18.3 0.3 5.5 1.8 10.7 3.2 15.9 1.3 5.3 2.5 10.8 2 16.2-0.2 3.2-1 6.3-2 9.2-0.8 2.5-1.8 5-3.4 6.4-1 1-2.3 1.5-3.1 2.8-0.6 0.9-0.9 2.1-1.1 3.3-0.1 0.5-0.2 1.1-0.1 1.7 0.1 0.5 0.5 1 1.4 0.5zm4.1 1.2c1.1-2.5 0.9-5.7 0.6-8.6-0.8-6.7-2.3-13.3-4.4-19.4-2-5.6-4.6-10.9-6.5-16.6-2-5.7-3.4-12-3-18.4-0.7-0.3-1.5 0.1-2.1 0.5-0.3 0.2-0.6 0.5-0.6 1.2 0.7 8.7 2.6 17.3 5.6 25 1.4 3.5 3 6.8 4.1 10.5 1.1 3.5 1.6 7.2 2.1 10.9 0.3 2.1 0.6 4.2 0.6 6.3-0.1 2.3-0.5 4.6-1.6 6.3 1.5 0.5 3 1.3 5.2 2.3zm1.6-5.7c1.6-3.8 1.9-8.6 1.3-13.1-0.5-4.5-1.8-8.7-3-13-1.2-4.2-2.5-8.5-2.9-13-0.5-5.7 0.3-11.5 1.2-17.1-0.2-0.2-0.4-0.3-0.8-0.1l-1.4-0.5c-0.9 3.6-0.9 7.6-0.9 11.4 0.1 11 1.1 22.1 3.1 32.8 0.5 3.1 1.2 6.3 0.9 9.4-0.2 2.7-1 5.1-1.6 7.6 0 0.3-0.1 0.7 0 1 0.1 0.2 0.2 0.3 0.4 0.4q1.4 1 2.9 1.5c0.3-2.9 0.2-6.1 0.8-7.3z"/>
	</g>
</svg>