<svg version="1.2" xmlns="http://www.w3.org/2000/svg" viewBox="0 0 741 518" width="1920" height="1342">
	<title>NewPage</title>
	<defs>
		<clipPath clipPathUnits="userSpaceOnUse" id="cp1">
			<path d="m0 0h741v518h-741z"/>
		</clipPath>
	</defs>
	<style>
		.s0 { fill: #042648 } 
	</style>
	<g id="Page 1" clip-path="url(#cp1)">
		<path id="Layer14" fill-rule="evenodd" class="s0" d="m180.4 111.9c-0.6-0.2-1-0.8-1.3-1.4-0.8-1.6-1.6-3.1-2.2-4.8-1.2-3.5-1-7.5-2.8-10.9-0.7-1.2-1.6-2.6-1.1-3.9 0.3-0.6 0.9-1.1 0.8-1.8-0.1-0.6-0.6-0.9-0.8-1.5-0.3-0.7 0.1-1.5 0.5-2.1q1.2-1.9 2.3-3.7c0.5-0.8 1-1.7 1.8-2.2 0.7-0.6 1.8-0.9 2.8 0.7q7 0.3 13.9 0.7c1.7 0.1 3.4 0.2 5.1 0.7 1.6 0.4 3.2 1.3 4.1 2.8q4.7 0.3 9.4 0.6c0.5 0 0.9 0.1 1.3 0.2 0.7 0.4 1.1 1.1 1.2 1.9 0.1 0.8 0 1.5-0.2 2.3-3.1-0.2-6.3-0.4-9.4-1.1 0-0.1-0.2-0.5-0.2-0.6q-0.1-0.2-0.2-0.3c-0.1-0.1-0.3 0-0.5 0.2-0.5 0.5-0.8 1.2-0.7 2 0.1 0.7 0.5 1.4 1.1 1.8 0.4 0.2 0.8 0 0.9-0.4 0.2-0.3 0.1-0.7 0-1.1q-0.1-0.8-0.4-1.6c3.2 1.1 6.5 1.9 9.8 2.3 0.7 0.1 1.4 0.1 1.9 0.6 0.7 0.6 0.8 1.7 0.5 2.5-0.4 0.9-1.1 1.5-1.9 2.2-1.7 0.1-3.4-0.7-4.9-1.5-1.5-0.8-3.2-1.5-5.2-1.5q3 1.4 6 2.8c0.7 0.3 1.5 0.7 1.7 1.4 0.3 0.9-0.2 1.8-1 2.7-1.4-0.3-2.5-1-3.7-1.8q-0.1 0.2-0.2 0.4 1.1 0.4 2.1 0.9c0.5 0.2 0.9 0.4 1.1 0.9 0.3 0.4 0.1 1-0.5 1.3q-0.6-0.1-1.1-0.1c-0.3 0-0.4 0.5-0.2 0.8 0.3 0.2 0.7 0.3 1 0.4 0.7 0.3 1.2 1.2 1.1 2-0.1 0.8-0.8 1.5-1.6 1.6-0.5 0.1-1.1-0.1-1.6-0.3-2.7-0.9-5.4-2-7.8-3.3 0.1 0.4-0.1 0.9-0.4 1.1 1.6 0.6 3.3 1.1 4.8 2 0.5 0.3 1 0.7 1.2 1.2 0.3 0.6 0.2 1.3-0.3 1.6-0.5 0.3-1.1 0.2-1.6 0-2.4-0.7-4.8-1.2-7.6-1.7 1 0.4 1.9 0.8 2.7 1.3 0.9 0.6 1.6 1.3 1.7 2.2 0.8 0.1 1.6 0.3 2.2 0.8 0.7 0.4 1.1 1.2 1 2 0 0.8-0.7 1.6-1.6 1.5q0 1.3-0.5 2.4c-0.1 0.3-0.2 0.5-0.4 0.6-0.2 0.1-0.5 0-0.7-0.1-1.6-0.5-3.2-1-4.7-1.5 1.6 0.8 3 1.9 4 3.3 0 0.9-0.3 1.7-0.9 2.3-0.6 0.5-1.4 0.8-2.5 0.5-2-0.6-3.7-2.2-5.1-3.8-1.4-1.6-2.7-3.4-4.5-4.7-1.4-1.1-3.2-1.9-5-2.8-0.8 0.7-1.8 1.4-2.7 1zm19.6 7.5c-0.9 0.5-1.5 1.3-1.8 2.3 0 0 0.2 0.3 0.5 0.3 0.3 0.1 0.6-0.1 0.8-0.4q0.7-0.8 1.1-1.8c0-0.1 0.1-0.3 0-0.4-0.2-0.2-0.4-0.1-0.6 0zm2.3-2c0.1-0.1 0.2-0.2 0.3-0.3q0.3-0.6 0.3-1.3c0-0.1-0.1-0.2-0.2-0.3-0.1 0-0.2 0.1-0.3 0.2-0.4 0.4-0.6 1-0.4 1.5 0 0.2 0.2 0.2 0.3 0.2zm0.7-2.8c0.1 0 0.3-0.1 0.4-0.2 0.3-0.2 0.5-0.3 0.7-0.5 0.3-0.3 0.4-0.8 0.4-1.2-0.1-0.2-0.2-0.4-0.4-0.5-0.2-0.1-0.5 0-0.7 0.1-0.5 0.3-1 0.8-1.2 1.4-0.1 0.1 0 0.4 0.2 0.5 0.1 0.2 0.3 0.4 0.6 0.4zm-4.1-2.3c0.4 0.2 0.8 0.2 1.2 0 0.4-0.2 0.7-0.5 0.9-0.9q0.2-0.5 0.1-1.1c0-0.1 0-0.3-0.1-0.4-0.2-0.1-0.4 0-0.5 0-0.8 0.4-1.5 0.9-2 1.5-0.2-0.2-0.3 0.1-0.2 0.4 0.1 0.2 0.3 0.4 0.6 0.5zm7.5-4c0.2-0.2 0.3-0.4 0.3-0.6 0-0.2-0.1-0.5-0.3-0.6q-0.1 0-0.2 0-0.1 0.1-0.2 0.2-0.2 0.5-0.3 1c0.3 0.2 0.5 0.1 0.7 0zm-6.3-4.4c0.2 0 0.4 0 0.5-0.2 0.2-0.1 0.3-0.3 0.3-0.5 0-0.4-0.1-0.9-0.5-1.1q-0.1-0.1-0.3-0.1-0.2 0.1-0.4 0.2-0.3 0.3-0.3 0.6c0 0.3 0 0.5 0.2 0.7q0.2 0.3 0.5 0.4zm10.7 2.1c0.3 0 0.5-0.3 0.7-0.5 0.3-0.5 0.4-1.1 0.3-1.6-0.1-0.2-0.2-0.4-0.4-0.4-0.2 0-0.4 0.2-0.5 0.4q-0.4 0.7-0.6 1.5c-0.2 0.6 0.3 0.7 0.5 0.6zm1.4-6.5c0.1 0 0.3 0 0.4-0.1q0.1-0.1 0.2-0.3 0.4-0.9 0.6-1.8c0-0.1 0-0.2-0.1-0.2-0.1-0.1-0.2 0-0.3 0.1q-0.6 0.9-1 1.8c-0.1 0.2 0 0.4 0.2 0.5zm-10.5-11c0.4 0 0.9-0.3 1.1-0.7 0.2-0.4 0.3-0.9 0.3-1.3q0.1-1.3-0.3-2.5c0-0.1 0-0.2-0.1-0.3-0.2-0.1-0.4 0-0.5 0.1-1.1 0.8-1.7 2.2-1.4 3.6 0.1 0.7 0.4 1.1 0.9 1.1zm12.7 0.5c0.1 0 0.2-0.1 0.2-0.1q0.1-0.2 0.2-0.3 0.2-1 0.1-1.9c0-0.1-0.2-0.2-0.4-0.2-0.2 0-0.3 0.2-0.3 0.4-0.2 0.6-0.2 1.2 0 1.8 0 0.1 0 0.2 0.2 0.3zm-0.3 6.2c1.4 0.2 2.2 0.4 2.8-0.2 0.5-0.6 0.7-1.4 0.6-2.2 0-0.3 0-0.6-0.3-0.7-0.2-0.1-0.5 0.1-0.7 0.2q-0.8 0.5-1.6 0.6c-0.5 0.1-1 0.2-1.3 0.5-0.3 0.3-0.4 0.7-0.3 1.1 0.1 0.3 0.5 0.6 0.8 0.7zm-33.1 16.5c0.4 0.1 0.8-0.1 1.1-0.4 0.3-0.2 0.6-0.6 0.8-0.9q0.2-0.3 0.5-0.7c0.1-0.2 0.2-0.4 0.2-0.6-0.1-0.3-0.4-0.4-0.7-0.5-0.6 0-1.2 0.3-1.6 0.7-0.4 0.4-0.6 0.9-0.9 1.5-0.1 0.4 0.2 0.8 0.6 0.9zm516.9 15.5c-0.4-0.5-0.4-1.2-0.3-1.9 0.1-1.7 0.2-3.5 0.6-5.2 0.8-3.6 3.1-7 3.3-10.7 0-1.4 0-3.1 1.1-3.9 0.6-0.4 1.3-0.6 1.6-1.2 0.2-0.5 0-1.1 0.1-1.7 0.1-0.7 0.9-1.2 1.6-1.5q1.9-1 3.9-2c0.8-0.4 1.7-0.9 2.6-1 1-0.1 2 0.3 2.1 2.1q5.7 4 11.4 7.9c1.4 1 2.9 1.9 4 3.2 1.2 1.3 2.1 2.8 2.1 4.6q3.8 2.7 7.7 5.4c0.4 0.2 0.7 0.5 1 0.9 0.4 0.6 0.3 1.5 0 2.2-0.3 0.7-0.8 1.3-1.3 1.8-2.7-1.8-5.2-3.6-7.5-5.8 0-0.2 0.1-0.5 0.1-0.7q0.1-0.1 0-0.3c-0.1-0.1-0.3-0.1-0.5-0.1-0.7 0.2-1.4 0.7-1.7 1.3-0.3 0.7-0.3 1.5 0.1 2.2 0.2 0.3 0.6 0.4 0.9 0.1 0.3-0.2 0.5-0.6 0.6-0.9q0.3-0.8 0.5-1.6c2.1 2.6 4.6 4.9 7.2 7 0.5 0.5 1.1 0.9 1.3 1.6 0.3 0.8-0.2 1.8-1 2.3-0.7 0.6-1.6 0.8-2.7 0.9-1.5-0.8-2.5-2.3-3.4-3.8-0.9-1.4-1.9-3-3.7-4q1.9 2.7 3.7 5.5c0.5 0.6 0.9 1.4 0.7 2.2-0.2 0.9-1.1 1.3-2.3 1.7-0.9-1-1.6-2.2-2.1-3.5q-0.2 0.2-0.4 0.3 0.7 0.9 1.3 1.8c0.3 0.4 0.5 0.9 0.5 1.4 0 0.4-0.5 0.9-1.2 0.8q-0.4-0.3-0.8-0.7c-0.3-0.1-0.7 0.3-0.6 0.7 0.1 0.3 0.4 0.5 0.6 0.8 0.4 0.7 0.4 1.6-0.1 2.3-0.5 0.6-1.4 0.8-2.2 0.5-0.5-0.2-0.9-0.6-1.2-1.1-1.9-2.1-3.6-4.4-5-6.9 0 0.4-0.4 0.7-0.8 0.8 1.1 1.3 2.2 2.6 3 4.2 0.2 0.5 0.5 1.1 0.4 1.7 0 0.6-0.5 1.1-1.1 1.2-0.6 0-1-0.5-1.4-0.9-1.6-1.8-3.4-3.5-5.5-5.4 0.6 0.8 1.2 1.6 1.6 2.5 0.4 1 0.6 2 0.3 2.8 0.6 0.4 1.2 1 1.5 1.8 0.3 0.7 0.2 1.6-0.2 2.3-0.5 0.6-1.4 0.9-2.2 0.4q-0.7 1-1.7 1.8c-0.2 0.1-0.4 0.2-0.6 0.2-0.3 0-0.4-0.2-0.6-0.4-1.1-1.2-2.2-2.5-3.2-3.7 0.9 1.5 1.6 3.1 1.6 4.9-0.3 0.7-1 1.3-1.8 1.4-0.8 0.2-1.7 0-2.5-0.7-1.4-1.7-2-3.9-2.3-6-0.4-2.1-0.6-4.3-1.4-6.3-0.7-1.8-1.8-3.3-2.8-5-1 0.2-2.3 0.2-2.9-0.6zm12.8 16.6c-1 0-1.9 0.4-2.7 1 0 0.1 0 0.4 0.3 0.6 0.2 0.2 0.6 0.1 0.9 0.1q1-0.3 1.8-1c0.1-0.1 0.3-0.3 0.2-0.4 0-0.2-0.3-0.3-0.5-0.3zm3.1-0.5c0.1 0 0.2 0 0.3-0.1q0.6-0.4 0.9-0.9c0.1-0.1 0.2-0.3 0.1-0.4-0.1-0.1-0.2-0.1-0.4 0-0.5 0.1-1 0.5-1.1 1.1-0.1 0.1 0.1 0.3 0.2 0.3zm2-2.1c0.2 0.1 0.3 0.1 0.5 0.1 0.3 0 0.6 0 0.9 0 0.4-0.2 0.7-0.5 0.9-0.9 0-0.2 0.1-0.4 0-0.6-0.2-0.2-0.5-0.3-0.7-0.3-0.7 0-1.3 0.2-1.8 0.6-0.1 0.1-0.2 0.3-0.1 0.6 0 0.2 0.1 0.4 0.3 0.5zm-2.3-4c0.2 0.3 0.6 0.6 1.1 0.6 0.4 0 0.8-0.1 1.2-0.3q0.4-0.4 0.7-0.9c0-0.1 0.1-0.2 0-0.4 0-0.1-0.2-0.2-0.4-0.2-0.8-0.2-1.7-0.1-2.5 0.2-0.1-0.2-0.2 0-0.3 0.2-0.1 0.3 0 0.6 0.2 0.8zm8.5 0.4c0.2 0 0.4-0.1 0.6-0.3 0.1-0.2 0.1-0.4 0-0.6q-0.1-0.1-0.2-0.1-0.1 0-0.2 0-0.5 0.3-0.8 0.7c0.1 0.3 0.4 0.4 0.6 0.3zm-3.1-7c0.2 0.1 0.4 0.2 0.6 0.2 0.2-0.1 0.3-0.2 0.5-0.4 0.2-0.3 0.3-0.8 0.2-1.1q-0.1-0.2-0.3-0.3-0.2 0-0.4 0-0.4 0.1-0.6 0.4c-0.2 0.2-0.2 0.4-0.2 0.6q0 0.4 0.2 0.6zm8.1 7.5c0.3 0 0.5-0.1 0.8-0.2 0.5-0.2 0.9-0.7 1.1-1.2 0.1-0.2 0.1-0.4-0.1-0.5-0.2-0.2-0.4-0.1-0.6 0q-0.7 0.5-1.4 1.1c-0.4 0.4-0.1 0.7 0.2 0.8zm4.5-4.9c0.1 0.1 0.3 0.1 0.4 0.1q0.2 0 0.4-0.2 0.8-0.5 1.4-1.2c0 0 0.1-0.1 0-0.2 0-0.1-0.1-0.1-0.2 0q-1 0.4-1.9 0.9c-0.2 0.2-0.2 0.4-0.1 0.6zm-3.2-14.9c0.4 0.3 0.9 0.2 1.3 0 0.5-0.2 0.8-0.6 1-1q0.7-1 1.1-2.2c0-0.1 0-0.2-0.1-0.3 0-0.2-0.2-0.2-0.4-0.2-1.3 0.1-2.6 1-3 2.3-0.3 0.7-0.3 1.2 0.1 1.4zm10.6 7c0.1 0.1 0.2 0.1 0.3 0.1q0.1-0.1 0.2-0.2 0.7-0.7 1.2-1.5c-0.1-0.1-0.1-0.3-0.2-0.4-0.2-0.1-0.4 0-0.6 0.2-0.4 0.4-0.7 0.9-0.9 1.5-0.1 0.1-0.1 0.2 0 0.3zm-3.4 5.2c1.1 0.9 1.6 1.5 2.4 1.3 0.8-0.2 1.4-0.9 1.7-1.6 0.1-0.2 0.2-0.5 0.1-0.7-0.2-0.2-0.5-0.2-0.8-0.2q-0.8 0-1.6-0.3c-0.5-0.2-0.9-0.4-1.4-0.3-0.4 0.1-0.7 0.4-0.8 0.8-0.1 0.3 0.1 0.8 0.4 1zm-37-3.2c0.3 0.3 0.8 0.4 1.2 0.3 0.4 0 0.8-0.2 1.2-0.4q0.3-0.1 0.7-0.3c0.2-0.1 0.4-0.2 0.5-0.4 0.1-0.3-0.1-0.6-0.3-0.8-0.5-0.3-1.1-0.4-1.7-0.2-0.6 0.1-1.1 0.4-1.5 0.7-0.4 0.3-0.3 0.8-0.1 1.1zm-334.5 238.2c3.1-1.6 6.5-2.4 9.9-2.2q-1.8 1.1-3.7 2.1c-0.8 0.5-1.5 0.9-2 1.7-0.7 1.3-0.2 2.9 0.5 4.3 0.8 1.3 1.6 2.7 1.5 4.2q-3.3-3.2-6.6-6.3c0.3 2-1 4-1.3 6.1-0.2 1.7 0.3 3.5 1.3 4.9q-0.6 0.3-1.2 0.3c0.3 0.8 1 1.5 1.8 1.9-0.2 0-0.4 0.3-0.4 0.6 0.1 0.2 0.4 0.4 0.7 0.5-1.1 0.5-2.4-0.2-3.4-0.9-1.5-1.1-2.9-2.4-4.4-3.4-1.6-1-3.5-1.7-5.3-1.4 1.4 0 2.7 0.5 3.8 1.5-1.2-0.6-2.5-0.8-3.7-0.7q1.9 1 3.4 2.5c-2.8 0-4.8-2.7-7.3-3.9-1.9-0.9-4.3-1.2-5.3-3-0.4-0.8-0.4-1.8-0.5-2.7-0.2-0.9-0.6-1.9-1.4-2.3-1.4-0.5-3.2 0.8-4.3-0.3 0.1-0.4 0.5-0.8 0.9-0.9-0.6 0-0.9-0.9-0.5-1.3 0.4-0.5 1.1-0.6 1.6-0.6 1.3-0.1 2.8-0.6 3.1-1.8 0.1-0.7-0.3-1.5-0.1-2.2 0.1-0.6 0.6-1.1 1.1-1.5q1.5-1.4 3-2.7c2-1.9 4-3.7 6.5-4.8 3.4-1.6 7.3-1.6 10.9-0.8 3.6 0.8 7 2.5 10.2 4.2 1.9 1 4 2.5 4.1 4.6 0 0.8-0.3 1.7-0.6 2.4-0.4 0.8-0.8 1.6-1.4 2.2-1 1-2.6 1.6-3 2.9-0.3 1.3 0.6 2.6 1.5 3.5q1.6 1.5 3.4 2.6c-1.6-0.2-2.9-1.1-4-2.2-0.8-0.9-1.5-2-1.5-3.1 0.1-1.6 1.3-2.8 2.4-3.8 1.2-1.1 2.3-2.4 2.2-3.9-0.2-1.4-1.4-2.4-2.6-3.2-2.2-1.3-4.9-2.1-7.5-2-2.7 0.1-4 0.2-5.7 2.3 1.9 2.1 2.6 5 3.9 6.6zm0.2 17q0.1 0 0.1 0 0 0-0.1 0zm-31.2 74.7c-0.7 0-1.4-0.3-2.1-0.2-0.9 0.1-1.7 0.7-2.4 1.2q-3.6 2.9-7.1 5.8c-0.2 1.8-1.5 1.7-2.5 1.1-0.5-0.3-1-0.7-1.5-1-0.6-0.3-1.3-0.3-1.7 0-1.2-4.2-3.2-7.1-5.9-9.3-0.2-0.1-0.5-0.3-0.8-0.4-0.5-0.1-1.1 0.3-1.6 0.5-1.3 0.4-2.7-0.4-3.4-1.5-0.7-1.2-0.7-2.6-0.3-3.9 0.6-2.4 2.9-4.7 5.3-4.1 1.2 0.2 2.1 1.1 3 2 1.1 1.1 2.3 2.3 3 3.7 1.2 2 1.5 4.3 1.5 6.6 0.4-3.7 0.3-7.4-0.5-11-0.1-0.5-0.2-1-0.5-1.4-0.7-0.9-1.9-0.9-2.8-1.5-1-0.7-1.4-2.1-1.2-3.3 0.2-1.2 0.9-2.3 1.6-3.2 1.6-2.1 3.7-3.8 6.1-4.6 1.3-0.4 2.6-0.5 3.9-0.1 1.2 0.5 2.2 1.6 2.3 2.9 0.1 1.8-1.4 3.2-1.9 5-0.5 1.7 0.1 3.5 0.3 5.3 0.4 4.3-1.4 8.4-3.1 12.3 1.7-2 2.9-4.5 4.8-6.4 1.6-1.7 3.7-2.9 6-2.8 2.2 0 4.6 1.5 5.1 3.7 0.5 2.2-1.3 4.8-3.6 4.6zm-25.7-4.9c0.6-0.3 1-0.8 1.3-1.4 0.4-0.8 0.7-1.7 0.5-2.6-0.2-0.9-1.1-1.7-2-1.5-0.8 0.2-1.3 1.1-1.6 1.9q-0.3 0.8-0.4 1.6c-0.1 0.6-0.2 1.4 0.4 1.8 0.5 0.4 1.2 0.5 1.8 0.2zm13.5-14c0.4-0.5 0.7-1 0.7-1.6-0.1-1-1.2-1.8-2.2-1.6-0.5 0.1-1 0.4-1.4 0.7-0.5 0.4-1 0.8-1.5 1.2-0.5 0.7-0.9 1.5-1.2 2.3 0.1 0.1 0.2 1.2 0.8 1.4 0.3 0.1 0.6 0.1 0.9 0 1.5-0.3 3-1.2 3.9-2.4zm10.4 12.3q-0.2 0-0.3 0.1-0.2 0.2-0.3 0.4c-0.2 0.6-0.1 1.2 0.2 1.7 0.3 0.5 0.8 0.9 1.2 1.2q0.9 0.5 1.8 0.9c0.4 0.1 0.9 0.2 1.2-0.1 0.2-0.2 0.2-0.6 0.1-1-0.3-1.4-1.2-2.6-2.5-3.3-0.1-0.4-0.8-0.2-1.4 0.1zm261.6-125.6c1.7-1.9 3.7-3.5 5.7-5 3.5-2.7 7.3-5.2 11.5-6.5 4.2-1.3 9-1.3 12.9 0.8 1.9-2.2 4.2-4 6.7-5.3 1.4-0.9 3.1-1.6 4.8-1.2 1.3 0.4 2.3 1.4 3.2 2.5 0.4 0.6 0.8 1.2 0.9 1.9q0 0.2 0 0.4c-0.1 0.1-0.2 0.1-0.3 0.2-1.5 0.8-1.9 2.6-3 3.9-1.5 2-4.2 2.5-6.7 2.9 1.2 0.7 1.6 2.4 1.9 4 0.8 5.6 1.1 11.7-1.3 16.8-0.3 0.5-0.7 1.1-1.2 0.9-0.3-0.1-0.5-0.5-0.5-0.9 0.1-0.3 0.2-0.6 0.4-1 0.5-1.4 0.1-2.9-0.3-4.4-0.9-3.5-1.9-7-3.7-10.1-0.2 5.2-0.1 10.4-0.3 15.5-0.1 2-0.2 4-0.9 5.9-0.5 1.4-1.2 2.6-1.9 3.9-1 2.1-1.8 4.5-3.8 5.7-0.7 0.4-1.6 0.7-2.3 0.2-0.5-0.3-0.7-0.8-0.8-1.4-0.1-0.5 0-1.1 0-1.6 0.1-0.1 0.1-0.3 0-0.4 0-0.1-0.2-0.2-0.3-0.2-0.4-0.3-0.6-1-0.4-1.5-0.3-0.3 0-0.7-0.1-1.1-0.1-0.2-0.3-0.3-0.5-0.4-0.6-0.5-0.5-1.5 0-2 0.3-0.4 0.9-0.8 0.8-1.3 0-0.2-0.1-0.4-0.2-0.6-0.1-0.4 0-0.8 0.2-1.2 0.2-0.4 0.5-0.7 0.6-1.1 0.1-0.5 0-1-0.4-1.2 0.1-0.1 0-0.2-0.2-0.3-0.2 0-0.3 0-0.5 0-0.3-0.1-0.4-0.5-0.4-0.8 0-0.9 0.3-1.8 0.4-2.7 0.3-2.4-0.4-4.9-0.2-7.3-1.4 1.2-3.2 1.7-4.9 2.2q-1.1 0.3-2.1 0.6c-1.6 0.5-3.2 0.9-4.7 0.4 0.1 0.9 0.2 1.9-0.3 2.8-0.5 0.8-1.7 1.2-2.5 0.7-0.4-0.3-0.7-0.9-1.3-1.1-0.3-0.1-0.7-0.1-1.1-0.2-0.4-0.1-0.7-0.5-0.6-0.9 0-0.2 0.3-0.4 0.1-0.6 0-0.1-0.1-0.1-0.2-0.2-0.3-0.2-0.4-0.6-0.2-0.9-0.6-0.2-1.3-0.1-1.8 0.3-0.3 0.3-0.5 0.6-0.9 0.8-0.3 0.2-0.8 0.2-1.2 0.2-1.2 0.1-2.4 0.7-3.5 1.3-1.1 0.6-2.2 1.3-3.3 1.8-1.2 0.5-2.6 0.7-3.7 0.2q1.3-1.7 2.5-3.4c0.3-0.3 0.5-0.6 0.7-0.8 1.2-1.1 2.9-1 4.3-1.8 0.4-0.2 0.9-0.5 1.4-0.5 0.6-2.7 1.9-5 3.5-6.9z"/>
	</g>
</svg>