<svg version="1.2" xmlns="http://www.w3.org/2000/svg" viewBox="0 0 741 518" width="1920" height="1342">
	<title>NewPage</title>
	<defs>
		<clipPath clipPathUnits="userSpaceOnUse" id="cp1">
			<path d="m0 0h741v518h-741z"/>
		</clipPath>
	</defs>
	<style>
		.s0 { fill: #52a6d8 } 
	</style>
	<g id="Page 1" clip-path="url(#cp1)">
		<path id="Layer9" class="s0" d="m677.2 204.6c-1.5 1.9-4 2.7-6.3 3.3-7.9 2.2-15.9 3.6-24.1 4.2-4.7 0.3-9.7 0.4-14.1-1.6-0.7-0.3-1.4-0.7-1.8-1.4-0.3-0.6-0.3-1.6 0.4-2 0.5-0.3 1.2-0.1 1.8 0.1 4.2 1.3 8.5 2.6 12.9 2.5 2.7-0.1 5.4-0.6 8-1.2 6.7-1.3 13.4-2.7 19.5-5.7 0.6-0.3 1.3-0.7 1.9-0.6 0.7 0 1.5 0.5 1.8 2.4zm0.3 0.8c-3.6 2.8-7.9 4.5-12.2 6.1-8.8 3.3-17.6 6.6-26.9 7.6-7.1 0.7-14.2 0.1-21.3-0.2-1.6-0.1-3.6-0.1-4.5 1.3-0.4 0.5-0.6 1.1-1 1.6-0.4 0.5-1.2 0.8-1.7 0.3-0.3-0.3-0.3-0.8-0.2-1.3 0.1-1 0.2-2.1 0.8-3 0.7-1.1 1.9-1.6 3.1-2 6.4-2.1 13.2-1.4 19.9-1.4 12.9 0.1 26.3-2.3 36.9-9.6 1-0.8 2.1-1.5 3.3-1.9 1.2-0.4 2.7-0.2 3.8 2.5zm-2.8-1.1c-4.8 1.9-10 2.5-15.1 2.9-2.8 0.2-5.5 0.4-8.3 0.2-6.3-0.3-12.7-2-19-0.9-2.7 0.5-5.3 1.4-8.1 1.8-2.7 0.4-5.7 0-7.8-1.8-0.7-0.6-1.2-1.8-0.5-2.4 0.4-0.3 1.1-0.2 1.6-0.1 2.5 0.5 5.1 0.8 7.7 0.8 5.7 0 11.3-1.7 17-2.4 4.4-0.6 8.9-0.6 13.4-0.2 5.4 0.6 11.1 2 16.1-0.3 0.4-0.2 0.9-0.4 1.4-0.4 1.3-0.2 2.3 1.2 1.6 2.8zm2.1-6.6c-2.3 1.1-5 0.9-7.5 1.1-4.1 0.2-8 1-12 1.5-10 1.2-20 0.2-30-1-2.6-0.3-5.5-0.8-7.1-2.9-0.4-0.5-0.6-1.1-0.6-1.7 0.2-1.2 1.4-1.8 2.5-2.2 0.4 1.6 2.1 2.5 3.7 3 2.9 0.8 5.9 1 8.9 1.1q10.4 0.3 20.8-0.4c2.1-0.2 4.2-0.4 6.3-0.8 2-0.4 4-1.1 6-1.3 1.7-0.2 3.3-0.1 5 0 0.7 0 1.4 0 1.9 0.4 0.6 0.4 0.8 1.3 2.1 3.2zm-0.9 0.9c-4.6 1.2-9.6 1.1-14.3 0.2-4.7-0.8-9.3-2.3-13.9-3.8-6.9-2.3-13.9-4.7-19.8-8.8-1.8-1.2-3.9-2.7-6-2.3-0.6 0.1-1.1 0.4-1.6 0.1-0.8-0.3-0.8-1.5-0.6-2.3 2.8-0.8 5.9-0.1 8.6 1.1 2.7 1.2 5.1 2.9 7.7 4.3 1.8 1 3.7 1.7 5.6 2.5 7.2 2.9 14.5 5.9 22.2 6.3 3.3 0.2 6.7-0.1 10-0.1 0.7 0 1.4 0 2 0.3 0.6 0.3 1.2 0.9 0.1 2.5zm-5 6.1c-7 1.7-14.5 1.4-21.3-0.9-2.7-0.9-5.3-2.1-7.9-3.1-4.6-1.8-9.3-3.1-13.9-4.5-5.7-1.6-11.8-3.2-17-1.9-0.5-0.1-1.1-0.3-1.5-0.8-0.3-0.5-0.2-1.3 0.8-1.7 9.2-1.1 18.8-0.1 27.6 3 8.6 3 16.9 8.1 26 7.8 1.9-0.1 3.7-0.4 5.4-1.2 1.5-0.7 2.8-1.8 3.9-2.9l2.4 4.4c0.1 0.2 0.2 0.5 0.1 0.7 0 0.2-0.2 0.4-0.4 0.5-0.6 0.3-1.2-0.2-4.2 0.6zm2-8c-3.9 1.4-5.6 5.9-8.4 8.9-1.3 1.3-2.7 2.4-4.3 3.3-6.1 3.6-13.3 4.9-20.3 4.2-5.5-0.5-10.7-2.2-16.1-3.4-3-0.7-6.1-1.3-9.2-1.3-5.7 0.1-11.2 2-15.3 4.9-0.5-0.3-1.1-0.6-1.4-1.2-0.2-0.5 0-1.3 0.9-1.5 4.9-4.5 11.6-7 18.2-6.8 5.5 0.2 10.8 2.2 16.1 3.9 5.2 1.7 10.8 3.1 16.2 2.2 3.2-0.5 6.2-1.8 9.1-3.4 2.5-1.3 4.9-2.8 6.3-5.3 1-1.5 1.4-3.4 2.7-4.7 0.9-0.8 2.1-1.3 3.3-1.7 0.5-0.1 1.1-0.3 1.7-0.2 0.5 0.1 1.1 0.7 0.5 2.1zm1.4 5.9c-2.5 1.6-5.7 1.5-8.6 1.2-6.8-0.8-13.4-2.7-19.5-5.5-5.8-2.6-11.1-6-16.9-8.6-5.7-2.6-12.1-4.3-18.5-3.5-0.4-1 0.1-2.1 0.5-3.1 0.1-0.4 0.4-0.9 1.1-0.8 8.8 0.4 17.4 2.8 25.2 6.9 3.5 1.8 6.9 4 10.6 5.4 3.5 1.4 7.3 2 11 2.6 2.1 0.3 4.2 0.6 6.4 0.5 2.2-0.2 4.5-1 6.2-2.6 0.6 2.1 1.4 4.2 2.5 7.5zm-5.7 2.5c-3.7 2.6-8.5 3.2-13 2.6-4.6-0.6-8.9-2.2-13.1-3.8-4.3-1.6-8.6-3.1-13.1-3.5-5.8-0.6-11.6 0.9-17.2 2.4-0.1-0.2-0.3-0.5-0.1-1.1q-0.2-1-0.5-2c3.6-1.4 7.5-1.7 11.4-1.8 11-0.4 22.1 0.6 32.9 2.9 3.1 0.6 6.3 1.4 9.5 0.9 2.6-0.4 5-1.7 7.5-2.7 0.3-0.1 0.7-0.2 1-0.1 0.2 0.1 0.3 0.3 0.4 0.5q1 2 1.6 4.2c-2.9 0.6-6.1 0.6-7.3 1.5z"/>
	</g>
</svg>