<svg version="1.2" xmlns="http://www.w3.org/2000/svg" viewBox="0 0 1100 450" width="1920" height="1080">
	<title>2302</title>
	<style>
		.s0 { fill: #004993 } 
	</style>
	<path id="fishs" fill-rule="evenodd" class="s0" d="m415.9 246q0 0 0 0.1 0 0 0.1 0 0 0.1 0 0.1 0.1 0 0.1 0.1 0 0 0.1 0 0 0.1 0.1 0.1 0 0 0.1 0.1 0 0 0.1 0 0.1 0 0.2 0 0 0.1 0.1 0.1 0.1 0 0.2 0 0 0 0.1 0 0.1 0.1 0.2 0.1 0.1 0 0.2 0 0.1 0 0.2 0 0.1 0 0.2 0 0.1 0 0.3 0 0.1 0 0.2 0 0.1 0 0.2 0 0.2 0 0.3 0 0.1 0 0.3 0 0.1 0 0.2 0 0.2 0 0.3 0 0.2 0 0.3-0.1 0.2 0 0.4 0 0.1 0 0.2 0 0.2-0.1 0.5-0.1 0.1 0 0.2 0 0 0 0 0 0 0 0 0 0.4-0.1 0.7-0.2h0.1c2.9-0.5 5.6 0.7 10.6 0.8q1.1 0.9 2.2 1.4 0.3 0.1 0.6 0.2 0.7 0.2 1.4 0.2 0.3 0.1 0.6 0 0.7 0 1.3-0.2 0.3-0.1 0.6-0.2 0.8-0.3 1.6-0.8 0.3-0.2 0.6-0.5 0.8-0.7 1.6-1.6-0.4 0.1-0.8 0.2 0.4-0.1 0.8-0.2 0 0 0 0c7-2 8.6-5.2 12-5.8 1.4-0.3 8.2-1 10.8-4.7-2.1 1.7-7 2.6-7 2.6 0 0 3.3-1.3 5.8-3.9-4.9 2.5-8 2-8 2 0 0 2.4-0.2 3.8-1.2 1.4-1 5.8-1.9 5.8-1.9 0 0-3.8-0.2-6 0.9-1.9 0.9-3.7 1.1-4.2 1.2 0.4-0.1 1.7-0.4 4-1.9 2.8-1.8 5.8-1.1 6-1.1-0.2-0.1-4.2-2.4-11.4 1q-0.9 0.4-1.7 0.7-0.4 0.2-0.7 0.3 0.3-0.1 0.7-0.3c-0.8 0-1.7-0.1-2.7-0.3q-0.3 0-0.7-0.1-0.6-0.1-1.2-0.2-0.3-0.1-0.6-0.1-0.6-0.2-1.3-0.3-0.3-0.1-0.6-0.1-0.6-0.1-1.2-0.2-0.3-0.1-0.6-0.2-0.6-0.1-1.2-0.2-0.3 0-0.6-0.1-0.6-0.1-1.2-0.1-0.3-0.1-0.6-0.1-0.6-0.1-1.2-0.1-0.3 0-0.6 0-0.6 0-1.2 0-0.2 0.1-0.3 0.1-0.2 0-0.4 0-0.7 0.1-1.2 0.2-0.4 0.1-0.7 0.1c-2.2 0.5-2.2 1.3-2.5 5.1q0.6-0.3 1.2-0.5-0.6 0.2-1.2 0.5c-5.5 2.4-9 5.7-11.1 6.1q-0.2 0.1-0.4 0.1-0.2 0.1-0.5 0.1 0 0 0 0 0 0 0 0 0 0-0.1 0.1-0.2 0-0.3 0-0.1 0.1-0.2 0.1-0.2 0-0.3 0.1-0.1 0-0.2 0-0.1 0.1-0.2 0.1-0.1 0-0.2 0.1-0.1 0-0.3 0-0.1 0.1-0.1 0.1-0.2 0-0.3 0.1-0.1 0-0.1 0.1-0.1 0-0.3 0 0 0.1-0.1 0.1-0.1 0.1-0.2 0.1-0.1 0-0.2 0.1-0.1 0-0.1 0.1-0.1 0-0.2 0-0.1 0.1-0.1 0.1-0.1 0.1-0.2 0.1 0 0.1-0.1 0.1-0.1 0.1-0.1 0.1-0.1 0-0.2 0.1 0 0-0.1 0.1 0 0-0.1 0.1 0 0 0 0.1-0.1 0-0.1 0.1-0.1 0-0.1 0.1 0 0 0 0.1-0.1 0-0.1 0 0 0.1 0 0.2 0 0.1 0 0.2 0 0 0 0.1zm35.1-11.8q0.2 0 0.4-0.1-0.2 0.1-0.4 0.1zm-17.2 12.9q0 0 0 0 0 0 0 0zm1.8-0.1q0 0 0 0 0 0 0 0 0 0 0 0zm1.4-0.1q-0.2 0-0.4 0 0.5 0 1-0.1 0 0 0 0-0.3 0-0.6 0.1zm14.6-12.8q0.3-0.1 0.6-0.3-0.3 0.2-0.6 0.3zm-0.8 0.2q-0.2 0-0.5 0.1 0.3-0.1 0.5-0.1zm-0.7 0.1q-0.6 0.1-1.1 0.1 0.2 0 0.5 0 0.3 0 0.6-0.1zm-3.7 0q0.6 0.1 1.2 0.1 0.4 0 0.7 0 0.3 0 0.6 0c-1.2 0.1-2.3-0.1-3.7-0.1q0.3 0 0.5 0 0.4 0 0.7 0zm-8.3 0.7q0.3-0.1 0.6-0.1l0.2-0.1q0 0 0.1 0-0.2 0-0.3 0.1-0.9 0.1-1.6 0.3 0.5-0.1 1-0.2zm-1.2 0.2q0.1 0 0.1 0-0.6 0.2-1.2 0.4 0.2-0.1 0.4-0.1 0.4-0.2 0.7-0.3zm-2.6 0.9q0.3-0.2 0.7-0.3 0.1 0 0.2 0-0.6 0.2-1.2 0.4 0.1-0.1 0.3-0.1zm-37.8 3.1q0 0.2 0 0.3 0.1 0 0.1 0 0 0.1 0.1 0.1 0.1 0 0.1 0.1 0.1 0 0.2 0 0.1 0.1 0.2 0.1 0.1 0 0.2 0 0.1 0 0.2 0.1 0.2 0 0.3 0 0.2 0 0.3 0 0.2 0 0.4 0 0.1-0.1 0.3-0.1 0.2 0 0.4 0 0.2 0 0.4-0.1 0.1 0 0.3 0 0 0 0 0 0.2 0 0.4-0.1h0.1c1.8-0.3 3.5 0.5 6.6 0.5q0.4 0 0.9 0-0.5 0-0.9 0 0.8 0.6 1.5 0.9 0.1 0 0.3 0.1 0.4 0.1 0.9 0.2 0.2 0 0.3 0 0.5-0.1 0.9-0.2 0.2 0 0.4-0.1 0.5-0.2 1-0.5 0.2-0.2 0.4-0.3 0.5-0.5 1-1 0 0 0 0c4.4-1.3 5.4-3.3 7.6-3.7 0.9-0.2 5.1-0.6 6.8-3-1.4 1.1-4.5 1.6-4.5 1.6 0 0 2.1-0.8 3.7-2.4-3.1 1.6-5 1.3-5 1.3 0 0 1.5-0.2 2.4-0.8 0.9-0.6 3.6-1.2 3.6-1.2 0 0-2.4-0.1-3.8 0.6-1.2 0.5-2.3 0.7-2.6 0.7 0.2 0 1.1-0.2 2.5-1.2 1.7-1.1 3.7-0.7 3.8-0.6-0.1-0.1-2.7-1.6-7.2 0.5q-0.6 0.3-1.1 0.5-0.7 0-1.7-0.2-0.2 0-0.4 0-0.4-0.1-0.7-0.2-0.3 0-0.5-0.1-0.4 0-0.8-0.1-0.2-0.1-0.4-0.1-0.3-0.1-0.7-0.1-0.2-0.1-0.4-0.1-0.4-0.1-0.7-0.1-0.2-0.1-0.5-0.1-0.3-0.1-0.7-0.1-0.2 0-0.4 0-0.4-0.1-0.7-0.1-0.2 0-0.4 0-0.4 0-0.8 0-0.1 0-0.2 0-0.1 0.1-0.2 0.1-0.4 0-0.8 0.1-0.2 0-0.4 0.1c-1.4 0.3-1.4 0.8-1.6 3.2-3.4 1.5-5.7 3.6-7 3.8q-0.1 0.1-0.2 0.1-0.2 0-0.3 0.1 0 0 0 0-0.1 0-0.2 0-0.1 0-0.3 0.1-0.1 0-0.3 0.1-0.1 0-0.2 0-0.2 0.1-0.3 0.1-0.1 0.1-0.2 0.1-0.2 0.1-0.3 0.1-0.1 0.1-0.2 0.1-0.1 0.1-0.2 0.1-0.1 0.1-0.2 0.1-0.1 0.1-0.2 0.2 0 0-0.1 0.1-0.1 0-0.1 0.1-0.1 0.1-0.1 0.1-0.1 0.1-0.1 0.2zm22.3-7.3q0 0 0.1 0-0.1 0-0.1 0zm-10.2 8.2q-0.1 0-0.3 0 0.4 0 0.8-0.1-0.1 0-0.1 0-0.2 0.1-0.4 0.1zm1.2-0.1q-0.2 0-0.5 0 0.5 0 1-0.1-0.1 0-0.1 0-0.2 0-0.4 0.1zm1.8-0.3q-0.1 0-0.2 0-0.1 0.1-0.3 0.1-0.3 0-0.5 0.1 0.5-0.1 1-0.2 0.6-0.1 1-0.2-0.1 0-0.2 0-0.4 0.1-0.8 0.2zm7.7-7.9q0.1 0 0.2-0.1-0.1 0.1-0.2 0.1zm-0.9 0.2q-0.1 0-0.1 0.1 0-0.1 0.1-0.1zm-0.4 0.1q-0.1 0-0.2 0 0.1 0 0.2 0zm-2.2 0q0.4 0 0.8 0.1 0.2 0 0.4 0 0.4 0 0.7-0.1c-0.8 0.1-1.5 0-2.5 0q0.1 0 0.2 0 0.2 0 0.4 0zm-1.4 0q-0.1 0-0.3 0 0.1 0 0.1 0 0.1 0 0.2 0zm-1.3 0q-0.1 0-0.2 0 0.1 0 0.1 0 0 0 0.1 0zm-0.9 0.1q0.1 0 0.2 0-0.2 0-0.4 0.1 0.1-0.1 0.2-0.1zm-1.6 0.3q0.1 0 0.3-0.1h0.1q0.4-0.1 0.8-0.1 0 0 0 0-0.4 0-0.9 0.1-0.5 0.1-1 0.3 0.3-0.1 0.7-0.2zm-0.8 0.2q0 0 0 0-0.3 0.1-0.7 0.2 0.1-0.1 0.3-0.1 0.2-0.1 0.4-0.1zm-1.7 0.5q0.3-0.1 0.5-0.2 0 0 0.1 0-0.3 0.1-0.7 0.2 0.1 0 0.1 0zm77.8 5.7c3.6-0.3 4.6-1.7 6.4-1.7 0.7 0 4 0.3 5.6-1.2-1.2 0.6-3.6 0.5-3.6 0.5 0 0 1.7-0.3 3.1-1.3-2.6 0.8-4 0.2-4 0.2 0 0 1.1 0.2 1.9-0.2 0.8-0.3 3-0.4 3-0.4 0 0-1.8-0.4-3-0.1-1 0.3-1.9 0.2-2.1 0.2 0.2 0 0.8 0 2.1-0.5 1.5-0.6 2.9-0.1 3 0-0.1-0.1-1.8-1.6-5.6-0.6q-0.5 0.1-0.9 0.2-0.6-0.1-1.3-0.4-0.1-0.1-0.3-0.1-0.3-0.1-0.5-0.2-0.2-0.1-0.3-0.2-0.3-0.1-0.6-0.2-0.2-0.1-0.3-0.1-0.3-0.1-0.6-0.2-0.1-0.1-0.3-0.2-0.2-0.1-0.5-0.2-0.2 0-0.3-0.1-0.3-0.1-0.5-0.2-0.2 0-0.4 0-0.2-0.1-0.5-0.2-0.2 0-0.3-0.1-0.3 0-0.6-0.1-0.1 0-0.2 0-0.1 0-0.1 0-0.4 0-0.6 0-0.2 0-0.4 0c-1.1 0-1.2 0.4-1.7 2.2-2.8 0.7-4.9 1.9-5.9 1.9q-0.1 0-0.2 0.1-0.1 0-0.2 0 0 0 0 0-0.1 0-0.2 0-0.1 0-0.2 0-0.1 0-0.2 0-0.1 0-0.2 0-0.2 0-0.3 0.1-0.1 0-0.2 0-0.1 0-0.2 0-0.1 0.1-0.1 0.1-0.1 0-0.2 0-0.1 0.1-0.2 0.1-0.1 0-0.1 0.1-0.1 0-0.1 0-0.1 0.1-0.2 0.1 0 0 0 0.1-0.1 0-0.1 0.1-0.1 0.1 0 0.2 0 0 0 0.1 0 0 0.1 0.1 0 0 0 0 0.1 0.1 0.2 0.1 0 0 0.1 0.1 0.1 0 0.2 0 0 0.1 0.1 0.1 0.1 0 0.3 0 0.1 0.1 0.2 0.1 0.1 0 0.3 0 0.1 0 0.2 0 0.2 0.1 0.3 0.1 0.2 0 0.3 0 0.1 0 0.2 0 0 0 0.1 0 0.1 0 0.3 0c1.5 0 2.7 0.9 5.1 1.4q0.3 0 0.6 0.1-0.3-0.1-0.6-0.1 0.4 0.5 0.9 0.8 0.2 0.1 0.3 0.2 0.3 0.2 0.6 0.2 0.2 0.1 0.3 0.1 0.3 0 0.7 0 0.1 0 0.3 0 0.4-0.1 0.8-0.3 0.2-0.1 0.4-0.2 0.4-0.2 0.9-0.6 0 0 0 0zm4.5-4.8q0 0 0.1 0-0.1 0-0.1 0zm-0.4 0q0.1 0 0.2 0-0.1 0-0.2 0zm0.8 0q0 0 0.1 0-0.1 0-0.1 0zm0.4 0q0.1 0 0.1 0 0 0-0.1 0zm-2.7-0.3q0.3 0.1 0.6 0.2 0.1 0 0.3 0 0.3 0.1 0.6 0.1c-0.7 0-1.2-0.2-2-0.4q0.1 0 0.1 0 0.2 0.1 0.4 0.1zm-1.1-0.2q-0.1 0-0.2-0.1 0 0 0 0 0.1 0.1 0.2 0.1zm-1-0.2q-0.1 0-0.1 0 0 0 0 0 0.1 0 0.1 0zm-0.5 0q-0.2 0-0.4 0 0.1 0 0.2 0 0.1 0 0.2 0zm-1.2-0.1h0.1q0.3 0 0.6 0.1 0 0 0 0-0.3-0.1-0.7-0.1-0.4 0-0.8 0.1 0.2 0 0.5-0.1 0.2 0 0.3 0zm-0.9 0.1q0 0 0 0-0.3 0-0.6 0 0.1 0 0.2 0 0.2 0 0.4 0zm-1.4 0.1q0.2 0 0.4 0 0.1 0 0.1 0-0.3 0-0.5 0 0 0 0 0zm-0.6 5.4q-0.1-0.1-0.2-0.1 0.3 0.1 0.6 0.1-0.1 0-0.1 0-0.2 0-0.3 0zm1 0.1q-0.2-0.1-0.4-0.1 0.3 0.1 0.7 0.1 0 0 0 0-0.2 0-0.3 0zm1.4 0q-0.1 0-0.2 0-0.1 0-0.3 0-0.2 0-0.3 0 0.4 0 0.8 0 0.4 0 0.8 0-0.1 0-0.2 0-0.3 0-0.6 0zm-32.1-17.4c0.6-0.3 2.5-0.3 2.5-0.3 0 0-1.5-0.4-2.5-0.1-0.8 0.2-1.6 0.2-1.8 0.2 0.2 0 0.7-0.1 1.8-0.5 1.2-0.5 2.4 0 2.5 0-0.1 0-1.5-1.3-4.7-0.5q-0.4 0.1-0.7 0.2-0.4 0.1-0.6 0.1 0.2 0 0.6-0.1-0.5-0.1-1.1-0.3-0.1-0.1-0.3-0.1-0.2-0.1-0.4-0.2-0.2 0-0.3-0.1-0.2-0.1-0.5-0.2-0.1 0-0.2-0.1-0.2-0.1-0.5-0.2-0.1 0-0.2-0.1-0.2-0.1-0.5-0.1-0.1-0.1-0.2-0.1-0.2-0.1-0.5-0.2-0.1 0-0.2-0.1-0.3 0-0.5-0.1-0.1 0-0.2-0.1-0.3 0-0.5 0-0.1 0-0.2 0 0 0-0.1 0-0.3-0.1-0.5-0.1-0.2 0-0.3 0c-0.9 0.1-1 0.4-1.4 1.9-2.4 0.5-4.1 1.6-4.9 1.6q-0.1 0-0.2 0-0.1 0-0.2 0 0 0 0 0-0.1 0-0.1 0-0.1 0-0.2 0-0.1 0-0.2 0-0.1 0-0.2 0.1-0.1 0-0.2 0 0 0-0.1 0-0.1 0-0.2 0-0.1 0.1-0.1 0.1-0.1 0-0.2 0-0.1 0.1-0.1 0.1-0.1 0-0.1 0-0.1 0.1-0.1 0.1-0.1 0-0.1 0.1-0.1 0-0.1 0-0.1 0.1-0.1 0.1 0 0.1 0 0.2 0 0 0 0 0.1 0.1 0.1 0.1 0 0 0.1 0.1 0 0 0.1 0 0 0.1 0.1 0.1 0 0 0.1 0 0.1 0.1 0.2 0.1 0.1 0 0.2 0 0 0 0.1 0.1 0.1 0 0.3 0 0.1 0 0.2 0 0.1 0 0.3 0 0.1 0 0.2 0.1 0.1 0 0.2 0 0 0 0 0 0.1 0 0.2 0h0.1c1.2 0 2.2 0.7 4.2 1.1q0.2 0.1 0.5 0.1-0.3 0-0.5-0.1 0.4 0.5 0.8 0.7 0.1 0.1 0.2 0.2 0.3 0.1 0.5 0.2 0.1 0 0.3 0 0.2 0 0.5 0 0.2 0 0.3 0 0.3-0.1 0.7-0.2 0.1-0.1 0.3-0.2 0.4-0.2 0.7-0.5 0 0 0 0c3-0.3 3.9-1.4 5.3-1.4 0.6 0 3.4 0.2 4.7-1-0.9 0.5-3 0.4-3 0.4 0 0 1.4-0.2 2.6-1.1-2.1 0.7-3.3 0.2-3.3 0.2 0 0 0.9 0.1 1.6-0.2zm-3.7-0.9q-0.2 0-0.4 0 0.2 0 0.4 0zm-0.7 0q0 0 0.1 0-0.1 0-0.1 0zm-1.3-0.2q0.2 0 0.5 0.1 0.1 0 0.3 0.1 0.2 0 0.4 0c-0.5 0-1-0.2-1.6-0.3q0.1 0 0.1 0 0.2 0 0.3 0.1zm-0.9-0.2q-0.1-0.1-0.2-0.1 0.1 0 0.1 0 0 0 0.1 0.1zm-0.8-0.2q-0.1 0-0.1 0 0 0 0 0 0 0 0.1 0zm-0.5 0q-0.1 0-0.3 0 0.1 0 0.2 0 0.1 0 0.1 0zm-1 0h0.1q0.3 0 0.5 0 0 0 0 0-0.3 0-0.6 0-0.3 0-0.6 0 0.2 0 0.4 0 0.1 0 0.2 0zm-0.7 0q0 0 0 0-0.2 0-0.5 0 0.1 0 0.2 0 0.1 0 0.3 0zm-1.1 0.1q0.1 0 0.3 0 0 0 0.1 0-0.3 0-0.5 0 0 0 0.1 0zm-0.6 4.5q-0.1-0.1-0.1-0.1 0.2 0.1 0.4 0.1 0 0 0 0-0.1 0-0.3 0zm0.8 0q-0.1 0-0.3 0 0.3 0 0.6 0.1 0 0 0 0-0.1 0-0.3-0.1zm1.2 0.1q-0.1 0-0.1 0-0.1 0-0.3 0-0.1 0-0.3 0 0.4 0 0.7 0 0.4 0 0.7 0-0.1 0-0.2 0-0.2 0-0.5 0zm11.4-12c0.5-0.3 1.9-0.3 1.9-0.3 0 0-1.2-0.3-1.9-0.1-0.7 0.2-1.2 0.2-1.4 0.2 0.1 0 0.6-0.1 1.3-0.4 1-0.4 1.9 0 2 0-0.1 0-1.2-1-3.6-0.3q-0.3 0-0.6 0.1-0.2 0-0.4 0.1 0.2-0.1 0.4-0.1-0.3-0.1-0.8-0.3-0.1 0-0.2 0-0.1-0.1-0.3-0.2-0.1 0-0.2-0.1-0.2 0-0.4-0.1-0.1 0-0.2-0.1-0.1 0-0.3-0.1-0.1-0.1-0.2-0.1-0.2-0.1-0.3-0.1-0.1-0.1-0.2-0.1-0.2-0.1-0.4-0.1-0.1 0-0.2-0.1-0.1 0-0.3-0.1-0.1 0-0.2 0-0.2 0-0.4-0.1 0 0-0.1 0 0 0-0.1 0-0.2 0-0.4 0-0.1 0-0.2 0c-0.7 0-0.7 0.3-1.1 1.4q0.3-0.1 0.6-0.1 0.1 0 0.3 0 0-0.1 0.1-0.1-0.5 0.1-1 0.2c-1.8 0.4-3 1.2-3.7 1.2q-0.1 0-0.1 0-0.1 0-0.2 0 0 0 0 0 0 0-0.1 0 0 0-0.1 0-0.1 0.1-0.2 0.1 0 0-0.1 0-0.1 0-0.1 0-0.1 0-0.2 0 0 0-0.1 0.1 0 0-0.1 0-0.1 0-0.1 0-0.1 0-0.1 0-0.1 0.1-0.1 0.1 0 0-0.1 0 0 0.1 0 0.1-0.1 0-0.1 0 0 0.1-0.1 0.1 0 0.1 0 0.1 0 0.1 0.1 0.1 0 0 0 0 0 0.1 0.1 0.1 0 0 0 0 0.1 0 0.1 0.1 0.1 0 0.1 0 0.1 0 0.1 0 0.1 0 0.2 0.1 0 0 0.1 0 0.1 0 0.2 0 0.1 0 0.2 0 0.1 0 0.2 0.1 0.1 0 0.1 0 0.1 0 0.2 0 0 0 0 0 0.1 0 0.2 0c0.9 0 1.7 0.5 3.2 0.8q0.3 0.4 0.6 0.6 0.1 0 0.2 0.1 0.2 0.1 0.4 0.1 0.1 0.1 0.2 0.1 0.2 0 0.4 0 0.1 0 0.2 0 0.3-0.1 0.5-0.2 0.1 0 0.2-0.1 0.3-0.2 0.6-0.4 0 0 0 0c2.3-0.2 2.9-1.1 4-1.1 0.5 0 2.6 0.2 3.6-0.8-0.8 0.4-2.3 0.4-2.3 0.4 0 0 1.1-0.2 2-0.9-1.6 0.5-2.6 0.2-2.6 0.2 0 0 0.8 0.1 1.3-0.1zm-2.8-0.7q-0.2 0-0.4 0 0.2 0 0.4 0zm-0.6 0q0.1 0 0.1 0 0 0-0.1 0zm-1-0.2q0.2 0 0.4 0.1 0.1 0 0.2 0 0.2 0.1 0.4 0.1c-0.4-0.1-0.8-0.2-1.2-0.3q0 0 0 0 0.1 0 0.2 0.1zm-0.6-0.2q-0.1 0-0.2 0 0.1 0 0.1 0 0 0 0.1 0zm-0.7-0.1q0 0 0 0 0 0 0 0 0 0 0 0zm-0.3 0q-0.1 0-0.2 0 0 0 0.1 0 0 0 0.1 0zm-1.5 0q0.1 0 0.2 0 0.2 0 0.4 0 0.1 0 0.2 0 0.2 0 0.4 0 0 0 0 0-0.2 0-0.4 0-0.6 0-1 0 0.1 0 0.2 0zm-1.1 3.5q0 0-0.1-0.1 0.2 0.1 0.3 0.1 0 0 0 0-0.1 0-0.2 0zm0.6 0q-0.1 0-0.2 0 0.2 0 0.5 0-0.1 0-0.1 0-0.1 0-0.2 0zm0.9 0.1q0 0-0.1-0.1-0.1 0.1-0.2 0-0.1 0-0.2 0 0.3 0 0.5 0.1 0.3 0 0.5-0.1 0 0-0.1 0-0.2 0.1-0.4 0.1zm31.9 4.7c-0.8 0.6-2.8 1-2.8 1 0 0 1.3-0.5 2.3-1.6-1.9 1-3.1 0.8-3.1 0.8 0 0 0.9-0.1 1.5-0.4 0.5-0.4 2.2-0.8 2.2-0.8 0 0-1.5-0.1-2.3 0.4-0.7 0.3-1.5 0.4-1.7 0.4 0.2 0 0.7-0.1 1.6-0.7 1.1-0.7 2.3-0.5 2.4-0.4-0.1-0.1-1.7-1-4.5 0.3q-0.4 0.2-0.7 0.3-0.3 0.1-0.5 0.2 0.2-0.1 0.5-0.2-0.4 0-1-0.1-0.2 0-0.3 0-0.2-0.1-0.4-0.1-0.2 0-0.3-0.1-0.3 0-0.5-0.1-0.1 0-0.3 0-0.2-0.1-0.4-0.1-0.1 0-0.3-0.1-0.2 0-0.4 0-0.1-0.1-0.3-0.1-0.2 0-0.4 0-0.1 0-0.3-0.1-0.2 0-0.4 0-0.2 0-0.3 0-0.2 0-0.4 0-0.1 0-0.2 0 0 0-0.1 0.1-0.3 0-0.5 0-0.1 0-0.3 0.1c-0.8 0.2-0.8 0.5-0.9 2q0.3-0.2 0.7-0.3 0.1-0.1 0.2-0.1 0.1 0 0.2-0.1-0.6 0.2-1.1 0.5c-2.2 0.9-3.6 2.2-4.4 2.4q-0.1 0-0.1 0-0.1 0-0.2 0 0 0 0 0-0.1 0-0.1 0.1-0.1 0-0.2 0-0.1 0-0.2 0.1-0.1 0-0.1 0-0.1 0-0.2 0.1-0.1 0-0.2 0 0 0.1-0.1 0.1-0.1 0-0.1 0-0.1 0.1-0.2 0.1 0 0-0.1 0.1 0 0-0.1 0.1 0 0-0.1 0 0 0.1 0 0.1-0.1 0-0.1 0.1 0 0-0.1 0.1 0 0.1 0.1 0.1 0 0.1 0 0.1 0 0 0.1 0.1 0 0 0 0 0.1 0 0.2 0 0 0 0.1 0.1 0 0 0.1 0 0.1 0 0.2 0 0 0 0.1 0 0.1 0 0.2 0 0.1 0 0.2 0 0.1 0 0.2 0 0.2 0 0.3 0 0.1-0.1 0.2-0.1 0.1 0 0.2 0 0 0 0 0 0.1 0 0.3 0v-0.1c1.1-0.2 2.2 0.3 4.1 0.4q0.5 0.3 0.9 0.5 0.1 0 0.2 0.1 0.3 0.1 0.6 0.1 0.1 0 0.2 0 0.3 0 0.5-0.1 0.2-0.1 0.3-0.1 0.3-0.1 0.6-0.3 0.1-0.1 0.2-0.2 0.4-0.3 0.6-0.6 0.1 0 0.1 0c2.7-0.8 3.3-2.1 4.7-2.3 0.5-0.1 3.2-0.4 4.2-1.8zm-5.7-0.4q-0.3 0-0.5 0.1 0.2-0.1 0.5-0.1zm-0.6 0.1q-0.1 0-0.2 0 0.1 0 0.2 0zm-1.4 0q0.3 0 0.5 0 0.1 0 0.3 0 0.2 0 0.4 0c-0.5 0.1-1 0-1.6 0q0.1 0 0.1 0 0.2 0 0.3 0zm-0.9 0q0 0-0.1 0 0 0 0 0 0.1 0 0.1 0zm-0.8 0q0 0-0.1 0 0.1 0 0.1 0 0 0 0 0zm-0.5 0.1q0.1 0 0.1-0.1-0.1 0.1-0.3 0.1 0.1 0 0.2 0zm-1.8 0.3q0.2 0 0.3-0.1 0.2 0 0.5-0.1 0.1 0 0.2 0h0.1q0.2-0.1 0.4-0.1 0 0 0 0-0.2 0-0.5 0.1-0.7 0.1-1.2 0.3 0.1 0 0.2-0.1zm-0.4 4.5q-0.1 0-0.1 0 0.1 0 0.3 0 0 0 0 0-0.1 0-0.2 0zm0.7 0q-0.1 0-0.3 0 0.3 0 0.6-0.1 0 0 0 0-0.2 0.1-0.3 0.1zm1.1-0.2q0 0-0.1 0-0.1 0-0.2 0.1-0.2 0-0.3 0 0.3 0 0.6-0.1 0.4-0.1 0.6-0.1 0 0-0.1 0-0.2 0-0.5 0.1zm-7.6-10q0 0 0 0-0.1 0-0.2 0-0.2 0-0.4 0 0.2 0.2 0.4 0.3 0.1 0 0.1 0 0.2 0 0.3 0.1 0.1 0 0.1 0 0.1-0.1 0.3-0.1 0 0 0.1 0 0.2-0.1 0.3-0.2 0.1 0 0.1-0.1 0.2-0.1 0.3-0.3-0.1 0-0.3 0.1 0 0-0.1 0-0.1 0-0.2 0.1-0.1 0-0.1 0 0 0-0.1 0-0.1 0-0.3 0 0 0-0.1 0.1-0.1 0-0.2 0 0.4-0.1 0.8-0.1 0.3-0.1 0.6-0.2 0 0 0 0c1.4-0.4 1.7-1 2.4-1.1 0.3-0.1 1.6-0.2 2.1-1-0.4 0.4-1.4 0.5-1.4 0.5 0 0 0.7-0.2 1.2-0.7-1 0.5-1.6 0.4-1.6 0.4 0 0 0.5-0.1 0.8-0.3 0.2-0.2 1.1-0.3 1.1-0.3 0 0-0.8-0.1-1.2 0.1-0.4 0.2-0.7 0.3-0.8 0.3 0.1 0 0.3-0.1 0.8-0.4 0.5-0.3 1.1-0.2 1.2-0.2-0.1 0-0.9-0.5-2.3 0.2q-0.2 0.1-0.3 0.1-0.2 0-0.5 0-0.1 0-0.2-0.1-0.1 0-0.2 0-0.1 0-0.1 0-0.2 0-0.3-0.1 0 0-0.1 0-0.1 0-0.2 0-0.1-0.1-0.2-0.1-0.1 0-0.2 0-0.1 0-0.1 0-0.1 0-0.2-0.1-0.1 0-0.2 0-0.1 0-0.2 0-0.1 0-0.1 0-0.2 0-0.3 0 0 0 0 0-0.1 0-0.1 0-0.1 0.1-0.2 0.1-0.1 0-0.2 0c-0.4 0.1-0.4 0.2-0.5 1q0.2-0.1 0.4-0.1 0.1-0.1 0.1-0.1 0.1 0 0.1 0-0.3 0.1-0.6 0.2c-1 0.5-1.7 1.1-2.1 1.2q-0.1 0-0.1 0-0.1 0-0.1 0 0 0 0 0 0 0 0 0-0.2 0.1-0.3 0.1-0.1 0-0.1 0-0.1 0.1-0.2 0.1 0 0.1-0.1 0.1-0.1 0-0.1 0.1 0 0 0 0-0.1 0.1-0.1 0.1 0 0.1 0 0.1 0 0 0 0 0 0 0 0 0 0.1 0.1 0.1 0 0 0 0 0.1 0 0.1 0 0 0 0.1 0 0 0 0 0 0.1 0 0.1 0 0.1 0 0.1 0 0.1 0 0.1 0 0.1 0 0.1 0 0.1 0 0.2 0 0 0 0.1 0 0 0 0 0 0 0 0 0 0.1 0 0.2-0.1c0.6-0.1 1.1 0.2 2.1 0.2q0.3 0 0.6 0zm3-2.5q0 0 0-0.1 0 0.1 0 0.1zm-0.3 0q0 0 0 0 0 0 0 0zm-0.2 0q0 0 0 0-0.1 0-0.1 0 0 0 0.1 0zm-0.4 0q0.1 0 0.2 0-0.2 0-0.4 0 0 0 0 0 0.1 0 0.2 0zm-0.4 0q0.1 0 0.2 0-0.2 0-0.4 0 0.1 0 0.1 0 0 0 0.1 0zm-0.4 0q0.1 0 0.2 0-0.2 0-0.4 0 0.1 0 0.1 0 0.1 0 0.1 0zm-1.2 0.2q0 0 0.1 0 0.1 0 0.2-0.1 0.1 0 0.2 0 0.1 0 0.2 0 0.1 0 0.2-0.1 0 0 0.1 0-0.3 0.1-0.5 0.1-0.4 0.1-0.7 0.2 0.1-0.1 0.2-0.1zm20.1-6.9c0 0-0.8-0.5-2.2 0.2q-0.2 0.1-0.3 0.1-0.3 0-0.6 0 0 0-0.1-0.1-0.1 0-0.2 0-0.1 0-0.2 0-0.1 0-0.2-0.1-0.1 0-0.1 0-0.1 0-0.3 0 0-0.1-0.1-0.1-0.1 0-0.2 0-0.1 0-0.1 0-0.2 0-0.3-0.1 0 0-0.1 0-0.1 0-0.2 0-0.1 0-0.1 0-0.2 0-0.3 0 0 0 0 0-0.1 0-0.1 0-0.1 0.1-0.2 0.1-0.1 0-0.2 0c-0.4 0.1-0.4 0.2-0.5 1q0.2-0.1 0.4-0.2 0 0 0.1 0 0 0 0.1 0-0.3 0.1-0.6 0.2c-1.1 0.5-1.7 1.1-2.2 1.2q0 0 0 0-0.1 0-0.1 0 0 0 0 0 0 0-0.1 0-0.1 0.1-0.3 0.1 0 0 0 0-0.1 0.1-0.2 0.1-0.1 0-0.1 0.1-0.1 0-0.2 0.1 0 0 0 0 0 0.1 0 0.1-0.1 0.1 0 0.1 0 0 0 0 0 0 0 0 0 0.1 0.1 0.1 0 0 0 0 0 0 0.1 0 0 0 0 0 0.1 0 0.1 0 0.1 0 0.1 0 0 0 0.1 0 0 0 0.1 0 0.1 0 0.1 0 0.1 0 0.1 0 0.1 0 0.2 0 0 0 0 0 0 0 0 0 0.1 0 0.2-0.1c0.6-0.1 1.1 0.2 2.1 0.2q0.2 0 0.6 0 0 0-0.1 0 0 0-0.1 0-0.2 0-0.4 0 0.2 0.2 0.4 0.3 0.1 0 0.1 0 0.1 0 0.3 0.1 0 0 0.1 0 0.1-0.1 0.3-0.1 0 0 0.1 0 0.1-0.1 0.3-0.2 0 0 0.1-0.1 0.2-0.1 0.3-0.3-0.1 0-0.3 0.1 0 0-0.1 0-0.1 0-0.2 0.1-0.1 0-0.1 0-0.1 0-0.1 0-0.2 0-0.3 0 0 0-0.1 0.1-0.1 0-0.2 0 0.4-0.1 0.8-0.1 0.3-0.1 0.6-0.2 0 0 0 0c1.4-0.4 1.7-1 2.4-1.1 0.3-0.1 1.6-0.2 2.1-1-0.4 0.4-1.4 0.5-1.4 0.5 0 0 0.7-0.2 1.2-0.7-1 0.5-1.6 0.4-1.6 0.4 0 0 0.5-0.1 0.7-0.3 0.3-0.2 1.2-0.3 1.2-0.3 0 0-0.8-0.1-1.2 0.1-0.4 0.2-0.7 0.3-0.8 0.3 0.1 0 0.3-0.1 0.8-0.4 0.5-0.3 1.1-0.2 1.1-0.2zm-3 0.5q0.1 0 0.1-0.1 0 0.1-0.1 0.1zm-0.2 0q0 0 0 0 0 0 0 0zm-0.3 0q0 0 0.1 0-0.1 0-0.2 0 0.1 0 0.1 0zm-0.3 0q0.1 0 0.1 0-0.1 0-0.3 0 0 0 0 0 0.1 0 0.2 0zm-0.4 0q0.1 0 0.1 0-0.1 0-0.3 0 0 0 0 0 0.1 0 0.2 0zm-0.4 0q0.1 0 0.2 0-0.2 0-0.4 0 0.1 0 0.1 0 0 0 0.1 0zm-1.3 0.2q0.1 0 0.2 0 0.1 0 0.2-0.1 0.1 0 0.1 0h0.1q0.1 0 0.2 0 0.1-0.1 0.1-0.1 0.1 0 0.1 0-0.2 0.1-0.5 0.1-0.3 0.1-0.6 0.2 0.1-0.1 0.1-0.1zm11-0.2q0 0-0.1 0 0 0.1 0 0.1 0 0 0 0 0 0-0.1 0-0.1 0.1-0.2 0.2 0 0-0.1 0-0.1 0.1-0.2 0.2 0 0 0 0-0.1 0.1-0.1 0.1 0 0.1 0 0.1-0.1 0-0.1 0.1 0 0.1 0.1 0.1 0 0 0 0 0.1 0 0.2 0 0 0 0 0 0.2 0 0.3-0.1 0.1 0 0.1 0 0.2 0 0.4-0.1 0 0 0 0 0 0 0-0.1 0.1 0 0.1 0c0.6-0.3 1.1-0.2 2.1-0.4q0.2-0.1 0.6-0.2-0.1 0-0.1 0 0 0-0.1 0-0.2 0.1-0.4 0.2 0.2 0.1 0.5 0.1 0 0 0.1 0 0.1 0 0.3 0 0 0 0.1-0.1 0.1 0 0.2-0.1 0.1 0 0.1 0 0.2-0.1 0.3-0.3 0 0 0.1-0.1 0.1-0.2 0.2-0.4-0.2 0.1-0.3 0.2 0 0-0.1 0-0.1 0.1-0.2 0.1 0 0.1-0.1 0.1 0 0-0.1 0-0.1 0.1-0.2 0.1-0.1 0.1-0.1 0.1-0.1 0-0.2 0 0.3-0.1 0.7-0.3 0.3-0.1 0.6-0.3 0 0 0 0c1.2-0.8 1.3-1.4 1.9-1.8 0.3-0.1 1.5-0.6 1.8-1.4-0.3 0.4-1.2 0.8-1.2 0.8 0 0 0.6-0.4 0.9-1-0.8 0.7-1.4 0.8-1.4 0.8 0 0 0.4-0.2 0.7-0.4 0.2-0.3 0.9-0.7 0.9-0.7 0 0-0.7 0.2-1 0.5-0.3 0.3-0.7 0.4-0.8 0.5 0.1-0.1 0.3-0.2 0.7-0.6 0.4-0.5 1-0.6 1.1-0.6-0.1 0-1-0.2-2.1 0.8q-0.2 0.2-0.3 0.3-0.2 0-0.5 0.1-0.1 0-0.2 0-0.1 0-0.2 0-0.1 0-0.1 0-0.2 0-0.3 0-0.1 0-0.1 0.1-0.1 0-0.3 0 0 0-0.1 0-0.1 0-0.2 0-0.1 0-0.1 0-0.2 0-0.3 0.1 0 0-0.1 0-0.1 0-0.2 0-0.1 0-0.1 0.1-0.2 0-0.3 0 0 0 0 0.1-0.1 0-0.1 0-0.1 0-0.2 0.1-0.1 0-0.1 0.1c-0.4 0.2-0.4 0.3-0.2 1q0.1-0.1 0.3-0.2 0 0 0.1-0.1 0 0 0 0-0.2 0.2-0.4 0.3c-0.9 0.8-1.4 1.6-1.8 1.8zm4.9-3.2q0 0 0 0 0 0 0 0zm0.2-0.1q0 0 0.1 0-0.1 0-0.1 0zm-0.5 0.2q0 0 0.1 0-0.1 0-0.2 0.1 0.1-0.1 0.1-0.1zm-0.3 0.1q0.1 0 0.2 0-0.2 0-0.4 0.1 0 0 0-0.1 0.1 0 0.2 0zm-0.4 0.1q0.1 0 0.2 0-0.2 0-0.3 0 0 0 0 0 0 0 0.1 0zm-0.3 0.1q0 0 0.1 0-0.1 0-0.3 0.1 0 0 0 0 0.1-0.1 0.2-0.1zm-1.2 0.6q0.1-0.1 0.1-0.1 0.1-0.1 0.2-0.1 0.1 0 0.1-0.1h0.1q0.1 0 0.2-0.1 0 0 0.1 0 0.1-0.1 0.1-0.1-0.2 0.1-0.5 0.2-0.3 0.2-0.5 0.4 0-0.1 0.1-0.1zm-15.7 10.3c0 0-0.8-0.5-2.2 0.2q-0.2 0.1-0.3 0.1h-0.1q-0.2 0-0.5 0 0 0-0.1 0-0.1-0.1-0.2-0.1-0.1 0-0.2 0-0.1 0-0.2-0.1-0.1 0-0.2 0-0.1 0-0.2 0 0 0-0.1-0.1-0.1 0-0.2 0-0.1 0-0.2 0-0.1 0-0.2 0 0-0.1-0.1-0.1-0.1 0-0.2 0-0.1 0-0.2 0-0.1 0-0.2 0 0 0-0.1 0 0 0 0 0-0.2 0.1-0.3 0.1 0 0-0.1 0c-0.4 0.1-0.4 0.2-0.5 1q0.2-0.1 0.3-0.1 0.1-0.1 0.2-0.1 0 0 0 0-0.2 0.1-0.5 0.2c-1.1 0.5-1.8 1.1-2.2 1.2q0 0-0.1 0 0 0 0 0 0 0 0 0-0.1 0-0.1 0-0.1 0.1-0.3 0.1 0 0 0 0-0.2 0.1-0.3 0.1 0 0.1 0 0.1-0.1 0-0.2 0.1 0 0 0 0-0.1 0.1-0.1 0.1 0 0.1 0 0.1 0.1 0 0.1 0 0 0 0 0.1 0 0 0 0 0.1 0 0.1 0 0 0 0 0 0.1 0 0.1 0 0.1 0 0.1 0 0 0 0.1 0 0 0 0.1 0 0 0 0.1 0 0 0 0.1 0 0 0 0.1 0 0.1 0 0.1 0 0.1 0 0.1 0 0 0 0 0 0.1 0 0.1 0l0.1-0.1c0.5-0.1 1.1 0.2 2 0.2q0.3 0 0.7 0-0.1 0-0.1 0 0 0-0.1 0-0.2 0-0.5 0 0.3 0.2 0.5 0.3 0 0 0.1 0 0.1 0.1 0.3 0.1 0 0 0.1 0 0.1 0 0.2-0.1 0.1 0 0.2 0 0.1-0.1 0.3-0.2 0 0 0.1-0.1 0.2-0.1 0.3-0.3-0.1 0.1-0.3 0.1-0.1 0-0.1 0-0.1 0-0.3 0.1 0 0 0 0-0.1 0-0.1 0-0.2 0-0.3 0-0.1 0.1-0.1 0.1-0.1 0-0.2 0 0.3-0.1 0.7-0.1 0.4-0.1 0.7-0.2 0 0 0 0c1.4-0.4 1.7-1 2.4-1.1 0.2-0.1 1.6-0.2 2.1-1-0.4 0.4-1.4 0.5-1.4 0.5 0 0 0.7-0.2 1.1-0.7-0.9 0.5-1.5 0.4-1.5 0.4 0 0 0.4-0.1 0.7-0.3 0.3-0.1 1.2-0.3 1.2-0.3 0 0-0.8-0.1-1.2 0.1-0.4 0.2-0.7 0.3-0.8 0.3 0 0 0.3-0.1 0.7-0.4 0.6-0.3 1.2-0.2 1.2-0.2zm-3 0.5q0.1 0 0.1 0 0 0-0.1 0zm-0.2 0q0 0 0 0 0 0 0 0zm-0.3 0q0 0 0 0 0 0-0.1 0 0.1 0 0.1 0zm-0.4 0q0.1 0 0.2 0-0.1 0-0.4 0 0.1 0 0.1 0 0.1 0 0.1 0zm-0.3 0q0 0 0.1 0-0.1 0-0.3 0 0 0 0 0 0.1 0 0.2 0zm-0.4 0q0.1 0 0.2 0-0.2 0-0.4 0 0 0 0.1 0 0 0 0.1 0zm-1.3 0.2q0.1 0 0.2 0 0.1 0 0.2-0.1 0.1 0 0.1 0 0.2 0 0.3 0 0.1 0 0.1-0.1 0.1 0 0.1 0-0.2 0.1-0.5 0.1-0.3 0.1-0.6 0.2 0.1 0 0.1-0.1zm19.5 9c0 0-1.2-0.1-1.9 0.2-0.6 0.3-1.2 0.4-1.4 0.4 0.1 0 0.6-0.1 1.3-0.6 0.9-0.5 1.9-0.3 2-0.3-0.1-0.1-1.4-0.8-3.7 0.3q-0.4 0.1-0.6 0.2-0.3 0.1-0.5 0.2 0.2-0.1 0.5-0.2-0.4 0-0.9-0.1-0.1 0-0.2 0-0.2 0-0.4-0.1-0.1 0-0.2 0-0.2-0.1-0.4-0.1-0.1 0-0.2 0-0.2-0.1-0.4-0.1-0.1 0-0.2-0.1-0.2 0-0.4 0-0.1 0-0.2-0.1-0.2 0-0.4 0-0.1 0-0.2 0-0.2 0-0.4-0.1-0.1 0-0.2 0-0.2 0-0.4 0.1 0 0-0.1 0 0 0-0.1 0-0.2 0-0.4 0-0.1 0.1-0.2 0.1c-0.7 0.1-0.7 0.4-0.8 1.6q0.2-0.1 0.5-0.2 0.2 0 0.3-0.1 0 0 0.1 0-0.5 0.1-0.9 0.3c-1.8 0.8-3 1.9-3.6 2q-0.1 0-0.2 0.1 0 0-0.1 0 0 0 0 0-0.1 0-0.1 0-0.1 0-0.2 0.1 0 0-0.1 0-0.1 0-0.1 0-0.1 0.1-0.2 0.1 0 0-0.1 0-0.1 0.1-0.1 0.1-0.1 0-0.1 0-0.1 0.1-0.2 0.1 0 0 0 0-0.1 0.1-0.1 0.1-0.1 0-0.1 0.1 0 0-0.1 0 0 0.1 0 0.1 0 0.1-0.1 0.1 0 0.1 0.1 0.1 0 0 0 0.1 0 0 0.1 0 0 0 0 0 0 0.1 0.1 0.1 0 0 0.1 0 0 0 0.1 0 0.1 0 0.1 0 0.1 0 0.2 0 0.1 0 0.1 0 0.1 0 0.2 0 0.1 0 0.2 0 0.1 0 0.2 0 0.1 0 0.2 0 0.1 0 0.1-0.1 0 0 0 0 0.1 0 0.2 0h0.1c0.9-0.2 1.8 0.2 3.4 0.3q0.4 0.3 0.8 0.4 0.1 0 0.2 0.1 0.2 0 0.4 0.1 0.1 0 0.2 0 0.2-0.1 0.4-0.1 0.1 0 0.2-0.1 0.3-0.1 0.5-0.3 0.1 0 0.2-0.1 0.3-0.2 0.6-0.5 0 0 0 0c2.2-0.7 2.8-1.7 3.9-1.9 0.4-0.1 2.6-0.3 3.5-1.5-0.7 0.5-2.3 0.8-2.3 0.8 0 0 1.1-0.4 1.9-1.3-1.6 0.8-2.6 0.7-2.6 0.7 0 0 0.8-0.1 1.2-0.4 0.5-0.3 1.9-0.6 1.9-0.6zm-4.9 0.4q-0.1 0.1-0.3 0.1 0.2 0 0.3-0.1zm-0.5 0.1q0 0-0.1 0 0.1 0 0.1 0zm-1.1 0q0.2 0 0.4 0.1 0.1 0 0.2 0 0.2 0 0.4-0.1c-0.4 0.1-0.8 0-1.3 0q0 0 0.1 0 0.1 0 0.2 0zm-0.7 0q-0.1 0-0.1 0 0 0 0 0 0 0 0.1 0zm-0.7 0q0 0-0.1 0 0 0 0 0 0.1 0 0.1 0zm-0.4 0.1q0 0 0.1 0-0.2 0-0.3 0 0.1 0 0.2 0zm-1.5 0.3q0.1 0 0.2-0.1 0.2 0 0.4-0.1 0.1 0 0.2 0 0.2-0.1 0.4-0.1 0 0 0 0-0.2 0-0.4 0.1-0.5 0.1-1 0.3 0.1-0.1 0.2-0.1zm-0.4 3.7q0 0-0.1 0 0.2 0 0.3 0 0 0 0 0-0.1 0-0.2 0zm0.6 0q-0.1 0-0.2 0 0.2 0 0.5 0-0.1 0-0.1 0-0.1 0-0.2 0zm1-0.2q-0.1 0-0.1 0.1-0.1 0-0.2 0-0.2 0-0.3 0 0.3 0 0.6-0.1 0.2 0 0.5-0.1-0.1 0-0.1 0.1-0.2 0-0.4 0zm45.5-23.8c0 0 1-0.6 1.6-1.6-1.4 1.1-2.4 1.2-2.4 1.2 0 0 0.8-0.2 1.1-0.7 0.4-0.4 1.8-1 1.8-1 0 0-1.3 0.2-1.9 0.7-0.5 0.4-1.1 0.6-1.3 0.7 0.2-0.1 0.6-0.2 1.2-0.9 0.8-0.7 1.8-0.7 1.9-0.7-0.1-0.1-1.6-0.5-3.6 1q-0.3 0.2-0.5 0.4-0.2 0.1-0.4 0.2 0.2-0.1 0.4-0.2-0.4 0.1-0.9 0.1-0.1 0-0.2 0-0.2 0-0.4 0-0.1 0-0.2 0-0.2 0-0.5 0-0.1 0-0.2 0-0.2 0-0.4 0-0.1 0-0.2 0-0.2 0-0.3 0-0.2 0-0.3 0-0.2 0.1-0.3 0.1-0.1 0-0.3 0-0.1 0-0.3 0-0.1 0.1-0.2 0.1-0.2 0-0.4 0.1-0.1 0-0.1 0-0.1 0-0.1 0.1-0.2 0-0.4 0.1-0.1 0-0.2 0.1c-0.7 0.3-0.6 0.5-0.5 1.8q0.3-0.2 0.5-0.4 0.1-0.1 0.3-0.1 0 0 0-0.1-0.4 0.3-0.8 0.6c-1.6 1.1-2.5 2.4-3.1 2.7q-0.1 0-0.1 0-0.1 0-0.2 0.1 0 0 0 0 0 0 0 0-0.1 0-0.2 0.1 0 0-0.1 0.1-0.1 0-0.1 0-0.1 0.1-0.2 0.1 0 0-0.1 0.1 0 0-0.1 0.1 0 0-0.1 0 0 0.1-0.1 0.1 0 0-0.1 0.1 0 0 0 0.1-0.1 0-0.1 0 0 0.1 0 0.1 0 0-0.1 0.1 0 0 0 0.1 0 0.1 0.1 0.1 0 0 0 0 0 0 0.1 0.1 0 0 0 0 0.1 0 0.1 0 0.1 0 0.1 0 0.1 0 0.1 0 0.1 0 0.2 0 0 0 0.1 0 0.1-0.1 0.2-0.1 0 0 0.1 0 0.1 0 0.2-0.1 0.1 0 0.2 0 0.1-0.1 0.2-0.1 0 0 0.1 0 0 0 0-0.1 0.1 0 0.2 0h0.1c0.8-0.4 1.8-0.2 3.4-0.5q0.4 0.2 0.8 0.3 0.1 0 0.2 0 0.2 0 0.4 0 0.1 0 0.2 0 0.2-0.1 0.4-0.2 0.1 0 0.2-0.1 0.3-0.2 0.5-0.4 0-0.1 0.1-0.2 0.2-0.2 0.4-0.6 0 0 0 0c2.1-1.1 2.4-2.2 3.5-2.7 0.4-0.1 2.5-0.8 3.1-2.2-0.6 0.7-2.1 1.3-2.1 1.3zm-3-0.4q0.2-0.1 0.4-0.2-0.2 0.1-0.4 0.2zm-0.2 0q0.1 0 0.1 0 0 0-0.1 0zm-1.2 0.3q0.1 0 0.2-0.1 0.2 0 0.4 0 0.1 0 0.2-0.1 0.2 0 0.4-0.1c-0.4 0.2-0.8 0.2-1.3 0.3q0 0 0.1 0zm-0.5 0.1q-0.1 0-0.1 0 0 0 0 0 0 0 0.1 0zm-0.7 0.1q0 0 0 0.1 0 0 0 0 0-0.1 0-0.1zm-0.4 0.2q0.1 0 0.1-0.1-0.1 0.1-0.2 0.1 0 0 0.1 0zm-1.4 0.6q0.1-0.1 0.2-0.1 0.2-0.1 0.4-0.2 0.1 0 0.2-0.1 0.2-0.1 0.4-0.1 0 0 0 0-0.2 0-0.4 0.1-0.5 0.2-1 0.5 0.1-0.1 0.2-0.1zm0.4 3.7q0 0-0.1 0 0.2 0 0.3 0 0 0 0 0-0.1 0-0.2 0zm0.6-0.2q-0.1 0.1-0.2 0.1 0.2 0 0.4-0.1 0 0 0 0-0.1 0-0.2 0zm1.3-0.5q-0.2 0.1-0.4 0.2 0 0-0.1 0-0.1 0.1-0.2 0.1-0.1 0.1-0.2 0.1 0.2-0.1 0.5-0.2 0.3-0.1 0.5-0.2-0.1 0-0.1 0zm-13.2 20.9q0 0-0.1 0 0 0.1-0.1 0.1 0 0 0 0-0.1 0-0.1 0-0.1 0.1-0.1 0.1-0.1 0.1-0.2 0.1 0 0-0.1 0.1 0 0-0.1 0.1 0 0-0.1 0-0.1 0.1-0.1 0.1 0 0.1-0.1 0.1 0 0.1-0.1 0.1 0 0 0 0.1-0.1 0-0.1 0.1 0 0-0.1 0 0 0.1 0 0.1 0 0.1 0 0.1-0.1 0 0 0.1 0 0.1 0 0.1 0 0 0 0 0.1 0.1 0.1 0.1 0 0 0.1 0 0 0 0.1 0 0 0 0.1 0 0 0 0.1 0 0 0 0.1 0 0.1-0.1 0.2-0.1 0 0 0.1 0 0.1-0.1 0.2-0.1 0 0 0.1 0 0.1-0.1 0.2-0.1 0.1-0.1 0.2-0.1 0.1 0 0.1-0.1 0 0 0 0 0.1 0 0.2-0.1h0.1c0.8-0.4 1.8-0.3 3.3-0.7q0.5 0.2 0.9 0.2 0.1 0.1 0.2 0.1 0.2 0 0.4-0.1 0.1 0 0.2 0 0.2-0.1 0.4-0.2 0.1-0.1 0.2-0.2 0.2-0.1 0.4-0.4 0.1-0.1 0.1-0.2 0.2-0.2 0.4-0.6 0 0 0 0c2-1.3 2.2-2.4 3.2-2.9 0.5-0.2 2.5-1.1 3-2.5-0.5 0.8-2 1.5-2 1.5 0 0 1-0.7 1.5-1.8-1.3 1.3-2.3 1.4-2.3 1.4 0 0 0.7-0.3 1.1-0.7 0.3-0.5 1.6-1.2 1.6-1.2 0 0-1.2 0.3-1.8 0.9-0.5 0.4-1.1 0.7-1.2 0.7 0.1 0 0.5-0.3 1.1-0.9 0.7-0.8 1.7-0.9 1.8-0.9-0.1 0-1.6-0.4-3.5 1.3q-0.3 0.2-0.5 0.4-0.2 0.2-0.4 0.3 0.2-0.1 0.4-0.3-0.4 0.1-0.9 0.2-0.1 0-0.2 0-0.2 0-0.4 0-0.1 0-0.2 0-0.2 0.1-0.4 0.1-0.1 0-0.2 0-0.2 0-0.4 0-0.1 0-0.2 0.1-0.2 0-0.4 0-0.1 0-0.2 0-0.2 0-0.4 0.1-0.1 0-0.2 0-0.2 0-0.4 0.1-0.1 0-0.2 0-0.2 0.1-0.3 0.2-0.1 0-0.1 0-0.1 0-0.1 0.1-0.2 0-0.4 0.1-0.1 0.1-0.2 0.1c-0.7 0.4-0.6 0.6-0.3 1.8q0.2-0.2 0.4-0.3 0.1-0.1 0.3-0.2 0 0 0 0-0.4 0.2-0.7 0.5c-1.5 1.3-2.3 2.6-3 3zm4.7 0q-0.1 0-0.1 0 0.1 0 0.3-0.1 0 0 0 0-0.1 0.1-0.2 0.1zm0.6-0.2q-0.2 0-0.3 0.1 0.2-0.1 0.5-0.2 0 0-0.1 0 0 0-0.1 0.1zm0.8-0.4q0 0-0.1 0-0.1 0.1-0.1 0.1-0.2 0-0.3 0.1 0.3-0.1 0.5-0.2 0.3-0.2 0.5-0.3-0.1 0-0.1 0.1-0.2 0.1-0.4 0.2zm2-4.7q0 0 0.1 0-0.1 0-0.1 0zm0.2-0.1q0.2 0 0.3-0.2-0.1 0.2-0.3 0.2zm-1.2 0.4q0.2 0 0.4-0.1 0.1 0 0.2 0 0.2-0.1 0.4-0.2c-0.5 0.2-0.8 0.3-1.3 0.4q0 0 0.1 0 0.1-0.1 0.2-0.1zm-0.7 0.2q-0.1 0-0.1 0 0 0 0 0 0 0 0.1 0zm-0.7 0.2q0 0 0 0 0 0 0 0 0 0 0 0zm-0.4 0.2q0.1 0 0.1-0.1-0.1 0.1-0.2 0.1 0.1 0 0.1 0zm-1.3 0.7q0.1-0.1 0.2-0.2 0.2-0.1 0.4-0.1 0-0.1 0.1-0.1l0.1-0.1q0.2-0.1 0.3-0.1 0 0 0 0-0.2 0.1-0.4 0.2-0.5 0.2-0.9 0.5 0.1-0.1 0.2-0.1zm-9.5-11.1c0 0-1.2 0-1.9 0.3-0.6 0.3-1.2 0.4-1.4 0.4 0.1 0 0.6-0.1 1.3-0.6 0.9-0.6 1.9-0.4 2-0.4-0.1 0-1.4-0.8-3.7 0.4q-0.4 0.1-0.6 0.2-0.3 0.1-0.5 0.2 0.2-0.1 0.5-0.2-0.4 0-0.9-0.1-0.1 0-0.2 0-0.2-0.1-0.4-0.1-0.1 0-0.2 0-0.2-0.1-0.4-0.1-0.1-0.1-0.2-0.1-0.2 0-0.4 0-0.1-0.1-0.2-0.1-0.2 0-0.4 0-0.1-0.1-0.2-0.1-0.2 0-0.4 0-0.1 0-0.2-0.1-0.2 0-0.4 0-0.1 0-0.2 0-0.2 0-0.4 0 0 0-0.1 0 0 0-0.1 0.1-0.2 0-0.4 0-0.1 0-0.2 0.1c-0.7 0.1-0.7 0.4-0.8 1.6q0.2-0.1 0.5-0.2 0.2-0.1 0.3-0.1 0 0 0.1 0-0.5 0.1-0.9 0.3c-1.8 0.8-3 1.9-3.7 2q0 0-0.1 0-0.1 0-0.1 0.1 0 0 0 0-0.1 0-0.1 0-0.1 0-0.2 0 0 0-0.1 0.1-0.1 0-0.1 0-0.1 0-0.2 0.1-0.1 0-0.1 0-0.1 0-0.1 0.1-0.1 0-0.1 0-0.1 0-0.2 0.1 0 0 0 0-0.1 0.1-0.1 0.1-0.1 0-0.1 0 0 0.1-0.1 0.1 0 0 0 0.1 0 0-0.1 0.1 0 0 0.1 0.1 0 0 0 0 0 0.1 0 0.1 0.1 0 0.1 0 0 0 0.1 0 0 0.1 0.1 0.1 0 0 0.1 0 0.1 0 0.1 0 0.1 0 0.2 0 0.1 0 0.1 0 0.1 0 0.2 0 0.1 0 0.2 0 0.1 0 0.2 0 0.1 0 0.2-0.1 0.1 0 0.1 0 0 0 0 0 0.1 0 0.2 0h0.1c0.9-0.2 1.8 0.2 3.4 0.2q0.4 0.3 0.8 0.5 0.1 0 0.2 0 0.2 0.1 0.4 0.1 0.1 0 0.2 0 0.2 0 0.4 0 0.1-0.1 0.2-0.1 0.3-0.1 0.5-0.3 0.1-0.1 0.2-0.1 0.3-0.3 0.6-0.6 0 0 0 0c2.2-0.6 2.7-1.6 3.9-1.9 0.4-0.1 2.6-0.3 3.5-1.5-0.7 0.6-2.3 0.9-2.3 0.9 0 0 1.1-0.5 1.9-1.3-1.6 0.8-2.6 0.6-2.6 0.6 0 0 0.8 0 1.2-0.3 0.5-0.4 1.9-0.7 1.9-0.7zm-4.9 0.5q-0.2 0-0.3 0.1 0.1-0.1 0.3-0.1zm-0.5 0.1q0 0-0.1 0 0.1 0 0.1 0zm-1.1 0q0.2 0 0.4 0 0.1 0 0.2 0 0.2 0 0.4 0c-0.4 0.1-0.8 0-1.3 0q0 0 0.1 0 0.1 0 0.2 0zm-0.7 0q-0.1 0-0.1 0 0 0 0 0 0 0 0.1 0zm-0.7 0q0 0-0.1 0 0 0 0 0 0.1 0 0.1 0zm-0.4 0.1q0 0 0.1-0.1-0.2 0.1-0.3 0.1 0.1 0 0.2 0zm-1.5 0.3q0.1-0.1 0.2-0.1 0.2-0.1 0.4-0.1 0.1 0 0.2 0 0.2-0.1 0.4-0.1 0 0 0 0-0.2 0-0.4 0.1-0.6 0.1-1 0.2 0.1 0 0.2 0zm-0.4 3.7q0 0-0.1 0 0.2 0 0.3 0 0 0 0 0-0.1 0-0.2 0zm0.6 0q-0.1 0-0.2 0 0.2 0 0.5-0.1-0.1 0-0.1 0-0.1 0-0.2 0.1zm1-0.2q-0.1 0-0.1 0-0.1 0-0.2 0.1-0.2 0-0.3 0 0.3 0 0.6-0.1 0.2 0 0.5-0.1-0.1 0-0.1 0-0.2 0.1-0.4 0.1zm-5.8-5.9c0 0-1-0.6-2.8 0.3q-0.2 0.1-0.4 0.2-0.2 0-0.4 0.1 0.2-0.1 0.4-0.1-0.3-0.1-0.7-0.1-0.1 0-0.2 0-0.1-0.1-0.2-0.1-0.1 0-0.2 0-0.2-0.1-0.3-0.1-0.1 0-0.2 0-0.1-0.1-0.3-0.1 0 0-0.1 0-0.2 0-0.3-0.1-0.1 0-0.2 0-0.1 0-0.2 0-0.1 0-0.2 0-0.2-0.1-0.3-0.1-0.1 0-0.2 0-0.1 0-0.2 0-0.1 0-0.1 0.1-0.1 0-0.1 0-0.2 0-0.3 0-0.1 0-0.2 0c-0.5 0.2-0.5 0.3-0.6 1.3q0.2-0.1 0.4-0.2 0.1 0 0.2 0 0-0.1 0.1-0.1-0.4 0.1-0.7 0.3c-1.4 0.6-2.2 1.4-2.8 1.5q0 0 0 0-0.1 0-0.2 0.1 0 0 0 0 0 0 0 0-0.1 0-0.1 0-0.1 0-0.2 0 0 0-0.1 0.1 0 0-0.1 0 0 0-0.1 0 0 0.1-0.1 0.1 0 0 0 0-0.1 0-0.1 0.1-0.1 0-0.1 0 0 0-0.1 0.1 0 0 0 0 0 0-0.1 0.1 0 0 0 0 0 0 0 0.1 0 0 0 0.1 0 0 0 0 0 0 0.1 0 0 0 0 0 0 0.1 0.1 0.1 0 0 0 0 0.1 0 0.1 0 0.1 0 0.1 0 0.1 0 0.1 0 0.1 0 0.1 0 0.1 0 0.2 0 0.1 0 0.1 0 0.1 0 0.2 0 0.1 0 0.1 0 0.1 0 0.1 0 0 0 0 0 0.1-0.1 0.2-0.1c0.7-0.1 1.4 0.2 2.6 0.2q0.3 0.2 0.6 0.4 0.1 0 0.1 0 0.2 0.1 0.4 0.1 0 0 0.1 0 0.2 0 0.4-0.1 0 0 0.1 0 0.2-0.1 0.4-0.2 0.1-0.1 0.1-0.2 0.2-0.1 0.4-0.3 0 0 0 0c1.8-0.6 2.2-1.3 3-1.5 0.4-0.1 2-0.2 2.7-1.1-0.5 0.4-1.8 0.6-1.8 0.6 0 0 0.9-0.3 1.5-1-1.2 0.6-2 0.5-2 0.5 0 0 0.6 0 0.9-0.3 0.4-0.2 1.5-0.4 1.5-0.4 0 0-1-0.1-1.5 0.2-0.5 0.2-0.9 0.3-1 0.3 0.1 0 0.4-0.1 0.9-0.5 0.7-0.4 1.5-0.3 1.5-0.3zm-3.6 0.6q-0.2 0-0.3 0.1 0.1-0.1 0.3-0.1zm-0.4 0.1q0 0-0.1 0 0.1 0 0.1 0zm-0.9 0q0.2 0 0.3 0 0.1 0 0.2 0 0.1 0 0.3 0c-0.3 0-0.6 0-1 0q0 0 0.1 0 0 0 0.1 0zm-0.5 0q-0.1 0-0.1 0 0 0 0 0 0 0 0.1 0zm-0.5 0q-0.1 0-0.1 0 0 0 0 0 0 0 0.1 0zm-0.4 0q0.1 0 0.1 0-0.1 0-0.2 0 0.1 0 0.1 0zm-1.1 0.3q0.1-0.1 0.2-0.1 0.1 0 0.3-0.1 0.1 0 0.1 0h0.1q0.1 0 0.3 0 0 0 0 0-0.2 0-0.4 0-0.4 0.1-0.8 0.2 0.1 0 0.2 0zm-0.3 2.8q0 0 0 0 0.1 0 0.2 0 0 0 0 0-0.1 0-0.2 0zm0.5 0q-0.1 0-0.2 0 0.2 0 0.4-0.1 0 0-0.1 0 0 0.1-0.1 0.1zm0.7-0.1q0 0-0.1 0 0 0-0.1 0-0.1 0-0.2 0 0.2 0 0.4 0 0.2-0.1 0.4-0.1-0.1 0-0.1 0-0.1 0-0.3 0.1zm31.3-10.9c0 0-0.9 0-1.4 0.3-0.5 0.2-0.9 0.2-1.1 0.3 0.1-0.1 0.4-0.1 1-0.5 0.7-0.4 1.4-0.3 1.5-0.3-0.1 0-1.1-0.6-2.8 0.2q-0.2 0.2-0.4 0.2-0.2 0.1-0.4 0.2 0.2-0.1 0.4-0.2-0.3 0-0.7 0-0.1-0.1-0.2-0.1-0.1 0-0.3 0-0.1 0-0.1-0.1-0.2 0-0.3 0-0.1 0-0.2 0-0.1-0.1-0.3-0.1-0.1 0-0.2 0-0.1-0.1-0.2-0.1-0.1 0-0.2 0-0.1 0-0.3 0-0.1-0.1-0.1-0.1-0.2 0-0.3 0-0.1 0-0.2 0-0.1 0-0.3 0 0 0-0.1 0 0 0-0.1 0-0.1 0.1-0.2 0.1-0.1 0-0.2 0c-0.6 0.1-0.6 0.3-0.6 1.3q0.2-0.1 0.4-0.2 0.1 0 0.2-0.1 0 0 0 0-0.3 0.1-0.6 0.3c-1.4 0.6-2.3 1.4-2.8 1.5q0 0-0.1 0 0 0-0.1 0 0 0 0 0 0 0-0.1 0.1 0 0-0.1 0 0 0-0.1 0 0 0-0.1 0 0 0.1-0.1 0.1 0 0-0.1 0 0 0-0.1 0.1 0 0-0.1 0 0 0-0.1 0 0 0.1 0 0.1-0.1 0-0.1 0 0 0.1 0 0.1-0.1 0-0.1 0 0 0.1 0 0.1 0 0-0.1 0.1 0 0 0.1 0 0 0.1 0 0.1 0 0 0 0 0 0 0.1 0 0 0 0 0.1 0.1 0 0.1 0 0 0 0.1 0 0 0 0.1 0 0 0 0.1 0 0.1 0 0.1 0 0.1 0 0.2 0 0 0 0.1 0 0.1 0 0.2 0 0 0 0.1 0 0-0.1 0.1-0.1 0 0 0 0 0.1 0 0.2 0c0.7-0.1 1.4 0.2 2.6 0.2q0.3 0.2 0.6 0.3 0 0.1 0.1 0.1 0.2 0 0.3 0.1 0.1 0 0.2 0 0.2-0.1 0.3-0.1 0.1 0 0.2-0.1 0.2 0 0.4-0.2 0 0 0.1-0.1 0.2-0.1 0.4-0.4 0 0 0 0c1.7-0.5 2.1-1.3 3-1.4 0.3-0.1 2-0.2 2.7-1.2-0.6 0.4-1.8 0.7-1.8 0.7 0 0 0.8-0.3 1.4-1-1.2 0.6-1.9 0.5-1.9 0.5 0 0 0.6 0 0.9-0.3 0.4-0.2 1.4-0.5 1.4-0.5zm-3.7 0.4q-0.1 0-0.2 0 0.1 0 0.2 0zm-0.3 0.1q-0.1 0-0.1 0 0 0 0.1 0zm-0.9 0q0.2 0 0.3 0 0.1 0 0.2 0 0.1 0 0.3 0c-0.4 0-0.7 0-1 0q0 0 0 0 0.1 0 0.2 0zm-0.6-0.1q0 0 0 0 0 0 0 0 0 0 0 0zm-0.5 0.1q0 0 0 0 0 0 0 0 0 0 0 0zm-0.3 0q0 0 0.1 0-0.1 0-0.2 0 0.1 0 0.1 0zm-1.1 0.2q0.1 0 0.2 0 0.1 0 0.3-0.1 0 0 0.1 0 0.2 0 0.3-0.1 0 0 0 0-0.1 0.1-0.3 0.1-0.4 0.1-0.8 0.2 0.1 0 0.2-0.1zm-0.3 2.9q0 0-0.1 0 0.1 0 0.3 0-0.1 0-0.1 0 0 0-0.1 0zm0.5-0.1q-0.1 0.1-0.2 0.1 0.1-0.1 0.3-0.1 0 0 0 0-0.1 0-0.1 0zm0.7-0.1q-0.1 0-0.1 0-0.1 0.1-0.1 0.1-0.1 0-0.2 0 0.2 0 0.4-0.1 0.2 0 0.4 0-0.1 0-0.1 0-0.2 0-0.3 0zm136.7-57.1c-0.6 0.4-1.9 0.4-1.9 0.4 0 0 0.9-0.2 1.6-0.8-1.3 0.5-2.1 0.2-2.1 0.2 0 0 0.6 0.1 1-0.2 0.4-0.2 1.6-0.2 1.6-0.2 0 0-1-0.2-1.6 0-0.5 0.1-1 0.1-1.2 0.1 0.1 0 0.5 0 1.2-0.3 0.8-0.4 1.5-0.1 1.6-0.1-0.1 0-1-0.8-3.1-0.2q-0.2 0.1-0.4 0.2-0.3 0-0.4 0 0.1 0 0.4 0-0.4-0.1-0.8-0.2 0 0-0.1-0.1-0.2 0-0.3-0.1-0.1 0-0.2 0-0.2-0.1-0.3-0.2-0.1 0-0.2 0-0.1-0.1-0.3-0.1-0.1 0-0.2-0.1-0.1 0-0.3-0.1 0 0-0.1 0-0.2-0.1-0.3-0.1-0.1 0-0.2-0.1-0.2 0-0.3 0-0.1 0-0.2-0.1-0.1 0-0.3 0 0 0-0.1 0 0 0-0.1 0-0.2 0-0.3 0-0.1 0-0.2 0c-0.6 0.1-0.6 0.3-0.9 1.3q0.3-0.1 0.5-0.2 0.1 0 0.2 0 0.1 0 0.1 0-0.4 0.1-0.8 0.2c-1.5 0.4-2.6 1.1-3.1 1.2q-0.1 0-0.1 0-0.1 0-0.2 0 0 0 0 0 0 0 0 0-0.1 0-0.2 0 0 0-0.1 0-0.1 0-0.1 0-0.1 0.1-0.1 0.1-0.1 0-0.1 0-0.1 0-0.2 0 0 0 0 0-0.1 0.1-0.1 0.1-0.1 0-0.1 0-0.1 0-0.1 0.1 0 0-0.1 0 0 0 0 0 0 0.1-0.1 0.1 0 0 0 0.1 0 0 0 0.1 0 0 0 0 0 0 0 0 0.1 0.1 0.1 0.1 0 0 0.1 0 0 0 0 0 0.1 0.1 0.1 0.1 0.1 0 0.1 0 0.1 0 0.2 0 0 0 0.1 0 0 0.1 0.1 0.1 0.1 0 0.2 0 0 0 0.1 0 0.1 0 0.2 0 0.1 0 0.1 0 0 0 0 0 0.1 0 0.2 0c0.8-0.1 1.5 0.4 2.8 0.6q0.3 0.3 0.5 0.4 0.1 0.1 0.2 0.1 0.2 0.1 0.3 0.1 0.1 0.1 0.2 0.1 0.2 0 0.4 0 0.1-0.1 0.1-0.1 0.3 0 0.5-0.1 0.1-0.1 0.2-0.1 0.2-0.2 0.4-0.4 0.1 0 0.1 0c1.9-0.3 2.4-1 3.4-1.1 0.4 0 2.2 0.1 3-0.8zm-3.8-0.8q-0.2 0-0.3 0 0.1 0 0.3 0zm-0.4 0q-0.1 0-0.1 0 0 0 0.1 0zm-1-0.1q0.2 0 0.4 0 0.1 0 0.1 0.1 0.2 0 0.4 0c-0.4 0-0.7-0.1-1.1-0.2q0 0 0.1 0 0 0 0.1 0.1zm-0.6-0.2q0 0-0.1 0 0.1 0 0.1 0 0 0 0 0zm-0.5 0q0 0-0.1 0 0 0 0.1 0 0 0 0 0zm-0.4 0q0.1 0 0.1 0-0.1 0-0.2 0 0.1 0 0.1 0zm-1.2 0.1q0.1-0.1 0.2-0.1 0.1 0 0.3 0 0.1 0 0.2 0 0.2 0 0.3 0 0 0 0 0-0.1 0-0.3 0-0.5 0-0.9 0.1 0.1 0 0.2 0zm-0.8 3q0 0 0 0 0.1 0 0.2 0 0 0 0 0-0.1 0-0.2 0zm0.6 0q-0.2 0-0.3 0 0.2 0 0.4 0 0 0 0 0-0.1 0-0.1 0zm0.7 0q0 0-0.1 0 0 0-0.1 0-0.1 0-0.2 0 0.2 0 0.4 0 0.2 0 0.4 0 0 0 0 0-0.2 0-0.4 0zm-4.2-7.6q0 0 0 0 0 0-0.1 0-0.1 0-0.3 0 0.1 0.1 0.3 0.2 0 0 0.1 0.1 0 0 0.1 0 0.1 0 0.1 0 0.1 0 0.2 0 0 0 0.1 0 0.1 0 0.2-0.1 0.1 0 0.1 0 0.1-0.1 0.2-0.2-0.1 0-0.2 0 0 0-0.1 0 0 0-0.1 0 0 0-0.1 0 0 0 0 0-0.1 0-0.2 0-0.1 0-0.1 0-0.1 0-0.1 0 0.2 0.1 0.5 0 0.2 0 0.4 0 0 0 0 0c1-0.1 1.3-0.5 1.8-0.6 0.1 0 1.1 0.1 1.5-0.4-0.3 0.2-1 0.2-1 0.2 0 0 0.5-0.1 0.8-0.4-0.7 0.3-1.1 0.2-1.1 0.2 0 0 0.4 0 0.6-0.1 0.2-0.1 0.8-0.2 0.8-0.2 0 0-0.5-0.1-0.8 0-0.3 0.1-0.5 0.1-0.6 0.1 0 0 0.2 0 0.6-0.2 0.4-0.1 0.7 0 0.8 0-0.1 0-0.5-0.4-1.6-0.1q-0.1 0-0.2 0.1-0.2-0.1-0.4-0.1 0 0-0.1 0 0-0.1-0.1-0.1 0 0-0.1 0-0.1-0.1-0.1-0.1-0.1 0-0.1 0-0.1 0-0.2-0.1 0 0-0.1 0 0 0-0.1 0-0.1-0.1-0.1-0.1-0.1 0-0.1 0-0.1 0-0.1 0-0.1-0.1-0.2-0.1 0 0-0.1 0-0.1 0-0.1 0-0.1 0-0.1 0 0 0 0 0-0.1 0-0.2 0 0 0-0.1 0c-0.3 0-0.3 0.1-0.4 0.6q0.1 0 0.2 0 0.1 0 0.1-0.1 0.1 0 0.1 0-0.2 0.1-0.4 0.1c-0.8 0.2-1.3 0.6-1.6 0.6q0 0-0.1 0 0 0 0 0 0 0 0 0 0 0-0.1 0-0.1 0-0.2 0.1 0 0 0 0-0.1 0-0.2 0 0 0 0 0-0.1 0.1-0.1 0.1 0 0 0 0-0.1 0-0.1 0.1 0 0 0 0 0 0 0 0 0 0.1 0 0.1 0 0 0 0 0.1 0 0.1 0 0 0 0 0 0 0 0.1 0 0 0 0 0 0 0.1 0.1 0.1 0 0 0 0 0.1 0 0.1 0 0 0 0.1 0 0 0 0.1 0 0 0 0.1 0 0 0 0 0 0 0 0 0 0.1 0 0.1 0c0.4 0 0.8 0.2 1.4 0.3q0.2 0 0.4 0zm2.3-1.4q0 0 0 0 0 0 0 0zm-0.2 0q0 0 0 0 0 0 0 0zm-0.2 0q0 0 0.1 0-0.1 0-0.1 0 0 0 0 0zm-0.2 0q0 0 0.1 0-0.1 0-0.2-0.1 0 0 0 0 0 0.1 0.1 0.1zm-0.3-0.1q0.1 0 0.1 0-0.1 0-0.2 0 0 0 0 0 0.1 0 0.1 0zm-0.2 0q0 0 0.1 0-0.1 0-0.2 0 0 0 0 0 0 0 0.1 0zm-0.9 0q0.1 0 0.1 0 0.1 0 0.2 0 0 0 0 0h0.1q0.1 0 0.1 0 0.1 0 0.1 0 0.1 0 0.1 0-0.2 0-0.4 0-0.2 0-0.4 0 0.1 0 0.1 0zm14.4-2.7c-0.1 0-0.5-0.4-1.6-0.1q-0.1 0.1-0.2 0.1-0.2 0-0.4-0.1 0 0 0 0-0.1-0.1-0.2-0.1 0 0-0.1 0-0.1-0.1-0.1-0.1-0.1 0-0.1 0-0.1 0-0.2-0.1 0 0-0.1 0 0 0-0.1 0-0.1-0.1-0.1-0.1-0.1 0-0.1 0-0.1 0-0.1 0-0.1-0.1-0.2-0.1 0 0-0.1 0-0.1 0-0.1 0 0 0-0.1 0 0 0 0 0-0.1 0-0.2 0 0 0-0.1 0c-0.3 0-0.3 0.1-0.4 0.6q0.1 0 0.2 0 0.1 0 0.1-0.1 0.1 0 0.1 0-0.2 0.1-0.4 0.1c-0.8 0.2-1.3 0.6-1.6 0.6q0 0-0.1 0 0 0 0 0 0 0 0 0 0 0 0 0-0.2 0.1-0.3 0.1 0 0 0 0-0.1 0-0.2 0 0 0 0 0-0.1 0.1-0.1 0.1 0 0 0 0-0.1 0-0.1 0.1 0 0 0 0 0 0 0 0 0 0.1 0 0.1 0 0 0.1 0 0 0 0 0 0 0 0 0 0 0 0.1 0 0 0 0 0 0 0.1 0.1 0.1 0 0 0 0 0.1 0 0.1 0 0.1 0 0.1 0 0 0 0.1 0 0 0 0.1 0 0 0 0 0 0 0 0 0 0.1 0 0.1 0c0.4 0 0.8 0.2 1.4 0.3q0.2 0 0.4 0 0 0 0 0 0 0-0.1 0-0.1 0-0.3 0 0.1 0.1 0.3 0.2 0 0 0.1 0.1 0 0 0.1 0 0.1 0 0.1 0 0.1 0 0.2 0 0 0 0.1 0 0.1 0 0.2-0.1 0.1 0 0.1 0 0.1-0.1 0.2-0.2-0.1 0-0.2 0 0 0-0.1 0 0 0-0.1 0 0 0-0.1 0 0 0 0 0-0.1 0-0.2 0-0.1 0-0.1 0-0.1 0-0.1 0 0.2 0.1 0.5 0 0.2 0 0.4 0 0 0 0 0c1-0.1 1.3-0.5 1.8-0.5 0.2-0.1 1.1 0 1.5-0.5-0.3 0.2-1 0.2-1 0.2 0 0 0.5-0.1 0.8-0.4-0.6 0.3-1 0.2-1 0.2 0 0 0.3 0 0.5-0.1 0.2-0.1 0.8-0.2 0.8-0.2 0 0-0.5-0.1-0.8 0-0.3 0.1-0.5 0.1-0.6 0.1 0 0 0.2 0 0.6-0.2 0.4-0.1 0.7 0 0.8 0zm-2.1 0q0 0 0.1 0-0.1 0-0.1 0zm-0.2 0q0 0 0 0 0 0 0 0zm-0.2 0q0 0 0.1 0-0.1 0-0.1 0 0 0 0 0zm-0.2 0q0.1 0 0.1 0-0.1 0-0.2-0.1 0 0 0 0.1 0 0 0.1 0zm-0.3-0.1q0.1 0 0.1 0-0.1 0-0.2 0 0 0 0 0 0.1 0 0.1 0zm-0.2 0q0 0 0.1 0-0.1 0-0.2 0 0 0 0 0 0 0 0.1 0zm-0.9 0q0.1 0 0.1 0 0.1 0 0.2 0 0 0 0 0h0.1q0.1 0 0.1 0 0.1 0 0.1 0 0.1 0 0.1 0-0.2 0-0.4 0-0.2 0-0.4 0 0.1 0 0.1 0zm7.5 1q-0.1 0-0.1 0 0 0 0 0 0 0 0 0 0 0-0.1 0-0.1 0-0.2 0.1 0 0 0 0-0.1 0-0.1 0.1 0 0-0.1 0 0 0.1-0.1 0.1 0 0 0 0 0 0.1 0 0.1 0 0.1 0 0.1 0 0 0 0 0.1 0 0.2 0 0 0 0 0 0.1 0 0.2 0 0 0 0 0 0.2 0 0.3-0.1 0 0 0 0 0 0 0 0 0.1 0 0.1 0c0.4-0.1 0.8 0 1.5-0.1q0.1 0 0.4-0.1 0 0-0.1 0 0 0 0 0-0.2 0.1-0.3 0.1 0.1 0.1 0.3 0.1 0 0 0.1 0.1 0.1 0 0.1 0 0.1 0 0.1-0.1 0.1 0 0.2 0 0 0 0.1 0 0.1-0.1 0.2-0.2 0 0 0-0.1 0.1-0.1 0.2-0.2-0.1 0-0.2 0.1 0 0-0.1 0 0 0-0.1 0.1 0 0 0 0-0.1 0-0.1 0-0.1 0-0.2 0.1 0 0-0.1 0 0 0-0.1 0 0.2 0 0.5-0.1 0.2-0.1 0.4-0.2 0 0 0 0c0.9-0.4 1.1-0.9 1.5-1 0.2-0.1 1.1-0.3 1.4-0.8-0.3 0.2-0.9 0.4-0.9 0.4 0 0 0.4-0.2 0.7-0.6-0.6 0.4-1 0.4-1 0.4 0 0 0.3 0 0.4-0.2 0.2-0.1 0.8-0.4 0.8-0.4 0 0-0.5 0.1-0.8 0.3-0.2 0.1-0.5 0.2-0.5 0.2 0 0 0.2-0.1 0.5-0.3 0.3-0.3 0.7-0.3 0.7-0.3 0 0-0.6-0.2-1.5 0.4q-0.1 0-0.2 0.1-0.1 0-0.3 0-0.1 0-0.1 0-0.1 0-0.2 0 0 0-0.1 0-0.1 0-0.2 0 0 0 0 0-0.1 0-0.2 0 0 0-0.1 0-0.1 0-0.1 0-0.1 0-0.1 0-0.1 0-0.2 0 0 0-0.1 0-0.1 0-0.1 0-0.1 0-0.1 0-0.1 0-0.2 0 0 0 0 0 0 0-0.1 0-0.1 0.1-0.1 0.1-0.1 0-0.1 0c-0.3 0.1-0.3 0.2-0.3 0.7q0.1 0 0.3-0.1 0 0 0.1 0 0-0.1 0-0.1-0.2 0.1-0.4 0.2c-0.6 0.5-1.1 1-1.3 1.1zm3.6-1.7q0 0 0 0 0 0 0 0zm0.1-0.1q0.1 0 0.1 0 0 0-0.1 0zm-0.3 0.1q0 0 0 0 0 0-0.1 0 0.1 0 0.1 0zm-0.3 0q0.1 0 0.2 0-0.1 0-0.3 0.1 0 0 0.1 0 0 0 0-0.1zm-0.2 0.1q0.1 0 0.1 0-0.1 0-0.2 0 0 0 0 0 0.1 0 0.1 0zm-0.3 0q0.1 0 0.2 0-0.2 0-0.3 0 0 0 0.1 0 0 0 0 0zm-0.8 0.3q0.1 0 0.1-0.1 0.1 0 0.2 0 0 0 0 0 0.1-0.1 0.2-0.1 0.1 0 0.1 0 0 0 0.1 0-0.2 0-0.4 0.1-0.2 0-0.4 0.1 0.1 0 0.1 0zm-11.6 5.4c-0.1 0-0.6-0.4-1.6-0.1q-0.1 0.1-0.2 0.1-0.2 0-0.4-0.1 0 0-0.1 0 0 0-0.1-0.1-0.1 0-0.1 0-0.1 0-0.2-0.1 0 0-0.1 0 0 0-0.1 0 0-0.1-0.1-0.1-0.1 0-0.1 0-0.1 0-0.1 0-0.1-0.1-0.2-0.1 0 0-0.1 0 0 0-0.1 0-0.1 0-0.1-0.1-0.1 0-0.2 0 0 0 0 0 0 0-0.1 0 0 0-0.1 0-0.1 0-0.1 0c-0.3 0.1-0.3 0.2-0.4 0.7q0.1-0.1 0.2-0.1 0.1 0 0.1 0 0 0 0 0-0.2 0-0.3 0.1c-0.8 0.2-1.4 0.5-1.6 0.6q-0.1 0-0.1 0 0 0-0.1 0 0 0 0 0 0 0 0 0-0.1 0-0.2 0 0 0 0 0-0.1 0-0.2 0 0 0.1 0 0.1-0.1 0-0.2 0 0 0 0 0 0 0.1 0 0.1 0 0 0 0.1 0 0 0 0 0 0 0 0 0 0 0 0 0 0 0.1 0 0 0 0 0 0 0.1 0 0.1 0.1 0 0.1 0 0 0 0.1 0 0 0 0 0 0.1 0 0.1 0 0 0 0.1 0 0 0 0.1 0 0 0 0 0 0.1 0 0.1 0 0 0 0 0 0 0 0.1 0c0.4 0 0.7 0.2 1.4 0.3q0.2 0.1 0.4 0.1 0 0 0 0-0.1 0-0.1 0-0.2-0.1-0.3-0.1 0.1 0.2 0.3 0.2 0 0.1 0 0.1 0.1 0 0.2 0 0 0.1 0.1 0.1 0.1 0 0.2 0 0 0 0.1-0.1 0.1 0 0.2 0 0-0.1 0.1-0.1 0.1-0.1 0.2-0.2-0.1 0-0.2 0.1 0 0-0.1 0-0.1 0-0.1 0-0.1 0-0.1 0 0 0-0.1 0-0.1 0-0.2 0 0 0 0 0-0.1 0-0.2 0 0.3 0 0.6 0 0.2 0 0.4-0.1 0 0 0 0c1-0.1 1.3-0.5 1.7-0.5 0.2 0 1.1 0 1.6-0.4-0.4 0.2-1 0.2-1 0.2 0 0 0.4-0.1 0.8-0.4-0.7 0.2-1.1 0.1-1.1 0.1 0 0 0.3 0 0.5-0.1 0.3-0.1 0.9-0.1 0.9-0.1 0 0-0.5-0.1-0.9 0-0.2 0-0.5 0-0.5 0 0 0 0.2 0 0.5-0.1 0.4-0.2 0.8-0.1 0.9-0.1zm-2.1 0.1q0 0 0 0 0 0 0 0zm-0.2 0q0 0 0 0 0 0 0 0zm-0.2 0q0 0 0 0 0-0.1 0-0.1 0 0 0 0.1zm-0.2-0.1q0 0 0.1 0-0.1 0-0.3 0 0.1 0 0.1 0 0 0 0.1 0zm-0.3 0q0.1 0 0.1 0-0.1 0-0.2-0.1 0 0 0 0 0.1 0 0.1 0.1zm-0.2-0.1q0 0 0.1 0-0.1 0-0.3 0 0 0 0.1 0 0 0 0.1 0zm-0.9 0q0 0 0.1 0 0.1 0 0.1 0 0.1 0 0.1 0 0.1 0 0.2 0 0.1 0 0.1 0 0 0 0.1 0-0.2 0-0.4 0-0.2 0-0.4 0.1 0 0 0.1-0.1zm12.3 8c0 0-0.8-0.1-1.3 0-0.5 0.2-0.9 0.2-1 0.2 0.1 0 0.4-0.1 0.9-0.3 0.7-0.3 1.4-0.1 1.4-0.1 0 0-0.9-0.6-2.5-0.1q-0.3 0-0.4 0.1-0.2 0-0.4 0.1 0.2-0.1 0.4-0.1-0.3-0.1-0.6-0.2-0.1 0-0.2 0-0.1-0.1-0.2-0.1-0.1 0-0.2-0.1-0.1 0-0.2 0-0.1-0.1-0.2-0.1-0.1 0-0.2-0.1-0.1 0-0.2 0-0.1-0.1-0.2-0.1-0.1 0-0.2-0.1-0.1 0-0.2 0-0.1 0-0.2-0.1-0.1 0-0.2 0-0.1 0-0.1 0-0.2-0.1-0.3-0.1 0 0-0.1 0 0 0-0.1 0-0.1 0-0.2 0-0.1 0-0.2 0c-0.5 0.1-0.5 0.2-0.7 1.1q0.2-0.1 0.4-0.1 0.1-0.1 0.2-0.1 0 0 0 0-0.3 0.1-0.6 0.2c-1.3 0.3-2.2 0.9-2.7 1q0 0-0.1 0 0 0-0.1 0 0 0 0 0 0 0 0 0-0.1 0-0.1 0-0.1 0-0.1 0-0.1 0-0.1 0-0.1 0-0.1 0.1-0.1 0-0.1 0-0.1 0-0.1 0 0 0-0.1 0 0 0-0.1 0 0 0.1 0 0.1-0.1 0-0.1 0 0 0 0 0-0.1 0.1-0.1 0.1 0 0 0 0-0.1 0-0.1 0.1 0 0 0 0.1 0 0 0 0 0.1 0 0.1 0 0 0 0 0.1 0 0 0.1 0 0 0 0 0 0.1 0 0.1 0 0 0.1 0.1 0.1 0 0 0.1 0 0 0 0.1 0 0.1 0 0.1 0 0.1 0 0.1 0 0.1 0 0.2 0 0.1 0 0.1 0 0.1 0 0.1 0 0 0 0 0 0.1 0 0.2 0c0.7 0 1.2 0.4 2.3 0.5q0.2 0.3 0.5 0.4 0 0 0.1 0.1 0.1 0 0.3 0.1 0 0 0.1 0 0.2 0 0.3 0 0.1 0 0.1 0 0.2-0.1 0.4-0.2 0.1 0 0.2-0.1 0.2-0.1 0.4-0.3 0 0 0 0c1.6-0.2 2-0.8 2.8-0.9 0.3 0 1.9 0.1 2.6-0.6-0.6 0.3-1.7 0.3-1.7 0.3 0 0 0.8-0.2 1.4-0.7-1.1 0.4-1.8 0.2-1.8 0.2 0 0 0.5 0 0.9-0.1 0.3-0.2 1.3-0.3 1.3-0.3zm-3.3-0.1q-0.2 0-0.3 0 0.1 0 0.3 0zm-0.4 0q0 0-0.1 0 0.1 0 0.1 0zm-0.8-0.1q0.2 0 0.3 0 0.1 0 0.2 0.1 0.1 0 0.2 0c-0.3 0-0.5-0.1-0.9-0.2q0.1 0 0.1 0 0.1 0.1 0.1 0.1zm-0.5-0.1q0 0 0 0 0 0 0 0 0 0 0 0zm-0.4-0.1q0 0-0.1 0 0.1 0 0.1 0 0 0 0 0zm-0.3 0q0 0 0.1 0-0.1 0-0.2 0 0 0 0.1 0zm-1 0.1q0 0 0.1 0 0.2 0 0.3-0.1 0.1 0 0.1 0h0.1q0.1 0 0.2 0 0 0 0 0-0.1 0-0.3 0-0.4 0.1-0.7 0.1 0.1 0 0.2 0zm-0.7 2.5q0 0 0 0 0.1 0 0.2 0 0 0 0 0-0.1 0-0.2 0zm0.5 0q-0.1 0-0.2 0 0.1 0 0.3 0 0 0 0 0-0.1 0-0.1 0zm0.6 0q0 0-0.1 0 0 0-0.1 0-0.1 0-0.2 0 0.2 0 0.4 0 0.2 0 0.4 0-0.1 0-0.1 0-0.2 0-0.3 0zm16.1-7.2c0 0-0.8-0.2-1.3 0-0.5 0.1-0.9 0.1-1 0.1 0.1 0 0.4 0 1-0.3 0.6-0.3 1.3 0 1.3 0 0 0-0.8-0.7-2.5-0.2q-0.2 0.1-0.4 0.2-0.2 0-0.4 0 0.2 0 0.4 0-0.3-0.1-0.6-0.2-0.1 0-0.2-0.1-0.1 0-0.2 0-0.1-0.1-0.2-0.1-0.1 0-0.2-0.1-0.1 0-0.2 0-0.1-0.1-0.2-0.1-0.1 0-0.2-0.1-0.1 0-0.2 0-0.1-0.1-0.2-0.1-0.1 0-0.2-0.1-0.1 0-0.1 0-0.2 0-0.3-0.1-0.1 0-0.1 0-0.2 0-0.3 0 0 0-0.1 0 0 0-0.1 0-0.1 0-0.2 0-0.1 0-0.2 0c-0.5 0-0.5 0.2-0.7 1q0.2 0 0.4-0.1 0.1 0 0.2 0 0 0 0 0-0.3 0-0.6 0.1c-1.3 0.4-2.2 1-2.7 1q0 0 0 0-0.1 0-0.1 0.1-0.1 0-0.1-0.1 0 0.1 0 0.1-0.1 0-0.1 0-0.1 0-0.1 0-0.1 0-0.1 0-0.1 0-0.1 0-0.1 0-0.1 0-0.1 0-0.1 0.1 0 0-0.1 0 0 0-0.1 0 0 0 0 0-0.1 0.1-0.1 0.1 0 0 0 0-0.1 0-0.1 0.1 0 0 0 0-0.1 0-0.1 0.1 0 0 0 0 0 0 0 0.1 0.1 0 0.1 0 0 0 0 0 0 0 0.1 0.1 0 0 0 0 0.1 0 0.1 0 0.1 0 0.1 0 0 0 0.1 0 0.1 0.1 0.1 0.1 0.1 0 0.1 0 0.1 0 0.1 0 0.1 0 0.2 0 0.1 0 0.1 0 0.1 0 0.1 0 0 0 0 0 0.1 0 0.2 0c0.7 0 1.2 0.3 2.3 0.5q0.2 0.2 0.5 0.4 0 0 0.1 0 0.1 0.1 0.3 0.1 0 0.1 0.1 0.1 0.2 0 0.3 0 0.1-0.1 0.2-0.1 0.1 0 0.3-0.1 0.1 0 0.2-0.1 0.2-0.1 0.4-0.3 0 0 0 0c1.6-0.2 2-0.9 2.8-0.9 0.4 0 1.9 0.1 2.6-0.7-0.6 0.3-1.7 0.4-1.7 0.4 0 0 0.8-0.2 1.4-0.7-1.1 0.4-1.8 0.2-1.8 0.2 0 0 0.5 0 0.9-0.2 0.3-0.1 1.3-0.2 1.3-0.2zm-3.3-0.2q-0.2 0-0.3 0 0.1 0 0.3 0zm-0.4 0.1q0 0 0 0 0 0 0 0zm-0.7-0.2q0.1 0.1 0.2 0.1 0.1 0 0.2 0 0.1 0 0.2 0c-0.3 0-0.5 0-0.9-0.1q0.1 0 0.1 0 0.1 0 0.2 0zm-0.5 0q-0.1-0.1-0.1-0.1 0 0 0 0 0 0 0.1 0.1zm-0.5-0.1q0 0 0 0 0 0 0 0 0 0 0 0zm-0.3 0q0 0 0.1 0-0.1 0-0.2 0 0.1 0 0.1 0zm-1 0.1q0-0.1 0.1-0.1 0.2 0 0.3 0 0.1 0 0.1 0h0.1q0.1 0 0.2 0 0 0 0 0-0.1 0-0.3 0-0.3 0-0.7 0.1 0.1 0 0.2 0zm-0.7 2.5q0 0 0 0 0.1 0 0.2 0 0 0 0 0-0.1 0-0.2 0zm0.5 0q-0.1 0-0.2 0 0.2 0 0.3 0 0 0 0 0-0.1 0-0.1 0zm0.6 0q0 0-0.1 0 0 0-0.1 0-0.1 0-0.2 0 0.2 0 0.4 0 0.2 0 0.4 0-0.1 0-0.1 0-0.1 0-0.3 0zm-3.3-4.6c0 0-0.6-0.5-1.9-0.1q-0.2 0.1-0.3 0.1-0.2 0-0.3 0 0.1 0 0.3 0-0.2 0-0.5-0.1 0 0-0.1-0.1-0.1 0-0.2 0 0 0-0.1-0.1-0.1 0-0.2 0 0-0.1-0.1-0.1-0.1 0-0.2 0 0-0.1-0.1-0.1-0.1 0-0.2 0 0-0.1-0.1-0.1-0.1 0-0.2 0 0 0-0.1-0.1-0.1 0-0.2 0 0 0-0.1 0-0.1 0-0.2 0 0 0 0 0-0.1 0-0.1 0-0.1 0-0.2 0-0.1 0-0.1 0c-0.4 0-0.4 0.1-0.6 0.8q0.2-0.1 0.3-0.1 0.1 0 0.2 0 0 0 0-0.1-0.2 0.1-0.5 0.2c-1 0.2-1.6 0.7-2 0.7q0 0-0.1 0 0 0 0 0 0 0 0 0-0.1 0-0.1 0 0 0-0.1 0 0 0 0 0.1-0.1 0-0.1 0-0.1 0-0.1 0 0 0-0.1 0 0 0 0 0-0.1 0-0.1 0 0 0-0.1 0.1 0 0 0 0 0 0-0.1 0 0 0 0 0 0 0 0 0.1 0 0 0 0-0.1 0-0.1 0 0 0.1 0 0.1 0 0 0 0 0 0 0.1 0 0 0.1 0 0.1 0 0 0 0 0 0 0.1 0 0 0 0 0 0.1 0 0.1 0 0 0 0.1 0.1 0 0 0 0 0.1 0 0.1 0 0.1 0 0.1 0 0.1 0 0.1 0 0.1 0 0.1 0 0.1 0 0.1 0 0 0 0 0 0.1 0 0.1 0h0.1c0.5 0 0.9 0.2 1.7 0.4q0.2 0.2 0.4 0.3 0 0 0 0 0.2 0.1 0.3 0.1 0 0 0.1 0 0.1 0 0.2 0 0.1 0 0.1 0 0.1-0.1 0.3-0.1 0-0.1 0.1-0.1 0.2-0.1 0.3-0.2 0 0 0 0c1.2-0.2 1.6-0.7 2.2-0.7 0.2 0 1.4 0 1.9-0.5-0.4 0.2-1.2 0.2-1.2 0.2 0 0 0.5-0.1 1-0.5-0.9 0.3-1.4 0.2-1.4 0.2 0 0 0.4 0 0.7-0.1 0.3-0.2 1-0.2 1-0.2 0 0-0.6-0.1-1 0-0.4 0.1-0.7 0.1-0.7 0.1 0 0 0.2 0 0.7-0.2 0.5-0.3 1-0.1 1-0.1zm-2.5 0q-0.1 0.1-0.2 0.1 0.1 0 0.2-0.1zm-0.3 0.1q0 0-0.1 0 0.1 0 0.1 0zm-0.6-0.1q0.1 0 0.2 0 0.1 0 0.1 0 0.1 0.1 0.2 0.1c-0.2 0-0.4-0.1-0.6-0.1q0 0 0 0 0.1 0 0.1 0zm-0.4-0.1q0 0 0 0 0 0 0 0 0 0 0 0zm-0.3 0q0 0 0 0 0 0 0 0 0 0 0 0zm-0.2 0q0 0 0 0 0 0-0.1 0 0 0 0.1 0zm-0.8 0q0 0 0.1 0 0.1 0 0.2 0 0.1 0 0.1 0 0.1 0 0.2 0 0 0 0 0-0.1 0-0.2 0-0.3 0-0.5 0 0 0 0.1 0zm-0.5 1.9q0 0 0 0 0 0 0.1 0 0 0 0 0-0.1 0-0.1 0zm0.3 0q0 0-0.1 0 0.1 0 0.3 0-0.1 0-0.1 0 0 0-0.1 0zm0.5 0q0 0 0 0-0.1 0-0.1 0-0.1 0-0.2 0 0.2 0 0.3 0 0.2 0 0.3 0 0 0-0.1 0-0.1 0-0.2 0zm22.4-4.2c0 0-0.7-0.1-1.1 0-0.3 0.1-0.6 0.1-0.7 0.1 0.1 0 0.3 0 0.7-0.2 0.5-0.2 1-0.1 1-0.1 0 0-0.6-0.5-1.9-0.1q-0.2 0.1-0.3 0.1-0.1 0-0.2 0.1 0.1-0.1 0.2-0.1-0.2 0-0.4-0.1-0.1 0-0.2 0 0-0.1-0.1-0.1-0.1 0-0.2 0-0.1-0.1-0.2-0.1 0 0-0.1-0.1-0.1 0-0.2 0 0 0-0.1-0.1-0.1 0-0.1 0-0.1 0-0.2-0.1 0 0-0.1 0-0.1 0-0.2 0 0-0.1-0.1-0.1-0.1 0-0.2 0-0.1 0-0.1 0-0.1 0-0.1 0 0 0-0.1 0-0.1 0-0.2 0 0 0-0.1 0c-0.4 0-0.4 0.1-0.5 0.8q0.1-0.1 0.3-0.1 0 0 0.1 0 0 0 0.1 0-0.3 0-0.5 0.1c-1 0.2-1.7 0.7-2.1 0.7q0 0 0 0-0.1 0-0.1 0 0 0 0 0 0 0 0 0-0.1 0-0.1 0.1-0.1 0-0.1 0 0 0-0.1 0 0 0-0.1 0 0 0 0 0-0.1 0-0.1 0 0 0 0 0-0.1 0.1-0.1 0.1 0 0-0.1 0 0 0 0 0 0 0 0 0-0.1 0.1-0.1 0.1 0 0 0 0 0 0 0 0-0.1 0.1 0 0.1 0 0 0 0 0 0 0 0.1 0 0 0 0 0 0 0.1 0 0 0 0 0 0 0 0.1 0 0 0 0 0.1 0.1 0 0.1 0 0 0 0.1 0 0 0 0.1 0 0 0 0.1 0 0 0 0.1 0 0 0 0.1 0 0 0 0.1 0 0 0 0 0 0 0 0.1 0c0.5 0 0.9 0.3 1.7 0.4q0.2 0.2 0.4 0.3 0 0 0.1 0 0.1 0.1 0.2 0.1 0.1 0 0.1 0 0.1 0 0.2 0 0.1 0 0.1 0 0.2 0 0.3-0.1 0.1 0 0.1-0.1 0.2-0.1 0.3-0.2 0 0 0 0c1.3-0.2 1.6-0.7 2.2-0.7 0.2 0 1.4 0.1 1.9-0.5-0.4 0.2-1.2 0.2-1.2 0.2 0 0 0.6-0.1 1.1-0.5-0.9 0.3-1.4 0.2-1.4 0.2 0 0 0.4 0 0.6-0.1 0.3-0.2 1.1-0.2 1.1-0.2zm-2.6-0.1q-0.1 0-0.2 0 0.1 0 0.2 0zm-0.3 0q0 0 0 0 0 0 0 0zm-0.5-0.1q0.1 0 0.2 0 0 0.1 0.1 0.1 0.1 0 0.2 0c-0.3 0-0.4-0.1-0.7-0.1q0 0 0 0 0.1 0 0.2 0zm-0.4-0.1q-0.1 0-0.1 0 0 0 0 0 0.1 0 0.1 0zm-0.4 0q0 0 0 0 0 0 0 0 0 0 0 0zm-0.2 0q0 0 0.1 0-0.1 0-0.2 0 0.1 0 0.1 0zm-0.8 0q0.1 0 0.1 0 0.1 0 0.3 0 0 0 0 0h0.1q0.1 0 0.2 0 0 0 0 0-0.1 0-0.3 0-0.2 0-0.5 0.1 0.1-0.1 0.1-0.1zm-0.5 1.9q0 0 0 0 0.1 0 0.2 0 0 0-0.1 0 0 0-0.1 0zm0.4 0.1q-0.1 0-0.2 0 0.2 0 0.3 0 0 0 0 0-0.1 0-0.1 0zm0.5 0q-0.1 0-0.1 0 0 0-0.1 0-0.1 0-0.1 0 0.1 0 0.3 0 0.1-0.1 0.2-0.1 0 0 0 0-0.1 0-0.2 0.1zm-144.5 52.7q0 0 0.1 0.1 0 0 0 0 0 0 0.1 0 0 0 0 0 0.1 0.1 0.1 0.1 0 0 0.1 0 0 0 0.1 0 0 0 0 0 0.1 0 0.1 0 0.1 0 0.1 0 0.1 0 0.2 0 0 0 0.1-0.1 0 0 0.1 0 0.1 0 0.1 0 0.1 0 0.2 0 0-0.1 0.1-0.1 0.1 0 0.1 0 0.1-0.1 0.2-0.1 0.1 0 0.2 0 0-0.1 0.1-0.1 0.1 0 0.2-0.1 0.1 0 0.2-0.1 0.1 0 0.2 0 0-0.1 0.1-0.1 0.1-0.1 0.2-0.1 0.1-0.1 0.2-0.1 0.1-0.1 0.3-0.1 0-0.1 0.1-0.1 0 0 0 0 0 0 0 0 0.2-0.1 0.4-0.3h0.1c1.7-1 3.8-0.8 7-1.9q0.9 0.3 1.7 0.4 0.2 0 0.4 0 0.5-0.1 1-0.2 0.2-0.1 0.3-0.1 0.5-0.2 0.9-0.5 0.2-0.1 0.3-0.3 0.5-0.3 0.8-0.9 0.2-0.2 0.3-0.4 0.4-0.6 0.7-1.4-0.2 0.2-0.5 0.4 0.3-0.2 0.5-0.4 0 0 0 0c4-2.9 4.3-5.3 6.4-6.5 0.8-0.5 5-2.4 5.8-5.4-1 1.5-3.9 3.2-3.9 3.2 0 0 1.8-1.5 2.8-3.8-2.5 2.7-4.6 3.1-4.6 3.1 0 0 1.4-0.6 2.1-1.6 0.7-1 3.3-2.6 3.3-2.6 0 0-2.5 0.8-3.7 2-0.9 1-2 1.6-2.4 1.7 0.3-0.1 1-0.6 2.2-2.1 1.4-1.8 3.4-2.1 3.6-2.1-0.2 0-3.3-0.6-7.1 3.2q-0.5 0.5-0.9 0.9-0.2 0.2-0.4 0.4 0.2-0.2 0.4-0.4-0.8 0.2-1.8 0.4-0.3 0.1-0.5 0.1-0.4 0.1-0.8 0.1-0.2 0.1-0.5 0.1-0.4 0.1-0.8 0.1-0.2 0.1-0.5 0.1-0.4 0.1-0.7 0.1-0.3 0.1-0.5 0.1-0.4 0-0.8 0.1-0.2 0.1-0.4 0.1-0.4 0.1-0.8 0.2-0.2 0-0.4 0.1-0.4 0.1-0.8 0.2-0.2 0-0.4 0.1-0.4 0.1-0.7 0.3-0.2 0.1-0.3 0.1-0.1 0.1-0.2 0.1-0.4 0.2-0.7 0.4-0.2 0.1-0.4 0.3c-1.3 0.8-1.2 1.3-0.5 3.8q0.3-0.3 0.7-0.6-0.4 0.3-0.7 0.6c-3 2.8-4.5 5.7-5.7 6.5q-0.1 0-0.2 0.1-0.2 0.1-0.3 0.2 0 0 0 0 0 0 0 0-0.1 0-0.1 0-0.1 0.1-0.2 0.2 0 0-0.1 0-0.1 0.1-0.2 0.1 0 0.1-0.1 0.1 0 0.1-0.1 0.1-0.1 0.1-0.1 0.1-0.1 0.1-0.2 0.1 0 0-0.1 0.1 0 0-0.1 0.1 0 0-0.1 0.1 0 0-0.1 0.1 0 0-0.1 0.1 0 0-0.1 0.1 0 0-0.1 0.1 0 0-0.1 0.1 0 0 0 0-0.1 0.1-0.1 0.1-0.1 0.1-0.1 0.1 0 0.1-0.1 0.1 0 0 0 0.1 0 0-0.1 0.1 0 0 0 0.1 0 0-0.1 0 0 0.1 0 0.1 0 0.1 0 0.1 0 0 0 0.1 0 0 0 0.1 0 0-0.1 0 0 0.1 0.1 0.2 0 0 0 0.1 0 0 0 0zm19.9-15.6q0.1-0.1 0.2-0.1-0.1 0-0.2 0.1zm-8.1 12.2q0 0 0 0 0 0 0 0zm1.1-0.4q0 0 0 0 0 0 0 0 0 0 0 0zm0.9-0.4q-0.1 0-0.3 0.1 0.3-0.2 0.7-0.3 0 0-0.1 0-0.1 0.1-0.3 0.2zm6.4-11.6q0.2-0.1 0.4-0.3-0.2 0.2-0.4 0.3zm-0.4 0.3q-0.2 0.1-0.3 0.2 0.1-0.1 0.3-0.2zm-0.4 0.2q-0.4 0.2-0.8 0.4 0.2-0.1 0.4-0.2 0.2-0.1 0.4-0.2zm-2.4 0.9q0.4-0.1 0.8-0.2 0.2-0.1 0.4-0.2 0.2 0 0.4-0.1c-0.8 0.3-1.5 0.5-2.4 0.8q0.2-0.1 0.3-0.1 0.3-0.1 0.5-0.2zm-5.2 2.3q0.2-0.1 0.3-0.2h0.1q0.1-0.1 0.1-0.1-0.1 0.1-0.2 0.1-0.5 0.3-0.9 0.6 0.3-0.2 0.6-0.4zm-0.7 0.5q0 0 0-0.1-0.3 0.3-0.6 0.5 0.1-0.1 0.2-0.1 0.2-0.2 0.4-0.3zm-1.5 1.1q0.2-0.2 0.4-0.3 0.1-0.1 0.1-0.1-0.3 0.3-0.6 0.5 0 0 0.1-0.1zm-23.5 10.7q0 0 0 0.1 0.1 0 0.1 0 0 0 0.1 0.1 0 0 0.1 0 0 0 0.1 0 0.1 0 0.1 0 0.1 0 0.2-0.1 0.1 0 0.1 0 0.1 0 0.2-0.1 0.1 0 0.2 0 0.1-0.1 0.2-0.1 0.1-0.1 0.2-0.1 0.2-0.1 0.3-0.1 0.1-0.1 0.2-0.2 0.1 0 0.2 0 0 0 0 0 0.1-0.1 0.2-0.2h0.1c1.1-0.7 2.4-0.5 4.4-1.2q0.2-0.1 0.5-0.2-0.3 0.1-0.5 0.2 0.6 0.2 1.1 0.2 0.1 0 0.3 0 0.3 0 0.5-0.1 0.2 0 0.3-0.1 0.3-0.1 0.5-0.2 0.1-0.1 0.2-0.2 0.3-0.3 0.5-0.6 0.1-0.1 0.2-0.3 0.2-0.3 0.4-0.8 0 0 0 0c2.6-1.9 2.8-3.4 4.1-4.1 0.5-0.4 3.1-1.6 3.7-3.5-0.7 1-2.5 2.1-2.5 2.1 0 0 1.2-1 1.8-2.4-1.6 1.7-3 1.9-3 1.9 0 0 1-0.4 1.4-1 0.4-0.6 2.1-1.6 2.1-1.6 0 0-1.6 0.5-2.3 1.2-0.7 0.6-1.4 1-1.6 1.1 0.2-0.1 0.7-0.4 1.4-1.3 0.9-1.1 2.2-1.3 2.3-1.3-0.1-0.1-2.1-0.4-4.5 2q-0.3 0.3-0.6 0.5-0.5 0.2-1.1 0.3-0.2 0-0.3 0.1-0.3 0-0.5 0-0.2 0.1-0.3 0.1-0.3 0-0.6 0.1-0.1 0-0.3 0-0.2 0-0.4 0.1-0.2 0-0.3 0-0.3 0.1-0.5 0.1-0.2 0-0.3 0.1-0.3 0-0.5 0.1-0.1 0-0.3 0-0.2 0.1-0.4 0.2-0.2 0-0.3 0-0.3 0.1-0.5 0.2 0 0.1-0.1 0.1-0.1 0-0.2 0.1-0.2 0.1-0.4 0.2-0.2 0.1-0.3 0.2c-0.8 0.5-0.7 0.8-0.3 2.4-1.8 1.7-2.8 3.6-3.6 4.1q-0.1 0-0.1 0.1-0.1 0-0.2 0.1 0 0 0 0-0.1 0-0.1 0-0.1 0.1-0.2 0.1 0 0.1-0.1 0.2-0.1 0-0.2 0.1-0.1 0-0.1 0.1-0.1 0.1-0.2 0.1 0 0.1-0.1 0.1-0.1 0.1-0.1 0.1-0.1 0.1-0.1 0.2-0.1 0-0.1 0.1-0.1 0-0.1 0.1 0 0 0 0.1-0.1 0.1-0.1 0.1 0 0.1 0 0.1-0.1 0.1 0 0.2zm12.6-9.8q0 0 0.1-0.1-0.1 0.1-0.1 0.1zm-4.7 7.5q-0.1 0.1-0.2 0.1 0.3-0.1 0.5-0.2 0 0 0 0-0.2 0.1-0.3 0.1zm0.8-0.3q-0.2 0.1-0.3 0.1 0.3-0.1 0.6-0.3-0.1 0.1-0.1 0.1-0.1 0-0.2 0.1zm1.1-0.6q-0.1 0-0.1 0.1-0.1 0-0.3 0.1-0.1 0.1-0.3 0.1 0.4-0.1 0.7-0.3 0.3-0.2 0.6-0.4-0.1 0.1-0.2 0.1-0.2 0.1-0.4 0.3zm3.1-6.8q0-0.1 0.1-0.1-0.1 0-0.1 0.1zm-0.5 0.3q-0.1 0.1-0.1 0.1 0 0 0.1-0.1zm-0.3 0.2q0 0-0.1 0 0.1 0 0.1 0zm-1.4 0.5q0.3-0.1 0.5-0.2 0.2 0 0.3-0.1 0.2 0 0.5-0.1c-0.6 0.2-1 0.3-1.7 0.5q0.1 0 0.1 0 0.2-0.1 0.3-0.1zm-0.9 0.3q-0.1 0-0.2 0 0.1 0 0.1 0 0 0 0.1 0zm-0.8 0.3q-0.1 0-0.1 0 0 0 0 0 0 0 0.1 0zm-0.5 0.3q0-0.1 0.1-0.1-0.2 0.1-0.3 0.1 0.1 0 0.2 0zm-1 0.5q0.1 0 0.2-0.1 0.3-0.2 0.5-0.3 0 0 0 0-0.3 0.1-0.5 0.3-0.4 0.2-0.6 0.4 0.1-0.2 0.4-0.3zm-0.5 0.3q0 0 0 0-0.2 0.1-0.4 0.3 0.1-0.1 0.1-0.1 0.2-0.1 0.3-0.2zm-1 0.7q0.2-0.1 0.3-0.2 0 0 0.1 0-0.2 0.1-0.4 0.3 0 0 0-0.1zm51.3-14c2.2-1.1 2.6-2.2 3.7-2.6 0.4-0.2 2.6-0.7 3.3-2.1-0.6 0.7-2.2 1.2-2.2 1.2 0 0 1.1-0.6 1.7-1.6-1.4 1.1-2.5 1.1-2.5 1.1 0 0 0.8-0.2 1.2-0.6 0.4-0.4 1.8-0.9 1.8-0.9 0 0-1.3 0.1-1.9 0.6-0.6 0.4-1.2 0.6-1.4 0.6 0.2 0 0.6-0.2 1.3-0.8 0.8-0.8 1.8-0.7 1.9-0.7-0.1 0-1.5-0.6-3.7 0.9q-0.3 0.2-0.5 0.3-0.4 0.1-1 0.1-0.1 0-0.2 0-0.2 0-0.4 0-0.1-0.1-0.2-0.1-0.2 0-0.4 0-0.2 0-0.3 0-0.2 0-0.4 0-0.1 0-0.2 0-0.2 0-0.4 0-0.1 0-0.2 0-0.2 0-0.4 0-0.1 0-0.2 0-0.2 0-0.4 0-0.1 0-0.2 0.1-0.2 0-0.4 0 0 0-0.1 0.1-0.1 0-0.1 0-0.2 0.1-0.4 0.1-0.1 0.1-0.2 0.1c-0.7 0.3-0.7 0.5-0.6 1.8-1.7 1.1-2.7 2.4-3.4 2.6q0 0-0.1 0-0.1 0.1-0.2 0.1 0 0 0 0 0 0 0 0-0.1 0.1-0.2 0.1-0.1 0-0.1 0.1-0.1 0-0.2 0 0 0.1-0.1 0.1-0.1 0-0.1 0.1-0.1 0-0.1 0-0.1 0.1-0.1 0.1-0.1 0.1-0.1 0.1-0.1 0-0.1 0.1-0.1 0-0.1 0 0 0.1-0.1 0.1 0 0 0 0.1 0 0-0.1 0 0 0.1 0 0.2 0 0 0.1 0.1 0 0 0 0 0 0 0.1 0.1 0 0 0 0 0.1 0 0.1 0 0.1 0 0.1 0 0.1 0 0.1 0 0.1 0 0.2 0 0 0 0.1 0 0.1 0 0.2 0 0.1-0.1 0.2-0.1 0 0 0.1 0 0.1 0 0.2-0.1 0.1 0 0.2 0 0.1 0 0.2-0.1 0 0 0 0 0.1 0 0.2 0v-0.1c1-0.3 1.9 0 3.6-0.2q0.2-0.1 0.4-0.1-0.2 0-0.4 0.1 0.4 0.2 0.8 0.3 0.1 0 0.2 0.1 0.2 0 0.4 0 0.1 0 0.2-0.1 0.3 0 0.5-0.1 0.1 0 0.2-0.1 0.2-0.1 0.5-0.4 0 0 0.1-0.1 0.3-0.3 0.5-0.6 0 0 0 0zm1.8-4.2q0 0 0 0 0 0 0 0zm-0.3 0.1q0.1 0 0.1 0 0 0-0.1 0zm0.5-0.1q0.1-0.1 0.1-0.1 0 0-0.1 0.1zm0.3-0.2q0 0 0.1 0-0.1 0-0.1 0zm-1.8 0.5q0.2 0 0.4-0.1 0.1 0 0.2 0 0.2 0 0.4-0.1c-0.4 0.1-0.8 0.2-1.3 0.2q0 0 0 0 0.2 0 0.3 0zm-0.8 0.1q0 0-0.1 0 0 0 0 0 0.1 0 0.1 0zm-0.7 0.1q0 0 0 0 0 0 0 0 0 0 0 0zm-0.3 0.1q-0.1 0-0.2 0.1 0-0.1 0.1-0.1 0.1 0 0.1 0zm-0.8 0.2h0.1q0.2-0.1 0.4-0.1 0 0 0 0-0.2 0.1-0.5 0.1-0.2 0.1-0.5 0.2 0.2 0 0.4-0.1 0 0 0.1-0.1zm-0.5 0.3q0 0 0-0.1-0.2 0.1-0.4 0.2 0.1 0 0.1 0 0.2-0.1 0.3-0.1zm-0.9 0.4q0.1-0.1 0.3-0.2 0 0 0 0-0.1 0.1-0.3 0.2 0 0 0 0zm0.8 3.5q0 0.1-0.1 0.1 0.2-0.1 0.4-0.1 0 0-0.1 0-0.1 0-0.2 0zm0.7-0.1q-0.1 0-0.3 0 0.3 0 0.5-0.1 0 0 0 0-0.1 0.1-0.2 0.1zm0.9-0.3q0 0-0.1 0-0.1 0.1-0.2 0.1-0.1 0-0.2 0.1 0.2-0.1 0.5-0.2 0.3-0.1 0.5-0.2-0.1 0-0.1 0-0.2 0.1-0.4 0.2zm-24.6-3.8c0.4-0.4 1.6-0.8 1.6-0.8 0 0-1.1 0.1-1.7 0.5-0.4 0.3-0.9 0.5-1.1 0.5 0.1 0 0.5-0.2 1.1-0.7 0.6-0.6 1.5-0.5 1.6-0.5-0.1-0.1-1.3-0.5-3.1 0.7q-0.3 0.2-0.5 0.3-0.2 0.1-0.3 0.2 0.1-0.1 0.3-0.2-0.3 0-0.7 0-0.1 0-0.2 0-0.2 0-0.4 0-0.1 0-0.2 0-0.1 0-0.3 0-0.1 0-0.2 0-0.2 0-0.3 0-0.1-0.1-0.2-0.1-0.2 0-0.3 0-0.1 0-0.2 0-0.2 0-0.3 0-0.1 0-0.2 0.1-0.2 0-0.3 0-0.1 0-0.2 0-0.2 0-0.3 0.1-0.1 0-0.1 0-0.1 0-0.1 0-0.2 0.1-0.4 0.1-0.1 0-0.2 0.1c-0.5 0.2-0.5 0.4-0.4 1.5-1.4 0.9-2.3 1.9-2.8 2.1q-0.1 0.1-0.1 0.1-0.1 0-0.2 0 0 0 0 0 0 0 0 0.1-0.1 0-0.2 0 0 0-0.1 0.1 0 0-0.1 0 0 0.1-0.1 0.1-0.1 0-0.1 0-0.1 0.1-0.1 0.1 0 0-0.1 0.1 0 0-0.1 0 0 0.1 0 0.1-0.1 0-0.1 0 0 0.1-0.1 0.1 0 0 0 0.1 0 0 0 0-0.1 0.1-0.1 0.1 0 0.1 0.1 0.1 0 0 0 0 0 0.1 0.1 0.1 0 0 0 0 0 0 0.1 0 0 0 0.1 0 0 0 0.1 0 0 0 0.1 0 0 0 0.1 0 0.1 0 0.1 0 0.1 0 0.2 0 0.1-0.1 0.1-0.1 0.1 0 0.2 0 0.1 0 0.2-0.1 0 0 0.1 0 0 0 0 0 0.1 0 0.2-0.1c0.8-0.3 1.6 0 2.9-0.2q0.2 0 0.4-0.1-0.2 0.1-0.4 0.1 0.4 0.2 0.7 0.3 0.1 0 0.2 0 0.2 0 0.4 0 0.1 0 0.1 0 0.2 0 0.4-0.1 0.1-0.1 0.2-0.1 0.2-0.1 0.4-0.3 0-0.1 0.1-0.2 0.2-0.2 0.4-0.5 0 0 0 0c1.8-0.8 2.1-1.8 3.1-2.1 0.3-0.1 2.2-0.6 2.8-1.7-0.6 0.5-1.9 1-1.9 1 0 0 0.9-0.5 1.5-1.3-1.3 0.9-2.2 0.8-2.2 0.8 0 0 0.7-0.1 1-0.4zm-2.5 0.2q-0.2 0.1-0.3 0.1 0.1 0 0.3-0.1zm-0.5 0.2q0 0 0.1 0-0.1 0-0.1 0zm-0.9 0.1q0.2 0 0.3 0 0.1 0 0.2 0 0.2-0.1 0.4-0.1c-0.4 0.1-0.7 0.1-1.2 0.1q0.1 0 0.1 0 0.1 0 0.2 0zm-0.6 0.1q-0.1 0-0.1 0 0 0 0 0 0 0 0.1 0zm-0.6 0.1q0 0 0 0 0 0 0 0 0 0 0 0zm-0.3 0.1q-0.1 0-0.2 0 0.1 0 0.2 0 0 0 0 0zm-0.6 0.2q0.2-0.1 0.4-0.1 0 0 0 0-0.2 0-0.4 0.1-0.2 0.1-0.4 0.2 0.1-0.1 0.2-0.2 0.1 0 0.2 0zm-0.5 0.2q0 0 0 0-0.1 0-0.3 0.1 0.1 0 0.1 0 0.1-0.1 0.2-0.1zm-0.7 0.3q0.1 0 0.2-0.1 0 0 0.1 0-0.2 0.1-0.3 0.1 0 0 0 0zm0.7 3q-0.1 0-0.1 0 0.1 0 0.3-0.1 0 0 0 0-0.1 0.1-0.2 0.1zm0.5-0.1q-0.1 0-0.2 0 0.2 0 0.4-0.1 0 0 0 0-0.1 0-0.2 0.1zm0.8-0.3q0 0-0.1 0-0.1 0.1-0.1 0.1-0.2 0-0.3 0.1 0.3-0.1 0.5-0.2 0.2-0.1 0.4-0.2 0 0.1-0.1 0.1-0.1 0-0.3 0.1zm4.5-10.3c0.3-0.3 1.2-0.6 1.2-0.6 0 0-0.8 0.1-1.2 0.4-0.4 0.2-0.8 0.3-0.9 0.4 0.1-0.1 0.4-0.2 0.8-0.6 0.5-0.4 1.2-0.4 1.2-0.4 0 0-0.9-0.4-2.3 0.6q-0.2 0.1-0.4 0.2-0.1 0.1-0.2 0.2 0.1-0.1 0.2-0.2-0.2 0-0.5 0-0.1 0-0.2 0-0.1 0-0.2 0-0.1 0-0.2 0-0.1 0-0.3 0 0 0-0.1 0-0.1 0-0.2 0-0.1 0-0.2 0-0.1 0-0.2 0-0.1 0-0.2 0-0.1 0-0.2 0-0.1 0-0.2 0-0.1 0-0.2 0-0.1 0-0.1 0-0.2 0-0.3 0.1 0 0 0 0-0.1 0-0.1 0-0.2 0-0.3 0.1 0 0-0.1 0c-0.5 0.2-0.4 0.4-0.4 1.2q0.2-0.1 0.4-0.2 0-0.1 0.1-0.1 0 0 0.1 0-0.3 0.1-0.6 0.3c-1 0.7-1.7 1.5-2.1 1.6q0 0-0.1 0 0 0.1-0.1 0.1 0 0 0 0 0 0 0 0-0.1 0-0.1 0-0.1 0.1-0.1 0.1-0.1 0-0.1 0 0 0-0.1 0.1 0 0-0.1 0 0 0 0 0.1-0.1 0-0.1 0 0 0-0.1 0.1 0 0 0 0 0 0-0.1 0 0 0.1 0 0.1 0 0 0 0-0.1 0.1-0.1 0.1 0 0 0 0.1 0 0 0 0 0.1 0 0.1 0 0 0.1 0 0.1 0 0 0 0 0.1 0 0.1 0 0 0 0.1 0 0 0 0.1 0 0 0 0 0 0.1 0 0.1 0 0.1 0 0.1 0 0.1 0 0.1 0 0.1-0.1 0.1-0.1 0.1 0 0.2 0 0 0 0.1 0 0-0.1 0.1-0.1 0 0 0 0 0.1 0 0.1 0h0.1c0.5-0.2 1.2-0.1 2.2-0.2q0.3 0.2 0.5 0.2 0.1 0 0.1 0 0.2 0.1 0.3 0.1 0.1 0 0.1-0.1 0.2 0 0.3-0.1 0.1 0 0.1 0 0.2-0.1 0.3-0.2 0.1-0.1 0.2-0.2 0.1-0.1 0.2-0.3 0 0 0 0c1.4-0.7 1.7-1.4 2.4-1.7 0.3-0.1 1.7-0.4 2.1-1.3-0.4 0.4-1.4 0.8-1.4 0.8 0 0 0.7-0.4 1.1-1-0.9 0.7-1.6 0.7-1.6 0.7 0 0 0.5-0.2 0.7-0.4zm-1.9 0.2q-0.1 0-0.2 0.1 0.1-0.1 0.2-0.1zm-0.4 0.1q0.1 0 0.1 0 0 0-0.1 0zm-0.6 0.1q0.1 0 0.2 0 0.1 0 0.2 0 0.1 0 0.2-0.1c-0.3 0.1-0.5 0.1-0.8 0.1q0 0 0 0 0.1 0 0.2 0zm-0.5 0.1q-0.1 0-0.1 0 0 0 0 0 0 0 0.1 0zm-0.4 0.1q-0.1 0-0.1 0 0 0 0 0 0 0 0.1 0zm-0.3 0q0 0-0.1 0.1 0-0.1 0.1-0.1 0 0 0 0zm-0.9 0.4q0-0.1 0.1-0.1 0.1 0 0.2-0.1 0.1 0 0.2 0 0.1-0.1 0.2-0.1 0 0 0 0-0.1 0-0.2 0.1-0.4 0.1-0.7 0.2 0.1 0 0.2 0zm0.1 2.4q0 0-0.1 0 0.1 0 0.2 0 0 0 0 0-0.1 0-0.1 0zm0.4-0.1q-0.1 0-0.2 0.1 0.2-0.1 0.3-0.1 0 0 0 0-0.1 0-0.1 0zm0.6-0.2q-0.1 0-0.1 0.1-0.1 0-0.1 0-0.1 0-0.2 0 0.2 0 0.4-0.1 0.1 0 0.3-0.1-0.1 0-0.1 0-0.1 0.1-0.2 0.1zm21.5-4.2c-0.4 0.6-1.5 1.3-1.5 1.3 0 0 0.7-0.7 1.1-1.5-1 1-1.9 1.2-1.9 1.2 0 0 0.6-0.3 0.9-0.7 0.3-0.3 1.3-1 1.3-1 0 0-1 0.3-1.5 0.8-0.3 0.4-0.8 0.6-0.9 0.7 0.1-0.1 0.4-0.3 0.8-0.9 0.6-0.6 1.4-0.8 1.5-0.8-0.1 0-1.3-0.2-2.8 1.3q-0.2 0.2-0.4 0.3-0.2 0.2-0.3 0.3 0.1-0.1 0.3-0.3-0.3 0.1-0.7 0.2-0.1 0-0.2 0-0.1 0.1-0.3 0.1-0.1 0-0.2 0-0.1 0-0.3 0.1-0.1 0-0.2 0-0.1 0-0.3 0-0.1 0-0.2 0.1-0.1 0-0.3 0-0.1 0-0.2 0-0.1 0.1-0.2 0.1-0.1 0-0.2 0-0.2 0.1-0.3 0.1-0.1 0.1-0.2 0.1-0.1 0-0.3 0.1 0 0-0.1 0 0 0.1 0 0.1-0.2 0.1-0.3 0.1-0.1 0.1-0.2 0.1c-0.5 0.3-0.4 0.5-0.2 1.5q0.2-0.1 0.4-0.3 0.1-0.1 0.2-0.1 0-0.1 0-0.1-0.3 0.3-0.6 0.5c-1.1 1.1-1.7 2.3-2.2 2.6q-0.1 0-0.1 0-0.1 0.1-0.1 0.1 0 0 0 0 0 0-0.1 0 0 0.1-0.1 0.1 0 0-0.1 0.1 0 0-0.1 0 0 0.1-0.1 0.1 0 0.1 0 0.1-0.1 0-0.1 0.1-0.1 0-0.1 0 0 0.1-0.1 0.1 0 0 0 0.1-0.1 0-0.1 0.1 0 0 0 0 0 0 0 0.1-0.1 0-0.1 0 0 0.1 0 0.1 0 0.1 0.1 0.1 0 0 0 0 0 0 0.1 0.1 0 0 0 0 0.1 0 0.1 0 0 0 0.1 0 0 0 0.1-0.1 0 0 0.1 0 0 0 0.1 0 0.1 0 0.1-0.1 0.1 0 0.2 0 0 0 0.1-0.1 0.1 0 0.1 0 0.1-0.1 0.2-0.1 0 0 0.1-0.1 0 0 0 0 0.1 0 0.1-0.1h0.1c0.6-0.4 1.4-0.3 2.7-0.7q0.4 0.1 0.7 0.1 0.1 0 0.1 0 0.2 0 0.4 0 0.1-0.1 0.2-0.1 0.1-0.1 0.3-0.2 0 0 0.1-0.1 0.2-0.1 0.3-0.3 0.1-0.1 0.1-0.2 0.2-0.2 0.3-0.5 0 0 0 0c1.6-1.2 1.7-2.1 2.5-2.6 0.3-0.2 2-0.9 2.3-2.1zm-3.8 1q-0.1 0.1-0.2 0.2 0.1-0.1 0.2-0.2zm-0.3 0.3q-0.1 0-0.1 0 0 0 0.1 0zm-0.9 0.3q0.2-0.1 0.3-0.1 0.1-0.1 0.2-0.1 0.1 0 0.3-0.1c-0.3 0.2-0.6 0.2-1 0.3q0 0 0 0 0.1 0 0.2 0zm-0.6 0.1q0 0.1-0.1 0.1 0 0 0 0 0.1 0 0.1-0.1zm-0.5 0.3q0 0 0 0 0 0 0 0 0 0 0 0zm-0.3 0.1q0 0 0.1 0-0.1 0-0.2 0.1 0-0.1 0.1-0.1zm-1.1 0.7q0.1-0.1 0.2-0.2 0.1-0.1 0.3-0.1 0-0.1 0.1-0.1 0.2-0.1 0.3-0.2 0 0 0 0-0.1 0.1-0.3 0.2-0.4 0.2-0.7 0.5 0.1-0.1 0.1-0.1zm0.8 3q-0.1 0-0.1 0 0.1-0.1 0.2-0.1 0 0 0 0-0.1 0-0.1 0.1zm0.4-0.3q0 0.1-0.1 0.1 0.1-0.1 0.3-0.1 0 0 0 0-0.1 0-0.2 0zm0.7-0.3q0 0 0 0-0.1 0.1-0.2 0.1-0.1 0-0.2 0.1 0.2-0.1 0.4-0.2 0.2-0.1 0.4-0.3-0.1 0.1-0.1 0.1-0.1 0.1-0.3 0.2zm-7.2-4.7q0 0 0 0 0 0-0.1 0-0.1 0.1-0.3 0.1 0.2 0.1 0.4 0.1 0 0 0.1 0 0.1 0 0.1 0 0.1 0 0.1 0 0.1-0.1 0.2-0.1 0-0.1 0.1-0.1 0-0.1 0.1-0.2 0 0 0.1 0 0-0.2 0.1-0.3-0.1 0-0.2 0.1 0 0 0 0-0.1 0.1-0.2 0.1 0 0 0 0.1-0.1 0-0.1 0-0.1 0-0.2 0.1 0 0 0 0-0.1 0-0.1 0.1 0.2-0.1 0.4-0.3 0.2-0.1 0.4-0.2 0 0 0 0c0.8-0.6 0.8-1.1 1.3-1.3 0.1-0.1 0.9-0.5 1.1-1.1-0.2 0.3-0.8 0.7-0.8 0.7 0 0 0.4-0.3 0.6-0.8-0.5 0.6-0.9 0.6-0.9 0.6 0 0 0.3-0.1 0.4-0.3 0.1-0.2 0.6-0.5 0.6-0.5 0 0-0.4 0.2-0.7 0.4-0.2 0.2-0.4 0.3-0.4 0.3 0 0 0.1-0.1 0.4-0.4 0.2-0.3 0.6-0.4 0.7-0.4-0.1 0-0.7-0.1-1.4 0.6q-0.1 0.1-0.2 0.2-0.1 0.1-0.4 0.1 0 0 0 0-0.1 0-0.2 0 0 0-0.1 0-0.1 0.1-0.2 0.1 0 0 0 0-0.1 0-0.2 0 0 0-0.1 0-0.1 0-0.1 0.1-0.1 0-0.1 0-0.1 0-0.2 0 0 0-0.1 0 0 0-0.1 0.1-0.1 0-0.1 0-0.1 0-0.1 0-0.1 0.1-0.1 0.1 0 0 0 0-0.1 0-0.2 0.1 0 0-0.1 0c-0.2 0.2-0.2 0.3 0 0.8q0-0.1 0.1-0.2 0.1 0 0.1-0.1 0 0 0.1 0-0.2 0.1-0.3 0.3c-0.6 0.5-0.9 1.1-1.2 1.2q0 0 0 0.1 0 0-0.1 0 0 0 0 0 0 0 0 0-0.1 0.1-0.2 0.1 0 0 0 0-0.1 0.1-0.1 0.2 0 0 0 0-0.1 0-0.1 0.1 0 0 0 0-0.1 0.1 0 0.1 0 0 0 0.1 0 0 0 0 0 0 0 0 0 0 0.1 0 0 0 0 0 0 0 0 0 0.1 0 0.1 0 0 0 0 0 0.1 0 0.1-0.1 0 0 0 0 0.1 0 0.1 0 0 0 0.1 0 0-0.1 0.1-0.1 0 0 0 0 0.1 0 0.1 0 0 0 0 0 0-0.1 0.1-0.1c0.3-0.2 0.7-0.1 1.3-0.4q0.2 0 0.4-0.1zm1.4-2.3q0 0 0 0 0 0 0 0zm-0.2 0.1q0 0 0 0 0 0 0 0zm-0.2 0.1q0.1 0 0.1-0.1-0.1 0.1-0.1 0.1 0 0 0 0zm-0.2 0q0.1 0 0.1 0-0.1 0-0.2 0.1 0 0 0 0 0.1-0.1 0.1-0.1zm-0.2 0.1q0 0 0.1 0-0.1 0-0.2 0 0 0 0 0 0 0 0.1 0zm-0.3 0.1q0.1 0 0.1 0-0.1 0-0.2 0 0 0 0 0 0.1 0 0.1 0zm-0.7 0.4q0 0 0 0 0.1-0.1 0.2-0.1 0 0 0-0.1h0.1q0 0 0.1-0.1 0.1 0 0.1 0 0 0 0.1 0-0.2 0-0.4 0.1-0.1 0.2-0.3 0.3 0 0 0.1-0.1zm11.3-9c0 0-0.6-0.2-1.4 0.6q-0.1 0.1-0.1 0.2-0.2 0-0.4 0.1 0 0-0.1 0-0.1 0-0.1 0-0.1 0-0.1 0-0.1 0-0.2 0 0 0-0.1 0-0.1 0.1-0.1 0.1-0.1 0-0.1 0-0.1 0-0.2 0 0 0-0.1 0-0.1 0-0.1 0.1-0.1 0-0.1 0-0.1 0-0.2 0 0 0 0 0-0.1 0.1-0.2 0.1 0 0 0 0-0.1 0-0.1 0-0.1 0.1-0.1 0.1-0.1 0-0.1 0.1c-0.3 0.1-0.2 0.2-0.1 0.7q0.1-0.1 0.2-0.2 0 0 0.1 0 0 0 0 0-0.2 0.1-0.3 0.2c-0.6 0.6-0.9 1.1-1.1 1.3q0 0-0.1 0 0 0 0 0.1 0 0 0 0 0 0 0 0-0.1 0-0.2 0.1 0 0 0 0-0.1 0.1-0.2 0.1 0 0 0 0 0 0.1-0.1 0.2 0 0 0 0 0 0 0 0.1 0 0 0 0 0 0 0 0 0.1 0 0.1 0 0 0 0 0 0 0 0 0 0.1 0 0.1 0 0 0 0 0 0.1 0 0.1 0 0 0 0 0 0.1 0 0.1 0 0 0 0.1 0 0-0.1 0-0.1 0.1 0 0.1 0 0 0 0.1-0.1 0 0 0 0 0 0 0 0 0.1 0 0.1 0c0.4-0.2 0.8-0.2 1.4-0.4q0.2-0.1 0.4-0.2 0 0 0 0.1-0.1 0-0.1 0-0.2 0.1-0.3 0.1 0.2 0.1 0.3 0.1 0.1 0 0.1 0 0.1 0 0.2-0.1 0 0 0.1 0 0.1 0 0.1-0.1 0.1 0 0.1 0 0.1-0.1 0.2-0.2 0 0 0-0.1 0.1-0.1 0.2-0.3-0.1 0.1-0.2 0.2-0.1 0-0.1 0-0.1 0-0.1 0.1-0.1 0-0.1 0 0 0 0 0.1-0.1 0-0.2 0 0 0.1-0.1 0.1 0 0-0.1 0 0.2-0.1 0.5-0.2 0.2-0.1 0.4-0.3 0 0 0 0c0.7-0.5 0.8-1 1.2-1.2 0.2-0.1 1-0.5 1.2-1.1-0.2 0.3-0.8 0.6-0.8 0.6 0 0 0.3-0.3 0.5-0.7-0.5 0.5-0.9 0.6-0.9 0.6 0 0 0.3-0.1 0.5-0.3 0.1-0.2 0.6-0.5 0.6-0.5 0 0-0.5 0.1-0.7 0.3-0.2 0.2-0.4 0.4-0.5 0.4 0.1 0 0.2-0.1 0.4-0.4 0.3-0.4 0.7-0.4 0.7-0.4zm-1.8 1q0-0.1 0.1-0.1-0.1 0-0.1 0.1zm-0.1 0q0 0 0 0 0 0 0 0zm-0.2 0.1q0 0 0 0 0 0-0.1 0 0.1 0 0.1 0zm-0.2 0.1q0 0 0.1-0.1-0.1 0.1-0.3 0.1 0.1 0 0.1 0 0 0 0.1 0zm-0.3 0.1q0.1-0.1 0.1-0.1-0.1 0.1-0.2 0.1 0 0 0 0 0.1 0 0.1 0zm-0.2 0q0 0 0.1 0-0.1 0-0.2 0.1 0 0 0 0 0 0 0.1-0.1zm-0.8 0.5q0.1 0 0.1-0.1 0.1 0 0.1-0.1 0.1 0 0.1 0 0.1-0.1 0.2-0.1 0 0 0.1 0 0-0.1 0-0.1-0.1 0.1-0.3 0.2-0.2 0.1-0.4 0.2 0.1 0 0.1 0zm7-2.7q0 0.1 0 0.1 0 0-0.1 0 0 0 0 0 0 0 0 0-0.1 0.1-0.1 0.2 0 0 0 0-0.1 0.1-0.1 0.2 0 0 0 0-0.1 0.1-0.1 0.1 0 0 0 0.1 0 0 0 0.1 0 0 0.1 0 0 0 0 0 0.1 0 0.1 0 0 0 0 0 0.1-0.1 0.2-0.2 0 0 0 0 0.1-0.1 0.3-0.2 0 0 0 0 0 0 0 0 0 0 0-0.1c0.3-0.3 0.7-0.3 1.3-0.7q0.1-0.1 0.3-0.3 0 0 0 0.1-0.1 0-0.1 0-0.1 0.1-0.2 0.2 0.2 0 0.3 0 0 0 0.1-0.1 0.1 0 0.2 0 0-0.1 0-0.1 0.1 0 0.1-0.1 0.1 0 0.1-0.1 0.1-0.1 0.1-0.2 0 0 0-0.1 0.1-0.1 0.1-0.3-0.1 0.1-0.2 0.2 0 0 0 0-0.1 0.1-0.1 0.2 0 0-0.1 0 0 0 0 0.1-0.1 0-0.1 0.1-0.1 0-0.1 0 0 0.1-0.1 0.1 0.2-0.1 0.4-0.3 0.2-0.2 0.3-0.4 0 0 0 0c0.6-0.8 0.5-1.2 0.8-1.6 0.2-0.1 0.8-0.7 0.8-1.3-0.1 0.3-0.5 0.8-0.5 0.8 0 0 0.2-0.4 0.3-0.9-0.3 0.7-0.7 0.9-0.7 0.9 0 0 0.2-0.2 0.3-0.4 0.1-0.3 0.5-0.7 0.5-0.7 0 0-0.4 0.3-0.6 0.6-0.1 0.2-0.3 0.4-0.4 0.4 0.1 0 0.2-0.2 0.3-0.5 0.2-0.4 0.6-0.6 0.6-0.6 0 0-0.6 0.1-1.2 1q0 0.1-0.1 0.2-0.1 0.1-0.3 0.2 0 0-0.1 0-0.1 0.1-0.1 0.1-0.1 0-0.1 0-0.1 0.1-0.2 0.1 0 0-0.1 0.1 0 0-0.1 0 0 0-0.1 0.1 0 0-0.1 0-0.1 0-0.1 0.1-0.1 0-0.1 0-0.1 0.1-0.1 0.1-0.1 0-0.1 0.1-0.1 0-0.1 0-0.1 0.1-0.1 0.1-0.1 0-0.1 0 0 0.1 0 0.1-0.1 0-0.1 0.1-0.1 0-0.1 0.1c-0.2 0.2-0.1 0.3 0.1 0.7q0.1-0.1 0.2-0.2 0-0.1 0-0.1 0 0 0.1 0-0.2 0.1-0.3 0.3c-0.4 0.7-0.5 1.3-0.7 1.5zm2.4-3.1q0 0 0 0 0 0 0 0zm0.1-0.1q0 0 0.1-0.1-0.1 0.1-0.1 0.1zm-0.2 0.2q0 0 0 0 0 0-0.1 0 0 0 0.1 0zm-0.2 0.1q0 0 0.1 0-0.1 0-0.2 0.1 0 0 0 0 0 0 0.1-0.1zm-0.3 0.2q0.1 0 0.1-0.1 0 0.1-0.1 0.1 0 0 0 0 0 0 0 0zm-0.2 0.1q0.1 0 0.1 0-0.1 0-0.2 0.1 0.1 0 0.1 0 0 0 0-0.1zm-0.6 0.7q0.1-0.1 0.1-0.1 0-0.1 0.1-0.1 0-0.1 0.1-0.1 0-0.1 0.1-0.1 0-0.1 0.1-0.1 0 0 0 0-0.1 0.1-0.2 0.2-0.2 0.2-0.3 0.3 0 0 0 0zm-7.7 10.2c0 0-0.6-0.2-1.4 0.6q-0.1 0.1-0.2 0.2-0.1 0-0.3 0.1-0.1 0-0.1 0-0.1 0-0.2 0 0 0 0 0-0.1 0-0.2 0-0.1 0-0.1 0-0.1 0.1-0.2 0.1 0 0 0 0-0.1 0-0.2 0 0 0-0.1 0-0.1 0-0.1 0.1-0.1 0-0.1 0-0.1 0-0.2 0 0 0-0.1 0 0 0.1-0.1 0.1 0 0 0 0-0.1 0-0.1 0-0.1 0.1-0.1 0.1-0.1 0-0.1 0.1c-0.3 0.1-0.2 0.2-0.1 0.7q0.1-0.1 0.2-0.1 0-0.1 0.1-0.1 0 0 0 0-0.2 0.1-0.3 0.2c-0.6 0.6-0.9 1.1-1.1 1.3q0 0-0.1 0 0 0 0 0.1 0 0 0 0 0 0 0 0-0.1 0-0.2 0.1 0 0 0 0-0.1 0.1-0.2 0.1 0 0 0 0 0 0.1-0.1 0.2 0 0 0 0 0 0 0 0.1 0 0 0 0 0 0 0 0 0 0 0.1 0 0 0 0 0 0 0 0 0 0.1 0 0.1 0 0 0 0 0 0 0 0.1 0 0 0 0 0 0.1 0 0.1 0 0 0 0.1 0 0-0.1 0-0.1 0.1 0 0.1 0 0 0 0.1 0 0-0.1 0-0.1 0 0 0 0 0.1 0 0.1 0c0.4-0.2 0.8-0.2 1.4-0.4q0.2-0.1 0.4-0.2 0 0.1-0.1 0.1 0 0 0 0-0.2 0.1-0.3 0.1 0.2 0.1 0.3 0.1 0.1 0 0.1 0 0.1 0 0.2-0.1 0 0 0.1 0 0.1 0 0.1-0.1 0.1 0 0.1 0 0.1-0.1 0.2-0.2 0 0 0-0.1 0.1-0.1 0.1-0.3 0 0.1-0.1 0.2-0.1 0-0.1 0-0.1 0.1-0.1 0.1-0.1 0-0.1 0 0 0-0.1 0.1 0 0-0.1 0-0.1 0.1-0.1 0.1 0 0-0.1 0 0.2-0.1 0.5-0.2 0.2-0.1 0.3-0.3 0 0 0 0c0.8-0.5 0.9-1 1.3-1.2 0.2-0.1 1-0.5 1.2-1.1-0.2 0.3-0.8 0.6-0.8 0.6 0 0 0.3-0.3 0.5-0.7-0.5 0.5-0.9 0.6-0.9 0.6 0 0 0.3-0.1 0.4-0.3 0.2-0.2 0.7-0.5 0.7-0.5 0 0-0.5 0.1-0.7 0.4-0.2 0.1-0.4 0.3-0.5 0.3 0 0 0.2-0.1 0.4-0.4 0.3-0.4 0.7-0.4 0.7-0.4zm-1.8 1q0-0.1 0.1-0.1-0.1 0-0.1 0.1zm-0.2 0q0.1 0 0.1 0 0 0-0.1 0zm-0.1 0.1q0 0 0 0 0 0-0.1 0 0.1 0 0.1 0zm-0.3 0.1q0.1 0 0.2 0-0.1 0-0.3 0 0 0 0.1 0 0 0 0 0zm-0.2 0.1q0.1-0.1 0.1-0.1-0.1 0.1-0.2 0.1 0 0 0 0 0.1 0 0.1 0zm-0.2 0.1q0-0.1 0.1-0.1-0.1 0.1-0.2 0.1 0 0 0 0 0 0 0.1 0zm-0.8 0.4q0 0 0.1-0.1 0.1 0 0.1-0.1 0.1 0 0.1 0 0.1-0.1 0.2-0.1 0 0 0 0 0.1-0.1 0.1-0.1-0.1 0.1-0.3 0.2-0.2 0.1-0.4 0.2 0.1 0 0.1 0zm14.6 1.3c0 0-0.9 0.2-1.2 0.6-0.4 0.3-0.7 0.5-0.8 0.6 0.1-0.1 0.3-0.2 0.7-0.7 0.4-0.6 1.1-0.7 1.2-0.7-0.1 0-1.1-0.2-2.4 1q-0.1 0.2-0.3 0.3-0.1 0.1-0.2 0.2 0.1-0.1 0.2-0.2-0.2 0.1-0.6 0.2 0 0-0.1 0-0.1 0-0.3 0 0 0-0.1 0.1-0.1 0-0.3 0-0.1 0-0.1 0-0.2 0-0.3 0.1-0.1 0-0.1 0-0.2 0-0.3 0-0.1 0-0.1 0.1-0.2 0-0.3 0-0.1 0-0.1 0-0.2 0.1-0.3 0.1-0.1 0-0.1 0-0.1 0.1-0.3 0.1 0 0.1 0 0.1-0.1 0-0.1 0-0.1 0.1-0.2 0.1-0.1 0.1-0.2 0.1c-0.4 0.3-0.4 0.5-0.1 1.3q0.1-0.2 0.3-0.3 0.1-0.1 0.1-0.1 0.1 0 0.1-0.1-0.3 0.3-0.5 0.5c-1 0.9-1.5 1.8-1.9 2.1q0 0-0.1 0 0 0.1-0.1 0.1 0 0 0 0 0 0 0 0 0 0-0.1 0.1 0 0-0.1 0 0 0.1-0.1 0.1 0 0 0 0.1-0.1 0-0.1 0 0 0-0.1 0.1 0 0 0 0-0.1 0.1-0.1 0.1 0 0 0 0.1-0.1 0-0.1 0 0 0 0 0.1 0 0 0 0 0 0 0 0.1-0.1 0 0 0.1 0 0 0 0 0 0 0 0 0 0.1 0.1 0.1 0 0 0 0 0 0 0.1 0 0 0 0 0 0.1 0 0.1-0.1 0.1 0 0.1 0 0.1 0 0.1 0 0 0 0.1 0 0.1-0.1 0.1-0.1 0.1 0 0.1 0 0.1-0.1 0.2-0.1 0 0 0.1-0.1 0 0 0.1 0 0 0 0 0 0 0 0.1-0.1c0.6-0.3 1.2-0.3 2.3-0.6q0.3 0.1 0.6 0.1 0 0 0.1 0 0.1 0 0.3 0 0.1-0.1 0.1-0.1 0.2 0 0.3-0.1 0-0.1 0.1-0.1 0.1-0.1 0.3-0.3 0-0.1 0.1-0.2 0.1-0.2 0.2-0.4 0 0 0 0c1.3-1 1.4-1.7 2-2.1 0.3-0.2 1.7-0.8 2-1.8-0.4 0.5-1.3 1.1-1.3 1.1 0 0 0.6-0.6 0.9-1.3-0.8 0.9-1.5 1-1.5 1 0 0 0.5-0.2 0.7-0.5 0.2-0.3 1.1-0.8 1.1-0.8zm-3.1 1.4q-0.1 0.1-0.2 0.1 0.1 0 0.2-0.1zm-0.3 0.2q0 0 0 0 0 0 0 0zm-0.7 0.2q0.1 0 0.3-0.1 0 0 0.1 0 0.1 0 0.3-0.1c-0.3 0.1-0.6 0.2-0.9 0.3q0 0 0.1 0 0-0.1 0.1-0.1zm-0.5 0.2q0 0 0 0 0 0 0 0 0 0 0 0zm-0.4 0.1q0 0.1 0 0.1 0 0 0 0 0 0 0-0.1zm-0.3 0.2q0.1 0 0.1-0.1-0.1 0.1-0.1 0.1 0 0 0 0zm-0.8 0.5q0 0 0.1-0.1 0.1-0.1 0.2-0.1 0.1-0.1 0.1-0.1h0.1q0.1-0.1 0.2-0.2 0 0 0 0-0.1 0.1-0.3 0.2-0.3 0.2-0.6 0.4 0.1 0 0.2-0.1zm0.6 2.5q-0.1 0-0.1 0 0.1 0 0.2-0.1 0 0 0 0.1-0.1 0-0.1 0zm0.4-0.2q-0.1 0.1-0.2 0.1 0.1-0.1 0.3-0.1 0 0 0 0-0.1 0-0.1 0zm0.5-0.3q0 0 0 0.1-0.1 0-0.2 0 0 0.1-0.1 0.1 0.2-0.1 0.3-0.2 0.2-0.1 0.3-0.2 0 0.1 0 0.1-0.2 0-0.3 0.1zm23.8-25.7c0 0 0.5-0.6 0.7-1.4-0.6 1.1-1.3 1.3-1.3 1.3 0 0 0.4-0.3 0.6-0.6 0.1-0.4 0.9-1.1 0.9-1.1 0 0-0.8 0.4-1.1 0.9-0.2 0.4-0.5 0.6-0.6 0.7 0.1-0.1 0.3-0.3 0.5-0.8 0.3-0.7 1-0.9 1-0.9 0 0-1.1 0-2 1.5q-0.1 0.2-0.2 0.3h-0.1q-0.1 0.2-0.2 0.3 0.1-0.1 0.2-0.3-0.2 0.1-0.5 0.3-0.1 0-0.1 0-0.2 0.1-0.3 0.1-0.1 0.1-0.1 0.1-0.2 0-0.3 0.1-0.1 0-0.1 0-0.2 0.1-0.3 0.1 0 0-0.1 0.1-0.1 0-0.3 0.1 0 0-0.1 0-0.1 0.1-0.2 0.1-0.1 0.1-0.2 0.1-0.1 0-0.2 0.1-0.1 0-0.1 0.1-0.1 0-0.2 0.1-0.1 0-0.1 0.1 0 0-0.1 0-0.1 0.1-0.2 0.2 0 0-0.1 0.1c-0.3 0.3-0.3 0.5 0.1 1.3q0.1-0.2 0.3-0.4 0-0.1 0.1-0.1 0 0 0-0.1-0.2 0.3-0.4 0.6c-0.7 1-1 2.1-1.4 2.4q0 0 0 0.1-0.1 0-0.1 0 0 0 0 0 0 0.1 0 0.1-0.1 0-0.1 0 0 0.1-0.1 0.1 0 0.1 0 0.1-0.1 0-0.1 0.1 0 0-0.1 0 0 0.1 0 0.1 0 0.1-0.1 0.1 0 0 0 0.1 0 0 0 0-0.1 0.1-0.1 0.1 0 0 0 0.1 0 0 0 0 0 0 0 0.1 0 0 0 0.1 0 0 0.1 0 0 0 0 0 0 0 0 0 0.1 0 0.1 0 0 0 0 0 0.1 0 0.1 0 0 0 0.1 0 0-0.1 0.1-0.1 0 0 0.1 0 0 0 0-0.1 0.1 0 0.1 0 0.1-0.1 0.1-0.1 0.1-0.1 0.2-0.1 0 0 0.1-0.1 0 0 0 0 0 0 0-0.1 0.1 0 0.1 0l0.1-0.1c0.4-0.4 1.1-0.5 2.1-1q0.3 0 0.5 0 0.1 0 0.2-0.1 0.1 0 0.3-0.1 0 0 0.1 0 0.1-0.1 0.2-0.2 0.1-0.1 0.1-0.2 0.1-0.1 0.2-0.3 0-0.1 0.1-0.2 0-0.2 0.1-0.4 0 0 0 0c1.1-1.2 1-2 1.6-2.5 0.2-0.3 1.4-1.2 1.5-2.2-0.2 0.6-1.1 1.3-1.1 1.3zm-2 0.4q0.1-0.1 0.2-0.2-0.1 0.1-0.2 0.2zm-0.1 0.1q0 0 0 0 0 0 0 0zm-0.8 0.4q0.1 0 0.2 0 0.1-0.1 0.2-0.2 0.1 0 0.2 0 0.1-0.1 0.2-0.2c-0.3 0.2-0.5 0.3-0.8 0.5q0 0 0-0.1zm-0.2 0.2q-0.1 0-0.1 0.1 0 0 0 0 0-0.1 0.1-0.1zm-0.4 0.3q0 0-0.1 0 0 0 0 0 0.1 0 0.1 0zm-0.3 0.2q0.1-0.1 0.1-0.1-0.1 0.1-0.1 0.1 0 0 0 0zm-0.7 0.7q0-0.1 0.1-0.2 0.1-0.1 0.2-0.2 0 0 0.1 0v-0.1q0.1-0.1 0.2-0.1 0 0 0 0-0.1 0.1-0.2 0.2-0.3 0.2-0.5 0.5 0-0.1 0.1-0.1zm1.1 2.3q0 0-0.1 0 0.1 0 0.2-0.1 0 0 0 0-0.1 0-0.1 0.1zm0.3-0.3q0 0.1-0.1 0.1 0.1-0.1 0.3-0.2 0 0-0.1 0 0 0.1-0.1 0.1zm0.7-0.6q-0.1 0.1-0.2 0.2 0 0 0 0.1-0.1 0-0.1 0-0.1 0.1-0.2 0.2 0.2-0.2 0.3-0.3 0.2-0.1 0.3-0.2 0 0-0.1 0zm-3.7 16.4q0 0 0 0 0 0.1-0.1 0.1 0 0 0 0 0 0.1 0 0.1-0.1 0-0.1 0.1 0 0-0.1 0 0 0.1 0 0.1 0 0.1-0.1 0.1 0 0 0 0.1 0 0-0.1 0.1 0 0 0 0 0 0.1 0 0.1-0.1 0-0.1 0.1 0 0 0 0 0 0.1 0 0.1 0 0 0 0.1 0 0 0 0 0 0.1 0 0.1 0 0 0.1 0 0 0 0 0 0 0.1 0 0.1 0.1 0 0.1-0.1 0 0 0 0 0.1 0 0.1 0 0 0 0.1 0 0 0 0-0.1 0.1 0 0.1 0 0.1-0.1 0.1-0.1 0.1 0 0.1-0.1 0.1 0 0.1 0 0.1-0.1 0.1-0.1 0.1-0.1 0.1-0.1 0-0.1 0.1-0.1 0 0 0 0 0 0 0.1-0.1c0.5-0.5 1.1-0.6 2-1.2q0.3 0 0.6-0.1 0.1 0 0.1 0 0.2-0.1 0.3-0.2 0.1 0 0.1 0 0.1-0.1 0.2-0.3 0.1 0 0.1-0.1 0.1-0.1 0.2-0.3 0-0.1 0-0.2 0.1-0.2 0.1-0.5 0 0 0 0c1-1.3 0.9-2 1.4-2.6 0.2-0.2 1.4-1.2 1.4-2.2-0.2 0.5-1 1.3-1 1.3 0 0 0.5-0.6 0.6-1.4-0.6 1.1-1.2 1.4-1.2 1.4 0 0 0.4-0.4 0.5-0.7 0.2-0.4 0.8-1.1 0.8-1.1 0 0-0.7 0.4-0.9 0.9-0.3 0.4-0.6 0.7-0.6 0.8 0-0.1 0.2-0.3 0.4-0.9 0.3-0.7 0.9-0.9 1-1-0.1 0.1-1.1 0.2-2 1.7q-0.1 0.2-0.2 0.4-0.1 0.1-0.2 0.2 0.1-0.1 0.2-0.2-0.2 0.1-0.5 0.3-0.1 0-0.1 0-0.1 0.1-0.3 0.1 0 0.1-0.1 0.1-0.1 0.1-0.3 0.1 0 0-0.1 0.1-0.1 0-0.2 0.1-0.1 0-0.2 0-0.1 0.1-0.2 0.2-0.1 0-0.1 0-0.1 0.1-0.3 0.1 0 0.1-0.1 0.1-0.1 0.1-0.2 0.1-0.1 0.1-0.1 0.1-0.1 0.1-0.2 0.2-0.1 0-0.1 0 0 0.1 0 0.1-0.2 0.1-0.2 0.2-0.1 0-0.1 0.1c-0.4 0.4-0.3 0.5 0.1 1.2q0.2-0.1 0.3-0.3 0-0.1 0.1-0.2 0 0 0 0-0.2 0.3-0.4 0.5c-0.6 1.2-0.8 2.2-1.2 2.6zm3-1.1q0 0.1 0 0.1 0.1-0.1 0.2-0.2-0.1 0-0.1 0.1 0 0-0.1 0zm0.4-0.2q-0.1 0-0.2 0.1 0.1-0.1 0.3-0.2 0 0 0 0-0.1 0-0.1 0.1zm0.4-0.5q0 0 0 0.1-0.1 0-0.1 0.1-0.1 0-0.2 0.1 0.2-0.2 0.3-0.3 0.1-0.1 0.2-0.3 0 0.1 0 0.1-0.1 0.1-0.2 0.2zm0.2-3.4q0 0 0.1-0.1-0.1 0.1-0.1 0.1zm0.1-0.1q0.1-0.1 0.2-0.2-0.1 0.1-0.2 0.2zm-0.7 0.5q0.2-0.1 0.3-0.2 0 0 0.1 0 0.1-0.1 0.2-0.2c-0.2 0.2-0.4 0.3-0.7 0.5q0 0 0 0 0.1-0.1 0.1-0.1zm-0.4 0.3q0 0 0 0 0 0 0 0 0 0 0 0zm-0.3 0.3q0 0-0.1 0 0 0 0 0 0.1 0 0.1 0zm-0.3 0.2q0.1-0.1 0.1-0.1-0.1 0.1-0.1 0.1 0 0 0 0zm-0.7 0.7q0.1-0.1 0.2-0.1 0-0.1 0.1-0.2 0.1-0.1 0.1-0.1 0.1-0.1 0.2-0.2 0 0 0 0-0.1 0.1-0.2 0.2-0.2 0.3-0.4 0.5 0 0 0-0.1zm-8.6-4.9c0 0-0.8 0.2-1.2 0.6-0.3 0.3-0.6 0.5-0.7 0.6 0-0.1 0.3-0.2 0.7-0.7 0.4-0.6 1.1-0.7 1.1-0.7 0 0-1-0.2-2.3 1.1q-0.1 0.1-0.3 0.2-0.1 0.2-0.2 0.3 0.1-0.1 0.2-0.3-0.2 0.1-0.6 0.2 0 0-0.1 0-0.1 0-0.3 0.1-0.1 0-0.1 0-0.2 0-0.3 0-0.1 0-0.2 0-0.1 0.1-0.2 0.1-0.1 0-0.2 0-0.1 0-0.2 0-0.1 0.1-0.2 0.1-0.1 0-0.2 0-0.1 0-0.2 0.1-0.1 0-0.2 0-0.1 0-0.1 0.1-0.2 0-0.3 0.1 0 0 0 0-0.1 0-0.1 0-0.2 0.1-0.3 0.2 0 0-0.1 0c-0.4 0.3-0.4 0.5-0.1 1.3q0.1-0.2 0.3-0.3 0 0 0.1-0.1 0 0 0.1 0-0.3 0.2-0.5 0.4c-1 0.9-1.5 1.9-1.9 2.1q0 0-0.1 0 0 0.1-0.1 0.1 0 0 0 0 0 0 0 0-0.1 0.1-0.1 0.1-0.1 0-0.1 0.1 0 0-0.1 0 0 0-0.1 0.1 0 0 0 0-0.1 0.1-0.1 0.1 0 0 0 0.1-0.1 0-0.1 0 0 0 0 0.1-0.1 0-0.1 0 0 0.1 0 0.1 0 0 0 0.1-0.1 0-0.1 0 0 0 0 0.1 0 0 0.1 0 0 0.1 0 0.1 0 0 0 0 0.1 0 0.1 0 0 0 0.1 0 0 0 0 0 0.1 0 0.1 0 0 0 0.1-0.1 0 0 0.1 0 0 0 0.1 0 0 0 0.1-0.1 0 0 0.1 0 0.1 0 0.1-0.1 0.1 0 0.2 0 0-0.1 0-0.1 0 0 0 0 0.1 0 0.2-0.1c0.6-0.3 1.2-0.2 2.3-0.6q0.3 0.1 0.5 0.1 0.1 0 0.2 0 0.1 0 0.3 0 0 0 0.1-0.1 0.1 0 0.3-0.1 0 0 0.1-0.1 0.1-0.1 0.2-0.3 0.1-0.1 0.1-0.1 0.2-0.2 0.2-0.5 0 0 0 0c1.4-0.9 1.5-1.7 2.1-2.1 0.3-0.2 1.7-0.8 1.9-1.8-0.3 0.5-1.2 1.1-1.2 1.1 0 0 0.6-0.5 0.9-1.3-0.8 0.9-1.5 1-1.5 1 0 0 0.4-0.2 0.7-0.5 0.2-0.3 1-0.8 1-0.8zm-3 1.4q-0.1 0.1-0.2 0.1 0.1 0 0.2-0.1zm-0.3 0.2q0 0 0 0 0 0 0 0zm-0.7 0.2q0.1 0 0.2 0 0.1-0.1 0.2-0.1 0.1 0 0.2-0.1c-0.2 0.1-0.5 0.2-0.8 0.3q0 0 0 0 0.1 0 0.2-0.1zm-0.5 0.2q0 0-0.1 0 0 0 0 0 0.1 0 0.1 0zm-0.4 0.2q0 0-0.1 0 0 0 0.1 0 0 0 0 0zm-0.3 0.1q0 0 0.1 0-0.1 0-0.2 0 0.1 0 0.1 0zm-0.9 0.5q0.1 0 0.2-0.1 0.1 0 0.2-0.1 0.1 0 0.1-0.1 0.2-0.1 0.3-0.1 0 0 0 0-0.2 0-0.3 0.1-0.3 0.2-0.6 0.4 0.1 0 0.1-0.1zm0.6 2.5q0 0 0 0 0.1 0 0.2 0 0 0 0 0-0.1 0-0.2 0zm0.4-0.2q0 0.1-0.1 0.1 0.1 0 0.3-0.1 0 0 0 0-0.1 0-0.2 0zm0.6-0.3q0 0.1-0.1 0.1 0 0-0.1 0-0.1 0.1-0.1 0.1 0.1-0.1 0.3-0.2 0.2-0.1 0.3-0.1 0 0-0.1 0-0.1 0.1-0.2 0.1zm-5-2.4c-0.1 0-0.8-0.2-1.8 0.8q-0.1 0.1-0.2 0.2-0.1 0.1-0.2 0.1 0.1 0 0.2-0.1-0.2 0-0.5 0.1 0 0-0.1 0-0.1 0-0.2 0 0 0.1-0.1 0.1-0.1 0-0.2 0 0 0-0.1 0-0.1 0-0.2 0 0 0-0.1 0.1-0.1 0-0.2 0-0.1 0-0.1 0-0.1 0-0.2 0-0.1 0.1-0.1 0.1-0.1 0-0.2 0 0 0-0.1 0.1-0.1 0-0.2 0 0 0 0 0.1-0.1 0-0.1 0-0.1 0-0.2 0.1 0 0-0.1 0c-0.3 0.2-0.3 0.4-0.1 1q0.1-0.1 0.3-0.2 0-0.1 0.1-0.1 0 0 0 0-0.2 0.1-0.4 0.3c-0.7 0.7-1.1 1.4-1.4 1.6q0 0-0.1 0 0 0 0 0.1 0 0 0 0 0 0-0.1 0 0 0 0 0-0.1 0.1-0.1 0.1 0 0-0.1 0 0 0.1 0 0.1 0 0-0.1 0 0 0 0 0.1 0 0-0.1 0 0 0 0 0.1 0 0 0 0-0.1 0-0.1 0 0 0.1 0 0.1 0 0 0 0 0 0 0 0.1 0 0 0 0 0 0.1 0 0.1 0 0 0 0 0 0 0.1 0 0 0 0 0 0 0 0 0 0.1 0 0.1 0 0 0 0.1 0 0 0 0 0 0.1 0 0.1 0 0-0.1 0.1-0.1 0 0 0.1 0 0 0 0 0 0.1-0.1 0.1-0.1 0.1 0 0.1 0 0.1 0 0.1-0.1 0 0 0 0 0 0 0.1 0c0.4-0.3 0.9-0.2 1.7-0.5q0.3 0.1 0.5 0.1 0 0 0.1 0 0.1 0 0.2 0 0-0.1 0.1-0.1 0.1 0 0.2-0.1 0 0 0.1-0.1 0.1-0.1 0.2-0.2 0 0 0-0.1 0.1-0.1 0.2-0.3 0 0 0 0c1-0.8 1.1-1.3 1.6-1.6 0.2-0.2 1.2-0.7 1.4-1.4-0.2 0.4-0.9 0.8-0.9 0.8 0 0 0.4-0.4 0.7-0.9-0.7 0.6-1.2 0.7-1.2 0.7 0 0 0.4-0.1 0.5-0.4 0.2-0.2 0.9-0.6 0.9-0.6 0 0-0.7 0.2-0.9 0.5-0.3 0.2-0.6 0.4-0.6 0.4 0 0 0.2-0.1 0.5-0.5 0.3-0.4 0.8-0.5 0.9-0.5zm-2.2 1.2q-0.1 0-0.2 0.1 0.1-0.1 0.2-0.1zm-0.3 0.1q0 0 0 0 0 0 0 0zm-0.5 0.2q0.1 0 0.2 0 0-0.1 0.1-0.1 0.1 0 0.2-0.1c-0.2 0.1-0.4 0.2-0.7 0.3q0.1-0.1 0.1-0.1 0 0 0.1 0zm-0.4 0.1q0 0 0 0 0 0 0 0 0 0 0 0zm-0.3 0.2q0 0 0 0 0 0 0 0 0 0 0 0zm-0.2 0.1q0-0.1 0-0.1 0 0.1-0.1 0.1 0.1 0 0.1 0zm-0.7 0.4q0.1-0.1 0.1-0.1 0.1-0.1 0.2-0.1 0 0 0.1-0.1 0.1 0 0.2-0.1 0 0 0 0-0.1 0.1-0.2 0.1-0.3 0.2-0.5 0.3 0.1 0 0.1 0zm0.5 1.9q0 0 0 0 0-0.1 0.1-0.1 0 0 0 0-0.1 0-0.1 0.1zm0.3-0.2q-0.1 0-0.1 0.1 0.1-0.1 0.2-0.1 0 0 0 0-0.1 0-0.1 0zm0.4-0.2q0 0 0 0-0.1 0-0.1 0.1-0.1 0-0.1 0 0.1 0 0.2-0.1 0.1-0.1 0.2-0.2 0 0.1 0 0.1-0.1 0-0.2 0.1zm17.7-14.1c0 0-0.6 0.2-0.9 0.5-0.3 0.2-0.6 0.4-0.6 0.4 0 0 0.2-0.2 0.5-0.5 0.3-0.5 0.9-0.5 0.9-0.5-0.1-0.1-0.8-0.2-1.8 0.7q-0.1 0.2-0.2 0.3-0.1 0.1-0.2 0.1 0.1 0 0.2-0.1-0.2 0-0.4 0.1-0.1 0-0.2 0-0.1 0-0.2 0 0 0-0.1 0-0.1 0.1-0.2 0.1 0 0-0.1 0-0.1 0-0.2 0 0 0-0.1 0-0.1 0.1-0.2 0.1 0 0-0.1 0-0.1 0-0.2 0 0 0-0.1 0.1-0.1 0-0.2 0 0 0-0.1 0-0.1 0.1-0.2 0.1 0 0 0 0-0.1 0.1-0.1 0.1-0.1 0-0.2 0.1 0 0-0.1 0c-0.3 0.2-0.3 0.3-0.1 1q0.1-0.1 0.3-0.2 0-0.1 0.1-0.1 0 0 0-0.1-0.2 0.2-0.4 0.4c-0.7 0.7-1.1 1.4-1.4 1.6q0 0 0 0-0.1 0-0.1 0 0 0 0 0 0 0.1-0.1 0.1 0 0 0 0-0.1 0-0.1 0.1 0 0 0 0-0.1 0-0.1 0.1 0 0-0.1 0 0 0 0 0.1 0 0-0.1 0 0 0 0 0 0 0.1 0 0.1 0 0-0.1 0 0 0 0 0.1 0 0 0 0 0 0 0 0 0 0.1 0 0.1 0 0 0 0.1 0 0 0 0 0 0 0.1 0 0 0 0 0 0 0 0.1 0 0 0 0 0 0 0 0.1 0 0 0 0 0 0.1 0 0.1-0.1 0 0 0.1 0 0 0 0.1 0 0 0 0-0.1 0.1 0 0.1 0 0.1 0 0.1-0.1 0.1 0 0.1 0 0 0 0 0 0 0 0.1 0v-0.1c0.4-0.2 0.9-0.2 1.7-0.4q0.3 0.1 0.5 0.1 0 0 0.1 0 0.1 0 0.2-0.1 0 0 0.1 0 0.1 0 0.2-0.1 0 0 0.1-0.1 0.1-0.1 0.2-0.2 0-0.1 0.1-0.1 0-0.2 0.1-0.3 0 0 0 0c1-0.8 1.1-1.4 1.6-1.7 0.2-0.1 1.2-0.6 1.5-1.3-0.3 0.4-1 0.8-1 0.8 0 0 0.4-0.4 0.7-1-0.7 0.7-1.2 0.8-1.2 0.8 0 0 0.4-0.1 0.6-0.4 0.1-0.2 0.8-0.6 0.8-0.6zm-2.3 1.1q-0.1 0-0.2 0.1 0.1-0.1 0.2-0.1zm-0.3 0.1q0 0 0 0 0 0 0 0zm-0.5 0.2q0.1 0 0.2-0.1 0.1 0 0.1 0 0.1 0 0.2-0.1c-0.2 0.1-0.4 0.2-0.7 0.2q0.1 0 0.1 0 0 0 0.1 0zm-0.4 0.1q0 0 0 0 0 0 0 0 0 0 0 0zm-0.3 0.1q0 0 0 0.1 0 0 0-0.1 0 0 0 0zm-0.2 0.1q0 0 0 0 0 0-0.1 0.1 0.1 0 0.1-0.1zm-0.7 0.4q0.1 0 0.1 0 0.1-0.1 0.2-0.1 0.1-0.1 0.1-0.1 0.1-0.1 0.2-0.1 0 0 0 0-0.1 0-0.2 0.1-0.2 0.2-0.5 0.3 0.1 0 0.1-0.1zm0.5 1.9q0 0 0 0.1 0-0.1 0.1-0.1 0 0 0 0-0.1 0-0.1 0zm0.3-0.1q-0.1 0-0.1 0.1 0.1-0.1 0.2-0.2 0 0.1 0 0.1-0.1 0-0.1 0zm0.4-0.2q0 0 0 0-0.1 0-0.1 0-0.1 0.1-0.1 0.1 0.1-0.1 0.2-0.1 0.1-0.1 0.3-0.2-0.1 0-0.1 0.1-0.1 0-0.2 0.1zm23.1-1.9c0.4-0.2 1.6-0.4 1.6-0.4 0 0-1-0.1-1.7 0.1-0.5 0.2-1 0.3-1.2 0.3 0.2-0.1 0.5-0.1 1.2-0.5 0.8-0.4 1.6-0.1 1.7-0.1 0-0.1-1.1-0.8-3.2 0q-0.2 0.1-0.5 0.1-0.2 0.1-0.4 0.1 0.2 0 0.4-0.1-0.3 0-0.7-0.1-0.1-0.1-0.2-0.1-0.2 0-0.3-0.1-0.1 0-0.2 0-0.2-0.1-0.3-0.1-0.1-0.1-0.2-0.1-0.2 0-0.3-0.1-0.1 0-0.2 0-0.2-0.1-0.3-0.1-0.1 0-0.2-0.1-0.2 0-0.3 0-0.1-0.1-0.2-0.1-0.2 0-0.3 0-0.1 0-0.2 0-0.2-0.1-0.3-0.1-0.1 0-0.1 0-0.1 0-0.1 0-0.2 0.1-0.4 0.1-0.1 0-0.2 0c-0.6 0.1-0.6 0.3-0.8 1.3-1.6 0.5-2.7 1.4-3.2 1.4q-0.1 0-0.2 0.1 0 0-0.1 0 0 0 0 0 0 0-0.1 0 0 0-0.1 0-0.1 0-0.1 0-0.1 0-0.1 0-0.1 0.1-0.2 0.1 0 0-0.1 0 0 0-0.1 0 0 0.1-0.1 0.1 0 0-0.1 0 0 0-0.1 0.1 0 0 0 0-0.1 0-0.1 0 0 0.1-0.1 0.1 0 0 0 0 0 0.1-0.1 0.1 0 0.1 0 0.1 0.1 0.1 0.1 0.1 0 0 0 0 0 0 0.1 0 0 0.1 0 0.1 0.1 0 0.1 0 0.1 0 0.1 0 0.1 0.1 0.1 0.1 0.1 0 0.2 0 0 0 0.1 0 0.1 0 0.1 0 0.1 0 0.2 0 0.1 0 0.2 0 0 0 0.1 0 0.1 0 0.1 0 0.1 0 0.1 0 0 0 0.1 0h0.1c0.8-0.1 1.5 0.3 2.9 0.5q0.2 0 0.4 0-0.2 0-0.4 0 0.3 0.3 0.6 0.4 0.1 0 0.1 0.1 0.2 0.1 0.4 0.1 0.1 0 0.2 0 0.2 0 0.4 0 0 0 0.1-0.1 0.3 0 0.5-0.2 0.1 0 0.2-0.1 0.2-0.1 0.4-0.4 0 0 0 0c2-0.4 2.6-1.2 3.6-1.3 0.3 0 2.2 0 3.1-1-0.7 0.4-2 0.5-2 0.5 0 0 0.9-0.2 1.7-0.9-1.5 0.6-2.3 0.3-2.3 0.3 0 0 0.7 0.1 1.1-0.2zm-2.6-0.4q-0.1 0.1-0.3 0.1 0.2 0 0.3-0.1zm-0.5 0.1q0.1 0 0.1 0 0 0-0.1 0zm-0.9-0.1q0.2 0 0.4 0.1 0.1 0 0.2 0 0.1 0 0.3 0c-0.4 0-0.7-0.1-1.1-0.1q0 0 0 0 0.1 0 0.2 0zm-0.6-0.1q0 0-0.1 0 0 0 0 0 0.1 0 0.1 0zm-0.6 0q0 0 0 0 0 0 0 0 0 0 0 0zm-0.3 0q-0.1 0-0.2 0 0.1 0 0.2 0 0 0 0 0zm-0.6 0q0.2 0 0.4 0 0 0 0 0-0.2 0-0.4 0-0.3 0.1-0.5 0.1 0.2 0 0.3 0 0.1-0.1 0.2-0.1zm-0.5 0.1q0 0 0 0-0.2 0-0.3 0.1 0 0 0.1-0.1 0.1 0 0.2 0zm-0.8 0.2q0.1-0.1 0.2-0.1 0.1 0 0.1 0-0.2 0-0.3 0.1 0 0 0 0zm-0.1 3q0 0-0.1 0 0.2 0 0.3 0 0 0 0 0-0.1 0-0.2 0zm0.6 0q-0.1 0-0.2 0 0.2 0 0.4 0 0 0 0 0-0.1 0-0.2 0zm0.8 0q-0.1 0-0.1 0-0.1 0-0.2 0-0.1 0-0.2 0 0.2 0 0.5 0 0.2-0.1 0.4-0.1 0 0-0.1 0-0.1 0-0.3 0.1zm6.9-8.9c0.3-0.2 1.3-0.3 1.3-0.3 0 0-0.8-0.1-1.3 0-0.4 0.2-0.8 0.2-0.9 0.2 0.1 0 0.3 0 0.9-0.3 0.6-0.3 1.2-0.1 1.3-0.1-0.1 0-0.9-0.6-2.5 0q-0.2 0-0.4 0.1-0.1 0-0.3 0.1 0.2-0.1 0.3-0.1-0.2 0-0.5-0.1-0.1 0-0.2-0.1-0.1 0-0.2 0-0.1-0.1-0.1-0.1-0.2 0-0.3-0.1-0.1 0-0.1 0-0.2 0-0.3-0.1 0 0-0.1 0-0.1 0-0.2-0.1-0.1 0-0.2 0-0.1 0-0.2-0.1-0.1 0-0.2 0-0.1 0-0.2 0-0.1 0-0.1 0-0.2-0.1-0.3-0.1 0 0-0.1 0 0 0 0 0-0.2 0.1-0.3 0.1-0.1 0-0.1 0c-0.5 0-0.5 0.2-0.7 1q0.2-0.1 0.4-0.1 0.1 0 0.2-0.1 0 0 0 0-0.3 0.1-0.6 0.2c-1.2 0.4-2 1-2.4 1.1q-0.1 0-0.1 0-0.1 0-0.1 0 0 0 0 0-0.1 0-0.1 0 0 0-0.1 0 0 0-0.1 0 0 0-0.1 0.1 0 0-0.1 0 0 0 0 0-0.1 0-0.1 0-0.1 0-0.1 0.1 0 0-0.1 0 0 0 0 0-0.1 0-0.1 0.1 0 0 0 0-0.1 0-0.1 0 0 0 0 0 0 0.1-0.1 0.1 0 0.1 0 0.1 0.1 0 0.1 0 0 0 0 0.1 0 0 0 0 0.1 0 0.1 0 0 0 0 0 0.1 0 0.1 0.1 0.1 0 0.1 0 0 0 0.1 0 0 0 0.1 0 0.1 0 0.1 0 0.1 0 0.1 0 0.1 0 0.2 0 0 0 0.1 0 0 0 0.1 0 0 0 0 0 0.1 0 0.1 0h0.1c0.6-0.1 1.1 0.2 2.2 0.4q0.2 0.2 0.4 0.3 0.1 0 0.1 0 0.2 0.1 0.3 0.1 0.1 0 0.1 0 0.2 0 0.3 0 0.1 0 0.2 0 0.1-0.1 0.3-0.2 0.1 0 0.1-0.1 0.2-0.1 0.4-0.3 0 0 0 0c1.5-0.2 1.9-0.9 2.7-1 0.3 0 1.7 0 2.3-0.7-0.4 0.3-1.5 0.4-1.5 0.4 0 0 0.7-0.2 1.3-0.7-1.1 0.4-1.7 0.2-1.7 0.2 0 0 0.5 0 0.8-0.1zm-1.9-0.3q-0.1 0-0.3 0 0.2 0 0.3 0zm-0.4 0q0 0 0.1 0-0.1 0-0.1 0zm-0.7-0.1q0.1 0.1 0.3 0.1 0 0 0.1 0 0.1 0 0.3 0c-0.3 0-0.6 0-0.9-0.1q0 0 0.1 0 0 0 0.1 0zm-0.5 0q0 0 0 0 0 0 0 0 0 0 0 0zm-0.4 0q0 0 0 0 0 0 0 0 0 0 0 0zm-0.2 0q-0.1 0-0.2 0 0.1 0 0.1 0 0 0 0.1 0zm-1.1 0.1q0.1 0 0.2 0 0.1-0.1 0.3-0.1 0 0 0.1 0 0.1 0 0.3 0 0 0 0 0-0.2 0-0.3 0-0.4 0-0.7 0.1 0.1 0 0.1 0zm-0.4 2.4q-0.1 0-0.1 0 0.1 0 0.2 0 0 0 0 0-0.1 0-0.1 0zm0.4 0q-0.1 0-0.2 0 0.2 0 0.3 0 0 0 0 0-0.1 0-0.1 0zm0.6 0q0 0-0.1 0 0 0-0.1 0-0.1 0-0.2 0 0.2 0 0.4 0 0.2-0.1 0.3-0.1 0 0-0.1 0-0.1 0-0.2 0.1zm21.9 1.1c-0.5 0.5-1.8 0.8-1.8 0.8 0 0 0.9-0.4 1.4-1.2-1.2 0.8-2 0.8-2 0.8 0 0 0.6-0.1 1-0.4 0.3-0.3 1.4-0.7 1.4-0.7 0 0-1 0-1.5 0.4-0.5 0.3-1 0.4-1.1 0.4 0.1 0 0.4-0.1 1-0.6 0.7-0.5 1.5-0.4 1.6-0.4-0.1-0.1-1.2-0.6-3 0.5q-0.3 0.2-0.5 0.3-0.2 0.1-0.3 0.1 0.1 0 0.3-0.1-0.3 0-0.7 0-0.1-0.1-0.2-0.1-0.1 0-0.3 0-0.1 0-0.2 0-0.1 0-0.3 0-0.1-0.1-0.2-0.1-0.1 0-0.3 0-0.1 0-0.2 0-0.1 0-0.3 0-0.1 0-0.2 0-0.1 0-0.3-0.1-0.1 0-0.1 0-0.2 0-0.3 0.1-0.1 0-0.2 0-0.2 0-0.3 0-0.1 0-0.1 0-0.1 0-0.1 0-0.2 0.1-0.3 0.1-0.1 0.1-0.2 0.1c-0.6 0.2-0.6 0.4-0.6 1.4q0.3-0.1 0.5-0.2 0.1-0.1 0.2-0.1 0-0.1 0.1-0.1-0.4 0.2-0.8 0.4c-1.3 0.8-2.2 1.7-2.7 1.9q-0.1 0-0.1 0-0.1 0.1-0.2 0.1 0 0 0 0 0 0 0 0-0.1 0-0.1 0-0.1 0.1-0.2 0.1 0 0-0.1 0 0 0.1-0.1 0.1 0 0-0.1 0 0 0.1-0.1 0.1 0 0-0.1 0 0 0.1-0.1 0.1 0 0 0 0-0.1 0.1-0.1 0.1 0 0 0 0-0.1 0.1-0.1 0.1 0 0 0 0.1 0 0 0 0.1 0 0 0 0 0 0.1 0 0.1 0 0 0.1 0 0 0 0 0 0 0 0.1 0.1 0 0 0.1 0 0 0 0.1 0 0 0 0.1 0 0 0 0.1 0 0 0 0.1 0 0.1-0.1 0.2-0.1 0 0 0.1 0 0.1 0 0.2 0 0 0 0.1-0.1 0.1 0 0.1 0 0 0 0 0 0.1 0 0.2 0c0.8-0.3 1.5 0 2.9-0.1q0.3 0.2 0.6 0.3 0.1 0 0.2 0 0.1 0.1 0.3 0.1 0.1 0 0.2 0 0.2-0.1 0.3-0.1 0.1-0.1 0.2-0.1 0.2-0.1 0.4-0.3 0.1 0 0.1-0.1 0.2-0.2 0.4-0.5 0 0 0 0c1.8-0.7 2.2-1.6 3.1-1.8 0.3-0.1 2.1-0.5 2.7-1.5zm-3.9 0.1q-0.1 0-0.3 0.1 0.2-0.1 0.3-0.1zm-0.4 0.1q0 0-0.1 0 0.1 0 0.1 0zm-0.9 0.1q0.2 0 0.3 0 0.1 0 0.2 0 0.1-0.1 0.3-0.1c-0.4 0.1-0.7 0.1-1.1 0.1q0.1 0 0.1 0 0.1 0 0.2 0zm-0.6 0q-0.1 0-0.1 0 0 0 0 0 0 0 0.1 0zm-0.6 0.1q0 0 0 0 0 0 0 0 0 0 0 0zm-0.3 0.1q0 0 0.1 0-0.1 0-0.2 0 0 0 0.1 0zm-1.2 0.3q0.1 0 0.2 0 0.1-0.1 0.3-0.1 0.1-0.1 0.1-0.1h0.1q0.1 0 0.3-0.1 0 0 0 0-0.2 0.1-0.4 0.1-0.4 0.1-0.8 0.3 0.1 0 0.2-0.1zm0 3.1q0 0-0.1 0 0.1 0 0.3 0 0 0-0.1 0 0 0-0.1 0zm0.5-0.1q-0.1 0-0.2 0.1 0.2-0.1 0.4-0.1 0 0 0 0-0.1 0-0.2 0zm0.7-0.2q0 0 0 0.1-0.1 0-0.2 0-0.1 0-0.2 0 0.2 0 0.4-0.1 0.3 0 0.4-0.1 0 0 0 0-0.2 0.1-0.4 0.1zm-5.8-6.3q0 0 0 0-0.1 0.1-0.1 0.1-0.2 0-0.3 0 0.1 0.1 0.3 0.2 0 0 0.1 0 0.1 0 0.2 0 0 0 0 0 0.1 0 0.2-0.1 0.1 0 0.1 0 0.1-0.1 0.2-0.1 0-0.1 0.1-0.1 0.1-0.1 0.2-0.2-0.1 0-0.2 0-0.1 0.1-0.1 0.1-0.1 0-0.2 0 0 0 0 0-0.1 0-0.1 0-0.1 0.1-0.2 0.1 0 0 0 0-0.1 0-0.2 0 0.3 0 0.5-0.1 0.3-0.1 0.5-0.1 0 0 0 0c0.9-0.4 1-0.8 1.5-1 0.2 0 1.1-0.2 1.4-0.7-0.3 0.2-0.9 0.4-0.9 0.4 0 0 0.4-0.2 0.7-0.6-0.6 0.4-1 0.4-1 0.4 0 0 0.3-0.1 0.4-0.2 0.2-0.2 0.8-0.4 0.8-0.4 0 0-0.5 0.1-0.8 0.2-0.2 0.2-0.5 0.2-0.5 0.3 0-0.1 0.2-0.1 0.5-0.3 0.3-0.3 0.7-0.3 0.8-0.3-0.1 0-0.6-0.2-1.5 0.3q-0.2 0.1-0.3 0.1-0.1 0-0.3 0-0.1 0-0.1 0-0.1 0-0.2 0 0 0-0.1 0-0.1 0-0.1 0-0.1 0-0.1 0-0.1 0-0.2-0.1 0 0-0.1 0-0.1 0-0.1 0-0.1 0-0.1 0-0.1 0-0.2 0 0 0-0.1 0 0 0-0.1 0-0.1 0-0.1 0-0.1 0-0.2 0 0 0.1 0 0.1 0 0-0.1 0 0 0-0.1 0-0.1 0-0.1 0c-0.3 0.1-0.3 0.2-0.3 0.7q0.1 0 0.3-0.1 0 0 0 0 0.1 0 0.1 0-0.2 0-0.4 0.1c-0.7 0.4-1.1 0.9-1.4 1q0 0 0 0-0.1 0-0.1 0 0 0 0 0 0 0 0 0-0.1 0.1-0.2 0.1 0 0 0 0-0.1 0.1-0.2 0.1 0 0 0 0-0.1 0.1-0.1 0.1 0 0 0 0-0.1 0.1-0.1 0.1 0 0.1 0 0.1 0 0 0 0 0.1 0 0.1 0 0 0 0 0 0 0 0 0 0.1 0 0.1 0 0 0 0 0 0.1 0 0.1 0 0 0 0 0 0.1 0 0.1 0 0 0 0.1 0 0 0 0 0 0.1 0 0.1 0 0.1 0 0.1 0 0 0 0.1 0 0 0 0 0 0-0.1 0.1-0.1c0.3-0.1 0.7 0 1.4 0q0.2 0 0.4-0.1zm1.8-1.9q0.1 0 0.1 0 0 0-0.1 0zm-0.1 0.1q0 0 0 0 0 0 0 0zm-0.2 0q0 0 0 0 0 0-0.1 0 0.1 0 0.1 0zm-0.3 0q0.1 0 0.2 0-0.1 0-0.3 0 0 0 0.1 0 0 0 0 0zm-0.2 0q0.1 0 0.1 0-0.1 0-0.2 0.1 0 0 0 0 0.1-0.1 0.1-0.1zm-0.3 0.1q0.1 0 0.2 0-0.2 0-0.3 0 0 0 0.1 0 0 0 0 0zm-0.8 0.2q0.1 0 0.1 0 0.1-0.1 0.2-0.1 0 0 0 0 0.1 0 0.2 0 0.1-0.1 0.1-0.1 0 0 0.1 0-0.2 0-0.4 0.1-0.2 0.1-0.4 0.1 0.1 0 0.1 0zm13.2-6c0 0-0.6-0.3-1.5 0.3q-0.1 0-0.2 0.1-0.1 0-0.4 0 0 0 0 0-0.1 0-0.2 0 0 0-0.1-0.1-0.1 0-0.2 0 0 0-0.1 0 0 0-0.1 0-0.1 0-0.1 0-0.1 0-0.2 0 0 0 0 0-0.1 0-0.2 0 0 0-0.1 0-0.1 0-0.1 0-0.1 0-0.1 0-0.1 0-0.2 0 0 0 0 0 0 0-0.1 0-0.1 0-0.1 0.1-0.1 0-0.1 0c-0.3 0.1-0.3 0.2-0.3 0.7q0.1-0.1 0.2-0.1 0.1 0 0.1-0.1 0 0 0.1 0-0.2 0.1-0.4 0.2c-0.7 0.4-1.1 0.9-1.4 1q0 0 0 0-0.1 0-0.1 0 0 0 0 0 0 0 0 0-0.1 0-0.2 0.1 0 0 0 0-0.1 0-0.2 0.1 0 0 0 0-0.1 0-0.1 0.1 0 0 0 0-0.1 0-0.1 0.1 0 0 0 0 0 0 0 0 0 0.1 0.1 0.1 0 0 0 0 0 0 0 0 0 0 0.1 0 0 0 0 0 0 0 0.1 0 0 0 0 0 0.1 0 0.1 0 0 0 0.1 0 0 0 0 0 0.1 0 0.1-0.1 0.1 0 0.1 0 0 0 0 0 0 0 0 0 0.1 0 0.1 0h0.1c0.3-0.1 0.7 0 1.4 0q0.2-0.1 0.4-0.1 0 0 0 0-0.1 0-0.1 0-0.2 0-0.3 0.1 0.1 0.1 0.3 0.1 0 0 0.1 0 0.1 0 0.1 0 0.1 0 0.1 0 0.1 0 0.2 0 0 0 0.1 0 0.1-0.1 0.2-0.2 0 0 0.1 0 0.1-0.1 0.1-0.3 0 0.1-0.2 0.1 0 0 0 0-0.1 0-0.2 0.1 0 0 0 0-0.1 0-0.1 0-0.1 0-0.2 0.1 0 0-0.1 0 0 0-0.1 0 0.2 0 0.5-0.1 0.3-0.1 0.4-0.2 0 0 0 0c1-0.3 1.1-0.8 1.6-0.9 0.2-0.1 1.1-0.2 1.4-0.8-0.3 0.3-1 0.5-1 0.5 0 0 0.5-0.3 0.8-0.6-0.6 0.4-1.1 0.3-1.1 0.3 0 0 0.3 0 0.5-0.2 0.2-0.1 0.8-0.3 0.8-0.3 0 0-0.5 0-0.8 0.2-0.3 0.1-0.5 0.2-0.6 0.2 0.1 0 0.3-0.1 0.5-0.3 0.4-0.3 0.8-0.2 0.8-0.2zm-2 0.5q0.1 0 0.1 0 0 0-0.1 0zm-0.1 0q0 0.1 0 0.1 0 0 0-0.1zm-0.2 0.1q0 0 0 0 0 0-0.1 0 0.1 0 0.1 0zm-0.3 0q0.1 0 0.2 0-0.2 0-0.3 0 0 0 0 0 0.1 0 0.1 0zm-0.2 0q0 0 0.1 0-0.1 0-0.2 0 0 0 0 0 0 0 0.1 0zm-0.3 0q0.1 0 0.1 0-0.1 0-0.2 0.1 0 0 0 0 0.1-0.1 0.1-0.1zm-0.8 0.3q0 0 0.1-0.1 0.1 0 0.1 0 0.1 0 0.1 0 0.1-0.1 0.2-0.1 0 0 0.1 0 0 0 0 0-0.1 0-0.3 0.1-0.2 0-0.4 0.1 0 0 0.1 0zm7.4-0.9q0 0 0 0-0.1 0-0.1 0.1 0 0 0 0 0 0 0 0-0.1 0-0.2 0.1 0 0 0 0-0.1 0.1-0.1 0.2 0 0 0 0-0.1 0-0.1 0.1 0 0 0 0-0.1 0.1 0 0.1 0 0.1 0 0.1 0 0 0 0 0.1 0 0.2 0 0 0 0 0 0.1-0.1 0.2-0.1 0 0 0 0 0.1-0.1 0.3-0.2 0 0 0 0 0 0 0 0 0 0 0 0h0.1c0.3-0.2 0.7-0.2 1.3-0.4q0.2-0.1 0.4-0.2 0 0 0 0-0.1 0-0.1 0-0.1 0.1-0.3 0.2 0.2 0 0.4 0 0 0 0 0 0.1 0 0.2 0 0.1 0 0.1-0.1 0.1 0 0.2-0.1 0 0 0 0 0.1-0.1 0.2-0.2 0 0 0-0.1 0.1-0.1 0.1-0.3 0 0.1-0.1 0.2-0.1 0-0.1 0-0.1 0.1-0.1 0.1 0 0-0.1 0 0 0.1 0 0.1-0.1 0-0.2 0.1 0 0-0.1 0 0 0-0.1 0.1 0.2-0.1 0.5-0.3 0.2-0.1 0.3-0.3 0.1 0 0.1 0c0.7-0.6 0.8-1 1.2-1.3 0.1-0.1 0.9-0.5 1.1-1.1-0.2 0.3-0.8 0.7-0.8 0.7 0 0 0.4-0.3 0.6-0.8-0.5 0.6-0.9 0.7-0.9 0.7 0 0 0.2-0.2 0.4-0.4 0.1-0.2 0.6-0.5 0.6-0.5 0 0-0.5 0.2-0.7 0.4-0.2 0.2-0.4 0.3-0.5 0.4 0.1-0.1 0.2-0.2 0.4-0.5 0.3-0.3 0.7-0.4 0.7-0.4 0 0-0.6-0.1-1.3 0.7q-0.1 0.1-0.2 0.2-0.2 0-0.4 0 0 0.1-0.1 0.1 0 0-0.1 0-0.1 0-0.1 0-0.1 0-0.2 0 0 0.1-0.1 0.1 0 0-0.1 0-0.1 0-0.1 0-0.1 0-0.1 0-0.1 0-0.1 0.1-0.1 0-0.2 0 0 0-0.1 0 0 0-0.1 0.1-0.1 0-0.1 0-0.1 0-0.1 0.1-0.1 0-0.1 0 0 0 0 0-0.1 0-0.2 0.1 0 0 0 0c-0.3 0.2-0.3 0.3-0.1 0.8q0.1-0.1 0.2-0.2 0 0 0.1-0.1 0 0 0 0-0.2 0.2-0.3 0.3c-0.6 0.6-0.8 1.1-1.1 1.3zm3.1-2.5q0 0 0 0 0 0 0 0zm0.1-0.1q0.1 0 0.1 0 0 0-0.1 0zm-0.3 0.2q0 0 0.1 0-0.1 0-0.1 0 0 0 0 0zm-0.2 0.1q0.1 0 0.1 0-0.1 0-0.2 0 0 0 0 0 0.1 0 0.1 0zm-0.2 0.1q0 0 0.1-0.1-0.1 0.1-0.2 0.1 0 0 0 0 0 0 0.1 0zm-0.3 0.1q0.1 0 0.1-0.1-0.1 0.1-0.2 0.1 0 0 0 0 0.1 0 0.1 0zm-0.7 0.4q0 0 0.1 0 0-0.1 0.1-0.1 0 0 0.1-0.1 0.1 0 0.1-0.1 0.1 0 0.1 0 0 0 0.1 0-0.2 0-0.3 0.1-0.2 0.2-0.4 0.3 0 0 0.1-0.1zm-10 8.1c0-0.1-0.6-0.3-1.5 0.2q-0.1 0.1-0.2 0.2-0.2 0-0.4 0 0-0.1-0.1-0.1 0 0-0.1 0-0.1 0-0.1 0-0.1 0-0.2 0 0 0-0.1 0 0 0-0.1 0-0.1 0-0.1 0-0.1 0-0.2 0 0 0-0.1 0 0 0-0.1 0-0.1 0-0.1 0-0.1 0-0.1 0-0.1 0-0.1 0-0.1 0-0.2 0 0 0 0 0-0.1 0-0.1 0-0.1 0-0.1 0-0.1 0.1-0.1 0.1c-0.3 0.1-0.3 0.2-0.3 0.7q0.1-0.1 0.2-0.1 0.1-0.1 0.1-0.1 0 0 0.1 0-0.2 0.1-0.4 0.2c-0.7 0.4-1.1 0.9-1.4 0.9q0 0-0.1 0 0 0.1 0 0.1 0 0 0 0 0 0 0 0-0.1 0-0.2 0.1 0 0-0.1 0 0 0-0.1 0.1 0 0 0 0-0.1 0-0.2 0.1 0 0 0 0 0 0 0 0.1 0 0 0 0 0 0 0 0 0 0 0 0 0.1 0 0.1 0.1 0 0 0 0 0 0 0 0 0.1 0 0.1 0 0 0 0 0 0.1 0 0.1 0 0 0 0.1 0 0 0 0 0 0.1-0.1 0.1-0.1 0.1 0 0.1 0 0 0 0.1 0 0 0 0 0 0 0 0 0 0.1 0 0.1 0c0.4-0.2 0.8 0 1.5-0.1q0.1 0 0.4 0 0 0-0.1 0 0 0 0 0-0.2 0-0.3 0 0.1 0.1 0.3 0.2 0 0 0.1 0 0 0 0.1 0 0.1 0 0.1 0 0.1 0 0.2 0 0 0 0.1-0.1 0.1 0 0.2-0.1 0 0 0-0.1 0.1-0.1 0.2-0.2-0.1 0-0.2 0.1 0 0 0 0-0.1 0-0.2 0 0 0.1 0 0.1-0.1 0-0.1 0-0.1 0-0.2 0 0 0-0.1 0 0 0.1-0.1 0.1 0.2-0.1 0.5-0.2 0.2 0 0.4-0.1 0 0 0 0c0.9-0.4 1.1-0.8 1.6-0.9 0.1-0.1 1-0.3 1.3-0.8-0.2 0.3-0.9 0.4-0.9 0.4 0 0 0.5-0.2 0.8-0.6-0.7 0.4-1.1 0.4-1.1 0.4 0 0 0.3 0 0.5-0.2 0.2-0.1 0.8-0.3 0.8-0.3 0 0-0.6 0-0.8 0.2-0.3 0.1-0.5 0.2-0.6 0.2 0.1 0 0.3-0.1 0.5-0.3 0.4-0.3 0.8-0.2 0.8-0.2zm-2 0.5q0 0 0.1 0-0.1 0-0.1 0zm-0.2 0q0.1 0 0.1 0 0 0-0.1 0zm-0.1 0.1q0 0 0 0 0 0-0.1 0 0 0 0.1 0zm-0.3 0q0.1 0 0.1 0-0.1 0-0.2 0 0 0 0 0 0.1 0 0.1 0zm-0.2 0q0 0 0.1 0-0.1 0-0.2 0 0 0 0 0 0 0 0.1 0zm-0.3 0q0.1 0 0.1 0-0.1 0-0.2 0 0 0 0 0 0.1 0 0.1 0zm-0.8 0.2q0 0 0.1 0 0 0 0.1 0 0.1-0.1 0.1-0.1 0.1 0 0.2 0 0 0 0.1 0 0 0 0-0.1-0.1 0.1-0.3 0.1-0.2 0.1-0.4 0.2 0 0 0.1-0.1zm13.8 4.8c0 0-0.9 0.1-1.3 0.3-0.4 0.3-0.8 0.4-0.9 0.4 0.1 0 0.3-0.1 0.8-0.5 0.6-0.4 1.3-0.4 1.3-0.4 0 0-1-0.4-2.5 0.5q-0.2 0.1-0.3 0.2-0.2 0.1-0.3 0.1 0.1 0 0.3-0.1-0.3 0-0.6 0-0.1 0-0.2 0-0.1 0-0.3-0.1 0 0-0.1 0-0.2 0-0.3 0-0.1 0-0.1 0-0.2 0-0.3 0-0.1 0-0.2 0-0.1-0.1-0.2-0.1-0.1 0-0.2 0-0.1 0-0.2 0-0.1 0-0.2 0-0.1 0-0.2 0-0.1 0-0.2 0-0.1 0-0.2 0.1 0 0-0.1 0 0 0-0.1 0-0.1 0-0.2 0.1-0.1 0-0.2 0c-0.5 0.2-0.4 0.3-0.4 1.2q0.2-0.1 0.3-0.2 0.1-0.1 0.2-0.1 0 0 0.1 0-0.4 0.1-0.6 0.3c-1.2 0.6-1.9 1.4-2.3 1.6q-0.1 0-0.1 0-0.1 0-0.1 0 0 0 0 0-0.1 0-0.1 0.1 0 0-0.1 0 0 0-0.1 0 0 0-0.1 0.1 0 0-0.1 0 0 0 0 0-0.1 0.1-0.1 0.1-0.1 0-0.1 0 0 0.1-0.1 0.1 0 0 0 0-0.1 0-0.1 0.1 0 0 0 0-0.1 0-0.1 0.1 0 0 0 0 0 0 0 0.1 0 0 0 0.1 0 0 0 0 0 0 0.1 0 0 0 0 0 0 0 0.1 0 0 0.1 0 0.1 0.1 0 0.1 0 0.1 0 0.1 0 0.1 0 0.1 0 0.1 0 0.1-0.1 0.1 0 0.1 0 0.1 0 0.1 0 0.1 0 0.2 0 0.1 0 0.1 0 0.1-0.1 0.1-0.1 0 0 0 0 0.1 0 0.2 0c0.6-0.2 1.2 0 2.3-0.1q0.3 0.2 0.6 0.3 0 0 0.1 0 0.1 0.1 0.3 0 0.1 0 0.1 0 0.2 0 0.3 0 0.1-0.1 0.2-0.1 0.1-0.1 0.3-0.2 0-0.1 0.1-0.1 0.2-0.2 0.3-0.4 0 0 0 0c1.5-0.6 1.8-1.4 2.6-1.6 0.3-0.1 1.7-0.4 2.3-1.2-0.5 0.4-1.5 0.7-1.5 0.7 0 0 0.7-0.4 1.1-1-1 0.7-1.7 0.6-1.7 0.6 0 0 0.5-0.1 0.8-0.3 0.3-0.3 1.3-0.6 1.3-0.6zm-3.3 0.7q-0.1 0-0.2 0 0.1 0 0.2 0zm-0.3 0.1q-0.1 0-0.1 0 0 0 0.1 0zm-0.8 0q0.1 0 0.3 0 0.1 0 0.1 0 0.2 0 0.3 0c-0.3 0-0.6 0-0.9 0q0 0 0 0 0.1 0 0.2 0zm-0.5 0.1q0 0-0.1 0 0 0 0 0 0.1 0 0.1 0zm-0.5 0q0 0 0 0 0 0 0 0 0 0 0 0zm-0.2 0.1q0 0 0 0-0.1 0-0.1 0 0 0 0.1 0zm-1 0.3q0 0 0.1-0.1 0.1 0 0.3 0 0-0.1 0.1-0.1 0.2 0 0.3-0.1 0 0 0 0-0.1 0.1-0.3 0.1-0.4 0.1-0.7 0.3 0.1-0.1 0.2-0.1zm0 2.6q-0.1 0-0.1 0 0.1 0 0.2-0.1 0 0 0 0-0.1 0.1-0.1 0.1zm0.4-0.1q-0.1 0-0.2 0 0.2 0 0.3 0 0 0 0 0-0.1 0-0.1 0zm0.6-0.2q0 0-0.1 0 0 0.1-0.1 0.1-0.1 0-0.2 0 0.2 0 0.4-0.1 0.2 0 0.3-0.1 0 0 0 0-0.2 0.1-0.3 0.1zm29.4-19.1c0 0 0.6-0.5 0.9-1.2-0.8 0.8-1.5 0.9-1.5 0.9 0 0 0.5-0.2 0.7-0.5 0.2-0.3 1.1-0.8 1.1-0.8 0 0-0.8 0.3-1.2 0.6-0.4 0.4-0.7 0.5-0.8 0.6 0.1-0.1 0.3-0.2 0.7-0.7 0.5-0.6 1.1-0.6 1.2-0.6-0.1 0-1.1-0.3-2.4 0.9q-0.1 0.2-0.3 0.3-0.1 0.1-0.2 0.2 0.1-0.1 0.2-0.2-0.2 0.1-0.6 0.1 0 0-0.1 0-0.1 0.1-0.3 0.1-0.1 0-0.1 0-0.2 0-0.3 0-0.1 0-0.2 0-0.1 0.1-0.2 0.1-0.1 0-0.2 0-0.1 0-0.2 0-0.1 0-0.2 0-0.1 0.1-0.2 0.1-0.1 0-0.2 0-0.1 0-0.2 0.1-0.1 0-0.2 0-0.1 0-0.2 0.1 0 0-0.1 0 0 0 0 0.1-0.2 0-0.3 0.1-0.1 0-0.1 0.1c-0.5 0.2-0.4 0.4-0.2 1.2q0.1-0.1 0.3-0.3 0.1 0 0.1-0.1 0.1 0 0.1 0-0.3 0.2-0.5 0.4c-1 0.9-1.5 1.8-2 2q0 0 0 0.1-0.1 0-0.1 0 0 0 0 0-0.1 0-0.1 0.1 0 0-0.1 0 0 0-0.1 0.1 0 0 0 0-0.1 0.1-0.1 0.1-0.1 0-0.1 0 0 0.1-0.1 0.1 0 0 0 0.1-0.1 0-0.1 0 0 0 0 0.1-0.1 0-0.1 0 0 0.1 0 0.1 0 0 0 0 0 0.1 0 0.1-0.1 0-0.1 0.1 0 0 0.1 0 0 0 0 0 0 0.1 0.1 0.1 0 0 0 0 0 0 0.1 0 0 0 0 0 0.1 0 0.1 0 0 0 0.1 0 0-0.1 0.1-0.1 0 0 0.1 0 0 0 0.1 0 0.1-0.1 0.1-0.1 0.1 0 0.1 0 0.1-0.1 0.2-0.1 0 0 0 0 0.1 0 0.1-0.1 0 0 0.1 0c0.6-0.3 1.2-0.2 2.3-0.6q0.3 0.2 0.6 0.2 0 0 0.1 0 0.2 0 0.3 0 0.1-0.1 0.1-0.1 0.2 0 0.3-0.1 0.1-0.1 0.1-0.1 0.2-0.1 0.3-0.3 0.1-0.1 0.1-0.1 0.1-0.2 0.2-0.5 0 0 0 0c1.4-0.9 1.5-1.6 2.2-2 0.3-0.2 1.7-0.8 2-1.7-0.4 0.5-1.3 1-1.3 1zm-2.1-0.1q0.1-0.1 0.2-0.2-0.1 0.1-0.2 0.2zm-0.2 0q0.1 0 0.1 0 0 0-0.1 0zm-0.8 0.3q0.1 0 0.2-0.1 0.1 0 0.2 0 0.1 0 0.2-0.1 0.1 0 0.2 0c-0.3 0.1-0.5 0.1-0.8 0.2q0 0 0 0zm-0.3 0.1q0 0-0.1 0 0 0 0 0 0.1 0 0.1 0zm-0.4 0.1q-0.1 0-0.1 0.1 0 0 0-0.1 0 0 0.1 0zm-0.3 0.2q0-0.1 0-0.1 0 0.1-0.1 0.1 0 0 0.1 0zm-0.9 0.5q0-0.1 0.1-0.1 0.1-0.1 0.3-0.2 0 0 0.1 0v-0.1q0.1 0 0.2-0.1 0 0 0 0-0.1 0.1-0.2 0.2-0.4 0.1-0.6 0.3 0 0 0.1 0zm0.5 2.5q0 0-0.1 0 0.1 0 0.2-0.1 0 0 0 0 0 0.1-0.1 0.1zm0.4-0.2q-0.1 0-0.2 0.1 0.2-0.1 0.3-0.2 0 0 0 0.1 0 0-0.1 0zm0.8-0.4q-0.1 0.1-0.2 0.1-0.1 0-0.1 0.1 0 0-0.1 0-0.1 0.1-0.2 0.1 0.2-0.1 0.4-0.2 0.1-0.1 0.3-0.1-0.1 0-0.1 0zm-13.5 10.1q-0.1 0-0.1 0-0.1 0-0.1 0.1 0 0 0 0 0 0-0.1 0 0 0 0 0.1-0.1 0-0.1 0-0.1 0.1-0.1 0.1 0 0-0.1 0.1 0 0 0 0-0.1 0.1-0.1 0.1 0 0-0.1 0 0 0.1 0 0.1 0 0-0.1 0.1 0 0 0 0 0 0.1 0 0.1 0 0-0.1 0 0 0.1 0 0.1 0 0 0 0.1 0 0 0.1 0 0 0 0 0.1 0 0 0.1 0 0 0 0 0 0 0 0.1 0 0 0 0 0 0.1 0 0.1 0 0-0.1 0.1-0.1 0 0 0.1 0 0 0 0.1 0 0-0.1 0.1-0.1 0 0 0.1 0 0.1-0.1 0.1-0.1 0.1 0 0.1-0.1 0.1 0 0.1 0 0 0 0 0 0.1-0.1 0.2-0.1c0.5-0.4 1.2-0.3 2.2-0.7q0.3 0.1 0.6 0.1 0.1 0 0.1 0 0.2 0 0.3-0.1 0.1 0 0.2 0 0.1-0.1 0.2-0.2 0.1 0 0.1-0.1 0.2-0.1 0.3-0.3 0-0.1 0.1-0.1 0.1-0.2 0.2-0.5 0 0 0 0c1.2-1 1.3-1.8 2-2.2 0.2-0.2 1.6-0.8 1.8-1.8-0.3 0.5-1.2 1.1-1.2 1.1 0 0 0.6-0.6 0.9-1.3-0.8 0.9-1.5 1.1-1.5 1.1 0 0 0.4-0.3 0.7-0.6 0.2-0.3 1-0.9 1-0.9 0 0-0.8 0.3-1.2 0.7-0.3 0.4-0.6 0.6-0.7 0.6 0 0 0.3-0.2 0.6-0.7 0.5-0.6 1.1-0.7 1.2-0.7-0.1 0-1.1-0.2-2.3 1.1q-0.1 0.2-0.3 0.3-0.1 0.1-0.2 0.2 0.1-0.1 0.2-0.2-0.2 0.1-0.6 0.2 0 0-0.1 0-0.1 0-0.3 0 0 0.1-0.1 0.1-0.2 0-0.3 0-0.1 0-0.1 0-0.2 0.1-0.3 0.1-0.1 0-0.1 0-0.2 0-0.3 0.1-0.1 0-0.1 0-0.2 0-0.3 0.1-0.1 0-0.1 0-0.2 0-0.3 0.1 0 0-0.1 0-0.1 0.1-0.2 0.1-0.1 0.1-0.1 0.1 0 0-0.1 0-0.1 0.1-0.2 0.2-0.1 0-0.2 0c-0.4 0.3-0.3 0.5-0.1 1.3q0.2-0.2 0.4-0.3 0-0.1 0.1-0.1 0 0 0-0.1-0.2 0.3-0.5 0.5c-0.9 0.9-1.3 1.9-1.7 2.2zm3.1-0.3q0 0 0 0 0 0 0.1-0.1 0 0 0 0 0 0-0.1 0.1zm0.4-0.2q-0.1 0-0.2 0.1 0.2-0.1 0.3-0.2 0 0 0 0-0.1 0.1-0.1 0.1zm0.5-0.3q0 0 0 0-0.1 0-0.1 0.1-0.1 0-0.2 0 0.2 0 0.3-0.1 0.2-0.1 0.3-0.2 0 0 0 0-0.1 0.1-0.3 0.2zm1.1-3.3q0 0 0 0 0 0 0 0zm0.1-0.1q0.1-0.1 0.2-0.1-0.1 0-0.2 0.1zm-0.8 0.3q0.2 0 0.3 0 0.1-0.1 0.1-0.1 0.1 0 0.3-0.1c-0.3 0.1-0.6 0.2-0.9 0.3q0 0 0.1 0 0 0 0.1-0.1zm-0.5 0.2q0 0 0 0 0 0 0 0 0 0 0 0zm-0.4 0.2q0 0 0 0 0 0 0 0 0 0 0 0zm-0.2 0.1q0 0 0 0 0 0-0.1 0.1 0 0 0.1-0.1zm-0.9 0.6q0.1 0 0.1-0.1 0.1-0.1 0.3-0.2 0 0 0.1 0 0.1-0.1 0.2-0.2 0 0 0 0-0.1 0.1-0.2 0.2-0.4 0.2-0.6 0.4 0 0 0.1-0.1zm-1.1-2c0 0-0.9 0.1-1.4 0.4-0.4 0.2-0.7 0.3-0.9 0.3 0.1 0 0.4-0.1 0.9-0.5 0.6-0.4 1.2-0.4 1.3-0.3-0.1-0.1-1-0.5-2.5 0.4q-0.2 0.1-0.4 0.2-0.1 0.1-0.3 0.1 0.2 0 0.3-0.1-0.2 0-0.6 0 0 0-0.1 0-0.2 0-0.3 0-0.1 0-0.1-0.1-0.2 0-0.3 0-0.1 0-0.2 0-0.1 0-0.2 0-0.1 0-0.2 0-0.1 0-0.2-0.1-0.1 0-0.2 0-0.1 0-0.2 0-0.1 0-0.2 0-0.1 0-0.2 0-0.1 0-0.2 0-0.1 0.1-0.2 0.1-0.1 0-0.1 0-0.1 0-0.1 0-0.1 0-0.3 0.1 0 0-0.1 0c-0.5 0.2-0.5 0.3-0.5 1.2q0.2-0.1 0.4-0.2 0.1 0 0.2-0.1 0 0 0 0-0.3 0.1-0.6 0.3c-1.1 0.6-1.8 1.5-2.3 1.6q0 0-0.1 0 0 0-0.1 0 0 0 0 0 0 0.1 0 0.1-0.1 0-0.1 0-0.1 0-0.1 0-0.1 0.1-0.1 0.1-0.1 0-0.1 0 0 0-0.1 0.1 0 0-0.1 0 0 0 0 0-0.1 0.1-0.1 0.1 0 0-0.1 0 0 0.1 0 0.1 0 0-0.1 0 0 0.1 0 0.1 0 0 0 0 0 0.1 0 0.1 0 0 0 0.1 0 0 0 0 0 0 0 0 0.1 0 0.1 0 0 0.1 0 0.1 0.1 0 0.1 0 0 0 0.1 0 0 0 0.1 0 0 0 0.1 0 0 0 0.1 0 0 0 0.1-0.1 0.1 0 0.1 0 0.1 0 0.2 0 0 0 0.1 0 0 0 0.1-0.1 0 0 0 0 0.1 0 0.1 0h0.1c0.6-0.2 1.2 0 2.3-0.1q0.3 0.2 0.5 0.3 0.1 0 0.2 0 0.1 0.1 0.3 0.1 0 0 0.1 0 0.2-0.1 0.3-0.1 0.1-0.1 0.1-0.1 0.2-0.1 0.4-0.2 0-0.1 0.1-0.1 0.1-0.2 0.3-0.4 0 0 0 0c1.5-0.6 1.8-1.3 2.5-1.6 0.3 0 1.8-0.3 2.3-1.2-0.4 0.4-1.5 0.7-1.5 0.7 0 0 0.7-0.4 1.2-1-1 0.7-1.7 0.6-1.7 0.6 0 0 0.5-0.1 0.8-0.3 0.3-0.3 1.3-0.6 1.3-0.6zm-3.3 0.7q-0.2 0-0.3 0.1 0.1-0.1 0.3-0.1zm-0.4 0.1q0 0 0 0 0 0 0 0zm-0.7 0.1q0.1 0 0.2-0.1 0.1 0 0.2 0 0.1 0 0.3 0c-0.3 0.1-0.6 0-0.9 0.1q0 0 0 0 0.1 0 0.2 0zm-0.5 0q-0.1 0-0.1 0 0 0 0 0 0 0 0.1 0zm-0.5 0q0 0.1 0 0.1 0 0 0 0 0 0 0-0.1zm-0.3 0.1q0.1 0 0.1 0-0.1 0-0.2 0 0.1 0 0.1 0zm-1 0.3q0.1 0 0.2 0 0.1-0.1 0.3-0.1 0-0.1 0.1-0.1 0.1 0 0.3-0.1 0 0 0 0-0.2 0.1-0.3 0.1-0.4 0.1-0.7 0.3 0.1-0.1 0.1-0.1zm0 2.6q0 0 0 0 0.1 0 0.2 0 0 0 0 0-0.1 0-0.2 0zm0.5-0.1q-0.1 0-0.2 0 0.1 0 0.3 0 0 0 0 0-0.1 0-0.1 0zm0.6-0.2q-0.1 0.1-0.1 0.1-0.1 0-0.1 0-0.1 0-0.2 0 0.2 0 0.4-0.1 0.1 0 0.3-0.1 0 0.1-0.1 0.1-0.1 0-0.2 0zm-4.3-3.6c0 0-0.7-0.3-1.9 0.4q-0.1 0.1-0.3 0.1-0.1 0.1-0.2 0.1 0.1 0 0.2-0.1-0.2 0-0.4 0-0.1 0-0.1 0-0.1 0-0.2 0-0.1 0-0.2 0-0.1 0-0.2 0 0 0-0.1 0-0.1-0.1-0.2-0.1 0 0-0.1 0-0.1 0-0.2 0 0 0-0.1 0-0.1 0-0.2 0 0 0-0.1 0-0.1 0-0.2 0-0.1 0-0.1 0-0.1 0-0.2 0 0 0-0.1 0 0 0.1 0 0.1-0.1 0-0.2 0-0.1 0-0.1 0c-0.4 0.2-0.4 0.3-0.4 0.9q0.2 0 0.3-0.1 0.1 0 0.1-0.1 0.1 0 0.1 0-0.3 0.1-0.5 0.2c-0.9 0.5-1.4 1.1-1.7 1.2q-0.1 0.1-0.1 0.1 0 0-0.1 0 0 0 0 0 0 0 0 0-0.1 0-0.1 0 0 0-0.1 0.1 0 0 0 0-0.1 0-0.1 0 0 0-0.1 0.1 0 0 0 0-0.1 0-0.1 0 0 0 0 0.1-0.1 0-0.1 0 0 0 0 0 0 0-0.1 0.1 0 0 0 0 0 0 0 0 0 0.1 0 0.1 0 0 0 0 0 0 0 0.1 0 0 0 0 0.1 0 0.1 0 0 0 0 0 0 0 0.1 0 0 0 0 0 0.1 0 0.1 0 0 0 0.1 0 0 0 0.1 0 0 0 0 0 0.1 0 0.1 0 0.1 0 0.1 0 0.1-0.1 0.1-0.1 0.1 0 0.1 0 0 0 0 0 0.1 0 0.1 0c0.5-0.2 1 0 1.8-0.1q0.2 0.2 0.4 0.2 0.1 0.1 0.1 0.1 0.1 0 0.3 0 0 0 0.1 0 0.1 0 0.2-0.1 0 0 0.1 0 0.1-0.1 0.2-0.2 0.1 0 0.1-0.1 0.2-0.1 0.3-0.3 0 0 0 0c1.1-0.4 1.3-1 1.9-1.2 0.2 0 1.3-0.2 1.7-0.9-0.3 0.3-1.1 0.5-1.1 0.5 0 0 0.5-0.2 0.9-0.7-0.8 0.5-1.3 0.5-1.3 0.5 0 0 0.4-0.1 0.6-0.3 0.2-0.2 1-0.4 1-0.4 0 0-0.7 0-1 0.2-0.3 0.2-0.6 0.3-0.7 0.3 0 0 0.3-0.1 0.6-0.4 0.4-0.3 1-0.3 1-0.3zm-2.4 0.7q-0.1 0-0.2 0 0.1 0 0.2 0zm-0.3 0q0 0 0 0.1 0-0.1 0-0.1zm-0.6 0.1q0.1 0 0.2 0 0.1 0 0.1 0 0.1 0 0.2 0c-0.2 0-0.4 0-0.6 0q0 0 0 0 0.1 0 0.1 0zm-0.4 0q0 0 0 0 0 0 0 0 0 0 0 0zm-0.3 0.1q0 0 0 0 0 0 0 0 0 0 0 0zm-0.2 0q0 0 0 0 0 0-0.1 0 0 0 0.1 0zm-0.8 0.2q0.1 0 0.1 0 0.1 0 0.2-0.1 0.1 0 0.1 0h0.1q0.1 0 0.2-0.1 0 0 0 0-0.1 0.1-0.3 0.1-0.2 0.1-0.5 0.2 0.1 0 0.1-0.1zm0 2q0 0 0 0 0.1 0 0.1 0 0 0 0 0 0 0-0.1 0zm0.3-0.1q0 0-0.1 0.1 0.1-0.1 0.3-0.1-0.1 0-0.1 0 0 0-0.1 0zm0.5-0.1q0 0 0 0-0.1 0-0.1 0.1-0.1 0-0.2 0 0.2 0 0.3-0.1 0.1 0 0.3-0.1-0.1 0-0.1 0.1-0.1 0-0.2 0zm20.6-9.4c0 0-0.7 0.1-1 0.3-0.3 0.2-0.6 0.2-0.7 0.2 0.1 0 0.3-0.1 0.6-0.3 0.5-0.4 1-0.3 1-0.3 0 0-0.7-0.4-1.9 0.3q-0.1 0.1-0.3 0.2-0.1 0-0.2 0.1 0.1-0.1 0.2-0.1-0.2 0-0.4 0-0.1 0-0.1 0-0.1 0-0.2-0.1-0.1 0-0.1 0-0.1 0-0.3 0 0 0-0.1 0-0.1 0-0.2 0 0 0-0.1 0-0.1 0-0.2 0 0 0-0.1 0-0.1-0.1-0.2-0.1 0 0-0.1 0-0.1 0-0.2 0 0 0.1-0.1 0.1-0.1 0-0.2 0 0 0 0 0-0.1 0-0.1 0-0.1 0-0.2 0.1-0.1 0-0.1 0c-0.4 0.1-0.4 0.2-0.4 0.9q0.2-0.1 0.3-0.2 0.1 0 0.1 0 0.1 0 0.1 0-0.2 0.1-0.5 0.2c-0.8 0.5-1.4 1.1-1.7 1.2q-0.1 0-0.1 0 0 0-0.1 0 0 0 0 0 0 0 0 0.1 0 0-0.1 0 0 0-0.1 0 0 0 0 0-0.1 0.1-0.1 0.1 0 0-0.1 0 0 0 0 0 0 0-0.1 0.1 0 0 0 0 0 0-0.1 0 0 0.1 0 0.1 0 0 0 0-0.1 0-0.1 0 0 0.1 0 0.1 0 0 0 0 0 0.1 0 0.1 0 0 0 0 0 0 0.1 0 0 0 0 0 0 0 0 0.1 0.1 0 0.1 0 0 0 0.1 0 0 0 0 0 0 0 0.1 0 0 0 0.1 0 0-0.1 0.1-0.1 0 0 0 0 0.1 0 0.2 0 0 0 0.1 0 0 0 0 0 0 0 0 0 0.1-0.1 0.1-0.1h0.1c0.4-0.1 0.9 0.1 1.7 0q0.2 0.1 0.4 0.2 0.1 0 0.1 0 0.2 0 0.3 0 0 0 0.1 0 0.1 0 0.2 0 0-0.1 0.1-0.1 0.1 0 0.2-0.2 0.1 0 0.1 0 0.2-0.2 0.3-0.3 0 0 0 0c1.1-0.5 1.3-1 1.9-1.2 0.2-0.1 1.4-0.3 1.7-1-0.3 0.4-1.1 0.6-1.1 0.6 0 0 0.5-0.3 0.9-0.8-0.8 0.5-1.3 0.5-1.3 0.5 0 0 0.4-0.1 0.6-0.3 0.2-0.1 1-0.4 1-0.4zm-2.5 0.5q-0.1 0-0.2 0.1 0.1-0.1 0.2-0.1zm-0.3 0.1q0 0 0 0 0 0 0 0zm-0.6 0q0.1 0 0.2 0 0.1 0 0.2 0 0.1 0 0.2 0c-0.3 0-0.5 0-0.7 0q0 0 0 0 0.1 0 0.1 0zm-0.3 0.1q-0.1 0-0.1 0 0 0 0 0 0 0 0.1 0zm-0.4 0q0 0 0 0 0 0 0 0 0 0 0 0zm-0.2 0.1q0 0 0 0 0 0-0.1 0 0.1 0 0.1 0zm-0.8 0.2q0.1 0 0.2-0.1 0.1 0 0.2 0 0 0 0 0l0.1-0.1q0.1 0 0.2 0 0 0 0 0-0.1 0-0.3 0.1-0.2 0-0.5 0.1 0.1 0 0.1 0zm0 1.9q0 0 0 0 0.1 0 0.2 0-0.1 0-0.1 0 0 0-0.1 0zm0.4 0q-0.1 0-0.2 0 0.1 0 0.3 0 0 0 0 0-0.1 0-0.1 0zm0.4-0.1q0 0 0 0-0.1 0-0.1 0-0.1 0-0.1 0 0.1 0 0.2 0 0.2-0.1 0.3-0.1 0 0-0.1 0-0.1 0-0.2 0.1z"/>
</svg>