<svg version="1.2" xmlns="http://www.w3.org/2000/svg" viewBox="0 0 1100 450" width="1100" height="450">
	<title>2302</title>
	<style>
		.s0 { fill: #042648 } 
	</style>
	<path id="fishes" fill-rule="evenodd" class="s0" d="m464 259q-0.1 0.1-0.1 0.1 0 0.1-0.1 0.1 0 0.1-0.1 0.2 0 0-0.1 0 0 0.1-0.1 0.2-0.1 0-0.2 0 0 0.1-0.1 0.1-0.1 0.1-0.2 0.1-0.1 0-0.2 0.1-0.1 0-0.3 0-0.1 0.1-0.2 0.1-0.1 0-0.3 0-0.1 0.1-0.3 0.1-0.1 0-0.3 0-0.1 0-0.3 0-0.2 0.1-0.3 0.1-0.2 0-0.4 0-0.2 0-0.3 0-0.3 0-0.5 0-0.2 0-0.3 0-0.3-0.1-0.5-0.1-0.2 0-0.4 0-0.3 0-0.5 0-0.2-0.1-0.4-0.1-0.3 0-0.6 0-0.2-0.1-0.4-0.1-0.3 0-0.7-0.1-0.2 0-0.4-0.1 0 0 0 0 0 0 0 0-0.5-0.1-1.1-0.1l-0.2-0.1c-4.5-0.9-8.8 1.1-16.6 1.3q-1.8 1.4-3.5 2.1-0.5 0.2-0.9 0.3-1.1 0.4-2.1 0.4-0.5 0.1-1 0-1.1 0-2.1-0.3-0.5-0.1-1-0.3-1.3-0.5-2.4-1.4-0.5-0.3-1-0.7-1.3-1-2.5-2.5 0.6 0.2 1.2 0.4-0.6-0.2-1.2-0.4 0 0 0 0c-11-3.2-13.5-8.1-18.9-9.2-2.2-0.4-12.9-1.5-17-7.3 3.3 2.6 11 4 11 4 0 0-5.2-2-9.1-6.1 7.7 4 12.5 3.2 12.5 3.2 0 0-3.6-0.3-5.9-1.9-2.2-1.6-9.1-3-9.1-3 0 0 6-0.3 9.5 1.4 2.9 1.4 5.7 1.8 6.6 1.9-0.7-0.1-2.7-0.6-6.4-3-4.3-2.7-9-1.8-9.4-1.7 0.4-0.2 6.7-3.9 17.9 1.5q1.5 0.7 2.7 1.2 0.6 0.2 1.2 0.4-0.6-0.2-1.2-0.4c1.2 0 2.7-0.2 4.3-0.5q0.5-0.1 1.1-0.2 0.8-0.1 1.8-0.3 0.5-0.1 1-0.2 1-0.2 2-0.4 0.5-0.1 1-0.2 0.9-0.2 1.8-0.4 0.5-0.1 1.1-0.1 0.9-0.2 1.7-0.4 0.6 0 1.1-0.1 0.9-0.2 1.8-0.3 0.5 0 1-0.1 0.9-0.1 1.8-0.1 0.5 0 1.1-0.1 0.9 0 1.8 0.1 0.2 0 0.5 0.1 0.3 0 0.6 0.1 1 0.1 1.9 0.2 0.6 0.1 1.1 0.3c3.4 0.7 3.5 1.9 4 7.9q-1-0.4-2-0.8 1 0.4 2 0.8c8.5 3.8 14.1 9 17.4 9.7q0.3 0 0.6 0.1 0.4 0.1 0.7 0.2 0 0 0 0 0 0 0 0 0.1 0 0.2 0 0.3 0.1 0.6 0.1 0.1 0.1 0.3 0.1 0.2 0.1 0.4 0.1 0.1 0.1 0.3 0.1 0.2 0.1 0.4 0.1 0.1 0.1 0.3 0.1 0.2 0.1 0.4 0.2 0.1 0 0.3 0.1 0.1 0 0.3 0.1 0.1 0 0.3 0.1 0.1 0.1 0.3 0.1 0.1 0.1 0.3 0.1 0.1 0.1 0.3 0.2 0.1 0 0.2 0.1 0.2 0.1 0.3 0.2 0.1 0 0.2 0.1 0.2 0 0.3 0.1 0.1 0.1 0.2 0.1 0.1 0.1 0.2 0.2 0.1 0.1 0.2 0.1 0.1 0.1 0.2 0.2 0.1 0.1 0.1 0.1 0.1 0.1 0.2 0.2 0.1 0 0.1 0.1 0.1 0.1 0.2 0.2 0 0 0 0.1 0.1 0.1 0.1 0.2 0.1 0.1 0.1 0.1 0.1 0.2 0.1 0.3 0 0.2 0 0.3 0 0 0 0.1zm-56-18.7q0.2 0.1 0.4 0.1-0.2 0-0.4-0.1zm0.4 0.1q0.2 0.1 0.3 0.1-0.1 0-0.3-0.1zm24.6 20.2q-0.1 0-0.1 0 0 0 0 0 0 0 0.1 0zm0 0q0 0 0 0 0 0 0 0zm-2.2-0.2q0.3 0 0.6 0.1-0.8-0.1-1.6-0.2 0 0 0 0 0.5 0.1 1 0.1zm-1-0.1q0 0 0 0 0 0 0 0zm-23-20.4q0.2 0.1 0.4 0.1-0.2 0-0.4-0.1zm0.4 0.1q0.3 0.1 0.6 0.2-0.3-0.1-0.6-0.2zm2.6 0.7q-0.4-0.1-0.8-0.1 0.4 0.1 0.8 0.1zm0.3 0.1q0.5 0.1 1.1 0.1-0.1 0-0.2 0-0.4-0.1-0.9-0.1zm1.8 0.2q-0.4 0-0.7-0.1 0.3 0.1 0.7 0.1zm4-0.2q-1 0.1-1.9 0.2-0.2 0-0.4 0c1.3-0.1 2.6-0.2 4.2-0.3q-0.4 0.1-0.8 0.1-0.5 0-1.1 0zm-2.6 0.2q-0.2 0-0.4 0-0.4 0-0.8 0 0.6 0 1.2 0zm0.3 0q-0.2 0-0.3 0 0.1 0 0.3 0zm17 1.2q-0.1 0-0.2-0.1 0.1 0.1 0.2 0.1zm-2.5-0.6q0 0 0 0 0 0 0 0zm-0.3 0q-0.1 0-0.2-0.1 0.3 0.1 0.5 0.1zm-0.2 0q0 0 0 0 0 0 0 0zm1.3 0.3q0.1 0 0.1 0 0 0-0.1 0 0 0 0 0zm0.1 0q0.7 0.1 1.4 0.3-0.7-0.2-1.4-0.3zm-0.9-0.2q0.4 0.1 0.8 0.2-0.4-0.1-0.8-0.2zm2.7 0.6q0 0-0.1 0 1 0.2 1.8 0.5-0.3-0.1-0.5-0.2-0.6-0.1-1.2-0.3zm1.8 0.5q0 0-0.1 0 0.1 0 0.1 0zm2.4 0.8q-0.5-0.2-1.1-0.4-0.2 0-0.3-0.1 0.9 0.3 1.8 0.7-0.2-0.1-0.4-0.2zm-1.4-0.5q0 0 0 0 0 0 0 0zm-47.1 31.9q-1.1-0.9-2.1-2 0.9 0.2 2 0.5-1.1-0.3-2-0.5 0 0 0 0c-9.1-2.7-11.2-6.9-15.8-7.7-1.8-0.4-10.6-1.2-14.1-6.1 2.8 2.2 9.2 3.3 9.2 3.3 0 0-4.3-1.6-7.6-5.1 6.4 3.3 10.4 2.7 10.4 2.7 0 0-3-0.3-4.9-1.6-1.8-1.3-7.6-2.5-7.6-2.5 0 0 5-0.2 7.9 1.2 2.4 1.2 4.8 1.5 5.5 1.6-0.6-0.1-2.3-0.6-5.3-2.5-3.6-2.3-7.5-1.5-7.9-1.4 0.4-0.2 5.6-3.3 14.9 1.2q1.3 0.6 2.3 1c1 0 2.3-0.2 3.6-0.4q0.4-0.1 0.9-0.1 0.7-0.2 1.5-0.3 0.4-0.1 0.9-0.2 0.8-0.2 1.6-0.3 0.4-0.1 0.9-0.2 0.7-0.1 1.5-0.3 0.4-0.1 0.8-0.1 0.8-0.2 1.5-0.3 0.5-0.1 0.9-0.1 0.7-0.2 1.4-0.2 0.5-0.1 0.9-0.1 0.8-0.1 1.5-0.2 0.5 0 0.9 0 0.8 0 1.5 0.1 0.2 0 0.4 0 0.3 0.1 0.5 0.1 0.9 0.1 1.6 0.2 0.5 0.1 0.9 0.2c2.9 0.6 3 1.6 3.3 6.6 7.2 3.2 11.8 7.5 14.5 8.1q0.3 0 0.5 0.1 0.4 0 0.7 0.1 0 0 0 0 0 0 0 0 0.5 0.1 1.1 0.3 0 0 0.1 0 0.5 0.2 1 0.3 0 0.1 0.1 0.1 0.5 0.1 0.9 0.3 0.1 0 0.1 0.1 0.4 0.1 0.8 0.3 0.1 0 0.1 0.1 0.4 0.2 0.7 0.4 0 0 0.1 0 0.3 0.2 0.5 0.4 0 0 0 0.1 0.3 0.2 0.4 0.4 0 0 0 0 0.2 0.3 0.2 0.5 0 0.1 0 0.2 0 0.1 0 0.1 0 0.1-0.1 0.1 0 0.1 0 0.1-0.1 0.1-0.1 0.1-0.1 0.1-0.1 0.1-0.1 0-0.1 0.1-0.1 0-0.1 0.1-0.1 0-0.2 0-0.1 0.1-0.1 0.1-0.1 0-0.2 0.1-0.1 0-0.2 0-0.1 0-0.2 0.1-0.1 0-0.2 0-0.2 0-0.3 0-0.1 0-0.2 0.1-0.2 0-0.3 0-0.1 0-0.3 0-0.1 0-0.3 0-0.1 0-0.3 0-0.2 0-0.3 0-0.2 0-0.3 0-0.2 0-0.4 0-0.2 0-0.4 0-0.2-0.1-0.4-0.1-0.2 0-0.3 0-0.3 0-0.5-0.1-0.2 0-0.4 0-0.2-0.1-0.5-0.1-0.2 0-0.3-0.1 0 0-0.1 0 0 0 0 0-0.4 0-0.8-0.1h-0.2c-3.8-0.8-7.4 0.9-13.8 1q-1.5 1.2-3 1.8-0.4 0.2-0.7 0.3-0.9 0.2-1.8 0.3-0.4 0-0.8 0-0.9 0-1.8-0.3-0.4-0.1-0.8-0.3-1-0.4-2-1.1-0.4-0.2-0.8-0.6zm-10.9-16.7q0.2 0 0.5 0.1-0.3-0.1-0.5-0.1zm4.6 0q-0.2 0-0.3 0 0.7 0 1.5-0.1-0.1 0-0.3 0.1-0.5 0-0.9 0zm-4 0.1q0.7 0 1.4 0-0.7 0-1.4 0zm1.4 0q0.1 0 0.1 0 0 0 0 0-0.1 0-0.1 0zm0.8 0q0.5 0 0.9 0-0.4 0-0.7 0-0.1 0-0.2 0zm1.5-0.1q-0.3 0.1-0.6 0.1 0.3 0 0.6-0.1zm-1.5 0.1q-0.3 0-0.7 0 0.4 0 0.7 0zm4.8-0.2q0.2 0 0.4 0 0 0 0 0-0.2 0-0.4 0zm0.4 0q0 0 0 0 0 0 0 0zm-0.4 0q0 0 0 0 0 0 0 0zm2.7 0.1q0.1 0.1 0.2 0.1 0 0-0.1 0 0-0.1-0.1-0.1zm0.2 0.1q0 0 0 0 0 0 0 0zm-0.2-0.1q0 0 0 0 0 0 0 0zm1.7 0.2q-0.2 0-0.4 0 0.5 0 1 0.1-0.3 0-0.6-0.1zm3.5 0.6q0.6 0.2 1.2 0.3-0.6-0.1-1.2-0.3zm1.2 0.3q0 0 0.1 0.1-0.1-0.1-0.1-0.1zm-1.3-0.3q-0.3-0.1-0.7-0.1l-0.2-0.1q-0.7-0.1-1.3-0.2 0.7 0.1 1.5 0.3 0.4 0 0.7 0.1zm-2.4-0.4q0 0-0.1 0 0 0 0 0 0.1 0 0.1 0zm2.4 0.4q0.1 0 0.1 0-0.1 0-0.1 0 0 0 0 0zm-2.2-0.4q-0.1 0-0.2 0 0.1 0 0.2 0zm3.8 0.8q0 0-0.1 0 0.8 0.2 1.5 0.4-0.2-0.1-0.4-0.1-0.5-0.2-1-0.3zm1.5 0.4q0 0-0.1 0 0.1 0 0.1 0zm2 0.7q-0.5-0.2-1-0.3-0.1-0.1-0.2-0.1 0.7 0.2 1.4 0.5-0.1-0.1-0.2-0.1zm-1.2-0.4q0 0 0 0 0 0 0 0zm-0.5 14.6q-0.1 0-0.1 0 0 0 0 0 0 0 0.1 0zm-0.1 0q0 0 0 0 0 0 0 0zm0.1 0q0 0 0 0 0 0 0 0zm-1.9-0.2q0.3 0 0.5 0-0.6 0-1.3-0.1 0 0 0.1 0 0.4 0.1 0.7 0.1zm-0.8-0.1q0 0 0 0 0 0 0 0zm-4.5-0.8q0 0-0.1-0.1 0.2 0.1 0.4 0.1-0.1 0-0.3 0zm-0.4-0.1q0 0 0.1 0-0.1 0-0.1 0zm0.7 0.1q0.6 0.2 1.3 0.3-0.7-0.1-1.3-0.3zm-0.6-0.1q0.1 0 0.2 0-0.1 0-0.2 0zm22.3-46.8q0.1 0.2 0 0.3-0.1 0.1-0.1 0.1-0.1 0.1-0.2 0.2-0.1 0-0.2 0.1-0.1 0-0.2 0.1-0.2 0-0.3 0-0.2 0.1-0.4 0.1-0.2 0-0.4 0-0.2 0.1-0.4 0.1-0.2 0-0.5 0-0.2 0-0.5-0.1-0.3 0-0.6 0-0.3 0-0.6-0.1-0.3 0-0.6 0-0.2-0.1-0.4-0.1 0 0 0 0-0.3-0.1-0.7-0.1h-0.1c-2.9-0.6-5.6 0.7-10.5 0.7q-1.1 1-2.2 1.4-0.3 0.1-0.6 0.2-0.7 0.2-1.3 0.3-0.3 0-0.6 0-0.7-0.1-1.4-0.3-0.3 0-0.6-0.2-0.8-0.3-1.5-0.8-0.3-0.2-0.6-0.5-0.9-0.6-1.6-1.5 0 0 0 0c-7-2.1-8.5-5.2-12-5.9-1.4-0.2-8.1-0.9-10.7-4.6 2.1 1.7 7 2.6 7 2.6 0 0-3.3-1.3-5.8-3.9 4.9 2.5 7.9 2 7.9 2 0 0-2.3-0.2-3.7-1.2-1.4-1-5.8-1.9-5.8-1.9 0 0 3.8-0.2 6 0.9 1.9 0.9 3.6 1.2 4.2 1.2-0.5-0.1-1.7-0.4-4-1.9-2.8-1.7-5.8-1.1-6-1 0.2-0.2 4.2-2.5 11.3 0.9q0.9 0.4 1.7 0.7c0.8 0 1.7-0.1 2.7-0.3q0.4 0 0.7-0.1 0.6-0.1 1.1-0.2 0.4-0.1 0.7-0.1 0.6-0.1 1.2-0.3 0.4 0 0.7-0.1 0.6-0.1 1.1-0.2 0.4-0.1 0.7-0.1 0.6-0.1 1.1-0.2 0.4-0.1 0.7-0.1 0.6-0.1 1.1-0.2 0.4 0 0.7-0.1 0.6 0 1.1-0.1 0.3 0 0.7 0 0.6 0 1.1 0.1 0.2 0 0.4 0 0.1 0 0.3 0.1 0.7 0.1 1.2 0.1 0.4 0.1 0.7 0.2c2.2 0.4 2.2 1.2 2.5 5 5.4 2.4 9 5.7 11 6.1q0.2 0 0.4 0.1 0.2 0 0.4 0.1 0.1 0 0.1 0 0.1 0 0.2 0.1 0.3 0 0.5 0.1 0.2 0 0.5 0.1 0.2 0.1 0.3 0.1 0.3 0.1 0.5 0.2 0.2 0 0.4 0.1 0.2 0.1 0.4 0.2 0.1 0.1 0.3 0.1 0.2 0.1 0.3 0.2 0.2 0.1 0.3 0.2 0.1 0.1 0.3 0.2 0.1 0.1 0.2 0.1 0.1 0.2 0.2 0.3 0 0 0.1 0.1 0.1 0.2 0.1 0.4zm-18 1.3q0.7 0.1 1.3 0-0.6 0.1-1.3 0zm-1 0q0.2 0 0.4 0-0.5 0-1.1-0.1 0 0 0.1 0 0.3 0.1 0.6 0.1zm-0.7-0.1q0 0 0 0 0 0 0 0zm-1.3-0.1q0.4 0.1 0.8 0.1-0.7-0.1-1.4-0.2 0 0 0.1 0 0.3 0.1 0.5 0.1zm-0.6-0.1q0 0 0 0 0 0 0 0zm-3.4-0.6q0 0-0.1 0 0.2 0 0.3 0.1-0.1-0.1-0.2-0.1zm-0.3-0.1q0 0.1 0.1 0.1-0.1 0-0.1-0.1zm3.2 0.7q-0.6-0.1-1.2-0.2 0.2 0 0.4 0 0.4 0.1 0.8 0.2zm-1.4-0.3q-0.1 0-0.2 0 0.2 0 0.4 0.1-0.1-0.1-0.2-0.1zm-1.7-0.3q0 0 0.1 0-0.1 0-0.1 0zm1.4 0.3q-0.5-0.1-1-0.2 0.5 0.1 1 0.2zm0.1 0q0 0-0.1 0 0.1 0 0.1 0zm-10.1-12q0.2 0.1 0.3 0.1-0.1 0-0.3-0.1zm3.5 0.1q-0.1 0-0.2 0 0.5-0.1 1.1-0.1-0.1 0-0.2 0-0.4 0-0.7 0.1zm-3.1 0q0.6 0.1 1.1 0.1-0.5 0-1.1-0.1zm1.1 0.1q0.1 0 0.1 0 0 0 0 0-0.1 0-0.1 0zm0.6-0.1q0.4 0 0.7 0-0.3 0-0.5 0-0.1 0-0.2 0zm1.2 0q-0.3 0-0.5 0 0.2 0 0.5 0zm-1.2 0q-0.2 0.1-0.5 0.1 0.3 0 0.5-0.1zm3.6-0.1q0.2 0 0.4 0 0 0-0.1 0-0.1 0-0.3 0zm0.4 0q0 0 0 0 0 0 0 0zm-0.4 0q0 0 0 0 0 0 0 0zm2.1 0.1q0.1 0 0.2 0-0.1 0-0.1 0 0 0-0.1 0zm0 0q0 0 0 0 0 0 0 0zm1.3 0.1q-0.1 0-0.3 0 0.4 0 0.7 0.1-0.2 0-0.4-0.1zm3.7 0.7q-0.1 0-0.2 0 0.1 0 0.2 0zm-3-0.6q0 0 0 0 0 0 0 0zm0 0q0.1 0 0.3 0.1-0.2-0.1-0.3-0.1 0 0 0 0zm0.3 0.1q0.5 0.1 1.1 0.2l-0.2-0.1q-0.5-0.1-0.9-0.1zm1.6 0.3q0 0 0 0 0 0 0 0 0 0 0 0zm0 0q0.5 0.1 0.9 0.2-0.4-0.1-0.9-0.2zm-0.5-0.1q0.2 0 0.5 0.1-0.3-0.1-0.5-0.1zm0 0q0 0 0 0 0 0 0 0zm1.7 0.4q0-0.1-0.1-0.1 0.6 0.2 1.2 0.4-0.2-0.1-0.4-0.1-0.3-0.1-0.7-0.2zm1.1 0.3q0 0 0 0 0 0 0 0zm1.6 0.5q-0.4-0.2-0.8-0.3-0.1 0-0.2 0 0.6 0.2 1.1 0.3-0.1 0-0.1 0zm-1-0.3q0 0 0 0 0 0 0 0zm91.1 77.3c-5.6-0.6-7.3-2.7-10-2.7-1.1 0-6.4 0.5-8.9-2 1.9 1 5.7 0.9 5.7 0.9 0 0-2.7-0.4-5-2.1 4.1 1.2 6.4 0.4 6.4 0.4 0 0-1.8 0.2-3-0.4-1.3-0.5-4.7-0.6-4.7-0.6 0 0 2.8-0.7 4.7-0.2 1.5 0.4 2.9 0.4 3.3 0.3-0.3 0-1.3 0-3.3-0.8-2.3-0.9-4.5 0-4.7 0 0.1-0.1 2.8-2.5 8.8-0.9q0.7 0.2 1.4 0.3 0.9-0.2 2-0.6 0.3-0.1 0.5-0.2 0.4-0.2 0.9-0.3 0.2-0.1 0.5-0.2 0.4-0.2 0.9-0.4 0.2-0.1 0.5-0.2 0.4-0.2 0.8-0.3 0.2-0.1 0.5-0.2 0.4-0.2 0.8-0.3 0.3-0.1 0.5-0.2 0.4-0.2 0.8-0.3 0.3-0.1 0.5-0.2 0.5-0.1 0.9-0.2 0.3 0 0.5-0.1 0.5-0.1 0.9-0.1 0.1 0 0.2-0.1 0.2 0 0.3 0 0.6 0 1 0 0.3 0 0.5 0c1.8 0 1.9 0.6 2.7 3.5 4.5 1 7.7 3 9.3 3q0.2 0 0.3 0 0.2 0 0.4 0 0 0 0 0 0.1 0 0.2 0 0.2 0.1 0.4 0.1 0.2 0 0.3 0 0.2 0 0.4 0 0.2 0.1 0.3 0.1 0.2 0 0.3 0 0.2 0.1 0.4 0.1 0.1 0 0.2 0.1 0.2 0 0.3 0.1 0.1 0 0.2 0.1 0.2 0 0.3 0.1 0.1 0 0.2 0.1 0.1 0 0.2 0.1 0 0.1 0.1 0.1 0.1 0.1 0.1 0.3 0.1 0.1 0 0.2 0 0.1 0 0.1 0 0.1-0.1 0.2-0.1 0-0.1 0.1-0.1 0-0.2 0.1-0.1 0-0.2 0.1-0.2 0-0.3 0.1-0.2 0-0.3 0.1-0.2 0-0.4 0.1-0.1 0-0.3 0-0.2 0.1-0.4 0.1-0.2 0-0.4 0-0.3 0.1-0.6 0.1-0.2 0-0.4 0-0.2 0-0.3 0 0 0-0.1 0-0.2 0-0.4 0h-0.2c-2.2 0-4.1 1.4-7.9 2.2q-0.7 0.8-1.5 1.3-0.2 0.2-0.4 0.3-0.5 0.2-1 0.4-0.2 0-0.4 0.1-0.6 0-1.1 0-0.3 0-0.5-0.1-0.7-0.1-1.3-0.4-0.3-0.1-0.5-0.3-0.8-0.3-1.5-0.9 0 0 0 0zm7.2-0.2q0.6-0.1 1-0.2-0.4 0.1-1 0.2zm-13.7-7.4q-0.1 0-0.2 0 0.1 0 0.2 0zm2.4-0.5q-0.1 0.1-0.1 0.1 0.4-0.1 0.8-0.2-0.1 0-0.1 0-0.3 0.1-0.6 0.1zm-2.3 0.5q0.4 0 0.8-0.1-0.4 0.1-0.8 0.1zm0.8-0.1q0.1 0 0.1 0 0 0 0 0 0 0-0.1 0zm0.5-0.1q0.3-0.1 0.5-0.1-0.2 0-0.4 0.1 0 0-0.1 0zm0.9-0.2q-0.2 0-0.4 0.1 0.2-0.1 0.4-0.1zm-0.9 0.2q-0.2 0-0.4 0.1 0.2 0 0.4-0.1zm2.8-0.7q0.1 0 0.2 0 0 0 0 0-0.1 0-0.2 0zm-0.1 0q0.1 0 0.1 0 0 0-0.1 0zm1.6-0.2q0.1 0 0.2 0 0 0-0.1 0 0 0-0.1 0zm0 0q0 0 0 0 0 0 0 0zm0.8 0q0.3-0.1 0.6-0.1-0.2 0-0.3 0-0.2 0-0.3 0.1zm2.3-0.1q0 0 0.1 0-0.1 0-0.1 0 0 0 0 0zm0.9 0q-0.1 0-0.2 0 0.1 0 0.2 0zm-0.9 0q-0.2 0-0.4 0h-0.1q-0.4 0-0.8 0 0.4 0 0.9 0 0.2 0 0.4 0zm-1.4 0q-0.1 0-0.1 0 0 0 0 0 0 0 0.1 0zm2.1 0q-0.3 0-0.6 0 0.3 0 0.6 0zm-2 0q-0.1 0-0.1 0 0 0 0.1 0zm2.3 0q0 0-0.1 0 0.5 0.1 1 0.1-0.2 0-0.3 0-0.3 0-0.6-0.1zm0.9 0.1q0 0 0 0 0 0 0 0zm-1-0.1q0 0 0 0 0 0 0 0zm2.2 0.3q-0.3-0.1-0.6-0.1 0 0-0.1 0 0.4 0 0.9 0.1-0.1 0-0.2 0zm-0.7-0.1q0 0 0 0 0 0 0 0zm1.7 8.5q0.2-0.1 0.4-0.1-0.5 0.1-0.9 0.1 0 0 0.1 0 0.2 0 0.4 0zm-0.5 0q0 0 0 0 0 0 0 0zm-1 0.1q0.3 0 0.6 0-0.5 0-1.1 0.1 0 0 0.1 0 0.2-0.1 0.4-0.1zm-3.2 0.1q0 0 0 0 0.1 0 0.2 0-0.1 0-0.2 0zm-0.2 0q0 0 0 0 0 0 0 0zm0.4 0q0.4 0 0.8 0 0 0 0.1 0-0.1 0-0.1 0-0.4 0-0.8 0zm1.2 0q0.1 0 0.3 0 0.3 0 0.6 0-0.5 0-0.9 0zm-0.2 0q0 0-0.1 0 0.1 0 0.3 0-0.1 0-0.2 0zm-1.4 0q0.1 0 0.2 0-0.1 0-0.2 0zm-30.2 5.4c-1-0.4-3.9-0.5-3.9-0.5 0 0 2.4-0.6 3.9-0.2 1.3 0.4 2.5 0.3 2.8 0.3-0.3 0-1.1 0-2.8-0.7-1.9-0.8-3.8 0-3.9 0 0.1-0.1 2.4-2 7.3-0.7q0.7 0.1 1.2 0.2 0.5 0.1 1 0.2-0.5-0.1-1-0.2 0.8-0.1 1.7-0.5 0.2-0.1 0.4-0.2 0.4-0.1 0.7-0.2 0.2-0.1 0.4-0.2 0.4-0.2 0.8-0.3 0.2-0.1 0.4-0.2 0.3-0.1 0.7-0.2 0.2-0.1 0.4-0.2 0.3-0.1 0.7-0.3 0.2 0 0.4-0.1 0.3-0.1 0.7-0.3 0.2 0 0.4-0.1 0.4-0.1 0.7-0.2 0.2 0 0.4-0.1 0.4 0 0.8-0.1 0.1 0 0.2 0 0.1 0 0.2 0 0.5 0 0.8 0 0.3 0 0.5 0c1.4 0 1.6 0.5 2.2 2.8 3.7 0.9 6.4 2.6 7.8 2.6q0.1 0 0.2 0 0.2 0 0.3 0 0 0 0 0 0.1 0 0.2 0 0.1 0 0.3 0 0.2 0 0.3 0.1 0.1 0 0.3 0 0.1 0 0.3 0 0.1 0.1 0.2 0.1 0.2 0 0.3 0 0.1 0.1 0.2 0.1 0.2 0 0.3 0.1 0.1 0 0.2 0 0.1 0.1 0.2 0.1 0 0.1 0.1 0.1 0.1 0.1 0.2 0.1 0 0.1 0.1 0.1 0.1 0.1 0.1 0.2 0 0.1 0 0.2 0 0.1 0 0.1-0.1 0.1-0.1 0.1-0.1 0.1-0.1 0.1-0.1 0.1-0.2 0.1-0.1 0.1-0.2 0.1-0.1 0.1-0.2 0.1-0.1 0-0.2 0.1-0.2 0-0.3 0-0.2 0.1-0.3 0.1-0.2 0-0.4 0-0.1 0.1-0.3 0.1-0.2 0-0.4 0-0.2 0-0.4 0-0.1 0-0.3 0 0 0 0 0-0.2 0.1-0.4 0.1h-0.1c-1.9 0-3.5 1.1-6.6 1.7q-0.6 0.8-1.3 1.2-0.1 0.1-0.3 0.2-0.4 0.2-0.8 0.3-0.2 0.1-0.4 0.1-0.4 0-0.9 0-0.2 0-0.4 0-0.5-0.1-1.1-0.4-0.2-0.1-0.4-0.2-0.6-0.3-1.2-0.8 0 0 0 0c-4.7-0.5-6.1-2.3-8.4-2.3-0.9 0-5.3 0.4-7.4-1.6 1.6 0.8 4.8 0.8 4.8 0.8 0 0-2.3-0.4-4.2-1.8 3.4 1 5.3 0.3 5.3 0.3 0 0-1.5 0.2-2.5-0.3zm18.4 4.7q0.4-0.1 0.8-0.2-0.4 0.1-0.8 0.2zm-11.9-6.1q-0.4 0-0.8 0 0.4 0 0.8 0zm0.5 0q-0.1 0-0.2 0 0.1 0 0.2 0zm2-0.4q-0.1 0-0.2 0 0.4-0.1 0.8-0.2-0.1 0.1-0.2 0.1-0.2 0-0.4 0.1zm-2 0.4q0.4 0 0.7-0.1-0.3 0.1-0.7 0.1zm0.7-0.1q0.1 0 0.1 0 0 0 0 0-0.1 0-0.1 0zm0.4-0.1q0.2 0 0.4-0.1-0.1 0.1-0.3 0.1 0 0-0.1 0zm0.7-0.2q-0.1 0.1-0.3 0.1 0.2 0 0.3-0.1zm-0.7 0.2q-0.1 0-0.3 0.1 0.2 0 0.3-0.1zm2.3-0.5q0.1-0.1 0.2-0.1 0 0 0 0-0.1 0-0.2 0.1zm0 0q0 0 0 0 0 0 0 0zm1.3-0.2q0.1 0 0.1 0 0 0 0 0 0 0-0.1 0zm0 0q0 0 0 0 0 0 0 0zm0.7-0.1q0.2 0 0.5 0-0.2 0-0.3 0-0.1 0-0.2 0zm1.9 0q0 0 0 0 0 0 0 0 0 0 0 0zm0.7 0q0 0-0.1 0 0.1 0 0.1 0zm-0.7 0q-0.2 0-0.4 0h-0.1q-0.3 0-0.6 0 0.4 0 0.7 0 0.2 0 0.4 0zm-1.3 0q0 0 0 0 0.1 0 0.2 0-0.1 0-0.2 0zm1.9 0q-0.3 0-0.6 0 0.3 0 0.6 0zm0.2 0q0 0 0 0 0.3 0 0.7 0.1-0.1 0-0.2-0.1-0.3 0-0.5 0zm0.7 0.1q0 0 0 0 0 0 0 0zm1.1 0.1q-0.3 0-0.5-0.1-0.1 0-0.2 0 0.4 0.1 0.8 0.1-0.1 0-0.1 0zm-0.7-0.1q0 0 0 0 0 0 0 0zm1.5 7.1q0.2 0 0.3 0-0.4 0-0.7 0 0 0 0 0 0.2 0 0.4 0zm-0.5 0q0.1 0 0.1 0 0 0-0.1 0zm0.8 0q0 0 0 0 0 0 0 0zm-1.5 0.1q0.2 0 0.5 0-0.5 0-1 0 0 0 0.1 0 0.2 0 0.4 0zm-0.5 0q0 0 0 0 0 0 0 0zm-2.2 0.1q0 0-0.1 0 0.1 0 0.2 0 0 0-0.1 0zm-0.2 0q0 0 0 0 0 0 0 0zm0.3 0q0.4 0 0.7 0 0 0 0.1 0-0.1 0-0.1 0-0.3 0-0.7 0zm1 0q0.1 0 0.3 0 0.2 0 0.5 0-0.4 0-0.8 0zm-0.1 0q-0.1 0-0.1 0 0.1 0 0.2 0 0 0-0.1 0zm-1.2 0q0.1 0 0.1 0 0 0-0.1 0zm-16-26c-0.8-0.3-3-0.4-3-0.4 0 0 1.8-0.4 3-0.1 0.9 0.3 1.8 0.2 2.1 0.2-0.2 0-0.9 0-2.1-0.5-1.5-0.6-2.9 0-3 0 0.1-0.1 1.8-1.6 5.5-0.6q0.5 0.1 0.9 0.2h0.1q0.3 0.1 0.7 0.1-0.4 0-0.7-0.1 0.5-0.1 1.2-0.4 0.2-0.1 0.3-0.1 0.3-0.1 0.6-0.2 0.1-0.1 0.3-0.1 0.3-0.2 0.6-0.3 0.1 0 0.3-0.1 0.2-0.1 0.5-0.2 0.2-0.1 0.3-0.1 0.3-0.1 0.5-0.2 0.2-0.1 0.3-0.2 0.3 0 0.6-0.1 0.1-0.1 0.3-0.1 0.3-0.1 0.5-0.2 0.2 0 0.3 0 0.3-0.1 0.6-0.1 0.1 0 0.2 0 0.1 0 0.2-0.1 0.3 0 0.5 0 0.2 0 0.4 0c1.1 0 1.2 0.4 1.7 2.2q-0.5-0.1-0.9-0.2-0.2 0-0.4 0-0.1 0-0.2 0 0.8 0.1 1.5 0.2c2.8 0.7 4.8 1.9 5.9 1.9q0.1 0 0.2 0.1 0.1 0 0.2 0 0 0 0 0 0.1 0 0.1 0 0.1 0 0.3 0 0.1 0 0.2 0 0.1 0 0.2 0 0.1 0 0.2 0.1 0.1 0 0.2 0 0.1 0 0.2 0 0.1 0.1 0.2 0.1 0.1 0 0.2 0 0.1 0.1 0.1 0.1 0.1 0 0.2 0.1 0 0 0.1 0 0.1 0.1 0.1 0.1 0 0 0.1 0.1 0.1 0 0.1 0.1 0 0.1 0 0.2 0 0 0 0.1-0.1 0-0.1 0.1 0 0-0.1 0 0 0.1-0.1 0.1-0.1 0-0.1 0-0.1 0.1-0.2 0.1-0.1 0-0.2 0.1-0.1 0-0.2 0-0.1 0-0.2 0.1-0.2 0-0.3 0-0.1 0-0.3 0-0.1 0-0.3 0.1-0.1 0-0.3 0-0.1 0-0.2 0 0 0 0 0-0.1 0-0.3 0h-0.1c-1.4 0-2.6 0.9-5 1.3q-0.4 0.6-0.9 0.9-0.2 0.1-0.3 0.2-0.3 0.1-0.6 0.2-0.2 0-0.3 0.1-0.3 0-0.7 0-0.1 0-0.3-0.1-0.4 0-0.8-0.2-0.2-0.1-0.4-0.2-0.4-0.2-0.9-0.6 0 0 0 0c-3.5-0.3-4.6-1.7-6.3-1.7-0.7 0-4 0.3-5.6-1.2 1.2 0.6 3.6 0.5 3.6 0.5 0 0-1.7-0.3-3.1-1.3 2.5 0.8 4 0.2 4 0.2 0 0-1.2 0.2-1.9-0.2zm12.2-1.7q0 0 0 0 0 0 0 0zm-7.3 0.7q-0.3 0-0.6-0.1 0.3 0.1 0.6 0.1zm1.9-0.4q-0.1 0-0.1 0.1 0.2-0.1 0.5-0.2-0.1 0-0.1 0-0.2 0.1-0.3 0.1zm-1.5 0.3q0.3 0 0.5 0-0.2 0-0.5 0zm0.5 0q0 0 0.1-0.1-0.1 0.1-0.1 0.1 0 0 0 0zm0.3-0.1q0.2 0 0.3-0.1-0.1 0-0.2 0.1-0.1 0-0.1 0zm0.6-0.1q-0.2 0-0.3 0 0.1 0 0.3 0zm-0.6 0.1q-0.1 0-0.2 0 0.1 0 0.2 0zm1.8-0.4q0 0 0.1-0.1 0 0.1 0 0.1-0.1 0-0.1 0zm0.1-0.1q0 0 0 0 0 0 0 0zm-0.2 0.1q0 0 0.1 0-0.1 0-0.1 0zm1.1-0.2q0 0 0 0 0 0 0 0 0 0 0 0zm-0.1 0q0 0 0.1 0-0.1 0-0.1 0zm0.6 0q0.1 0 0.3 0-0.1 0-0.2 0-0.1 0-0.1 0zm0.3 0q0 0 0 0 0 0 0 0zm2.4 0.1q-0.2-0.1-0.3-0.1-0.2 0-0.4 0-0.3 0-0.6 0-0.1 0-0.3 0h-0.1q-0.2 0-0.4 0 0.2 0 0.5 0 0.8 0 1.6 0.1zm-2.3-0.1q0 0 0 0 0 0 0 0zm0 0q0.1 0 0.1 0 0 0-0.1 0 0 0 0 0zm0.2 0q-0.1 0-0.1 0 0 0 0.1 0zm3.4 5.4q0.1 0 0.1 0-0.2 0.1-0.5 0.1 0.1 0 0.1 0 0.2 0 0.3-0.1zm-0.4 0.1q0 0 0 0 0 0 0 0zm0.5-0.1q0 0 0 0 0 0 0 0zm-1.1 0.1q0.2 0 0.4 0-0.3 0-0.7 0.1 0 0 0 0 0.2-0.1 0.3-0.1zm-0.3 0.1q0 0 0 0 0 0 0 0zm-1.7 0q0 0 0 0 0 0 0.1 0 0 0-0.1 0zm-0.1 0q0 0 0 0 0 0 0 0zm0.2 0q0.3 0 0.5 0 0 0 0.1 0-0.1 0-0.1 0-0.2 0-0.5 0zm0.8 0q0.1 0 0.2 0 0.2 0 0.4 0-0.3 0-0.6 0zm-0.1 0q-0.1 0-0.1 0 0.1 0 0.2 0-0.1 0-0.1 0zm-0.9 0q0 0 0.1 0-0.1 0-0.1 0zm-50.2 14.4c1.3 1.1 4.3 1.6 4.3 1.6 0 0-2-0.8-3.6-2.4 3 1.6 4.9 1.2 4.9 1.2 0 0-1.4-0.1-2.3-0.7-0.9-0.6-3.6-1.2-3.6-1.2 0 0 2.4-0.1 3.8 0.6 1.1 0.5 2.2 0.7 2.5 0.7-0.2 0-1-0.2-2.4-1.1-1.7-1.1-3.6-0.7-3.7-0.7 0.1-0.1 2.6-1.5 7 0.6q0.5 0.3 1 0.5 0.5 0.1 0.9 0.3-0.4-0.2-0.9-0.3 0.8-0.1 1.7-0.2 0.2-0.1 0.4-0.1 0.4-0.1 0.7-0.1 0.2-0.1 0.5-0.1 0.3-0.1 0.7-0.2 0.2 0 0.4-0.1 0.4 0 0.7-0.1 0.2 0 0.4-0.1 0.4 0 0.7-0.1 0.3 0 0.5-0.1 0.3 0 0.6 0 0.3-0.1 0.5-0.1 0.3 0 0.7 0 0.2-0.1 0.4-0.1 0.3 0 0.7 0.1 0.1 0 0.2 0 0.1 0 0.2 0 0.4 0.1 0.8 0.1 0.2 0.1 0.4 0.1c1.3 0.3 1.4 0.8 1.6 3.1q-0.6-0.2-1.1-0.4-0.3-0.1-0.5-0.2-0.1 0-0.2 0 0.9 0.3 1.8 0.6c3.3 1.5 5.5 3.6 6.8 3.8q0.1 0 0.2 0.1 0.2 0 0.3 0 0 0 0 0 0.1 0 0.2 0.1 0.1 0 0.2 0 0.2 0.1 0.3 0.1 0.2 0.1 0.3 0.1 0.1 0 0.3 0.1 0.1 0 0.2 0.1 0.1 0 0.2 0.1 0.1 0 0.2 0.1 0.1 0 0.2 0.1 0.1 0 0.2 0.1 0.1 0.1 0.2 0.1 0 0.1 0.1 0.1 0.1 0.1 0.1 0.2 0.1 0 0.1 0 0.1 0.2 0.1 0.3 0 0.1 0 0.2-0.1 0-0.1 0 0 0.1-0.1 0.1-0.1 0.1-0.1 0.1-0.1 0-0.2 0.1-0.1 0-0.2 0-0.1 0-0.2 0.1-0.1 0-0.2 0-0.2 0-0.3 0-0.2 0-0.3 0-0.2 0-0.3 0-0.2 0-0.4-0.1-0.2 0-0.4 0-0.2 0-0.3 0-0.2-0.1-0.3-0.1 0 0 0 0-0.2 0-0.4-0.1h-0.1c-1.8-0.3-3.4 0.5-6.5 0.5q-0.7 0.6-1.4 0.9-0.1 0-0.3 0.1-0.4 0.1-0.9 0.1-0.1 0.1-0.3 0.1-0.4-0.1-0.9-0.2-0.2 0-0.3-0.1-0.5-0.2-1-0.5-0.2-0.2-0.4-0.3-0.5-0.4-0.9-1-0.1 0-0.1 0c-4.3-1.3-5.2-3.2-7.4-3.6-0.8-0.2-5-0.6-6.6-2.9zm18.9 0.5q0 0 0 0 0 0 0 0zm-9.2-0.9q-0.4-0.1-0.7-0.2 0.3 0.1 0.7 0.2zm0.2 0q0.1 0 0.2 0-0.1 0-0.2 0zm3.6 0q0.1 0 0.2 0 0 0 0 0-0.1 0-0.2 0zm0 0q0 0 0 0 0 0 0 0zm1.2 0q0.1 0 0.1 0 0 0 0 0 0 0-0.1 0zm0 0q0 0 0 0 0 0 0 0zm0.8 0.1q0 0-0.1 0 0.2 0 0.4 0.1-0.1-0.1-0.3-0.1zm2.9 0.6q-0.3-0.1-0.5-0.1-0.4-0.1-0.7-0.2 0.8 0.2 1.6 0.4-0.2 0-0.4-0.1zm-2.4-0.5q0 0 0 0 0.1 0 0.2 0-0.1 0-0.2 0zm0.2 0q0.3 0.1 0.6 0.1h-0.1q-0.3 0-0.5-0.1zm1 0.2q0 0 0 0 0 0 0 0 0 0 0 0zm-0.4-0.1q0.2 0.1 0.4 0.1-0.2 0-0.4-0.1zm0 0q0 0 0 0 0 0 0 0zm2.3 7.5q0.1 0 0.1 0-0.3 0-0.6 0 0.1 0 0.1 0 0.2 0 0.4 0zm-0.5 0q0 0 0 0 0 0 0 0zm-0.7-0.1q0.2 0 0.5 0-0.5 0-1-0.1 0.1 0 0.1 0 0.2 0.1 0.4 0.1zm-0.5-0.1q0 0 0 0 0 0 0 0zm-2-0.4q-0.1 0-0.1 0 0.1 0.1 0.2 0.1-0.1 0-0.1-0.1zm-0.2 0q0 0 0 0 0 0 0 0zm1.9 0.4q0 0 0 0 0 0 0 0zm0 0q-0.3-0.1-0.7-0.1 0.1 0 0.3 0 0.2 0 0.4 0.1zm-0.8-0.2q-0.1 0-0.2 0 0.2 0 0.3 0.1 0 0-0.1-0.1zm-1.1-0.2q0.1 0 0.1 0 0 0-0.1 0zm0.9 0.2q-0.3-0.1-0.6-0.1 0.3 0 0.6 0.1zm13-15.7q-0.3 0.3-0.7 0.4-0.1 0-0.2 0.1-0.2 0-0.4 0.1-0.1 0-0.2 0-0.2-0.1-0.4-0.1-0.1 0-0.2-0.1-0.2-0.1-0.5-0.2 0-0.1-0.1-0.2-0.3-0.2-0.5-0.5 0.1 0.1 0.2 0.1-0.1 0-0.2-0.1 0 0 0 0c-2.2-0.6-2.7-1.6-3.8-1.8-0.4-0.1-2.5-0.3-3.3-1.4 0.7 0.5 2.2 0.8 2.2 0.8 0 0-1-0.4-1.8-1.2 1.5 0.7 2.5 0.6 2.5 0.6 0 0-0.8-0.1-1.2-0.4-0.4-0.3-1.8-0.6-1.8-0.6 0 0 1.2 0 1.9 0.3 0.5 0.3 1.1 0.4 1.3 0.4-0.2 0-0.6-0.1-1.3-0.6-0.8-0.5-1.8-0.4-1.9-0.3 0.1-0.1 1.4-0.8 3.6 0.3q0.3 0.1 0.5 0.2 0.4 0 0.8-0.1 0.1 0 0.3 0 0.1-0.1 0.3-0.1 0.1 0 0.2 0 0.2-0.1 0.4-0.1 0.1 0 0.2-0.1 0.2 0 0.4 0 0.1-0.1 0.2-0.1 0.1 0 0.3 0 0.1 0 0.2-0.1 0.2 0 0.4 0 0.1 0 0.2 0 0.2-0.1 0.3-0.1 0.1 0 0.2 0 0.2 0 0.4 0 0 0.1 0.1 0.1 0.1 0 0.1 0 0.2 0 0.4 0 0.1 0 0.2 0.1c0.7 0.1 0.7 0.4 0.8 1.5q-0.3-0.1-0.6-0.2-0.1 0-0.2-0.1 0 0-0.1 0 0.5 0.2 0.9 0.3c1.7 0.8 2.8 1.8 3.4 1.9q0.1 0 0.1 0.1 0.1 0 0.2 0 0 0 0 0 0 0 0 0 0.3 0.1 0.5 0.1 0 0 0 0.1 0.3 0 0.4 0.1 0.1 0 0.1 0 0.2 0.1 0.3 0.2 0 0 0 0 0.1 0.2 0.1 0.3 0 0 0 0.1 0 0 0 0-0.1 0-0.1 0.1 0 0 0 0-0.1 0-0.1 0-0.1 0-0.1 0-0.1 0-0.1 0.1-0.1 0-0.1 0-0.1 0-0.2 0-0.1 0-0.1 0-0.1 0-0.2 0-0.1 0-0.2 0-0.1-0.1-0.2-0.1-0.1 0-0.2 0 0 0-0.1 0 0 0 0 0-0.1 0-0.2 0v-0.1c-0.9-0.1-1.8 0.3-3.3 0.3zm-1.8-0.2q0.2 0.1 0.3 0.1 0.1 0 0.2 0 0.1 0 0.3 0-0.4 0-0.8-0.1zm-0.1 0q-0.1 0-0.2 0 0 0-0.1 0 0.2 0 0.4 0-0.1 0-0.1 0zm-0.7-0.1q0 0-0.1 0 0.2 0 0.4 0.1-0.1-0.1-0.3-0.1zm-0.2 0q-0.1-0.1-0.2-0.1 0.2 0 0.3 0.1 0 0-0.1 0zm2.4 0.3q-0.3 0-0.6 0 0.1 0 0.1 0 0.1 0 0.2 0 0.2 0 0.3 0zm-0.6 0q0 0 0 0 0 0 0 0zm-1.7-0.3q0 0 0 0 0 0 0 0zm0.5 0.1q0 0-0.1 0 0.1 0 0.1 0zm2.2 0.2q-0.2 0-0.4 0 0.2 0 0.4 0zm-4.7-3.9q-0.1 0-0.2 0 0.1 0 0.1 0 0 0 0.1 0zm-0.2 0q0 0 0 0 0 0 0 0zm0.8 0q0.1 0 0.2 0-0.1 0-0.1 0-0.1 0-0.1 0zm-0.4 0q0.1 0 0.3 0 0 0 0.1 0-0.2 0-0.4 0zm0.9-0.1q-0.1 0.1-0.2 0.1 0.2-0.1 0.4 0 0 0 0 0-0.1-0.1-0.2-0.1zm0.2 0.1q0 0 0 0 0 0 0 0zm-0.5 0q0.1 0 0.1 0 0 0-0.1 0zm0.8 0q-0.1 0-0.2 0 0.2 0 0.5 0 0 0 0 0-0.2 0-0.3 0zm0.3 0q0 0 0 0 0 0 0 0zm-0.5 0q0 0 0 0 0 0 0 0zm2.2 0.3q-0.1 0-0.2 0-0.2-0.1-0.4-0.1-0.1-0.1-0.1-0.1h-0.1q-0.2 0-0.4 0-0.1-0.1-0.2-0.1-0.1 0-0.1 0 0.3 0 0.8 0.1 0.5 0.1 0.9 0.3-0.1-0.1-0.2-0.1zm-14.6-9.4c0.1-0.1 1.3-0.8 3.5 0.3q0.3 0.1 0.6 0.2 0.3 0 0.8-0.1 0.1 0 0.2 0 0.2-0.1 0.4-0.1 0.1 0 0.2 0 0.2-0.1 0.4-0.1 0.1 0 0.2 0 0.1-0.1 0.3-0.1 0.1 0 0.2-0.1 0.2 0 0.4 0 0.1 0 0.2 0 0.2-0.1 0.3-0.1 0.1 0 0.2 0 0.2 0 0.4 0 0.1 0 0.2 0 0.2 0 0.3 0 0.1 0 0.1 0 0.1 0 0.2 0 0.2 0 0.3 0 0.1 0.1 0.2 0.1c0.7 0.1 0.7 0.4 0.8 1.6q-0.2-0.2-0.5-0.3-0.1 0-0.2 0-0.1-0.1-0.1-0.1 0.4 0.2 0.8 0.4c1.7 0.7 2.8 1.7 3.5 1.8q0 0.1 0.1 0.1 0 0 0.1 0 0 0 0 0 0 0 0.1 0 0.2 0.1 0.4 0.2 0.1 0 0.1 0 0.2 0.1 0.4 0.1 0 0 0 0.1 0.2 0.1 0.3 0.2 0 0 0 0 0.1 0.1 0.2 0.2 0 0-0.1 0.1 0 0 0 0 0 0 0 0.1-0.1 0-0.1 0 0 0-0.1 0 0 0-0.1 0.1 0 0-0.1 0 0 0-0.1 0-0.1 0-0.1 0-0.1 0-0.2 0-0.1 0-0.2 0 0 0-0.1 0-0.1 0-0.2-0.1-0.1 0-0.2 0-0.1 0-0.1 0 0 0 0 0-0.1 0-0.2 0h-0.1c-0.9-0.2-1.7 0.2-3.2 0.2q-0.4 0.3-0.7 0.4-0.1 0.1-0.2 0.1-0.2 0.1-0.4 0.1-0.1 0-0.2 0-0.2 0-0.4-0.1-0.1 0-0.2-0.1-0.3-0.1-0.5-0.2-0.1-0.1-0.2-0.2-0.2-0.2-0.5-0.5 0.2 0.1 0.3 0.1-0.1 0-0.3-0.1 0 0 0 0c-2.1-0.6-2.6-1.6-3.7-1.8-0.4 0-2.5-0.2-3.3-1.4 0.6 0.5 2.1 0.8 2.1 0.8 0 0-1-0.4-1.8-1.2 1.6 0.8 2.5 0.6 2.5 0.6 0 0-0.7 0-1.2-0.4-0.4-0.3-1.8-0.5-1.8-0.5 0 0 1.2-0.1 1.9 0.2 0.6 0.3 1.1 0.4 1.3 0.4-0.1 0-0.5-0.1-1.2-0.6-0.9-0.5-1.8-0.3-1.9-0.3zm8.1 4.5q0 0 0.1 0 0 0 0 0 0 0 0 0-0.1 0-0.1 0zm-0.3-0.1q-0.1 0-0.1 0 0.2 0 0.4 0.1-0.2 0-0.3-0.1zm0.7 0.2q0.2 0 0.4 0 0 0 0.1 0 0.2 0.1 0.3 0.1-0.3-0.1-0.8-0.1zm-0.1-0.1q-0.1 0-0.1 0-0.1 0-0.1 0 0.2 0 0.3 0.1 0 0-0.1-0.1zm-0.8-0.1q-0.1 0-0.2-0.1 0.1 0.1 0.2 0.1 0 0 0 0zm2.3 0.3q-0.2 0-0.5 0 0 0 0.1 0 0.1 0 0.1 0 0.2 0 0.3 0zm-0.5 0q0 0 0 0 0 0 0 0zm0.2-3.5q0 0 0 0 0 0 0 0zm-1.9 3.2q0 0-0.1 0 0.1 0 0.1 0zm2.7 0.3q-0.2 0-0.5 0 0.3 0 0.5 0zm-4.7-3.9q-0.1 0-0.2 0 0 0 0 0 0.1 0 0.2 0zm-0.2 0q0 0 0 0 0 0 0 0zm0.7 0q0.1 0 0.2 0 0 0-0.1 0 0 0-0.1 0zm-0.4 0q0.2 0 0.3 0 0.1 0 0.1 0-0.2 0-0.4 0zm0.9 0q-0.1 0-0.1 0 0.2 0 0.3 0 0 0 0 0-0.1 0-0.2 0zm0.2 0q0 0 0 0 0 0 0 0zm-0.4 0q0 0 0.1 0-0.1 0-0.1 0zm0.8 0q-0.1 0-0.2 0 0.2 0 0.5 0-0.1 0-0.1 0-0.1 0-0.2 0zm0.3 0q0 0 0 0 0 0 0 0zm-0.6 0q0 0 0.1 0-0.1 0-0.1 0zm2.5 0.4q-0.1 0-0.2-0.1-0.1 0-0.2 0-0.2-0.1-0.4-0.1-0.1 0-0.2 0 0.5 0.1 1 0.2zm-1-0.2q0-0.1 0-0.1zm0 0q-0.2 0-0.4 0-0.1 0-0.2-0.1-0.1 0-0.2 0 0.4 0.1 0.8 0.1zm-66.5-30.5q0 0 0.1 0 0 0 0.1 0.1 0 0 0 0 0 0 0.1 0 0.2 0.1 0.4 0.3 0 0 0 0 0.2 0.1 0.4 0.3 0 0 0 0 0.1 0.1 0.2 0.3 0 0 0 0 0.1 0.1 0.1 0.2 0 0.1-0.1 0.2 0 0-0.1 0-0.1 0-0.3 0 0 0 0 0-0.2 0-0.5-0.1 0 0 0-0.1-0.3 0-0.6-0.2-0.1 0-0.1 0 0 0 0 0-0.1-0.1-0.2-0.1c-0.8-0.4-1.7-0.3-3.2-0.7q-0.4 0.2-0.8 0.2-0.1 0-0.2 0-0.2 0-0.4 0-0.1 0-0.2-0.1-0.2 0-0.4-0.2-0.1 0-0.1-0.1-0.3-0.1-0.4-0.4-0.1 0-0.2-0.1-0.2-0.3-0.3-0.6 0.1 0 0.2 0.1-0.1-0.1-0.2-0.1 0 0 0 0c-1.9-1.3-2.1-2.3-3.1-2.8-0.4-0.2-2.3-1-2.8-2.3 0.5 0.6 1.9 1.3 1.9 1.3 0 0-0.9-0.6-1.4-1.6 1.2 1.1 2.2 1.3 2.2 1.3 0 0-0.7-0.3-1-0.7-0.4-0.4-1.6-1.1-1.6-1.1 0 0 1.2 0.3 1.7 0.8 0.5 0.4 1 0.7 1.2 0.7-0.2 0-0.5-0.2-1.1-0.9-0.6-0.7-1.6-0.8-1.7-0.8 0.1 0 1.5-0.4 3.3 1.2q0.3 0.2 0.5 0.4 0.3 0.1 0.8 0.2 0.1 0 0.2 0 0.2 0 0.4 0 0.1 0 0.2 0 0.2 0 0.4 0.1 0.1 0 0.2 0 0.2 0 0.4 0 0.1 0 0.2 0 0.1 0.1 0.3 0.1 0.1 0 0.2 0 0.2 0 0.4 0 0.1 0.1 0.2 0.1 0.2 0 0.3 0.1 0.1 0 0.2 0 0.2 0.1 0.4 0.1 0 0 0.1 0.1 0 0 0.1 0 0.2 0.1 0.3 0.2 0.1 0 0.2 0.1c0.6 0.3 0.6 0.5 0.3 1.7q-0.2-0.2-0.5-0.4 0-0.1-0.1-0.1-0.1 0-0.1-0.1 0.4 0.3 0.7 0.6c1.4 1.2 2.2 2.5 2.8 2.8zm-5.8-0.6q0 0 0 0 0 0 0 0 0 0 0 0 0 0 0 0zm0.4 0.1q0.1 0.1 0.3 0.2 0 0 0.1 0.1 0.2 0 0.3 0.1-0.4-0.2-0.7-0.4zm-0.1 0q-0.1 0-0.2-0.1 0 0-0.1 0 0.2 0.1 0.4 0.1-0.1 0-0.1 0zm-0.6-0.3q-0.1 0-0.2-0.1-0.1-0.1-0.2-0.1 0.3 0.2 0.7 0.4-0.2-0.1-0.3-0.2zm2 0.9q-0.3-0.1-0.5-0.2 0 0 0 0 0.1 0 0.2 0.1 0.1 0 0.3 0.1zm-0.5-0.2q0 0 0 0 0 0 0 0zm0.9 0.3q-0.2-0.1-0.4-0.1 0.2 0 0.4 0.1zm-3.4-5q-0.1-0.1-0.2-0.1 0 0 0 0 0.1 0 0.2 0.1zm-0.2-0.1q0 0 0 0 0 0 0 0zm0.7 0.2q0.1 0 0.2 0-0.1 0-0.1 0-0.1 0-0.1 0zm-0.4-0.1q0.1 0 0.3 0.1 0 0 0.1 0-0.2-0.1-0.4-0.1zm0.9 0.2q-0.1 0-0.2 0 0.2 0 0.4 0.1 0 0 0 0-0.1-0.1-0.2-0.1zm-0.3-0.1q0.1 0 0.1 0.1 0-0.1-0.1-0.1zm0.8 0.3q-0.1-0.1-0.2-0.1 0.2 0.1 0.5 0.2 0 0-0.1 0-0.1-0.1-0.2-0.1zm0.3 0.1q0 0 0 0 0 0 0 0zm-0.5-0.2q0 0 0 0 0 0 0 0zm2.2 1.1q0 0 0 0 0 0 0 0zm-0.7-0.5q-0.1 0-0.2 0v-0.1q-0.2 0-0.3-0.1-0.1-0.1-0.2-0.1-0.1 0-0.2-0.1 0.3 0.2 0.7 0.4 0.1 0 0.2 0zm0 0.1q0 0 0 0 0 0 0-0.1 0 0 0 0.1zm0 0q0.4 0.2 0.7 0.4-0.1-0.1-0.2-0.1-0.1-0.1-0.2-0.2-0.1-0.1-0.3-0.1zm58.1 45.4c0.1 0 1.3-0.7 3.5 0.3q0.3 0.2 0.6 0.3 0.3 0 0.8-0.1 0.1 0 0.2-0.1 0.2 0 0.4 0 0.1 0 0.2-0.1 0.2 0 0.4 0 0.1-0.1 0.2-0.1 0.1 0 0.3 0 0.1-0.1 0.2-0.1 0.2 0 0.4 0 0.1-0.1 0.2-0.1 0.1 0 0.3 0 0.1 0 0.2-0.1 0.2 0 0.4 0 0.1 0 0.2 0 0.2 0 0.3 0 0.1 0 0.1 0 0.1 0.1 0.2 0.1 0.2 0 0.3 0 0.1 0 0.2 0.1c0.7 0.1 0.7 0.3 0.8 1.5q-0.2-0.1-0.5-0.2-0.1 0-0.2-0.1-0.1 0-0.1 0 0.4 0.1 0.8 0.3c1.7 0.8 2.8 1.8 3.5 1.9q0 0 0.1 0 0 0.1 0.1 0.1 0 0 0 0 0 0 0.1 0 0.2 0 0.4 0.1 0.1 0 0.1 0 0.2 0.1 0.4 0.2 0 0 0 0 0.2 0.1 0.3 0.2 0 0 0 0 0.1 0.1 0.2 0.2 0 0.1-0.1 0.2 0 0 0 0 0 0 0 0-0.1 0-0.1 0.1 0 0-0.1 0 0 0-0.1 0 0 0-0.1 0 0 0-0.1 0-0.1 0.1-0.1 0.1-0.1 0-0.2 0-0.1 0-0.2-0.1 0 0-0.1 0-0.1 0-0.2 0-0.1 0-0.2 0-0.1 0-0.1 0 0 0 0 0-0.1 0-0.2-0.1h-0.1c-0.9-0.1-1.7 0.2-3.2 0.3q-0.4 0.3-0.7 0.4-0.1 0-0.2 0.1-0.2 0-0.4 0-0.1 0-0.2 0-0.2 0-0.4 0-0.1-0.1-0.2-0.1-0.3-0.1-0.5-0.3-0.1 0-0.2-0.1-0.2-0.2-0.5-0.5 0.2 0.1 0.3 0.1-0.1 0-0.3-0.1 0 0 0 0c-2.1-0.6-2.6-1.6-3.7-1.8-0.4-0.1-2.5-0.3-3.3-1.4 0.6 0.5 2.1 0.8 2.1 0.8 0 0-1-0.4-1.8-1.2 1.5 0.7 2.5 0.6 2.5 0.6 0 0-0.7-0.1-1.2-0.4-0.4-0.3-1.8-0.6-1.8-0.6 0 0 1.2 0 1.9 0.3 0.6 0.3 1.1 0.3 1.3 0.4-0.1-0.1-0.5-0.2-1.2-0.6-0.9-0.6-1.8-0.4-1.9-0.4zm8.2 4.6q0.2 0 0.3 0 0 0-0.1 0-0.1 0-0.1 0-0.1 0-0.1 0-0.2-0.1-0.4-0.1-0.1 0-0.1 0 0.2 0 0.5 0.1zm0.3 0q0.2 0.1 0.4 0.1 0 0 0.1 0 0.2 0 0.3 0-0.3 0-0.8-0.1zm-0.9-0.2q-0.1 0-0.2 0 0.1 0 0.2 0.1 0-0.1 0-0.1zm2.4 0.4q-0.3 0-0.6-0.1 0 0 0.1 0 0 0.1 0.1 0.1 0.2 0 0.4 0zm-0.6-0.1q0 0 0 0 0 0 0 0zm0.2-3.4q0 0 0 0 0 0 0 0zm-1.9 3.2q0 0-0.1 0 0.1 0 0.1 0zm2.7 0.3q-0.2 0-0.4 0 0.2 0 0.4 0zm-4.7-3.9q-0.1 0-0.2 0 0 0 0 0 0.1 0 0.2 0zm-0.2 0q0 0 0 0 0 0 0 0zm0.7 0q0.1-0.1 0.2-0.1 0 0-0.1 0 0 0-0.1 0.1zm-0.4 0q0.2 0 0.3 0 0.1 0 0.1 0-0.2 0-0.4 0zm0.9-0.1q-0.1 0-0.1 0 0.1 0 0.3 0 0 0 0 0-0.1 0-0.2 0zm0.2 0q0 0 0 0 0 0 0 0zm-0.4 0q0 0 0.1 0-0.1 0-0.1 0zm0.8 0q-0.1 0-0.2 0 0.2 0 0.5 0.1-0.1 0-0.1 0-0.1 0-0.2-0.1zm0.3 0.1q0 0 0 0 0 0 0 0zm-0.6-0.1q0 0 0.1 0-0.1 0-0.1 0zm2.5 0.5q0 0 0 0 0 0 0 0zm-0.8-0.3q-0.1 0-0.2 0-0.2 0-0.4-0.1-0.1 0-0.2 0-0.1 0-0.2 0 0.4 0 0.8 0.1 0.1 0 0.2 0zm0 0q0 0 0 0 0 0 0 0 0 0 0 0zm0 0q0.4 0.1 0.8 0.3-0.1-0.1-0.2-0.1-0.1 0-0.2-0.1-0.2 0-0.4-0.1zm-30.1 14.2c0 0 2-0.1 3.1 0.5 1 0.5 1.9 0.6 2.1 0.6-0.2 0-0.8-0.2-2-0.9-1.4-1-3-0.6-3.1-0.6 0.1-0.1 2.2-1.3 5.8 0.5q0.5 0.2 0.9 0.4 0.4 0.1 0.7 0.2-0.3-0.1-0.7-0.2 0.6-0.1 1.4-0.2 0.2 0 0.4 0 0.3-0.1 0.6-0.2 0.1 0 0.3 0 0.3-0.1 0.6-0.2 0.2 0 0.4 0 0.3-0.1 0.6-0.1 0.1-0.1 0.3-0.1 0.3-0.1 0.6-0.1 0.2 0 0.3-0.1 0.3 0 0.6 0 0.2-0.1 0.4-0.1 0.3 0 0.5 0 0.2 0 0.4 0 0.3 0 0.6 0 0.1 0 0.1 0 0.1 0 0.2 0 0.4 0.1 0.6 0.1 0.2 0.1 0.4 0.1c1.1 0.2 1.2 0.6 1.3 2.6q-0.4-0.2-0.9-0.4-0.2 0-0.4-0.1-0.1 0-0.1 0 0.7 0.2 1.4 0.5c2.8 1.2 4.6 2.9 5.7 3.1q0.1 0.1 0.2 0.1 0.1 0 0.2 0 0 0 0 0 0.1 0.1 0.2 0.1 0.1 0 0.2 0 0.1 0.1 0.2 0.1 0.1 0 0.2 0.1 0.2 0 0.3 0.1 0.1 0 0.2 0 0.1 0.1 0.2 0.1 0 0 0.1 0.1 0.1 0 0.2 0.1 0.1 0 0.1 0.1 0.1 0 0.2 0.1 0 0 0.1 0 0 0.1 0.1 0.2 0 0 0 0 0.1 0.1 0.1 0.2 0 0.1 0 0.2 0 0 0 0.1-0.1 0-0.1 0-0.1 0.1-0.1 0.1-0.1 0-0.2 0 0 0.1-0.1 0.1-0.1 0-0.2 0-0.1 0-0.2 0-0.1 0-0.2 0-0.2 0-0.3 0-0.1 0-0.3 0-0.1 0-0.2 0-0.2 0-0.4 0-0.1 0-0.3-0.1-0.1 0-0.2 0 0 0 0 0-0.1 0-0.3-0.1h-0.1c-1.5-0.3-2.9 0.4-5.4 0.4q-0.6 0.5-1.2 0.7-0.1 0.1-0.3 0.1-0.3 0.2-0.6 0.2-0.2 0-0.3 0-0.4 0-0.8-0.1-0.1-0.1-0.3-0.1-0.4-0.2-0.8-0.5-0.1-0.1-0.3-0.2-0.4-0.4-0.8-0.8 0 0 0 0c-3.6-1.1-4.4-2.7-6.2-3-0.7-0.2-4.2-0.5-5.5-2.4 1.1 0.8 3.6 1.3 3.6 1.3 0 0-1.7-0.7-3-2 2.5 1.3 4.1 1 4.1 1 0 0-1.2-0.1-1.9-0.6-0.7-0.5-3-1-3-1zm16 1.7q0 0 0 0 0 0 0 0zm-7.7-0.8q-0.3 0-0.6-0.1 0.3 0.1 0.6 0.1zm0.2 0q0.1 0 0.1 0.1 0-0.1-0.1-0.1zm1.8 0q-0.1 0-0.2 0.1 0.3-0.1 0.6-0.1 0 0-0.1 0-0.2 0-0.3 0zm-1.6 0.1q0.3 0 0.5 0-0.2 0-0.5 0zm0.5 0q0.1 0 0.1 0 0 0 0 0 0 0-0.1 0zm0.4 0q0.1 0 0.3 0-0.1 0-0.3 0 0 0 0 0zm0.5 0q-0.1 0-0.2 0 0.1 0 0.2 0zm-0.5 0q-0.2 0-0.3 0 0.1 0 0.3 0zm1.8-0.1q0.1 0 0.2 0 0 0 0 0-0.1 0-0.2 0zm0 0q0 0 0 0 0 0 0 0zm1.1 0.1q0 0 0.1 0 0 0 0 0-0.1 0-0.1 0zm0 0q0 0 0 0 0 0 0 0zm0.7 0q-0.1 0-0.2 0 0.2 0 0.4 0.1-0.1-0.1-0.2-0.1zm2.3 0.5q-0.2 0-0.4-0.1-0.3-0.1-0.6-0.1 0.7 0.1 1.3 0.3-0.1 0-0.3-0.1zm0.3 0.1q0 0 0 0 0 0 0 0zm-1.3-0.3q-0.1-0.1-0.3-0.1h-0.1q-0.2-0.1-0.4-0.1 0.2 0 0.5 0.1 0.2 0 0.3 0.1zm-1-0.2q0 0 0 0 0 0 0 0 0 0 0 0zm1 0.2q0 0 0 0 0 0 0 0 0 0 0 0zm-0.8-0.2q-0.1 0-0.2 0 0.1 0 0.2 0zm2.4 6.3q0.1 0 0.1 0-0.2 0-0.5 0 0.1 0 0.1 0 0.1 0 0.3 0zm-0.4 0q0 0 0 0 0 0 0 0zm-0.6-0.1q0.2 0 0.4 0.1-0.4-0.1-0.8-0.1 0.1 0 0.1 0 0.1 0 0.3 0zm-2.1-0.3q0 0 0-0.1 0 0.1 0.1 0.1 0 0-0.1 0zm-0.2-0.1q0.1 0 0.1 0 0 0-0.1 0zm0.3 0.1q0.3 0 0.5 0.1 0.1 0 0.1 0 0 0-0.1 0-0.2-0.1-0.5-0.1zm1.4 0.2q-0.3 0-0.6-0.1 0.1 0.1 0.2 0.1 0.2 0 0.4 0zm-0.7-0.1q-0.1 0-0.1 0 0.1 0 0.2 0-0.1 0-0.1 0zm-0.9-0.2q0 0 0.1 0-0.1 0-0.1 0zm-71-37.3c0 0-1.5-1-2.5-2.5 2.2 1.7 3.8 1.8 3.8 1.8 0 0-1.1-0.3-1.7-1-0.7-0.6-2.8-1.6-2.8-1.6 0 0 2 0.4 3 1.1 0.8 0.7 1.7 1 1.9 1.1-0.2-0.1-0.8-0.4-1.8-1.4-1.2-1.2-2.8-1.2-2.9-1.2 0.2 0 2.4-0.8 5.6 1.7q0.5 0.3 0.8 0.6 0.4 0.2 0.7 0.4-0.3-0.2-0.7-0.4 0.6 0.1 1.4 0.1 0.2 0 0.4 0 0.3 0 0.6 0 0.2 0 0.3 0 0.3 0 0.7 0 0.2 0 0.3 0 0.3 0.1 0.6 0.1 0.2 0 0.4 0 0.3 0 0.6 0 0.1 0 0.3 0 0.3 0 0.6 0 0.2 0.1 0.3 0.1 0.3 0 0.6 0.1 0.2 0 0.3 0 0.4 0.1 0.6 0.2 0.1 0 0.2 0 0.1 0 0.2 0.1 0.3 0.1 0.5 0.2 0.2 0.1 0.4 0.1c1 0.5 1 0.9 0.7 2.8q-0.4-0.2-0.8-0.5-0.2-0.1-0.3-0.2-0.1-0.1-0.2-0.1 0.7 0.4 1.3 0.8c2.5 1.8 3.9 3.9 4.9 4.3q0.1 0 0.2 0.1 0.1 0 0.2 0.1 0 0 0.1 0 0 0 0.1 0 0.1 0.1 0.2 0.1 0.1 0.1 0.2 0.2 0.1 0 0.2 0.1 0.1 0 0.2 0.1 0.1 0 0.2 0.1 0.1 0.1 0.2 0.1 0 0.1 0.1 0.1 0.1 0.1 0.2 0.2 0 0 0.1 0.1 0 0 0.1 0.1 0 0.1 0.1 0.1 0 0.1 0.1 0.1 0 0.1 0 0.1 0 0.1 0 0.2 0 0.1 0 0.2-0.1 0-0.1 0 0 0.1-0.1 0.1 0 0-0.1 0-0.1 0-0.1 0-0.1 0.1-0.2 0.1-0.1 0-0.2-0.1-0.1 0-0.2 0-0.1 0-0.2 0-0.1 0-0.2-0.1-0.2 0-0.3 0-0.2-0.1-0.3-0.1-0.1-0.1-0.3-0.1-0.1-0.1-0.3-0.1-0.1-0.1-0.2-0.1 0 0 0 0-0.2-0.1-0.3-0.1h-0.1c-1.4-0.6-2.9-0.3-5.4-0.8q-0.6 0.4-1.2 0.5-0.2 0-0.3 0-0.4 0.1-0.7 0-0.2 0-0.3 0-0.4-0.1-0.7-0.3-0.2-0.1-0.3-0.2-0.4-0.2-0.7-0.6-0.1-0.1-0.2-0.2-0.4-0.5-0.7-1 0 0 0 0c-3.3-1.8-3.7-3.5-5.4-4.2-0.7-0.3-4-1.3-4.9-3.5 0.9 1.1 3.2 2 3.2 2zm12.1 1.6q0 0 0 0 0 0 0 0zm-7.9-2.6q0.3 0.2 0.5 0.3-0.2-0.1-0.5-0.3zm2.8 0.8q-0.1 0-0.3-0.1-0.1 0-0.1 0 0.3 0.1 0.6 0.1-0.1 0-0.2 0zm-1.9-0.4q0.3 0.1 0.6 0.2-0.3-0.1-0.6-0.2zm0.6 0.2q0 0 0 0 0 0 0 0 0 0 0 0zm0.3 0q0.2 0.1 0.3 0.1-0.1 0-0.2-0.1-0.1 0-0.1 0zm0.6 0.1q-0.1 0-0.3 0 0.2 0 0.3 0zm-0.6-0.1q-0.1 0-0.3 0 0.2 0 0.3 0zm1.8 0.3q0 0 0 0 0 0 0 0zm0.2 0.1q0 0 0 0-0.1 0-0.2-0.1 0.1 0.1 0.2 0.1zm0.9 0.2q0 0 0 0 0 0 0 0 0 0 0 0zm0 0q0 0 0 0 0 0 0 0zm0.6 0.2q-0.1 0-0.1 0 0.1 0 0.3 0.1-0.1 0-0.2-0.1zm2.5 1.1q0 0 0 0 0 0 0 0zm0 0q-0.2-0.1-0.3-0.1-0.2-0.1-0.3-0.2-0.3-0.1-0.6-0.3-0.1 0-0.3-0.1 0.8 0.3 1.5 0.7zm-1.5-0.7q0 0 0 0zm-0.7-0.3q0 0 0 0 0.1 0.1 0.2 0.1-0.1 0-0.2-0.1zm0.2 0.1q0.2 0.1 0.5 0.2h-0.1q-0.2-0.1-0.4-0.2zm1.1 6.7q0 0 0.1 0-0.2-0.1-0.5-0.1 0 0 0.1 0 0.1 0 0.3 0.1zm-0.4-0.1q0 0 0 0 0 0 0 0zm-0.6-0.2q0.2 0 0.4 0.1-0.4-0.1-0.7-0.3 0 0.1 0 0.1 0.2 0 0.3 0.1zm-2.1-0.9q0 0 0 0 0 0 0 0zm0.9 0.4q0.1 0.1 0.2 0.1 0.2 0.1 0.4 0.2-0.3-0.1-0.6-0.3zm0 0q-0.1 0-0.1 0 0.1 0 0.1 0 0 0 0 0zm-0.8-0.3q0 0 0 0 0.1 0 0.1 0 0 0-0.1 0zm0 0q0 0-0.1-0.1 0.1 0.1 0.1 0.1zm0.6 0.2q0 0 0 0 0 0 0 0zm-0.5-0.2q0.3 0.1 0.5 0.2-0.2-0.1-0.5-0.2zm0.6 0.3q-0.1 0-0.1-0.1 0 0.1 0.1 0.1zm12.5-47.7q0.1 0 0.2 0 0.1 0.1 0.2 0.2 0 0 0 0 0.1 0 0.1 0 0.1 0.1 0.2 0.2 0.1 0 0.3 0.1 0 0.1 0.1 0.1 0.1 0.1 0.2 0.2 0.1 0 0.2 0.1 0.1 0 0.2 0.1 0 0.1 0.1 0.1 0.1 0.1 0.1 0.2 0.1 0 0.1 0.1 0.1 0.1 0.2 0.1 0 0.1 0 0.1 0.1 0.1 0.1 0.2 0 0 0 0.1 0.1 0.1 0.1 0.2-0.1 0.1-0.1 0.1 0 0-0.1 0.1 0 0-0.1 0 0 0-0.1 0-0.1 0.1-0.1 0.1-0.1 0-0.2-0.1-0.1 0-0.2 0-0.1 0-0.2 0-0.1 0-0.2-0.1-0.1 0-0.2 0-0.2-0.1-0.3-0.1-0.1-0.1-0.3-0.1-0.1-0.1-0.3-0.1-0.1-0.1-0.2-0.2-0.1 0-0.2-0.1 0 0-0.1 0-0.1 0-0.2-0.1h-0.1c-1.4-0.7-2.9-0.5-5.3-1.1q-0.7 0.2-1.3 0.3-0.2 0-0.3 0-0.4 0-0.7 0-0.2-0.1-0.3-0.1-0.4-0.1-0.7-0.3-0.1-0.1-0.3-0.2-0.3-0.3-0.6-0.7-0.1-0.1-0.2-0.3-0.3-0.4-0.6-1 0 0 0 0c-3.1-2-3.5-3.8-5.1-4.6-0.6-0.3-3.9-1.6-4.7-3.8 0.9 1.1 3.2 2.2 3.2 2.2 0 0-1.5-1-2.3-2.7 2 1.9 3.6 2.1 3.6 2.1 0 0-1.1-0.4-1.7-1.1-0.6-0.7-2.6-1.8-2.6-1.8 0 0 1.9 0.5 2.9 1.3 0.7 0.7 1.6 1.1 1.9 1.2-0.2-0.1-0.8-0.4-1.8-1.5-1.1-1.2-2.6-1.4-2.8-1.4 0.2 0 2.5-0.6 5.5 2.1q0.4 0.4 0.7 0.6 0.4 0.3 0.7 0.5-0.3-0.2-0.7-0.5 0.6 0.2 1.4 0.3 0.2 0 0.4 0 0.3 0.1 0.6 0.1 0.2 0 0.3 0 0.4 0 0.7 0.1 0.2 0 0.3 0 0.3 0 0.6 0.1 0.2 0 0.4 0 0.3 0 0.6 0.1 0.1 0 0.3 0 0.3 0 0.6 0.1 0.1 0 0.3 0 0.3 0.1 0.6 0.2 0.2 0 0.3 0 0.3 0.1 0.6 0.2 0.1 0.1 0.1 0.1 0.1 0 0.2 0.1 0.3 0.1 0.6 0.2 0.2 0.1 0.3 0.2c1 0.5 0.9 0.9 0.5 2.9q-0.3-0.4-0.7-0.7-0.2-0.1-0.4-0.2 0 0-0.1-0.1 0.7 0.5 1.2 1c2.4 1.9 3.6 4.1 4.6 4.6zm-5.8-5.6q0 0 0 0 0 0 0 0zm-1.5 5.6q0.1 0 0.1 0-0.2 0-0.4-0.1 0 0 0 0 0.2 0 0.3 0.1zm-0.3-0.1q0 0 0 0 0 0 0 0zm0.4 0.1q0 0 0 0 0 0 0 0zm-1-0.4q0.2 0.1 0.4 0.2-0.4-0.2-0.7-0.3 0 0 0 0 0.2 0.1 0.3 0.1zm-1.9-0.9q0 0-0.1 0 0.1 0 0.2 0.1-0.1-0.1-0.1-0.1zm-0.2-0.1q0.1 0 0.1 0.1 0-0.1-0.1-0.1zm1.5 0.8q0 0 0 0 0 0 0 0zm0 0q-0.3-0.2-0.5-0.3 0.1 0.1 0.2 0.1 0.2 0.1 0.3 0.2zm-0.6-0.3q-0.1-0.1-0.1-0.1 0.1 0.1 0.2 0.1-0.1 0-0.1 0zm-0.8-0.4q0 0 0 0 0 0 0 0zm0.6 0.3q-0.2-0.1-0.4-0.2 0.2 0.1 0.4 0.2zm0 0q0 0 0 0 0 0 0 0zm0.1 0q0 0-0.1 0 0.1 0 0.1 0zm-3.1-7.3q-0.1 0-0.2 0 0.1 0 0.2 0zm-0.9-0.4q0.3 0.1 0.5 0.3-0.2-0.2-0.5-0.3zm2.4 0.9q0-0.1-0.1-0.1 0.3 0.1 0.6 0.2-0.1-0.1-0.1-0.1-0.2 0-0.4 0zm-1.5-0.5q0.3 0.1 0.5 0.2-0.2-0.1-0.5-0.2zm0.5 0.2q0.1 0 0.1 0 0 0 0 0-0.1 0-0.1 0zm0.3 0.1q0.2 0 0.4 0.1-0.2-0.1-0.3-0.1 0 0-0.1 0zm0.6 0.1q-0.1 0-0.2 0 0.1 0 0.2 0zm-0.6-0.1q-0.1 0-0.2-0.1 0.1 0.1 0.2 0.1zm1.8 0.4q0.1 0.1 0.2 0.1 0 0 0 0-0.1 0-0.2-0.1zm0 0q0 0 0 0 0 0 0 0zm1.1 0.4q0 0 0 0 0 0 0 0 0 0 0 0zm0 0q0 0 0 0 0 0 0 0zm-0.1 0q0.1 0 0.1 0 0 0-0.1 0zm0.7 0.2q-0.1 0-0.2 0 0.2 0.1 0.4 0.1-0.1 0-0.2-0.1zm1.2 0.6q-0.1 0-0.2-0.1 0.1 0.1 0.2 0.1zm-0.2-0.1h-0.1q-0.3-0.2-0.5-0.3 0.3 0.2 0.6 0.3zm-0.7-0.3q0 0 0 0 0 0 0 0 0 0 0 0zm0.9 0.4q0 0 0 0 0 0 0 0 0 0 0 0zm0 0q0.6 0.4 1.2 0.7-0.2-0.1-0.3-0.1-0.2-0.1-0.3-0.2-0.3-0.2-0.6-0.4zm-0.8-0.4q0 0-0.1 0 0.1 0 0.1 0zm8.8 61.3c0 0 2-0.1 3.1 0.4 0.9 0.5 1.9 0.6 2.1 0.6-0.2 0-0.8-0.2-2-0.9-1.4-0.9-3-0.6-3.1-0.6 0.1-0.1 2.2-1.2 5.8 0.5q0.5 0.2 0.9 0.4 0.4 0.1 0.7 0.2-0.3-0.1-0.7-0.2 0.6 0 1.4-0.2 0.2 0 0.4 0 0.3-0.1 0.6-0.1 0.1-0.1 0.3-0.1 0.3-0.1 0.6-0.1 0.2-0.1 0.4-0.1 0.3-0.1 0.6-0.1 0.1 0 0.3-0.1 0.3 0 0.6-0.1 0.2 0 0.3 0 0.3-0.1 0.6-0.1 0.2 0 0.3 0 0.3-0.1 0.6-0.1 0.2 0 0.4 0 0.3 0 0.6 0 0.1 0 0.1 0 0.1 0.1 0.2 0.1 0.4 0 0.6 0.1 0.2 0 0.4 0c1.1 0.3 1.2 0.7 1.3 2.6q-0.4-0.2-0.9-0.3-0.2-0.1-0.4-0.2-0.1 0-0.1 0 0 0 0 0 0 0 0 0 0 0 0 0 0.7 0.2 1.4 0.5c2.8 1.3 4.6 3 5.7 3.2q0.1 0 0.2 0 0.1 0 0.2 0.1 0 0 0 0 0.1 0 0.2 0 0.1 0 0.2 0.1 0.1 0 0.2 0 0.1 0.1 0.2 0.1 0.2 0 0.3 0.1 0.1 0 0.1 0 0.2 0.1 0.3 0.1 0 0.1 0.1 0.1 0.1 0.1 0.2 0.1 0.1 0 0.1 0.1 0.1 0 0.2 0.1 0 0 0.1 0.1 0 0 0.1 0.1 0 0 0 0.1 0.1 0.1 0.1 0.2 0 0.1 0 0.1 0 0.1 0 0.1-0.1 0-0.1 0.1-0.1 0-0.1 0-0.1 0-0.2 0.1 0 0-0.1 0-0.1 0-0.2 0-0.1 0-0.2 0.1-0.1 0-0.2 0-0.2 0-0.3 0-0.1 0-0.3 0-0.1-0.1-0.2-0.1-0.2 0-0.4 0-0.1 0-0.3 0-0.1-0.1-0.2-0.1 0 0 0 0-0.2 0-0.3 0h-0.1c-1.5-0.3-2.9 0.3-5.4 0.4q-0.6 0.4-1.2 0.7-0.1 0-0.3 0.1-0.3 0.1-0.6 0.1-0.2 0-0.4 0-0.3 0-0.7-0.1-0.1-0.1-0.3-0.1-0.4-0.2-0.8-0.5-0.1-0.1-0.3-0.2-0.4-0.3-0.8-0.8 0 0 0 0c-3.6-1.1-4.4-2.7-6.2-3-0.7-0.1-4.2-0.5-5.5-2.4 1.1 0.9 3.6 1.3 3.6 1.3 0 0-1.7-0.6-3-2 2.5 1.3 4.1 1.1 4.1 1.1 0 0-1.2-0.1-1.9-0.7-0.7-0.5-3-0.9-3-0.9zm8.3 0.8q-0.3 0-0.6-0.1 0.3 0.1 0.6 0.1zm0.2 0.1q0.1 0 0.1 0 0 0-0.1 0zm2.9-0.1q0 0 0 0 0 0 0 0zm0.2 0q0 0 0 0-0.1 0-0.2 0 0.1 0 0.2 0zm0.9 0.1q0 0 0.1 0 0 0-0.1 0 0 0 0 0zm0 0q0 0 0 0 0 0 0 0zm0.7 0q-0.1 0-0.2 0 0.2 0.1 0.4 0.1-0.1 0-0.2-0.1zm2.3 0.5q-0.2 0-0.4-0.1-0.3-0.1-0.6-0.1 0.7 0.1 1.3 0.3-0.1 0-0.3-0.1zm-2-0.4q0 0 0 0 0 0 0 0 0 0 0 0zm0.2 0q0.2 0.1 0.5 0.1h-0.1q-0.2 0-0.4-0.1zm0.8 0.2q0 0 0 0 0 0 0 0-0.1 0-0.3-0.1 0.2 0.1 0.3 0.1 0 0 0 0 0 0 0 0zm-0.3-0.1q0 0 0 0 0 0 0 0zm-0.5-0.1q-0.1 0-0.2 0 0.1 0 0.2 0zm2.4 6.3q0.1 0 0.1 0-0.2 0-0.5 0 0.1 0 0.1 0 0.1 0 0.3 0zm-0.4 0q0 0 0 0 0 0 0 0zm0.5 0q0 0 0 0 0 0 0 0zm-1.1-0.1q0.2 0.1 0.4 0.1-0.4 0-0.8-0.1 0.1 0 0.1 0 0.1 0 0.3 0zm-2.1-0.3q0 0 0 0 0 0 0.1 0 0 0-0.1 0zm-0.2-0.1q0.1 0 0.1 0.1 0-0.1-0.1-0.1zm0.3 0.1q0.3 0.1 0.5 0.1 0.1 0 0.1 0 0 0-0.1 0-0.2 0-0.5-0.1zm1.4 0.3q0 0 0 0 0 0 0 0zm0 0q-0.3-0.1-0.6-0.1 0.1 0 0.2 0 0.2 0 0.4 0.1zm-0.7-0.2q-0.1 0-0.1 0 0.1 0 0.2 0.1-0.1 0-0.1-0.1zm-0.9-0.1q0 0 0.1 0-0.1 0-0.1 0zm25-6.6c0.1-0.1 1.7-1 4.4 0.3q0.4 0.2 0.7 0.3 0.3 0.1 0.6 0.2-0.3-0.1-0.6-0.2 0.5 0 1.1-0.1 0.1 0 0.2 0 0.3-0.1 0.5-0.1 0.1 0 0.3-0.1 0.2 0 0.4-0.1 0.2 0 0.3 0 0.2-0.1 0.4-0.1 0.2 0 0.3 0 0.2-0.1 0.4-0.1 0.2 0 0.3-0.1 0.2 0 0.4 0 0.2 0 0.3-0.1 0.2 0 0.4 0 0.2 0 0.3 0 0.2 0 0.5 0 0 0 0.1 0 0.1 0 0.1 0.1 0.3 0 0.5 0 0.1 0 0.3 0.1c0.8 0.2 0.8 0.5 1 1.9q-0.4-0.1-0.7-0.2-0.2-0.1-0.3-0.1-0.1-0.1-0.1-0.1 0.5 0.2 1.1 0.4c2.1 1 3.5 2.3 4.3 2.4q0 0 0.1 0.1 0.1 0 0.2 0 0 0 0 0 0.1 0 0.1 0 0.1 0.1 0.2 0.1 0.1 0 0.2 0 0 0.1 0.1 0.1 0.1 0 0.2 0 0.1 0.1 0.1 0.1 0.1 0 0.2 0.1 0.1 0 0.1 0 0.1 0.1 0.2 0.1 0 0 0 0 0.1 0.1 0.2 0.1 0 0.1 0 0.1 0.1 0 0.1 0.1 0 0 0.1 0 0 0.1 0 0.2 0 0.1 0 0.1 0 0 0 0-0.1 0.1-0.1 0.1 0 0-0.1 0.1 0 0-0.1 0 0 0-0.1 0-0.1 0-0.1 0-0.1 0.1-0.2 0.1-0.1 0-0.2 0 0 0-0.1 0-0.1 0-0.3 0-0.1 0-0.2-0.1-0.1 0-0.2 0-0.1 0-0.3 0 0 0-0.1 0 0 0 0 0-0.1-0.1-0.3-0.1c-1.1-0.2-2.2 0.3-4.1 0.3q-0.5 0.4-0.9 0.6-0.1 0-0.2 0-0.3 0.1-0.6 0.1-0.1 0-0.2 0-0.3 0-0.5-0.1-0.1 0-0.3 0-0.3-0.2-0.6-0.4-0.1 0-0.2-0.1-0.3-0.3-0.6-0.7 0 0 0 0c-2.7-0.8-3.3-2-4.7-2.2-0.5-0.1-3.2-0.4-4.2-1.8 0.8 0.6 2.7 0.9 2.7 0.9 0 0-1.3-0.4-2.2-1.5 1.9 1 3.1 0.8 3.1 0.8 0 0-0.9-0.1-1.5-0.4-0.5-0.4-2.3-0.8-2.3-0.8 0 0 1.5-0.1 2.4 0.4 0.7 0.3 1.4 0.4 1.6 0.4-0.1 0-0.6-0.1-1.5-0.7-1.1-0.7-2.3-0.5-2.4-0.4zm12.1 1.5q0 0 0 0 0 0 0 0zm-5.9-0.5q-0.2-0.1-0.4-0.1 0.2 0 0.4 0.1zm1.5 0q0 0-0.1 0 0.3 0 0.5 0 0 0-0.1 0-0.1 0-0.3 0zm-1.2 0q0.3 0 0.5 0-0.2 0-0.5 0zm0.5 0q0 0 0 0 0 0 0 0 0 0 0 0zm0.2 0q0.1 0 0.3 0-0.1 0-0.2 0-0.1 0-0.1 0zm0.4 0q0 0-0.1 0 0.1 0 0.1 0zm-0.4 0q-0.1 0-0.2 0 0.1 0 0.2 0zm1.4 0q0.1 0 0.2 0-0.1 0-0.1 0 0 0-0.1 0zm0 0q0 0 0 0 0 0 0 0zm0.8 0q0.1 0 0.1 0 0 0 0 0 0 0-0.1 0zm0.1 0q0 0 0 0 0 0 0 0zm-0.1 0q0 0 0 0 0 0 0 0zm0.5 0.1q0-0.1-0.1-0.1 0.2 0.1 0.3 0.1-0.1 0-0.2 0zm1.8 0.3q-0.1 0-0.3-0.1-0.2 0-0.4-0.1 0.5 0.1 1 0.3-0.2 0-0.3-0.1zm-1.5-0.3q0 0 0 0 0.1 0 0.2 0-0.1 0-0.2 0zm0.2 0q0.1 0 0.3 0.1-0.2-0.1-0.3-0.1zm0.6 0.1q0 0 0 0 0 0 0 0 0 0 0 0zm-0.3 0q0.1 0 0.3 0-0.2 0-0.3 0zm0 0q0 0 0 0zm1.4 4.7q0.1 0 0.1 0-0.2 0-0.4 0 0.1 0 0.1 0 0.1 0 0.2 0zm-0.7-0.1q0.1 0 0.3 0.1-0.3-0.1-0.6-0.1 0 0 0 0 0.2 0 0.3 0zm-0.3 0q0 0 0 0 0 0 0 0zm-1.3-0.3q0 0 0 0 0 0.1 0.1 0.1-0.1 0-0.1-0.1zm-0.1 0q0 0 0 0 0 0 0 0zm1.2 0.3q0 0 0 0 0 0 0 0zm0 0q-0.2-0.1-0.5-0.1 0.1 0 0.2 0 0.2 0 0.3 0.1zm-0.5-0.1q-0.1 0-0.1-0.1 0 0.1 0.1 0.1 0 0 0 0zm-0.7-0.2q0 0 0.1 0-0.1 0-0.1 0zm0.6 0.1q-0.2 0-0.4 0 0.2 0 0.4 0zm-49.4-17c0 0 1.5 0 2.4 0.4 0.7 0.3 1.4 0.4 1.6 0.4-0.1 0-0.6-0.1-1.5-0.7-1.1-0.7-2.3-0.4-2.4-0.4 0.1-0.1 1.7-1 4.4 0.4q0.4 0.1 0.7 0.3 0.3 0.1 0.6 0.1-0.3 0-0.6-0.1 0.5-0.1 1.1-0.2 0.1 0 0.2 0 0.3-0.1 0.5-0.1 0.1 0 0.3 0 0.2-0.1 0.4-0.1 0.2-0.1 0.3-0.1 0.2 0 0.4-0.1 0.2 0 0.3 0 0.2-0.1 0.4-0.1 0.2 0 0.3 0 0.2-0.1 0.4-0.1 0.2 0 0.3 0 0.2-0.1 0.4-0.1 0.2 0 0.3 0 0.2 0 0.5 0 0 0 0.1 0.1 0.1 0 0.1 0 0.3 0 0.5 0 0.1 0.1 0.3 0.1c0.8 0.2 0.8 0.5 1 2q-0.4-0.2-0.7-0.3-0.2-0.1-0.3-0.1-0.1 0-0.1 0 0.5 0.1 1.1 0.4c2.1 0.9 3.5 2.2 4.3 2.4q0 0 0.1 0 0.1 0 0.2 0 0 0 0 0 0.1 0 0.1 0.1 0.1 0 0.2 0 0.1 0 0.2 0.1 0 0 0.1 0 0.1 0 0.2 0.1 0.1 0 0.1 0 0.1 0 0.2 0.1 0.1 0 0.1 0 0.1 0.1 0.1 0.1 0.1 0 0.1 0.1 0.1 0 0.2 0.1 0 0 0 0 0.1 0.1 0.1 0.1 0 0 0.1 0.1 0 0 0 0.1 0 0.1 0 0.1 0 0.1 0 0.1-0.1 0-0.1 0 0 0.1-0.1 0.1 0 0-0.1 0 0 0-0.1 0-0.1 0.1-0.1 0.1-0.1 0-0.2 0-0.1 0-0.2 0-0.1 0-0.1 0-0.1 0-0.3 0-0.1 0-0.2 0-0.1 0-0.2-0.1-0.1 0-0.3 0 0 0-0.1 0 0 0 0 0-0.1 0-0.3-0.1c-1.1-0.2-2.2 0.3-4.1 0.3q-0.5 0.4-0.9 0.6-0.1 0-0.2 0.1-0.3 0-0.6 0-0.1 0.1-0.2 0.1-0.3-0.1-0.5-0.1-0.1-0.1-0.3-0.1-0.3-0.1-0.6-0.3-0.1-0.1-0.2-0.2-0.3-0.3-0.6-0.6 0 0 0 0c-2.7-0.8-3.4-2.1-4.7-2.3-0.5-0.1-3.2-0.4-4.2-1.8 0.8 0.6 2.7 1 2.7 1 0 0-1.3-0.5-2.2-1.5 1.9 0.9 3.1 0.7 3.1 0.7 0 0-0.9 0-1.5-0.4-0.5-0.4-2.3-0.8-2.3-0.8zm12.2 1.3q0 0 0 0 0 0 0 0zm-5.9-0.6q-0.2-0.1-0.4-0.1 0.2 0 0.4 0.1zm1.5 0q0 0-0.1 0 0.3 0 0.5 0-0.1 0-0.1 0-0.1 0-0.3 0zm-1.2 0q0.3 0.1 0.5 0-0.2 0-0.5 0zm0.5 0q0 0 0 0 0 0 0 0 0 0 0 0zm0.2 0q0.1 0 0.3 0-0.1 0-0.2 0-0.1 0-0.1 0zm0.4 0q0 0-0.1 0 0.1 0 0.1 0zm-0.4 0q-0.1 0-0.2 0 0.1 0 0.2 0zm1.4 0q0.1 0 0.1 0 0 0 0 0 0 0-0.1 0zm0 0q0 0 0 0 0 0 0 0zm0.8 0q0.1 0 0.1 0 0 0 0 0-0.1 0-0.1 0zm0 0q0 0 0 0 0 0 0 0zm0.5 0.1q0 0-0.1 0 0.2 0 0.3 0-0.1 0-0.2 0zm1.8 0.3q-0.1 0-0.3 0-0.2-0.1-0.4-0.1 0.5 0.1 1 0.2-0.2 0-0.3-0.1zm-1-0.2q0 0 0 0 0 0 0.1 0-0.1 0-0.1 0zm0 0q-0.3-0.1-0.5-0.1 0 0 0 0 0.3 0.1 0.5 0.1zm0.3 0.1q0 0 0 0 0 0-0.1 0 0.1 0 0.1 0zm-0.2-0.1q0.1 0 0.1 0.1 0-0.1-0.1-0.1zm1.4 4.7q0 0 0.1 0-0.2 0-0.4 0 0 0 0 0 0.1 0 0.3 0zm-0.3 0q0 0 0 0 0 0 0 0zm-0.5 0q0.2 0 0.3 0-0.3 0-0.6-0.1 0.1 0 0.1 0 0.1 0 0.2 0.1zm-0.3-0.1q0 0 0 0 0 0 0 0zm-1.3-0.2q0 0 0 0 0 0 0.1 0 0 0-0.1 0zm-0.1-0.1q0 0.1 0 0.1 0 0 0-0.1zm0.2 0.1q0.2 0 0.4 0.1 0 0 0 0 0 0 0 0-0.2-0.1-0.4-0.1zm1 0.2q0 0 0 0 0 0 0 0zm0 0q-0.2 0-0.4-0.1 0.1 0 0.1 0 0.2 0.1 0.3 0.1zm-0.5-0.1q0 0-0.1 0 0.1 0 0.2 0-0.1 0-0.1 0zm-0.7-0.1q0.1 0 0.1 0 0 0-0.1 0zm65-18.8q0.1 0 0.1 0 0 0-0.1 0zm-61.9-2.9q0.1 0 0.3 0.1-0.2-0.1-0.3-0.1zm-1.1-0.4q0.1 0.1 0.3 0.2-0.2-0.1-0.3-0.2zm2.4 0.7q-0.1 0-0.2 0 0.1 0 0.2 0zm21.7 16.7q-0.1 0-0.1 0 0 0 0.1 0zm-22.8-59.7q0.1 0.1 0.3 0.1-0.2 0-0.3-0.1zm-0.8-0.2q0.1 0 0.2 0.1-0.1-0.1-0.2-0.1zm1.8 0.5q-0.1 0-0.1-0.1 0 0.1 0.1 0.1zm98.9 71.2q0.1 0 0.2 0-0.1 0-0.2 0zm-0.6 0q0.1 0 0.2 0-0.1 0-0.2 0zm-0.7-0.1q0.1 0 0.2 0.1-0.1-0.1-0.2-0.1zm-17.5-8.9q0.1 0 0.2 0-0.1 0-0.2 0zm-32.5 18.9q0.1 0 0.2 0c-0.9 0-1.7 0.1-2.5 0q0.4 0.1 0.7 0.1 0.2 0 0.4 0 0.4-0.1 0.8-0.1 0.2 0 0.4 0zm10.9-12.3q0.1 0 0.1 0 0 0-0.1 0zm0.5 0.1q0 0 0 0 0 0 0 0zm-5.9-8.4q0.1 0 0.2 0-0.1 0-0.2 0zm0.6 0.1q0 0-0.1 0 0.1 0 0.1 0zm-70.8-35.4q0 0 0 0 0 0 0 0zm-0.5-0.3q0.1 0.1 0.1 0.1 0 0-0.1-0.1zm66.5 47.6q0.1 0.1 0.2 0.1-0.1 0-0.2-0.1zm0.6 0.2q0 0-0.1-0.1 0.1 0.1 0.1 0.1zm-79.7-16.7q0.1 0 0.2 0-0.1 0-0.2 0zm27.9 14.7q0 0 0.1 0c-0.8 0.1-1.4 0.1-2.1 0.1q0.3 0 0.6 0 0.2 0 0.4 0 0.3 0 0.6 0 0.2-0.1 0.4-0.1zm33.8 0.5q-0.1 0-0.2 0 0.1 0 0.2 0zm-39-11.7q-0.1 0-0.1 0 0 0 0.1 0z"/>
</svg>