<svg version="1.2" xmlns="http://www.w3.org/2000/svg" viewBox="0 0 1100 450" width="1920" height="1080">
	<title>2302</title>
	<style>
		.s0 { fill: #00346d } 
	</style>
	<path id="layer2" class="s0" d="m26.1 15.6c76.1 77 86.1 78.4 85.4 145.9-0.6 67.5 42.3 119.8 77.7 77.6 35.5-42.1 74.9 79.7 139 60.9 64.1-18.7 74.2-41.5 85.9-18 11.8 23.4 74.7-50.2 126.1-10.7 51.4 39.4 82.6 1.5 101.6 7.5 19.1 6 161.3 125.8 230.4 50.1 69.2-75.6 205-123.2 227.8-205.5 0 223.5 0 338.6 0 338.6h-1117.7v-451.8z"/>
</svg>