<svg version="1.2" xmlns="http://www.w3.org/2000/svg" viewBox="0 0 1920 1080" width="1920" height="1080">
	<title>2302</title>
	<style>
		.s0 { fill: #012242 } 
	</style>
	<path id="layer3" fill-rule="evenodd" class="s0" d="m1933.2 1050.6c-0.3 0.4-0.9 0.9-1.6 0.7-10.4-3-17.7-8.8-24-15.7 3.8 4.9 7.6 9.8 11.7 14.5l-0.1 48.5v2.8q-2-1.1-4.1-2.1c-1.3-0.7-2.7-1.3-4.1-1.9-0.9-0.2-1.8-0.4-2.8-0.5-8.6-0.9-17.3-1.2-25.9-2-10.1-0.9-19.7-3.2-29.9-3.4-2.8 0-5.6 0.1-8.3 0.2-8.1 0.6-16.3 0.8-24.1-1.1-0.5-0.1-1.1-0.1-1.6-0.2-11.8-2.9-22.2-6.5-34.4-7.7-22.1-2.1-44.2 2.9-66.4 4q0-0.1 0-0.1 0.5-0.9 0.9-1.8 0 0 0 0c0.2-0.5 0.4-0.9 0.6-1.3 1.2-6.4 3.2-12.7 5.6-18.8 2.6-6.5 5.1-12.7 6.4-19.4 1.4-9.9 1.4-19 0.6-27.4q-0.1-0.3-0.2-0.5c-0.4 0.1-1-0.1-1.1-0.6-2.2-7-5-14.6-6.7-22.2-2.5-7.1-4.2-14.7-2.3-21.9 1.6-5.6 5.1-10.5 8.3-15.4 0.2-0.3 0.3-0.7 0.5-1 0.2-0.3 0.4-0.5 0.5-0.8 0-0.2 0-0.4 0.2-0.7q0.3-0.4 0.6-0.8c0.6-0.9 1.1-1.8 1.6-2.7 0.1-0.2 0.5-0.1 0.4 0.1q-0.1 0.3-0.3 0.6c2.5-2.9 5.1-5.8 7.8-8.8-0.4-0.2-0.7-0.7-0.2-1.2 4.1-4.7 8.1-9.6 12.1-14.5q0.9-1.2 1.8-2.4c1.8-3.1 3.2-6.4 4.2-9.9 0.2-0.8 0.3-1.7 0.4-2.6q0.8-5.6 0.5-11.4c-1-11.6-5.6-23.2-6.1-34.8-1.2-25 2.1-49.9-3.7-74.7-0.8-3.4-1.8-6.8-2.8-10.2-4.9-7.8-8.4-16.3-7.5-25.5 0.6-5.9 2.7-11.5 5.3-17.1 1-3.2 2.1-6.3 3.4-9.5 2.2-15.2 7.2-30.2 6.7-45.3-2.5-10.5-6.8-20.5-11.1-30.5-4.8-11.2-10.1-22.1-16.9-32.4-4.6-7-9.7-13.6-14.9-20.2-10.3-9.8-21-19-25.9-32.6-2.6-6.9-4.6-13.7-6.8-20.4q-2.8-7.7-5.9-15.4c-3.9-8.5-9.1-16.5-17.4-23.9q-0.7-0.7-1.4-1.3c-10.9-9.4-23.1-17.8-35.4-26.2-3.4-1.6-6.8-3.3-9.9-5.2-10.4-6.3-19.6-13.8-27.5-22.3-8.6-5.1-17.1-9.5-26.1-12.9q-2.9-1-5.8-1.9-6.1-1.4-11.9-3.4c-2.5-0.6-5-1.1-7.5-1.7-1.2-0.2-2.4-0.5-3.6-0.6-14.8-2.2-28.1-4.5-39.7-9.3q-0.1-0.1-0.1-0.1c-13.9-3-23-12.5-30.2-23-9.4-10.7-16.6-23.1-24.6-34.5-6-8.6-12.1-17.3-19.6-25-3-3.1-6.2-6.4-9.6-9.3-3.8-1.8-7.7-3.3-11.7-4.6-13.8-3.4-28.2-5.7-40.2-12.5-3.8-1-7.6-2.5-11.1-5.3-3.2-2.5-5.8-5.5-8.1-8.8 0.3 1.3 0.7 2.6 1 4 0.1 0.4-0.7 0.5-0.8 0.1-1.1-3.5-2.6-7-4.1-10.4-3.7-6.9-6.8-14.3-11-20.8q0-0.1-0.1-0.2-1.6-2.5-3.4-4.8c-8-9.8-15.7-18-22.5-28.5-3.6-3.9-7.6-7.6-11.9-10.7-8.3-5.9-18.3-7.5-28.5-9.2-0.8-0.2-1.1-0.8-0.8-1.3q-0.1 0-0.2 0c-9.2 0.5-16.5 0.6-27.6-1.8-0.4-0.1-0.7-0.2-1.1-0.3-10.3-1.6-20-4.7-29.3-8.5-32.3-11.3-61.4-27.9-91.6-44.1q-4.2-2.1-8.4-4.4c-4.4-2.3-8.9-4.7-13.4-6.9-19-9.5-38.2-22.7-58.5-30.1-15.1-5.4-25.2-1.7-40.4 0.5-35.4 5-48-22.9-77.8-30-27.5-6.4-58.1-17.4-90.4-30.1-3.5 0.8-7.1 1.4-10.6 2.2-4.8 1.1-9.7 2.2-14.6 3.2-4.2 1.1-8.3 2.1-12.6 2.6-4.6 0.6-9.8 1.1-14.9 1-3.1 0.1-6.2 0.1-9.3-0.1-11.1-0.8-22.3-3.5-32.7-7.6-4.8 2.8-9.7 5.4-15.4 6.1-1.9 0.2-3.4-0.6-4.1-1.9q-0.9 0.6-1.9 1.1c-7.3 6.4-13.8 13.4-17.5 22.3-2.2 5.4-3.5 10.9-4.6 16.5q-0.1 0.7-0.1 1.4 0 0 0 0c-0.5 6.3-1.1 12.3-4 18.9-1.6 6.3-3.5 12.6-5 18.9q0 0 0 0c-0.5 2.2-1 4.4-1.3 6.5q-0.7 4.6-0.9 9.2c0.4 3.3 0.7 7.1 0.4 10.2 0.1 1.2 0.1 2.5-0.1 3.7-0.6 3.1-2.3 4.5-5.8 3.5-1.4-0.3-2.8-1.7-4.1-3.3-3.4-2.5-5.6-7.2-7-10.3-2.8-6.8-6.7-13.6-8-20.8-0.2-0.9-0.3-1.9-0.5-2.8-2.3-1.9-4.3-3.9-5.6-6.1-6.5-10.8-3.1-23.5-11.6-33.9-0.6-0.7 0.7-1.5 1.4-0.9 0.4 0.5 0.7 1 1.1 1.4-0.1-0.1-0.1-0.2-0.2-0.3-1.3-2.3-2.9-3.5-4.3-4.7q-0.2 0-0.3 0-0.3 0-0.5 0c-0.8-0.1-1.6-0.1-2.3 0-0.3-1.3-0.6-2.8-0.9-4.2q0-0.2 0-0.3c-3.5-4.6-5.3-10.4-8-15.6-0.4 0.3-1.2 0.3-1.7-0.1-7.1-7.3-15.3-12.5-23.7-17.8-25.3-7.4-52-14.3-78.7-13.1-9.6 0.9-19.2 2.3-28.9 3.7-9.8 1.4-19 4.3-28.6 6.3-9.5 2-19.6 3.3-28.8 6.3-9.2 2.9-18.4 6.5-27.1 10.6-3.3 1.5-6.1 2.9-9.6 1.8-0.8 0.3-1.7 0.6-2.5 0.9-7 3.4-14.1 6.4-21.8 8.1-7.9 2.6-15.8 3.7-26.3 2.3-5.3-0.1-10.5-0.4-15.7-0.8 0.1 0.5-0.1 1-0.9 1.2-3.5 1.1-7.2 1.8-11.1 2.3-0.2 0.3-0.4 0.7-0.8 0.9-8.4 5-18.2 4.7-28 4.6q-0.1 0-0.2 0c-8.9 6.9-20.3 10.2-30.8 14.9-7.2 3.2-14.6 6.5-21 11-5.5 3.9-10.3 8.5-15.9 12.3-3.8 2.5-7.7 4.9-11.8 7.1-6.4 8-16.4 13.9-23.1 21.6-1.2 2-2.4 4-3.4 6.1-7.7 15.2-3.2 31.9-7.6 47.6 0.1 0 0.2 0.2 0.2 0.3-0.2 0.9-0.5 1.7-0.7 2.5-0.3 2.7-0.8 5.5-1.6 8.2-0.1 0.4-0.3 0.7-0.4 1-0.5 2.8-1.1 5.6-2.2 8.3-2.1 5.1-5 10.1-6.4 15.3-1.4 5.5-1.7 10.7-2.2 16.2q-0.1 0.5-0.1 1c0 3.3 0.1 6.5 0.4 9.9 0.9 10 0.3 19.1-2 28.5-0.3 5.3-0.9 10.6-1.5 15.9-0.3 2.3-0.7 6.1-2.1 9.2-0.7 2.9-3.9 8.9-7.9 8.7-0.1 0.3-0.4 0.4-0.6 0.2q-0.2-0.2-0.4-0.4c-0.1 0-0.1-0.1-0.2-0.1-0.1 0-0.3 0.1-0.4 0.1-2.3 0-3.8-1.3-3.6-3.4 0-0.2 0.1-0.4 0.2-0.6-7.2-7.6-12.2-16.2-12.3-26.4-0.1-7.6 1-15.4 0.1-22.9-1-8.9-5.6-15.8-8.6-24.1q0-0.1 0-0.2c-2.3-2.9-4.3-5.7-5.9-8.5q-6.7-12.2-10.4-25.5c-2.4-8.7-2.8-18.1-11.1-24.3-0.7-0.4-0.8-1-0.5-1.5-11.4-5.6-20.4-14.2-34.1-15.2-0.4 0-0.7-0.2-0.9-0.5-4 0.7-8.2 0.8-12.9 0.2-7.6-1.1-15.1-3-22.9-2.8-2.2 0.1-4.4 0.3-6.6 0.6v-4.3q0.1 0 0.3 0v-0.2q-0.2 0.1-0.3 0.1v-12.3-1.1l0.1-15.6v-1-13.7l0.1-13.5v-3-2.3-1.1-1.6-3.9-10.5l0.1-10.4q0.1-0.1 0.2-0.2v-2.9q-0.1 0.1-0.2 0.2v-3.7-7.3-3.6q0.1-0.1 0.2-0.3l0.1-4.4q-0.2 0.1-0.3 0.3l0.2-68.2q0.1-0.2 0.2-0.5v-1.8h0.9q0.1-0.1 0.2-0.3h6.7c0 0.1 0 0.2 0 0.3h15.7q0.2-0.2 0.4-0.3l46.8-0.2h10.6l16.9-0.1q-0.3 0.2-0.6 0.3h12.5q0.4-0.2 0.8-0.3l65.5-0.2q-0.3 0.1-0.6 0.3l9.8-0.1c0.4-0.1 0.8-0.2 1.2-0.3l62.4-0.2c-0.4 0.1-0.8 0.2-1.2 0.3h4.1q0.5-0.1 1.1-0.3l38.8-0.1h2.6l22.8-0.1q-0.2 0.1-0.4 0.3h8.8l149.5-0.5q0.5-0.2 1-0.3l69.9-0.3q-0.9 0.2-1.9 0.4l16.7-0.1c4.5-0.1 9-0.2 13.4-0.2 10-0.2 21.8 0.5 33.2-0.3l27.7-0.1c-0.1 0.2-0.3 0.2-0.5 0.4l228.8-0.8 18.6-0.1q1.6 0.5 3.5 0.5l14.3-0.1 144.9-0.4 64.9-0.3h4 22.7l93.3-0.4 219.6-0.7 47.3-0.1c1.3 0 2.4-0.2 3.4-0.5l31.8-0.1c30.8-1.3 61.5-2 92.4-0.3l40.9-0.1q3.7-0.7 7.5-1.5 1.3-0.3 2.6-0.5c20.5-0.6 41.1-0.6 61.6-0.4-0.1 0-0.1 0-0.2 0.1-2.5 0.7-5 1.4-7.6 2.1l25.7-0.1q10.1-0.8 20.1-1.7c18.9 0.3 37.9 0.4 56.7 0.3 5.5 0 11-0.1 16.5-0.1 0.2 0.4 0.3 0.8 0.4 1.2l58.5-0.2c1.5 0 2.9 0.1 4.4 0.2v1.5l10-0.1h2.7l-1 398c-0.9-0.3-1.8-0.6-2.7-0.8l-0.1 18.3c-3.6 3.8-7.7 7.1-12.5 9.6-11.2 6.1-26.4 7.8-39.6 11.7-2.2 0.8-4.3 1.5-6.4 2.4-10.7 4.8-15.4 12.8-17.9 22.8-2.1 8.9-3.4 17.9-7.6 26.3-0.1 0.2-0.2 0.4-0.3 0.6-3 6.7-7.9 14.2-11.7 20.6-4.7 7.6-12.5 12.7-17.7 19.6q-2.5 3.8-4.1 7.9c-1.6 6.7 0.8 13.2 0.9 20.5 0.1 5.5-0.2 11.1-0.7 16.7 0 0.6 0.1 1.3 0.2 2 0.7 11.9-0.7 24-1.1 35.9-0.5 12.1-0.1 24.1 1.6 36 0.1 0.8-1 0.8-1.3 0.2 0.8 6.3 1.1 12.5 0.5 18.8-0.3 7.1-1.6 14.2-4.4 21-2.6 6.5-5.9 12.7-9 18.9q-3.1 7.9-6.2 15.8-2.2 7.6-3.4 15.5-0.8 5.7-1.3 11.5-0.2 2.5-0.4 5c0.9 9.6 2.8 19.2 3.5 28.5 0.8 9.3 1 18.8 1.3 28.5 3.5 19.1 8.5 37.9 13.1 56.9 2.9 11.6 4 23.3 4.4 35.3 0.1 6.3 0.5 12.7 0.8 19 0.2 0 0.3 0 0.4 0.2 0.7 1.4 1.5 2.7 2.4 3.9 3.7 1.7 6.6 4.2 9 7.2 2.3 1.4 4.5 2.7 6.4 4.5 5.4 5 6.2 12.2 7.9 18.6 2 7.3 4.3 14.5 9.9 20.4 5.6 6.1 13 9.5 20.7 13.1 7.4 3.4 14.8 7.2 21.1 12.1 6.4 5 11.2 10.7 15.9 17 9.9 13.3 18.2 27.3 35.8 33.2 0.3-0.6 0.5-1.2 0.5-1.8 0.2-1.1 2.1-0.9 2.2 0.1 0.2 1.4 0.1 2.5-0.7 3.8zm-134.6-129.7q-0.3-5.6-0.4-11.1c-0.5 3.6-0.9 7.2-0.6 10.9 0.3 0 0.7 0.1 1 0.2zm-74.1 58.3q0.2-2.8 0.7-5.6c0-0.5 0-1 0-1.4q-0.7 3.5-0.7 7zm115.5-515.2c0.6-2.6 1.2-5.3 1.9-7.9-0.2 0.1-0.5 0-0.7 0-0.6 2.6-1 5.2-1.2 7.9zm-1358.9-413.7q2-0.2 3.9-0.4c-0.2 0-0.4-0.1-0.6-0.1q-1.6 0.2-3.3 0.5zm141.8 50.6c0.7 0.9 1.3 2 1.8 3 0-0.9 0-1.7 0-2.7q-0.9-0.1-1.8-0.3zm1129.1 687.8q0.2 0.6 0.3 1.1 0-0.4-0.1-0.8-0.1-0.1-0.2-0.3zm64.4 145.2c4.5 8 6.7 18 9.5 25.2 2.6 6.6 5.4 15.1 11.3 20 3.9 3.3 8.2 4.7 12.7 6-6.1-3.2-11.8-7-15.9-12.1-4.6-5.9-6.9-12.6-8.7-19.5-1.8-7.5-2.9-14.4-8.9-19.6zm-14.5-13.1q0 0.4 0 0.8 0.3 0.1 0.5 0.1c-0.1-0.3-0.4-0.6-0.5-0.9zm-17.8-95c0.7 10.3 1.8 20.6 4.2 30.4 1.5 6.1 4.4 11.8 6.9 17.5-0.9-5.3-1.9-10.6-3.3-16-2.6-10.6-5.3-21.3-7.8-31.9zm17.5-239.9c-1.3 10.7-2.4 21.3-1.8 32.2q0.2 3.6 0.6 7.2c-0.5-13.1 0.9-26.3 1.2-39.4zm-1413.7-513.2q-0.6 0.2-1.2 0.5 0.6-0.3 1.2-0.5zm0.8-0.4q-0.4 0.2-0.8 0.4 0.4-0.2 0.8-0.4zm891.7 154.4c1.5 1.1 3 2.4 4.5 3.6-3.1-4.2-6.2-7.5-10.3-9.6q-2-0.2-4-0.5c-1.8-0.3-3.7-0.5-5.6-0.8q-2.2-0.1-4.5-0.2c7.1 1.3 14.2 3.5 19.9 7.5zm502.3 851.8c-0.5-0.1-1-0.2-1.5-0.2q-0.4-0.1-0.9-0.1-0.2 0-0.5 0 1.6 0.5 2.9 0.3zm109.4-62.9c-4.7-6.2-9.6-12-16.2-16.7 5.9 5 11.3 10.7 16.2 16.7zm-95.1-331.6q0 0 0 0 0 0 0 0 0 0 0 0z"/>
</svg>