<svg version="1.2" xmlns="http://www.w3.org/2000/svg" viewBox="0 0 1920 1080" width="1920" height="1080">
	<title>2302</title>
	<style>
		.s0 { fill: #0059a9 } 
	</style>
	<path id="layer4" class="s0" d="m133 391.3c-1.5 62.1 85.5 97.1 74.3 205.7-11.3 108.6 104.3 17.5 106 114.5 1.6 97.1 104.5 117.1 189.5 102.3 85-14.9 81.8-121.7 107.1-48.6 25.3 73.2 170.6 22 192-39.3 21.3-61.3 18 318.2 64.9-14.4 13-91.3-2.3 305.4 105.4 11.5 14-38.3 129.4 114.5 189 33.1 59.6-81.4 92.5-25.2 133.8 97.1 41.2 122.3 171.7-59.1 193.6-131 28.2-92 90.8 114.5 54.9-55.2-12.9-61.1 86.3 61.5 123 90.6 36.7 29 126.1-1.4 125.4-60.9-0.8-59.6 110.8-101 127.6-178.6v583.4c0 0-1941 39.3-1941 0 0-39.3 0-723.5 0-723.5z"/>
</svg>